<svg xmlns="http://www.w3.org/2000/svg" viewBox="0 0 2000 2000"><defs><style>.a{fill:#fff;}.b{fill:#f9e8f2;}.c{fill:#eab7c2;}.d{fill:#1b2746;}.e{fill:#0e2549;}.f{fill:#ebf4fe;}.g{fill:#f9e5ef;}.h{fill:#e2474b;}</style></defs><title>asesoria</title><rect class="a" width="2000" height="2000"/><path class="b" d="M1578.9,1600.94s181-17.11,192.82-216.86-322.6-446.63-376.92-545.62-140.34-395.52-385-405.19-410.66.66-480.62,233.27S376.3,1037,296.31,1126.19,171.88,1525,364.45,1601.74h0Z"/><polygon class="c" points="1038.57 501.74 1274.65 501.74 1274.65 610.9 1274.65 619.95 1274.65 674.27 1207.09 619.95 1038.57 619.95 1038.57 501.74"/><path class="d" d="M1276.15,677.4l-69.59-55.95H1037.07V500.24h239.08Zm-236.08-58.95h167.55l.41.33,65.12,52.36V503.24H1040.07Z"/><path class="e" d="M1243.18,531.54h-167.9a1.5,1.5,0,0,1,0-3h167.9a1.5,1.5,0,0,1,0,3Z"/><path class="e" d="M1243.18,557.77H1132.91a1.5,1.5,0,0,1,0-3h110.27a1.5,1.5,0,0,1,0,3Z"/><polygon class="c" points="878.91 398.99 666.63 398.99 666.63 499.22 666.63 507.53 666.63 557.4 727.38 507.53 878.91 507.53 878.91 398.99"/><path class="d" d="M665.13,560.58V397.48H880.41V509H727.92Zm3-160.1V554.23L726.85,506H877.41V400.48Z"/><path class="e" d="M845.9,426.47H697.79a1.5,1.5,0,0,1,0-3H845.9a1.5,1.5,0,0,1,0,3Z"/><path class="e" d="M845.9,450.55H697.79a1.5,1.5,0,0,1,0-3H845.9a1.5,1.5,0,0,1,0,3Z"/><path class="e" d="M766.09,474.63h-68.3a1.5,1.5,0,0,1,0-3h68.3a1.5,1.5,0,0,1,0,3Z"/><path class="f" d="M517.14,1126.19l839.29-1.61c4.63,0,8.42-5.4,8.42-12v-1.4c0-6.6-3.79-12-8.42-12l-839.29,1.62c-4.62,0-8.41,5.4-8.41,12v1.39C508.73,1120.79,512.52,1126.19,517.14,1126.19Z"/><path class="e" d="M517.15,1127.69h0c-5.46,0-9.91-6-9.91-13.5v-1.39c0-7.45,4.45-13.5,9.91-13.5l839.29-1.62c5.47,0,9.92,6.06,9.92,13.5v1.4c0,7.44-4.45,13.5-9.92,13.5Zm839.28-27-839.28,1.62c-3.75,0-6.92,4.81-6.92,10.5v1.39c0,5.69,3.17,10.5,6.91,10.5l839.29-1.61c3.75,0,6.92-4.81,6.92-10.5v-1.4C1363.35,1105.49,1360.18,1100.68,1356.43,1100.68Z"/><polygon class="f" points="1393.69 1601.02 1419.1 1601.02 1301.98 1124.77 1276.58 1124.77 1393.69 1601.02"/><path class="e" d="M1420.9,1602.43h-28.32l-.26-1.08-117.54-478h28.31l.26,1.07Zm-26.1-2.83h22.49l-116.41-473.42h-22.5Z"/><polygon class="f" points="520.29 1601.02 494.88 1601.02 564.93 1126.19 590.34 1126.19 520.29 1601.02"/><path class="e" d="M521.58,1602.52H493.15l70.49-477.83h28.44Zm-25-3H519l69.61-471.83H566.23Z"/><polygon class="g" points="814.49 1075.46 907.39 1075.46 887.59 981.49 794.69 981.49 814.49 1075.46"/><path class="d" d="M909.24,1077h-96l-20.43-97h96Zm-93.54-3h89.84l-19.17-91H796.54Z"/><polygon class="a" points="857.73 913.65 857.87 917.38 871.66 916.86 871.52 913.12 857.73 913.65"/><path class="h" d="M626.52,1003.81h443.83a27.15,27.15,0,0,0,27.14-27.14l-70.7-307.48c-2.11-16.51-12.15-27.14-27.14-27.14H555.82a27.14,27.14,0,0,0-27.14,27.14l70.7,307.48C602.91,991.74,611.53,1003.81,626.52,1003.81Z"/><path class="e" d="M1070.35,1005.31H626.52c-14,0-24.39-10.32-28.6-28.3L527.18,669.36v-.17a28.67,28.67,0,0,1,28.64-28.64H999.65c15.39,0,26.35,10.87,28.62,28.37L1099,976.5v.17A28.68,28.68,0,0,1,1070.35,1005.31ZM530.18,669l70.66,307.31c2.28,9.7,8.63,26,25.68,26h443.83A25.66,25.66,0,0,0,1096,976.84l-70.67-307.39v-.07c-2.07-16.18-11.66-25.83-25.65-25.83H555.82A25.67,25.67,0,0,0,530.18,669Z"/><polygon class="g" points="625.19 957.38 1067.46 957.38 996.76 666.54 554.49 666.54 625.19 957.38"/><path class="d" d="M1069.37,958.88H624L552.58,665H997.94l.28,1.15Zm-443-3h439.18L995.59,668H556.4Z"/><polygon class="c" points="923.27 935.87 918.95 935.89 890 936 887.54 936.01 791.61 936.38 749.35 936.54 746.42 936.55 741.64 936.57 741.4 936.57 728.7 936.62 728.69 936.62 725.37 936.63 723.55 936.64 700.75 936.73 700.17 936.73 693.55 936.75 681.68 936.8 679.98 936.8 679.77 936.81 660.18 936.88 647.02 936.93 583.49 688.04 859.74 686.99 918.57 917.47 921.81 930.15 923.27 935.87"/><rect class="c" x="765.07" y="1075.09" width="191.91" height="24.87"/><path class="d" d="M958.48,1101.46H763.57v-27.87H958.48Zm-191.91-3H955.48v-21.87H766.57Z"/><rect class="c" x="738.25" y="599.54" width="65.25" height="24.87"/><path class="d" d="M805,625.91H736.75V598H805Zm-65.25-3H802V601H739.75Z"/><path class="e" d="M835.45,981.12a10.88,10.88,0,1,0,10.88-10.88A10.88,10.88,0,0,0,835.45,981.12Z"/><path class="d" d="M861.19,686.62l-.29-1.13-279.34,1.06,64,250.75.29,1.14,241.69-.93,37.66-.15Zm-275.77,2.92L720.21,689l63.24,245.89-135.27.52ZM786.54,934.9,723.3,689l135.27-.51,62.77,245.88Z"/><rect class="d" x="615.12" y="810.46" width="276.52" height="3"/><polygon class="g" points="760.03 624.41 763.56 642.05 785.51 642.05 782.26 624.41 760.03 624.41"/><path class="d" d="M787.31,643.55h-25l-4.13-20.64h25.31Zm-22.52-3h18.92L781,625.91H761.86Z"/><circle class="e" cx="770.77" cy="612.62" r="7.21"/><path class="d" d="M980.68,698.53H895a1.5,1.5,0,0,1,0-3h85.65a1.5,1.5,0,1,1,0,3Z"/><path class="d" d="M958.79,716.65H916.91a1.5,1.5,0,0,1,0-3h41.88a1.5,1.5,0,0,1,0,3Z"/><path class="d" d="M983.15,927.84a31.65,31.65,0,1,1,31.64-31.64A31.68,31.68,0,0,1,983.15,927.84Zm0-60.29a28.65,28.65,0,1,0,28.64,28.65A28.68,28.68,0,0,0,983.15,867.55Z"/><path class="h" d="M983.53,886.83c-6.72.16-14.81,2.09-18.73,4.52-5,3.07-4.89,7.89-4.64,11.57a2.79,2.79,0,0,0,3.68,2.52l7.57-2a3.41,3.41,0,0,0,2.35-3.6l-.9-4.28a.53.53,0,0,1,.55-.57c2,.12,18.11,0,20.09-.24a.44.44,0,0,1,.47.57l-.87,4.16a2.84,2.84,0,0,0,2.33,3.66l7,1.76A3.38,3.38,0,0,0,1006,902c1.24-8.58-2.82-11.83-6.1-12.93A67.75,67.75,0,0,0,983.53,886.83Z"/><path class="h" d="M643.52,1040.65a9.18,9.18,0,0,0-6.67-4.84c-4.78-.81-10.41,1.84-14.64,4.5v-11.84h-88v26.71a44,44,0,0,0,44,44h0a43.94,43.94,0,0,0,35.43-17.91c.58,0,1.16,0,1.74,0,10,0,18.92-5.23,24.8-14.58C645.79,1057.8,647.17,1047.07,643.52,1040.65Zm-5.89,24.49c-5.25,8.36-13.18,13.09-22,13.18a43.75,43.75,0,0,0,6.58-23.14v-11.27c3.9-2.68,9.69-5.89,14.15-5.14a6.23,6.23,0,0,1,4.55,3.36C644,1047.54,642.61,1057.22,637.63,1065.14Z"/><path class="a" d="M561.8,1088.14a2.11,2.11,0,0,1-1-.24c-20.23-11.17-17.8-45.11-17.69-46.55a2,2,0,0,1,4,.31c0,.33-2.33,32.82,15.64,42.73a2,2,0,0,1-1,3.75Z"/><path class="e" d="M600.07,1021.45A1.49,1.49,0,0,1,599,1021c-8.13-8.06-10.93-11.36-10.78-21.34.14-9.23,4.46-13.2,8.63-17,2.87-2.64,5.58-5.13,6.94-9.39,3.13-9.84-10.33-20-10.47-20.09a1.5,1.5,0,1,1,1.79-2.41c.63.47,15.32,11.53,11.54,23.41-1.6,5-4.74,7.9-7.77,10.69-3.88,3.57-7.54,6.93-7.66,14.88-.14,8.81,2.1,11.43,9.89,19.16a1.5,1.5,0,0,1-1.06,2.57Z"/><path class="e" d="M561,1021.45a1.53,1.53,0,0,1-1.06-.44c-8.12-8.07-10.92-11.36-10.77-21.34.14-9.23,4.46-13.2,8.63-17,2.87-2.64,5.58-5.13,6.94-9.39,3.13-9.84-10.33-20-10.47-20.09a1.5,1.5,0,1,1,1.79-2.41c.63.47,15.32,11.53,11.54,23.41-1.6,5-4.74,7.9-7.77,10.69-3.88,3.57-7.54,6.93-7.66,14.88-.14,8.81,2.1,11.43,9.89,19.16a1.5,1.5,0,0,1-1.06,2.57Z"/><path class="e" d="M581.87,1013.52a1.49,1.49,0,0,1-1-.44c-8.13-8.06-10.93-11.36-10.78-21.33.14-9.24,4.46-13.21,8.63-17,2.87-2.64,5.59-5.14,6.94-9.4,3.13-9.84-10.33-20-10.46-20.09a1.5,1.5,0,0,1,1.78-2.41c.63.47,15.32,11.53,11.54,23.41-1.6,5-4.73,7.91-7.77,10.69-3.87,3.57-7.54,6.94-7.66,14.88-.13,8.81,2.1,11.43,9.89,19.16a1.5,1.5,0,0,1,0,2.12A1.48,1.48,0,0,1,581.87,1013.52Z"/><path class="e" d="M838,824.28c-4.18.18-14.33.47-14.8,7.87-.54,8.44.19,19.39.67,25.16a4.6,4.6,0,0,0,4.3,4.21l25.54,1.65a4.62,4.62,0,0,0,4.84-3.79c1.4-7.77,3.57-24.41,2.8-27C858.75,823.71,844.62,824,838,824.28Z"/><path class="a" d="M828.54,863.62s-.54,19.82-2.44,22-11.39,6.69-11.39,6.69L844.66,914l20.06-13.17s-9.84-10-10.62-12.63c-1.08-3.7.39-22.88.39-22.88Z"/><path class="e" d="M844.62,915.79,811.79,892l2.27-1.09c3.57-1.7,9.68-4.93,10.92-6.32.95-1.39,1.82-12,2.06-21a1.48,1.48,0,0,1,1.54-1.46,1.5,1.5,0,0,1,1.46,1.54c-.17,6.12-.77,20.61-2.82,22.92-1.48,1.67-6.58,4.4-9.62,5.93l27.1,19.63,17.67-11.6c-3.13-3.24-9-9.53-9.71-11.95-1.12-3.85.19-21.42.34-23.41a1.5,1.5,0,1,1,3,.23c-.56,7.31-1.18,19.84-.45,22.34.42,1.42,5.64,7.33,10.25,12l1.29,1.31Z"/><path class="a" d="M838.39,870.93c7.2,1.31,16.33.52,19-1.83,1.57-1.38,2.53-7.16,3.13-13.79,0-.19,1-23.78,1-23.78l-32.4-2.08s-.4,7.14-.6,15.17a.46.46,0,0,1-.71.37c-1.65-1.1-4-2.06-4.22.93-.32,3.73,2.87,6.27,4.53,7.19a.51.51,0,0,1,.28.47c0,5.67.24,10.6.91,12.37a5.39,5.39,0,0,0,2.18,2.51Z"/><path class="e" d="M845.8,873.06a43.91,43.91,0,0,1-7.67-.65,1.5,1.5,0,1,1,.53-2.95c7.37,1.33,15.73.28,17.74-1.49.27-.23,1.65-2,2.62-12.8,0-.39.57-14,.89-22.24L830.49,831c-.13,2.52-.37,7.87-.52,13.62a2,2,0,0,1-3,1.58,4.44,4.44,0,0,0-1.76-.82,2,2,0,0,0-.13.63c-.3,3.41,3.34,5.51,3.76,5.74a2,2,0,0,1,1.05,1.79c0,8.47.52,11.06.81,11.85a4,4,0,0,0,1.61,1.79,1.5,1.5,0,0,1-1.67,2.49,6.89,6.89,0,0,1-2.74-3.23c-.42-1.1-1-3.58-1-12.35-2.52-1.57-5.13-4.56-4.8-8.34a3.42,3.42,0,0,1,1.78-3.08,3.72,3.72,0,0,1,3.19.15c.21-7.24.55-13.43.55-13.5l.09-1.51L863,830.13l-.06,1.46c-.62,15.67-.94,23.7-1,23.85-1,11.16-2.46,13.76-3.63,14.79C856.18,872.16,851.07,873.06,845.8,873.06Z"/><path class="e" d="M828.33,853l2.78,3.12c2.18,2.43,23.77,2.56,25.33,1.9,3.43-1.47,2.76-4.45,4-4.11,1.52.41-1.17,15.53-2.91,17.57s-17.4,1.78-25.67-.47C825,869.12,828.33,853,828.33,853Z"/><path class="e" d="M828.92,831.12s23.73,8.55,35.22.74-5.87-9.27-16.39-8.88S822.43,824.55,828.92,831.12Z"/><path class="a" d="M791.11,936.13c6.27-17.45,17-41.54,29.06-45.07.42-.12,10,2.1,16.84,3.4,1.57-1.49,3.86-1.67,7-.18l0,0c.32.16,13.24-2.54,13.67-2.59,5.11-.64,36.72,35.78,40.84,44.25C898.56,936,791.11,936.13,791.11,936.13Z"/><path class="e" d="M789,937.64l.73-2c6.81-19,17.55-42.35,30-46,.54-.15.6-.17,7.2,1.24,2.93.63,6.54,1.4,9.66,2,1.51-1.1,4-1.77,7.72-.08,1.46-.2,7.27-1.37,10.16-2,2.53-.51,2.9-.58,3.07-.6,6.75-.89,38.82,37.8,42.36,45.09l.15.31V936c0,1.5-1.25,1.51-2.7,1.51H894l-12.18,0-36.93.06-53.73.06Zm31.37-45.07c-8.5,2.71-18.08,17.59-27.09,42.06,13.65,0,88.06-.1,102.75-.15-7.25-11.56-34.19-41-38.15-41.28l-2.78.56c-8.87,1.8-10.62,2.12-11.3,2h-.11l-.31-.14c-3.6-1.72-4.89-.5-5.31-.09l-.56.53-.75-.14c-3.3-.63-7.25-1.47-10.42-2.15C823.76,893.25,821.14,892.69,820.34,892.57Z"/><polygon class="h" points="855.77 934.42 843.89 934.45 842.76 904.46 837.2 898.2 844.5 893.84 851.85 898.2 848.01 903.84 855.77 934.42"/><polygon class="a" points="844.49 893.34 832.25 901.5 815.25 891.61 823.39 887.3 844.49 893.34"/><polygon class="a" points="844.49 893.34 853.99 900.35 864.72 894.47 859.39 889.62 844.49 893.34"/><path class="e" d="M867.29,894.77,859.8,888l-15.28,3.81-21.3-6.08-11.06,5.85,20.14,11.72,12.15-8.1,9.41,7Zm-35.1,5-13.85-8.07,5.22-2.76,17.4,5ZM859,891.27l3.19,2.89-8.06,4.42L847.94,894Z"/><path class="a" d="M690.41,739.89s-2.29,19.87-.63,22S701.14,768,701.14,768L684,802.65l-31,0-5.44-25.49s16.11-12.43,17.11-14.94c1.38-3.49,1.64-22,1.64-22Z"/><path class="e" d="M651.67,804.22l-5.91-27.66.77-.59c7.6-5.86,15.9-12.82,16.62-14.31.92-2.33,1.43-14.39,1.53-21.43a1.54,1.54,0,0,1,3.08,0c0,1.92-.31,18.9-1.75,22.54-1,2.5-11.55,10.91-16.83,15l5,23.32,28.83,0,16-32.32c-3-1.29-9-4-10.47-5.93-1.78-2.31-.56-15.49.32-23.14a1.54,1.54,0,1,1,3.06.35c-1,8.88-1.65,19.44-.89,21,.82,1.06,6.19,3.7,10.67,5.5l1.54.62-18.35,37Z"/><path class="e" d="M684.64,700.76c4.36.42,15,1.32,14.78,8.67-.22,8.38-2,19.15-3.07,24.83a5,5,0,0,1-4.9,3.91l-27,.09a4.59,4.59,0,0,1-4.71-4c-.74-7.77-2.15-24.21-1.1-26.69C662.25,699.09,677.74,700.09,684.64,700.76Z"/><path class="a" d="M666.44,743.73c-1.41-1.42-1.85-7-1.84-13.44a.51.51,0,0,0-.26-.44c-1.75-1-3.94-2.85-3.78-6,.14-2.76,1.93-2.43,3.57-1.55a.47.47,0,0,0,.68-.38c.33-7.73,1-14.5,1-14.5l32-.11s-.24,6.89-.76,14.61c0,.35-1.86,18.78-2.67,20.45a5.54,5.54,0,0,1-2.36,2.28s-2.1,1.59-13.73,1.63Z"/><path class="e" d="M678.27,747.8a1.55,1.55,0,1,1,0-3.09c10,0,12.57-1.2,12.87-1.36l.11-.06a4.09,4.09,0,0,0,1.73-1.62c.65-1.64,2.36-17.91,2.52-19.88.36-5.41.59-10.46.69-12.95l-29,.1c-.21,2.37-.61,7.48-.85,13a2,2,0,0,1-3,1.68,3.26,3.26,0,0,0-1.18-.44,2.52,2.52,0,0,0-.11.7c-.1,1.88.91,3.43,3,4.6a2.06,2.06,0,0,1,1,1.79c0,10.64,1.24,12.2,1.39,12.34a1.55,1.55,0,0,1-2.19,2.19c-1.06-1.05-2.26-3.6-2.3-13.94a7.84,7.84,0,0,1-4-7.13,3.67,3.67,0,0,1,1.65-3.27,3.4,3.4,0,0,1,2.67-.2c.35-7,.9-13,.91-13l.13-1.4,35-.11-.06,1.61c0,.06-.25,7-.76,14.66,0,.17-1.82,18.94-2.83,21a7,7,0,0,1-2.94,2.92c-.81.52-3.89,1.82-14.54,1.85Z"/><path class="h" d="M711.1,773.06A76.59,76.59,0,0,0,701,767.23l.42-.19-7-7.25L678.8,767h0l-20.6-8.1-7.79,6.21c-8.7,5.14-25.1,23.7-34.82,46.82H735.11C730.92,800.65,722.22,780.52,711.1,773.06Z"/><path class="e" d="M681.09,772.09l3.29,3.93L704,767.56,694.79,758l-16,7.42-20.81-8.19L645.29,767.3l27.52,9.41,5-6.12c1,6.8,3.5,23.26,5.88,41.57a1.5,1.5,0,0,0,1.49,1.3h.19a1.5,1.5,0,0,0,1.29-1.68C684.49,795,682.25,779.79,681.09,772.09Zm17.77-5.57-13.61,5.86-4-4.81,12.9-6Zm-27.05,6.67-20.37-7,7-5.59,17.89,7Z"/><path class="e" d="M692.11,710.83c3.82-.33,11-2,10.15-9.8s-2.29-4.9-2.29-4.9-1.54,1.78-2.14,1.87.64.48-1.47-5.92c0,0-5.69-.93-8.07,2.83s-4.17,1.75-5.12-.06c-.81-1.55-3.16.56-3.6,2.18-.84,1.82-9.56,1.15-12.11,2.57-4,2.25-5.43,3.19-5.23,8.75,0,1.07,1.83,11.44,1.83,11.44l3.1-11S685.86,711.36,692.11,710.83Z"/><path class="e" d="M812.06,697s13-.43,19.59,10.84c1.75,3,1.66,3.51.78,6.79-.37,1.37,2,3,1.94,4.88,0,1-.67,2.54-.62,3.68.07,1.58,1.64,2.28,1.88,3.92.14,1-1.39,2-1.19,3s2.23,1.78,2.51,2.78c.37,1.32-.62,2.28-.62,3.55,0,1.53,1.18,1.87,2.63,2.78,1.06.66,0,4,.63,4.66s2.22,1.56,2.43,2.15c.49,1.39-.58,2.45-.41,3.2.25,1.18,2.52,1.59,2.87,2.64s-.54,2.67-.79,3.9c-.21,1,1.75,2,1.84,2.78A12,12,0,0,1,845,763c-.07,1,2.42,2.9,2.37,4.15-1.09,26.22-70.63,21.18-69.88,2.77,0-1.15,2.51-1.89,1.72-3.24a15.87,15.87,0,0,1-1.4-2.76c-.43-1.17,2-2.23,2.55-3.33.8-1.7-2.41-2.65-1.46-5.9.73-2.5,3.13-2,2.92-4-.17-1.61-1.86-3.69-1.56-5,.9-4,4.39-4.41,3.13-5.63s-2.26-1.94-1.7-4.78a16.92,16.92,0,0,1,2-3.83c-.17-2.16-2.5-3.38-1.66-6.76,1.18-4.81,2.81-1.22,2.36-8.66C784.36,714.68,786.71,693.75,812.06,697Z"/><path class="a" d="M800.79,736.84s.92,22.53.06,23.72c-3,4.06-11.67,7.63-13.66,8.16s30.19,21,30.19,21l19-15.43-6.39-5.77s-5.38-2.7-7.74-5.14S818.69,738,818.69,738Z"/><path class="e" d="M817.49,791.59l-.91-.59c-31.34-19.94-31.14-21.26-31-22.42a1.58,1.58,0,0,1,1.18-1.31c2.09-.56,10-3.95,12.71-7.43.37-1.83.19-13-.22-22.94l-.07-1.67,20.9,1.4.07,1.33c.53,10.56,1.87,22.9,3.1,24.41,1.78,1.84,5.89,4.11,7.32,4.83l.18.09,7.85,7.08ZM789.78,769.4c4.08,3.23,16.19,11.28,27.5,18.49L834,774.25l-4.95-4.46c-1-.52-5.67-3-8-5.35s-3.44-17.36-3.86-25l-14.91-1c.84,21.44,0,22.52-.29,23C799.49,765,793.34,768,789.78,769.4Z"/><path class="a" d="M802.8,742.27c-2.65-1.76-9-7.06-9.15-10.53s3.83-3.06,5-2.51c.8.36,0-17,0-17l26.84-1.44s4,14.91,3,24.49-5.47,11.22-12.37,12.42Z"/><path class="e" d="M816.16,749.22a1.5,1.5,0,0,1-.26-3c6.94-1.21,10.3-2.69,11.14-11.09.77-7.67-1.79-19.11-2.68-22.78l-24.12,1.3c.72,15.87.11,16.28-.65,16.79l-.7.48-.82-.35a3.37,3.37,0,0,0-2.55,0c-.12.08-.4.26-.37,1.05.08,2.31,5.08,7.07,8.48,9.33a1.5,1.5,0,0,1-1.66,2.5c-.1-.07-9.63-6.62-9.82-11.72a4,4,0,0,1,1.7-3.65,5.57,5.57,0,0,1,3.66-.74c.11-2.76-.06-9.23-.34-15.09l-.07-1.49,29.55-1.58.31,1.17c.17.62,4,15.29,3.06,25-1.07,10.73-6.55,12.52-13.6,13.74Z"/><path class="e" d="M828.61,710.18a18.93,18.93,0,0,0-5.16,1.38c-.75.29-1.23,2.7-2.08,3.06s-2.71-.66-3.75-.19-1.53,2-2.65,2.55c-.87.45-2.39,0-3.25.47-1.44.82-1.79,2.45-3.14,3.39-.88.62-3.36.63-4.11,1.36-1.39,1.36-1.41,3.58-2,4.1-1.87,1.81-2.6,1-3.45,3.14a6.79,6.79,0,0,0-2.62-.59,3.24,3.24,0,0,0-1.91.59l1.54-19.87Z"/><path class="g" d="M877.71,812H772.05c-1.74-17.94-1.51-34.31,3.9-39.87,4.7-4.84,8.86-5.34,11.16-5.34,6.9,0,37.14,28,45.67.34,1.23-4,10.57,1,13.21,3.09C853.51,776.13,870.57,799.84,877.71,812Z"/><path class="d" d="M880.33,813.46H770.69l-.14-1.35c-2.17-22.41-.76-35.84,4.32-41.06,3.73-3.85,7.85-5.8,12.24-5.8h0c2.16,0,5.4,1.81,9.88,4.3C804.93,774,815.81,780,823.44,777c3.63-1.46,6.21-4.84,7.9-10.32a3.47,3.47,0,0,1,2.36-2.33c4-1.24,11.46,3.29,13.22,4.69,7.72,6.11,24.78,29.81,32.08,42.19Zm-106.92-3H875.05c-7.8-12.66-23.19-33.72-30-39.1-2.31-1.83-8.32-4.84-10.47-4.18a.47.47,0,0,0-.38.36c-2,6.31-5.2,10.42-9.66,12.21-8.95,3.59-20.55-2.86-29-7.58-3.46-1.93-7-3.92-8.42-3.92h0c-3.6,0-6.89,1.6-10.09,4.89C774.07,776.17,771.09,785.12,773.41,810.46Z"/><path class="e" d="M690.7,836.85c-18.36-11,6-22.42,12-16.44,4.61,4.6,2,9.35.41,11.39a17.42,17.42,0,0,1,12.27,2.75c15.91,11,6.85,27.77,6.85,27.77s-5.6,28.93-26.11,17.17C671.7,865.52,677.9,846.05,690.7,836.85Z"/><path class="a" d="M696.39,869.72s1.05,21.83.23,23c-2.82,3.95-11.25,7.47-13.18,8s31.65,13,31.65,13l16-8-6.24-5.54s-5.23-2.58-7.54-4.93-3.58-24.55-3.58-24.55Z"/><path class="e" d="M715.18,915.4l-.61-.23c-32.8-12.23-32.76-13.11-32.7-14.45a1.57,1.57,0,0,1,1.17-1.45c2-.56,9.66-3.89,12.24-7.27.34-1.81.08-12.56-.39-22.2l-.08-1.67,20.36,1.2.07,1.33c.59,10.2,2,22.13,3.18,23.6,1.73,1.77,5.72,3.94,7.11,4.62l.18.09,8,7.15ZM686.85,901c5.09,2.29,17.07,7,28.16,11.1l13.44-6.71L724,901.48c-1-.5-5.53-2.86-7.76-5.13s-3.47-16.77-3.93-24.18L698,871.32c1,20.73.2,21.8-.13,22.26C695.57,896.76,690.36,899.52,686.85,901Z"/><path class="a" d="M698.67,876.21c-2.57-1.69-9.09-8-9.23-11.37s3.69-3,4.86-2.48c.78.35-.49-18.53-.49-18.53l25.94-2.14s4.37,17,3.51,26.34-5.12,11.77-11.89,12.12Z"/><path class="e" d="M711.36,881.65a1.5,1.5,0,0,1-.07-3c6-.31,9.68-2.18,10.48-10.76.69-7.51-2.21-20.56-3.17-24.6l-23.19,1.91c1.14,17.45.57,17.85-.2,18.39l-.69.48-.83-.34a3.28,3.28,0,0,0-2.42.06c-.11.07-.37.25-.33,1,.1,2.49,5.87,8.43,8.55,10.18a1.5,1.5,0,1,1-1.64,2.51c-2.24-1.46-9.72-8.24-9.91-12.56a3.93,3.93,0,0,1,1.64-3.59,5.43,5.43,0,0,1,3.48-.76c0-3-.31-10.12-.74-16.62l-.1-1.48,28.67-2.36.31,1.23c.18.71,4.43,17.41,3.55,26.85-.83,9-4.81,13-13.31,13.48Z"/><path class="h" d="M746.43,935.27c.1-7.2-.5-27.14-10.71-34-3.69-2.48-6-4.17-7.71-5.1a.16.16,0,0,0-.09,0,6,6,0,0,0-2.56-.88h-.25a2.25,2.25,0,0,0-.52.08h0a5.64,5.64,0,0,0-2.92,2.48l-.3.42c-.17.24-.34.48-.51.74v0c-3.52,5.17-8,12.69-24.35,1.62l-.91-.62c-1-.73-2.12-1.54-3.26-2.42a2.46,2.46,0,0,0-1.08-.47,4.42,4.42,0,0,0-1.11-.07,15,15,0,0,0-4.61,1.19c-1.49.57-2.93,1.25-4,1.74-6.09,2.68-6.2,7.63-5.05,12.27,1.09,4.4,3.31,8.52,2.63,10.17l.28,5.58.7,7.2Z"/><path class="g" d="M749.7,933.43c-.09.88-.21,2.25-.35,3.11l-23.92.12c-1.46-10.34-2.65-19.92-3.29-26.91h0a94.56,94.56,0,0,1-.54-11.82c0-.21,0-.4,0-.58.15-1.75.47-2.68,1-2.66a15.63,15.63,0,0,1,1.9.18h0q.36,0,.72.12a18,18,0,0,1,2.61.69.16.16,0,0,1,.09,0c5.06,1.73,10.19,5.73,13.94,12.23C745,913.15,750.55,925.33,749.7,933.43Z"/><path class="d" d="M724.13,938.17l-.18-1.3c-1.55-11-2.7-20.3-3.31-27v-.08a94.15,94.15,0,0,1-.54-12c0-.13,0-.26,0-.38l0-.21c.1-1.17.33-4.12,2.57-4.08a15.26,15.26,0,0,1,1.9.18h.57l.11.1.32.07a19.09,19.09,0,0,1,2.55.65h.21l.27.17c5.81,2,11,6.59,14.61,12.84,3.13,5.44,8.82,18,7.94,26.41l-.06.6c-.08.83-.18,1.87-.3,2.59l-.21,1.26Zm-.49-28.48c.58,6.35,1.65,15.14,3.09,25.47l21.3-.11c0-.39.08-.79.11-1.16l.07-.61c.74-7.13-4.11-18.62-7.56-24.6-3.25-5.62-7.85-9.71-13-11.51h0l-.24-.08a16.55,16.55,0,0,0-2.39-.63H725l-.54-.09H724l-.09-.08-.58-.06a11.49,11.49,0,0,0-.17,1.25l0,.52a90.86,90.86,0,0,0,.53,11.62Zm-1-13.51h0Z"/><path class="g" d="M697.44,910.08c-.17-1.16-.35-2.26-.52-3.29-.46-2.77-.91-5-1.35-6.77-.53-2.14-1-3.42-1.52-3.68a3.57,3.57,0,0,0-1-.38,6.76,6.76,0,0,0-1.74-.2,17.32,17.32,0,0,0-4.74.84s-19.14,1.22-24,27.33c-.84,4.45-1.63,8.79-2.36,13l19.59-.07h1.91l11.87,0,6.62,0h.58C699.62,926.18,698.5,917,697.44,910.08Z"/><path class="d" d="M658.39,938.39l.31-1.77c.74-4.21,1.53-8.58,2.36-13,4.79-25.5,23.1-28.3,25.22-28.53a18.2,18.2,0,0,1,5-.87,8.14,8.14,0,0,1,2.14.26,4.75,4.75,0,0,1,1.34.52c.76.41,1.42,1.34,2.23,4.62.44,1.7.9,4,1.38,6.89.17,1,.35,2.14.52,3.31,1,6.59,2.13,15.58,3.32,26.71l.18,1.66-22.58.08Zm32.93-41.13A16,16,0,0,0,687,898l-.34.06c-.73,0-18,1.54-22.66,26.11-.71,3.77-1.4,7.52-2,11.17l37.11-.14c-1.12-10.34-2.17-18.72-3.13-24.93h0c-.17-1.15-.34-2.24-.51-3.26-.46-2.78-.91-5-1.33-6.64a11.86,11.86,0,0,0-.93-2.82,2,2,0,0,0-.45-.15A5.14,5.14,0,0,0,691.32,897.26Zm2,.39h0Zm-.18-.14Z"/><polygon class="a" points="724.59 908.64 731.37 920.38 727.9 936.64 727.89 936.64 724.57 936.65 722.75 936.66 720.86 910.51 720.03 899.04 720.03 899.02 719.95 897.92 719.41 890.52 724.31 895.3 724.51 895.5 731.81 902.62 728.91 904.54 724.08 907.75 724.59 908.64"/><path class="e" d="M721.54,938l-3.67-50.77,16,15.62-8.06,5.34,6.93,12L729,937.94ZM721,893.85l3,41.51h2.89L730,920.6l-7.65-13.26,7.4-4.91Z"/><polygon class="a" points="700.17 936.73 693.55 936.75 687.36 922.83 693.74 909.65 682.34 905.48 685.51 902.05 688.85 898.43 690.12 897.06 691.32 895.76 695.51 891.22 695.77 893.72 696.48 900.64 697.11 906.87 697.44 910.08 700.17 936.73"/><path class="e" d="M692.57,938.26l-6.87-15.45,6-12.32-11.95-4.37,16.95-18.35,5.17,50.46ZM689,922.86l5.51,12.39h4l-2.71-26.41Zm-4-18,10.83,4-1.44-14.13Z"/><path class="e" d="M723.35,855.48s-2.66-9.83-11.74-9.47c-4.78.19-10.56,1.41-13.22,3.93s-4.46,12.6-4.46,12.6l-4.64-19.09,29.48-5Z"/><path class="c" d="M368.75,1166.61s33.54,92.85,33.54,130.6,6.74,73.22,34.7,84.56,48.13-5.85,52.86-12.65c5.84-8.39,17.4-61.59-39.72-123.76C427.69,1220.94,368.75,1166.61,368.75,1166.61Z"/><path class="d" d="M455.53,1387.07a50.68,50.68,0,0,1-19.11-3.91c-24-9.72-35.63-37.84-35.63-86,0-37.06-33.12-129.16-33.45-130.09l-2.09-5.77,4.52,4.16c.59.54,59.24,54.65,81.46,78.83,30.66,33.37,40.77,63.46,43.85,82.83,3.5,22-.6,37.91-4,42.8C487.28,1375.43,474.32,1387.07,455.53,1387.07ZM372.2,1171.85c7.34,21,31.59,92.78,31.59,125.36,0,46.75,11,74,33.76,83.17,27.14,11,46.45-5.48,51.07-12.12,4.85-7,18.14-59-39.6-121.89C430.48,1226.19,386.37,1185,372.2,1171.85Z"/><path class="e" d="M484.6,1435.66a1.32,1.32,0,0,1-1.31-1.18c-6.88-61.94-70.51-191.13-71.15-192.43a1.32,1.32,0,1,1,2.36-1.17c.65,1.3,64.48,130.91,71.41,193.31a1.32,1.32,0,0,1-1.16,1.46Z"/><path class="c" d="M461.27,1058.52s-28.59,123.15-12.93,197.94,31.57,102.91,51.56,82.74,13.55-150.38-.57-191.46S461.27,1058.52,461.27,1058.52Z"/><path class="d" d="M487.81,1347a12.08,12.08,0,0,1-3.46-.51c-13.59-4-25.5-32.53-37.48-89.75-15.54-74.25,12.65-197.35,12.93-198.58l.95-4.07,1.86,3.74c.24.48,24.14,48.7,38.13,89.39,7,20.23,12.25,62,13.17,104,.48,22.33.2,75.71-12.95,89C496.5,1344.76,492.09,1347,487.81,1347Zm-26-284c-4.76,22.17-25.79,127.22-12,193.11,11.57,55.26,23.15,83.88,35.39,87.49,4.26,1.26,8.72-.54,13.63-5.5,8.56-8.63,13.07-41.08,12.08-86.8-.9-41.06-6.24-83.46-13-103.11C486.27,1114.38,467.73,1075.28,461.8,1063Z"/><path class="e" d="M498.36,1435.66h-.11a1.31,1.31,0,0,1-1.21-1.42c3.08-37.81-29.93-286.78-30.26-289.29a1.32,1.32,0,0,1,2.61-.35c1.37,10.27,33.39,251.76,30.28,289.86A1.32,1.32,0,0,1,498.36,1435.66Z"/><path class="c" d="M604,1168.7s-33.55,92.85-33.55,130.59-6.74,73.23-34.69,84.57-48.13-5.86-52.86-12.66c-5.84-8.38-17.41-61.58,39.72-123.76C545,1223,604,1168.7,604,1168.7Z"/><path class="d" d="M517.17,1389.15c-18.79,0-31.76-11.63-35.55-17.09-3.41-4.89-7.5-20.83-4-42.8,3.08-19.37,13.19-49.46,43.85-82.83,22.22-24.19,80.87-78.29,81.46-78.83l4.51-4.16-2.08,5.77c-.34.92-33.46,93-33.46,130.08,0,48.12-11.65,76.23-35.63,86A50.57,50.57,0,0,1,517.17,1389.15Zm83.33-215.21c-14.18,13.15-58.28,54.34-76.82,74.52-57.75,62.85-44.45,114.92-39.6,121.88,4.62,6.65,23.93,23.13,51.07,12.13,22.71-9.22,33.75-36.42,33.75-83.18C568.9,1266.71,593.15,1194.92,600.5,1173.94Z"/><path class="e" d="M488.1,1437.74H488a1.31,1.31,0,0,1-1.16-1.45c6.93-62.4,70.76-192,71.4-193.32a1.32,1.32,0,0,1,2.37,1.17c-.64,1.3-64.27,130.5-71.15,192.44A1.33,1.33,0,0,1,488.1,1437.74Z"/><polygon class="h" points="412.05 1434.34 567.65 1434.34 549.02 1600.66 429.75 1601.02 412.05 1434.34"/><path class="e" d="M1471.73,1397.25s38,194,35.34,203.38-57-199.27-57-199.27Z"/><path class="e" d="M1413.68,1414.62s-.61,180.18-5.27,186.18-16-184.42-16-184.42Z"/><path class="e" d="M1291.74,1414.62s30.67,181.79,24.67,186.32-44-187.11-44-187.11Z"/><path class="e" d="M1241.77,1411.72s-62,185.08-73.36,186.41,51.9-188.34,51.9-188.34Z"/><path class="c" d="M1447.67,1023.8s88.4-11.22,92.4,26.56,13.6,318.77-46.2,348.77-274.8,13-300.8,7-20-97-20-97l223-30,27.67-247,23.93-8.33Z"/><path class="d" d="M1356.16,1417.84c-74.19,0-150-7.15-163.43-10.25-26.93-6.21-21.4-94.79-21.15-98.56l.08-1.22,1.21-.17,221.84-29.84L1422.36,1031l25.12-8.72c2.48-.31,61-7.48,84.54,11.17a24,24,0,0,1,9.54,16.72c2.12,20,5.37,99.51.83,177.55-2.6,44.79-7.33,81.77-14.05,109.89-8.27,34.59-19.64,55.73-33.8,62.83C1468.18,1413.7,1412.64,1417.84,1356.16,1417.84ZM1174.5,1310.45a375.84,375.84,0,0,0,.32,44.85c2.24,30,8.67,47.08,18.59,49.37,23.53,5.43,239.37,23.43,299.79-6.88,24.46-12.27,40.44-71.13,46.2-170.22,4.52-77.86,1.29-157.12-.82-177a21.16,21.16,0,0,0-8.43-14.69c-22-17.43-78.77-11-82.14-10.56l-22.88,8-27.7,247.22Z"/><path class="e" d="M1496,1110.4a1.5,1.5,0,0,0-3-.54c-.29,1.58-28.47,156.89-27.07,216.65h-91.24a1.62,1.62,0,0,0,0,3.24h112.33a1.62,1.62,0,0,0,0-3.24H1469C1467.56,1267.13,1495.71,1112,1496,1110.4Z"/><polygon class="a" points="1011.2 1483.03 993.61 1557.72 1043.56 1557.72 1057.03 1507.42 1011.2 1483.03"/><path class="e" d="M1045,1559.59H991.25l18.69-79.35,49.28,26.23Zm-49-3.74h46.16l12.71-47.48-42.38-22.56Z"/><path class="h" d="M990.87,1555.54s-72.18,22.91-74.67,41.79h129.43v-41.79Z"/><polygon class="a" points="1187.71 1521.19 1193.55 1558.44 1240.82 1558.44 1235.82 1517.88 1187.71 1521.19"/><path class="e" d="M1242.93,1560.31h-51l-6.41-40.85,51.91-3.56Zm-47.78-3.73h43.56l-4.52-36.71-44.32,3Z"/><path class="h" d="M1190.81,1556.27s-72.18,22.91-74.67,41.79h129.43v-41.79Z"/><polygon class="e" points="1111.43 1590.88 1111.43 1601.74 1248.95 1601.74 1248.95 1589.33 1111.43 1590.88"/><polygon class="e" points="1049.68 1589.44 1049.68 1601.02 912.15 1601.02 912.15 1588.6 1049.68 1589.44"/><path class="e" d="M1010.41,1583.35a1.72,1.72,0,0,1-.42-3.38l13.15-3.33h-14a2.45,2.45,0,0,1-.65-4.81l19.63-5.43h-12.77a1.71,1.71,0,1,1,0-3.42h20a2.45,2.45,0,0,1,.65,4.81l-19.63,5.42H1031a2.45,2.45,0,0,1,.61,4.83l-20.75,5.25A1.52,1.52,0,0,1,1010.41,1583.35Zm24.92-16.95h0Z"/><path class="e" d="M1212,1584.07a1.71,1.71,0,0,1-.43-3.37l13.15-3.33h-14a2.46,2.46,0,0,1-.66-4.82l19.64-5.42h-12.77a1.72,1.72,0,1,1,0-3.43h20a2.46,2.46,0,0,1,.66,4.82l-19.64,5.42h14.63a2.45,2.45,0,0,1,.6,4.82L1212.4,1584A2.09,2.09,0,0,1,1212,1584.07Zm24.91-16.94h0Z"/><path class="a" d="M1300.79,825.86s5.59,58.78.89,65.28-12.61,34.32-12.61,34.32l26.27,118,97.18-9.39-14.27-90.47s-23.78-45.15-26.46-52.57c-3.7-10.27-3.71-65.13-3.71-65.13Z"/><path class="e" d="M1314.17,1045l-26.64-119.62.1-.37c.33-1.14,8-28.15,12.84-34.79,3.18-4.4,1-41.75-1.18-64.26a1.5,1.5,0,0,1,3-.28c.58,6.07,5.51,59.54.62,66.3-4.21,5.82-11.33,30.21-12.28,33.49l25.9,116.29,94.27-9.11-14-88.65c-2-3.81-23.81-45.3-26.42-52.54-3.75-10.4-3.8-63.39-3.8-65.64a1.5,1.5,0,0,1,3,0c0,.55.05,54.72,3.62,64.62,2.61,7.24,26.14,51.93,26.37,52.38l.12.22,0,.25,14.52,92Z"/><path class="e" d="M1314.18,714.74c-12.12,1.69-41.61,5.41-40.91,27.16.8,24.82,6,56.59,9.06,73.31a13.49,13.49,0,0,0,13.72,11.1L1371,823.9a13.53,13.53,0,0,0,13-12.43c1.88-23.09,5.45-72,2.49-79.21C1376.41,707.57,1333.37,712.07,1314.18,714.74Z"/><path class="a" d="M1365.7,840.29c3.91-4.33,5-21,4.84-40a1.59,1.59,0,0,1,.73-1.34c4.82-3.09,11.74-9.59,11.23-19-.44-8.15-6.28-6.25-10.82-3.48a1.25,1.25,0,0,1-1.89-1.06c-1.1-22.87-3-42.88-3-42.88l-89,2.87s.83,20.39,2.43,43.24c.07,1,5.57,55.47,7.86,60.34a15.31,15.31,0,0,0,6.62,6.54s5.86,4.48,38.22,3.44Z"/><path class="e" d="M1323.54,850.63c-22.83,0-28.7-3.17-29.69-3.84a16.55,16.55,0,0,1-7.16-7.16c-2.49-5.28-8-60.36-8-60.87-1.57-22.61-2.42-43.08-2.43-43.29l-.06-1.51,92-3,.14,1.4c0,.2,1.9,20.09,3,42.58,4-2.38,7.21-3,9.48-1.77,2,1,3.06,3.28,3.25,6.67.6,11.08-8.14,17.91-11.92,20.33.15,23.56-1.56,37-5.26,41.09a1.51,1.51,0,0,1-2.12.11,1.49,1.49,0,0,1-.11-2.12c1.76-2,4.69-9.63,4.45-39a3.09,3.09,0,0,1,1.42-2.61c3.34-2.14,11.06-8.14,10.54-17.65-.08-1.56-.44-3.54-1.64-4.18s-3.81,0-6.9,1.9a2.65,2.65,0,0,1-2.68.08,2.78,2.78,0,0,1-1.49-2.35c-.92-19.14-2.42-36.46-2.87-41.41l-86.1,2.78c.22,5.14,1,22.65,2.35,41.69.17,2.28,5.67,55.43,7.73,59.8a13.79,13.79,0,0,0,6,5.87l.18.11s6.47,4.13,37.26,3.14a1.5,1.5,0,1,1,.1,3C1329.52,850.58,1326.4,850.63,1323.54,850.63Z"/><path class="e" d="M1328.76,785.28a2.49,2.49,0,0,1-2.48-2.29l-.15-1.84a2.5,2.5,0,0,1,5-.41l.15,1.84a2.5,2.5,0,0,1-2.29,2.69Z"/><path class="e" d="M1291.33,788a2.49,2.49,0,0,1-2.49-2.39l-.1-2.17a2.5,2.5,0,0,1,5-.21l.09,2.17a2.49,2.49,0,0,1-2.39,2.6Z"/><path class="e" d="M1345.88,771.66a1.5,1.5,0,0,1-1.32-.8c-4.68-8.82-22.08-3.67-22.25-3.62a1.5,1.5,0,0,1-.87-2.87c.81-.24,19.94-5.92,25.77,5.08a1.5,1.5,0,0,1-.62,2A1.53,1.53,0,0,1,1345.88,771.66Z"/><path class="e" d="M1308.59,805.21a1.23,1.23,0,0,1-.27,0c-1.32-.24-7.93-1.62-8.74-5.31-.32-1.49.39-5.35,2.08-13.81,1.25-6.21,2.95-14.71,2.54-16.46-.13-.55-.76-1-1.26-1.19-3-1.43-9.86-1.18-16.71,2.1a1.5,1.5,0,1,1-1.29-2.7c7-3.34,14.9-4.2,19.29-2.1a4.84,4.84,0,0,1,2.89,3.2c.52,2.23-.6,8.19-2.52,17.74-1,5.09-2.29,11.44-2.09,12.58s3.54,2.49,6.34,3a1.5,1.5,0,0,1-.26,3Z"/><path class="e" d="M1299.56,815.77c-1,1.22,3.34,10.7,7.73,10.17,11.27-1.35,17.72-14.68,15-13.89-1,.31-8.17,2.47-12.93,3.33C1302.92,816.55,1300.66,814.38,1299.56,815.77Z"/><path class="e" d="M1382.07,743.23c-9.12-15.39,5.65-19.29-3.66-27.11-5.56-4.67-15.65-4.29-15.65-4.29l-.35.51c-1.78-3.15-4.77-5.4-9.77-4.7-13.75,1.94-15.54-11.68-28.43-9.78s-5.84,5.63-19.1,9.11-20-3.88-23.51,6.62-14,8-18.45,15.2-2.85,15.34,3.72,17.9-3.32,8.37,2.07,14.08,27.5,4.62,31.07-4.07,5.44-14.59,13.66-15.2,18.3,3.41,23.85,1.7,13-7.85,16.09-6.37,6.37,6.55,9.38,6.07a2.76,2.76,0,0,0,.83-.29c3.07,3,6,5.94,5.69,11.21C1369.16,760.88,1386.49,750.71,1382.07,743.23Z"/><path class="e" d="M1240.72,1209.93s-158.65-6.59-162.65,29.76,93.25,293.44,93.25,293.44l76.25-10.15s-54.86-188.52-52.48-202c9.4-53.49,228.65-118.47,228.65-118.47Z"/><path class="e" d="M1440.41,1209.4s22.28,117.32-84.26,124.55c-107.58,7.3-199.07-21.82-222.49-3.4-6.86,5.4-64.16,199.53-64.16,199.53l-83.41-12.2s74.68-252.13,87.29-278.49c12-25,57.69-27.85,155-30S1440.41,1209.4,1440.41,1209.4Z"/><path class="h" d="M1449.74,1035.94c8,59.16-4.67,183.19-4.67,183.19L1228.41,1211s40.19-332.66,70-336.49c12.57-1.61,26,15.41,59.33,0S1441.74,976.78,1449.74,1035.94Z"/><path class="h" d="M996,1099.18s29.14-35.9,75.76-20.38c5.28,1.75,12.83,5.57,7.65,20.38Z"/><path class="e" d="M1080.48,1100.68H992.85l2-2.45c.29-.36,30.34-36.52,77.4-20.85,3.17,1,7.07,2.79,9.11,6.94,1.88,3.82,1.7,9-.52,15.36Zm-81.05-3h78.9c1.64-5.1,1.75-9.15.33-12-1.55-3.15-4.75-4.55-7.37-5.42C1033.38,1067.61,1007,1090,999.43,1097.68Z"/><path class="a" d="M1091,1094.83c18.19-1.57,97.87.07,97.87.07l-8.31-33.2s-85,14.47-91.45,12.62c-12.08-3.47-20-7.55-34.31-8.11-18.87-.74-44.54,5.75-44.26,10.89.16,2.76,33.63-1.41,40.14,1.2C1069.06,1085.68,1078,1095.94,1091,1094.83Z"/><path class="e" d="M1190.79,1096.44l-2,0c-.8,0-79.81-1.62-97.71-.08h0c-8.54.74-15.23-3.08-23.7-7.91a134.76,134.76,0,0,0-17.31-8.72c-3-1.2-13.57-.77-22.08-.43-15.51.63-18.85.52-19-2.08a3.88,3.88,0,0,1,1.3-2.94c5.19-5.28,28.07-10.17,44.51-9.53,10.78.42,18.15,2.85,26,5.43,2.75.91,5.59,1.84,8.7,2.74,4.47,1.29,56.75-6.87,90.79-12.66l1.37-.23Zm-99.8-1.61h0Zm-50-18.93c4.55,0,8.29.24,10.2,1a139.23,139.23,0,0,1,17.68,8.89c8,4.58,14.34,8.18,22,7.53h0c16.68-1.43,83.42-.21,96.06,0l-7.5-29.95c-13.41,2.27-84.45,14.17-90.75,12.35-3.16-.91-6-1.86-8.81-2.77-7.93-2.62-14.78-4.88-25.13-5.28-16.44-.64-38.1,4.4-42.26,8.63l-.05.06c2.65.38,10,.09,15.48-.13C1032.44,1076.08,1037,1075.9,1041,1075.9Z"/><path class="h" d="M1310.14,912.29s-18.44,57.93-43.3,76.34-156.56,55-156.56,55l-4,54.43s125.47,3,148.56-7c28-12.19,101.1-50.28,122-116.21S1310.14,912.29,1310.14,912.29Z"/><path class="e" d="M1122.42,1041.65a1.5,1.5,0,0,1-.36-3c1-.25,97.92-24.83,138.91-48.13,30.9-17.56,44.42-77.41,44.55-78a1.5,1.5,0,1,1,2.93.65c-.55,2.51-14,61.77-46,80-41.34,23.49-138.68,48.18-139.66,48.43A1.55,1.55,0,0,1,1122.42,1041.65Z"/><path class="e" d="M1230.7,1097.05a1.5,1.5,0,0,1-.2-3c65-8.83,102-48.79,121.56-80.76,21.26-34.75,27.15-67.85,27.21-68.18a1.5,1.5,0,1,1,3,.51c-.06.33-6,33.92-27.55,69.14-12.66,20.71-28.14,38-46,51.24-22.35,16.61-48.52,27-77.77,31Z"/><path class="e" d="M1672.91,1602.52H240.68a1.5,1.5,0,0,1,0-3H1672.91a1.5,1.5,0,1,1,0,3Z"/></svg>