<svg width="1920" height="1920" viewBox="0 0 1920 1920" fill="none" xmlns="http://www.w3.org/2000/svg">
<path d="M1920 1920H0V-0.00114545H1920V1920Z" fill="white"/>
<path d="M858.25 551.182L783.384 606.636L789.112 607.952L858.25 617.156V551.182" fill="#FCD3CC"/>
<path d="M1172.62 1103.82H777.597V626.799L867.017 638.703C867.461 638.77 867.907 638.789 868.35 638.789C870.782 638.789 873.151 637.911 875.004 636.29C877.194 634.373 878.45 631.607 878.45 628.698V545.259H1172.62V1103.82ZM783.384 606.636L858.25 551.182V617.157L789.112 607.952L782.749 607.113L783.384 606.636ZM1178.84 525.058H863.681C852.031 530.046 766.252 595.496 757.397 606.216V1110.02C757.397 1117.74 763.671 1124.03 771.38 1124.03H1178.84C1186.55 1124.03 1192.82 1117.74 1192.82 1110.02V539.059C1192.82 531.343 1186.55 525.058 1178.84 525.058Z" fill="#0082BA"/>
<path d="M916.423 712.66L902.37 699.965L916.422 687.261C919.181 684.771 919.396 680.508 916.902 677.751C914.409 674.995 910.151 674.776 907.392 677.265L892.327 690.885L877.263 677.265C874.503 674.776 870.245 674.995 867.752 677.751C865.258 680.508 865.475 684.771 868.233 687.261L882.285 699.965L868.232 712.66C865.474 715.159 865.258 719.413 867.751 722.17C869.081 723.639 870.911 724.392 872.748 724.392C874.358 724.392 875.973 723.82 877.262 722.656L892.327 709.036L907.393 722.656C908.681 723.82 910.296 724.392 911.906 724.392C913.743 724.392 915.573 723.639 916.903 722.17C919.397 719.413 919.181 715.159 916.423 712.66" fill="#0082BA"/>
<path d="M1087.05 707.253L1072.99 694.548L1087.05 681.843C1089.8 679.354 1090.01 675.1 1087.52 672.343C1085.02 669.577 1080.77 669.368 1078.01 671.857L1062.94 685.477L1047.88 671.857C1045.13 669.368 1040.86 669.577 1038.37 672.343C1035.87 675.1 1036.09 679.354 1038.85 681.843L1052.91 694.548L1038.85 707.253C1036.09 709.742 1035.87 714.005 1038.37 716.762C1039.7 718.231 1041.53 718.984 1043.37 718.984C1044.98 718.984 1046.6 718.402 1047.88 717.239L1062.94 703.628L1078.01 717.239C1079.3 718.402 1080.91 718.984 1082.53 718.984C1084.37 718.984 1086.2 718.231 1087.52 716.762C1090.01 714.005 1089.8 709.742 1087.05 707.253" fill="#0082BA"/>
<path d="M903.517 891.031C907.546 895.237 912.271 897.278 917.96 897.278C928.741 897.278 934.409 892.519 938.177 880.319C942.278 867.043 943.275 846.917 944.537 821.432C944.813 815.862 945.095 810.168 945.423 804.235C943.01 804.855 940.593 805.532 938.172 806.276C932.773 807.936 927.654 809.853 922.843 811.903C923.062 812.542 923.191 813.22 923.21 813.925L924.671 871.173C924.768 874.892 921.83 877.983 918.113 878.078C918.055 878.078 917.996 878.078 917.937 878.078C914.299 878.078 911.304 875.179 911.21 871.516L909.846 818.122C901.11 822.758 893.885 827.555 888.49 831.514C888.35 846.088 890.714 877.668 903.517 891.031" fill="#FCD3CC"/>
<path d="M944.537 821.432C943.275 846.918 942.278 867.043 938.177 880.32C934.409 892.519 928.741 897.278 917.96 897.278C912.271 897.278 907.546 895.237 903.517 891.031C890.714 877.668 888.35 846.088 888.49 831.514C893.885 827.555 901.11 822.758 909.846 818.122L911.21 871.516C911.304 875.179 914.299 878.078 917.937 878.078C917.996 878.078 918.055 878.078 918.113 878.078C921.83 877.983 924.768 874.892 924.671 871.173L923.21 813.926C923.191 813.22 923.062 812.543 922.843 811.903C927.654 809.853 932.773 807.936 938.172 806.276C940.593 805.532 943.01 804.855 945.423 804.235C945.095 810.168 944.813 815.862 944.537 821.432V821.432ZM1086.85 829.368C1060.41 807.239 1032.42 793.524 1003.68 788.583C980.583 784.615 957.034 786.294 933.674 793.571C894.142 805.885 869.111 829.816 868.064 830.827C865.395 833.412 865.326 837.666 867.907 840.336C869.227 841.71 870.987 842.396 872.749 842.396C873.614 842.396 874.479 842.225 875.293 841.9C875.5 845.878 875.862 850.456 876.482 855.32C879.111 875.942 884.931 891.088 893.782 900.33C900.395 907.236 908.531 910.746 917.96 910.746C934.725 910.746 945.547 902.095 951.044 884.297C955.641 869.399 956.681 848.529 957.988 822.1C958.312 815.452 958.655 808.622 959.065 801.45C1000.24 795.107 1040.22 807.926 1078.2 839.697C1081.06 842.082 1085.31 841.7 1087.69 838.848C1090.08 835.996 1089.7 831.752 1086.85 829.368" fill="#0082BA"/>
<path d="M1211.93 1213.83L721.985 1162.71L750.314 928.363L1240.26 979.486L1211.93 1213.83" fill="#FCD3CC"/>
<path d="M772.497 820.554C770.296 817.559 766.081 816.911 763.084 819.114C762.362 819.648 745.184 832.362 726.891 854.271C716.121 867.167 707.199 880.596 700.373 894.188C691.764 911.328 686.479 928.763 684.664 946.036C680.841 982.386 692.17 1017.9 718.358 1051.77C718.318 1052.32 718.292 1052.88 718.292 1053.44C718.292 1066.42 728.803 1076.92 741.768 1076.92C754.733 1076.92 765.244 1066.42 765.244 1053.44C765.244 1040.48 754.733 1029.97 741.768 1029.97C734.958 1029.97 728.829 1032.87 724.541 1037.51C703.755 1008.33 694.849 978.141 698.047 947.524C701.754 912.043 721.268 882.084 736.984 863.199C754.257 842.444 770.896 830.083 771.062 829.968C774.055 827.765 774.699 823.549 772.497 820.554" fill="#0082BA"/>
<path d="M1265.13 946.036C1263.31 928.763 1258.02 911.328 1249.42 894.188C1242.59 880.596 1233.67 867.167 1222.9 854.271C1204.61 832.362 1187.43 819.648 1186.71 819.114C1183.71 816.911 1179.5 817.559 1177.29 820.554C1175.09 823.549 1175.74 827.765 1178.73 829.968C1178.9 830.092 1195.31 842.234 1212.57 862.903C1228.37 881.826 1247.99 911.862 1251.74 947.438C1254.74 976.005 1247.21 1004.19 1229.33 1031.53C1226.72 1030.52 1223.89 1029.97 1220.92 1029.97C1207.95 1029.97 1197.44 1040.48 1197.44 1053.44C1197.44 1066.42 1207.95 1076.92 1220.92 1076.92C1233.88 1076.92 1244.39 1066.42 1244.39 1053.44C1244.39 1048.36 1242.77 1043.65 1240.02 1039.8C1260.07 1009.57 1268.51 978.132 1265.13 946.036Z" fill="#0082BA"/>
<path d="M843.52 1096.4L809.329 1092.57C803.007 1091.86 797.575 1089.04 798.356 1082.07L806.497 1009.43C807.003 1004.91 811.781 1000.75 817.458 1001.38L852.423 1005.3C857.326 1005.85 861.021 1010.18 860.515 1014.7C859.994 1019.35 855.49 1022.24 850.588 1021.68L823.75 1018.68L821.422 1039.45L845.808 1042.18C850.323 1042.68 854.321 1046.66 853.8 1051.31C853.279 1055.95 849.003 1059.13 843.972 1058.57L819.586 1055.84L817.229 1076.87L845.357 1080.02C850.131 1080.55 853.983 1084.64 853.492 1089.03C852.971 1093.68 848.423 1096.96 843.52 1096.4" fill="#0082BA"/>
<path d="M903.745 1027.64L890.068 1026.11L887.669 1047.53L902.12 1049.14C911.021 1050.14 916.215 1046.94 916.965 1040.22C917.574 1034.81 915.486 1028.96 903.745 1027.64ZM914.32 1065.01L929.018 1093.57C932.552 1100.5 925.464 1106.63 919.658 1105.98C916.432 1105.62 913.882 1103.9 912.493 1101.12L894.621 1064.77L885.847 1063.78L882.536 1093.33C882.03 1097.84 877.324 1101.37 872.421 1100.82C867.647 1100.28 863.951 1095.95 864.472 1091.31L872.801 1016.99C873.364 1011.95 878.358 1008.2 883.647 1008.8L906.096 1011.31C930.353 1014.03 936.548 1028.7 935.03 1042.26C933.598 1055.03 925.821 1062.65 914.32 1065.01" fill="#0082BA"/>
<path d="M981.804 1036.39L968.126 1034.85L965.732 1056.28L980.182 1057.9C989.081 1058.89 994.27 1055.69 995.024 1048.98C995.634 1043.55 993.545 1037.71 981.804 1036.39ZM992.381 1073.76L1007.08 1102.33C1010.61 1109.25 1003.52 1115.38 997.713 1114.73C994.489 1114.36 991.943 1112.65 990.55 1109.88L972.676 1073.51L963.911 1072.53L960.591 1102.08C960.086 1106.59 955.384 1110.12 950.48 1109.57C945.706 1109.03 942.011 1104.7 942.532 1100.06L950.86 1025.74C951.424 1020.7 956.414 1016.95 961.707 1017.54L984.16 1020.06C1008.41 1022.78 1014.61 1037.45 1013.09 1051C1011.66 1063.77 1003.88 1071.39 992.381 1073.76" fill="#0082BA"/>
<path d="M1042.69 1059.67L1039.82 1085.21C1038.67 1095.54 1042.76 1103.32 1053.34 1104.5C1063.93 1105.68 1069.64 1099.01 1070.79 1088.69L1073.65 1063.14C1074.83 1052.69 1071.48 1045.26 1060.12 1043.99C1048.77 1042.71 1043.86 1049.22 1042.69 1059.67V1059.67ZM1021.76 1083.19L1024.63 1057.65C1026.68 1039.33 1037.83 1024.9 1061.96 1027.61C1086.09 1030.3 1093.77 1046.84 1091.72 1065.17L1088.86 1090.71C1086.74 1109.55 1073.83 1123.39 1051.51 1120.89C1029.19 1118.39 1019.65 1102.03 1021.76 1083.19" fill="#0082BA"/>
<path d="M1139.21 1054.03L1125.53 1052.5L1123.14 1073.91L1137.59 1075.53C1146.49 1076.54 1151.69 1073.32 1152.44 1066.62C1153.04 1061.2 1150.95 1055.34 1139.21 1054.03ZM1149.79 1091.41L1164.49 1119.96C1168.02 1126.89 1160.93 1133.02 1155.13 1132.37C1151.9 1132.01 1149.35 1130.28 1147.97 1127.52L1130.09 1091.16L1121.32 1090.17L1118.01 1119.71C1117.5 1124.23 1112.79 1127.75 1107.89 1127.2C1103.12 1126.67 1099.42 1122.34 1099.94 1117.69L1108.27 1043.37C1108.83 1038.35 1113.83 1034.59 1119.11 1035.19L1141.57 1037.7C1165.82 1040.41 1172.02 1055.09 1170.49 1068.64C1169.06 1081.41 1161.29 1089.03 1149.79 1091.41" fill="#0082BA"/>
<path d="M558.857 1363.45H573.557C585.702 1363.45 592.093 1358.43 592.093 1347.75C592.093 1339.91 588.642 1331.94 573.557 1331.94H558.857V1363.45ZM558.857 1371.95V1396.79C558.857 1399.2 556.556 1401.37 553.744 1401.37C551.06 1401.37 548.632 1399.3 548.632 1396.79V1328.67C548.632 1325.84 551.443 1323.45 554.767 1323.45H573.557C594.777 1323.45 602.318 1335.11 602.318 1347.86C602.318 1363.33 591.07 1371.95 573.557 1371.95H558.857Z" fill="#0082BA"/>
<path d="M559.026 1363.28H573.557C579.62 1363.28 584.234 1362 587.271 1359.47C590.359 1356.9 591.924 1352.97 591.924 1347.75C591.924 1337.37 585.745 1332.12 573.557 1332.12H559.026V1363.28ZM573.557 1363.61H558.689V1331.78H573.557C585.968 1331.78 592.261 1337.15 592.261 1347.75C592.261 1358.28 585.968 1363.61 573.557 1363.61ZM554.767 1323.62C551.532 1323.62 548.799 1325.94 548.799 1328.67V1396.79C548.799 1399.14 551.11 1401.2 553.744 1401.2C556.378 1401.2 558.689 1399.14 558.689 1396.79V1371.77H573.557C591.461 1371.77 602.15 1362.84 602.15 1347.86C602.15 1340.57 599.364 1323.62 573.557 1323.62H554.767ZM553.744 1401.54C550.93 1401.54 548.463 1399.32 548.463 1396.79V1328.67C548.463 1325.75 551.35 1323.28 554.767 1323.28H573.557C599.668 1323.28 602.486 1340.47 602.486 1347.86C602.486 1363.05 591.673 1372.12 573.557 1372.12H559.026V1396.79C559.026 1399.37 556.607 1401.54 553.744 1401.54Z" fill="#0082BA"/>
<path d="M622.391 1374.45H648.723L635.557 1337.5L622.391 1374.45ZM613.954 1398.1C613.187 1400.06 610.886 1401.37 609.096 1401.37C606.156 1401.37 603.728 1399.63 603.728 1397.01C603.728 1396.57 603.855 1395.71 603.984 1395.38L628.909 1328.13C630.06 1324.87 631.85 1322.36 635.557 1322.36C639.391 1322.36 641.054 1324.75 642.331 1328.13L667.259 1395.38C667.386 1395.71 667.513 1396.57 667.513 1397.01C667.513 1399.63 665.213 1401.37 662.145 1401.37C660.227 1401.37 657.799 1400.06 657.16 1398.1L651.663 1382.95H619.323L613.954 1398.1" fill="#0082BA"/>
<path d="M622.63 1374.28H648.485L635.557 1338.01L622.63 1374.28ZM648.962 1374.62H622.152L635.557 1337.01L648.962 1374.62ZM619.204 1382.78H651.781L657.317 1398.04C657.934 1399.93 660.31 1401.2 662.145 1401.2C665.207 1401.2 667.344 1399.48 667.344 1397.01C667.344 1396.56 667.216 1395.73 667.101 1395.44L642.173 1328.2C640.887 1324.79 639.269 1322.52 635.557 1322.52C632.448 1322.52 630.447 1324.28 629.068 1328.19L604.141 1395.44C604.026 1395.73 603.896 1396.56 603.896 1397.01C603.896 1399.4 606.132 1401.2 609.096 1401.2C610.762 1401.2 613.033 1400 613.797 1398.04L619.204 1382.78ZM662.145 1401.54C660.2 1401.54 657.681 1400.25 657 1398.16L651.545 1383.12H619.442L614.113 1398.16C613.295 1400.25 610.872 1401.54 609.096 1401.54C605.94 1401.54 603.56 1399.6 603.56 1397.01C603.56 1396.57 603.689 1395.67 603.827 1395.31L628.752 1328.07C629.715 1325.33 631.361 1322.19 635.557 1322.19C639.693 1322.19 641.332 1325.02 642.488 1328.07L667.416 1395.31C667.552 1395.67 667.681 1396.57 667.681 1397.01C667.681 1399.67 665.405 1401.54 662.145 1401.54" fill="#0082BA"/>
<path d="M685.157 1373.47C685.157 1385.68 689.887 1393.3 704.33 1393.3C710.466 1393.3 714.941 1391.79 718.774 1389.28V1365.84H706.375C703.82 1365.84 701.519 1363.99 701.519 1361.7C701.519 1359.41 703.82 1357.56 706.375 1357.56H721.587C725.678 1357.56 728.873 1359.09 728.873 1362.57V1388.62C728.873 1397.45 715.068 1401.26 703.691 1401.26C684.006 1401.26 674.93 1390.26 674.93 1373.47V1350.15C674.93 1333.37 684.006 1322.36 703.691 1322.36C715.323 1322.36 726.317 1326.6 726.317 1331.73C726.317 1333.8 724.399 1335.54 721.715 1335.54C719.925 1335.54 719.158 1334.78 717.114 1333.69C713.279 1331.4 709.315 1330.31 704.33 1330.31C689.887 1330.31 685.157 1337.94 685.157 1350.15V1373.47" fill="#0082BA"/>
<path d="M703.691 1322.52C685.253 1322.52 675.098 1332.33 675.098 1350.15V1373.47C675.098 1391.28 685.253 1401.09 703.691 1401.09C716.122 1401.09 728.705 1396.81 728.705 1388.62V1362.57C728.705 1358.2 723.727 1357.73 721.587 1357.73H706.375C703.834 1357.73 701.687 1359.55 701.687 1361.7C701.687 1363.86 703.834 1365.67 706.375 1365.67H718.943V1389.36L718.867 1389.41C714.63 1392.19 710.011 1393.47 704.33 1393.47C691.134 1393.47 684.988 1387.12 684.988 1373.47V1350.15C684.988 1336.5 691.134 1330.14 704.33 1330.14C709.291 1330.14 713.26 1331.19 717.2 1333.55C717.675 1333.8 718.089 1334.04 718.454 1334.25C719.661 1334.95 720.39 1335.38 721.715 1335.38C724.201 1335.38 726.148 1333.78 726.148 1331.73C726.148 1326.82 715.654 1322.52 703.691 1322.52V1322.52ZM703.691 1401.43C685.036 1401.43 674.762 1391.5 674.762 1373.47V1350.15C674.762 1332.12 685.036 1322.19 703.691 1322.19C715.834 1322.19 726.485 1326.65 726.485 1331.73C726.485 1333.97 724.389 1335.71 721.715 1335.71C720.299 1335.71 719.497 1335.24 718.284 1334.55C717.922 1334.33 717.511 1334.09 717.035 1333.84C713.142 1331.51 709.227 1330.48 704.33 1330.48C697.414 1330.48 692.548 1332.21 689.455 1335.76C686.676 1338.95 685.326 1343.66 685.326 1350.15V1373.47C685.326 1379.96 686.676 1384.66 689.455 1387.86C692.548 1391.41 697.414 1393.14 704.33 1393.14C709.908 1393.14 714.448 1391.88 718.606 1389.18V1366.01H706.375C703.652 1366.01 701.35 1364.04 701.35 1361.7C701.35 1359.37 703.652 1357.39 706.375 1357.39H721.587C726.255 1357.39 729.042 1359.33 729.042 1362.57V1388.62C729.042 1392.69 726.127 1396.08 720.614 1398.4C716.062 1400.33 709.894 1401.43 703.691 1401.43" fill="#0082BA"/>
<path d="M786.908 1400.28H753.033C748.814 1400.28 744.98 1399.08 744.98 1395.16V1328.57C744.98 1326.06 747.537 1323.45 750.989 1323.45H785.629C788.442 1323.45 790.743 1325.41 790.743 1327.8C790.743 1330.21 788.442 1331.94 785.629 1331.94H755.208V1357.45H783.202C785.758 1357.45 788.186 1359.3 788.186 1361.7C788.186 1364.1 786.013 1365.95 783.202 1365.95H755.208V1391.79H786.908C789.592 1391.79 792.021 1393.64 792.021 1395.81C792.021 1398.32 789.719 1400.28 786.908 1400.28" fill="#0082BA"/>
<path d="M750.989 1323.62C747.547 1323.62 745.149 1326.22 745.149 1328.57V1395.16C745.149 1399.25 749.436 1400.11 753.033 1400.11H786.908C789.634 1400.11 791.853 1398.19 791.853 1395.81C791.853 1393.75 789.543 1391.95 786.908 1391.95H755.039V1365.78H783.202C785.902 1365.78 788.018 1363.99 788.018 1361.7C788.018 1359.49 785.812 1357.62 783.202 1357.62H755.039V1331.78H785.629C788.403 1331.78 790.576 1330.04 790.576 1327.8C790.576 1325.5 788.356 1323.62 785.629 1323.62H750.989ZM786.908 1400.45H753.033C747.732 1400.45 744.812 1398.57 744.812 1395.16V1328.57C744.812 1326.07 747.348 1323.28 750.989 1323.28H785.629C788.542 1323.28 790.911 1325.31 790.911 1327.8C790.911 1330.23 788.592 1332.12 785.629 1332.12H755.375V1357.29H783.202C785.994 1357.29 788.355 1359.31 788.355 1361.7C788.355 1364.17 786.091 1366.12 783.202 1366.12H755.375V1391.61H786.908C789.721 1391.61 792.189 1393.58 792.189 1395.81C792.189 1398.37 789.82 1400.45 786.908 1400.45" fill="#0082BA"/>
<path d="M890.963 1398.86L854.148 1340.78V1396.91C854.148 1399.3 851.72 1401.37 848.907 1401.37C846.093 1401.37 843.922 1399.3 843.922 1396.91V1327.16C843.922 1324.43 846.221 1322.36 849.419 1322.36C851.592 1322.36 853.764 1323.34 854.786 1324.97L891.601 1382.95V1326.82C891.601 1324.43 894.029 1322.36 896.841 1322.36C899.654 1322.36 901.828 1324.43 901.828 1326.82V1396.57C901.828 1399.2 899.526 1401.37 896.202 1401.37C894.157 1401.37 891.985 1400.39 890.963 1398.86" fill="#0082BA"/>
<path d="M853.98 1340.19L891.105 1398.78C892.062 1400.2 894.159 1401.2 896.202 1401.2C899.313 1401.2 901.659 1399.22 901.659 1396.57V1326.82C901.659 1324.46 899.498 1322.52 896.841 1322.52C894.139 1322.52 891.769 1324.53 891.769 1326.82V1383.53L891.459 1383.05L854.644 1325.07C853.68 1323.52 851.629 1322.52 849.419 1322.52C846.331 1322.52 844.09 1324.48 844.09 1327.16V1396.91C844.09 1399.27 846.251 1401.2 848.907 1401.2C851.609 1401.2 853.98 1399.2 853.98 1396.91V1340.19ZM896.202 1401.54C894.053 1401.54 891.841 1400.47 890.823 1398.96L854.317 1341.36V1396.91C854.317 1399.42 851.839 1401.54 848.907 1401.54C846.065 1401.54 843.754 1399.46 843.754 1396.91V1327.16C843.754 1324.32 846.189 1322.19 849.419 1322.19C851.743 1322.19 853.905 1323.25 854.928 1324.89L891.432 1382.37V1326.82C891.432 1324.35 893.96 1322.19 896.841 1322.19C899.684 1322.19 901.997 1324.27 901.997 1326.82V1396.57C901.997 1399.41 899.506 1401.54 896.202 1401.54" fill="#0082BA"/>
<path d="M926.118 1350.15V1373.47C926.118 1384.92 932.123 1392.87 945.29 1392.87C958.455 1392.87 964.464 1384.92 964.464 1373.47V1350.15C964.464 1338.59 959.351 1330.86 945.29 1330.86C931.23 1330.86 926.118 1338.59 926.118 1350.15ZM915.891 1373.47V1350.15C915.891 1335 924.199 1322.36 945.29 1322.36C966.381 1322.36 974.688 1335 974.688 1350.15V1373.47C974.688 1388.94 964.845 1401.37 945.29 1401.37C925.733 1401.37 915.891 1388.94 915.891 1373.47Z" fill="#0082BA"/>
<path d="M945.29 1331.03C938.648 1331.03 933.691 1332.79 930.556 1336.28C927.722 1339.44 926.286 1344.1 926.286 1350.15V1373.47C926.286 1385.69 933.213 1392.7 945.29 1392.7C957.367 1392.7 964.302 1385.69 964.302 1373.47V1350.15C964.302 1344.1 962.861 1339.44 960.029 1336.28C956.891 1332.79 951.934 1331.03 945.29 1331.03ZM945.29 1393.03C932.999 1393.03 925.949 1385.91 925.949 1373.47V1350.15C925.949 1337.24 932.457 1330.68 945.29 1330.68C958.131 1330.68 964.635 1337.24 964.635 1350.15V1373.47C964.635 1385.91 957.587 1393.03 945.29 1393.03ZM945.29 1322.52C926.713 1322.52 916.059 1332.59 916.059 1350.15V1373.47C916.059 1390.32 927.533 1401.2 945.29 1401.2C963.052 1401.2 974.526 1390.32 974.526 1373.47V1350.15C974.526 1332.59 963.872 1322.52 945.29 1322.52ZM945.29 1401.54C936.016 1401.54 928.354 1398.7 923.136 1393.34C918.286 1388.36 915.722 1381.48 915.722 1373.47V1350.15C915.722 1342.06 918.086 1335.25 922.558 1330.46C927.675 1324.97 935.323 1322.19 945.29 1322.19C955.26 1322.19 962.909 1324.97 968.021 1330.46C972.495 1335.25 974.86 1342.06 974.86 1350.15V1373.47C974.86 1381.48 972.294 1388.36 967.449 1393.34C962.222 1398.7 954.563 1401.54 945.29 1401.54Z" fill="#0082BA"/>
<path d="M1003.71 1331.94H986.325C983.387 1331.94 981.213 1329.99 981.213 1327.7C981.213 1325.84 983.521 1323.45 986.325 1323.45H1031.33C1034.01 1323.45 1036.56 1325.3 1036.56 1327.7C1036.56 1329.99 1034.14 1331.94 1031.33 1331.94H1013.94V1397.01C1013.94 1399.3 1011.64 1401.37 1008.83 1401.37C1006.01 1401.37 1003.71 1399.3 1003.71 1397.01V1331.94Z" fill="#0082BA"/>
<path d="M986.325 1323.62C983.664 1323.62 981.384 1325.86 981.384 1327.7C981.384 1329.99 983.559 1331.78 986.325 1331.78H1003.88V1397.01C1003.88 1399.24 1006.19 1401.2 1008.83 1401.2C1011.46 1401.2 1013.78 1399.24 1013.78 1397.01V1331.78H1031.33C1034.02 1331.78 1036.4 1329.87 1036.4 1327.7C1036.4 1325.52 1034.02 1323.62 1031.33 1323.62H986.325ZM1008.83 1401.54C1005.96 1401.54 1003.54 1399.46 1003.54 1397.01V1332.12H986.325C983.368 1332.12 981.05 1330.18 981.05 1327.7C981.05 1325.71 983.483 1323.28 986.325 1323.28H1031.33C1034.25 1323.28 1036.73 1325.31 1036.73 1327.7C1036.73 1330.09 1034.25 1332.12 1031.33 1332.12H1014.11V1397.01C1014.11 1399.46 1011.69 1401.54 1008.83 1401.54Z" fill="#0082BA"/>
<path d="M1097.66 1397.01C1097.66 1399.3 1095.36 1401.37 1092.55 1401.37C1089.75 1401.37 1087.44 1399.3 1087.44 1397.01V1328.57C1087.44 1326.06 1089.99 1323.45 1093.45 1323.45H1128.09C1130.9 1323.45 1133.2 1325.41 1133.2 1327.8C1133.2 1330.21 1130.9 1331.94 1128.09 1331.94H1097.66V1357.45H1125.67C1128.21 1357.45 1130.64 1359.3 1130.64 1361.7C1130.64 1364.1 1128.47 1365.95 1125.67 1365.95H1097.66V1397.01Z" fill="#0082BA"/>
<path d="M1093.45 1323.62C1090 1323.62 1087.61 1326.22 1087.61 1328.57V1397.01C1087.61 1399.24 1089.92 1401.2 1092.55 1401.2C1095.19 1401.2 1097.5 1399.24 1097.5 1397.01V1365.78H1125.67C1128.36 1365.78 1130.48 1363.99 1130.48 1361.7C1130.48 1359.49 1128.27 1357.62 1125.67 1357.62H1097.5V1331.78H1128.09C1130.86 1331.78 1133.04 1330.04 1133.04 1327.8C1133.04 1325.5 1130.82 1323.62 1128.09 1323.62H1093.45ZM1092.55 1401.54C1089.69 1401.54 1087.28 1399.46 1087.28 1397.01V1328.57C1087.28 1326.07 1089.81 1323.28 1093.45 1323.28H1128.09C1131 1323.28 1133.37 1325.31 1133.37 1327.8C1133.37 1330.23 1131.05 1332.12 1128.09 1332.12H1097.83V1357.29H1125.67C1128.45 1357.29 1130.82 1359.31 1130.82 1361.7C1130.82 1364.17 1128.56 1366.12 1125.67 1366.12H1097.83V1397.01C1097.83 1399.46 1095.42 1401.54 1092.55 1401.54" fill="#0082BA"/>
<path d="M1153.4 1350.15V1373.47C1153.4 1384.92 1159.41 1392.87 1172.57 1392.87C1185.75 1392.87 1191.75 1384.92 1191.75 1373.47V1350.15C1191.75 1338.59 1186.63 1330.86 1172.57 1330.86C1158.51 1330.86 1153.4 1338.59 1153.4 1350.15ZM1143.18 1373.47V1350.15C1143.18 1335 1151.48 1322.36 1172.57 1322.36C1193.66 1322.36 1201.97 1335 1201.97 1350.15V1373.47C1201.97 1388.94 1192.14 1401.37 1172.57 1401.37C1153.02 1401.37 1143.18 1388.94 1143.18 1373.47Z" fill="#0082BA"/>
<path d="M1172.57 1331.03C1165.93 1331.03 1160.98 1332.79 1157.84 1336.28C1155 1339.44 1153.57 1344.1 1153.57 1350.15V1373.47C1153.57 1385.69 1160.5 1392.7 1172.57 1392.7C1184.66 1392.7 1191.58 1385.69 1191.58 1373.47V1350.15C1191.58 1344.1 1190.14 1339.44 1187.31 1336.28C1184.17 1332.79 1179.21 1331.03 1172.57 1331.03ZM1172.57 1393.03C1160.28 1393.03 1153.23 1385.91 1153.23 1373.47V1350.15C1153.23 1337.24 1159.74 1330.68 1172.57 1330.68C1185.41 1330.68 1191.92 1337.24 1191.92 1350.15V1373.47C1191.92 1385.91 1184.87 1393.03 1172.57 1393.03ZM1172.57 1322.52C1153.99 1322.52 1143.34 1332.59 1143.34 1350.15V1373.47C1143.34 1390.32 1154.81 1401.2 1172.57 1401.2C1190.33 1401.2 1201.81 1390.32 1201.81 1373.47V1350.15C1201.81 1332.59 1191.15 1322.52 1172.57 1322.52ZM1172.57 1401.54C1163.3 1401.54 1155.64 1398.7 1150.42 1393.34C1145.57 1388.36 1143.01 1381.48 1143.01 1373.47V1350.15C1143.01 1342.06 1145.37 1335.25 1149.84 1330.46C1154.96 1324.97 1162.61 1322.19 1172.57 1322.19C1182.54 1322.19 1190.19 1324.97 1195.3 1330.46C1199.78 1335.25 1202.14 1342.06 1202.14 1350.15V1373.47C1202.14 1381.48 1199.58 1388.36 1194.73 1393.34C1189.51 1398.7 1181.84 1401.54 1172.57 1401.54Z" fill="#0082BA"/>
<path d="M1244.41 1401.37C1226.26 1401.37 1216.16 1390.26 1216.16 1375.22V1326.94C1216.16 1324.31 1218.46 1322.36 1221.41 1322.36C1224.09 1322.36 1226.4 1324.43 1226.4 1326.94V1375.22C1226.4 1385.68 1232.15 1392.87 1244.41 1392.87C1256.69 1392.87 1262.31 1385.46 1262.31 1375.22V1326.94C1262.31 1324.53 1264.48 1322.36 1267.3 1322.36C1270.37 1322.36 1272.67 1324.53 1272.67 1326.94V1375.22C1272.67 1390.36 1262.18 1401.37 1244.41 1401.37" fill="#0082BA"/>
<path d="M1221.41 1322.52C1218.51 1322.52 1216.33 1324.42 1216.33 1326.94V1375.22C1216.33 1391 1227.36 1401.2 1244.41 1401.2C1261.48 1401.2 1272.49 1391 1272.49 1375.22V1326.94C1272.49 1324.5 1270.17 1322.52 1267.3 1322.52C1264.68 1322.52 1262.48 1324.54 1262.48 1326.94V1375.22C1262.48 1386.54 1255.9 1393.03 1244.41 1393.03C1232.85 1393.03 1226.22 1386.54 1226.22 1375.22V1326.94C1226.22 1324.54 1224.02 1322.52 1221.41 1322.52V1322.52ZM1244.41 1401.54C1227.15 1401.54 1216 1391.2 1216 1375.22V1326.94C1216 1324.23 1218.32 1322.19 1221.41 1322.19C1224.2 1322.19 1226.56 1324.36 1226.56 1326.94V1375.22C1226.56 1386.33 1233.07 1392.7 1244.41 1392.7C1255.68 1392.7 1262.14 1386.33 1262.14 1375.22V1326.94C1262.14 1324.36 1264.5 1322.19 1267.3 1322.19C1270.35 1322.19 1272.84 1324.31 1272.84 1326.94V1375.22C1272.84 1382.85 1270.23 1389.38 1265.32 1394.09C1260.25 1398.97 1253.02 1401.54 1244.41 1401.54" fill="#0082BA"/>
<path d="M1337.34 1398.86L1300.54 1340.78V1396.91C1300.54 1399.3 1298.1 1401.37 1295.29 1401.37C1292.48 1401.37 1290.31 1399.3 1290.31 1396.91V1327.16C1290.31 1324.43 1292.61 1322.36 1295.8 1322.36C1297.98 1322.36 1300.15 1323.34 1301.17 1324.97L1337.99 1382.95V1326.82C1337.99 1324.43 1340.41 1322.36 1343.23 1322.36C1346.04 1322.36 1348.22 1324.43 1348.22 1326.82V1396.57C1348.22 1399.2 1345.91 1401.37 1342.59 1401.37C1340.55 1401.37 1338.37 1400.39 1337.34 1398.86" fill="#0082BA"/>
<path d="M1300.36 1340.19L1337.49 1398.78C1338.45 1400.2 1340.55 1401.2 1342.59 1401.2C1345.7 1401.2 1348.04 1399.22 1348.04 1396.57V1326.82C1348.04 1324.46 1345.88 1322.52 1343.23 1322.52C1340.53 1322.52 1338.15 1324.53 1338.15 1326.82V1383.53L1337.85 1383.05L1301.03 1325.07C1300.07 1323.52 1298.02 1322.52 1295.8 1322.52C1292.71 1322.52 1290.47 1324.48 1290.47 1327.16V1396.91C1290.47 1399.27 1292.64 1401.2 1295.29 1401.2C1298 1401.2 1300.36 1399.2 1300.36 1396.91V1340.19ZM1342.59 1401.54C1340.44 1401.54 1338.23 1400.47 1337.21 1398.96L1300.7 1341.36V1396.91C1300.7 1399.37 1298.17 1401.54 1295.29 1401.54C1292.45 1401.54 1290.14 1399.46 1290.14 1396.91V1327.16C1290.14 1324.32 1292.57 1322.19 1295.8 1322.19C1298.13 1322.19 1300.29 1323.25 1301.32 1324.89L1337.82 1382.37V1326.82C1337.82 1324.35 1340.35 1322.19 1343.23 1322.19C1346.07 1322.19 1348.38 1324.27 1348.38 1326.82V1396.57C1348.38 1399.41 1345.89 1401.54 1342.59 1401.54Z" fill="#0082BA"/>
<path d="M1412.39 1351.12C1412.39 1340.34 1406.38 1331.84 1389.76 1331.84H1377.23V1391.79H1389.76C1406.64 1391.79 1412.39 1382.73 1412.39 1371.51V1351.12ZM1387.59 1400.28H1373.14C1369.82 1400.28 1367.01 1397.88 1367.01 1395.05V1328.57C1367.01 1325.73 1369.82 1323.34 1373.14 1323.34H1387.59C1413.67 1323.34 1422.61 1336.52 1422.61 1351.12V1371.51C1422.61 1386.44 1413.79 1400.28 1387.59 1400.28Z" fill="#0082BA"/>
<path d="M1377.4 1391.61H1389.76C1408.32 1391.61 1412.22 1380.68 1412.22 1371.51V1351.12C1412.22 1342.41 1408.32 1332.01 1389.76 1332.01H1377.4V1391.61ZM1389.76 1391.95H1377.07V1331.67H1389.76C1397.62 1331.67 1403.56 1333.58 1407.42 1337.31C1410.82 1340.62 1412.56 1345.27 1412.56 1351.12V1371.51C1412.56 1380.84 1408.6 1391.95 1389.76 1391.95ZM1373.14 1323.5C1369.91 1323.5 1367.18 1325.82 1367.18 1328.57V1395.05C1367.18 1397.79 1369.91 1400.11 1373.14 1400.11H1387.59C1409.74 1400.11 1422.44 1389.69 1422.44 1371.51V1351.12C1422.44 1333.58 1409.74 1323.5 1387.59 1323.5H1373.14ZM1387.59 1400.45H1373.14C1369.72 1400.45 1366.83 1397.98 1366.83 1395.05V1328.57C1366.83 1325.64 1369.72 1323.17 1373.14 1323.17H1387.59C1399.75 1323.17 1408.96 1326.02 1414.99 1331.63C1420.08 1336.38 1422.77 1343.12 1422.77 1351.12V1371.51C1422.77 1379.75 1420.1 1386.69 1415.04 1391.61C1409.01 1397.48 1399.77 1400.45 1387.59 1400.45" fill="#0082BA"/>
<path d="M570.096 957.558H534.816V796.109C534.816 777.796 517.493 762.897 496.199 762.897C474.186 762.897 457.586 777.176 457.586 796.109V957.558H285.489L299.74 924.633C325.91 864.172 349.95 809.452 373.2 756.535L373.221 756.488C396.476 703.552 420.521 648.823 446.637 588.485L446.718 588.295C448.304 584.737 448.304 582.495 448.304 578.022C448.304 569.877 443.955 561.226 436.374 554.301C428.632 547.233 418.654 543.008 409.686 543.008C394.66 543.008 380.629 551.497 375.565 563.648L375.435 563.954L202.296 963.443L202.179 963.701C198.465 971.741 195.827 983.025 195.348 986.163C195.781 1004.39 210.905 1023.07 235.758 1023.07H457.586V1120.53C457.586 1139.47 474.186 1153.75 496.199 1153.75C518.214 1153.75 534.816 1139.47 534.816 1120.53V1023.07H570.096C590.74 1023.07 606.912 1008.48 606.912 989.864C606.912 972.047 590.397 957.558 570.096 957.558Z" fill="#0082BA"/>
<path d="M1687.85 963.487H1652.57V802.044C1652.57 783.729 1635.25 768.831 1613.95 768.831C1591.94 768.831 1575.34 783.104 1575.34 802.044V963.487H1403.25L1417.5 930.562C1443.66 870.107 1467.73 815.344 1490.98 762.387L1491.01 762.334C1514.26 709.43 1538.3 654.717 1564.39 594.417L1564.49 594.206C1566.06 590.672 1566.06 588.418 1566.06 583.953C1566.06 575.806 1561.71 567.161 1554.13 560.231C1546.38 553.163 1536.41 548.941 1527.44 548.941C1512.42 548.941 1498.39 557.427 1493.32 569.584L1493.19 569.891L1320.06 969.372L1319.93 969.629C1316.22 977.679 1313.58 988.953 1313.1 992.101C1313.54 1010.33 1328.66 1029 1353.52 1029H1575.34V1126.46C1575.34 1145.4 1591.94 1159.67 1613.95 1159.67C1635.97 1159.67 1652.57 1145.4 1652.57 1126.46V1029H1687.85C1708.5 1029 1724.67 1014.42 1724.67 995.792C1724.67 977.985 1708.16 963.487 1687.85 963.487" fill="#0082BA"/>
</svg>
