<svg width="1920" height="1920" viewBox="0 0 1920 1920" fill="none" xmlns="http://www.w3.org/2000/svg">
<g clip-path="url(#clip0)">
<path d="M1920 1920H0V-0.00114545H1920V1920Z" fill="white"/>
<path d="M858.25 551.182L783.384 606.636L789.112 607.952L858.25 617.156V551.182" fill="#FCD3CC"/>
<path d="M1172.62 1103.82H777.597V626.799L867.017 638.703C867.461 638.77 867.907 638.789 868.35 638.789C870.782 638.789 873.151 637.911 875.004 636.29C877.194 634.373 878.45 631.607 878.45 628.698V545.259H1172.62V1103.82ZM783.384 606.636L858.25 551.182V617.157L789.112 607.952L782.749 607.113L783.384 606.636ZM1178.84 525.058H863.681C852.031 530.046 766.252 595.496 757.397 606.216V1110.02C757.397 1117.74 763.671 1124.03 771.38 1124.03H1178.84C1186.55 1124.03 1192.82 1117.74 1192.82 1110.02V539.059C1192.82 531.343 1186.55 525.058 1178.84 525.058Z" fill="#0082BA"/>
<path d="M916.423 712.66L902.37 699.965L916.422 687.261C919.181 684.771 919.396 680.508 916.902 677.751C914.409 674.995 910.151 674.776 907.392 677.265L892.327 690.885L877.263 677.265C874.503 674.776 870.245 674.995 867.752 677.751C865.258 680.508 865.475 684.771 868.233 687.261L882.285 699.965L868.232 712.66C865.474 715.159 865.258 719.413 867.751 722.17C869.081 723.639 870.911 724.392 872.748 724.392C874.358 724.392 875.973 723.82 877.262 722.656L892.327 709.036L907.393 722.656C908.681 723.82 910.296 724.392 911.906 724.392C913.743 724.392 915.573 723.639 916.903 722.17C919.397 719.413 919.181 715.159 916.423 712.66" fill="#0082BA"/>
<path d="M1087.05 707.253L1072.99 694.548L1087.05 681.843C1089.8 679.354 1090.01 675.1 1087.52 672.343C1085.02 669.577 1080.77 669.368 1078.01 671.857L1062.94 685.477L1047.88 671.857C1045.13 669.368 1040.86 669.577 1038.37 672.343C1035.87 675.1 1036.09 679.354 1038.85 681.843L1052.91 694.548L1038.85 707.253C1036.09 709.742 1035.87 714.005 1038.37 716.762C1039.7 718.231 1041.53 718.984 1043.37 718.984C1044.98 718.984 1046.6 718.402 1047.88 717.239L1062.94 703.628L1078.01 717.239C1079.3 718.402 1080.91 718.984 1082.53 718.984C1084.37 718.984 1086.2 718.231 1087.52 716.762C1090.01 714.005 1089.8 709.742 1087.05 707.253" fill="#0082BA"/>
<path d="M903.517 891.031C907.546 895.237 912.271 897.278 917.96 897.278C928.741 897.278 934.409 892.519 938.177 880.319C942.278 867.043 943.275 846.917 944.537 821.432C944.813 815.862 945.095 810.168 945.423 804.235C943.01 804.855 940.593 805.532 938.172 806.276C932.773 807.936 927.654 809.853 922.843 811.903C923.062 812.542 923.191 813.22 923.21 813.925L924.671 871.173C924.768 874.892 921.83 877.983 918.113 878.078C918.055 878.078 917.996 878.078 917.937 878.078C914.299 878.078 911.304 875.179 911.21 871.516L909.846 818.122C901.11 822.758 893.885 827.555 888.49 831.514C888.35 846.088 890.714 877.668 903.517 891.031" fill="#FCD3CC"/>
<path d="M944.537 821.432C943.275 846.918 942.278 867.043 938.177 880.32C934.409 892.519 928.741 897.278 917.96 897.278C912.271 897.278 907.546 895.237 903.517 891.031C890.714 877.668 888.35 846.088 888.49 831.514C893.885 827.555 901.11 822.758 909.846 818.122L911.21 871.516C911.304 875.179 914.299 878.078 917.937 878.078C917.996 878.078 918.055 878.078 918.113 878.078C921.83 877.983 924.768 874.892 924.671 871.173L923.21 813.926C923.191 813.22 923.062 812.543 922.843 811.903C927.654 809.853 932.773 807.936 938.172 806.276C940.593 805.532 943.01 804.855 945.423 804.235C945.095 810.168 944.813 815.862 944.537 821.432V821.432ZM1086.85 829.368C1060.41 807.239 1032.42 793.524 1003.68 788.583C980.583 784.615 957.034 786.294 933.674 793.571C894.142 805.885 869.111 829.816 868.064 830.827C865.395 833.412 865.326 837.666 867.907 840.336C869.227 841.71 870.987 842.396 872.749 842.396C873.614 842.396 874.479 842.225 875.293 841.9C875.5 845.878 875.862 850.456 876.482 855.32C879.111 875.942 884.931 891.088 893.782 900.33C900.395 907.236 908.531 910.746 917.96 910.746C934.725 910.746 945.547 902.095 951.044 884.297C955.641 869.399 956.681 848.529 957.988 822.1C958.312 815.452 958.655 808.622 959.065 801.45C1000.24 795.107 1040.22 807.926 1078.2 839.697C1081.06 842.082 1085.31 841.7 1087.69 838.848C1090.08 835.996 1089.7 831.752 1086.85 829.368" fill="#0082BA"/>
<path d="M1211.93 1213.83L721.985 1162.71L750.314 928.363L1240.26 979.486L1211.93 1213.83" fill="#FCD3CC"/>
<path d="M772.497 820.554C770.296 817.559 766.081 816.911 763.084 819.114C762.362 819.648 745.184 832.362 726.891 854.271C716.121 867.167 707.199 880.596 700.373 894.188C691.764 911.328 686.479 928.763 684.664 946.036C680.841 982.386 692.17 1017.9 718.358 1051.77C718.318 1052.32 718.292 1052.88 718.292 1053.44C718.292 1066.42 728.803 1076.92 741.768 1076.92C754.733 1076.92 765.244 1066.42 765.244 1053.44C765.244 1040.48 754.733 1029.97 741.768 1029.97C734.958 1029.97 728.829 1032.87 724.541 1037.51C703.755 1008.33 694.849 978.141 698.047 947.524C701.754 912.043 721.268 882.084 736.984 863.199C754.257 842.444 770.896 830.083 771.062 829.968C774.055 827.765 774.699 823.549 772.497 820.554" fill="#0082BA"/>
<path d="M1265.13 946.036C1263.31 928.763 1258.02 911.328 1249.42 894.188C1242.59 880.596 1233.67 867.167 1222.9 854.271C1204.61 832.362 1187.43 819.648 1186.71 819.114C1183.71 816.911 1179.5 817.559 1177.29 820.554C1175.09 823.549 1175.74 827.765 1178.73 829.968C1178.9 830.092 1195.31 842.234 1212.57 862.903C1228.37 881.826 1247.99 911.862 1251.74 947.438C1254.74 976.005 1247.21 1004.19 1229.33 1031.53C1226.72 1030.52 1223.89 1029.97 1220.92 1029.97C1207.95 1029.97 1197.44 1040.48 1197.44 1053.44C1197.44 1066.42 1207.95 1076.92 1220.92 1076.92C1233.88 1076.92 1244.39 1066.42 1244.39 1053.44C1244.39 1048.36 1242.77 1043.65 1240.02 1039.8C1260.07 1009.57 1268.51 978.132 1265.13 946.036Z" fill="#0082BA"/>
<path d="M570.096 957.558H534.816V796.109C534.816 777.796 517.493 762.897 496.199 762.897C474.186 762.897 457.586 777.176 457.586 796.109V957.558H285.489L299.74 924.633C325.91 864.172 349.95 809.452 373.2 756.535L373.221 756.488C396.476 703.552 420.521 648.823 446.637 588.485L446.718 588.295C448.304 584.737 448.304 582.495 448.304 578.022C448.304 569.877 443.955 561.226 436.374 554.301C428.632 547.233 418.654 543.008 409.686 543.008C394.66 543.008 380.629 551.497 375.565 563.648L375.435 563.954L202.296 963.443L202.179 963.701C198.465 971.741 195.827 983.025 195.348 986.163C195.781 1004.39 210.905 1023.07 235.758 1023.07H457.586V1120.53C457.586 1139.47 474.186 1153.75 496.199 1153.75C518.214 1153.75 534.816 1139.47 534.816 1120.53V1023.07H570.096C590.74 1023.07 606.912 1008.48 606.912 989.864C606.912 972.047 590.397 957.558 570.096 957.558Z" fill="#0082BA"/>
<path d="M1687.85 963.487H1652.57V802.044C1652.57 783.729 1635.25 768.831 1613.95 768.831C1591.94 768.831 1575.34 783.104 1575.34 802.044V963.487H1403.25L1417.5 930.562C1443.66 870.107 1467.73 815.344 1490.98 762.387L1491.01 762.334C1514.26 709.43 1538.3 654.717 1564.39 594.417L1564.49 594.206C1566.06 590.672 1566.06 588.418 1566.06 583.953C1566.06 575.806 1561.71 567.161 1554.13 560.231C1546.38 553.163 1536.41 548.941 1527.44 548.941C1512.42 548.941 1498.39 557.427 1493.32 569.584L1493.19 569.891L1320.06 969.372L1319.93 969.629C1316.22 977.679 1313.58 988.953 1313.1 992.101C1313.54 1010.33 1328.66 1029 1353.52 1029H1575.34V1126.46C1575.34 1145.4 1591.94 1159.67 1613.95 1159.67C1635.97 1159.67 1652.57 1145.4 1652.57 1126.46V1029H1687.85C1708.5 1029 1724.67 1014.42 1724.67 995.792C1724.67 977.985 1708.16 963.487 1687.85 963.487" fill="#0082BA"/>
<path d="M361.8 1410.5C360.533 1410.5 359.533 1410.13 358.8 1409.4C358.067 1408.6 357.7 1407.57 357.7 1406.3V1343.5C357.7 1342.3 358.067 1341.33 358.8 1340.6C359.6 1339.87 360.633 1339.5 361.9 1339.5H385.6C393 1339.5 398.733 1341.3 402.8 1344.9C406.933 1348.5 409 1353.6 409 1360.2C409 1366.8 406.933 1371.93 402.8 1375.6C398.667 1379.27 392.933 1381.1 385.6 1381.1H365.9V1406.3C365.9 1407.57 365.533 1408.6 364.8 1409.4C364.067 1410.13 363.067 1410.5 361.8 1410.5ZM384.8 1374.3C395.533 1374.3 400.9 1369.6 400.9 1360.2C400.9 1350.93 395.533 1346.3 384.8 1346.3H365.9V1374.3H384.8ZM475.334 1405.3C475.6 1405.83 475.734 1406.4 475.734 1407C475.734 1408 475.334 1408.83 474.534 1409.5C473.8 1410.17 472.9 1410.5 471.834 1410.5C470.167 1410.5 469 1409.7 468.334 1408.1L461.234 1391.9H423.534L416.334 1408.1C415.667 1409.7 414.5 1410.5 412.834 1410.5C411.767 1410.5 410.834 1410.17 410.034 1409.5C409.234 1408.77 408.834 1407.9 408.834 1406.9C408.834 1406.37 408.967 1405.83 409.234 1405.3L437.834 1341.7C438.234 1340.77 438.834 1340.07 439.634 1339.6C440.434 1339.13 441.3 1338.9 442.234 1338.9C443.234 1338.9 444.134 1339.17 444.934 1339.7C445.734 1340.17 446.334 1340.83 446.734 1341.7L475.334 1405.3ZM426.534 1385.1H458.234L442.334 1349.2L426.534 1385.1ZM537.248 1373.3C538.248 1373.3 539.048 1373.6 539.648 1374.2C540.315 1374.8 540.648 1375.63 540.648 1376.7V1401.6C540.648 1403.2 540.382 1404.4 539.848 1405.2C539.382 1406 538.482 1406.63 537.148 1407.1C534.482 1408.23 531.248 1409.13 527.448 1409.8C523.648 1410.47 519.848 1410.8 516.048 1410.8C509.048 1410.8 503.015 1409.37 497.948 1406.5C492.882 1403.63 488.982 1399.5 486.248 1394.1C483.582 1388.7 482.248 1382.23 482.248 1374.7C482.248 1367.3 483.582 1360.9 486.248 1355.5C488.915 1350.1 492.748 1345.97 497.748 1343.1C502.748 1340.17 508.615 1338.7 515.348 1338.7C520.015 1338.7 524.348 1339.43 528.348 1340.9C532.348 1342.3 535.715 1344.33 538.448 1347C539.582 1348.13 540.148 1349.3 540.148 1350.5C540.148 1351.43 539.882 1352.27 539.348 1353C538.815 1353.67 538.148 1354 537.348 1354C536.548 1354 535.615 1353.6 534.548 1352.8C531.082 1350.13 527.948 1348.3 525.148 1347.3C522.348 1346.23 519.115 1345.7 515.448 1345.7C507.515 1345.7 501.415 1348.2 497.148 1353.2C492.948 1358.2 490.848 1365.37 490.848 1374.7C490.848 1384.23 492.982 1391.5 497.248 1396.5C501.582 1401.43 507.915 1403.9 516.248 1403.9C522.448 1403.9 528.082 1402.97 533.148 1401.1V1379.7H518.548C517.415 1379.7 516.515 1379.4 515.848 1378.8C515.182 1378.2 514.848 1377.43 514.848 1376.5C514.848 1375.5 515.182 1374.73 515.848 1374.2C516.515 1373.6 517.415 1373.3 518.548 1373.3H537.248ZM561.312 1410.5C560.045 1410.5 559.045 1410.13 558.312 1409.4C557.578 1408.6 557.212 1407.57 557.212 1406.3V1343.2C557.212 1341.93 557.578 1340.93 558.312 1340.2C559.045 1339.4 560.045 1339 561.312 1339C562.578 1339 563.578 1339.4 564.312 1340.2C565.045 1340.93 565.412 1341.93 565.412 1343.2V1406.3C565.412 1407.57 565.045 1408.6 564.312 1409.4C563.578 1410.13 562.578 1410.5 561.312 1410.5ZM635.498 1339C636.698 1339 637.631 1339.4 638.298 1340.2C638.964 1340.93 639.298 1341.93 639.298 1343.2V1406.3C639.298 1407.57 638.931 1408.6 638.198 1409.4C637.531 1410.13 636.564 1410.5 635.298 1410.5C634.031 1410.5 632.931 1409.93 631.998 1408.8L590.498 1353.3V1406.3C590.498 1407.57 590.131 1408.6 589.398 1409.4C588.731 1410.13 587.798 1410.5 586.598 1410.5C585.398 1410.5 584.464 1410.13 583.798 1409.4C583.131 1408.6 582.798 1407.57 582.798 1406.3V1343.2C582.798 1341.93 583.131 1340.93 583.798 1340.2C584.531 1339.4 585.531 1339 586.798 1339C588.131 1339 589.264 1339.57 590.198 1340.7L631.598 1396.2V1343.2C631.598 1341.93 631.931 1340.93 632.598 1340.2C633.331 1339.4 634.298 1339 635.498 1339ZM717.423 1405.3C717.69 1405.83 717.823 1406.4 717.823 1407C717.823 1408 717.423 1408.83 716.623 1409.5C715.89 1410.17 714.99 1410.5 713.923 1410.5C712.257 1410.5 711.09 1409.7 710.423 1408.1L703.323 1391.9H665.623L658.423 1408.1C657.757 1409.7 656.59 1410.5 654.923 1410.5C653.857 1410.5 652.923 1410.17 652.123 1409.5C651.323 1408.77 650.923 1407.9 650.923 1406.9C650.923 1406.37 651.057 1405.83 651.323 1405.3L679.923 1341.7C680.323 1340.77 680.923 1340.07 681.723 1339.6C682.523 1339.13 683.39 1338.9 684.323 1338.9C685.323 1338.9 686.223 1339.17 687.023 1339.7C687.823 1340.17 688.423 1340.83 688.823 1341.7L717.423 1405.3ZM668.623 1385.1H700.323L684.423 1349.2L668.623 1385.1ZM807.861 1339C809.061 1339 809.994 1339.4 810.661 1340.2C811.328 1340.93 811.661 1341.93 811.661 1343.2V1406.3C811.661 1407.57 811.294 1408.6 810.561 1409.4C809.894 1410.13 808.928 1410.5 807.661 1410.5C806.394 1410.5 805.294 1409.93 804.361 1408.8L762.861 1353.3V1406.3C762.861 1407.57 762.494 1408.6 761.761 1409.4C761.094 1410.13 760.161 1410.5 758.961 1410.5C757.761 1410.5 756.828 1410.13 756.161 1409.4C755.494 1408.6 755.161 1407.57 755.161 1406.3V1343.2C755.161 1341.93 755.494 1340.93 756.161 1340.2C756.894 1339.4 757.894 1339 759.161 1339C760.494 1339 761.628 1339.57 762.561 1340.7L803.961 1396.2V1343.2C803.961 1341.93 804.294 1340.93 804.961 1340.2C805.694 1339.4 806.661 1339 807.861 1339ZM858.587 1410.8C852.053 1410.8 846.353 1409.33 841.487 1406.4C836.687 1403.47 832.987 1399.3 830.387 1393.9C827.787 1388.5 826.487 1382.13 826.487 1374.8C826.487 1367.4 827.753 1361 830.287 1355.6C832.887 1350.13 836.587 1345.97 841.387 1343.1C846.253 1340.17 851.987 1338.7 858.587 1338.7C865.187 1338.7 870.887 1340.17 875.687 1343.1C880.553 1345.97 884.253 1350.13 886.787 1355.6C889.387 1361 890.687 1367.37 890.687 1374.7C890.687 1382.03 889.387 1388.43 886.787 1393.9C884.187 1399.3 880.453 1403.47 875.587 1406.4C870.787 1409.33 865.12 1410.8 858.587 1410.8ZM858.587 1403.8C866.053 1403.8 871.853 1401.3 875.987 1396.3C880.187 1391.23 882.287 1384.03 882.287 1374.7C882.287 1365.37 880.22 1358.2 876.087 1353.2C871.953 1348.2 866.12 1345.7 858.587 1345.7C851.12 1345.7 845.287 1348.23 841.087 1353.3C836.953 1358.3 834.887 1365.43 834.887 1374.7C834.887 1383.97 836.953 1391.13 841.087 1396.2C845.287 1401.27 851.12 1403.8 858.587 1403.8ZM935.435 1410C934.168 1410 933.135 1409.63 932.335 1408.9C931.602 1408.17 931.235 1407.2 931.235 1406V1343.5C931.235 1342.3 931.602 1341.33 932.335 1340.6C933.135 1339.87 934.168 1339.5 935.435 1339.5H972.835C974.035 1339.5 974.968 1339.8 975.635 1340.4C976.302 1341 976.635 1341.83 976.635 1342.9C976.635 1343.97 976.302 1344.8 975.635 1345.4C974.968 1346 974.035 1346.3 972.835 1346.3H939.335V1370.8H970.835C972.035 1370.8 972.968 1371.1 973.635 1371.7C974.302 1372.3 974.635 1373.13 974.635 1374.2C974.635 1375.27 974.302 1376.1 973.635 1376.7C972.968 1377.3 972.035 1377.6 970.835 1377.6H939.335V1403.2H972.835C974.035 1403.2 974.968 1403.5 975.635 1404.1C976.302 1404.63 976.635 1405.47 976.635 1406.6C976.635 1407.67 976.302 1408.5 975.635 1409.1C974.968 1409.7 974.035 1410 972.835 1410H935.435ZM1042.14 1339C1043.34 1339 1044.27 1339.4 1044.94 1340.2C1045.6 1340.93 1045.94 1341.93 1045.94 1343.2V1406.3C1045.94 1407.57 1045.57 1408.6 1044.84 1409.4C1044.17 1410.13 1043.2 1410.5 1041.94 1410.5C1040.67 1410.5 1039.57 1409.93 1038.64 1408.8L997.138 1353.3V1406.3C997.138 1407.57 996.772 1408.6 996.038 1409.4C995.372 1410.13 994.438 1410.5 993.238 1410.5C992.038 1410.5 991.105 1410.13 990.438 1409.4C989.772 1408.6 989.438 1407.57 989.438 1406.3V1343.2C989.438 1341.93 989.772 1340.93 990.438 1340.2C991.172 1339.4 992.172 1339 993.438 1339C994.772 1339 995.905 1339.57 996.838 1340.7L1038.24 1396.2V1343.2C1038.24 1341.93 1038.57 1340.93 1039.24 1340.2C1039.97 1339.4 1040.94 1339 1042.14 1339ZM1093.26 1410.8C1086.6 1410.8 1080.83 1409.37 1075.96 1406.5C1071.1 1403.57 1067.33 1399.4 1064.66 1394C1062.06 1388.53 1060.76 1382.1 1060.76 1374.7C1060.76 1367.37 1062.06 1361 1064.66 1355.6C1067.33 1350.13 1071.1 1345.97 1075.96 1343.1C1080.83 1340.17 1086.6 1338.7 1093.26 1338.7C1097.73 1338.7 1101.93 1339.43 1105.86 1340.9C1109.86 1342.3 1113.33 1344.33 1116.26 1347C1117.33 1348 1117.86 1349.17 1117.86 1350.5C1117.86 1351.43 1117.6 1352.27 1117.06 1353C1116.53 1353.67 1115.9 1354 1115.16 1354C1114.36 1354 1113.4 1353.63 1112.26 1352.9C1108.86 1350.23 1105.76 1348.37 1102.96 1347.3C1100.23 1346.23 1097.06 1345.7 1093.46 1345.7C1085.73 1345.7 1079.76 1348.23 1075.56 1353.3C1071.43 1358.3 1069.36 1365.43 1069.36 1374.7C1069.36 1384.03 1071.43 1391.23 1075.56 1396.3C1079.76 1401.3 1085.73 1403.8 1093.46 1403.8C1097 1403.8 1100.16 1403.27 1102.96 1402.2C1105.76 1401.13 1108.86 1399.27 1112.26 1396.6C1113.4 1395.87 1114.36 1395.5 1115.16 1395.5C1115.9 1395.5 1116.53 1395.83 1117.06 1396.5C1117.6 1397.17 1117.86 1398 1117.86 1399C1117.86 1400.33 1117.33 1401.5 1116.26 1402.5C1113.33 1405.17 1109.86 1407.23 1105.86 1408.7C1101.93 1410.1 1097.73 1410.8 1093.26 1410.8ZM1159.47 1410.8C1152.93 1410.8 1147.23 1409.33 1142.37 1406.4C1137.57 1403.47 1133.87 1399.3 1131.27 1393.9C1128.67 1388.5 1127.37 1382.13 1127.37 1374.8C1127.37 1367.4 1128.63 1361 1131.17 1355.6C1133.77 1350.13 1137.47 1345.97 1142.27 1343.1C1147.13 1340.17 1152.87 1338.7 1159.47 1338.7C1166.07 1338.7 1171.77 1340.17 1176.57 1343.1C1181.43 1345.97 1185.13 1350.13 1187.67 1355.6C1190.27 1361 1191.57 1367.37 1191.57 1374.7C1191.57 1382.03 1190.27 1388.43 1187.67 1393.9C1185.07 1399.3 1181.33 1403.47 1176.47 1406.4C1171.67 1409.33 1166 1410.8 1159.47 1410.8ZM1159.47 1403.8C1166.93 1403.8 1172.73 1401.3 1176.87 1396.3C1181.07 1391.23 1183.17 1384.03 1183.17 1374.7C1183.17 1365.37 1181.1 1358.2 1176.97 1353.2C1172.83 1348.2 1167 1345.7 1159.47 1345.7C1152 1345.7 1146.17 1348.23 1141.97 1353.3C1137.83 1358.3 1135.77 1365.43 1135.77 1374.7C1135.77 1383.97 1137.83 1391.13 1141.97 1396.2C1146.17 1401.27 1152 1403.8 1159.47 1403.8ZM1259.03 1339C1260.23 1339 1261.17 1339.4 1261.83 1340.2C1262.5 1340.93 1262.83 1341.93 1262.83 1343.2V1406.3C1262.83 1407.57 1262.47 1408.6 1261.73 1409.4C1261.07 1410.13 1260.1 1410.5 1258.83 1410.5C1257.57 1410.5 1256.47 1409.93 1255.53 1408.8L1214.03 1353.3V1406.3C1214.03 1407.57 1213.67 1408.6 1212.93 1409.4C1212.27 1410.13 1211.33 1410.5 1210.13 1410.5C1208.93 1410.5 1208 1410.13 1207.33 1409.4C1206.67 1408.6 1206.33 1407.57 1206.33 1406.3V1343.2C1206.33 1341.93 1206.67 1340.93 1207.33 1340.2C1208.07 1339.4 1209.07 1339 1210.33 1339C1211.67 1339 1212.8 1339.57 1213.73 1340.7L1255.13 1396.2V1343.2C1255.13 1341.93 1255.47 1340.93 1256.13 1340.2C1256.87 1339.4 1257.83 1339 1259.03 1339ZM1301.46 1410.5C1300.19 1410.5 1299.16 1410.13 1298.36 1409.4C1297.63 1408.6 1297.26 1407.57 1297.26 1406.3V1346.5H1275.76C1274.56 1346.5 1273.63 1346.2 1272.96 1345.6C1272.29 1345 1271.96 1344.13 1271.96 1343C1271.96 1341.87 1272.29 1341 1272.96 1340.4C1273.63 1339.8 1274.56 1339.5 1275.76 1339.5H1327.06C1328.26 1339.5 1329.19 1339.8 1329.86 1340.4C1330.53 1341 1330.86 1341.87 1330.86 1343C1330.86 1344.13 1330.53 1345 1329.86 1345.6C1329.19 1346.2 1328.26 1346.5 1327.06 1346.5H1305.56V1406.3C1305.56 1407.57 1305.19 1408.6 1304.46 1409.4C1303.73 1410.13 1302.73 1410.5 1301.46 1410.5ZM1393.82 1404.9C1394.29 1405.63 1394.52 1406.4 1394.52 1407.2C1394.52 1408.2 1394.12 1409.03 1393.32 1409.7C1392.59 1410.3 1391.72 1410.6 1390.72 1410.6C1389.19 1410.6 1387.99 1409.93 1387.12 1408.6L1373.72 1387.4C1371.99 1384.67 1370.19 1382.8 1368.32 1381.8C1366.46 1380.73 1363.92 1380.2 1360.72 1380.2H1348.12V1406.3C1348.12 1407.57 1347.76 1408.6 1347.02 1409.4C1346.29 1410.13 1345.32 1410.5 1344.12 1410.5C1342.86 1410.5 1341.86 1410.13 1341.12 1409.4C1340.39 1408.6 1340.02 1407.57 1340.02 1406.3V1343.5C1340.02 1342.3 1340.39 1341.33 1341.12 1340.6C1341.92 1339.87 1342.96 1339.5 1344.22 1339.5H1369.02C1376.69 1339.5 1382.52 1341.2 1386.52 1344.6C1390.59 1348 1392.62 1353 1392.62 1359.6C1392.62 1365.2 1390.99 1369.7 1387.72 1373.1C1384.52 1376.5 1379.92 1378.57 1373.92 1379.3C1375.59 1379.83 1377.09 1380.7 1378.42 1381.9C1379.76 1383.1 1381.09 1384.77 1382.42 1386.9L1393.82 1404.9ZM1368.32 1373.4C1373.79 1373.4 1377.86 1372.27 1380.52 1370C1383.26 1367.73 1384.62 1364.3 1384.62 1359.7C1384.62 1355.17 1383.29 1351.8 1380.62 1349.6C1377.96 1347.4 1373.86 1346.3 1368.32 1346.3H1348.12V1373.4H1368.32ZM1468.69 1405.3C1468.96 1405.83 1469.09 1406.4 1469.09 1407C1469.09 1408 1468.69 1408.83 1467.89 1409.5C1467.16 1410.17 1466.26 1410.5 1465.19 1410.5C1463.53 1410.5 1462.36 1409.7 1461.69 1408.1L1454.59 1391.9H1416.89L1409.69 1408.1C1409.03 1409.7 1407.86 1410.5 1406.19 1410.5C1405.13 1410.5 1404.19 1410.17 1403.39 1409.5C1402.59 1408.77 1402.19 1407.9 1402.19 1406.9C1402.19 1406.37 1402.33 1405.83 1402.59 1405.3L1431.19 1341.7C1431.59 1340.77 1432.19 1340.07 1432.99 1339.6C1433.79 1339.13 1434.66 1338.9 1435.59 1338.9C1436.59 1338.9 1437.49 1339.17 1438.29 1339.7C1439.09 1340.17 1439.69 1340.83 1440.09 1341.7L1468.69 1405.3ZM1419.89 1385.1H1451.59L1435.69 1349.2L1419.89 1385.1ZM1484.85 1410C1483.58 1410 1482.55 1409.63 1481.75 1408.9C1481.02 1408.17 1480.65 1407.2 1480.65 1406V1343.5C1480.65 1342.3 1481.02 1341.33 1481.75 1340.6C1482.55 1339.87 1483.58 1339.5 1484.85 1339.5H1504.35C1515.62 1339.5 1524.32 1342.57 1530.45 1348.7C1536.65 1354.77 1539.75 1363.43 1539.75 1374.7C1539.75 1385.97 1536.65 1394.67 1530.45 1400.8C1524.25 1406.93 1515.55 1410 1504.35 1410H1484.85ZM1503.85 1403C1522.12 1403 1531.25 1393.57 1531.25 1374.7C1531.25 1355.9 1522.12 1346.5 1503.85 1346.5H1488.85V1403H1503.85ZM1613.71 1405.3C1613.98 1405.83 1614.11 1406.4 1614.11 1407C1614.11 1408 1613.71 1408.83 1612.91 1409.5C1612.18 1410.17 1611.28 1410.5 1610.21 1410.5C1608.55 1410.5 1607.38 1409.7 1606.71 1408.1L1599.61 1391.9H1561.91L1554.71 1408.1C1554.05 1409.7 1552.88 1410.5 1551.21 1410.5C1550.15 1410.5 1549.21 1410.17 1548.41 1409.5C1547.61 1408.77 1547.21 1407.9 1547.21 1406.9C1547.21 1406.37 1547.35 1405.83 1547.61 1405.3L1576.21 1341.7C1576.61 1340.77 1577.21 1340.07 1578.01 1339.6C1578.81 1339.13 1579.68 1338.9 1580.61 1338.9C1581.61 1338.9 1582.51 1339.17 1583.31 1339.7C1584.11 1340.17 1584.71 1340.83 1585.11 1341.7L1613.71 1405.3ZM1564.91 1385.1H1596.61L1580.71 1349.2L1564.91 1385.1Z" fill="#0082BA"/>
<path d="M791.247 1087.97C789.737 1087.8 788.555 1087.22 787.7 1086.24C786.926 1085.27 786.62 1084.07 786.783 1082.63L795.271 1008.12C795.434 1006.69 796.002 1005.58 796.976 1004.81C798.029 1004.04 799.311 1003.75 800.821 1003.92L845.413 1009C846.844 1009.16 847.916 1009.64 848.629 1010.45C849.343 1011.26 849.627 1012.3 849.482 1013.57C849.337 1014.84 848.827 1015.79 847.95 1016.41C847.074 1017.04 845.92 1017.27 844.49 1017.1L804.548 1012.56L801.221 1041.77L838.778 1046.04C840.208 1046.21 841.281 1046.69 841.994 1047.5C842.707 1048.3 842.992 1049.34 842.847 1050.61C842.702 1051.89 842.191 1052.83 841.315 1053.46C840.439 1054.08 839.285 1054.31 837.854 1054.15L800.297 1049.87L796.82 1080.4L836.762 1084.95C838.193 1085.11 839.265 1085.59 839.978 1086.4C840.701 1087.13 840.985 1088.16 840.831 1089.52C840.686 1090.79 840.176 1091.74 839.299 1092.36C838.423 1092.99 837.269 1093.22 835.839 1093.05L791.247 1087.97ZM920.472 1096.53C920.929 1097.47 921.103 1098.42 920.994 1099.37C920.859 1100.56 920.269 1101.5 919.224 1102.19C918.268 1102.81 917.194 1103.05 916.002 1102.91C914.174 1102.7 912.834 1101.74 911.981 1100.04L898.884 1072.94C897.188 1069.45 895.296 1066.98 893.206 1065.53C891.125 1064 888.177 1063.02 884.362 1062.59L869.339 1060.88L865.794 1092C865.622 1093.51 865.045 1094.69 864.062 1095.54C863.088 1096.32 861.886 1096.62 860.455 1096.46C858.945 1096.29 857.802 1095.72 857.027 1094.74C856.262 1093.69 855.965 1092.41 856.137 1090.9L864.666 1016.02C864.829 1014.59 865.397 1013.49 866.371 1012.71C867.424 1011.95 868.706 1011.65 870.216 1011.82L899.785 1015.19C908.926 1016.23 915.65 1019.05 919.958 1023.65C924.345 1028.25 926.09 1034.49 925.194 1042.36C924.433 1049.04 921.875 1054.18 917.518 1057.79C913.241 1061.41 907.476 1063.25 900.222 1063.31C902.137 1064.17 903.808 1065.41 905.235 1067.02C906.661 1068.63 908.025 1070.8 909.325 1073.52L920.472 1096.53ZM894.347 1055.51C900.865 1056.26 905.867 1055.46 909.354 1053.12C912.921 1050.79 915.017 1046.88 915.642 1041.39C916.257 1035.99 915.125 1031.79 912.244 1028.81C909.364 1025.82 904.625 1023.95 898.027 1023.2L873.943 1020.46L870.263 1052.77L894.347 1055.51ZM1002.21 1105.84C1002.67 1106.78 1002.84 1107.73 1002.73 1108.68C1002.6 1109.87 1002.01 1110.81 1000.96 1111.5C1000.01 1112.12 998.931 1112.36 997.739 1112.22C995.911 1112.01 994.571 1111.05 993.718 1109.35L980.621 1082.25C978.925 1078.76 977.033 1076.29 974.943 1074.84C972.862 1073.31 969.914 1072.33 966.099 1071.9L951.076 1070.19L947.532 1101.31C947.359 1102.82 946.782 1104 945.799 1104.85C944.825 1105.63 943.623 1105.93 942.192 1105.77C940.682 1105.6 939.539 1105.03 938.764 1104.05C937.999 1103 937.702 1101.72 937.874 1100.21L946.403 1025.33C946.566 1023.9 947.134 1022.8 948.108 1022.02C949.161 1021.26 950.443 1020.96 951.954 1021.13L981.522 1024.5C990.663 1025.54 997.387 1028.36 1001.69 1032.96C1006.08 1037.56 1007.83 1043.8 1006.93 1051.67C1006.17 1058.35 1003.61 1063.49 999.255 1067.1C994.978 1070.72 989.213 1072.56 981.959 1072.62C983.874 1073.48 985.545 1074.72 986.972 1076.33C988.398 1077.94 989.762 1080.11 991.062 1082.84L1002.21 1105.84ZM976.084 1064.82C982.602 1065.57 987.604 1064.77 991.092 1062.43C994.658 1060.1 996.754 1056.19 997.379 1050.7C997.994 1045.3 996.862 1041.1 993.981 1038.12C991.101 1035.13 986.362 1033.26 979.764 1032.51L955.68 1029.77L952 1062.08L976.084 1064.82ZM1053.59 1118.82C1045.8 1117.94 1039.2 1115.41 1033.8 1111.25C1028.48 1107.11 1024.63 1101.63 1022.26 1094.84C1019.9 1088.05 1019.21 1080.28 1020.21 1071.54C1021.21 1062.72 1023.59 1055.26 1027.35 1049.17C1031.19 1043 1036.16 1038.54 1042.28 1035.77C1048.48 1032.93 1055.51 1031.96 1063.38 1032.86C1071.25 1033.76 1077.85 1036.28 1083.17 1040.43C1088.59 1044.51 1092.43 1049.98 1094.71 1056.84C1097.08 1063.63 1097.76 1071.4 1096.77 1080.14C1095.77 1088.88 1093.35 1096.34 1089.51 1102.5C1085.67 1108.59 1080.66 1113.05 1074.46 1115.89C1068.34 1118.73 1061.38 1119.71 1053.59 1118.82ZM1054.54 1110.48C1063.44 1111.49 1070.7 1109.3 1076.31 1103.9C1082 1098.43 1085.48 1090.13 1086.75 1079C1088.02 1067.87 1086.53 1059.05 1082.28 1052.52C1078.03 1046 1071.41 1042.23 1062.43 1041.2C1053.53 1040.19 1046.23 1042.42 1040.53 1047.89C1034.93 1053.29 1031.49 1061.51 1030.24 1072.56C1028.98 1083.61 1030.47 1092.44 1034.71 1099.04C1039.03 1105.65 1045.64 1109.46 1054.54 1110.48ZM1174.42 1125.46C1174.87 1126.4 1175.05 1127.34 1174.94 1128.3C1174.8 1129.49 1174.21 1130.43 1173.17 1131.12C1172.21 1131.73 1171.14 1131.97 1169.95 1131.83C1168.12 1131.63 1166.78 1130.67 1165.93 1128.96L1152.83 1101.87C1151.13 1098.37 1149.24 1095.9 1147.15 1094.45C1145.07 1092.93 1142.12 1091.95 1138.31 1091.52L1123.28 1089.8L1119.74 1120.92C1119.57 1122.43 1118.99 1123.62 1118.01 1124.47C1117.03 1125.24 1115.83 1125.55 1114.4 1125.39C1112.89 1125.22 1111.75 1124.64 1110.97 1123.67C1110.21 1122.61 1109.91 1121.33 1110.08 1119.82L1118.61 1044.95C1118.77 1043.52 1119.34 1042.41 1120.31 1041.64C1121.37 1040.87 1122.65 1040.58 1124.16 1040.75L1153.73 1044.12C1162.87 1045.16 1169.59 1047.98 1173.9 1052.57C1178.29 1057.18 1180.03 1063.42 1179.14 1071.29C1178.38 1077.96 1175.82 1083.11 1171.46 1086.72C1167.18 1090.34 1161.42 1092.18 1154.17 1092.23C1156.08 1093.1 1157.75 1094.33 1159.18 1095.95C1160.61 1097.56 1161.97 1099.73 1163.27 1102.45L1174.42 1125.46ZM1148.29 1084.44C1154.81 1085.18 1159.81 1084.38 1163.3 1082.04C1166.87 1079.71 1168.96 1075.8 1169.59 1070.32C1170.2 1064.91 1169.07 1060.72 1166.19 1057.73C1163.31 1054.75 1158.57 1052.88 1151.97 1052.13L1127.89 1049.39L1124.21 1081.7L1148.29 1084.44Z" fill="#0082BA"/>
</g>
<defs>
<clipPath id="clip0">
<rect width="1920" height="1920" fill="white"/>
</clipPath>
</defs>
</svg>
