<svg width="58" height="58" viewBox="0 0 58 58" fill="none" xmlns="http://www.w3.org/2000/svg">
<path d="M29.0002 58C44.9906 58 57.9995 44.9905 57.9995 28.9999C57.9995 13.0095 44.9906 0 29.0002 0C13.0099 0 0.000610352 13.0095 0.000610352 28.9999C0.000610352 44.9905 13.0099 58 29.0002 58ZM29.0002 3.96987C42.8016 3.96987 54.0297 15.1982 54.0299 28.9999C54.0299 42.8015 42.8018 54.0299 29.0002 54.0301C15.1988 54.0299 3.97074 42.8015 3.97074 28.9996C3.97074 15.1985 15.1988 3.96987 29.0002 3.96987Z" fill="#0082BA"/>
<path d="M25.1057 41.4207C25.8809 42.1957 27.1377 42.1954 27.9127 41.4207C28.6881 40.6453 28.6881 39.3887 27.9124 38.6132L20.285 30.9861L42.3725 30.984C43.4687 30.9837 44.3572 30.0952 44.3572 28.9985C44.3569 27.9023 43.4685 27.0141 42.3722 27.0141L20.2839 27.0162L27.9132 19.3875C28.6884 18.6123 28.6884 17.3551 27.9132 16.5802C27.5255 16.1928 27.0176 15.9988 26.5094 15.9988C26.0016 15.9988 25.4937 16.1928 25.106 16.58L14.0885 27.5971C13.7162 27.9692 13.5071 28.4739 13.5071 29.0006C13.5073 29.5273 13.7164 30.0317 14.0888 30.4046L25.1057 41.4207Z" fill="#0082BA"/>
</svg>
