<svg width="33" height="33" viewBox="0 0 33 33" fill="none" xmlns="http://www.w3.org/2000/svg">
<g clip-path="url(#clip0)">
<path d="M16.2508 32.5C25.2109 32.5 32.5004 25.2102 32.5004 16.2499C32.5004 7.28981 25.2109 0 16.2508 0C7.29064 0 0.000976562 7.28981 0.000976562 16.2499C0.000976562 25.2102 7.29064 32.5 16.2508 32.5ZM16.2508 2.22449C23.9843 2.22449 30.2759 8.51625 30.276 16.2499C30.276 23.9836 23.9844 30.2754 16.2508 30.2755C8.51723 30.2754 2.22562 23.9836 2.22562 16.2498C2.22562 8.5164 8.51723 2.22449 16.2508 2.22449Z" fill="#595656"/>
<path d="M14.0676 23.2099C14.502 23.6441 15.2062 23.644 15.6405 23.2099C16.075 22.7754 16.075 22.0713 15.6403 21.6367L11.3663 17.3629L23.7429 17.3617C24.3572 17.3616 24.855 16.8637 24.855 16.2492C24.8549 15.6349 24.3571 15.1372 23.7428 15.1372L11.3657 15.1384L15.6408 10.8637C16.0751 10.4293 16.0751 9.72488 15.6408 9.29066C15.4235 9.07355 15.1389 8.96484 14.8542 8.96484C14.5696 8.96484 14.285 9.07355 14.0677 9.29051L7.89417 15.4639C7.68552 15.6724 7.56836 15.9552 7.56836 16.2504C7.56851 16.5455 7.68566 16.8281 7.89432 17.0371L14.0676 23.2099Z" fill="#595656"/>
</g>
<defs>
<clipPath id="clip0">
<rect width="32.5" height="32.5" fill="white"/>
</clipPath>
</defs>
</svg>
