<svg width="59" height="59" viewBox="0 0 59 59" fill="none" xmlns="http://www.w3.org/2000/svg">
<circle cx="29.5" cy="29.5" r="29.5" fill="white"/>
<path d="M47.1986 23.9291L30.2237 6.88406C29.4786 6.13579 28.3551 6.13587 27.6103 6.88398L10.6353 23.9292C10.0385 24.5285 9.84135 25.4519 10.1329 26.2816C10.4246 27.1113 11.1347 27.6474 11.9422 27.6474H14.6534V44.7252C14.6534 45.4023 15.1516 45.9513 15.766 45.9513H25.0703C25.6848 45.9513 26.183 45.4024 26.183 44.7252V34.3561H31.6513V44.7253C31.6513 45.4024 32.1495 45.9514 32.7639 45.9514H42.0678C42.6823 45.9514 43.1804 45.4025 43.1804 44.7253V27.6474H45.8922C46.6995 27.6474 47.4097 27.1112 47.7014 26.2816C47.9926 25.4518 47.7954 24.5285 47.1986 23.9291Z" fill="url(#paint0_linear)"/>
<defs>
<linearGradient id="paint0_linear" x1="28.917" y1="6.32288" x2="28.917" y2="45.9514" gradientUnits="userSpaceOnUse">
<stop stop-color="#0181BA"/>
<stop offset="1" stop-color="#31B696"/>
</linearGradient>
</defs>
</svg>
