<svg width="35" height="35" viewBox="0 0 35 35" fill="none" xmlns="http://www.w3.org/2000/svg">
<path d="M25.3411 0H9.65853C4.33282 0 0 4.33303 0 9.65873V25.3413C0 30.6672 4.33282 35 9.65853 35H25.3411C30.6672 35 35 30.667 35 25.3413V9.65873C35.0002 4.33303 30.6672 0 25.3411 0ZM31.8948 25.3413C31.8948 28.9549 28.9549 31.8946 25.3413 31.8946H9.65853C6.04512 31.8948 3.10537 28.9549 3.10537 25.3413V9.65873C3.10537 6.04533 6.04512 3.10537 9.65853 3.10537H25.3411C28.9547 3.10537 31.8946 6.04533 31.8946 9.65873V25.3413H31.8948Z" fill="#666666"/>
<path d="M17.5 8.48169C12.5271 8.48169 8.48138 12.5274 8.48138 17.5003C8.48138 22.473 12.5271 26.5185 17.5 26.5185C22.4729 26.5185 26.5186 22.473 26.5186 17.5003C26.5186 12.5274 22.4729 8.48169 17.5 8.48169ZM17.5 23.4129C14.2396 23.4129 11.5868 20.7605 11.5868 17.5001C11.5868 14.2395 14.2394 11.5869 17.5 11.5869C20.7606 11.5869 23.4132 14.2395 23.4132 17.5001C23.4132 20.7605 20.7604 23.4129 17.5 23.4129Z" fill="#666666"/>
<path d="M26.8968 5.84863C26.2985 5.84863 25.7108 6.09085 25.2883 6.51525C24.8637 6.93758 24.6196 7.52553 24.6196 8.1259C24.6196 8.72441 24.8639 9.31215 25.2883 9.73656C25.7106 10.1589 26.2985 10.4032 26.8968 10.4032C27.4972 10.4032 28.0831 10.1589 28.5075 9.73656C28.9319 9.31215 29.1741 8.7242 29.1741 8.1259C29.1741 7.52553 28.9319 6.93758 28.5075 6.51525C28.0852 6.09085 27.4972 5.84863 26.8968 5.84863Z" fill="#666666"/>
</svg>
