<svg xmlns="http://www.w3.org/2000/svg" xmlns:xlink="http://www.w3.org/1999/xlink" width="704.288" height="673.009" viewBox="0 0 704.288 673.009"><defs><linearGradient id="a" y1="0.5" x2="1" y2="0.5" gradientUnits="objectBoundingBox"><stop offset="0" stop-color="#e39a65"/><stop offset="1" stop-color="#e95f8d"/></linearGradient><radialGradient id="b" cx="0.193" cy="-0.023" r="1.117" gradientTransform="translate(-0.04) scale(1.08 1)" gradientUnits="objectBoundingBox"><stop offset="0" stop-color="#e39a65"/><stop offset="0.47" stop-color="#a92ffb"/><stop offset="0.59" stop-color="#891cfb"/><stop offset="0.74" stop-color="#6507fa"/><stop offset="0.8" stop-color="#0d0c6f"/></radialGradient><radialGradient id="c" cx="0.01" cy="0.384" r="1.712" gradientTransform="translate(0.213) scale(0.574 1)" gradientUnits="objectBoundingBox"><stop offset="0" stop-color="#e39a65"/><stop offset="0.47" stop-color="#a92ffb"/><stop offset="0.57" stop-color="#891cfb"/><stop offset="0.68" stop-color="#6507fa"/><stop offset="0.74" stop-color="#0d0c6f"/></radialGradient><linearGradient id="d" y1="0.5" x2="1" y2="0.5" gradientUnits="objectBoundingBox"><stop offset="0" stop-color="#3919bb"/><stop offset="1" stop-color="#6507fa"/></linearGradient><radialGradient id="e" cx="-1.084" cy="-0.321" r="2.658" gradientTransform="translate(-0.038) scale(1.077 1)" gradientUnits="objectBoundingBox"><stop offset="0" stop-color="#e39a65"/><stop offset="0.47" stop-color="#a92ffb"/><stop offset="0.59" stop-color="#891cfb"/><stop offset="0.73" stop-color="#6507fa"/><stop offset="1" stop-color="#3919bb"/></radialGradient></defs><path d="M491.689,527.995,164.49,339.079c-4.78-2.741-4.168-7.544,1.337-10.738L375.879,207.095c5.505-3.172,13.819-3.511,18.6-.77l327.2,188.915c4.758,2.764,4.168,7.567-1.336,10.738L510.333,527.224C504.783,530.4,496.469,530.759,491.689,527.995Z" transform="translate(-110.822 110.891)" fill="#020230" opacity="0.6"/><path d="M527.365,578.121a21.069,21.069,0,0,1-10.308-2.424h0l-373.413-215.6A8.337,8.337,0,0,1,139,353.072c0-3.285,2.265-6.479,6.253-8.767L399.8,195.171c7-4.032,17.24-4.531,23.357-.906L796.5,409.708a8.36,8.36,0,0,1,4.735,7.159c0,3.262-2.266,6.457-6.253,8.767L540.414,574.814A26.777,26.777,0,0,1,527.365,578.121ZM412.824,195.986a22.654,22.654,0,0,0-10.987,2.7L147.292,347.839c-2.628,1.5-4.168,3.4-4.168,5.1a4.531,4.531,0,0,0,2.628,3.511l373.413,215.6h0c4.757,2.764,13.593,2.265,19.12-.884L792.83,422.032c2.605-1.518,4.168-3.421,4.168-5.12a4.531,4.531,0,0,0-2.628-3.511L420.957,197.821a16.47,16.47,0,0,0-8.133-1.835Z" transform="translate(-139 94.882)" fill="url(#a)"/><path d="M677.632,254.688,351.7,66.52a8.427,8.427,0,0,0-6.66-.951h0l-6.049,2.084,2.13.521a10.239,10.239,0,0,0-1.994,3.715L265.321,311.211a14.408,14.408,0,0,0,5.981,16.107l326,188.168a9.377,9.377,0,0,0,2.4.974l-.816,1.767,5.754-2.039h0a9.062,9.062,0,0,0,5.233-6.094L683.59,270.818a14.476,14.476,0,0,0-5.958-16.13Z" transform="translate(20.125 -65.266)" fill="url(#b)"/><path d="M716.513,372.655l.113.136L394.706,187.025c-4.735-2.719-13-2.379-18.463.77L168.252,307.864l-6.932-2.651,1.926,9.719h0a5.8,5.8,0,0,0,3.126,3.9L491.35,506.453c4.735,2.741,13,2.379,18.463-.77L718.348,385.3a8.4,8.4,0,0,0,4.418-5.143h0l1.925-9.628Z" transform="translate(-110.755 86.49)" fill="url(#c)"/><path d="M491.689,503.885,164.49,314.969c-4.78-2.741-4.168-7.567,1.337-10.738L375.879,182.985c5.505-3.172,13.819-3.511,18.6-.77l327.2,188.915c4.758,2.764,4.168,7.567-1.336,10.738L510.333,503.115C504.783,506.286,496.469,506.649,491.689,503.885Z" transform="translate(-110.822 80.381)" fill="#e8e3fb"/><path d="M720.169,307.457,510.163,428.7c-5.5,3.172-13.819,3.511-18.6.77L164.433,240.558a6.071,6.071,0,0,1-2.968-3.4,5.1,5.1,0,0,0,2.968,5.935l327.2,188.915c4.78,2.764,13.094,2.4,18.6-.77L720.169,309.994c3.625-2.084,5.075-4.893,4.3-7.34A8.677,8.677,0,0,1,720.169,307.457Z" transform="translate(-110.765 152.255)" fill="#fff"/><g transform="translate(198.088 304.736)" opacity="0.4"><path d="M238.086,235.4l-11.033-6.366c-.906-.521-.793-1.427.227-2.016l13.049-7.521a3.828,3.828,0,0,1,3.466-.136l11.1,6.411c.906.521.793,1.4-.249,1.994l-13.026,7.544a3.829,3.829,0,0,1-3.534.091Z" transform="translate(-226.439 -175.441)" fill="#06033e"/><path d="M245.615,239.755l-11.033-6.389c-.906-.5-.793-1.4.249-1.994l13.026-7.521a3.829,3.829,0,0,1,3.466-.136l11.033,6.366c.906.521.793,1.4-.249,1.994l-13.026,7.544A3.9,3.9,0,0,1,245.615,239.755Z" transform="translate(-216.909 -169.936)" fill="#06033e"/><path d="M253.145,244.156l-11.033-6.389c-.906-.5-.793-1.4.249-1.994l13.026-7.521a3.919,3.919,0,0,1,3.466-.159l11.033,6.389c.906.5.793,1.4-.249,1.994L256.611,244a3.919,3.919,0,0,1-3.466.159Z" transform="translate(-207.38 -164.37)" fill="#06033e"/><path d="M263.568,239.844l-11.055-6.389c-.884-.521-.77-1.4.249-1.994l10.942-6.321a3.829,3.829,0,0,1,3.466-.136l11.055,6.366c.884.521.77,1.4-.249,1.994l-10.965,6.321a3.874,3.874,0,0,1-3.444.159Z" transform="translate(-194.197 -168.304)" fill="#06033e"/><path d="M271.1,244.173l-11.055-6.366c-.884-.521-.77-1.4.249-1.994l10.942-6.321a3.919,3.919,0,0,1,3.466-.159l11.055,6.389c.884.5.77,1.4-.249,1.994l-10.965,6.321a3.783,3.783,0,0,1-3.444.136Z" transform="translate(-184.668 -162.8)" fill="#06033e"/><path d="M278.628,248.53l-11.055-6.366c-.884-.521-.77-1.427.249-2.016l10.942-6.321a3.9,3.9,0,0,1,3.466-.136l11.055,6.389c.884.5.77,1.4-.249,1.994l-10.965,6.343a3.783,3.783,0,0,1-3.443.113Z" transform="translate(-175.14 -157.303)" fill="#06033e"/><path d="M286.158,252.884,275.1,246.5c-.884-.5-.77-1.4.249-1.994l10.942-6.321a3.829,3.829,0,0,1,3.466-.136l11.055,6.366c.884.521.77,1.4-.249,2.016L289.6,252.748a3.851,3.851,0,0,1-3.443.136Z" transform="translate(-165.611 -151.803)" fill="#06033e"/><path d="M293.688,257.234l-11.055-6.389c-.884-.5-.77-1.4.249-1.994l10.942-6.321a3.829,3.829,0,0,1,3.466-.136l11.055,6.366c.884.521.77,1.4-.249,1.994l-10.942,6.321a3.919,3.919,0,0,1-3.466.159Z" transform="translate(-156.082 -146.298)" fill="#06033e"/><path d="M301.218,261.563,290.163,255.2c-.884-.521-.77-1.4.249-1.994l10.942-6.321a3.919,3.919,0,0,1,3.466-.159l11.055,6.389c.884.521.77,1.4-.249,1.994l-10.942,6.253a3.829,3.829,0,0,1-3.466.2Z" transform="translate(-146.553 -140.794)" fill="#06033e"/><path d="M308.748,265.855l-11.055-6.366c-.884-.521-.77-1.4.249-2.016l10.942-6.207a3.919,3.919,0,0,1,3.466-.136l11.055,6.389c.884.5.77,1.4-.249,1.994l-10.942,6.321a3.829,3.829,0,0,1-3.466.023Z" transform="translate(-137.024 -135.232)" fill="#06033e"/><path d="M316.278,270.236l-11.055-6.321c-.884-.5-.77-1.4.249-1.994l10.942-6.321a3.828,3.828,0,0,1,3.466-.136l11.055,6.366c.884.521.77,1.427-.249,2.016l-10.942,6.321a3.829,3.829,0,0,1-3.466.068Z" transform="translate(-127.496 -129.759)" fill="#06033e"/><path d="M323.808,274.624l-11.055-6.389c-.884-.5-.77-1.4.249-1.994l10.942-6.321a3.829,3.829,0,0,1,3.466-.136l11.055,6.366c.884.521.77,1.4-.249,1.994l-10.942,6.321a3.919,3.919,0,0,1-3.466.159Z" transform="translate(-117.967 -124.292)" fill="#06033e"/><path d="M331.275,278.953l-10.942-6.366c-.884-.521-.77-1.4.249-1.994l10.942-6.321a3.919,3.919,0,0,1,3.466-.159l11.055,6.388c.884.521.77,1.4-.249,1.994l-10.942,6.321A3.829,3.829,0,0,1,331.275,278.953Z" transform="translate(-108.375 -118.788)" fill="#06033e"/><path d="M274.655,237.784,263.622,231.4c-.906-.5-.793-1.4.249-1.994l10.942-6.321a3.783,3.783,0,0,1,3.444-.136l11.055,6.366c.884.521.77,1.4-.249,1.994l-10.942,6.321a3.851,3.851,0,0,1-3.466.159Z" transform="translate(-180.16 -170.911)" fill="#06033e"/><path d="M267.018,233.374l-11.055-6.389c-.883-.521-.77-1.4.249-1.994l10.942-6.321a3.829,3.829,0,0,1,3.466-.136l11.055,6.366c.884.521.77,1.4-.249,1.994l-11.033,6.321a3.919,3.919,0,0,1-3.376.159Z" transform="translate(-189.831 -176.491)" fill="#06033e"/><path d="M266.47,233.067l-23.787-13.751c-.884-.5-.77-1.4.249-1.994L253.874,211a3.829,3.829,0,0,1,3.466-.136l23.787,13.729c.884.521.793,1.4-.249,1.994l-10.942,6.321a3.919,3.919,0,0,1-3.466.159Z" transform="translate(-206.637 -186.197)" fill="#06033e"/><path d="M269.337,226.232l-19.324-11.146c-.884-.521-.77-1.4.249-1.994l10.942-6.321a3.829,3.829,0,0,1,3.466-.136l19.3,11.146c.906.5.793,1.4-.249,1.994l-10.942,6.253a3.783,3.783,0,0,1-3.443.2Z" transform="translate(-197.361 -191.55)" fill="#06033e"/><path d="M282.185,242.134l-11.033-6.389c-.906-.521-.793-1.4.249-1.994l10.942-6.321a3.783,3.783,0,0,1,3.443-.136l11.055,6.366c.884.521.77,1.4-.249,1.994l-10.942,6.321a3.919,3.919,0,0,1-3.466.159Z" transform="translate(-170.632 -165.406)" fill="#06033e"/><path d="M289.715,246.472l-11.033-6.366c-.906-.521-.793-1.4.249-1.994l10.942-6.321a3.874,3.874,0,0,1,3.444-.159l11.055,6.389c.884.5.77,1.4-.249,1.994l-10.942,6.321a3.829,3.829,0,0,1-3.466.136Z" transform="translate(-161.103 -159.89)" fill="#06033e"/><path d="M297.24,250.824l-11.033-6.366c-.884-.521-.793-1.427.249-2.016l10.942-6.321a3.829,3.829,0,0,1,3.466-.136l11.033,6.389c.884.5.77,1.4-.249,1.994l-10.942,6.321a3.829,3.829,0,0,1-3.466.136Z" transform="translate(-151.569 -154.409)" fill="#06033e"/><path d="M304.77,255.174l-11.033-6.389c-.884-.5-.793-1.4.249-1.994l10.942-6.321a3.829,3.829,0,0,1,3.466-.136l11.033,6.366c.884.521.77,1.4-.249,2.016l-10.942,6.3A3.852,3.852,0,0,1,304.77,255.174Z" transform="translate(-142.04 -148.905)" fill="#06033e"/><path d="M312.3,259.484,301.267,253.1c-.884-.521-.793-1.4.249-1.994l10.942-6.321a3.829,3.829,0,0,1,3.466-.136l11.033,6.366c.884.521.77,1.4-.249,1.994l-10.942,6.479a3.919,3.919,0,0,1-3.466,0Z" transform="translate(-132.511 -143.451)" fill="#06033e"/><path d="M319.83,263.853,308.8,257.487c-.884-.521-.793-1.4.249-1.994l10.942-6.321a3.919,3.919,0,0,1,3.466-.159l11.033,6.389c.884.5.77,1.4-.249,1.994L323.3,263.717a3.829,3.829,0,0,1-3.466.136Z" transform="translate(-122.982 -137.896)" fill="#06033e"/><path d="M327.343,268.214l-11.01-6.366c-.884-.521-.77-1.427.249-2.016l10.942-6.321a3.829,3.829,0,0,1,3.466-.136l11.033,6.389c.884.5.77,1.4-.249,1.994l-10.942,6.321A3.829,3.829,0,0,1,327.343,268.214Z" transform="translate(-113.437 -132.403)" fill="#06033e"/><path d="M334.885,272.564l-11.033-6.389c-.884-.5-.77-1.4.249-1.994l10.942-6.321a3.828,3.828,0,0,1,3.466-.136l11.033,6.366c.884.521.793,1.4-.249,2.016l-10.942,6.275A3.9,3.9,0,0,1,334.885,272.564Z" transform="translate(-103.92 -126.899)" fill="#06033e"/><path d="M342.415,276.914l-11.033-6.389c-.884-.521-.77-1.4.249-1.994l10.942-6.321a3.829,3.829,0,0,1,3.466-.136l11.033,6.366c.884.521.793,1.4-.249,1.994l-10.942,6.321a3.919,3.919,0,0,1-3.466.159Z" transform="translate(-94.392 -121.394)" fill="#06033e"/><path d="M363.107,288.871,339,274.916c-.884-.5-.77-1.4.249-1.994l10.942-6.321a3.829,3.829,0,0,1,3.466-.136l24.1,13.91c.884.521.77,1.4-.249,1.994l-10.942,6.321A3.918,3.918,0,0,1,363.107,288.871Z" transform="translate(-84.749 -115.839)" fill="#06033e"/><path d="M375.722,279.167l-20.389-11.735c-.884-.521-.77-1.4.249-2.016l10.942-6.321a3.919,3.919,0,0,1,3.466-.136l20.389,11.758c.884.5.77,1.4-.249,1.994l-10.942,6.321a3.829,3.829,0,0,1-3.466.136Z" transform="translate(-64.084 -125.324)" fill="#06033e"/><path d="M295.365,241.237l-11.033-6.321c-.884-.521-.77-1.4.249-1.994l10.942-6.321a3.919,3.919,0,0,1,3.466-.159l11.055,6.389c.884.521.77,1.4-.249,1.994l-10.942,6.321a3.829,3.829,0,0,1-3.489.091Z" transform="translate(-153.931 -166.458)" fill="#06033e"/><path d="M287.655,236.824l-11.033-6.389c-.906-.5-.793-1.4.249-1.994l10.942-6.321a3.783,3.783,0,0,1,3.443-.136l11.055,6.366c.884.521.77,1.427-.249,2.016l-10.942,6.321a3.9,3.9,0,0,1-3.466.136Z" transform="translate(-163.709 -172.126)" fill="#06033e"/><path d="M279.925,232.353l-11.033-6.366c-.884-.521-.77-1.4.249-1.994l10.942-6.321a3.919,3.919,0,0,1,3.466-.159l11.033,6.389c.884.5.793,1.4-.249,1.994l-10.851,6.321a3.829,3.829,0,0,1-3.557.136Z" transform="translate(-173.469 -177.758)" fill="#06033e"/><path d="M272.228,227.914l-11.055-6.389c-.884-.5-.77-1.4.249-1.994l10.942-6.321a3.828,3.828,0,0,1,3.466-.136l11.055,6.366c.884.521.77,1.4-.249,1.994l-10.965,6.321a3.783,3.783,0,0,1-3.443.159Z" transform="translate(-183.239 -183.401)" fill="#06033e"/><path d="M302.908,245.617l-11.055-6.366c-.884-.521-.77-1.4.249-1.994l10.942-6.321a3.851,3.851,0,0,1,3.466-.159l11.055,6.389c.884.5.77,1.4-.249,1.994l-10.942,6.321a3.829,3.829,0,0,1-3.466.136Z" transform="translate(-144.415 -160.983)" fill="#06033e"/><path d="M310.438,249.974l-11.055-6.389c-.884-.5-.77-1.4.249-1.994l10.965-6.321a3.828,3.828,0,0,1,3.466-.136l11.055,6.389c.884.5.77,1.4-.249,1.994l-10.942,6.321a3.828,3.828,0,0,1-3.489.136Z" transform="translate(-134.886 -155.485)" fill="#06033e"/><path d="M317.968,254.349l-11.055-6.434c-.884-.5-.77-1.4.249-1.994l10.965-6.321a3.783,3.783,0,0,1,3.443-.136l11.055,6.366c.884.521.77,1.4-.249,1.994l-10.919,6.366A3.851,3.851,0,0,1,317.968,254.349Z" transform="translate(-125.357 -150.006)" fill="#06033e"/><path d="M325.508,258.674l-11.055-6.389c-.884-.521-.77-1.4.249-1.994l10.965-6.321a3.783,3.783,0,0,1,3.443-.136l11.055,6.366c.884.521.77,1.4-.249,1.994l-10.942,6.321a3.919,3.919,0,0,1-3.466.159Z" transform="translate(-115.816 -144.476)" fill="#06033e"/><path d="M333.028,263.008l-11.055-6.366c-.884-.521-.77-1.4.249-1.994l10.965-6.321a3.783,3.783,0,0,1,3.443-.159l11.078,6.389c.884.5.77,1.4-.249,1.994l-10.942,6.321a3.829,3.829,0,0,1-3.489.136Z" transform="translate(-106.3 -138.978)" fill="#06033e"/><path d="M340.558,267.364,329.5,260.975c-.884-.5-.77-1.4.249-1.994l10.965-6.321a3.783,3.783,0,0,1,3.443-.136l11.055,6.389c.884.5.77,1.4-.249,1.994l-10.942,6.321A3.829,3.829,0,0,1,340.558,267.364Z" transform="translate(-96.771 -133.479)" fill="#06033e"/><path d="M348.088,271.714l-11.055-6.389c-.884-.5-.77-1.4.249-1.994l10.965-6.321a3.784,3.784,0,0,1,3.443-.136l11.055,6.366c.884.521.77,1.4-.249,2.016l-10.942,6.3A3.851,3.851,0,0,1,348.088,271.714Z" transform="translate(-87.242 -127.974)" fill="#06033e"/><path d="M355.616,276.064l-11.033-6.389c-.906-.521-.793-1.4.227-1.994l10.965-6.321a3.783,3.783,0,0,1,3.443-.136l11.055,6.366c.884.521.77,1.4-.249,1.994l-10.942,6.321a3.919,3.919,0,0,1-3.466.159Z" transform="translate(-77.711 -122.47)" fill="#06033e"/><path d="M363.145,280.392l-11.033-6.366c-.906-.521-.793-1.4.249-1.994l10.942-6.321a3.874,3.874,0,0,1,3.443-.159l11.055,6.389c.883.5.77,1.4-.249,1.994l-10.942,6.321a3.829,3.829,0,0,1-3.466.136Z" transform="translate(-68.181 -116.966)" fill="#06033e"/><path d="M291.433,230.429l-11.1-6.275c-.884-.521-.77-1.427.249-2.016l10.942-6.321a3.9,3.9,0,0,1,3.466-.136l11.033,6.389c.884.5.793,1.4-.249,1.994L294.9,230.429a3.829,3.829,0,0,1-3.466,0Z" transform="translate(-158.993 -180.093)" fill="#06033e"/><path d="M283.916,226.2l-11.033-6.389c-.906-.521-.793-1.4.227-1.994l10.965-6.321a3.783,3.783,0,0,1,3.443-.136l11.055,6.366c.884.521.77,1.4-.249,1.994l-10.942,6.321a3.919,3.919,0,0,1-3.466.159Z" transform="translate(-168.443 -185.565)" fill="#06033e"/><path d="M276.479,221.874l-11.146-6.389c-.884-.5-.77-1.4.249-1.994l11.078-6.321a3.829,3.829,0,0,1,3.466-.136l11.055,6.366c.884.521.77,1.427-.249,2.016l-10.942,6.321A3.829,3.829,0,0,1,276.479,221.874Z" transform="translate(-177.974 -191.044)" fill="#06033e"/><path d="M268.938,217.533l-11.055-6.366c-.884-.521-.77-1.4.249-1.994l10.942-6.321a3.919,3.919,0,0,1,3.466-.159l11.033,6.389c.906.5.793,1.4-.249,1.994L272.495,217.4a3.783,3.783,0,0,1-3.557.136Z" transform="translate(-187.402 -196.512)" fill="#06033e"/><path d="M276.638,210.721l-11.055-6.366c-.884-.521-.77-1.4.249-1.994l3.715-2.084a3.851,3.851,0,0,1,3.466-.159l11.033,6.389c.906.5.793,1.4-.227,1.994l-3.625,2.084A3.829,3.829,0,0,1,276.638,210.721Z" transform="translate(-177.658 -199.781)" fill="#06033e"/><path d="M286.456,216.378l-11.123-6.389c-.884-.5-.77-1.4.249-1.994l3.625-2.084a3.828,3.828,0,0,1,3.466-.136l11.033,6.366c.884.521.793,1.4-.249,1.994l-3.6,2.107A3.829,3.829,0,0,1,286.456,216.378Z" transform="translate(-165.32 -192.639)" fill="#06033e"/><path d="M293.878,220.688,282.823,214.3c-.884-.5-.77-1.4.249-1.994l3.625-2.084a3.828,3.828,0,0,1,3.466-.136l11.033,6.366c.906.521.793,1.4-.227,1.994l-3.625,2.084A3.851,3.851,0,0,1,293.878,220.688Z" transform="translate(-155.842 -187.184)" fill="#06033e"/><path d="M301.284,225l-10.942-6.389c-.906-.521-.793-1.4.249-1.994l3.6-2.084a3.919,3.919,0,0,1,3.466-.159l11.055,6.389c.884.5.77,1.4-.249,1.994l-3.625,2.084a3.919,3.919,0,0,1-3.557.159Z" transform="translate(-146.348 -181.731)" fill="#06033e"/><path d="M308.79,229.292l-11.033-6.366c-.884-.521-.793-1.4.249-1.994l3.6-2.107a3.919,3.919,0,0,1,3.466-.136l11.055,6.389c.884.5.77,1.4-.249,1.994l-3.625,2.084a3.829,3.829,0,0,1-3.466.136Z" transform="translate(-136.953 -176.283)" fill="#06033e"/><path d="M350.508,253.341l-11.055-6.366c-.884-.521-.77-1.4.249-1.994l3.625-2.084a3.851,3.851,0,0,1,3.466-.159l11.033,6.389c.906.5.793,1.4-.249,1.994l-3.6,2.084a3.829,3.829,0,0,1-3.466.136Z" transform="translate(-84.179 -145.848)" fill="#06033e"/><path d="M357.915,257.658l-11.033-6.366c-.906-.521-.793-1.4.249-1.994l3.6-2.107a3.828,3.828,0,0,1,3.466-.136l11.055,6.389c.884.5.77,1.4-.249,1.994l-3.625,2.084a3.829,3.829,0,0,1-3.466.136Z" transform="translate(-74.799 -140.401)" fill="#06033e"/><path d="M365.37,262.018l-11.033-6.457c-.884-.521-.793-1.427.249-2.016l3.6-2.084a3.829,3.829,0,0,1,3.466-.136l11.055,6.366c.884.521.77,1.4-.249,1.994l-3.625,2.107a3.828,3.828,0,0,1-3.466.227Z" transform="translate(-65.354 -134.998)" fill="#06033e"/><path d="M372.848,266.278l-11.055-6.389c-.884-.5-.77-1.4.249-1.994l3.625-2.084a3.784,3.784,0,0,1,3.444-.136l11.055,6.366c.884.521.77,1.4-.249,1.994l-3.625,2.107A3.851,3.851,0,0,1,372.848,266.278Z" transform="translate(-55.909 -129.493)" fill="#06033e"/><path d="M298.925,234.874l-11.033-6.389c-.884-.5-.77-1.4.249-1.994l10.942-6.321a3.829,3.829,0,0,1,3.466-.136l11.033,6.366c.884.521.793,1.4-.249,2.016l-10.852,6.321a3.9,3.9,0,0,1-3.557.136Z" transform="translate(-149.426 -174.593)" fill="#06033e"/><path d="M306.5,239.224l-11.033-6.389c-.884-.521-.77-1.4.249-1.994l10.942-6.321a3.828,3.828,0,0,1,3.466-.136l11.033,6.366c.884.521.793,1.4-.249,1.994l-10.942,6.321a3.919,3.919,0,0,1-3.466.159Z" transform="translate(-139.846 -169.089)" fill="#06033e"/><path d="M313.985,243.553l-11.033-6.366c-.884-.521-.77-1.4.249-1.994l10.942-6.321a3.919,3.919,0,0,1,3.466-.159l11.033,6.389c.906.521.793,1.4-.249,1.994l-10.987,6.275A3.829,3.829,0,0,1,313.985,243.553Z" transform="translate(-130.368 -163.585)" fill="#06033e"/><path d="M321.508,247.91l-11.055-6.366c-.884-.521-.77-1.4.249-2.016l10.942-6.321a3.9,3.9,0,0,1,3.466-.136l11.033,6.389c.906.5.793,1.4-.249,1.994l-10.942,6.321a3.784,3.784,0,0,1-3.444.136Z" transform="translate(-120.877 -158.087)" fill="#06033e"/><path d="M329.068,252.214l-11.055-6.3c-.884-.5-.77-1.4.249-1.994L329.2,237.6a3.828,3.828,0,0,1,3.466-.136l10.987,6.185c.906.521.793,1.427-.249,2.016l-10.942,6.321a3.783,3.783,0,0,1-3.4.227Z" transform="translate(-111.311 -152.537)" fill="#06033e"/><path d="M336.6,256.614l-11.055-6.389c-.884-.5-.77-1.4.249-1.994l10.942-6.321a3.828,3.828,0,0,1,3.466-.136l11.033,6.366c.906.521.793,1.4-.249,1.994l-10.942,6.321a3.874,3.874,0,0,1-3.443.159Z" transform="translate(-101.782 -147.083)" fill="#06033e"/><path d="M344.128,260.943l-11.055-6.366c-.884-.521-.77-1.4.249-1.994l10.942-6.321a3.92,3.92,0,0,1,3.466-.159l11.033,6.389c.906.521.793,1.4-.249,1.994l-10.942,6.321A3.783,3.783,0,0,1,344.128,260.943Z" transform="translate(-92.253 -141.579)" fill="#06033e"/><path d="M351.658,265.31,340.6,258.921c-.884-.521-.77-1.4.249-2.016l10.942-6.3a3.851,3.851,0,0,1,3.466-.159l11.033,6.389c.906.5.793,1.4-.227,1.994L355.1,265.151a3.784,3.784,0,0,1-3.443.159Z" transform="translate(-82.724 -136.091)" fill="#06033e"/><path d="M359.188,269.654l-11.055-6.389c-.884-.5-.77-1.4.249-1.994l10.942-6.321a3.828,3.828,0,0,1,3.466-.136l11.055,6.366c.884.521.77,1.427-.249,2.016l-10.965,6.321a3.783,3.783,0,0,1-3.443.136Z" transform="translate(-73.195 -130.581)" fill="#06033e"/><path d="M267.91,242.3l-32.577-18.8c-.884-.5-.77-1.4.249-1.994l11.078-6.23a3.828,3.828,0,0,1,3.466-.136l32.532,18.781c.884.521.77,1.4-.249,1.994l-10.942,6.321a3.919,3.919,0,0,1-3.557.068Z" transform="translate(-215.938 -180.794)" fill="#06033e"/><path d="M360.394,295.759l-32.532-18.781c-.884-.521-.77-1.427.249-2.016l10.942-6.321a3.829,3.829,0,0,1,3.466-.136l32.532,18.781c.884.521.77,1.4-.249,1.994L363.861,295.6a3.919,3.919,0,0,1-3.466.159Z" transform="translate(-98.846 -113.257)" fill="#06033e"/><path d="M318.288,281.7l-11.055-6.366c-.884-.521-.77-1.4.249-1.994l13.049-7.544a3.829,3.829,0,0,1,3.466-.136l11.033,6.389c.884.5.77,1.4-.249,1.994l-13.026,7.521a3.829,3.829,0,0,1-3.466.136Z" transform="translate(-124.952 -116.851)" fill="#06033e"/><path d="M267.29,252.293,249.642,242.1c-.906-.521-.793-1.4.249-1.994l13.026-7.544a3.829,3.829,0,0,1,3.466-.136l17.671,10.195c.884.521.77,1.4-.249,1.994l-13.049,7.544A3.829,3.829,0,0,1,267.29,252.293Z" transform="translate(-197.851 -158.914)" fill="#06033e"/><path d="M314.72,279.642l-17.648-10.195c-.906-.5-.793-1.4.249-1.994l13.026-7.521a3.92,3.92,0,0,1,3.466-.159l17.67,10.217c.884.5.77,1.4-.249,1.994l-13.049,7.521a3.829,3.829,0,0,1-3.466.136Z" transform="translate(-137.831 -124.28)" fill="#06033e"/><path d="M278.2,258.532l-17.67-10.194c-.884-.5-.77-1.4.249-1.994l13.049-7.521a3.874,3.874,0,0,1,3.443-.159l17.671,10.217c.884.5.77,1.4-.249,1.994L281.669,258.4a3.829,3.829,0,0,1-3.466.136Z" transform="translate(-184.048 -150.994)" fill="#06033e"/><path d="M276.974,238.51l76.8,44.357a1.042,1.042,0,0,1,0,1.994l-13.3,7.68a3.829,3.829,0,0,1-3.443,0L260.21,248.183Z" transform="translate(-183.703 -150.772)" fill="#06033e"/><path d="M337.785,280.6l12.3,7.091c.725.43.634,1.155-.2,1.631l-5.346,3.081a3.149,3.149,0,0,1-2.832.136l-12.3-7.114c-.725-.408-.634-1.155.2-1.631l5.324-3.081A3.1,3.1,0,0,1,337.785,280.6Z" transform="translate(-96.762 -97.876)" fill="#06033e"/><path d="M330.173,276.2l12.3,7.114c.725.408.634,1.155-.2,1.631l-5.324,3.081a3.127,3.127,0,0,1-2.832.113l-12.3-7.091c-.725-.43-.634-1.155.2-1.654l5.369-3.081A3.217,3.217,0,0,1,330.173,276.2Z" transform="translate(-106.367 -103.414)" fill="#06033e"/><path d="M322.661,271.855l12.3,7.113c.725.43.634,1.155-.2,1.631l-5.324,3.081a3.059,3.059,0,0,1-2.832.113L314.279,276.7c-.748-.43-.634-1.155.2-1.631l5.324-3.081a3.149,3.149,0,0,1,2.855-.136Z" transform="translate(-115.913 -108.927)" fill="#06033e"/><path d="M334.346,273.8l12.3,7.113c.725.408.634,1.155-.2,1.631l-5.324,3.081a3.127,3.127,0,0,1-2.832.113l-12.324-7.091c-.725-.43-.634-1.155.2-1.654l5.346-3.081A3.217,3.217,0,0,1,334.346,273.8Z" transform="translate(-101.115 -106.458)" fill="#06033e"/></g><g transform="translate(198.088 304.736)" opacity="0.4"><path d="M238.086,235.4l-11.033-6.366c-.906-.521-.793-1.427.227-2.016l13.049-7.521a3.828,3.828,0,0,1,3.466-.136l11.1,6.411c.906.521.793,1.4-.249,1.994l-13.026,7.544a3.829,3.829,0,0,1-3.534.091Z" transform="translate(-226.439 -175.441)" fill="#06033e"/><path d="M245.615,239.755l-11.033-6.389c-.906-.5-.793-1.4.249-1.994l13.026-7.521a3.829,3.829,0,0,1,3.466-.136l11.033,6.366c.906.521.793,1.4-.249,1.994l-13.026,7.544A3.9,3.9,0,0,1,245.615,239.755Z" transform="translate(-216.909 -169.936)" fill="#06033e"/><path d="M253.145,244.156l-11.033-6.389c-.906-.5-.793-1.4.249-1.994l13.026-7.521a3.919,3.919,0,0,1,3.466-.159l11.033,6.389c.906.5.793,1.4-.249,1.994L256.611,244a3.919,3.919,0,0,1-3.466.159Z" transform="translate(-207.38 -164.37)" fill="#06033e"/><path d="M263.568,239.844l-11.055-6.389c-.884-.521-.77-1.4.249-1.994l10.942-6.321a3.829,3.829,0,0,1,3.466-.136l11.055,6.366c.884.521.77,1.4-.249,1.994l-10.965,6.321a3.874,3.874,0,0,1-3.444.159Z" transform="translate(-194.197 -168.304)" fill="#06033e"/><path d="M271.1,244.173l-11.055-6.366c-.884-.521-.77-1.4.249-1.994l10.942-6.321a3.919,3.919,0,0,1,3.466-.159l11.055,6.389c.884.5.77,1.4-.249,1.994l-10.965,6.321a3.783,3.783,0,0,1-3.444.136Z" transform="translate(-184.668 -162.8)" fill="#06033e"/><path d="M278.628,248.53l-11.055-6.366c-.884-.521-.77-1.427.249-2.016l10.942-6.321a3.9,3.9,0,0,1,3.466-.136l11.055,6.389c.884.5.77,1.4-.249,1.994l-10.965,6.343a3.783,3.783,0,0,1-3.443.113Z" transform="translate(-175.14 -157.303)" fill="#06033e"/><path d="M286.158,252.884,275.1,246.5c-.884-.5-.77-1.4.249-1.994l10.942-6.321a3.829,3.829,0,0,1,3.466-.136l11.055,6.366c.884.521.77,1.4-.249,2.016L289.6,252.748a3.851,3.851,0,0,1-3.443.136Z" transform="translate(-165.611 -151.803)" fill="#06033e"/><path d="M293.688,257.234l-11.055-6.389c-.884-.5-.77-1.4.249-1.994l10.942-6.321a3.829,3.829,0,0,1,3.466-.136l11.055,6.366c.884.521.77,1.4-.249,1.994l-10.942,6.321a3.919,3.919,0,0,1-3.466.159Z" transform="translate(-156.082 -146.298)" fill="#06033e"/><path d="M301.218,261.563,290.163,255.2c-.884-.521-.77-1.4.249-1.994l10.942-6.321a3.919,3.919,0,0,1,3.466-.159l11.055,6.389c.884.521.77,1.4-.249,1.994l-10.942,6.253a3.829,3.829,0,0,1-3.466.2Z" transform="translate(-146.553 -140.794)" fill="#06033e"/><path d="M308.748,265.855l-11.055-6.366c-.884-.521-.77-1.4.249-2.016l10.942-6.207a3.919,3.919,0,0,1,3.466-.136l11.055,6.389c.884.5.77,1.4-.249,1.994l-10.942,6.321a3.829,3.829,0,0,1-3.466.023Z" transform="translate(-137.024 -135.232)" fill="#06033e"/><path d="M316.278,270.236l-11.055-6.321c-.884-.5-.77-1.4.249-1.994l10.942-6.321a3.828,3.828,0,0,1,3.466-.136l11.055,6.366c.884.521.77,1.427-.249,2.016l-10.942,6.321a3.829,3.829,0,0,1-3.466.068Z" transform="translate(-127.496 -129.759)" fill="#06033e"/><path d="M323.808,274.624l-11.055-6.389c-.884-.5-.77-1.4.249-1.994l10.942-6.321a3.829,3.829,0,0,1,3.466-.136l11.055,6.366c.884.521.77,1.4-.249,1.994l-10.942,6.321a3.919,3.919,0,0,1-3.466.159Z" transform="translate(-117.967 -124.292)" fill="#06033e"/><path d="M331.275,278.953l-10.942-6.366c-.884-.521-.77-1.4.249-1.994l10.942-6.321a3.919,3.919,0,0,1,3.466-.159l11.055,6.388c.884.521.77,1.4-.249,1.994l-10.942,6.321A3.829,3.829,0,0,1,331.275,278.953Z" transform="translate(-108.375 -118.788)" fill="#06033e"/><path d="M274.655,237.784,263.622,231.4c-.906-.5-.793-1.4.249-1.994l10.942-6.321a3.783,3.783,0,0,1,3.444-.136l11.055,6.366c.884.521.77,1.4-.249,1.994l-10.942,6.321a3.851,3.851,0,0,1-3.466.159Z" transform="translate(-180.16 -170.911)" fill="#06033e"/><path d="M267.018,233.374l-11.055-6.389c-.883-.521-.77-1.4.249-1.994l10.942-6.321a3.829,3.829,0,0,1,3.466-.136l11.055,6.366c.884.521.77,1.4-.249,1.994l-11.033,6.321a3.919,3.919,0,0,1-3.376.159Z" transform="translate(-189.831 -176.491)" fill="#06033e"/><path d="M266.47,233.067l-23.787-13.751c-.884-.5-.77-1.4.249-1.994L253.874,211a3.829,3.829,0,0,1,3.466-.136l23.787,13.729c.884.521.793,1.4-.249,1.994l-10.942,6.321a3.919,3.919,0,0,1-3.466.159Z" transform="translate(-206.637 -186.197)" fill="#06033e"/><path d="M269.337,226.232l-19.324-11.146c-.884-.521-.77-1.4.249-1.994l10.942-6.321a3.829,3.829,0,0,1,3.466-.136l19.3,11.146c.906.5.793,1.4-.249,1.994l-10.942,6.253a3.783,3.783,0,0,1-3.443.2Z" transform="translate(-197.361 -191.55)" fill="#06033e"/><path d="M282.185,242.134l-11.033-6.389c-.906-.521-.793-1.4.249-1.994l10.942-6.321a3.783,3.783,0,0,1,3.443-.136l11.055,6.366c.884.521.77,1.4-.249,1.994l-10.942,6.321a3.919,3.919,0,0,1-3.466.159Z" transform="translate(-170.632 -165.406)" fill="#06033e"/><path d="M289.715,246.472l-11.033-6.366c-.906-.521-.793-1.4.249-1.994l10.942-6.321a3.874,3.874,0,0,1,3.444-.159l11.055,6.389c.884.5.77,1.4-.249,1.994l-10.942,6.321a3.829,3.829,0,0,1-3.466.136Z" transform="translate(-161.103 -159.89)" fill="#06033e"/><path d="M297.24,250.824l-11.033-6.366c-.884-.521-.793-1.427.249-2.016l10.942-6.321a3.829,3.829,0,0,1,3.466-.136l11.033,6.389c.884.5.77,1.4-.249,1.994l-10.942,6.321a3.829,3.829,0,0,1-3.466.136Z" transform="translate(-151.569 -154.409)" fill="#06033e"/><path d="M304.77,255.174l-11.033-6.389c-.884-.5-.793-1.4.249-1.994l10.942-6.321a3.829,3.829,0,0,1,3.466-.136l11.033,6.366c.884.521.77,1.4-.249,2.016l-10.942,6.3A3.852,3.852,0,0,1,304.77,255.174Z" transform="translate(-142.04 -148.905)" fill="#06033e"/><path d="M312.3,259.484,301.267,253.1c-.884-.521-.793-1.4.249-1.994l10.942-6.321a3.829,3.829,0,0,1,3.466-.136l11.033,6.366c.884.521.77,1.4-.249,1.994l-10.942,6.479a3.919,3.919,0,0,1-3.466,0Z" transform="translate(-132.511 -143.451)" fill="#06033e"/><path d="M319.83,263.853,308.8,257.487c-.884-.521-.793-1.4.249-1.994l10.942-6.321a3.919,3.919,0,0,1,3.466-.159l11.033,6.389c.884.5.77,1.4-.249,1.994L323.3,263.717a3.829,3.829,0,0,1-3.466.136Z" transform="translate(-122.982 -137.896)" fill="#06033e"/><path d="M327.343,268.214l-11.01-6.366c-.884-.521-.77-1.427.249-2.016l10.942-6.321a3.829,3.829,0,0,1,3.466-.136l11.033,6.389c.884.5.77,1.4-.249,1.994l-10.942,6.321A3.829,3.829,0,0,1,327.343,268.214Z" transform="translate(-113.437 -132.403)" fill="#06033e"/><path d="M334.885,272.564l-11.033-6.389c-.884-.5-.77-1.4.249-1.994l10.942-6.321a3.828,3.828,0,0,1,3.466-.136l11.033,6.366c.884.521.793,1.4-.249,2.016l-10.942,6.275A3.9,3.9,0,0,1,334.885,272.564Z" transform="translate(-103.92 -126.899)" fill="#06033e"/><path d="M342.415,276.914l-11.033-6.389c-.884-.521-.77-1.4.249-1.994l10.942-6.321a3.829,3.829,0,0,1,3.466-.136l11.033,6.366c.884.521.793,1.4-.249,1.994l-10.942,6.321a3.919,3.919,0,0,1-3.466.159Z" transform="translate(-94.392 -121.394)" fill="#06033e"/><path d="M363.107,288.871,339,274.916c-.884-.5-.77-1.4.249-1.994l10.942-6.321a3.829,3.829,0,0,1,3.466-.136l24.1,13.91c.884.521.77,1.4-.249,1.994l-10.942,6.321A3.918,3.918,0,0,1,363.107,288.871Z" transform="translate(-84.749 -115.839)" fill="#06033e"/><path d="M375.722,279.167l-20.389-11.735c-.884-.521-.77-1.4.249-2.016l10.942-6.321a3.919,3.919,0,0,1,3.466-.136l20.389,11.758c.884.5.77,1.4-.249,1.994l-10.942,6.321a3.829,3.829,0,0,1-3.466.136Z" transform="translate(-64.084 -125.324)" fill="#06033e"/><path d="M295.365,241.237l-11.033-6.321c-.884-.521-.77-1.4.249-1.994l10.942-6.321a3.919,3.919,0,0,1,3.466-.159l11.055,6.389c.884.521.77,1.4-.249,1.994l-10.942,6.321a3.829,3.829,0,0,1-3.489.091Z" transform="translate(-153.931 -166.458)" fill="#06033e"/><path d="M287.655,236.824l-11.033-6.389c-.906-.5-.793-1.4.249-1.994l10.942-6.321a3.783,3.783,0,0,1,3.443-.136l11.055,6.366c.884.521.77,1.427-.249,2.016l-10.942,6.321a3.9,3.9,0,0,1-3.466.136Z" transform="translate(-163.709 -172.126)" fill="#06033e"/><path d="M279.925,232.353l-11.033-6.366c-.884-.521-.77-1.4.249-1.994l10.942-6.321a3.919,3.919,0,0,1,3.466-.159l11.033,6.389c.884.5.793,1.4-.249,1.994l-10.851,6.321a3.829,3.829,0,0,1-3.557.136Z" transform="translate(-173.469 -177.758)" fill="#06033e"/><path d="M272.228,227.914l-11.055-6.389c-.884-.5-.77-1.4.249-1.994l10.942-6.321a3.828,3.828,0,0,1,3.466-.136l11.055,6.366c.884.521.77,1.4-.249,1.994l-10.965,6.321a3.783,3.783,0,0,1-3.443.159Z" transform="translate(-183.239 -183.401)" fill="#06033e"/><path d="M302.908,245.617l-11.055-6.366c-.884-.521-.77-1.4.249-1.994l10.942-6.321a3.851,3.851,0,0,1,3.466-.159l11.055,6.389c.884.5.77,1.4-.249,1.994l-10.942,6.321a3.829,3.829,0,0,1-3.466.136Z" transform="translate(-144.415 -160.983)" fill="#06033e"/><path d="M310.438,249.974l-11.055-6.389c-.884-.5-.77-1.4.249-1.994l10.965-6.321a3.828,3.828,0,0,1,3.466-.136l11.055,6.389c.884.5.77,1.4-.249,1.994l-10.942,6.321a3.828,3.828,0,0,1-3.489.136Z" transform="translate(-134.886 -155.485)" fill="#06033e"/><path d="M317.968,254.349l-11.055-6.434c-.884-.5-.77-1.4.249-1.994l10.965-6.321a3.783,3.783,0,0,1,3.443-.136l11.055,6.366c.884.521.77,1.4-.249,1.994l-10.919,6.366A3.851,3.851,0,0,1,317.968,254.349Z" transform="translate(-125.357 -150.006)" fill="#06033e"/><path d="M325.508,258.674l-11.055-6.389c-.884-.521-.77-1.4.249-1.994l10.965-6.321a3.783,3.783,0,0,1,3.443-.136l11.055,6.366c.884.521.77,1.4-.249,1.994l-10.942,6.321a3.919,3.919,0,0,1-3.466.159Z" transform="translate(-115.816 -144.476)" fill="#06033e"/><path d="M333.028,263.008l-11.055-6.366c-.884-.521-.77-1.4.249-1.994l10.965-6.321a3.783,3.783,0,0,1,3.443-.159l11.078,6.389c.884.5.77,1.4-.249,1.994l-10.942,6.321a3.829,3.829,0,0,1-3.489.136Z" transform="translate(-106.3 -138.978)" fill="#06033e"/><path d="M340.558,267.364,329.5,260.975c-.884-.5-.77-1.4.249-1.994l10.965-6.321a3.783,3.783,0,0,1,3.443-.136l11.055,6.389c.884.5.77,1.4-.249,1.994l-10.942,6.321A3.829,3.829,0,0,1,340.558,267.364Z" transform="translate(-96.771 -133.479)" fill="#06033e"/><path d="M348.088,271.714l-11.055-6.389c-.884-.5-.77-1.4.249-1.994l10.965-6.321a3.784,3.784,0,0,1,3.443-.136l11.055,6.366c.884.521.77,1.4-.249,2.016l-10.942,6.3A3.851,3.851,0,0,1,348.088,271.714Z" transform="translate(-87.242 -127.974)" fill="#06033e"/><path d="M355.616,276.064l-11.033-6.389c-.906-.521-.793-1.4.227-1.994l10.965-6.321a3.783,3.783,0,0,1,3.443-.136l11.055,6.366c.884.521.77,1.4-.249,1.994l-10.942,6.321a3.919,3.919,0,0,1-3.466.159Z" transform="translate(-77.711 -122.47)" fill="#06033e"/><path d="M363.145,280.392l-11.033-6.366c-.906-.521-.793-1.4.249-1.994l10.942-6.321a3.874,3.874,0,0,1,3.443-.159l11.055,6.389c.883.5.77,1.4-.249,1.994l-10.942,6.321a3.829,3.829,0,0,1-3.466.136Z" transform="translate(-68.181 -116.966)" fill="#06033e"/><path d="M291.433,230.429l-11.1-6.275c-.884-.521-.77-1.427.249-2.016l10.942-6.321a3.9,3.9,0,0,1,3.466-.136l11.033,6.389c.884.5.793,1.4-.249,1.994L294.9,230.429a3.829,3.829,0,0,1-3.466,0Z" transform="translate(-158.993 -180.093)" fill="#06033e"/><path d="M283.916,226.2l-11.033-6.389c-.906-.521-.793-1.4.227-1.994l10.965-6.321a3.783,3.783,0,0,1,3.443-.136l11.055,6.366c.884.521.77,1.4-.249,1.994l-10.942,6.321a3.919,3.919,0,0,1-3.466.159Z" transform="translate(-168.443 -185.565)" fill="#06033e"/><path d="M276.479,221.874l-11.146-6.389c-.884-.5-.77-1.4.249-1.994l11.078-6.321a3.829,3.829,0,0,1,3.466-.136l11.055,6.366c.884.521.77,1.427-.249,2.016l-10.942,6.321A3.829,3.829,0,0,1,276.479,221.874Z" transform="translate(-177.974 -191.044)" fill="#06033e"/><path d="M268.938,217.533l-11.055-6.366c-.884-.521-.77-1.4.249-1.994l10.942-6.321a3.919,3.919,0,0,1,3.466-.159l11.033,6.389c.906.5.793,1.4-.249,1.994L272.495,217.4a3.783,3.783,0,0,1-3.557.136Z" transform="translate(-187.402 -196.512)" fill="#06033e"/><path d="M276.638,210.721l-11.055-6.366c-.884-.521-.77-1.4.249-1.994l3.715-2.084a3.851,3.851,0,0,1,3.466-.159l11.033,6.389c.906.5.793,1.4-.227,1.994l-3.625,2.084A3.829,3.829,0,0,1,276.638,210.721Z" transform="translate(-177.658 -199.781)" fill="#06033e"/><path d="M286.456,216.378l-11.123-6.389c-.884-.5-.77-1.4.249-1.994l3.625-2.084a3.828,3.828,0,0,1,3.466-.136l11.033,6.366c.884.521.793,1.4-.249,1.994l-3.6,2.107A3.829,3.829,0,0,1,286.456,216.378Z" transform="translate(-165.32 -192.639)" fill="#06033e"/><path d="M293.878,220.688,282.823,214.3c-.884-.5-.77-1.4.249-1.994l3.625-2.084a3.828,3.828,0,0,1,3.466-.136l11.033,6.366c.906.521.793,1.4-.227,1.994l-3.625,2.084A3.851,3.851,0,0,1,293.878,220.688Z" transform="translate(-155.842 -187.184)" fill="#06033e"/><path d="M301.284,225l-10.942-6.389c-.906-.521-.793-1.4.249-1.994l3.6-2.084a3.919,3.919,0,0,1,3.466-.159l11.055,6.389c.884.5.77,1.4-.249,1.994l-3.625,2.084a3.919,3.919,0,0,1-3.557.159Z" transform="translate(-146.348 -181.731)" fill="#06033e"/><path d="M308.79,229.292l-11.033-6.366c-.884-.521-.793-1.4.249-1.994l3.6-2.107a3.919,3.919,0,0,1,3.466-.136l11.055,6.389c.884.5.77,1.4-.249,1.994l-3.625,2.084a3.829,3.829,0,0,1-3.466.136Z" transform="translate(-136.953 -176.283)" fill="#06033e"/><path d="M350.508,253.341l-11.055-6.366c-.884-.521-.77-1.4.249-1.994l3.625-2.084a3.851,3.851,0,0,1,3.466-.159l11.033,6.389c.906.5.793,1.4-.249,1.994l-3.6,2.084a3.829,3.829,0,0,1-3.466.136Z" transform="translate(-84.179 -145.848)" fill="#06033e"/><path d="M357.915,257.658l-11.033-6.366c-.906-.521-.793-1.4.249-1.994l3.6-2.107a3.828,3.828,0,0,1,3.466-.136l11.055,6.389c.884.5.77,1.4-.249,1.994l-3.625,2.084a3.829,3.829,0,0,1-3.466.136Z" transform="translate(-74.799 -140.401)" fill="#06033e"/><path d="M365.37,262.018l-11.033-6.457c-.884-.521-.793-1.427.249-2.016l3.6-2.084a3.829,3.829,0,0,1,3.466-.136l11.055,6.366c.884.521.77,1.4-.249,1.994l-3.625,2.107a3.828,3.828,0,0,1-3.466.227Z" transform="translate(-65.354 -134.998)" fill="#06033e"/><path d="M372.848,266.278l-11.055-6.389c-.884-.5-.77-1.4.249-1.994l3.625-2.084a3.784,3.784,0,0,1,3.444-.136l11.055,6.366c.884.521.77,1.4-.249,1.994l-3.625,2.107A3.851,3.851,0,0,1,372.848,266.278Z" transform="translate(-55.909 -129.493)" fill="#06033e"/><path d="M298.925,234.874l-11.033-6.389c-.884-.5-.77-1.4.249-1.994l10.942-6.321a3.829,3.829,0,0,1,3.466-.136l11.033,6.366c.884.521.793,1.4-.249,2.016l-10.852,6.321a3.9,3.9,0,0,1-3.557.136Z" transform="translate(-149.426 -174.593)" fill="#06033e"/><path d="M306.5,239.224l-11.033-6.389c-.884-.521-.77-1.4.249-1.994l10.942-6.321a3.828,3.828,0,0,1,3.466-.136l11.033,6.366c.884.521.793,1.4-.249,1.994l-10.942,6.321a3.919,3.919,0,0,1-3.466.159Z" transform="translate(-139.846 -169.089)" fill="#06033e"/><path d="M313.985,243.553l-11.033-6.366c-.884-.521-.77-1.4.249-1.994l10.942-6.321a3.919,3.919,0,0,1,3.466-.159l11.033,6.389c.906.521.793,1.4-.249,1.994l-10.987,6.275A3.829,3.829,0,0,1,313.985,243.553Z" transform="translate(-130.368 -163.585)" fill="#06033e"/><path d="M321.508,247.91l-11.055-6.366c-.884-.521-.77-1.4.249-2.016l10.942-6.321a3.9,3.9,0,0,1,3.466-.136l11.033,6.389c.906.5.793,1.4-.249,1.994l-10.942,6.321a3.784,3.784,0,0,1-3.444.136Z" transform="translate(-120.877 -158.087)" fill="#06033e"/><path d="M329.068,252.214l-11.055-6.3c-.884-.5-.77-1.4.249-1.994L329.2,237.6a3.828,3.828,0,0,1,3.466-.136l10.987,6.185c.906.521.793,1.427-.249,2.016l-10.942,6.321a3.783,3.783,0,0,1-3.4.227Z" transform="translate(-111.311 -152.537)" fill="#06033e"/><path d="M336.6,256.614l-11.055-6.389c-.884-.5-.77-1.4.249-1.994l10.942-6.321a3.828,3.828,0,0,1,3.466-.136l11.033,6.366c.906.521.793,1.4-.249,1.994l-10.942,6.321a3.874,3.874,0,0,1-3.443.159Z" transform="translate(-101.782 -147.083)" fill="#06033e"/><path d="M344.128,260.943l-11.055-6.366c-.884-.521-.77-1.4.249-1.994l10.942-6.321a3.92,3.92,0,0,1,3.466-.159l11.033,6.389c.906.521.793,1.4-.249,1.994l-10.942,6.321A3.783,3.783,0,0,1,344.128,260.943Z" transform="translate(-92.253 -141.579)" fill="#06033e"/><path d="M351.658,265.31,340.6,258.921c-.884-.521-.77-1.4.249-2.016l10.942-6.3a3.851,3.851,0,0,1,3.466-.159l11.033,6.389c.906.5.793,1.4-.227,1.994L355.1,265.151a3.784,3.784,0,0,1-3.443.159Z" transform="translate(-82.724 -136.091)" fill="#06033e"/><path d="M359.188,269.654l-11.055-6.389c-.884-.5-.77-1.4.249-1.994l10.942-6.321a3.828,3.828,0,0,1,3.466-.136l11.055,6.366c.884.521.77,1.427-.249,2.016l-10.965,6.321a3.783,3.783,0,0,1-3.443.136Z" transform="translate(-73.195 -130.581)" fill="#06033e"/><path d="M267.91,242.3l-32.577-18.8c-.884-.5-.77-1.4.249-1.994l11.078-6.23a3.828,3.828,0,0,1,3.466-.136l32.532,18.781c.884.521.77,1.4-.249,1.994l-10.942,6.321a3.919,3.919,0,0,1-3.557.068Z" transform="translate(-215.938 -180.794)" fill="#06033e"/><path d="M360.394,295.759l-32.532-18.781c-.884-.521-.77-1.427.249-2.016l10.942-6.321a3.829,3.829,0,0,1,3.466-.136l32.532,18.781c.884.521.77,1.4-.249,1.994L363.861,295.6a3.919,3.919,0,0,1-3.466.159Z" transform="translate(-98.846 -113.257)" fill="#06033e"/><path d="M318.288,281.7l-11.055-6.366c-.884-.521-.77-1.4.249-1.994l13.049-7.544a3.829,3.829,0,0,1,3.466-.136l11.033,6.389c.884.5.77,1.4-.249,1.994l-13.026,7.521a3.829,3.829,0,0,1-3.466.136Z" transform="translate(-124.952 -116.851)" fill="#06033e"/><path d="M267.29,252.293,249.642,242.1c-.906-.521-.793-1.4.249-1.994l13.026-7.544a3.829,3.829,0,0,1,3.466-.136l17.671,10.195c.884.521.77,1.4-.249,1.994l-13.049,7.544A3.829,3.829,0,0,1,267.29,252.293Z" transform="translate(-197.851 -158.914)" fill="#06033e"/><path d="M314.72,279.642l-17.648-10.195c-.906-.5-.793-1.4.249-1.994l13.026-7.521a3.92,3.92,0,0,1,3.466-.159l17.67,10.217c.884.5.77,1.4-.249,1.994l-13.049,7.521a3.829,3.829,0,0,1-3.466.136Z" transform="translate(-137.831 -124.28)" fill="#06033e"/><path d="M278.2,258.532l-17.67-10.194c-.884-.5-.77-1.4.249-1.994l13.049-7.521a3.874,3.874,0,0,1,3.443-.159l17.671,10.217c.884.5.77,1.4-.249,1.994L281.669,258.4a3.829,3.829,0,0,1-3.466.136Z" transform="translate(-184.048 -150.994)" fill="#06033e"/><path d="M276.974,238.51l76.8,44.357a1.042,1.042,0,0,1,0,1.994l-13.3,7.68a3.829,3.829,0,0,1-3.443,0L260.21,248.183Z" transform="translate(-183.703 -150.772)" fill="#06033e"/><path d="M337.785,280.6l12.3,7.091c.725.43.634,1.155-.2,1.631l-5.346,3.081a3.149,3.149,0,0,1-2.832.136l-12.3-7.114c-.725-.408-.634-1.155.2-1.631l5.324-3.081A3.1,3.1,0,0,1,337.785,280.6Z" transform="translate(-96.762 -97.876)" fill="#06033e"/><path d="M330.173,276.2l12.3,7.114c.725.408.634,1.155-.2,1.631l-5.324,3.081a3.127,3.127,0,0,1-2.832.113l-12.3-7.091c-.725-.43-.634-1.155.2-1.654l5.369-3.081A3.217,3.217,0,0,1,330.173,276.2Z" transform="translate(-106.367 -103.414)" fill="#06033e"/><path d="M322.661,271.855l12.3,7.113c.725.43.634,1.155-.2,1.631l-5.324,3.081a3.059,3.059,0,0,1-2.832.113L314.279,276.7c-.748-.43-.634-1.155.2-1.631l5.324-3.081a3.149,3.149,0,0,1,2.855-.136Z" transform="translate(-115.913 -108.927)" fill="#06033e"/><path d="M334.346,273.8l12.3,7.113c.725.408.634,1.155-.2,1.631l-5.324,3.081a3.127,3.127,0,0,1-2.832.113l-12.324-7.091c-.725-.43-.634-1.155.2-1.654l5.346-3.081A3.217,3.217,0,0,1,334.346,273.8Z" transform="translate(-101.115 -106.458)" fill="#06033e"/></g><path d="M594.8,516.354,268.869,328.186a14.431,14.431,0,0,1-5.958-16.107l73.695-239.3c1.835-5.935,7.453-8.36,12.6-5.392L675.109,255.556a14.408,14.408,0,0,1,5.958,16.107l-73.695,239.3C605.56,516.9,599.919,519.3,594.8,516.354Z" transform="translate(17.075 -64.186)" fill="#e8e3fb"/><path d="M587.8,503.148,271.682,320.485a13.842,13.842,0,0,1-5.709-15.405L336.428,76.27a8.02,8.02,0,0,1,12.052-5.143L664.6,253.813a13.819,13.819,0,0,1,5.709,15.4l-70.455,228.81C598.087,503.669,592.695,505.979,587.8,503.148Z" transform="translate(20.991 -59.362)" fill="url(#d)"/><path d="M587.8,503.148,271.682,320.485a13.842,13.842,0,0,1-5.709-15.405L336.428,76.27a8.02,8.02,0,0,1,12.052-5.143L664.6,253.813a13.819,13.819,0,0,1,5.709,15.4l-70.455,228.81C598.087,503.669,592.695,505.979,587.8,503.148Z" transform="translate(20.991 -59.362)" fill="#06033e" opacity="0.4"/><path d="M587.8,503.148,271.682,320.485a13.842,13.842,0,0,1-5.709-15.405L336.428,76.27a8.02,8.02,0,0,1,12.052-5.143L664.6,253.813a13.819,13.819,0,0,1,5.709,15.4l-70.455,228.81C598.087,503.669,592.695,505.979,587.8,503.148Z" transform="translate(20.991 -59.362)" fill="#06033e" opacity="0.4"/><path d="M522.162,395.42,308.169,271.863a9.492,9.492,0,0,1-3.919-10.58l48.39-157.109a5.528,5.528,0,0,1,8.269-3.557L574.9,224.175a9.47,9.47,0,0,1,3.919,10.58l-48.39,157.131a5.505,5.505,0,0,1-8.269,3.534Z" transform="translate(69.64 -21.546)" fill="#06033e" opacity="0.5"/><path d="M509.416,397.162,295.4,273.536a9.447,9.447,0,0,1-3.919-10.557l48.39-157.131a5.482,5.482,0,0,1,8.269-3.534L562.133,225.849a9.492,9.492,0,0,1,3.919,10.58L517.662,393.56a5.482,5.482,0,0,1-8.246,3.6Z" transform="translate(53.479 -19.436)" fill="url(#e)"/><g transform="translate(344.583 82.047)" opacity="0.5"><path d="M509.416,397.162,295.4,273.536a9.447,9.447,0,0,1-3.919-10.557l48.39-157.131a5.482,5.482,0,0,1,8.269-3.534L562.133,225.849a9.492,9.492,0,0,1,3.919,10.58L517.662,393.56a5.482,5.482,0,0,1-8.246,3.6Z" transform="translate(-291.104 -101.483)" fill="#06033e"/></g><path d="M533.65,225.849,319.656,102.315a5.346,5.346,0,0,0-6.026.2,5.8,5.8,0,0,1,3.081.793L530.7,226.846a9.515,9.515,0,0,1,3.942,10.58L486.234,394.557a6.388,6.388,0,0,1-2.265,3.33,5.686,5.686,0,0,0,5.188-4.327l48.39-157.131a9.492,9.492,0,0,0-3.9-10.58Z" transform="translate(81.985 -19.437)" fill="#fff"/><path d="M322.6,339.576a16.152,16.152,0,0,1-7.929-1.858h0l-85.7-49.5a6.23,6.23,0,0,1-3.534-5.278,8.088,8.088,0,0,1,4.735-6.547l44.108-25.486a19.732,19.732,0,0,1,18.124-.7l85.634,49.477a6.185,6.185,0,0,1,3.534,5.278,8.088,8.088,0,0,1-4.735,6.547l-44.131,25.486A20.549,20.549,0,0,1,322.6,339.576Zm-38.173-88.715a18.554,18.554,0,0,0-8.9,2.266L231.4,278.613c-2.265,1.291-3.489,2.9-3.489,4.418a3.851,3.851,0,0,0,2.265,3.126l85.724,49.5a17.625,17.625,0,0,0,15.541-.68l44.153-25.486c2.265-1.291,3.489-2.9,3.489-4.531a3.9,3.9,0,0,0-2.265-3.126l-85.747-49.5a13.434,13.434,0,0,0-6.638-1.473Z" transform="translate(-29.615 166.396)" fill="#06033e" opacity="0.4"/><path d="M347.584,145.5l-13.23-7.657a3.4,3.4,0,0,1-1.473-3.806h0a1.948,1.948,0,0,1,2.968-1.223l13.321,7.612a3.466,3.466,0,0,1,1.473,3.806h0a1.971,1.971,0,0,1-3.058,1.269Z" transform="translate(106.184 19.815)" fill="#fff"/><path d="M365,155.594l-19.505-11.327a3.421,3.421,0,0,1-1.473-3.806h0a1.948,1.948,0,0,1,2.968-1.246l19.505,11.327a3.466,3.466,0,0,1,1.473,3.806h0A1.948,1.948,0,0,1,365,155.594Z" transform="translate(120.284 27.915)" fill="#fff"/><path d="M335.8,171.5l-13.23-7.657a3.466,3.466,0,0,1-1.473-3.806h0a1.948,1.948,0,0,1,2.968-1.223l13.23,7.634a3.466,3.466,0,0,1,1.473,3.806h0A1.971,1.971,0,0,1,335.8,171.5Z" transform="translate(91.284 52.716)" fill="#fff"/><path d="M351.707,180.7,332.2,169.375a3.421,3.421,0,0,1-1.473-3.806h0a1.948,1.948,0,0,1,2.968-1.223L353.2,175.673a3.466,3.466,0,0,1,1.472,3.806h0a1.948,1.948,0,0,1-2.968,1.223Z" transform="translate(103.466 59.714)" fill="#fff"/><path d="M327.3,139.253l-8.269-4.757a3.489,3.489,0,0,1-1.473-3.806h0a1.971,1.971,0,0,1,2.99-1.246l8.269,4.78a3.421,3.421,0,0,1,1.45,3.806h0a1.948,1.948,0,0,1-2.968,1.223Z" transform="translate(86.818 15.552)" fill="#fff"/><path d="M347.778,156.506l-25.26-14.522a3.466,3.466,0,0,1-1.473-3.806h0a1.971,1.971,0,0,1,2.99-1.223l25.237,14.567a3.443,3.443,0,0,1,1.472,3.806h0a1.971,1.971,0,0,1-2.968,1.178Z" transform="translate(91.22 25.054)" fill="#fff"/><path d="M328,156.054l-8.269-4.757a3.489,3.489,0,0,1-1.473-3.806h0a1.948,1.948,0,0,1,2.968-1.246l8.269,4.78a3.466,3.466,0,0,1,1.473,3.806h0A1.948,1.948,0,0,1,328,156.054Z" transform="translate(87.704 36.811)" fill="#fff"/><path d="M354.473,193.208l-22.065-12.732a3.466,3.466,0,0,1-1.473-3.806h0a1.948,1.948,0,0,1,2.968-1.246l22.088,12.754a3.466,3.466,0,0,1,1.473,3.806h0a1.971,1.971,0,0,1-2.99,1.223Z" transform="translate(103.736 73.737)" fill="#fff"/><path d="M322.258,163.705l-5.3-3.081a3.444,3.444,0,0,1-1.473-3.783h0a1.948,1.948,0,0,1,2.968-1.246l5.3,3.058a3.4,3.4,0,0,1,1.473,3.806h0a1.971,1.971,0,0,1-2.968,1.246Z" transform="translate(84.185 48.643)" fill="#fff"/><path d="M320.754,173.741l-6.57-3.806a3.4,3.4,0,0,1-1.473-3.806h0a1.948,1.948,0,0,1,2.968-1.223l6.592,3.783a3.489,3.489,0,0,1,1.472,3.806h0a1.971,1.971,0,0,1-2.99,1.246Z" transform="translate(80.66 60.423)" fill="#fff"/><path d="M338.1,183.75l-17.376-10.013a3.489,3.489,0,0,1-1.473-3.806h0a1.948,1.948,0,0,1,2.968-1.246L339.6,178.721a3.466,3.466,0,0,1,1.473,3.806h0a1.948,1.948,0,0,1-2.968,1.223Z" transform="translate(88.957 65.208)" fill="#fff"/><path d="M325.275,181.821l-12.505-7.227a3.4,3.4,0,0,1-1.45-3.783h0a1.948,1.948,0,0,1,2.968-1.246l12.483,7.2a3.466,3.466,0,0,1,1.473,3.806h0a1.948,1.948,0,0,1-2.968,1.246Z" transform="translate(78.903 66.321)" fill="#fff"/><path d="M354.988,193.519l-8.02-4.531a3.466,3.466,0,0,1-1.473-3.806h0a1.994,1.994,0,0,1,2.99-1.246l8.02,4.531a3.466,3.466,0,0,1,1.473,3.806h0a1.971,1.971,0,0,1-2.99,1.246Z" transform="translate(122.16 84.527)" fill="#fff"/><path d="M349.289,168.35,327.224,155.6a3.4,3.4,0,0,1-1.473-3.806h0a1.948,1.948,0,0,1,2.968-1.223L350.784,163.3a3.444,3.444,0,0,1,1.473,3.806h0a1.948,1.948,0,0,1-2.968,1.246Z" transform="translate(97.162 42.276)" fill="#fff"/><path d="M359.619,168.837l-38.513-22.224a3.444,3.444,0,0,1-1.473-3.783h0a1.971,1.971,0,0,1,2.99-1.246l38.513,22.2a3.489,3.489,0,0,1,1.473,3.806h0a1.971,1.971,0,0,1-2.99,1.246Z" transform="translate(89.437 30.915)" fill="#e8975b"/><path d="M340.413,168.649l-22.065-12.664a3.466,3.466,0,0,1-1.473-3.806h0a1.948,1.948,0,0,1,2.968-1.223l22.088,12.732a3.466,3.466,0,0,1,1.473,3.806h0a1.994,1.994,0,0,1-2.99,1.155Z" transform="translate(85.943 42.77)" fill="#e8975b"/><path d="M348.828,168.026l-8.02-4.531a3.466,3.466,0,0,1-1.473-3.806h0a1.948,1.948,0,0,1,2.968-1.223l8.02,4.531A3.4,3.4,0,0,1,351.8,166.8h0a1.971,1.971,0,0,1-2.968,1.223Z" transform="translate(114.365 52.273)" fill="#e8975b"/><path d="M406.936,179.738l-47.574-27.412a3.421,3.421,0,0,1-1.473-3.806h0a1.948,1.948,0,0,1,2.968-1.246l47.574,27.412a3.421,3.421,0,0,1,1.473,3.806h0a1.948,1.948,0,0,1-2.968,1.246Z" transform="translate(137.835 38.115)" fill="#e8975b"/><path d="M342.1,180.6,315.57,165.287a3.444,3.444,0,0,1-1.472-3.806h0a1.948,1.948,0,0,1,2.968-1.246l26.528,15.314a3.421,3.421,0,0,1,1.472,3.806h0A1.948,1.948,0,0,1,342.1,180.6Z" transform="translate(82.424 54.515)" fill="#f8359e"/><path d="M339.949,141.113l-19.528-11.327a3.421,3.421,0,0,1-1.45-3.806h0a1.948,1.948,0,0,1,2.968-1.223l19.505,11.327a3.466,3.466,0,0,1,1.473,3.806h0a1.948,1.948,0,0,1-2.968,1.223Z" transform="translate(88.582 9.615)" fill="#f8359e"/><path d="M329.15,189.492,306.5,176.466a3.489,3.489,0,0,1-1.473-3.806h0a1.971,1.971,0,0,1,2.99-1.246l22.654,13.049a3.466,3.466,0,0,1,1.473,3.806h0a1.948,1.948,0,0,1-2.99,1.223Z" transform="translate(70.95 68.663)" fill="#e8975b"/><path d="M387.866,155.986l-9.651-5.6a2.492,2.492,0,0,1-1.087-2.764h0a1.427,1.427,0,0,1,2.265-.906l9.673,5.573a2.537,2.537,0,0,1,1.065,2.786h0a1.427,1.427,0,0,1-2.265.906Z" transform="translate(162.229 37.446)" fill="#fff"/><path d="M396.058,160.686l-9.673-5.573a2.537,2.537,0,0,1-1.088-2.786h0a1.427,1.427,0,0,1,2.265-.906l9.673,5.573a2.537,2.537,0,0,1,1.087,2.786h0a1.427,1.427,0,0,1-2.266.906Z" transform="translate(172.569 43.394)" fill="#fff"/><path d="M404.161,165.355l-9.673-5.573A2.492,2.492,0,0,1,393.423,157h0a1.4,1.4,0,0,1,2.152-.906l9.673,5.573a2.537,2.537,0,0,1,1.087,2.786h0a1.427,1.427,0,0,1-2.175.906Z" transform="translate(182.838 49.372)" fill="#fff"/><path d="M402.918,164.671l-.294-.159a2.537,2.537,0,0,1-1.065-2.786h0a1.427,1.427,0,0,1,2.265-.906l.295.181a2.538,2.538,0,0,1,1.065,2.764h0a1.427,1.427,0,0,1-2.266.906Z" transform="translate(193.143 55.289)" fill="#f8359e"/></svg>