<svg width="22" height="30" viewBox="0 0 22 30" fill="none" xmlns="http://www.w3.org/2000/svg">
<path d="M10.7609 5.80768C8.06385 5.80768 5.86963 7.97876 5.86963 10.6474C5.86963 13.316 8.06385 15.4872 10.7609 15.4872C13.458 15.4872 15.6522 13.3161 15.6522 10.6474C15.6522 7.97882 13.458 5.80768 10.7609 5.80768ZM10.7609 13.5513C9.14267 13.5513 7.82613 12.2486 7.82613 10.6474C7.82613 9.04627 9.14267 7.74361 10.7609 7.74361C12.3792 7.74361 13.6957 9.04627 13.6957 10.6474C13.6957 12.2486 12.3792 13.5513 10.7609 13.5513Z" fill="white"/>
<path d="M10.7609 0C4.82736 0 0 4.77646 0 10.6474C0 14.7542 1.24406 16.3647 9.94751 29.2535C10.3344 29.8264 11.1867 29.8276 11.5743 29.2535C20.3238 16.3023 21.5218 14.7136 21.5218 10.6474C21.5218 4.77646 16.6945 0 10.7609 0ZM10.761 26.9739C2.94633 15.4093 1.95662 14.0046 1.95662 10.6474C1.95656 5.84391 5.90619 1.93587 10.7609 1.93587C15.6156 1.93587 19.5653 5.84385 19.5653 10.6474C19.5653 13.8882 18.8123 15.0552 10.761 26.9739Z" fill="white"/>
</svg>
