<?xml version="1.0" encoding="utf-8"?>
<!-- Generator: Adobe Illustrator 22.0.1, SVG Export Plug-In . SVG Version: 6.00 Build 0)  -->
<svg version="1.1" xmlns="http://www.w3.org/2000/svg" xmlns:xlink="http://www.w3.org/1999/xlink" x="0px" y="0px"
	 viewBox="0 0 750 500" style="enable-background:new 0 0 750 500;" xml:space="preserve">
<style type="text/css">
	.st0{fill:#F5F5F5;}
	.st1{fill:#E0E0E0;}
	.st2{fill:#EBEBEB;}
	.st3{display:none;}
	.st4{display:inline;fill:#EBEBEB;}
	.st5{fill:#263238;}
	.st6{fill:#455A64;}
	.st7{fill:#E8505B;}
	.st8{opacity:0.3;}
	.st9{fill:#FAFAFA;}
	.st10{fill:#FFBE9D;}
	.st11{fill:#EB996E;}
	.st12{opacity:0.4;}
	.st13{fill:#FFFFFF;}
	.st14{opacity:0.2;}
	.st15{clip-path:url(#SVGID_2_);}
</style>
<g id="Background_Complete">
	<g>
		<g>
			<path class="st0" d="M76.7,139.2c0,0-11.6,4.4,1.1,29.2c12.8,24.8,21.6,37.1,21.6,37.1s2.3,5.8-2.6,6.7
				c-4.8,0.9-15.5-0.8-17.7,5.2c-2.2,6.2,2.3,12,11.4,17c9.1,5.1,28.6,16.9,30.3,18c1.7,1.1,3.5,3.7,0.3,4.9
				c-3.2,1.2-27.2,3.7-25.3,15.1c1.9,11.3,29.5,21.3,32.5,22.4c3,1.1,3.7,2.4,3.5,4.1c-0.2,1.6-8.4,1.8-15.2,2.8
				c-6.8,1-14.5,3.4-12.9,9.8c1.7,6.4,18,19.9,57.8,23.7l18.5,0.5l10-15.7c19.4-34.9,17.6-56,13.2-61c-4.4-5-10.7,0-15.4,5
				c-4.7,5-9.4,11.7-10.9,11c-1.5-0.7-2.1-2-1.4-5.2c0.8-3.1,8.2-31.5,0-39.5c-8.3-8-24,10.3-26.8,12.3c-2.8,2-4-1-3.9-3
				c0.1-2.1,1.4-24.8,2.4-35.2c1-10.4-1.3-17.3-7.6-19c-6.1-1.6-10.8,8.2-14.3,11.6c-3.5,3.5-7-1.7-7-1.7s-5.1-14.2-18.3-38.8
				c-13.2-24.6-23.7-17.2-23.7-17.2"/>
		</g>
		<g>
			<g>
				<path class="st1" d="M181,340c-9.6-18.1-26.2-50.5-40.6-78.2c-14.4-27.7-27.4-52.8-36.9-71c-4.8-9-8.6-16.4-11.3-21.4
					c-1.3-2.5-2.4-4.5-3.1-5.8c-0.3-0.7-0.6-1.2-0.8-1.5c-0.2-0.3-0.3-0.5-0.3-0.5s0.1,0.2,0.3,0.5c0.2,0.4,0.5,0.9,0.8,1.5
					c0.7,1.3,1.8,3.3,3.2,5.8c2.7,5,6.7,12.3,11.5,21.4c9.6,18.1,22.7,43.1,37.1,70.9c14.4,27.7,30.9,60.2,40.4,78.3"/>
			</g>
		</g>
		<g>
			<g>
				<path class="st1" d="M94,220.3c0,0,0.5,0.1,1.3,0.4c0.8,0.3,2,0.7,3.4,1.2c2.9,1.1,6.9,2.6,11.2,4.4c4.3,1.8,8.1,3.4,11.1,4.6
					c1.3,0.5,2.5,1,3.4,1.4c0.8,0.3,1.2,0.5,1.2,0.6c0,0-0.5-0.1-1.3-0.3c-0.8-0.3-2-0.7-3.4-1.2c-2.9-1.1-6.8-2.7-11.2-4.5
					c-4.3-1.8-8.2-3.3-11.1-4.5c-1.3-0.5-2.5-1-3.4-1.4C94.4,220.5,94,220.3,94,220.3z"/>
			</g>
		</g>
		<g>
			<g>
				<path class="st1" d="M126.8,231.6c-0.1-0.1,2.7-8.4,6.3-18.5c3.7-10.2,6.7-18.4,6.9-18.4c0.1,0.1-2.7,8.4-6.3,18.5
					C130.1,223.5,127,231.7,126.8,231.6z"/>
			</g>
		</g>
		<g>
			<g>
				<path class="st1" d="M147,275.2c0,0,0.2-0.4,0.7-1.1c0.6-0.8,1.3-1.8,2.2-3c1.8-2.5,4.4-6.1,7-10.1c2.7-4,4.9-7.7,6.6-10.4
					c0.8-1.3,1.4-2.3,1.9-3.2c0.5-0.7,0.7-1.2,0.8-1.1c0,0-0.2,0.5-0.6,1.2c-0.4,0.8-1,1.9-1.8,3.3c-1.5,2.7-3.8,6.5-6.4,10.5
					c-2.7,4-5.2,7.5-7.2,10c-1,1.2-1.8,2.2-2.3,2.9C147.3,274.9,147,275.2,147,275.2z"/>
			</g>
		</g>
		<g>
			<g>
				<path class="st1" d="M115,271.5c0,0,0.5,0,1.3,0c0.9,0.1,2.1,0.2,3.4,0.3c2.9,0.2,6.9,0.6,11.3,1.1c4.4,0.5,8.4,0.9,11.3,1.2
					c1.3,0.2,2.5,0.3,3.4,0.4c0.8,0.1,1.2,0.2,1.2,0.2c0,0-0.5,0-1.3,0c-0.9-0.1-2.1-0.2-3.4-0.3c-2.9-0.2-6.9-0.6-11.3-1.1
					c-4.4-0.5-8.4-0.9-11.3-1.2c-1.3-0.2-2.5-0.3-3.4-0.4C115.4,271.6,115,271.6,115,271.5z"/>
			</g>
		</g>
		<g>
			<g>
				<path class="st1" d="M127.9,312.3c0,0,0.6,0,1.6,0c1.1,0.1,2.6,0.2,4.4,0.3c3.7,0.3,8.8,0.7,14.5,1.3c5.7,0.5,10.8,1,14.5,1.4
					c1.8,0.2,3.2,0.4,4.4,0.5c1,0.1,1.6,0.2,1.6,0.3c0,0-0.6,0-1.6,0c-1.1-0.1-2.6-0.2-4.4-0.3c-3.7-0.3-8.8-0.7-14.5-1.3
					c-5.6-0.5-10.8-1-14.5-1.4c-1.8-0.2-3.2-0.4-4.4-0.5C128.5,312.4,127.9,312.3,127.9,312.3z"/>
			</g>
		</g>
		<g>
			<g>
				<path class="st1" d="M167.9,315.7c0,0,0.3-0.5,0.9-1.5c0.7-1,1.6-2.3,2.6-3.9c2.2-3.3,5.3-7.9,8.5-13c3.2-5.1,6-9.9,8-13.3
					c1-1.7,1.8-3,2.4-4.1c0.6-1,0.9-1.5,0.9-1.5c0,0-0.2,0.6-0.7,1.6c-0.5,1-1.3,2.4-2.2,4.2c-1.9,3.5-4.7,8.3-7.9,13.4
					c-3.2,5.2-6.3,9.7-8.6,13c-1.2,1.6-2.1,2.9-2.8,3.8C168.3,315.2,167.9,315.7,167.9,315.7z"/>
			</g>
		</g>
	</g>
	<g>
		<g>
			<g>
				<g>
					<g>
						<path class="st0" d="M523.7,373.8c-26.7-17.4-33.7-51.1-33.6-81.6c0-5.1-0.7-10.4,1.6-15c2.3-4.5,7.8-7.8,12.4-5.8
							c3.8,1.7,5.6,6,7.8,9.6c3,4.7,7.3,8.6,12.3,11c3.3,1.6,7.3,2.5,10.5,0.6c4.3-2.6,4.6-8.6,4.4-13.7c-0.4-9.4-0.7-18.8-1.1-28.2
							c-0.2-5.1-0.4-10.2,1.1-15.1c1.4-4.8,4.8-9.4,9.5-10.9c4.8-1.5,10.8,1.1,12,6c0.5,2,0.1,4.2,0.3,6.3c0.2,2.1,1.3,4.4,3.3,4.9
							c2,0.5,4-1,5.5-2.5c5.1-5.3,8.4-11.9,11.5-18.6c3.1-6.6,6.1-13.4,10.7-19.1c4.6-5.7,11-10.3,18.2-11
							c7.2-0.6,15.1,3.6,17.1,10.6c2.1,7.1-1.9,14.4-6.2,20.3c-6.4,8.8-14.1,16.6-22.8,23.1c-1.6,1.2-3.2,2.5-3.8,4.3
							c-1,3.4,2.3,6.6,5.7,7.7c3.8,1.1,7.9,0.6,11.8,1c4,0.3,8.3,1.9,9.9,5.6c2.2,5.1-1.9,10.6-6.1,14.3
							c-8.3,7.4-17.8,13.3-28.1,17.4c-3.7,1.5-7.5,2.8-10.5,5.5c-2.9,2.7-4.6,7.3-2.7,10.8c1.9,3.5,6.6,4.5,10.5,3.7
							c3.9-0.8,7.3-3.1,11-4.6c6.9-2.8,15.8-2.6,20.5,3.2c3,3.9,3.5,9.3,2.1,14.1c-1.3,4.7-4.2,8.9-7.3,12.7
							c-10.7,13.4-24.6,24.4-40.6,30.4C554.8,377.2,539.9,379.2,523.7,373.8"/>
					</g>
				</g>
			</g>
		</g>
		<g>
			<g>
				<g>
					<g>
						<g>
							<path class="st1" d="M531,354.5c4-15.5,9.8-32.1,16.5-49.3c1.7-4.3,3.3-8.5,5-12.7c1.6-4.2,3.3-8.3,5.1-12.2
								c3.7-7.9,7.8-15.2,11.9-22c4.1-6.8,8.3-13.2,12.2-19c3.9-5.9,7.7-11.3,11.4-16.1c7.3-9.6,14.1-16.6,18.9-21.3
								c2.4-2.3,4.4-4.1,5.7-5.2c0.6-0.6,1.1-1,1.5-1.3c0.3-0.3,0.5-0.4,0.5-0.4c0,0-0.1,0.2-0.5,0.5c-0.4,0.3-0.8,0.8-1.5,1.4
								c-1.3,1.2-3.2,3-5.6,5.4c-4.8,4.7-11.5,11.8-18.7,21.4c-3.6,4.8-7.4,10.2-11.3,16.1c-3.9,5.9-8,12.2-12.1,19.1
								c-4.1,6.8-8.2,14.1-11.8,22c-1.8,3.9-3.4,8-5.1,12.2c-1.6,4.2-3.3,8.4-5,12.7c-6.7,17.2-12.5,33.7-16.5,49.2"/>
						</g>
					</g>
				</g>
			</g>
		</g>
		<g>
			<g>
				<g>
					<g>
						<g>
							<path class="st1" d="M557.8,280.2c-0.1,0-0.3-0.8-0.6-2.1c-0.3-1.4-0.7-3.4-1.1-5.9c-0.9-5-1.8-12-2.9-19.6
								c-1-7.7-2.1-14.6-3-19.6c-0.5-2.5-0.9-4.5-1.2-5.9c-0.3-1.4-0.4-2.2-0.4-2.2c0.1,0,0.3,0.7,0.7,2.1c0.4,1.4,0.9,3.4,1.4,5.8
								c1.1,5,2.3,11.9,3.3,19.6c1,7.6,1.9,14.4,2.6,19.7c0.3,2.4,0.6,4.4,0.8,6C557.8,279.4,557.8,280.2,557.8,280.2z"/>
						</g>
					</g>
				</g>
			</g>
		</g>
		<g>
			<g>
				<g>
					<g>
						<g>
							<path class="st1" d="M622.4,266c0,0.1-0.9,0.2-2.6,0.4c-1.7,0.2-4.1,0.5-7,0.9c-5.9,0.8-14.1,2.3-23,4.2
								c-8.9,2-16.9,4.1-22.7,5.8c-2.9,0.8-5.2,1.6-6.8,2.1c-1.6,0.5-2.5,0.8-2.5,0.7c0-0.1,0.8-0.4,2.4-1c1.6-0.6,3.9-1.4,6.7-2.4
								c5.7-1.9,13.7-4.1,22.7-6.1c9-2,17.2-3.3,23.1-4c3-0.4,5.4-0.5,7.1-0.6C621.4,266,622.4,266,622.4,266z"/>
						</g>
					</g>
				</g>
			</g>
		</g>
		<g>
			<g>
				<g>
					<g>
						<g>
							<path class="st1" d="M531.7,353.3c0,0-0.2-0.3-0.5-0.8c-0.3-0.6-0.7-1.4-1.2-2.3c-1-2-2.4-5-4.1-8.6
								c-3.4-7.3-7.7-17.6-12.3-29.1c-4.6-11.4-8.9-21.7-12.1-29.1c-1.6-3.6-2.9-6.6-3.8-8.8c-0.4-1-0.7-1.7-1-2.4
								c-0.2-0.5-0.3-0.8-0.3-0.9c0,0,0.2,0.3,0.5,0.8c0.3,0.6,0.7,1.4,1.2,2.3c1,2,2.4,5,4.1,8.6c3.4,7.3,7.7,17.6,12.3,29.1
								c4.6,11.4,8.9,21.7,12.1,29.1c1.6,3.6,2.9,6.6,3.8,8.8c0.4,1,0.8,1.7,1,2.4C531.7,353,531.8,353.3,531.7,353.3z"/>
						</g>
					</g>
				</g>
			</g>
		</g>
		<g>
			<g>
				<g>
					<g>
						<g>
							<path class="st1" d="M617.2,322.8c0,0-0.3,0.2-0.8,0.4c-0.7,0.2-1.5,0.6-2.5,0.9c-2.3,0.8-5.4,1.9-9.2,3.3
								c-7.7,2.8-18.4,6.7-30.1,11.1c-11.7,4.4-22.4,8.2-30.2,10.9c-3.9,1.3-7.1,2.3-9.3,3c-1,0.3-1.9,0.5-2.5,0.8
								c-0.6,0.2-0.9,0.2-0.9,0.2c0,0,0.3-0.2,0.8-0.4c0.7-0.2,1.5-0.5,2.5-0.9c2.3-0.8,5.4-1.9,9.1-3.3c7.7-2.8,18.4-6.7,30.1-11.1
								c11.7-4.4,22.4-8.2,30.2-10.9c3.9-1.3,7.1-2.3,9.3-3c1-0.3,1.9-0.6,2.5-0.8C616.9,322.8,617.2,322.7,617.2,322.8z"/>
						</g>
					</g>
				</g>
			</g>
		</g>
	</g>
	<g>
		<path class="st2" d="M151.6,97.5c0.8-5.9-7.5-10.7-13.7-11.2c-3-0.2-6,0.2-8.8-0.8c-6.1-2.1-8.5-10-14.4-12.5
			c-4.4-1.9-9.5-0.2-13.8,2c-4.3,2.2-8.5,4.9-13.4,5.2c-4.2,0.3-8.7-1.3-12.4,0.8c-2.7,1.5-4.2,4.7-6.7,6.5
			c-2.5,1.8-5.7,2.2-8.7,2.4c-3,0.2-6.2,0.2-9,1.5c-2.8,1.3-5.1,4.2-4.5,7.2L151.6,97.5z"/>
	</g>
	<g>
		<path class="st0" d="M564.8,151.2c0.8-6.1-7.7-11-14.1-11.6c-3.1-0.2-6.2,0.2-9.2-0.8c-6.3-2.2-8.8-10.3-14.9-12.9
			c-4.6-1.9-9.9-0.2-14.3,2c-4.4,2.2-8.8,5.1-13.8,5.4c-4.3,0.3-9-1.3-12.8,0.8c-2.8,1.6-4.3,4.8-6.9,6.7c-2.5,1.9-5.9,2.3-9,2.4
			c-3.2,0.2-6.4,0.2-9.3,1.5c-2.9,1.3-5.2,4.4-4.7,7.5L564.8,151.2z"/>
	</g>
	<g>
		<path class="st0" d="M693.2,177.8c0.5-3.7-4.8-6.8-8.7-7.1c-1.9-0.2-3.8,0.1-5.6-0.5c-3.9-1.4-5.4-6.4-9.2-7.9
			c-2.8-1.2-6.1-0.1-8.8,1.2c-2.7,1.4-5.4,3.1-8.5,3.3c-2.7,0.2-5.6-0.8-7.9,0.5c-1.7,1-2.6,3-4.2,4.1c-1.6,1.2-3.6,1.4-5.5,1.5
			c-1.9,0.1-4,0.1-5.7,0.9c-1.8,0.8-3.2,2.7-2.9,4.6L693.2,177.8z"/>
	</g>
	<g>
		<path class="st2" d="M673.9,92.5c0.9-6.8-8.7-12.4-15.9-13c-3.4-0.3-7,0.2-10.3-0.9c-7-2.5-9.9-11.6-16.7-14.5
			c-5.1-2.2-11.1-0.2-16,2.3c-5,2.5-9.9,5.7-15.5,6c-4.8,0.3-10.1-1.5-14.3,0.9c-3.2,1.8-4.8,5.4-7.7,7.6c-2.8,2.1-6.6,2.5-10.1,2.7
			c-3.5,0.2-7.2,0.2-10.4,1.7c-3.2,1.5-5.9,4.9-5.2,8.4L673.9,92.5z"/>
	</g>
</g>
<g id="Background_Simple" class="st3">
	<path class="st4" d="M607.4,158.1L607.4,158.1c-13.2-33.7-40.8-60.2-75.4-70.9c-12.9-4-26.5-6-40-5.6c-41.6,1.3-81.8,25-103.1,60.7
		c-12.5,21-19.5,46.5-38.9,61.5c-25.1,19.5-60.9,13.9-92,7.3c-31.1-6.6-66.9-12.1-92,7.5c-15.7,12.3-31.6,37.9-37.1,57.1
		C111.7,335.8,151,389.3,191.5,422c41,33.2,109.6,28.6,162.3,27.6c73.9-1.4,148.8-28.3,200.3-81.2c49.3-50.6,74.4-126.2,58.1-194.7
		C611.1,168.4,609.4,163.2,607.4,158.1z"/>
</g>
<g id="Character">
	<g>
		<g>
			<path class="st5" d="M279.7,117.5c2.8-1.2,5.7,1.3,7.2,3.9c1.5,2.6,2.7,5.7,5.4,6.9c2.1,0.9,4.6,0.4,6.9,0.5
				c7.2,0.3,12.7,6.5,15.9,12.9c2,4,3.5,8.6,2.1,12.8c-1.2,3.7-4.3,6.5-7.6,8.7c-6.6,4.3-14.5,6.8-22.3,6.3
				c-7.9-0.4-15.6-4-20.6-10.1c-3.8-4.7-5.9-10.7-6.8-16.7c-0.9-6-0.7-12.1-0.5-18.2"/>
			<g>
				<path class="st6" d="M310.6,149c0,0,0-0.6-0.1-1.8c-0.1-1.1-0.4-2.8-1.3-4.6c-0.9-1.8-2.4-3.8-4.5-5.4c-2.1-1.6-4.9-2.8-8-3.4
					c-3.1-0.5-6.1-0.3-8.8-0.9c-2.7-0.5-4.9-2-6.5-3.3c-1.6-1.4-2.6-2.7-3.3-3.7c-0.3-0.5-0.6-0.8-0.7-1.1c-0.2-0.3-0.2-0.4-0.2-0.4
					c0,0,0.4,0.5,1.1,1.4c0.7,0.9,1.8,2.2,3.3,3.5c1.5,1.3,3.7,2.7,6.3,3.1c2.6,0.5,5.7,0.3,8.8,0.8c3.1,0.6,6,1.8,8.2,3.5
					c2.2,1.7,3.7,3.8,4.6,5.7c0.9,1.9,1.1,3.6,1.2,4.8c0,0.6,0,1,0,1.3C310.7,148.8,310.6,149,310.6,149z"/>
			</g>
		</g>
		<g>
			<path class="st7" d="M338.5,135.9l-10.5,39.4l-21.4-23c-9.8-6.4-21.5-9.6-33.2-9l0,0l-33.3-1.5l-18.4,6.6
				c-4.4,1.6-8.7,3.7-12.7,6.2l-35.8,24.7c-7.6,5.5-13.8,9.6-15.2,18c-1.9,11,3.7,23.3,15.2,25.4l50.6,0.6l1.6,32l79.6-7.5
				l-2.1-48.3c16.2,12.5,23.9,17.4,36.1,15c4.1-0.8,9.9-5.1,11.8-11.4c6.7-22.6,7.9-58.2,7.9-58.2L338.5,135.9z M213.7,192.5
				l4.6-1.3l0.3,1.7L213.7,192.5z"/>
			<g>
				<path class="st5" d="M172.5,222.6c0,0,0.1,0,0.4,0c0.3,0,0.7,0,1.3,0c1.1,0,2.8,0,4.8,0c4.2,0,10.3,0,17.8,0c15,0,35.8,0,58.9,0
					l-0.3,0.2c0-0.6,0.1-1.2,0.1-1.8c0.4-7.9,0.7-15.6,1.1-22.8l0.2,0.3c-17.9-1.7-33.3-4.2-44.2-5.6c-5.5-0.7-9.9-1.2-12.9-1.5
					c-1.5-0.2-2.6-0.3-3.4-0.4c-0.4,0-0.7-0.1-0.9-0.1c-0.2,0-0.3,0-0.3-0.1c0,0,0.1,0,0.3,0c0.2,0,0.5,0,0.9,0.1
					c0.8,0.1,2,0.2,3.5,0.3c3,0.3,7.4,0.7,12.9,1.4c11,1.3,26.3,3.8,44.2,5.5l0.2,0l0,0.2c-0.3,7.1-0.7,14.8-1,22.8
					c0,0.6-0.1,1.2-0.1,1.8l0,0.2l-0.2,0c-23-0.1-43.8-0.1-58.9-0.2c-7.5,0-13.6-0.1-17.8-0.1c-2.1,0-3.7,0-4.8-0.1
					c-0.5,0-0.9,0-1.3,0C172.7,222.7,172.5,222.7,172.5,222.6z"/>
			</g>
			<g>
				<path class="st5" d="M173.5,188.5c0,0,0.3-0.2,0.8-0.4c0.5-0.2,1.3-0.5,2.3-0.8c2-0.5,4.9-0.9,8.1-0.6c3.2,0.3,6,1.3,7.8,2.2
					c0.9,0.5,1.7,0.9,2.1,1.2c0.5,0.3,0.7,0.5,0.7,0.6c-0.1,0.1-1.1-0.6-3-1.4c-1.9-0.8-4.6-1.7-7.7-2c-3.1-0.3-6,0-8,0.4
					C174.8,188.1,173.6,188.5,173.5,188.5z"/>
			</g>
			<g>
				<path class="st5" d="M184.6,179.3c0-0.1,0.9,0.4,2.2,1.2c1.3,0.8,3,2,4.8,3.5c1.7,1.5,3.3,3,4,4.4c0.3,0.7,0.4,1.4,0.4,1.8
					c0,0.4-0.1,0.7-0.1,0.7c-0.1,0,0.1-1-0.6-2.3c-0.7-1.3-2.3-2.7-4-4.2c-1.7-1.5-3.4-2.7-4.7-3.6
					C185.3,179.8,184.5,179.3,184.6,179.3z"/>
			</g>
			<g>
				<path class="st5" d="M219,193c-0.1,0-0.4-1.2-0.9-3.1c-0.5-1.9-1.2-4.6-2-7.6c-0.8-2.9-1.7-5.6-2.3-7.5c-0.7-1.9-1.2-3-1.1-3.1
					c0,0,0.2,0.3,0.4,0.8c0.3,0.5,0.6,1.2,1,2.2c0.8,1.9,1.7,4.5,2.5,7.4c0.8,3,1.4,5.7,1.8,7.6C218.9,191.8,219.1,193,219,193z"/>
			</g>
			<g>
				<path class="st5" d="M303.9,221.9c-0.1,0-0.7-12-1.3-26.8c-0.6-14.8-0.9-26.9-0.8-26.9c0.1,0,0.7,12,1.3,26.8
					C303.7,209.9,304,221.9,303.9,221.9z"/>
			</g>
			<g class="st8">
				<path d="M302.3,173.8c0.8,5.2,3,10,4.8,14.9c1.7,4.9,3,10.3,1.9,15.4c-2-1.6-4-3.2-6-4.8"/>
			</g>
			<g>
				<path class="st5" d="M333.1,196.5c0,0-0.2-0.3-0.5-0.8c-0.3-0.5-0.6-1.2-1-2.2c-0.8-1.9-1.8-4.5-2.5-7.5c-0.7-3-1.1-5.8-1.2-7.8
					c-0.1-1-0.1-1.8-0.1-2.4c0-0.6,0-0.9,0.1-0.9c0.1,0,0.2,1.2,0.4,3.2c0.2,2,0.6,4.7,1.3,7.7c0.7,3,1.6,5.6,2.3,7.5
					C332.7,195.4,333.2,196.5,333.1,196.5z"/>
			</g>
			<polygon class="st8" points="214.1,175.1 215.4,192 218.3,191.2 			"/>
			<g>
				<path class="st9" d="M300.5,175c0,0-0.1,0-0.3-0.1c-0.2-0.1-0.4-0.2-0.7-0.4c-0.7-0.3-1.6-0.8-3-1.2c-2.6-0.8-6.7-1.6-11.5-0.6
					c-2.4,0.5-4.9,1.5-7.4,3c-2.5,1.5-5,3.3-7.7,5.1c-2.7,1.8-5.8,3.5-9.3,4.4c-3.5,0.9-7.3,1.1-11,0.5c-1.9-0.3-3.7-0.8-5.4-1.5
					c-1.7-0.7-3.4-1.5-4.9-2.5c-1.5-1-2.9-2.1-4.1-3.3c-1.2-1.2-2.3-2.5-3.3-3.8c-2-2.6-3.7-5.2-5.4-7.6c-1.7-2.3-3.5-4.4-5.3-6
					c-1.9-1.6-3.8-2.7-5.6-3.5c-1.8-0.7-3.5-1-4.8-1.1c-2.8-0.1-4.2,0.7-4.2,0.6c0,0,0.1,0,0.3-0.1c0.2-0.1,0.5-0.2,0.8-0.3
					c0.4-0.1,0.8-0.2,1.3-0.3c0.5,0,1.1-0.1,1.8-0.1c1.4,0,3.1,0.3,4.9,1c1.9,0.7,3.8,1.9,5.7,3.4c1.9,1.6,3.7,3.7,5.5,6
					c1.7,2.3,3.4,4.9,5.4,7.5c1,1.3,2.1,2.6,3.3,3.8c1.2,1.2,2.6,2.3,4,3.3c1.5,1,3.1,1.8,4.8,2.4c1.7,0.6,3.5,1.1,5.3,1.4
					c3.7,0.6,7.4,0.4,10.8-0.4c3.4-0.8,6.4-2.5,9.2-4.3c2.7-1.8,5.2-3.6,7.8-5.1c2.5-1.5,5.1-2.5,7.5-3c4.9-1,9-0.1,11.6,0.8
					c1.3,0.4,2.3,0.9,2.9,1.3c0.3,0.2,0.5,0.3,0.7,0.4C300.4,174.9,300.5,175,300.5,175z"/>
			</g>
			<g>
				<path class="st9" d="M320,166.8c0,0,0.1,0.4,0.1,1.2c0,0.8,0,2-0.3,3.4c-0.2,1.4-0.8,3.1-1.6,4.8c-0.8,1.7-2,3.5-3.3,5.2
					c-2.7,3.5-6.1,5.7-8.7,6.9c-1.3,0.6-2.4,1-3.2,1.2c-0.8,0.2-1.2,0.3-1.2,0.3c0-0.1,1.7-0.5,4.2-1.8c2.5-1.3,5.8-3.5,8.4-6.9
					c1.3-1.7,2.5-3.4,3.3-5.1c0.8-1.7,1.4-3.3,1.7-4.6C320,168.6,319.9,166.8,320,166.8z"/>
			</g>
			<g>
				<path class="st9" d="M332.1,214.6c0,0-0.1-0.1-0.4-0.2c-0.2-0.2-0.6-0.4-1-0.7c-0.9-0.6-2-1.7-3.2-3.3
					c-2.4-3.1-4.4-8.4-4.5-14.4c0-6,1.5-11.2,2.6-14.9c0.6-1.9,1.1-3.3,1.4-4.4c0.4-1,0.6-1.6,0.6-1.6c0,0-0.1,0.6-0.4,1.6
					c-0.3,1.1-0.8,2.6-1.3,4.4c-1,3.7-2.4,8.9-2.4,14.8c0,5.9,2,11,4.3,14.1C330,213.3,332.2,214.5,332.1,214.6z"/>
			</g>
			<g>
				<path class="st9" d="M355.7,169.8c0,0-0.3,0.2-1,0.5c-0.6,0.3-1.6,0.7-2.8,1.1c-2.4,0.9-5.8,1.8-9.7,1.6
					c-3.9-0.2-7.3-1.7-9.2-3.3c-1-0.8-1.7-1.6-2.1-2.1c-0.4-0.6-0.6-0.9-0.6-0.9c0.1-0.1,0.9,1.3,2.9,2.8c2,1.5,5.2,2.9,9,3.1
					c3.8,0.2,7.2-0.7,9.5-1.5C354.2,170.3,355.6,169.7,355.7,169.8z"/>
			</g>
			<g>
				<path class="st9" d="M206.9,191.8c-0.1,0-0.5-1.6-1.4-4c-0.9-2.5-2.5-5.8-4.7-9.1c-2.2-3.3-4.7-6-6.6-7.8
					c-1.9-1.8-3.2-2.8-3.2-2.9c0,0,0.4,0.2,1,0.6c0.6,0.4,1.4,1.1,2.4,2c2,1.7,4.5,4.4,6.8,7.8c2.2,3.4,3.7,6.8,4.6,9.3
					c0.4,1.3,0.7,2.3,0.9,3C206.9,191.4,206.9,191.8,206.9,191.8z"/>
			</g>
			<g>
				<path class="st9" d="M218.6,193.6c0,0-0.1,0.2-0.3,0.5c-0.2,0.3-0.5,0.8-0.9,1.4c-0.9,1.2-2.5,2.7-4.9,4
					c-2.3,1.3-5.4,2.3-8.8,2.9c-3.5,0.6-7.3,0.8-11.3,1.5c-2,0.3-3.9,0.8-5.7,1.4c-1.8,0.6-3.4,1.4-4.8,2.4
					c-2.9,1.9-5.1,4.2-6.6,6.3c-1.5,2.1-2.4,4.1-2.9,5.5c-0.5,1.4-0.7,2.2-0.8,2.2c0,0,0-0.2,0.1-0.6c0.1-0.4,0.2-0.9,0.5-1.6
					c0.5-1.4,1.3-3.4,2.8-5.6c1.5-2.2,3.7-4.6,6.6-6.5c1.5-1,3.1-1.8,4.9-2.5c1.8-0.7,3.7-1.1,5.7-1.4c4-0.6,7.8-0.9,11.3-1.4
					c3.4-0.6,6.4-1.5,8.7-2.7c2.3-1.2,3.9-2.7,4.9-3.8C218.1,194.3,218.5,193.5,218.6,193.6z"/>
			</g>
			<g>
				<path class="st9" d="M239.9,196.3c0,0,0.2,0.3,0.3,1c0.2,0.6,0.4,1.6,0.6,2.8c0.2,1.2,0.3,2.6,0.3,4.2c0,1.6-0.2,3.3-0.6,5.1
					c-0.4,1.8-1,3.5-1.6,4.9c-0.6,1.5-1.3,2.7-2,3.7c-0.7,1-1.2,1.8-1.7,2.3c-0.4,0.5-0.7,0.8-0.7,0.7c-0.1-0.1,0.9-1.2,2.1-3.2
					c0.6-1,1.3-2.3,1.9-3.7c0.6-1.5,1.1-3.1,1.5-4.8c0.4-1.8,0.6-3.5,0.6-5c0-1.6,0-3-0.1-4.2C240.2,197.8,239.8,196.3,239.9,196.3z
					"/>
			</g>
			<g>
				<path class="st9" d="M302.2,211.5c-0.1,0.2-2.9-1.5-6.7-1.9c-3.9-0.5-7,0.5-7,0.3c0-0.1,0.7-0.4,2-0.6c1.3-0.3,3.1-0.4,5.1-0.2
					c2,0.2,3.7,0.8,4.9,1.4C301.6,210.9,302.3,211.4,302.2,211.5z"/>
			</g>
		</g>
		<g>
			<polygon class="st10" points="348.9,111.1 338.8,136.1 357.8,144.6 362.6,123.3 			"/>
			<path class="st6" d="M370.6,135.8l-17-21.1l0,0c-3.4-4.7-8.9-12.4-9.1-13c-0.4-1-0.5-7.8-0.3-9.6s-0.4-6.6-0.4-6.6l-14,5.3
				L326.7,80l-1.9,0.6c0,0-5.1,8.8-3.5,13.8c1.6,5,8.2,7.2,9.8,8.3c1.6,1,7.9,3.7,14.9,14.3l1.1,1.6l0,0l0,0l2.8,4.1l0,0l13,18.7
				c1.5,2.1,4.4,2.6,6.5,1.1C371.7,141,372.2,137.9,370.6,135.8z"/>
			<g>
				<g>
					<g>
						<g>
							<g>
								<g>
									<path class="st6" d="M337.2,87.9l-3.7-10.3l1.3-0.4c0,0,6.5,3.9,7.8,8.7L337.2,87.9z"/>
								</g>
							</g>
						</g>
						<g>
							<g>
								<g>
									<g>
										<path class="st5" d="M333.3,101.5c0,0,0.1,0,0.2-0.1c0.1-0.1,0.3-0.1,0.4-0.2c0.4-0.2,0.9-0.4,1.7-0.7
											c1.4-0.7,3.5-1.6,6-2.7l-0.1-0.1c0,0.6,0,1.2,0,1.8c0.1,0.6,0.1,1.3,0.4,1.9c0.7,1.2,1.5,2.3,2.4,3.6
											c1.7,2.5,3.7,5.1,5.7,7.9c0.3,0.4,0.5,0.7,0.6,1.2c0.1,0.4,0,0.9-0.2,1.2c-0.4,0.8-1.3,1.2-2.1,1c-0.4-0.1-0.8-0.3-1-0.6
											c-0.3-0.3-0.5-0.7-0.8-1c-0.5-0.7-1-1.3-1.5-2c-1.9-2.6-3.6-4.9-5.1-6.8c-0.4-0.5-0.8-0.9-1.3-1.2
											c-0.4-0.3-0.9-0.6-1.3-0.9c-0.8-0.5-1.5-0.9-2.1-1.3c-0.6-0.3-1.1-0.6-1.4-0.7c-0.1-0.1-0.3-0.1-0.4-0.2
											C333.3,101.5,333.3,101.5,333.3,101.5c0,0,0,0,0.1,0.1c0.1,0.1,0.2,0.1,0.4,0.2c0.3,0.2,0.8,0.5,1.3,0.8
											c0.6,0.3,1.3,0.8,2.1,1.3c0.4,0.3,0.8,0.6,1.3,0.9c0.4,0.3,0.9,0.7,1.2,1.2c1.4,2,3.1,4.3,5,6.9c0.5,0.6,1,1.3,1.5,2
											c0.3,0.3,0.5,0.7,0.8,1c0.3,0.3,0.7,0.6,1.2,0.7c0.9,0.2,1.9-0.2,2.4-1.1c0.2-0.4,0.3-0.9,0.2-1.4
											c-0.1-0.5-0.4-0.9-0.6-1.3c-2-2.8-4-5.4-5.7-7.9c-0.9-1.2-1.7-2.4-2.4-3.5c-0.3-0.6-0.4-1.2-0.4-1.9c0-0.6-0.1-1.2,0-1.8
											l0-0.2l-0.2,0.1c-2.5,1.2-4.5,2.2-6,2.9c-0.7,0.3-1.2,0.6-1.6,0.8c-0.2,0.1-0.3,0.1-0.4,0.2
											C333.3,101.5,333.3,101.5,333.3,101.5z"/>
									</g>
								</g>
							</g>
						</g>
					</g>
					<g>
						<g class="st8">
							<g>
								<g>
									<polygon points="332,96.5 338.3,94.2 338.2,90.7 331.9,93.1 									"/>
								</g>
							</g>
						</g>
						<g>
							<g>
								<g>
									<g>
										<path class="st5" d="M336.9,90.5c-0.2,0-0.3,1.2-0.2,2.6c0,1.4,0.2,2.6,0.3,2.6c0.2,0,0.3-1.2,0.2-2.6
											C337.2,91.6,337.1,90.5,336.9,90.5z"/>
									</g>
								</g>
							</g>
						</g>
						<g>
							<g>
								<g>
									<g>
										<path class="st5" d="M335,91.2c-0.2,0-0.3,1.2-0.2,2.6c0,1.4,0.2,2.6,0.3,2.6c0.2,0,0.3-1.2,0.2-2.6
											C335.3,92.3,335.2,91.2,335,91.2z"/>
									</g>
								</g>
							</g>
						</g>
						<g>
							<g>
								<g>
									<g>
										<path class="st5" d="M333.2,91.6c-0.2,0-0.3,1.2-0.2,2.6c0,1.4,0.2,2.6,0.3,2.6c0.2,0,0.3-1.2,0.2-2.6
											C333.5,92.8,333.3,91.6,333.2,91.6z"/>
									</g>
								</g>
							</g>
						</g>
					</g>
				</g>
			</g>
			<path class="st10" d="M339.5,134.5l0.7-4.9l0.5-13l-0.5-9.1c0,0,3,0.2,4.7,4.1c1.6,4,1.7,9.9,1.7,9.9s12.7,5,8.2,17"/>
			<g>
				<path class="st10" d="M356.7,114.7c0.1-1,0-2.1-0.6-2.9c-0.6-1-1.7-1.6-2.8-1.8s-2-0.2-3.1,0l2.4,3.3c-0.5,2.3-0.8,3.8-1.1,6.1
					c-0.1,1.1-0.1,2.4,0.8,2.9c0.7,0.4,1.8,0.1,2.3-0.5c0.6-0.6,0.8-1.5,1.1-2.3C356.1,117.8,356.6,116.3,356.7,114.7z"/>
				<path class="st10" d="M360.2,118.5c0.1-1,0-2.1-0.6-2.9c-0.6-1-1.7-1.6-2.8-1.8c-1.1-0.2-2-0.2-3.1,0l2.4,3.3
					c-0.5,2.3-0.8,3.8-1.1,6.1c-0.1,1.1-0.1,2.4,0.8,2.9c0.7,0.4,1.8,0.1,2.3-0.5c0.6-0.6,0.8-1.5,1.1-2.3
					C359.7,121.7,360.2,120.1,360.2,118.5z"/>
				<path class="st10" d="M364,122.3c0.1-1,0-2.1-0.6-2.9c-0.6-1-1.7-1.6-2.8-1.8c-1.1-0.2-2-0.2-3.1,0l2.4,3.3
					c-0.5,2.3-0.8,3.8-1.1,6.1c-0.1,1.1-0.1,2.4,0.8,2.9c0.7,0.4,1.8,0.1,2.3-0.5c0.6-0.6,0.8-1.5,1.1-2.3
					C363.5,125.5,363.9,123.9,364,122.3z"/>
				<g>
					<path class="st11" d="M356.4,112.3c0.1,0,0.5,2,0.2,4.4c-0.3,2.5-1.3,4.3-1.4,4.2c-0.1-0.1,0.6-1.9,0.9-4.3
						C356.4,114.3,356.2,112.3,356.4,112.3z"/>
				</g>
				<g>
					<path class="st11" d="M360.2,117.5c0.1,0,0.5,1.8,0,3.9c-0.4,2.2-1.5,3.7-1.6,3.6c-0.1-0.1,0.7-1.6,1.1-3.7
						C360.2,119.3,360.1,117.5,360.2,117.5z"/>
				</g>
			</g>
			<g>
				<path class="st11" d="M345,112.3c0.1,0,0.3,1,0.5,2.6c0.3,1.7,0.7,4,1.1,6.8l-0.2-0.2c1.7,0.6,3.4,1.6,4.9,3
					c1.6,1.5,2.7,3.3,3.3,5c0.7,1.7,1,3.4,1,4.8c0,1.4-0.1,2.5-0.3,3.3c-0.2,0.8-0.3,1.2-0.3,1.2c-0.1,0,0.4-1.7,0.3-4.4
					c-0.1-1.4-0.4-3-1.1-4.6c-0.7-1.7-1.7-3.4-3.3-4.8c-1.4-1.4-3.1-2.3-4.7-2.9l-0.1,0l0-0.1c-0.4-2.8-0.7-5.1-0.9-6.8
					C345.1,113.3,345,112.3,345,112.3z"/>
			</g>
			<g>
				<path class="st5" d="M343.7,85.5c0,0-0.1,0-0.2,0.1c-0.2,0.1-0.4,0.2-0.6,0.2c-0.7,0.2-1.5,0.5-2.4,0.9c-2.1,0.8-4.8,1.8-7.8,3
					c-3,1.1-5.6,2.2-7.8,3c-0.9,0.3-1.7,0.6-2.4,0.9c-0.2,0.1-0.4,0.2-0.6,0.2c-0.1,0.1-0.2,0.1-0.2,0.1c0,0,0.1,0,0.2-0.1
					c0.2-0.1,0.4-0.2,0.6-0.3c0.7-0.3,1.4-0.6,2.3-0.9c2-0.8,4.7-1.9,7.7-3c3-1.2,5.8-2.2,7.8-2.9c1-0.4,1.8-0.6,2.4-0.8
					c0.2-0.1,0.5-0.1,0.7-0.2C343.6,85.5,343.7,85.4,343.7,85.5z"/>
			</g>
		</g>
		<g>
			<g>
				<g>
					<path class="st10" d="M256.8,201.8c0,0,12.5-3.4,14.6-3.5c1.6-0.1,11.1,1.5,15.4,2.3c1.7,0.3,2.9,1.8,2.7,3.5
						c0,0.1,0,0.2-0.1,0.3c-0.6,1.7-2.4,1.8-2.4,1.8s2.2,1,1.8,3.5c-0.3,2.5-3.4,2.5-3.4,2.5s0.2,0.2,0.4,0.4
						c1.4,1.9,0.1,4.5-2.2,4.7l-1.4,0.1c0,0,1.7,1,1.4,2.7c-0.5,3.2-7.9,2.7-7.9,2.7l-19.8-0.4L256.8,201.8z"/>
				</g>
				<g>
					<path class="st10" d="M285.8,196.5c-0.2,1.1-0.8,3.3-2.8,4l-10-1.9c0,0,7.9-1.4,9.1-2.6c0.4-0.4,1-0.9,1.6-1.2
						C284.8,194.4,286,195.4,285.8,196.5z"/>
				</g>
			</g>
			<g>
				<g>
					<path class="st11" d="M277.7,199.3c0,0.2,2,0.7,4.5,1c2.5,0.3,4.6,0.6,4.6,0.4c0-0.2-2-0.7-4.5-1
						C279.8,199.3,277.7,199.1,277.7,199.3z"/>
				</g>
			</g>
			<g>
				<g>
					<path class="st11" d="M279.1,205.2c0,0.2,1.7,0.8,3.9,1c2.2,0.3,4,0.1,4-0.1c0-0.2-1.8-0.3-3.9-0.6
						C280.9,205.3,279.2,205.1,279.1,205.2z"/>
				</g>
			</g>
			<g>
				<g>
					<path class="st11" d="M274.1,203.7c-0.2,0.1-0.1,0.6,0.5,1.1c0.5,0.5,1.1,0.5,1.1,0.3c0.1-0.2-0.3-0.5-0.7-0.8
						C274.6,204,274.3,203.7,274.1,203.7z"/>
				</g>
			</g>
			<g>
				<g>
					<path class="st11" d="M277,211.4c0,0.2,1.9,0.6,4.3,0.8c2.4,0.3,4.3,0.4,4.4,0.2s-1.9-0.6-4.3-0.8
						C279,211.3,277.1,211.2,277,211.4z"/>
				</g>
			</g>
			<g>
				<g>
					<path class="st11" d="M271.7,207.9c-0.1,0-0.3,0.1-0.4,0.5c-0.1,0.4-0.1,1,0.2,1.5c0.3,0.6,0.8,0.9,1.2,1c0.4,0.1,0.6,0,0.6,0
						c0-0.2-0.8-0.4-1.3-1.2C271.7,208.8,271.9,207.9,271.7,207.9z"/>
				</g>
			</g>
			<g>
				<g>
					<path class="st11" d="M274.6,217.4c0,0.2,1.8,0.4,3.9,0.4c2.2,0.1,3.9,0,3.9-0.2c0-0.2-1.8-0.4-3.9-0.4
						C276.3,217.1,274.6,217.2,274.6,217.4z"/>
				</g>
			</g>
			<g>
				<g>
					<path class="st11" d="M269.5,213.4c-0.1,0-0.2,0.2-0.3,0.6c-0.1,0.4,0,0.9,0.3,1.4c0.6,1,1.4,1.4,1.5,1.3
						c0.2-0.1-0.4-0.8-0.9-1.7C269.6,214.2,269.6,213.5,269.5,213.4z"/>
				</g>
			</g>
		</g>
		<g>
			<path class="st5" d="M217.9,103.3c-0.4-3.2-3.9-5.5-7.1-5c-3.2,0.5-5.8,3.2-6.6,6.3c-0.9,3.1-0.3,6.5,1,9.4
				c1,2.3,2.8,4.6,5.3,5.1c2.3,0.5,4.6-0.7,6.2-2.5c1.5-1.7,2.4-4,3.3-6.1L217.9,103.3z"/>
			<path class="st7" d="M221.9,102.6c-1-0.7-2.4-0.2-3.2,0.7c-0.8,0.9-1,2.2-1,3.4c-0.1,2,0.3,4,1.1,5.8c0.2,0.6,0.6,1.1,1.1,1.3
				c0.5,0.2,1.2-0.1,1.5-0.6c0.4-0.4,0.5-1,0.7-1.6c0.8-3.3,0.6-6.9-0.5-10.1"/>
			<g>
				<path class="st7" d="M278.6,87.2c5.6-2.8,8.9-5.6,8.4-7.9c-0.5-2.3-11.8-5.9-14.4-6.9c-6.2-2.3-12.2,3.2-22,5.2
					c-19.2,3.9-33.9,10.9-33,15.7c0.5,2.3,4.5,3.7,10.7,4.1"/>
			</g>
			<g class="st12">
				<path d="M275.2,87.6c5-2.4,8-5,7.4-7c-1.5-5.7-15.3-4.9-32.3-1.5c-17,3.4-30.1,9.6-29.2,13.9c0.4,2.1,4,3.3,9.5,3.6"/>
			</g>
			<g>
				<g>
					<g>
						<g>
							<g>
								<g>
									<g>
										<g>
											<g>
												<g>
													<g>
														<path class="st10" d="M230.7,94.8c-2.4-13.2,6.6-25.9,20.1-27.9c12.7-1.9,24.5,7,27.1,19.6c2.3,11,4.3,22.1,4.5,26.2
															c0.5,12.3-6.4,17.4-9.3,19c-0.6,0.4-2.5,0.8-3.2,1l0,0c0,0-0.1,0.1-0.1,0.1l3.5,13.9c1.7,9.2-3,17.7-12.1,19.5
															c-9.2,1.8-16.8-4.9-18.7-14L230.7,94.8z"/>
													</g>
													<g>
														<g>
															<g>
																<g>
																	<g>
																		<path class="st5" d="M274.1,94.1c0.2,1-0.4,2-1.5,2.3c-1,0.3-2.1-0.3-2.3-1.3c-0.2-1,0.4-2,1.5-2.3
																			C272.8,92.5,273.8,93.1,274.1,94.1z"/>
																	</g>
																</g>
															</g>
														</g>
														<g>
															<g>
																<g>
																	<g>
																		<g>
																			<path class="st5" d="M275.2,89.9c-0.2,0.3-1.9-0.5-3.9-0.1c-2.1,0.4-3.4,1.8-3.6,1.5c-0.1-0.1,0-0.6,0.6-1.2
																				c0.6-0.6,1.6-1.3,2.9-1.5c1.3-0.3,2.5,0,3.2,0.4C275,89.4,275.3,89.8,275.2,89.9z"/>
																		</g>
																	</g>
																</g>
															</g>
														</g>
													</g>
													<g>
														<g>
															<g>
																<g>
																	<g>
																		<path class="st5" d="M253.8,98.2c0.2,1-0.4,2-1.5,2.3c-1,0.3-2.1-0.3-2.3-1.3c-0.2-1,0.4-2,1.5-2.3
																			C252.5,96.6,253.6,97.1,253.8,98.2z"/>
																	</g>
																</g>
															</g>
														</g>
														<g>
															<g>
																<g>
																	<g>
																		<g>
																			<path class="st5" d="M255,94.4c-0.2,0.3-1.9-0.5-3.9-0.1c-2.1,0.4-3.4,1.8-3.6,1.5c-0.1-0.1,0-0.6,0.6-1.2
																				c0.6-0.6,1.6-1.3,2.8-1.5c1.3-0.3,2.5,0,3.2,0.4C254.8,93.8,255.1,94.2,255,94.4z"/>
																		</g>
																	</g>
																</g>
															</g>
														</g>
													</g>
													<g>
														<g>
															<g>
																<g>
																	<g>
																		<path class="st5" d="M265.5,108.2c0-0.1,1.2-0.6,3.2-1.3c0.5-0.2,1-0.4,1-0.7c0-0.4-0.3-0.9-0.7-1.5
																			c-0.8-1.2-1.5-2.4-2.4-3.7c-3.3-5.3-5.8-9.7-5.6-9.8c0.2-0.1,3.1,4,6.4,9.3c0.8,1.3,1.6,2.5,2.3,3.7
																			c0.3,0.6,0.8,1.2,0.7,2c-0.1,0.4-0.4,0.8-0.7,0.9c-0.3,0.2-0.6,0.2-0.9,0.3C266.9,108,265.6,108.3,265.5,108.2z"
																			/>
																	</g>
																</g>
															</g>
														</g>
													</g>
													<g>
														<g>
															<g>
																<g>
																	<path class="st11" d="M269.8,132.7c0,0-7.8,2.3-19-1.7c0,0,5.3,9.9,19.9,5.5L269.8,132.7z"/>
																</g>
															</g>
														</g>
													</g>
													<g>
														<g>
															<g>
																<g>
																	<path class="st11" d="M265.7,113.3c-0.9-0.8-2.3-1.1-3.6-0.7c-0.9,0.3-1.7,0.9-2.1,1.7c-0.4,0.8-0.3,1.9,0.3,2.5
																		c0.7,0.7,1.9,0.6,2.8,0.1c0.9-0.5,1.6-1.3,2.3-2.1c0.2-0.2,0.4-0.5,0.5-0.7c0.1-0.3,0.1-0.6-0.2-0.8"/>
																</g>
															</g>
														</g>
													</g>
													<g>
														<g>
															<g>
																<g>
																	<g>
																		<path class="st5" d="M259.8,110.8c0.3-0.1,0.8,2.1,3,3.4c2.2,1.2,4.6,0.5,4.6,0.8c0.1,0.1-0.4,0.5-1.4,0.8
																			c-1,0.2-2.5,0.2-3.9-0.5c-1.4-0.7-2.1-1.9-2.4-2.8C259.5,111.4,259.6,110.8,259.8,110.8z"/>
																	</g>
																</g>
															</g>
														</g>
													</g>
												</g>
											</g>
										</g>
										<g>
											<g>
												<g>
													<g>
														<path class="st5" d="M254.5,87.7c-0.1,0.6-2.2,0.7-4.6,1.5c-2.4,0.7-4.2,1.8-4.6,1.4c-0.2-0.2,0-0.8,0.7-1.5
															c0.7-0.7,1.8-1.5,3.2-1.9c1.4-0.5,2.8-0.5,3.7-0.3C253.9,87.1,254.5,87.4,254.5,87.7z"/>
													</g>
												</g>
											</g>
										</g>
										<g>
											<g>
												<g>
													<g>
														<path class="st5" d="M273.3,84.8c-0.3,0.5-1.8,0.3-3.5,0.7c-1.7,0.3-3.1,0.9-3.5,0.5c-0.2-0.2-0.1-0.7,0.5-1.3
															c0.5-0.6,1.5-1.1,2.7-1.3c1.2-0.2,2.3,0,3,0.4C273.2,84.1,273.5,84.5,273.3,84.8z"/>
													</g>
												</g>
											</g>
										</g>
									</g>
								</g>
							</g>
						</g>
					</g>
				</g>
			</g>
			<g>
				<path class="st5" d="M259.6,75.1c-1.5,3.6-4.8,6.5-8.6,7.6c-2.5,0.7-5.5,0.8-7,2.9c-1.1,1.5-1.1,3.5-1.4,5.4
					c-0.4,2.8,0.3,6.1-1.9,8c-1.7,1.5-3.3,1.4-4.3,3.4c-1.1,2.1-0.8,4.8-0.4,7.1c0.4,2.3,1,6-0.9,7.5c-1.8-8.4-6.3-17.5-8.1-25.9
					c-0.3-1.3-0.5-2.6-0.3-3.8c0.5-2.9,3.2-4.7,5.8-6c7.4-3.7,15.4-5.6,23.4-7.4"/>
			</g>
			<g>
				<g>
					<g>
						<path class="st7" d="M281.7,77.9c0,0-9.1-19.4-9.7-20.3c-0.6-0.9-8.2-8.7-22.6-8.4l-11.5,2.3c0,0-15.3,8.5-17.4,13.1
							c-2.2,4.6,0.4,24.1,0.4,24.1l30.8-13.5l23,0.9L281.7,77.9z"/>
					</g>
					<g>
						<path class="st7" d="M245.2,47.6l3.2-0.6c1.3-0.3,2.6,0.3,3.4,1.4c0.5,0.7,1,1.8,1.4,3.1c0.9,3.5,6.7,27.9,6.7,27.9l-14.5,2.2
							l-5.6-30.4l-4.7,2.1l-0.1-0.9c-0.1-0.5,0.1-1.1,0.3-1.6l0,0c0.4-0.7,1-1.1,1.8-1.3L245.2,47.6z"/>
					</g>
					<g>
						<path class="st6" d="M278.1,80.8l-2.9-6.8l-23.9-2.5l-25.5,13.4l1.6,8C227.4,92.9,248.3,79.2,278.1,80.8z"/>
					</g>
					<g>
						<path class="st7" d="M272.5,72.3l1.1,0.7l8.7,4.1c0,0-15.8-2-31.3,1.3C235.7,81.7,219,90.5,219,90.5l9-8.2l0,0
							c2.6-4.1,6.7-7.1,11.5-8.1l19.4-4.3C263.6,68.8,268.5,69.7,272.5,72.3z"/>
					</g>
					<g>
						<g>
							<path class="st5" d="M280.3,77.9c0,0-0.2-0.1-0.6-0.3c-0.4-0.2-1-0.4-1.8-0.7c-1.6-0.5-3.9-0.8-6.8-0.9
								c-5.8-0.2-13.9,0.6-22.5,3.1c-4.3,1.2-8.4,2.2-12,3.5c-3.6,1.3-6.8,2.7-9.4,4c-1.3,0.7-2.4,1.3-3.4,1.9c-1,0.6-1.8,1.3-2.3,2
								c-0.4,0.7-0.5,1.4-0.4,1.9c0.1,0.4,0.3,0.6,0.3,0.6c0.1,0-0.5-1,0.4-2.3c0.4-0.6,1.2-1.2,2.2-1.8c1-0.6,2.1-1.2,3.4-1.8
								c2.6-1.2,5.8-2.6,9.4-3.8c3.6-1.2,7.7-2.2,12-3.4c8.4-2.5,16.5-3.4,22.2-3.4c2.9,0,5.2,0.3,6.8,0.7
								C279.4,77.6,280.2,78,280.3,77.9z"/>
						</g>
					</g>
				</g>
			</g>
			<g>
				<path class="st5" d="M277,76.9"/>
				<path class="st5" d="M278,80.5c2.8,6.2,12.4,15,3.2,23.5c0,0-2.9-14-5.2-19.2c-0.7-1.5-1.4-3.1-2.7-4.2"/>
			</g>
			<path class="st5" d="M230.5,92.1c-6.4,1-11.2,7.8-10,14.1c0.3,1.6,1,3.3,0.8,4.9c-0.2,1.6-1.1,3.1-1.5,4.7
				c-0.8,3.1-1,8.3,0.1,11.4c2.5,7.3,11.8,16.3,20.2,14.6"/>
			<path class="st5" d="M236.7,135.8c1.7,0.4,3.6-0.3,4.9-1.5c1.3-1.2,2.1-2.9,2.6-4.6c1.6-5.5,0.4-11.7-3.3-16.1
				c4.2-7.5,4.4-17.1,0.3-24.7l-11.8,3.5L236.7,135.8z"/>
			<g>
				<path class="st6" d="M218,110.5c0,0-0.5,0.8-1.9,1.7c-1.3,0.8-3.5,1.6-5.9,1.3c-2.4-0.3-4.4-1.5-5.4-2.7
					c-1.1-1.2-1.2-2.2-1.1-2.2c0.1,0,0.3,0.9,1.4,2c1.1,1,2.9,2.1,5.2,2.4c2.3,0.3,4.3-0.4,5.6-1.1
					C217.3,111.1,217.9,110.4,218,110.5z"/>
			</g>
			<g>
				<path class="st6" d="M217.1,108.9c0,0.1-0.7,0.5-2.1,0.7c-1.3,0.3-3.3,0.3-5.3-0.3c-2-0.7-3.6-1.8-4.5-2.9
					c-0.9-1-1.3-1.8-1.2-1.8c0.1,0,0.5,0.6,1.5,1.6c1,0.9,2.5,2,4.4,2.6c1.9,0.6,3.8,0.6,5.1,0.4
					C216.3,109.1,217.1,108.8,217.1,108.9z"/>
			</g>
			<g>
				<path class="st6" d="M242.6,92.2c0,0,0,0.4-0.1,1.2c-0.1,0.8-0.3,1.8-0.8,3.1c-0.9,2.6-2.8,6-6.2,8.5c-3.4,2.5-7.3,3.4-10,3.4
					c-1.4,0-2.5-0.1-3.2-0.2c-0.8-0.1-1.2-0.3-1.1-0.3c0-0.1,1.7,0.3,4.4,0.1c2.7-0.2,6.4-1.1,9.7-3.5c3.3-2.4,5.3-5.7,6.2-8.2
					C242.4,93.9,242.5,92.2,242.6,92.2z"/>
			</g>
			<g>
				<path class="st6" d="M243,109.8c0,0-0.2,0.3-0.6,0.7c-0.4,0.4-1.1,1-2,1.5c-1.8,1.1-4.7,2-7.9,2c-3.2,0-6-0.7-8-1.2
					c-1-0.3-1.8-0.5-2.4-0.7c-0.6-0.2-0.8-0.3-0.8-0.3c0-0.1,1.3,0.2,3.3,0.7c2,0.4,4.8,1.1,7.9,1.1c3.1,0,5.9-0.8,7.7-1.8
					C242,110.8,242.9,109.8,243,109.8z"/>
			</g>
			<g>
				<path class="st5" d="M282.2,75.9c0,0-0.2-0.1-0.7-0.2c-0.5-0.2-1.1-0.4-1.9-0.7c-1.7-0.6-4.2-1.5-7.1-2.6l0,0l0,0
					c-0.6-0.5-1.2-1.1-1.8-1.6c-0.6-0.6-1.3-1.2-2.1-1.6c-0.8-0.4-1.7-0.7-2.6-0.8c-0.9-0.1-1.9,0.1-3,0.3
					c-4.1,0.7-8.5,1.6-13.2,2.7c-4.3,1-8.5,2-12.3,3c-1,0.2-1.8,0.5-2.6,1c-0.8,0.5-1.4,1.1-1.9,1.8c-0.9,1.4-1.7,2.9-2.5,4.2l0,0
					l0,0c-2.9,2.1-5.2,3.9-6.9,5.1c-0.8,0.6-1.4,1-1.9,1.4c-0.4,0.3-0.7,0.5-0.7,0.4c0,0,0.2-0.2,0.6-0.5c0.5-0.4,1.1-0.9,1.8-1.5
					c1.7-1.3,4-3.1,6.8-5.3l-0.1,0.1c0.8-1.3,1.5-2.7,2.5-4.3c0.5-0.7,1.2-1.4,2-1.9c0.8-0.5,1.8-0.8,2.7-1c3.8-1,7.9-2,12.3-3
					c4.7-1.1,9.1-2,13.2-2.7c1-0.1,2-0.4,3.1-0.3c1,0.1,2,0.4,2.8,0.9c0.8,0.5,1.5,1.1,2.1,1.7c0.6,0.6,1.2,1.1,1.8,1.7l-0.1,0
					c2.9,1.1,5.3,2.1,7.1,2.7c0.8,0.3,1.4,0.6,1.9,0.8C282,75.8,282.3,75.9,282.2,75.9z"/>
			</g>
			<g>
				<path class="st5" d="M243.6,72.5c0,0-0.1-0.3-0.3-1c-0.2-0.6-0.4-1.6-0.6-2.7c-0.5-2.3-1.1-5.5-1.7-9c-0.3-1.8-0.6-3.4-0.9-5
					c-0.1-0.8-0.3-1.5-0.4-2.2c-0.1-0.6-0.7-0.9-1.2-0.8c-1,0.4-1.9,0.8-2.6,1c-0.6,0.2-1,0.4-1,0.3c0,0,0.3-0.2,0.9-0.5
					c0.6-0.3,1.4-0.7,2.5-1.2c0.6-0.3,1.6,0.2,1.7,1c0.1,0.7,0.3,1.4,0.4,2.2c0.3,1.5,0.6,3.2,0.9,5c0.7,3.5,1.2,6.7,1.6,9.1
					c0.2,1.2,0.3,2.1,0.4,2.8C243.6,72.2,243.6,72.5,243.6,72.5z"/>
			</g>
			<g>
				<path class="st5" d="M257.5,69.5c-0.1,0-0.5-1.1-1-2.9c-0.6-1.8-1.2-4.4-1.9-7.2c-0.7-2.8-1.2-5.4-1.6-7.2c-0.4-1.9-0.6-3-0.5-3
					c0.1,0,0.4,1.1,0.9,2.9c0.5,1.8,1.1,4.4,1.8,7.2c0.6,2.7,1.2,5.2,1.7,7.2C257.2,68.3,257.5,69.4,257.5,69.5z"/>
			</g>
			<g>
				<path class="st5" d="M282,109.6c0-0.1,2.5,0.2,5.9-1.4c1.7-0.8,3.7-2,5.1-4c1.4-2,1.9-4.9,1.3-7.7c-0.6-2.8-2.4-5.1-4.5-6.4
					c-2.1-1.3-4.4-1.8-6.1-2.7c-1.8-0.8-3-1.8-3.7-2.6c-0.3-0.4-0.6-0.8-0.7-1c-0.1-0.3-0.2-0.4-0.2-0.4c0,0,0.3,0.5,1,1.3
					c0.7,0.8,2,1.7,3.7,2.4c1.7,0.8,4,1.3,6.2,2.6c2.3,1.3,4.1,3.7,4.8,6.7c0.7,2.9,0.2,6-1.4,8.1c-1.5,2.1-3.6,3.3-5.4,4.1
					c-1.8,0.8-3.3,1-4.4,1.1c-0.5,0-1,0-1.2,0C282.2,109.7,282,109.7,282,109.6z"/>
			</g>
			<g>
				<path class="st5" d="M207.1,105.7c0,0-0.1,0-0.2-0.2c-0.1-0.1-0.3-0.3-0.5-0.6c-0.4-0.6-0.9-1.5-1.1-2.8
					c-0.2-1.2-0.1-2.9,0.8-4.3c0.9-1.5,2.6-2.6,4.5-2.9c1.9-0.3,3.9,0.3,5.2,1.5c1.3,1.2,1.9,2.7,2,3.9c0.2,1.3,0,2.3-0.3,3
					c-0.1,0.3-0.2,0.6-0.3,0.7c-0.1,0.2-0.2,0.2-0.2,0.2c0,0,0.1-0.4,0.3-1c0.2-0.7,0.3-1.7,0.1-2.8c-0.2-1.2-0.8-2.6-2-3.6
					c-1.2-1.1-3-1.6-4.8-1.3c-1.8,0.3-3.4,1.3-4.2,2.7c-0.8,1.4-1,2.9-0.8,4c0.2,1.2,0.6,2.1,0.9,2.7
					C206.9,105.4,207.2,105.6,207.1,105.7z"/>
			</g>
			<g>
				<path class="st5" d="M238.3,140.2c0,0-0.1,0.1-0.4,0.2c-0.3,0.1-0.7,0.2-1.2,0.3c-1.1,0.2-2.6,0.6-4.6,0.7c-2,0.1-4.4,0-6.9-1.1
					c-2.5-1-4.7-3.1-6.2-5.8c-1.5-2.7-2.1-5.6-2.1-8.3c0-2.6,0.5-5,1-6.9c0.6-1.9,1.2-3.4,1.6-4.4c0.2-0.5,0.4-0.9,0.6-1.1
					c0.1-0.3,0.2-0.4,0.2-0.4c0,0-0.2,0.6-0.6,1.6c-0.4,1-1,2.5-1.5,4.4c-0.5,1.9-0.9,4.2-0.9,6.8c0,2.6,0.6,5.4,2.1,8
					c1.4,2.6,3.6,4.6,5.9,5.6c2.3,1,4.7,1.2,6.7,1.1c2-0.1,3.5-0.3,4.6-0.5C237.7,140.3,238.3,140.2,238.3,140.2z"/>
			</g>
			<g>
				<path class="st5" d="M216.9,115.5c0,0,0,0.2-0.1,0.5c-0.1,0.3-0.3,0.7-0.6,1.3c-0.7,1-2,2.4-4.2,3c-1.1,0.3-2.3,0.4-3.6,0.2
					c-1.3-0.2-2.6-0.9-3.8-1.8c-1.2-0.9-2.2-2.1-2.9-3.6c-0.7-1.4-1.1-3.1-1.1-4.8c0-3.4,1.2-6.6,3.1-8.8c1.9-2.3,4.5-3.5,6.7-3.4
					c2.2,0,3.9,1,4.8,1.9c0.9,0.9,1.1,1.6,1.1,1.6c-0.1,0-0.3-0.6-1.2-1.4c-0.9-0.8-2.5-1.7-4.6-1.7c-2.1,0-4.6,1.2-6.4,3.4
					c-1.8,2.2-3,5.2-3,8.5c0,1.6,0.4,3.2,1,4.6c0.7,1.4,1.6,2.5,2.7,3.4c1.1,0.9,2.3,1.5,3.5,1.7c1.2,0.3,2.4,0.2,3.4-0.1
					c2.1-0.5,3.4-1.8,4.1-2.7C216.7,116.2,216.9,115.5,216.9,115.5z"/>
			</g>
		</g>
	</g>
	<g>
		<g>
			<g>
				<g>
					<g>
						<g>
							<g>
								<g>
									<g>
										<g>
											<path class="st6" d="M502.8,458.1H177.3c-8,0-14.6-6.5-14.6-14.6V238.2c0-8,6.5-14.6,14.6-14.6h325.5
												c8,0,14.6,6.5,14.6,14.6v205.4C517.3,451.6,510.8,458.1,502.8,458.1z"/>
										</g>
									</g>
								</g>
							</g>
							<g>
								<g>
									<g>
										<g>
											<path class="st6" d="M515.3,463.5H166.7c-9.8,0-17.8-8-17.8-17.8v-2.7h384.2v2.7C533.1,455.5,525.1,463.5,515.3,463.5z"
												/>
										</g>
									</g>
								</g>
							</g>
							<g>
								<g>
									<g>
										<g>
											<rect x="172.3" y="232.9" class="st5" width="334.6" height="198"/>
										</g>
									</g>
								</g>
							</g>
							<g>
								<g>
									<g>
										<g>
											<polygon class="st5" points="305.1,440.7 309.8,448.3 376.9,448.3 381.4,440.7 											"/>
										</g>
									</g>
								</g>
							</g>
						</g>
						<g>
							<g>
								<g>
									<g>
										<g>
											<g>
												<g>
													<g>
														<path class="st2" d="M497.3,430.3H182.4c-1.8,0-3.3-1.5-3.3-3.3V242.9c0-1.8,1.5-3.3,3.3-3.3h314.9
															c1.8,0,3.3,1.5,3.3,3.3V427C500.6,428.8,499.2,430.3,497.3,430.3z"/>
													</g>
												</g>
											</g>
										</g>
									</g>
									<g>
										<g>
											<g>
												<g>
													<g>
														<polygon class="st9" points="500.3,430.6 178.8,430.6 179.1,253.9 500.3,253.9 														"/>
													</g>
												</g>
											</g>
										</g>
									</g>
									<g>
										<g>
											<g>
												<g>
													<g>
														<path class="st5" d="M205.5,247c0,1.4-1.1,2.6-2.6,2.6c-1.4,0-2.6-1.1-2.6-2.6c0-1.4,1.1-2.6,2.6-2.6
															C204.4,244.4,205.5,245.6,205.5,247z"/>
													</g>
												</g>
											</g>
										</g>
									</g>
									<g>
										<g>
											<g>
												<g>
													<g>
														<path class="st5" d="M190,247c0,1.4-1.1,2.6-2.6,2.6c-1.4,0-2.6-1.1-2.6-2.6c0-1.4,1.1-2.6,2.6-2.6
															C188.8,244.4,190,245.6,190,247z"/>
													</g>
												</g>
											</g>
										</g>
									</g>
									<g>
										<g>
											<g>
												<g>
													<g>
														<path class="st5" d="M197.4,247c0,1.4-1.1,2.6-2.6,2.6c-1.4,0-2.6-1.1-2.6-2.6c0-1.4,1.1-2.6,2.6-2.6
															C196.3,244.4,197.4,245.6,197.4,247z"/>
													</g>
												</g>
											</g>
										</g>
									</g>
								</g>
							</g>
						</g>
						<g>
							<g>
								<g>
									<g>
										<path class="st5" d="M514.3,440.7c0,0.1-78.7,0.2-175.8,0.2c-97.1,0-175.8-0.1-175.8-0.2c0-0.1,78.7-0.2,175.8-0.2
											C435.6,440.5,514.3,440.6,514.3,440.7z"/>
									</g>
								</g>
							</g>
						</g>
					</g>
				</g>
			</g>
		</g>
		<g>
			<path class="st1" d="M380.9,396.1c0,0.1-19.3,0.3-43.1,0.3c-23.8,0-43.1-0.1-43.1-0.3s19.3-0.3,43.1-0.3
				C361.6,395.8,380.9,395.9,380.9,396.1z"/>
		</g>
		<g>
			<g>
				<g>
					<g>
						<rect x="186.6" y="350.8" class="st0" width="95.9" height="72.1"/>
					</g>
				</g>
			</g>
			<g>
				<g>
					<g>
						<polygon class="st1" points="186.6,422.9 220.1,378.1 240.9,406.1 254.9,391.1 282.5,422.9 						"/>
					</g>
				</g>
			</g>
			<g>
				<g>
					<g>
						<g>
							<g>
								<path class="st1" d="M249.6,372.6c0,4.2-3.4,7.6-7.5,7.6c-4.2,0-7.6-3.4-7.6-7.5c0-4.2,3.4-7.6,7.5-7.6
									C246.3,365,249.6,368.4,249.6,372.6z"/>
							</g>
						</g>
					</g>
				</g>
			</g>
		</g>
		<g>
			<g>
				<g>
					<g>
						<rect x="393.6" y="350.9" class="st0" width="95.9" height="72.1"/>
					</g>
				</g>
			</g>
			<g>
				<g>
					<g>
						<polygon class="st1" points="393.6,423.1 427.1,378.2 447.8,406.2 461.9,391.2 489.5,423 						"/>
					</g>
				</g>
			</g>
			<g>
				<g>
					<g>
						<g>
							<g>
								<path class="st1" d="M456.6,372.7c0,4.2-3.4,7.6-7.5,7.6c-4.2,0-7.6-3.4-7.6-7.5c0-4.2,3.4-7.6,7.5-7.6
									C453.2,365.1,456.6,368.5,456.6,372.7z"/>
							</g>
						</g>
					</g>
				</g>
			</g>
		</g>
		<g>
			<g>
				<path class="st1" d="M474.3,336.6c0-0.1,1-0.1,2.7-0.2c1.7,0,4-0.1,6.5-0.1c1,0,1.9,0,2.8,0l-0.2,0.2c0-1.8,0.1-3.4,0.1-4.6
					c0-1.1,0.1-1.8,0.2-1.8c0.1,0,0.1,0.7,0.2,1.8c0,1.1,0.1,2.7,0.1,4.6l0,0.2l-0.3,0c-0.9,0-1.8,0-2.8,0c-2.5,0-4.8,0-6.5-0.1
					C475.3,336.7,474.3,336.7,474.3,336.6z"/>
			</g>
			<g>
				<path class="st1" d="M450.3,336.6c0-0.1,2.7-0.3,6-0.3c3.3,0,6,0.1,6,0.3c0,0.1-2.7,0.3-6,0.3
					C453,336.8,450.3,336.7,450.3,336.6z"/>
			</g>
			<g>
				<path class="st1" d="M426.3,336.6c0-0.1,2.7-0.3,6-0.3c3.3,0,6,0.1,6,0.3c0,0.1-2.7,0.3-6,0.3
					C429,336.8,426.3,336.7,426.3,336.6z"/>
			</g>
			<g>
				<path class="st1" d="M402.3,336.6c0-0.1,2.7-0.3,6-0.3c3.3,0,6,0.1,6,0.3c0,0.1-2.7,0.3-6,0.3
					C405,336.8,402.3,336.7,402.3,336.6z"/>
			</g>
			<g>
				<path class="st1" d="M378.3,336.6c0-0.1,2.7-0.3,6-0.3c3.3,0,6,0.1,6,0.3c0,0.1-2.7,0.3-6,0.3
					C381,336.8,378.3,336.7,378.3,336.6z"/>
			</g>
			<g>
				<path class="st1" d="M354.3,336.6c0-0.1,2.7-0.3,6-0.3c3.3,0,6,0.1,6,0.3c0,0.1-2.7,0.3-6,0.3
					C357,336.8,354.3,336.7,354.3,336.6z"/>
			</g>
			<g>
				<path class="st1" d="M330.3,336.6c0-0.1,2.7-0.3,6-0.3c3.3,0,6,0.1,6,0.3c0,0.1-2.7,0.3-6,0.3
					C333,336.8,330.3,336.7,330.3,336.6z"/>
			</g>
			<g>
				<path class="st1" d="M306.3,336.6c0-0.1,2.7-0.3,6-0.3c3.3,0,6,0.1,6,0.3c0,0.1-2.7,0.3-6,0.3
					C309,336.8,306.3,336.7,306.3,336.6z"/>
			</g>
			<g>
				<path class="st1" d="M282.3,336.6c0-0.1,2.7-0.3,6-0.3c3.3,0,6,0.1,6,0.3c0,0.1-2.7,0.3-6,0.3
					C285,336.8,282.3,336.7,282.3,336.6z"/>
			</g>
			<g>
				<path class="st1" d="M258.3,336.6c0-0.1,2.7-0.3,6-0.3c3.3,0,6,0.1,6,0.3c0,0.1-2.7,0.3-6,0.3
					C261,336.8,258.3,336.7,258.3,336.6z"/>
			</g>
			<g>
				<path class="st1" d="M234.3,336.6c0-0.1,2.7-0.3,6-0.3c3.3,0,6,0.1,6,0.3c0,0.1-2.7,0.3-6,0.3
					C237,336.8,234.3,336.7,234.3,336.6z"/>
			</g>
			<g>
				<path class="st1" d="M210.3,336.6c0-0.1,2.7-0.3,6-0.3c3.3,0,6,0.1,6,0.3c0,0.1-2.7,0.3-6,0.3
					C213,336.8,210.3,336.7,210.3,336.6z"/>
			</g>
			<g>
				<path class="st1" d="M186.3,336.6C186.3,336.6,186.3,336.6,186.3,336.6L186.3,336.6c0.1-0.1,2.7-0.2,6-0.2c3.3,0,6,0.1,6,0.3
					c0,0.1-2.7,0.3-6,0.3C189.1,336.8,186.4,336.7,186.3,336.6L186.3,336.6C186.3,336.6,186.3,336.6,186.3,336.6z"/>
			</g>
			<g>
				<path class="st1" d="M186.3,312.6c0.1,0,0.3,2.7,0.3,6c0,3.3-0.1,6-0.3,6c-0.1,0-0.3-2.7-0.3-6
					C186.1,315.3,186.2,312.6,186.3,312.6z"/>
			</g>
			<g>
				<path class="st1" d="M186.3,288.6c0.1,0,0.3,2.7,0.3,6c0,3.3-0.1,6-0.3,6c-0.1,0-0.3-2.7-0.3-6
					C186.1,291.3,186.2,288.6,186.3,288.6z"/>
			</g>
			<g>
				<path class="st1" d="M186.3,264.6c0.1,0,0.3,2.7,0.3,6c0,3.3-0.1,6-0.3,6c-0.1,0-0.3-2.7-0.3-6
					C186.1,267.3,186.2,264.6,186.3,264.6z"/>
			</g>
			<g>
				<path class="st1" d="M207.2,261.4c0,0.1-2.7,0.3-6,0.3c-3.3,0-6-0.1-6-0.3s2.7-0.3,6-0.3C204.5,261.1,207.2,261.2,207.2,261.4z"
					/>
			</g>
			<g>
				<path class="st1" d="M231.2,261.4c0,0.1-2.7,0.3-6,0.3c-3.3,0-6-0.1-6-0.3s2.7-0.3,6-0.3C228.5,261.1,231.2,261.2,231.2,261.4z"
					/>
			</g>
			<g>
				<path class="st1" d="M255.2,261.4c0,0.1-2.7,0.3-6,0.3c-3.3,0-6-0.1-6-0.3s2.7-0.3,6-0.3C252.5,261.1,255.2,261.2,255.2,261.4z"
					/>
			</g>
			<g>
				<path class="st1" d="M279.2,261.4c0,0.1-2.7,0.3-6,0.3c-3.3,0-6-0.1-6-0.3s2.7-0.3,6-0.3C276.5,261.1,279.2,261.2,279.2,261.4z"
					/>
			</g>
			<g>
				<path class="st1" d="M303.2,261.4c0,0.1-2.7,0.3-6,0.3c-3.3,0-6-0.1-6-0.3s2.7-0.3,6-0.3C300.5,261.1,303.2,261.2,303.2,261.4z"
					/>
			</g>
			<g>
				<path class="st1" d="M327.2,261.4c0,0.1-2.7,0.3-6,0.3c-3.3,0-6-0.1-6-0.3s2.7-0.3,6-0.3C324.5,261.1,327.2,261.2,327.2,261.4z"
					/>
			</g>
			<g>
				<path class="st1" d="M351.2,261.4c0,0.1-2.7,0.3-6,0.3c-3.3,0-6-0.1-6-0.3s2.7-0.3,6-0.3C348.5,261.1,351.2,261.2,351.2,261.4z"
					/>
			</g>
			<g>
				<path class="st1" d="M375.2,261.4c0,0.1-2.7,0.3-6,0.3c-3.3,0-6-0.1-6-0.3s2.7-0.3,6-0.3C372.5,261.1,375.2,261.2,375.2,261.4z"
					/>
			</g>
			<g>
				<path class="st1" d="M399.2,261.4c0,0.1-2.7,0.3-6,0.3c-3.3,0-6-0.1-6-0.3s2.7-0.3,6-0.3C396.5,261.1,399.2,261.2,399.2,261.4z"
					/>
			</g>
			<g>
				<path class="st1" d="M423.2,261.4c0,0.1-2.7,0.3-6,0.3c-3.3,0-6-0.1-6-0.3s2.7-0.3,6-0.3C420.5,261.1,423.2,261.2,423.2,261.4z"
					/>
			</g>
			<g>
				<path class="st1" d="M447.2,261.4c0,0.1-2.7,0.3-6,0.3c-3.3,0-6-0.1-6-0.3s2.7-0.3,6-0.3C444.5,261.1,447.2,261.2,447.2,261.4z"
					/>
			</g>
			<g>
				<path class="st1" d="M471.2,261.4c0,0.1-2.7,0.3-6,0.3c-3.3,0-6-0.1-6-0.3s2.7-0.3,6-0.3C468.5,261.1,471.2,261.2,471.2,261.4z"
					/>
			</g>
			<g>
				<path class="st1" d="M486.3,270.2c-0.1,0-0.3-2.7-0.3-6c0-1,0-1.9,0-2.8l0.2,0.2c-1.9,0-3.2-0.1-3.2-0.2s1.3-0.2,3.2-0.2l0.2,0
					l0,0.2c0,0.9,0,1.8,0,2.8C486.6,267.5,486.5,270.2,486.3,270.2z"/>
			</g>
			<g>
				<path class="st1" d="M486.3,294.2c-0.1,0-0.3-2.7-0.3-6c0-3.3,0.1-6,0.3-6c0.1,0,0.3,2.7,0.3,6
					C486.6,291.5,486.5,294.2,486.3,294.2z"/>
			</g>
			<g>
				<path class="st1" d="M486.3,318.2c-0.1,0-0.3-2.7-0.3-6c0-3.3,0.1-6,0.3-6c0.1,0,0.3,2.7,0.3,6
					C486.6,315.5,486.5,318.2,486.3,318.2z"/>
			</g>
		</g>
		<g>
			<path class="st1" d="M380.9,420.4c0,0.1-19.3,0.3-43.1,0.3c-23.8,0-43.1-0.1-43.1-0.3c0-0.1,19.3-0.3,43.1-0.3
				C361.6,420.1,380.9,420.3,380.9,420.4z"/>
		</g>
		<g>
			<path class="st1" d="M380.9,409.3c0,0.1-19.3,0.3-43.1,0.3c-23.8,0-43.1-0.1-43.1-0.3c0-0.1,19.3-0.3,43.1-0.3
				C361.6,409,380.9,409.1,380.9,409.3z"/>
		</g>
	</g>
</g>
<g id="Sign">
	<g>
		<rect x="112" y="323.5" class="st5" width="5.2" height="139.7"/>
		<g>
			<g>
				<g>
					<circle class="st7" cx="114.6" cy="298.4" r="30.1"/>
				</g>
			</g>
			<g>
				<path class="st13" d="M141.7,298c0,0,0-0.1,0-0.4c0-0.3-0.1-0.7-0.1-1.3c0-0.3,0-0.6-0.1-0.9c0-0.3-0.1-0.7-0.2-1.1
					c-0.1-0.8-0.3-1.8-0.6-2.8c-0.5-2.1-1.5-4.6-3-7.2c-1.6-2.6-3.8-5.3-6.9-7.6c-3-2.3-6.9-4.2-11.3-5c-4.4-0.8-9.4-0.6-14.1,1.2
					c-1.2,0.4-2.3,1-3.5,1.5c-0.6,0.3-1.1,0.7-1.7,1c-0.6,0.3-1.1,0.7-1.6,1.1c-1.1,0.7-2,1.7-3,2.6c-0.9,1-1.9,2-2.6,3.1
					c-1.6,2.2-3,4.7-3.8,7.4c-0.9,2.7-1.3,5.6-1.4,8.5c0,2.9,0.5,5.8,1.4,8.5c0.8,2.7,2.2,5.2,3.8,7.4c0.8,1.1,1.7,2.1,2.6,3.1
					c1,0.9,2,1.8,3,2.6c0.5,0.4,1,0.8,1.6,1.1c0.6,0.3,1.1,0.7,1.7,1c1.2,0.6,2.3,1.2,3.5,1.5c4.7,1.8,9.7,1.9,14.1,1.2
					c4.4-0.8,8.3-2.7,11.3-5c3.1-2.3,5.3-5,6.9-7.6c1.5-2.6,2.5-5.1,3-7.2c0.3-1,0.4-2,0.6-2.8c0.1-0.4,0.1-0.8,0.2-1.1
					c0-0.3,0-0.7,0.1-0.9c0-0.5,0.1-1,0.1-1.3C141.7,298.2,141.7,298,141.7,298c0,0,0,0.1,0,0.4c0,0.3,0,0.7,0,1.3c0,0.3,0,0.6,0,1
					c0,0.3-0.1,0.7-0.2,1.1c-0.1,0.8-0.2,1.8-0.5,2.8c-0.5,2.1-1.4,4.6-3,7.3c-1.6,2.6-3.8,5.4-6.9,7.8c-3.1,2.3-7,4.3-11.5,5.1
					c-4.5,0.8-9.5,0.7-14.4-1.2c-1.2-0.4-2.4-1-3.6-1.6c-0.6-0.3-1.1-0.7-1.7-1c-0.6-0.3-1.1-0.7-1.7-1.1c-1.1-0.8-2.1-1.7-3.1-2.6
					c-0.9-1-1.9-2-2.7-3.2c-1.6-2.3-3.1-4.8-3.9-7.5c-0.9-2.7-1.4-5.7-1.4-8.6c0-3,0.5-5.9,1.4-8.6c0.9-2.8,2.3-5.3,3.9-7.5
					c0.8-1.2,1.8-2.2,2.7-3.2c1-0.9,2-1.9,3.1-2.6c0.5-0.4,1.1-0.8,1.7-1.1c0.6-0.3,1.1-0.7,1.7-1c1.2-0.6,2.3-1.2,3.6-1.6
					c4.8-1.8,9.9-1.9,14.4-1.2c4.5,0.8,8.4,2.8,11.5,5.1c3.1,2.4,5.3,5.1,6.9,7.8c1.5,2.7,2.5,5.2,3,7.3c0.3,1,0.4,2,0.5,2.8
					c0.1,0.4,0.1,0.8,0.2,1.1c0,0.3,0,0.7,0,1c0,0.5,0,1,0,1.3C141.7,297.9,141.7,298,141.7,298z"/>
			</g>
			<rect x="98.9" y="294.6" class="st9" width="31.4" height="6.5"/>
		</g>
	</g>
</g>
<g id="Crane">
	<g>
		<g>
			<g>
				<g>
					<g>
						
							<rect x="228" y="271.4" transform="matrix(0.9968 -8.009249e-02 8.009249e-02 0.9968 -23.9525 31.0553)" class="st13" width="294.3" height="85.4"/>
						<g>
							<path class="st5" d="M525.3,344.9c-0.1-1.2-2.6-31.5-7-85.2l0.2,0.1c-68.1,5.5-174.3,14.1-293.4,23.7l0,0l0.2-0.3
								c2.4,29.4,4.7,58,6.8,85.2l-0.3-0.2c84.1-6.7,157.4-12.6,209.7-16.7C493.9,347.4,524,345,525.3,344.9c0,0-0.5,0-1.4,0.1
								c-1,0.1-2.4,0.2-4.2,0.4c-3.8,0.3-9.3,0.8-16.4,1.4c-14.4,1.2-35.2,2.9-61.4,5c-52.3,4.2-125.7,10.2-209.9,17l-0.3,0l0-0.3
								c-2.2-27.2-4.5-55.8-6.9-85.2l0-0.3l0.3,0l0,0c119.1-9.5,225.3-18,293.4-23.5l0.2,0l0,0.2
								C522.8,313.4,525.2,343.7,525.3,344.9z"/>
						</g>
					</g>
					<g>
						<g>
							<g>
								<g>
									
										<rect x="235.1" y="287.7" transform="matrix(0.9975 -7.096761e-02 7.096761e-02 0.9975 -22.1769 20.7848)" class="st7" width="92.6" height="69.6"/>
								</g>
							</g>
						</g>
						<g>
							<g>
								<g>
									<g>
										<g>
											<path class="st1" d="M440.8,344.9c0,0.1-2.7,0.5-6,0.8c-0.6-0.5-0.2-0.1-0.3-0.2l0,0l0,0l0,0l0,0l0,0l0-0.1l0-0.2l0-0.3
												c0-0.2,0-0.4,0-0.6c0-0.4-0.1-0.8-0.1-1.1c0-0.7-0.1-1.3-0.1-1.9c0-1.1,0-1.8,0-1.8c0.1,0,0.2,0.7,0.3,1.7
												c0.1,0.6,0.1,1.2,0.2,1.9c0,0.4,0.1,0.7,0.1,1.1c0,0.2,0,0.4,0.1,0.6l0,0.3l0,0.2l0,0.1l0,0l0,0l0,0l0,0l0,0
												c-0.1-0.1,0.3,0.2-0.3-0.2C438.1,344.8,440.8,344.7,440.8,344.9z"/>
										</g>
										<g>
											<path class="st1" d="M468,342.6c0,0.1-3,0.5-6.8,0.8c-3.7,0.3-6.8,0.5-6.8,0.3c0-0.1,3-0.5,6.8-0.8
												C464.9,342.6,467.9,342.4,468,342.6z"/>
										</g>
										<g>
											<path class="st1" d="M495.1,340.3c0,0.1-3,0.5-6.8,0.8c-3.7,0.3-6.8,0.5-6.8,0.3c0-0.1,3-0.5,6.8-0.8
												C492,340.3,495.1,340.2,495.1,340.3z"/>
										</g>
										<g>
											<path class="st1" d="M514.1,332.7c0.1,0,0.5,2.7,0.8,6c-0.5,0.6-0.1,0.2-0.2,0.3l0,0l0,0l0,0l0,0l0,0l-0.1,0l-0.2,0
												l-0.3,0c-0.2,0-0.4,0-0.6,0c-0.4,0-0.8,0.1-1.1,0.1c-0.7,0-1.3,0.1-1.9,0.1c-1.1,0-1.8,0-1.8,0c0-0.1,0.7-0.2,1.7-0.3
												c0.6-0.1,1.2-0.1,1.9-0.2c0.4,0,0.7-0.1,1.1-0.1c0.2,0,0.4,0,0.6-0.1l0.3,0l0.2,0l0.1,0l0,0l0,0l0,0l0,0l0,0
												c-0.1,0.1,0.2-0.3-0.2,0.3C514.1,335.4,514,332.7,514.1,332.7z"/>
										</g>
										<g>
											<path class="st1" d="M512.3,310.3c0.1,0,0.5,2.5,0.7,5.6c0.3,3.1,0.4,5.6,0.2,5.6c-0.1,0-0.5-2.5-0.7-5.6
												C512.2,312.8,512.1,310.3,512.3,310.3z"/>
										</g>
										<g>
											<path class="st1" d="M510.4,287.9c0.1,0,0.5,2.5,0.7,5.6c0.3,3.1,0.4,5.6,0.2,5.6c-0.1,0-0.5-2.5-0.7-5.6
												C510.3,290.4,510.2,287.9,510.4,287.9z"/>
										</g>
										<g>
											<path class="st1" d="M502.9,271.2c0-0.1,2.7-0.5,6-0.8c0.6,0.5,0.2,0.1,0.3,0.2l0,0l0,0l0,0l0,0l0,0l0,0.1l0,0.2l0,0.3
												c0,0.2,0,0.4,0,0.6c0,0.4,0.1,0.8,0.1,1.1c0,0.7,0.1,1.3,0.1,1.9c0,1.1,0,1.8,0,1.8c-0.1,0-0.2-0.7-0.3-1.7
												c-0.1-0.6-0.1-1.2-0.2-1.9c0-0.4-0.1-0.7-0.1-1.1c0-0.2,0-0.4-0.1-0.6l0-0.3l0-0.2l0-0.1l0,0l0,0l0,0l0,0l0,0
												c0.1,0.1-0.3-0.2,0.3,0.2C505.6,271.3,502.9,271.4,502.9,271.2z"/>
										</g>
										<g>
											<path class="st1" d="M475.8,273.5c0-0.1,3-0.5,6.8-0.8c3.7-0.3,6.8-0.5,6.8-0.3c0,0.1-3,0.5-6.8,0.8
												C478.9,273.5,475.8,273.7,475.8,273.5z"/>
										</g>
										<g>
											<path class="st1" d="M448.7,275.8c0-0.1,3-0.5,6.8-0.8c3.7-0.3,6.8-0.5,6.8-0.3c0,0.1-3,0.5-6.8,0.8
												C451.7,275.8,448.7,276,448.7,275.8z"/>
										</g>
										<g>
											<path class="st1" d="M429.6,283.4c-0.1,0-0.5-2.7-0.8-6c0.5-0.6,0.1-0.2,0.2-0.3l0,0l0,0l0,0l0,0l0,0l0.1,0l0.2,0l0.3,0
												c0.2,0,0.4,0,0.6,0c0.4,0,0.8-0.1,1.1-0.1c0.7,0,1.3-0.1,1.9-0.1c1.1,0,1.8,0,1.8,0c0,0.1-0.7,0.2-1.7,0.3
												c-0.6,0.1-1.2,0.1-1.9,0.2c-0.4,0-0.7,0.1-1.1,0.1c-0.2,0-0.4,0-0.6,0.1l-0.3,0l-0.2,0l-0.1,0l0,0l0,0l0,0l0,0l0,0
												c0.1-0.1-0.2,0.3,0.2-0.3C429.6,280.7,429.8,283.4,429.6,283.4z"/>
										</g>
										<g>
											<path class="st1" d="M431.5,305.8c-0.1,0-0.5-2.5-0.7-5.6c-0.3-3.1-0.4-5.6-0.2-5.6c0.1,0,0.5,2.5,0.7,5.6
												C431.6,303.3,431.6,305.8,431.5,305.8z"/>
										</g>
										<g>
											<path class="st1" d="M433.4,328.2c-0.1,0-0.5-2.5-0.7-5.6c-0.3-3.1-0.4-5.6-0.2-5.6c0.1,0,0.5,2.5,0.7,5.6
												C433.4,325.7,433.5,328.2,433.4,328.2z"/>
										</g>
									</g>
								</g>
							</g>
						</g>
						<g>
							<g>
								<g>
									<polygon class="st7" points="237.7,360.5 266.9,315 288.8,340.6 301.3,325.2 330.1,353.9 									"/>
								</g>
							</g>
						</g>
						<g>
							<g>
								<g>
									<g>
										<g>
											<path class="st7" d="M295,307.7c0.3,4-2.7,7.5-6.8,7.8c-4,0.3-7.5-2.7-7.8-6.8c-0.3-4,2.7-7.5,6.8-7.8
												C291.2,300.7,294.7,303.7,295,307.7z"/>
										</g>
									</g>
								</g>
							</g>
						</g>
						<g class="st14">
							<g>
								<g>
									<polygon points="237.7,360.5 266.9,315 288.8,340.6 301.3,325.2 330.1,353.9 									"/>
								</g>
							</g>
						</g>
						<g class="st14">
							<g>
								<g>
									<g>
										<g>
											<path d="M295,307.7c0.3,4-2.7,7.5-6.8,7.8c-4,0.3-7.5-2.7-7.8-6.8c-0.3-4,2.7-7.5,6.8-7.8
												C291.2,300.7,294.7,303.7,295,307.7z"/>
										</g>
									</g>
								</g>
							</g>
						</g>
					</g>
					<g>
						<g>
							<path class="st5" d="M421.5,296.4c0,0.1-18,1.9-40.1,4c-22.2,2-40.2,3.6-40.2,3.4c0-0.1,17.9-1.9,40.1-4
								C403.5,297.8,421.5,296.3,421.5,296.4z"/>
						</g>
						<g>
							<path class="st5" d="M423.8,309.8c0,0.1-18.2,1.9-40.6,4c-22.4,2.1-40.6,3.6-40.6,3.5c0-0.1,18.1-1.9,40.6-4
								C405.6,311.2,423.8,309.7,423.8,309.8z"/>
						</g>
						<g>
							<path class="st5" d="M426.2,323.2c0,0.1-18.3,2-41,4c-22.7,2.1-41,3.7-41.1,3.5c0-0.1,18.3-2,41-4
								C407.8,324.6,426.1,323,426.2,323.2z"/>
						</g>
						<g>
							<path class="st5" d="M426.6,336.4c0,0.1-18.4,2-41.1,4.1c-22.7,2.1-41.1,3.7-41.1,3.5c0-0.1,18.4-2,41.1-4.1
								C408.2,337.9,426.6,336.3,426.6,336.4z"/>
						</g>
						
							<rect x="339.5" y="289.3" transform="matrix(0.9968 -8.009182e-02 8.009182e-02 0.9968 -22.146 29.823)" class="st7" width="42.4" height="3.4"/>
					</g>
				</g>
				<g>
					<g>
						<path class="st1" d="M472.8,318.5c-0.1,0-0.7-4.9-1.2-11c-0.5-6.1-0.8-11.1-0.7-11.1c0.1,0,0.7,4.9,1.2,11
							C472.6,313.5,473,318.5,472.8,318.5z"/>
					</g>
					<g>
						<path class="st1" d="M482.1,306.9c0,0.1-4.7,0.6-10.6,0.9c-5.9,0.4-10.6,0.6-10.6,0.4c0-0.1,4.7-0.6,10.6-0.9
							C477.3,307,482.1,306.8,482.1,306.9z"/>
					</g>
				</g>
			</g>
			<g>
				<path class="st5" d="M518.4,259.7c0,0-0.2-0.1-0.7-0.3c-0.5-0.2-1.2-0.4-2-0.8c-1.8-0.7-4.5-1.7-7.9-3.1
					c-6.9-2.7-16.8-6.6-29.1-11.4c-24.6-9.7-58.9-23.2-97.3-38.3l0.2,0c-3.9,1.9-8.1,4-12.3,6.1c-39.8,19.7-75.9,37.6-102,50.5
					c-13.1,6.4-23.6,11.6-30.9,15.3c-3.6,1.8-6.5,3.2-8.4,4.1c-1,0.5-1.7,0.8-2.2,1.1c-0.5,0.2-0.8,0.3-0.8,0.3s0.2-0.1,0.7-0.4
					c0.5-0.3,1.2-0.6,2.2-1.1c1.9-1,4.7-2.4,8.4-4.2c7.3-3.6,17.8-8.9,30.9-15.4c26.1-13,62.1-30.9,101.9-50.7
					c4.2-2.1,8.4-4.2,12.3-6.1l0.1-0.1l0.1,0c38.4,15.2,72.6,28.7,97.2,38.5c12.3,4.9,22.2,8.8,29,11.6c3.4,1.4,6,2.4,7.8,3.1
					c0.9,0.4,1.6,0.6,2,0.8C518.2,259.6,518.4,259.7,518.4,259.7z"/>
			</g>
		</g>
		<g>
			<path class="st5" d="M458.7,120c-1.5-3.4-5.5-4.9-8.9-3.3c-1.5,0.7-2.6,1.9-3.3,3.2l-10.5,0.9l10.6,20.8l6.6-12.2
				c0.7-0.1,1.4-0.3,2.1-0.6C458.7,127.4,460.2,123.4,458.7,120z"/>
		</g>
		<path class="st5" d="M398.4,89.8l6.8-2.9l-16.5-4.1c-1-1.6-2.7-2.8-4.7-3c-3.7-0.5-7,2.1-7.5,5.7c-0.5,3.7,2.1,7,5.7,7.5
			c1.8,0.3,3.6-0.3,5-1.3l15.6,9.6L398.4,89.8z"/>
		<g>
			<path class="st5" d="M530,294.3l0-0.1L417.1,83.7l-0.6-1.2l-17.8,8.1L483.8,315l0,0.1l50.7,80.6l1-0.2l1.2-0.2l0.9-0.1
				l-10.5-16.7l6.1-15.8l16.2,6l7.1,23.7l0.9-0.1l1.1-0.2l0.9-0.1L530,294.3z M537.3,328.4l-20.3-5.2l11.8-22.9L537.3,328.4z
				 M515.3,322.7l-24.9-6.4l36.8-16.8L515.3,322.7z M524.7,290.4l-25.9-7.2l10.6-21.3L524.7,290.4z M497,282.7l-22.8-6.3l33.5-15.3
				L497,282.7z M506.2,256l-23.9-8.3l8.5-20.3L506.2,256z M480.7,247.1l-21-7.3l29.7-13.5L480.7,247.1z M487.5,221.1l-21.7-9.4
				l6.4-19.1L487.5,221.1z M464.1,211l-18.6-8l25.1-11.5L464.1,211z M469.1,186.8l-0.1,0.1l-19.5-10.6l4.3-18L469.1,186.8z
				 M449.9,150.9l-17-11.4l2.3-16.1L449.9,150.9z M431.2,138.3l-13.7-9.2l16-7.3L431.2,138.3z M416.7,89l14.5,27l-14.9-12.5
				L416.7,89z M413.9,122.6L403.4,95l11,9.3L413.9,122.6z M414.5,101.9L402.7,92l12.3-5.6L414.5,101.9z M416.2,105.7l14.3,12.1
				l-14.8,6.8L416.2,105.7z M417.1,131.1l13.8,9.3l-2.8,19.8L417.1,131.1z M432.6,141.4l16.6,11.1l-19.4,8.8L432.6,141.4z
				 M452.3,156.5l-4.5,18.8l-16.8-9.1L452.3,156.5z M431.3,168.5l16.1,8.7l-5,20.6L431.3,168.5z M449,178.1l17.9,9.7l-22.7,10.4
				L449,178.1z M445,204.7l18.5,8l-7.3,21.6L445,204.7z M465.2,213.4l20.8,9l-28.1,12.8L465.2,213.4z M459,241.4l21,7.3l-9.6,22.8
				L459,241.4z M481.7,249.3l22.7,7.9l-32.2,14.7L481.7,249.3z M472.8,277.9l23.4,6.5l-11.9,23.8L472.8,277.9z M498,284.9l25.4,7
				l-37.4,17L498,284.9z M489,317.8l25.5,6.5l-9.6,18.7L489,317.8z M516.2,324.8l20.8,5.3l-30.7,14L516.2,324.8z M526,376.7
				l-13.6-21.6l19.2,7.1L526,376.7z M532.3,360.5l-21.5-7.9l-0.5-0.8l30-13.6l0.3,1L532.3,360.5z M534,361.2l7.5-19.2l7.5,24.7
				L534,361.2z"/>
			<g>
				<path class="st5" d="M381.3,183.3c0,0,0-0.6,0-1.8c0-1.2,0-2.9,0-5.2c0-4.6,0-11.3-0.1-19.9c0-17.2-0.1-42-0.1-72.3l0-0.2l0.2,0
					c9.9-1,20.5-2.2,31.7-3.3l0.1,0l0.1,0.1c24.1,26.9,52.4,58.5,82.4,92.2c46.9,52.5,89.3,99.9,120,134.3
					c15.3,17.2,27.7,31.1,36.3,40.7c4.3,4.8,7.6,8.6,9.9,11.1c1.1,1.3,2,2.2,2.6,2.9c0.6,0.7,0.9,1,0.9,1s-0.3-0.3-0.9-1
					c-0.6-0.7-1.5-1.6-2.6-2.9c-2.3-2.5-5.6-6.2-9.9-11c-8.6-9.6-21.1-23.5-36.4-40.6c-30.7-34.4-73.2-81.8-120.1-134.2
					c-30.1-33.6-58.3-65.2-82.4-92.2l0.2,0.1c-11.2,1.2-21.8,2.3-31.7,3.3l0.2-0.2c0,30.3-0.1,55.1-0.1,72.3c0,8.6,0,15.3-0.1,19.9
					c0,2.3,0,4,0,5.2C381.4,182.7,381.3,183.3,381.3,183.3z"/>
			</g>
			<g>
				<path class="st5" d="M383.2,165.9h-4.3c-0.2,0-0.4-0.2-0.4-0.4v-10.1c0-0.2,0.2-0.4,0.4-0.4h4.3c0.2,0,0.4,0.2,0.4,0.4v10.1
					C383.6,165.7,383.4,165.9,383.2,165.9z"/>
				<path class="st5" d="M389.6,167.6H373c-1,0-1.8-0.8-1.8-1.8l0,0c0-1,0.8-1.9,1.8-1.9h16.6c1,0,1.9,0.8,1.9,1.9l0,0
					C391.5,166.7,390.6,167.6,389.6,167.6z"/>
				<path class="st5" d="M382.5,197.3l-0.1-2.4l-2.4,1c-0.1,0.9-0.1,1.8,0,2.6c0,0.1,0,0.3,0.1,0.4c0.1,0.2,0.4,0.3,0.6,0.4
					c1,0.4,2,1.2,2.5,2.2c0.5,1,0.6,3.2-1.7,4c-2,0.7-3.7-1.1-3.7-2c0-0.4,0-1-0.6-1c-0.8-0.1-1.2,1.1-1.1,1.7
					c0.1,3.6,3.5,4.7,4.9,4.8c1,0,2-0.1,2.8-0.6c1.4-0.8,2.4-2.2,2.6-3.7C387.3,200.1,382.3,197.6,382.5,197.3z"/>
				<path class="st1" d="M384.6,196.1l10.6-25.6c1-2.3-0.7-4.9-3.2-4.9h-10.6h-10.6c-2.5,0-4.2,2.5-3.2,4.9l10.6,25.6
					C379.3,199,383.4,199,384.6,196.1z"/>
				<g>
					<path class="st7" d="M371.8,167.5l-2.7,2.7c0,0.1,0,0.2,0,0.3l0.9,2.2l5.2-5.2H371.8z"/>
					<polygon class="st7" points="382.1,167.5 378.7,167.5 371,175.1 372,177.6 					"/>
					<polygon class="st7" points="389.4,180.7 391.8,174.9 377,189.6 378.1,192 					"/>
					<path class="st7" d="M386.9,186.6l-7.9,7.9l0.3,0.6c0.3,0.6,0.7,1,1.3,1.2l3.9-3.9L386.9,186.6z"/>
					<polygon class="st7" points="388.9,167.5 385.5,167.5 373,180 374,182.4 					"/>
					<path class="st7" d="M393.8,169.5c0-0.4-0.2-0.7-0.4-1c-0.3-0.4-0.7-0.7-1.2-0.8L375,184.8l1,2.4L393.8,169.5z"/>
				</g>
			</g>
			<g>
				<path class="st5" d="M675.2,368.1h-23.1V360c0-1.5,1.2-2.6,2.6-2.6h17.8c1.5,0,2.6,1.2,2.6,2.6V368.1z"/>
				<g>
					<path class="st5" d="M611.7,365.4h-3.8v-22.5c0-1,0.2-2,0.5-2.9l1.9-5.9c0-0.1,0.2-0.1,0.3,0l2.2,4l-0.6,1.8
						c-0.3,1-0.5,2-0.5,3V365.4z"/>
				</g>
				<path class="st7" d="M705.1,369.5c-1.1-2.6-3.4-4.5-6.2-5l-94.8,0v-15.8c0-2.1-1.7-3.8-3.8-3.8h-45.8c-1.7,0-3.1,1.1-3.7,2.7
					l-1.4,4.3h5.1c1.2,0,2.3,0.5,3.1,1.4c0.8,0.9,1,2.1,0.8,3.2l-4.9,23.2c-0.4,1.8-2,3.1-3.9,3.1h-9.7c-0.1,1.5,0,3,0.3,4.4
					l0.5,2.3l-25.1,4.9c-0.4,0.1-0.7,0.4-0.8,0.8l-2.4,6.3c-0.1,0.2-0.3,0.6-0.3,0.9l0,0h0c-0.5,2.1-0.1,5.6,1.1,5.6h26.9l-1.2,1.3
					l-1.5,4.7h170.7C708.2,399,707.8,375.9,705.1,369.5z M586.8,355.1l-2.5,22.8c0,0.3-0.1,0.6-0.1,0.9c-0.9,4.7-5.2,7.9-10,7.9
					l-11.3,0c-2.2,0-3.9-2-3.4-4.2l5.3-27.5c0.4-1.8,2-3.1,3.8-3.1H584c0.8,0,1.6,0.4,2.2,1C586.7,353.5,586.9,354.3,586.8,355.1z"
					/>
				<g>
					<path class="st6" d="M628.8,425.6l-72.6,1c-0.5,0-1.3-1.4-1.3-1.9v-8.1c0-0.5,0.4-0.9,0.9-0.9h73.1c0.5,0,0.9,0.4,0.9,0.9v8.1
						C629.7,425.3,629.3,425.6,628.8,425.6z"/>
				</g>
				<g>
					<defs>
						<path id="SVGID_1_" d="M586.8,355.1l-2.5,22.8c0,0.3-0.1,0.6-0.1,0.9c-0.9,4.7-5.2,7.9-10,7.9l-11.3,0c-2.2,0-3.9-2-3.4-4.2
							l5.3-27.5c0.4-1.8,2-3.1,3.8-3.1H584c0.8,0,1.6,0.4,2.2,1C586.7,353.5,586.9,354.3,586.8,355.1z"/>
					</defs>
					<use xlink:href="#SVGID_1_"  style="overflow:visible;fill:#E8505B;"/>
					<clipPath id="SVGID_2_">
						<use xlink:href="#SVGID_1_"  style="overflow:visible;"/>
					</clipPath>
					<g class="st15">
						<g>
							<path class="st7" d="M708.2,416.2c0-0.7,0-1.5-0.2-1.8H537.7c-0.2,0.3-0.3,1.1-0.2,1.8H708.2z"/>
							<g>
								<defs>
									<path id="SVGID_3_" d="M550.8,347.6l-10.3,31.9c-0.8,2.5-1,5.3-0.4,7.9l4.4,20.4h27.8h31.8v-58.9c0-2.1-1.7-3.8-3.8-3.8
										h-45.8C552.8,344.9,551.4,346,550.8,347.6z"/>
								</defs>
								<use xlink:href="#SVGID_3_"  style="overflow:visible;fill:#E8505B;"/>
								<clipPath id="SVGID_4_">
									<use xlink:href="#SVGID_3_"  style="overflow:visible;"/>
								</clipPath>
							</g>
						</g>
					</g>
				</g>
				<path class="st6" d="M562.9,386.7c-2.2,0-3.9-2-3.4-4.2l5.3-27.5c0.4-1.8,2-3.1,3.8-3.1H584c0.8,0,1.6,0.4,2.2,1
					c0.5,0.6,0.8,1.4,0.7,2.2l-2.5,22.8c0,0.3-0.1,0.6-0.1,0.9c-0.9,4.7-5.2,7.9-10,7.9L562.9,386.7z"/>
				<path class="st6" d="M539.9,382.9c0.1-1.1,0.3-2.2,0.7-3.3l8.9-27.6h5.1c1.2,0,2.3,0.5,3.1,1.4c0.8,0.9,1,2.1,0.8,3.2l-4.9,23.2
					c-0.4,1.8-2,3.1-3.9,3.1H539.9z"/>
				<path class="st5" d="M708.3,418.8H537.7c-1.3,0-1.3-4.7,0-4.7h170.6C709.6,414,709.6,418.8,708.3,418.8z"/>
				<g>
					<path class="st5" d="M604.3,365.7c0,0,0,0.1,0,0.3c0,0.2,0,0.4,0,0.7c0,0.7,0,1.6-0.1,2.8c-0.1,2.5-0.2,6.1-0.3,10.5
						c-0.2,4.4-0.3,9.7-0.5,15.5c-0.1,1.5-0.1,3-0.2,4.5c-0.1,1.5-0.2,3.2-1,4.6c-0.8,1.5-2.3,2.5-3.9,3c-1.6,0.5-3.3,0.6-5,0.6
						c-13.5-0.3-25.6-0.5-34.5-0.6c-4.4-0.1-7.9-0.2-10.5-0.3c-1.2,0-2.2-0.1-2.8-0.1c-0.3,0-0.5,0-0.7,0c-0.2,0-0.3,0-0.3,0
						c0,0,0.1,0,0.3,0c0.2,0,0.4,0,0.7,0c0.7,0,1.6,0,2.8,0c2.5,0,6.1,0.1,10.5,0.1c8.9,0.1,21,0.3,34.5,0.5c1.7,0,3.3-0.1,4.9-0.6
						c1.5-0.4,2.9-1.4,3.6-2.7c0.7-1.3,0.9-2.9,1-4.4c0.1-1.5,0.1-3,0.2-4.5c0.2-5.8,0.5-11.1,0.7-15.5c0.2-4.4,0.4-7.9,0.5-10.4
						c0.1-1.2,0.1-2.1,0.2-2.8c0-0.3,0-0.5,0.1-0.7C604.3,365.8,604.3,365.7,604.3,365.7z"/>
				</g>
				<g>
					<path class="st5" d="M555.7,407.9c-0.1,0-0.3-5-0.3-11.2c0-6.2,0.1-11.2,0.3-11.2c0.1,0,0.3,5,0.3,11.2
						C555.9,402.9,555.8,407.9,555.7,407.9z"/>
				</g>
				<g>
					<path class="st5" d="M564.6,345.1c0,0,0,0.6-0.2,1.6c-0.2,1-0.4,2.5-0.7,4.4c-0.7,3.7-1.6,8.7-2.9,14.3
						c-1.2,5.6-2.5,10.6-3.5,14.2c-0.5,1.8-0.9,3.3-1.2,4.3c-0.3,1-0.5,1.5-0.5,1.5c0,0,0.1-0.6,0.3-1.6c0.3-1.1,0.6-2.6,1-4.3
						c0.9-3.6,2.1-8.6,3.3-14.2c1.2-5.6,2.3-10.6,3-14.3c0.4-1.8,0.7-3.2,0.9-4.3C564.4,345.6,564.6,345.1,564.6,345.1z"/>
				</g>
				<g>
					<path class="st7" d="M584.3,395.7c0-0.1,0.4,0,0.9-0.4c0.3-0.2,0.5-0.5,0.6-0.9c0.1-0.4,0.1-1-0.2-1.4
						c-0.3-0.5-0.8-0.8-1.5-0.8c-0.7,0-1.5,0-2.3,0c-1.6,0-3.4,0-5.2,0c-0.8,0-1.5,0.7-1.5,1.4c-0.1,0.8,0.4,1.5,1,1.7
						c0.2,0.1,0.3,0.1,0.5,0.1c0.2,0,0.4,0,0.6,0c0.4,0,0.7,0,1.1,0c0.7,0,1.4,0,2,0c1.2,0,2.2,0.1,2.9,0.1
						C584,395.7,584.3,395.7,584.3,395.7c0,0-0.4,0.1-1,0.1c-0.7,0-1.7,0.1-2.9,0.1c-0.6,0-1.3,0-2,0c-0.4,0-0.7,0-1.1,0
						c-0.2,0-0.4,0-0.6,0c-0.2,0-0.4,0-0.7-0.1c-0.9-0.3-1.5-1.3-1.4-2.2c0-1,1-1.9,2-1.9c1.8,0,3.6,0,5.2,0c0.8,0,1.5,0,2.3,0
						c0.8,0,1.5,0.4,1.8,1c0.2,0.3,0.2,0.6,0.2,0.9c0,0.3,0,0.6-0.1,0.8c-0.2,0.5-0.5,0.8-0.8,1c-0.3,0.2-0.6,0.2-0.8,0.2
						C584.4,395.8,584.3,395.8,584.3,395.7z"/>
				</g>
				<g>
					<g>
						<path class="st5" d="M697.1,371.2c0,0.1-7,0.3-15.6,0.3c-8.6,0-15.6-0.1-15.6-0.3s7-0.3,15.6-0.3
							C690.1,370.9,697.1,371.1,697.1,371.2z"/>
					</g>
					<g>
						<path class="st5" d="M697.1,374.3c0,0.1-7,0.3-15.6,0.3c-8.6,0-15.6-0.1-15.6-0.3c0-0.1,7-0.3,15.6-0.3
							C690.1,374,697.1,374.2,697.1,374.3z"/>
					</g>
					<g>
						<path class="st5" d="M697.1,377.4c0,0.1-7,0.3-15.6,0.3c-8.6,0-15.6-0.1-15.6-0.3c0-0.1,7-0.3,15.6-0.3
							C690.1,377.1,697.1,377.3,697.1,377.4z"/>
					</g>
					<g>
						<path class="st5" d="M697.1,380.5c0,0.1-7,0.3-15.6,0.3c-8.6,0-15.6-0.1-15.6-0.3c0-0.1,7-0.3,15.6-0.3
							C690.1,380.2,697.1,380.4,697.1,380.5z"/>
					</g>
					<g>
						<path class="st5" d="M697.1,383.6c0,0.1-7,0.3-15.6,0.3c-8.6,0-15.6-0.1-15.6-0.3s7-0.3,15.6-0.3
							C690.1,383.3,697.1,383.5,697.1,383.6z"/>
					</g>
					<g>
						<path class="st5" d="M697.1,386.7c0,0.1-7,0.3-15.6,0.3c-8.6,0-15.6-0.1-15.6-0.3s7-0.3,15.6-0.3
							C690.1,386.4,697.1,386.6,697.1,386.7z"/>
					</g>
					<g>
						<path class="st5" d="M697.1,389.8c0,0.1-7,0.3-15.6,0.3c-8.6,0-15.6-0.1-15.6-0.3c0-0.1,7-0.3,15.6-0.3
							C690.1,389.5,697.1,389.7,697.1,389.8z"/>
					</g>
				</g>
				<path class="st5" d="M520.2,463.5c-9.4,0-17.2-9-17.2-18.4c0-9.4,8.2-17.2,17.6-17.2l150.6-6.8c7.8-0.4,15.3,3.6,18.9,10.5
					c1.9,3.6,2.9,8.3,1.7,14c-3.9,18.2-19.1,18-25,17.6C660.9,462.7,520.2,463.5,520.2,463.5z"/>
				<circle class="st6" cx="520.2" cy="445" r="14.1"/>
				<circle class="st6" cx="670.2" cy="442.1" r="18.2"/>
				<g>
					<path class="st6" d="M672.3,424.5c0,0-0.1,0-0.4,0.1c-0.3,0-0.7,0.1-1.1,0.1c-1,0.1-2.5,0.3-4.4,0.4c-3.8,0.4-9.4,0.9-16.3,1.4
						c-13.8,1.1-32.8,2.4-53.9,3.4c-21.1,0.9-40.1,1.3-54,1.4c-6.9,0-12.5,0-16.4,0c-1.9,0-3.4,0-4.4-0.1c-0.5,0-0.9,0-1.2,0
						c-0.3,0-0.4,0-0.4,0s0.1,0,0.4,0c0.3,0,0.7,0,1.2,0c1,0,2.5,0,4.4,0c3.9,0,9.5-0.1,16.4-0.2c13.8-0.2,32.9-0.6,53.9-1.5
						c21-0.9,40.1-2.2,53.9-3.2c6.9-0.5,12.4-1,16.3-1.3c1.9-0.1,3.4-0.3,4.4-0.3c0.5,0,0.9-0.1,1.2-0.1
						C672.1,424.5,672.3,424.5,672.3,424.5z"/>
				</g>
				<g>
					<path class="st6" d="M666.5,458.6c0,0.1-32.8,0.3-73.1,0.3c-40.4,0-73.2-0.1-73.2-0.3c0-0.1,32.7-0.3,73.2-0.3
						C633.7,458.3,666.5,458.4,666.5,458.6z"/>
				</g>
				<g>
					<path class="st7" d="M545.3,407.4c-0.1,0-0.4-1.3-1-3.5c-0.6-2.2-1.5-5.2-2.4-8.6c-0.9-3.4-1.6-6.5-1.9-8.7
						c-0.1-1.1-0.2-2.1-0.2-2.7c0-0.6,0.1-1,0.1-1c0.1,0,0,1.4,0.4,3.6c0.4,2.2,1.1,5.3,2,8.6c0.9,3.4,1.7,6.4,2.3,8.6
						c0.3,1.1,0.5,2,0.6,2.6C545.3,407,545.3,407.4,545.3,407.4z"/>
				</g>
				<g>
					<path class="st9" d="M660.2,453.3c0,0-0.4-0.2-1-0.7c-0.6-0.5-1.5-1.3-2.3-2.5c-0.9-1.2-1.7-2.7-2.2-4.6
						c-0.5-1.8-0.7-4-0.3-6.2c0.4-2.2,1.4-4.1,2.6-5.6c1.2-1.5,2.5-2.7,3.7-3.4c1.2-0.8,2.3-1.2,3.1-1.4c0.8-0.2,1.2-0.3,1.2-0.2
						c0,0.1-1.8,0.4-4.1,2c-1.2,0.8-2.4,1.9-3.6,3.4c-1.1,1.5-2,3.4-2.5,5.5c-0.4,2.1-0.2,4.2,0.2,6c0.5,1.8,1.2,3.3,2,4.5
						C658.7,452.3,660.3,453.3,660.2,453.3z"/>
				</g>
				<g>
					<g>
						<path class="st13" d="M581.2,367.8c0.1,0.1-3.4,2.8-7.8,6c-4.4,3.2-8,5.7-8.1,5.6c-0.1-0.1,3.4-2.8,7.8-6
							C577.4,370.2,581.1,367.7,581.2,367.8z"/>
					</g>
					<g>
						<path class="st13" d="M582.4,363.6c0.1,0.1-3,2.4-6.8,5.1c-3.8,2.7-7,4.8-7.1,4.7c-0.1-0.1,3-2.4,6.8-5.1
							C579.1,365.6,582.3,363.5,582.4,363.6z"/>
					</g>
					<g>
						<path class="st13" d="M553,370.1c0.1,0.1-1.5,1.3-3.5,2.7c-2,1.4-3.7,2.4-3.8,2.3c-0.1-0.1,1.5-1.3,3.5-2.7
							C551.3,371.1,553,370,553,370.1z"/>
					</g>
					<g>
						<path class="st13" d="M555.1,366.2c0.1,0.1-1.7,1.6-3.9,3.4c-2.3,1.8-4.2,3.1-4.3,3c-0.1-0.1,1.7-1.6,3.9-3.4
							C553.1,367.4,555,366.1,555.1,366.2z"/>
					</g>
					<g>
						<path class="st7" d="M586.4,390.5c0,0.1-2.5,0.3-5.6,0.3c-3.1,0-5.6-0.1-5.6-0.3s2.5-0.3,5.6-0.3
							C583.9,390.2,586.4,390.4,586.4,390.5z"/>
					</g>
				</g>
				<g>
					<path class="st9" d="M517.4,456.9c0,0-0.5,0-1.2-0.3c-0.8-0.2-1.9-0.7-3.1-1.5c-1.2-0.8-2.5-2-3.6-3.6c-1.1-1.6-1.9-3.6-2-5.9
						c-0.1-2.2,0.4-4.4,1.2-6.1c0.8-1.7,1.9-3.1,3-4.1c1.1-1,2.1-1.6,2.8-1.9c0.7-0.3,1.2-0.5,1.2-0.4c0.1,0.1-1.7,0.6-3.8,2.6
						c-1,1-2.1,2.3-2.8,4c-0.8,1.7-1.2,3.7-1.1,5.9c0.2,2.1,0.9,4.1,1.9,5.7c1,1.6,2.2,2.8,3.4,3.6
						C515.6,456.5,517.5,456.8,517.4,456.9z"/>
				</g>
				<g>
					<path class="st13" d="M538.7,401.4c0,0.1-5.4,0.3-12.1,0.3c-6.7,0-12.1-0.1-12.1-0.3s5.4-0.3,12.1-0.3
						C533.3,401.1,538.7,401.3,538.7,401.4z"/>
				</g>
			</g>
		</g>
		<path class="st7" d="M429.5,105.1l-9.1-19.6c-2.8-6.1-10-8.7-16.1-5.9h0c-6.1,2.8-8.7,10-5.9,16.1l9.1,19.6c0.2,0.4,0.6,0.5,1,0.4
			l20.6-9.6C429.5,105.9,429.7,105.5,429.5,105.1z"/>
	</g>
</g>
<g id="Fence">
	<g>
		<g>
			<g>
				<g>
					<rect x="74.8" y="368.6" class="st1" width="5.1" height="94.5"/>
				</g>
				<path class="st7" d="M82.5,365.4c0,2.9-2.3,5.2-5.2,5.2s-5.2-2.3-5.2-5.2c0-2.9,2.3-5.2,5.2-5.2S82.5,362.5,82.5,365.4z"/>
			</g>
			<g>
				<g>
					<rect x="176.9" y="368.6" class="st1" width="5.1" height="94.5"/>
				</g>
				<path class="st7" d="M184.7,365.4c0,2.9-2.3,5.2-5.2,5.2c-2.9,0-5.2-2.3-5.2-5.2c0-2.9,2.3-5.2,5.2-5.2
					C182.3,360.2,184.7,362.5,184.7,365.4z"/>
			</g>
			<g>
				<rect x="60.1" y="377.7" class="st7" width="131.7" height="23.6"/>
				<polygon class="st0" points="75,377.7 74.8,378.1 61.2,401.3 60.1,401.3 60.1,377.7 				"/>
				<polygon class="st0" points="108.3,377.7 94.5,401.3 76.5,401.3 82,391.9 90.3,377.7 				"/>
				<polygon class="st0" points="141.5,377.7 127.8,401.3 109.8,401.3 123.6,377.7 				"/>
				<polygon class="st0" points="174.8,377.7 161,401.3 143,401.3 156.8,377.7 				"/>
				<polygon class="st0" points="191.8,377.7 191.8,401.3 176.3,401.3 190.1,377.7 				"/>
			</g>
			<g>
				<rect x="60.1" y="414.1" class="st7" width="131.7" height="23.6"/>
				<polygon class="st0" points="75,414.1 74.8,414.5 61.2,437.7 60.1,437.7 60.1,414.1 				"/>
				<polygon class="st0" points="108.3,414.1 94.5,437.7 76.5,437.7 82,428.3 90.3,414.1 				"/>
				<polygon class="st0" points="141.5,414.1 127.8,437.7 109.8,437.7 123.6,414.1 				"/>
				<polygon class="st0" points="174.8,414.1 161,437.7 143,437.7 156.8,414.1 				"/>
				<polygon class="st0" points="191.8,414.1 191.8,437.7 176.3,437.7 190.1,414.1 				"/>
			</g>
		</g>
		<g>
			<path class="st5" d="M191.8,401.3c0,0,0-0.1,0-0.4c0-0.3,0-0.7,0-1.2c0-1,0-2.6,0-4.6c0-4,0-9.9-0.1-17.4l0.1,0.1
				c-27,0-75.9,0.1-131.7,0.1h0l0.3-0.3c0,8.1,0,16,0,23.6l-0.3-0.3c37.3,0,70.2,0.1,93.7,0.1c11.8,0,21.3,0.1,27.8,0.1
				c3.3,0,5.8,0,7.5,0c0.8,0,1.5,0,2,0C191.5,401.3,191.8,401.3,191.8,401.3s-0.2,0-0.6,0c-0.4,0-1.1,0-1.9,0c-1.7,0-4.2,0-7.5,0
				c-6.5,0-16,0-27.7,0.1c-23.6,0-56.6,0.1-93.9,0.1l-0.3,0l0-0.3c0-7.6,0-15.5,0-23.6v-0.3h0.3h0c55.8,0.1,104.7,0.1,131.7,0.1
				l0.1,0l0,0.1c0,7.5-0.1,13.4-0.1,17.5c0,2,0,3.5,0,4.5c0,0.5,0,0.9,0,1.2C191.8,401.1,191.8,401.3,191.8,401.3z"/>
		</g>
		<g>
			<path class="st5" d="M191.8,437.7c0,0,0-0.1,0-0.4c0-0.3,0-0.7,0-1.2c0-1,0-2.6,0-4.6c0-4,0-9.9-0.1-17.4l0.1,0.1
				c-27,0-75.9,0.1-131.7,0.1h0l0.3-0.3c0,8.1,0,16,0,23.6l-0.3-0.3c37.3,0,70.2,0.1,93.7,0.1c11.8,0,21.3,0.1,27.8,0.1
				c3.3,0,5.8,0,7.5,0c0.8,0,1.5,0,2,0C191.5,437.7,191.8,437.7,191.8,437.7s-0.2,0-0.6,0c-0.4,0-1.1,0-1.9,0c-1.7,0-4.2,0-7.5,0
				c-6.5,0-16,0-27.7,0.1c-23.6,0-56.6,0.1-93.9,0.1l-0.3,0l0-0.3c0-7.6,0-15.5,0-23.6v-0.3h0.3h0c55.8,0.1,104.7,0.1,131.7,0.1
				l0.1,0l0,0.1c0,7.5-0.1,13.4-0.1,17.5c0,2,0,3.5,0,4.5c0,0.5,0,0.9,0,1.2C191.8,437.5,191.8,437.7,191.8,437.7z"/>
		</g>
	</g>
</g>
<g id="Floor">
	<g>
		<path class="st5" d="M701.8,463.5c0,0.1-145.4,0.3-324.8,0.3c-179.4,0-324.8-0.1-324.8-0.3s145.4-0.3,324.8-0.3
			C556.4,463.2,701.8,463.3,701.8,463.5z"/>
	</g>
</g>
</svg>
