<?xml version="1.0" encoding="utf-8"?>
<!-- Generator: Adobe Illustrator 22.0.1, SVG Export Plug-In . SVG Version: 6.00 Build 0)  -->
<svg version="1.1" xmlns="http://www.w3.org/2000/svg" xmlns:xlink="http://www.w3.org/1999/xlink" x="0px" y="0px"
	 viewBox="0 0 500 500" style="enable-background:new 0 0 500 500;" xml:space="preserve">
<style type="text/css">
	.st0{fill:#EBEBEB;}
	.st1{fill:#E0E0E0;}
	.st2{fill:#F0F0F0;}
	.st3{fill:#E6E6E6;}
	.st4{fill:#FAFAFA;}
	.st5{fill:#F0F0F0;stroke:#E0E0E0;stroke-width:2;stroke-linecap:round;stroke-linejoin:round;stroke-miterlimit:10;}
	.st6{display:none;}
	.st7{display:inline;}
	.st8{fill:#407BFF;}
	.st9{opacity:0.9;fill:#FFFFFF;}
	.st10{fill:#F5F5F5;}
	.st11{opacity:0.5;fill:#407BFF;}
	.st12{opacity:0.8;fill:#FFFFFF;enable-background:new    ;}
	.st13{opacity:0.6;fill:#FFFFFF;enable-background:new    ;}
	.st14{opacity:0.2;enable-background:new    ;}
	.st15{fill:#FFFFFF;}
	.st16{fill:none;stroke:#407BFF;stroke-width:1.5;stroke-linecap:round;stroke-linejoin:round;stroke-miterlimit:10;}
	.st17{opacity:0.4;fill:#FFFFFF;enable-background:new    ;}
	.st18{opacity:0.6;enable-background:new    ;}
	.st19{opacity:0.5;fill:#FFFFFF;enable-background:new    ;}
	.st20{opacity:0.3;fill:#FFFFFF;enable-background:new    ;}
	.st21{fill:none;stroke:#263238;stroke-miterlimit:10;}
	.st22{fill:none;stroke:#263238;stroke-miterlimit:10;stroke-dasharray:4.1812,3.1359;}
	.st23{fill:none;stroke:#263238;stroke-miterlimit:10;stroke-dasharray:3.8548,2.8911;}
	.st24{fill:#263238;}
	.st25{fill:#EBB376;}
	.st26{opacity:0.1;clip-path:url(#XMLID_4_);enable-background:new    ;}
	.st27{opacity:0.1;clip-path:url(#XMLID_5_);enable-background:new    ;}
</style>
<g id="Background_Complete">
	<g>
		<rect y="382.4" class="st0" width="500" height="0.3"/>
		<rect x="416.8" y="398.5" class="st0" width="33.1" height="0.3"/>
		<rect x="322.5" y="401.2" class="st0" width="8.7" height="0.3"/>
		<rect x="396.6" y="389.2" class="st0" width="19.2" height="0.3"/>
		<rect x="52.5" y="390.9" class="st0" width="43.2" height="0.3"/>
		<rect x="104.6" y="390.9" class="st0" width="6.3" height="0.3"/>
		<rect x="131.5" y="395.1" class="st0" width="93.7" height="0.3"/>
		<path class="st0" d="M237,337.8H43.9c-3.1,0-5.7-2.6-5.7-5.7V60.7c0-3.1,2.6-5.7,5.7-5.7H237c3.1,0,5.7,2.6,5.7,5.7v271.4
			C242.7,335.2,240.2,337.8,237,337.8z M43.9,55.2c-3,0-5.5,2.4-5.5,5.5v271.4c0,3,2.4,5.5,5.5,5.5H237c3,0,5.5-2.4,5.5-5.5V60.7
			c0-3-2.4-5.5-5.5-5.5H43.9z"/>
		<path class="st0" d="M453.3,337.8H260.2c-3.1,0-5.7-2.6-5.7-5.7V60.7c0-3.1,2.6-5.7,5.7-5.7h193.1c3.1,0,5.7,2.6,5.7,5.7v271.4
			C459,335.2,456.5,337.8,453.3,337.8z M260.2,55.2c-3,0-5.5,2.4-5.5,5.5v271.4c0,3,2.4,5.5,5.5,5.5h193.1c3,0,5.5-2.4,5.5-5.5V60.7
			c0-3-2.4-5.5-5.5-5.5H260.2z"/>
	</g>
	<g>
		<g>
			<g>
				<g>
					<g>
						<path class="st1" d="M85.4,345.8c0-0.4,1.3-39.7,7.7-45.9c6.2-6,13.3-0.2,13.6,0l0.6-0.8c-0.1-0.1-8.1-6.6-15,0
							c-6.7,6.5-8,44.9-8,46.6L85.4,345.8z"/>
					</g>
					<g>
						<path class="st1" d="M84.8,353.5c0-0.5,4.4-47.2-12.7-66.7l-0.8,0.7c16.8,19.2,12.5,65.5,12.4,66L84.8,353.5z"/>
					</g>
					<g>
						<path class="st1" d="M85.5,348.6l1-0.1c0-0.5-3.3-53.1,9.2-64.6l-0.7-0.7C82.1,295.1,85.3,346.4,85.5,348.6z"/>
					</g>
					<g>
						<path class="st1" d="M83.8,348.6l1,0c0-1.4-0.4-35.5-10.1-41c-2.1-1.2-4.3-1.4-6.3-0.6c-5.8,2.4-8.7,12.8-8.9,13.3l1,0.3
							c0-0.1,2.9-10.4,8.3-12.6c1.7-0.7,3.5-0.5,5.4,0.6C83.4,313.7,83.8,348.2,83.8,348.6z"/>
					</g>
					<g>
						<path class="st1" d="M87.6,348.6l1-0.1c0-0.3-1.5-26.9,5.7-36.3c1.7-2.3,3.6-3.4,5.6-3.2c4.7,0.3,8.7,7.2,8.7,7.3l0.9-0.5
							c-0.2-0.3-4.3-7.4-9.5-7.8c-2.3-0.2-4.5,1-6.5,3.6C86.1,321.3,87.5,347.5,87.6,348.6z"/>
					</g>
					<g>
						<path class="st1" d="M86,352.2c0.2-2.6,4.7-63.4-3.2-74.1l-0.8,0.6c7.7,10.4,3.1,72.8,3,73.4L86,352.2z"/>
					</g>
				</g>
				<g>
					<path class="st0" d="M66.3,313.1c0,0,4.8,1.8,3.3,5.9c-1.4,4.1-16.4,10.9-16.4,10.9s-6.3-5.8-0.5-15.2
						C58.5,305.4,66.2,310.1,66.3,313.1z"/>
				</g>
				<g>
					<path class="st0" d="M87,305.2c0,0-5.1-0.2-5.3,4.2c-0.3,4.4,11,16.4,11,16.4s8-2.9,6.3-13.8C97.2,301.1,88.3,302.5,87,305.2z"
						/>
				</g>
				<g>
					<path class="st0" d="M91.3,284.3c0,0-3.4-0.4-3.1-2.4c0.3-2.1,13.1-7.3,20.7,1.2c0,0-4.9,8.3-11.9,8.4
						C90,291.7,91.3,284.3,91.3,284.3z"/>
				</g>
				<g>
					<path class="st0" d="M85,279.3c0,0,3.1,1.5,3.9-0.4c0.9-1.9-7.2-13.2-18.2-9.9c0,0-0.3,9.6,5.6,13.4
						C82.2,286.3,85,279.3,85,279.3z"/>
				</g>
				<g>
					<path class="st0" d="M101,311.4c0,0-2.3-1.9,0.2-2.8c2.5-0.9,14.8-0.7,15,11.6c0,0-14.4,2.4-16.1-2.3
						C98.2,313.3,101,311.4,101,311.4z"/>
				</g>
				<g>
					<path class="st0" d="M71.7,284c0,0,2.3-1.9-0.2-2.8c-2.5-0.9-14.8-0.7-15,11.6c0,0,14.4,2.4,16.1-2.3
						C74.5,285.9,71.7,284,71.7,284z"/>
				</g>
				<g>
					<path class="st0" d="M79.3,293.9c0,0,0.2-2.3-1.6-1.4c-1.8,0.9-8.3,7.8-1.6,14.4c0,0,9-6.6,7.4-10.1
						C81.8,293.3,79.3,293.9,79.3,293.9z"/>
				</g>
				<g>
					<path class="st0" d="M103.1,297.1c0,0-1.4-1.8,0.6-2.1c2-0.2,11.2,2.2,9,11.3c0,0-11.1-0.8-11.6-4.6
						C100.7,298,103.1,297.1,103.1,297.1z"/>
				</g>
				<polygon class="st2" points="65.5,382.4 103.7,382.4 107.8,340.6 61.3,340.6 				"/>
				
					<rect x="59.3" y="336" transform="matrix(-1 -1.224647e-16 1.224647e-16 -1 169.1059 681.2356)" class="st3" width="50.5" height="9.2"/>
			</g>
			<g>
				<g>
					<g>
						<path class="st1" d="M414.2,345.8c0-0.4-1.3-39.7-7.7-45.9c-6.2-6-13.3-0.2-13.6,0l-0.6-0.8c0.1-0.1,8.1-6.6,15,0
							c6.7,6.5,8,44.9,8,46.6L414.2,345.8z"/>
					</g>
					<g>
						<path class="st1" d="M414.8,353.5c0-0.5-4.4-47.2,12.7-66.7l0.8,0.7c-16.8,19.2-12.5,65.5-12.4,66L414.8,353.5z"/>
					</g>
					<g>
						<path class="st1" d="M414.1,348.6l-1-0.1c0-0.5,3.3-53.1-9.2-64.6l0.7-0.7C417.5,295.1,414.3,346.4,414.1,348.6z"/>
					</g>
					<g>
						<path class="st1" d="M415.8,348.6l-1,0c0-1.4,0.4-35.5,10.1-41c2.1-1.2,4.3-1.4,6.3-0.6c5.8,2.4,8.7,12.8,8.9,13.3l-1,0.3
							c0-0.1-2.9-10.4-8.3-12.6c-1.7-0.7-3.5-0.5-5.4,0.6C416.2,313.7,415.8,348.2,415.8,348.6z"/>
					</g>
					<g>
						<path class="st1" d="M412,348.6l-1-0.1c0-0.3,1.5-26.9-5.7-36.3c-1.7-2.3-3.6-3.4-5.6-3.2c-4.7,0.3-8.7,7.2-8.7,7.3l-0.9-0.5
							c0.2-0.3,4.3-7.4,9.5-7.8c2.3-0.2,4.5,1,6.5,3.6C413.5,321.3,412.1,347.5,412,348.6z"/>
					</g>
					<g>
						<path class="st1" d="M413.6,352.2c-0.2-2.6-4.7-63.4,3.2-74.1l0.8,0.6c-7.7,10.4-3.1,72.8-3,73.4L413.6,352.2z"/>
					</g>
				</g>
				<g>
					<path class="st0" d="M433.3,313.1c0,0-4.8,1.8-3.3,5.9c1.4,4.1,16.4,10.9,16.4,10.9s6.3-5.8,0.5-15.2
						C441.1,305.4,433.4,310.1,433.3,313.1z"/>
				</g>
				<g>
					<path class="st0" d="M412.6,305.2c0,0,5.1-0.2,5.3,4.2c0.3,4.4-11,16.4-11,16.4s-8-2.9-6.3-13.8
						C402.4,301.1,411.3,302.5,412.6,305.2z"/>
				</g>
				<g>
					<path class="st0" d="M408.3,284.3c0,0,3.4-0.4,3.1-2.4c-0.3-2.1-13.1-7.3-20.7,1.2c0,0,4.9,8.3,11.9,8.4
						C409.6,291.7,408.3,284.3,408.3,284.3z"/>
				</g>
				<g>
					<path class="st0" d="M414.6,279.3c0,0-3.1,1.5-3.9-0.4c-0.9-1.9,7.2-13.2,18.2-9.9c0,0,0.3,9.6-5.6,13.4
						C417.4,286.3,414.6,279.3,414.6,279.3z"/>
				</g>
				<g>
					<path class="st0" d="M398.6,311.4c0,0,2.3-1.9-0.2-2.8c-2.5-0.9-14.8-0.7-15,11.6c0,0,14.4,2.4,16.1-2.3
						C401.4,313.3,398.6,311.4,398.6,311.4z"/>
				</g>
				<g>
					<path class="st0" d="M427.9,284c0,0-2.3-1.9,0.2-2.8c2.5-0.9,14.8-0.7,15,11.6c0,0-14.4,2.4-16.1-2.3
						C425.2,285.9,427.9,284,427.9,284z"/>
				</g>
				<g>
					<path class="st0" d="M420.3,293.9c0,0-0.2-2.3,1.6-1.4c1.8,0.9,8.3,7.8,1.6,14.4c0,0-9-6.6-7.4-10.1
						C417.8,293.3,420.3,293.9,420.3,293.9z"/>
				</g>
				<g>
					<path class="st0" d="M396.5,297.1c0,0,1.4-1.8-0.6-2.1c-2-0.2-11.2,2.2-9,11.3c0,0,11.1-0.8,11.6-4.6
						C398.9,298,396.5,297.1,396.5,297.1z"/>
				</g>
				<polygon class="st2" points="434.2,382.4 396,382.4 391.8,340.6 438.3,340.6 				"/>
				<rect x="389.8" y="336" class="st3" width="50.5" height="9.2"/>
			</g>
		</g>
		<g>
			<g>
				<rect x="136" y="127.8" class="st4" width="101.7" height="204.5"/>
				<rect x="133.7" y="125" class="st2" width="106.4" height="10"/>
				<g>
					<rect x="133.7" y="136.1" class="st2" width="106.4" height="5"/>
					<rect x="133.7" y="143.6" class="st2" width="106.4" height="5"/>
					<rect x="133.7" y="151" class="st2" width="106.4" height="5"/>
					<rect x="133.7" y="158.5" class="st2" width="106.4" height="5"/>
					<rect x="133.7" y="165.9" class="st2" width="106.4" height="5"/>
					<rect x="133.7" y="173.4" class="st2" width="106.4" height="5"/>
					<rect x="133.7" y="180.8" class="st2" width="106.4" height="5"/>
					<rect x="133.7" y="188.3" class="st2" width="106.4" height="5"/>
					<rect x="133.7" y="195.7" class="st2" width="106.4" height="5"/>
					<rect x="133.7" y="203.2" class="st2" width="106.4" height="5"/>
					<rect x="133.7" y="210.6" class="st2" width="106.4" height="5"/>
					<rect x="133.7" y="218.1" class="st2" width="106.4" height="5"/>
					<rect x="133.7" y="225.5" class="st2" width="106.4" height="5"/>
					<rect x="133.7" y="233" class="st2" width="106.4" height="5"/>
					<rect x="133.7" y="240.4" class="st2" width="106.4" height="5"/>
					<rect x="133.7" y="247.9" class="st2" width="106.4" height="5"/>
					<rect x="133.7" y="255.3" class="st2" width="106.4" height="5"/>
					<rect x="133.7" y="262.8" class="st2" width="106.4" height="5"/>
					<rect x="133.7" y="270.2" class="st2" width="106.4" height="5"/>
					<rect x="133.7" y="277.7" class="st2" width="106.4" height="5"/>
					<rect x="133.7" y="285.1" class="st2" width="106.4" height="5"/>
					<rect x="133.7" y="292.6" class="st2" width="106.4" height="5"/>
					<rect x="133.7" y="300" class="st2" width="106.4" height="5"/>
					<rect x="133.7" y="307.5" class="st2" width="106.4" height="5"/>
					<rect x="133.7" y="314.9" class="st2" width="106.4" height="5"/>
					<rect x="133.7" y="322.3" class="st2" width="106.4" height="5"/>
					<rect x="133.7" y="329.8" class="st2" width="106.4" height="5"/>
				</g>
			</g>
			<g>
				<rect x="262.3" y="127.8" class="st4" width="101.7" height="204.5"/>
				<rect x="259.9" y="125" class="st2" width="106.4" height="10"/>
				<g>
					<rect x="259.9" y="136.1" class="st2" width="106.4" height="0.9"/>
					<rect x="259.9" y="138.2" class="st2" width="106.4" height="0.9"/>
					<rect x="259.9" y="140.3" class="st2" width="106.4" height="0.9"/>
					<rect x="259.9" y="142.4" class="st2" width="106.4" height="0.9"/>
					<rect x="259.9" y="144.5" class="st2" width="106.4" height="0.9"/>
					<rect x="259.9" y="146.6" class="st2" width="106.4" height="0.9"/>
					<rect x="259.9" y="148.7" class="st2" width="106.4" height="0.9"/>
					<rect x="259.9" y="150.8" class="st2" width="106.4" height="0.9"/>
					<rect x="259.9" y="152.9" class="st2" width="106.4" height="0.9"/>
					<rect x="259.9" y="155" class="st2" width="106.4" height="0.9"/>
					<rect x="259.9" y="157.1" class="st2" width="106.4" height="0.9"/>
					<rect x="259.9" y="159.2" class="st2" width="106.4" height="0.9"/>
					<rect x="259.9" y="161.3" class="st2" width="106.4" height="0.9"/>
					<rect x="259.9" y="163.4" class="st2" width="106.4" height="0.9"/>
					<rect x="259.9" y="165.5" class="st2" width="106.4" height="0.9"/>
					<rect x="259.9" y="167.6" class="st2" width="106.4" height="0.9"/>
					<rect x="259.9" y="169.7" class="st2" width="106.4" height="0.9"/>
					<rect x="259.9" y="171.8" class="st2" width="106.4" height="0.9"/>
				</g>
			</g>
		</g>
		<g>
			
				<ellipse transform="matrix(0.1602 -0.9871 0.9871 0.1602 114.9161 327.6307)" class="st2" cx="250" cy="96.3" rx="15.2" ry="15.2"/>
			
				<ellipse transform="matrix(0.1602 -0.9871 0.9871 0.1602 114.9161 327.6307)" class="st4" cx="250" cy="96.3" rx="12.9" ry="12.9"/>
			<polyline class="st5" points="249.4,87.4 249.4,96.4 243.4,93.1 			"/>
		</g>
	</g>
</g>
<g id="Background_Simple" class="st6">
	<g class="st7">
		<path class="st8" d="M104.6,101.6c27.9-59.4,127.1-51.1,165.3-9.3c38.3,41.8,50.7,68.6,85.2,53c34.5-15.6,78.5-11.4,81,38.2
			S398.2,291.8,334,309.1c-64.2,17.4-64.2,78.8-149.1,66.4c-46.3-6.8-47.4-56.9-40.8-98.3S72.2,170.6,104.6,101.6z"/>
		<path class="st9" d="M104.6,101.6c27.9-59.4,127.1-51.1,165.3-9.3c38.3,41.8,50.7,68.6,85.2,53c34.5-15.6,78.5-11.4,81,38.2
			S398.2,291.8,334,309.1c-64.2,17.4-64.2,78.8-149.1,66.4c-46.3-6.8-47.4-56.9-40.8-98.3S72.2,170.6,104.6,101.6z"/>
	</g>
</g>
<g id="Shadow_1_">
	<ellipse id="_x3C_Path_x3E__359_" class="st10" cx="250" cy="416.2" rx="193.9" ry="11.3"/>
</g>
<g id="Interface">
	<g>
		<path class="st11" d="M438.5,360.5H255.8c-2,0-3.7-1.6-3.7-3.7V157.4c0-2,1.6-3.7,3.7-3.7h182.7c2,0,3.7,1.6,3.7,3.7v199.5
			C442.1,358.9,440.5,360.5,438.5,360.5z"/>
		<path class="st8" d="M432.5,356.5H249.8c-2,0-3.7-1.6-3.7-3.7V153.4c0-2,1.6-3.7,3.7-3.7h182.7c2,0,3.7,1.6,3.7,3.7v199.5
			C436.1,354.9,434.5,356.5,432.5,356.5z"/>
		<path class="st12" d="M432.5,356.5H249.8c-2,0-3.7-1.6-3.7-3.7V153.4c0-2,1.6-3.7,3.7-3.7h182.7c2,0,3.7,1.6,3.7,3.7v199.5
			C436.1,354.9,434.5,356.5,432.5,356.5z"/>
	</g>
	<g>
		<path class="st11" d="M189.1,325.6H96.4c-2,0-3.7-1.6-3.7-3.7V152.5c0-2,1.6-3.7,3.7-3.7h92.7c2,0,3.7,1.6,3.7,3.7V322
			C192.7,324,191.1,325.6,189.1,325.6z"/>
		<path class="st8" d="M183.1,319.6H90.4c-2,0-3.7-1.6-3.7-3.7V146.5c0-2,1.6-3.7,3.7-3.7h92.7c2,0,3.7,1.6,3.7,3.7V316
			C186.7,318,185.1,319.6,183.1,319.6z"/>
		<path class="st12" d="M183.1,319.6H90.4c-2,0-3.7-1.6-3.7-3.7V146.5c0-2,1.6-3.7,3.7-3.7h92.7c2,0,3.7,1.6,3.7,3.7V316
			C186.7,318,185.1,319.6,183.1,319.6z"/>
	</g>
	<g>
		<path class="st8" d="M433.1,114.6H90.6c-2.1,0-3.9-1.7-3.9-3.9V95.2c0-2.1,1.7-3.9,3.9-3.9h342.5c2.1,0,3.9,1.7,3.9,3.9v15.6
			C436.9,112.8,435.2,114.6,433.1,114.6z"/>
		<path class="st13" d="M401.4,102.9c0,2.5-2,4.5-4.5,4.5c-2.5,0-4.5-2-4.5-4.5c0-2.5,2-4.5,4.5-4.5
			C399.4,98.4,401.4,100.4,401.4,102.9z"/>
		<path class="st13" d="M415.4,102.9c0,2.5-2,4.5-4.5,4.5c-2.5,0-4.5-2-4.5-4.5c0-2.5,2-4.5,4.5-4.5
			C413.4,98.4,415.4,100.4,415.4,102.9z"/>
		<path class="st13" d="M429.5,102.9c0,2.5-2,4.5-4.5,4.5c-2.5,0-4.5-2-4.5-4.5c0-2.5,2-4.5,4.5-4.5
			C427.5,98.4,429.5,100.4,429.5,102.9z"/>
		<rect x="94.9" y="97.1" class="st13" width="11.5" height="11.7"/>
	</g>
</g>
<g id="Asset_1">
	<g>
		<g>
			<rect x="72.7" y="171" class="st8" width="107.8" height="20.6"/>
			<rect x="72.7" y="171" class="st14" width="107.8" height="20.6"/>
		</g>
		<g>
			<rect x="79.6" y="177.1" class="st15" width="8.6" height="8.6"/>
			<polyline class="st16" points="81.5,181.4 83.1,183.4 86.3,179.3 			"/>
		</g>
		<path class="st8" d="M174.8,186.2h-8.7v-5.9h8.7V186.2z M170.5,176c-2,0-3.7,1.6-3.7,3.7h1c0-1.5,1.2-2.7,2.7-2.7
			c1.5,0,2.7,1.2,2.7,2.7h1C174.2,177.7,172.5,176,170.5,176z"/>
	</g>
	<g>
		<g>
			<rect x="56.8" y="209.2" class="st8" width="107.8" height="20.6"/>
			<rect x="56.8" y="209.2" class="st17" width="107.8" height="20.6"/>
		</g>
		<g>
			<rect x="63.7" y="215.2" class="st15" width="8.6" height="8.6"/>
		</g>
		<g>
			<rect x="150.3" y="218.5" class="st15" width="8.7" height="5.9"/>
			<g>
				<path class="st15" d="M158.3,217.8h-1c0-1.5-1.2-2.7-2.7-2.7c-1.5,0-2.7,1.2-2.7,2.7h-1c0-2,1.6-3.7,3.7-3.7
					C156.7,214.2,158.3,215.8,158.3,217.8z"/>
			</g>
		</g>
	</g>
	<g>
		<g>
			<rect x="73.2" y="249.1" class="st8" width="107.8" height="20.6"/>
			<rect x="73.2" y="249.1" class="st17" width="107.8" height="20.6"/>
		</g>
		<g>
			<rect x="80.1" y="255.1" class="st15" width="8.6" height="8.6"/>
			<polyline class="st16" points="82,259.4 83.6,261.5 86.9,257.3 			"/>
		</g>
		<g class="st18">
			<rect x="166.7" y="258.4" class="st15" width="8.7" height="5.9"/>
			<g>
				<path class="st15" d="M174.7,257.8h-1c0-1.5-1.2-2.7-2.7-2.7c-1.5,0-2.7,1.2-2.7,2.7h-1c0-2,1.6-3.7,3.7-3.7
					C173.1,254.1,174.7,255.7,174.7,257.8z"/>
			</g>
		</g>
	</g>
</g>
<g id="Asset_2">
	<g>
		<g>
			<rect x="327" y="226.6" class="st8" width="84.2" height="54.8"/>
			<rect x="327" y="226.6" class="st19" width="84.2" height="54.8"/>
		</g>
		<rect x="330" y="236.9" class="st8" width="78" height="41.8"/>
		<g>
			<rect x="336.4" y="243.1" class="st15" width="57.7" height="1.8"/>
			<rect x="336.4" y="248.6" class="st15" width="27.7" height="1.8"/>
			<rect x="336.4" y="254.1" class="st15" width="34.9" height="1.8"/>
			<rect x="336.4" y="259.6" class="st15" width="12.3" height="1.8"/>
			<rect x="336.4" y="265.1" class="st15" width="8" height="1.8"/>
		</g>
	</g>
	<g>
		<path class="st8" d="M413.6,334.6v30.5c0,1.7-1.3,3.2-2.9,3.4c-0.2,0-0.3,0-0.5,0h-39.2c-1.9,0-3.5-1.5-3.5-3.5v-30.5
			c0-0.5,0.1-1.1,0.4-1.5c0.6-1.2,1.7-2,3.1-2h15.4c0.7,0,1.5-0.2,2-0.7c0.6-0.4,1-1,1.3-1.7c0.5-1.4,1.8-2.4,3.3-2.4h8.2
			c1.5,0,2.8,1,3.3,2.4c0.5,1.4,1.8,2.4,3.3,2.4h2.5C412,331.2,413.6,332.7,413.6,334.6z"/>
		<path class="st20" d="M410.6,336.1v32.5c0,0,0,0,0,0h-39.7c-1.9,0-3.5-1.5-3.5-3.5v-30.5c0-0.5,0.1-1.1,0.4-1.5h39.9
			C409.3,333.1,410.6,334.4,410.6,336.1z"/>
	</g>
	<g>
		<polygon class="st8" points="320,289.7 320,327.9 312.5,335.3 285.1,335.3 285.1,289.7 		"/>
		<polygon class="st17" points="320,289.7 320,327.9 312.5,335.3 285.1,335.3 285.1,289.7 		"/>
		<g>
			<polygon class="st8" points="320,327.9 312.5,327.9 312.5,335.3 			"/>
		</g>
		<g>
			<rect x="289.5" y="297.4" class="st8" width="26.3" height="1.4"/>
			<rect x="289.5" y="301.8" class="st8" width="22.1" height="1.4"/>
			<rect x="289.5" y="306.2" class="st8" width="26.3" height="1.4"/>
			<rect x="289.5" y="310.6" class="st8" width="9.8" height="1.4"/>
			<rect x="289.5" y="315" class="st8" width="6.3" height="1.4"/>
		</g>
	</g>
</g>
<g id="Selection">
	<g>
		<g>
			<rect x="272.3" y="143.9" class="st8" width="71.2" height="58.8"/>
			<path class="st13" d="M272.3,143.9v58.8h71.2v-58.8H272.3z M341.1,200.4h-66.5v-54.2h66.5V200.4z"/>
			<polygon class="st20" points="274.6,184.3 295,169.5 310.1,184.3 325.3,175.7 341.1,185.4 341.1,200.4 274.6,200.4 			"/>
			<path class="st13" d="M322.6,159.6c0,2.7-2.2,4.9-4.9,4.9c-2.7,0-4.9-2.2-4.9-4.9c0-2.7,2.2-4.9,4.9-4.9
				C320.5,154.7,322.6,156.9,322.6,159.6z"/>
		</g>
		<g>
			<g>
				<polyline class="st21" points="348.1,205.2 348.1,207.2 346.1,207.2 				"/>
				<line class="st22" x1="343" y1="207.2" x2="271.3" y2="207.2"/>
				<polyline class="st21" points="269.8,207.2 267.8,207.2 267.8,205.2 				"/>
				<line class="st23" x1="267.8" y1="202.3" x2="267.8" y2="143"/>
				<polyline class="st21" points="267.8,141.6 267.8,139.6 269.8,139.6 				"/>
				<line class="st22" x1="272.9" y1="139.6" x2="344.5" y2="139.6"/>
				<polyline class="st21" points="346.1,139.6 348.1,139.6 348.1,141.6 				"/>
				<line class="st23" x1="348.1" y1="144.5" x2="348.1" y2="203.7"/>
			</g>
		</g>
		<rect x="346.5" y="138" class="st24" width="3.2" height="3.2"/>
		<rect x="346.5" y="205.6" class="st24" width="3.2" height="3.2"/>
		<rect x="266.2" y="205.6" class="st24" width="3.2" height="3.2"/>
		<rect x="266.2" y="138" class="st24" width="3.2" height="3.2"/>
		<rect x="306.3" y="138" class="st24" width="3.2" height="3.2"/>
		<rect x="306.4" y="205.6" class="st24" width="3.2" height="3.2"/>
		<rect x="346.5" y="171.8" class="st24" width="3.2" height="3.2"/>
		<rect x="266.2" y="171.8" class="st24" width="3.2" height="3.2"/>
	</g>
</g>
<g id="Character">
	<g>
		<path class="st25" d="M175,236.6l-10.6,8.6c0,0-2.6,0.1-3.4,0.9c-0.8,0.9-4,7.2-3.5,8.1c0.4,0.9,5.7,2.6,6.8,1.6
			c1.1-1,3-6.9,3-7.6l13.6-9.1L175,236.6z"/>
		<g>
			<defs>
				<path id="XMLID_2_" d="M169.3,240.6l2.4,5.2c0,0,14.6-6.9,17.8-10.8c0.8-1,1.9-2.7,3.1-4.5c2-3.1,4.2-6.8,5.8-9.4
					c1.2-1.9,1.9-3.3,1.9-3.3l-8.3-13.1c-1.8,1.4-7.4,23.7-8.3,24.9C182.7,230.8,169.3,240.6,169.3,240.6z"/>
			</defs>
			<use xlink:href="#XMLID_2_"  style="overflow:visible;fill:#407BFF;"/>
			<clipPath id="XMLID_4_">
				<use xlink:href="#XMLID_2_"  style="overflow:visible;"/>
			</clipPath>
			<path class="st26" d="M192.6,230.4c2-3.1,4.2-6.8,5.8-9.4l-3.9-9.5C194.6,211.5,192.5,222.4,192.6,230.4z"/>
		</g>
		<path class="st25" d="M260,187.3l10.5-8.1c0,0,0.8-2.5,1.9-3c1.1-0.5,8.1-1.5,8.8-0.9c0.7,0.7,0.7,6.2-0.6,7
			c-1.3,0.7-7.5,0.8-8.1,0.5l-11.5,8.4L260,187.3z"/>
		<polygon class="st25" points="171.5,411 177.8,412.1 180.4,403.5 182.7,395.7 175.5,393.2 173.4,402.6 		"/>
		<polygon class="st14" points="173.4,402.8 180.3,403.7 182.7,395.8 175.5,393.2 		"/>
		<polygon class="st25" points="213.4,411.2 219.8,411.2 220.9,402.6 221.8,394.6 214.2,393.5 213.8,402.8 		"/>
		<polygon class="st14" points="213.8,403.4 220.9,403.1 221.8,394.9 214.2,393.6 		"/>
		<g>
			<g>
				<path class="st24" d="M172.8,395.9l10.3,1.8c10.4-25.9,17.8-47.6,23.1-65.6c2.8-9.7,5.1-18.3,6.7-26l-0.4,28.2v63.7h10.4
					c25.5-121,7.4-149.1,7.4-149.1l-30.5-5.1c-1.2,4.6-2,12-2.6,17.1l-1.4,10.1l-11.9,61.6L172.8,395.9z"/>
			</g>
		</g>
		<g>
			<polygon class="st8" points="184.7,396.5 171.9,392.2 172.1,397.7 182.7,401.1 			"/>
			<polygon class="st13" points="184.7,396.5 171.9,392.2 172.1,397.7 182.7,401.1 			"/>
		</g>
		<g>
			<polygon class="st8" points="224.2,397.1 210.9,395.1 212,400.4 223,401.9 			"/>
			<polygon class="st13" points="224.2,397.1 210.9,395.1 212,400.4 223,401.9 			"/>
		</g>
		<path class="st14" d="M204.7,336.9c0.5-1.6,1-3.2,1.4-4.7c2.6-8.8,4.3-16.7,6.3-23.8v0l1-13.1c0,0-6.5-14.4-4.1-24.5
			c-0.2,0.6-4.5,11.6-2.8,22.6C206.5,293.4,207.4,313.2,204.7,336.9z"/>
		<g>
			<path class="st25" d="M203.9,191.5c0.1,0.1,0.2,0.1,0.3,0.1c1.2,0.7,2.6,1.3,4.2,1.4c4.3,0.4,7-0.5,8.6-2.6c0,0,0,0,0,0
				c2.2-3.1,2.2-8.2,1.1-14.1c-0.5-2.7-1.2-5.1-2.2-6.8c0,0,0-0.1,0-0.1c0-0.1-0.1-0.2-0.1-0.2c-1.5-2.5-3.6-3.9-6.7-4.2
				c-1.1-0.1-2.3-0.1-3.6,0.1C193.6,166.4,194,186,203.9,191.5z"/>
			<path class="st14" d="M204.1,191.7c1.2,0.7,2.6,1.1,4.1,1.2c4.3,0.4,7-0.7,8.6-2.8c-2,0.7-4.7,1.2-7.5,0.4
				C207.6,189.9,205.8,190.6,204.1,191.7z"/>
			<path class="st25" d="M203.2,201.2c-1.1,3.3,3.1,5.1,3.1,5.1c7.4-2.3,9.1-6,9.1-6c-5.6-3.7-3-12.2-3-12.2l-1.3,0.5l-8.6,0.8
				c0,0,1.9,4.7,2.1,5.8c0,0,0,0,0,0C205.7,200.7,203.2,201.2,203.2,201.2z"/>
			<path class="st24" d="M215.7,169.4c0,0,1.7,8.1-5.6,12.6c0,0-2.2,8.9-7.1,9.7c-6.7,1-13.8-7.7-12.7-17.7
				C191.6,161.1,210.5,157.6,215.7,169.4z"/>
			<path class="st25" d="M213.8,179.2c-0.2-1.3-1.5-3.3-3.4-2.7c-2,0.6-2.5,5.8,2.7,6.3C213.8,182.8,214.1,181.9,213.8,179.2z"/>
		</g>
		<path class="st24" d="M220.5,409.9h-7.1c-0.3,0-0.6,0.2-0.6,0.5l-1.5,6.6c-0.1,0.6,0.3,1.2,0.8,1.3c0.1,0,0.2,0,0.2,0
			c2.9,0,3.1-0.2,6.8-0.2c2.3,0,9,0.2,12.2,0.2s3.5-3.1,2.2-3.4c-5.7-1.2-10-3-11.8-4.6C221.4,410.1,220.9,409.9,220.5,409.9z"/>
		<path class="st8" d="M221,411c-0.1,0-0.1-0.1-0.1-0.2c0-0.1,0-0.1,0.1-0.2c0.3-0.2,2.7-1.6,3.5-1.2c0.2,0.1,0.3,0.3,0.3,0.5
			c0,0.4-0.1,0.7-0.4,0.9c-0.4,0.3-0.9,0.4-1.4,0.4C222.3,411.2,221.6,411.1,221,411z M221.5,410.7c0.9,0.3,1.8,0.2,2.6-0.1
			c0.2-0.2,0.3-0.4,0.2-0.6c0-0.1-0.1-0.2-0.1-0.2c-0.1,0-0.1-0.1-0.2,0C223.1,409.9,222.3,410.2,221.5,410.7z"/>
		<path class="st8" d="M220.9,411c-0.1,0-0.1-0.1-0.1-0.2c0-0.1,0.2-2.2,1-2.9c0.2-0.2,0.5-0.3,0.7-0.2c0.3,0,0.5,0.2,0.6,0.5
			c0.2,0.8-1.3,2.4-2.1,2.8L220.9,411C221,411,221,411,220.9,411z M222.1,408.1c-0.5,0.7-0.8,1.5-0.9,2.3c0.8-0.6,1.7-1.8,1.6-2.3
			c0,0,0-0.2-0.3-0.2h-0.1C222.4,408,222.2,408,222.1,408.1z"/>
		<path class="st24" d="M178,409.9h-7.1c-0.3,0-0.6,0.2-0.6,0.5l-1.5,6.6c-0.1,0.6,0.3,1.2,0.8,1.3c0.1,0,0.2,0,0.2,0
			c2.9,0,3.1-0.2,6.8-0.2c2.3,0,9,0.2,12.2,0.2s3.5-3.1,2.2-3.4c-5.7-1.2-10-3-11.8-4.6C179,410.1,178.5,409.9,178,409.9z"/>
		<path class="st8" d="M178.6,411c-0.1,0-0.1-0.1-0.1-0.2c0-0.1,0-0.1,0.1-0.2c0.3-0.2,2.7-1.6,3.5-1.2c0.2,0.1,0.3,0.3,0.3,0.5
			c0,0.4-0.1,0.7-0.4,0.9c-0.4,0.3-0.9,0.4-1.4,0.4C179.8,411.2,179.2,411.1,178.6,411z M179.1,410.7c0.9,0.3,1.8,0.2,2.6-0.1
			c0.2-0.2,0.3-0.4,0.2-0.6c0-0.1-0.1-0.2-0.1-0.2c-0.1,0-0.1-0.1-0.2,0C180.7,409.9,179.8,410.2,179.1,410.7z"/>
		<path class="st8" d="M178.5,411c-0.1,0-0.1-0.1-0.1-0.2c0-0.1,0.2-2.2,1-2.9c0.2-0.2,0.5-0.3,0.7-0.2c0.3,0,0.5,0.2,0.6,0.5
			c0.2,0.8-1.3,2.4-2.1,2.8L178.5,411C178.6,411,178.5,411,178.5,411z M179.7,408.1c-0.5,0.7-0.8,1.5-0.9,2.3
			c0.8-0.6,1.7-1.8,1.6-2.3c0,0,0-0.2-0.3-0.2h-0.1C179.9,408,179.8,408,179.7,408.1z"/>
		<g>
			<defs>
				<path id="XMLID_1_" d="M230.3,249.1c0,0,5.8-35.4-4.2-51.3c0,0-20-1.2-34,6.9c0,0,5.8,15.8,6.7,44.5H230.3z"/>
			</defs>
			<use xlink:href="#XMLID_1_"  style="overflow:visible;fill:#407BFF;"/>
			<clipPath id="XMLID_5_">
				<use xlink:href="#XMLID_1_"  style="overflow:visible;"/>
			</clipPath>
			<path class="st27" d="M232.1,222c0.4-4.8-1-9.4-1.2-13.5c-3.7-3.1-6.6-7.5-6.6-7.5S222.5,215.4,232.1,222z"/>
		</g>
		<path class="st8" d="M223.6,197.7c0,0,19.8-2.3,22.8-3.6c1.9-0.8,16.4-10.3,16.4-10.3l3.4,5.1c0,0-14.9,12-17.4,13.4
			c-5.9,3.2-19.2,7.8-19.2,7.8S221.6,204.6,223.6,197.7z"/>
		<path class="st24" d="M215.4,174.8c0,0,8.2-8.2,0.5-13.8c-7.8-5.5-15.6,1.7-15.6,1.7s-18.6,4.5-14.6,16.8
			c4,12.3,6.5,13.4,0.7,19.7c-5.9,6.3-11.9,15.7-5.9,21.7c6,6,27-0.2,33.4-9.2C220.3,202.7,209,183.3,215.4,174.8z"/>
		<g>
			<polygon points="198.7,249.1 198.6,245.8 230.6,246.6 230.6,249.7 			"/>
			<rect x="207.6" y="246" class="st24" width="1.3" height="3.3"/>
			<rect x="222.5" y="246.4" class="st24" width="1.1" height="3.6"/>
			<rect x="199.5" y="245.8" class="st24" width="1.1" height="3.9"/>
		</g>
	</g>
</g>
</svg>
