<svg width="355" height="321" viewBox="0 0 355 321" fill="none" xmlns="http://www.w3.org/2000/svg">
<g clip-path="url(#clip0)">
<path d="M306.886 120.522L61.7003 26.625C60.9527 26.3167 60.1646 26.15 59.3853 26.1354C58.606 26.1208 57.8521 26.2585 57.1705 26.5399V26.5399L53.5457 28.3303L55.0304 28.4949C54.6099 29.2544 54.3742 30.1087 54.3381 31.0035L45.6121 188.368C45.5375 190.318 46.139 192.318 47.3276 194.072C48.5162 195.826 50.2287 197.241 52.2117 198.108L297.442 292C298.007 292.217 298.591 292.362 299.179 292.431L298.936 293.614L302.375 291.875C303.126 291.43 303.736 290.813 304.156 290.073C304.576 289.333 304.796 288.489 304.799 287.607L313.474 130.279C313.546 128.329 312.945 126.329 311.76 124.573C310.574 122.817 308.866 121.397 306.886 120.522V120.522Z" fill="url(#paint0_radial)"/>
<path d="M294.121 293.666L48.9358 199.769C46.9563 198.897 45.2481 197.48 44.0626 195.727C42.8772 193.973 42.2773 191.974 42.3513 190.026L51.008 32.6845C51.2275 28.7816 54.5129 26.8087 58.3842 28.2893L303.551 122.189C305.532 123.058 307.241 124.475 308.427 126.229C309.613 127.984 310.212 129.983 310.135 131.931L301.478 289.273C301.274 293.175 297.97 295.134 294.121 293.666Z" fill="#E8E3FB"/>
<path d="M290.705 288.595L52.8753 197.423C50.9835 196.588 49.3508 195.233 48.2163 193.556C47.0819 191.88 46.5052 189.97 46.5707 188.106L54.8418 37.6623C54.8103 36.8459 54.9878 36.0591 55.3596 35.3679C55.7313 34.6767 56.2863 34.1013 56.9779 33.6903C57.6695 33.2792 58.4775 33.0444 59.3339 33.0056C60.1904 32.9669 61.0702 33.1252 61.8995 33.4674L299.734 124.653C301.627 125.487 303.26 126.841 304.395 128.517C305.529 130.194 306.105 132.104 306.038 133.967L297.767 284.411C297.544 288.125 294.388 290.008 290.705 288.595Z" fill="url(#paint1_linear)"/>
<path opacity="0.4" d="M290.705 288.595L52.8753 197.423C50.9835 196.588 49.3508 195.233 48.2163 193.556C47.0819 191.88 46.5052 189.97 46.5707 188.106L54.8418 37.6623C54.8103 36.8459 54.9878 36.0591 55.3596 35.3679C55.7313 34.6767 56.2863 34.1013 56.9779 33.6903C57.6695 33.2792 58.4775 33.0444 59.3339 33.0056C60.1904 32.9669 61.0702 33.1252 61.8995 33.4674L299.734 124.653C301.627 125.487 303.26 126.841 304.395 128.517C305.529 130.194 306.105 132.104 306.038 133.967L297.767 284.411C297.544 288.125 294.388 290.008 290.705 288.595Z" fill="#06033E"/>
<g filter="url(#filter0_d)">
<path d="M171.983 162.374L152.453 203.48C157.424 206.989 162.719 209.967 168.252 212.226C174.812 214.904 181.168 216.365 187.132 216.742C186.994 216.444 186.871 216.138 186.774 215.82L171.983 162.374Z" fill="#0082BA"/>
<path d="M114.778 134.083C113.589 155.869 125.515 179.984 143.812 196.575L120.879 113.678C117.382 119.247 115.214 126.105 114.778 134.083Z" fill="#0082BA"/>
<path d="M209.414 169.989C209.786 163.18 207.543 157.445 205.599 152.896C202.988 147.19 200.519 142.254 200.767 137.715C201.043 132.65 205.231 129.541 210.769 131.802C211.02 131.904 211.254 132.031 211.499 132.143C201.961 119.071 188.898 108.131 174.217 102.137C154.517 94.0938 136.648 96.8933 125.753 107.738C127.073 108.317 128.315 108.852 129.377 109.286C135.275 111.694 144.443 114.723 144.443 114.723C147.495 115.786 147.611 120.294 144.557 119.406C144.557 119.406 141.483 118.508 138.075 117.297L155.342 185.357L169.656 154.232L162.154 127.127C159.128 125.711 156.272 124.187 156.272 124.187C153.245 122.775 153.847 118.381 156.875 119.797C156.875 119.797 166.15 124.299 171.687 126.559C177.583 128.967 186.755 131.997 186.755 131.997C189.806 133.063 189.924 137.569 186.865 136.678C186.865 136.678 183.788 135.78 180.384 134.57L197.525 202.116L204.152 186.049C207.004 179.423 209.156 174.704 209.414 169.989Z" fill="#0082BA"/>
<path d="M222.237 151.093C222.383 152.942 222.418 154.884 222.308 156.906C222.003 162.49 220.596 168.332 216.954 174.868L197.106 216.438C214.361 213.733 226.589 200.608 227.696 180.312C228.219 170.744 226.207 160.726 222.237 151.093Z" fill="#0082BA"/>
<path d="M175.043 87.3019C135.532 71.1687 101.793 89.3917 99.6841 128.003C97.5748 166.614 127.894 210.993 167.405 227.127C206.915 243.26 240.655 225.037 242.764 186.426C244.873 147.815 214.554 103.435 175.043 87.3019ZM167.879 218.502C133.296 204.38 106.667 165.403 108.513 131.605C110.359 97.8122 139.99 81.8076 174.575 95.9293C209.154 110.049 235.781 149.027 233.935 182.818C232.091 216.614 202.456 232.62 167.879 218.502Z" fill="#0082BA"/>
</g>
</g>
<defs>
<filter id="filter0_d" x="90.5804" y="81.4248" width="161.287" height="173.579" filterUnits="userSpaceOnUse" color-interpolation-filters="sRGB">
<feFlood flood-opacity="0" result="BackgroundImageFix"/>
<feColorMatrix in="SourceAlpha" type="matrix" values="0 0 0 0 0 0 0 0 0 0 0 0 0 0 0 0 0 0 127 0"/>
<feOffset dy="13"/>
<feGaussianBlur stdDeviation="4.5"/>
<feColorMatrix type="matrix" values="0 0 0 0 0 0 0 0 0 0 0 0 0 0 0 0 0 0 0.25 0"/>
<feBlend mode="normal" in2="BackgroundImageFix" result="effect1_dropShadow"/>
<feBlend mode="normal" in="SourceGraphic" in2="effect1_dropShadow" result="shape"/>
</filter>
<radialGradient id="paint0_radial" cx="0" cy="0" r="1" gradientUnits="userSpaceOnUse" gradientTransform="translate(73.9482 17.5511) rotate(-6.75) scale(334.452 328.214)">
<stop stop-color="#E39A65"/>
<stop offset="0.47" stop-color="#A92FFB"/>
<stop offset="0.59" stop-color="#891CFB"/>
<stop offset="0.74" stop-color="#6507FA"/>
<stop offset="0.8" stop-color="#0D0C6F"/>
</radialGradient>
<linearGradient id="paint1_linear" x1="43.239" y1="176.785" x2="300.001" y2="109.521" gradientUnits="userSpaceOnUse">
<stop stop-color="#0B5771"/>
<stop offset="1" stop-color="#6507FA"/>
</linearGradient>
<clipPath id="clip0">
<rect width="281.685" height="297.007" fill="white" transform="matrix(0.993068 -0.117537 0.25342 0.967356 0 33.1085)"/>
</clipPath>
</defs>
</svg>
