<svg width="349" height="261" viewBox="0 0 349 261" fill="none" xmlns="http://www.w3.org/2000/svg">
<path d="M0 228.732H349V228.558H0V228.732Z" fill="#EEEEEE"/>
<path d="M290.912 239.792H314.031V239.967H290.912V239.792Z" fill="#EEEEEE"/>
<path d="M225.124 241.686H231.192V241.861H225.124V241.686Z" fill="#EEEEEE"/>
<path d="M276.817 233.31H290.213V233.485H276.817V233.31Z" fill="#EEEEEE"/>
<path d="M36.6163 234.483H66.7653V234.658H36.6163V234.483Z" fill="#EEEEEE"/>
<path d="M72.9801 234.483H77.4005V234.658H72.9801V234.483Z" fill="#EEEEEE"/>
<path d="M91.7667 237.605H157.152V237.43H91.7667V237.605Z" fill="#EEEEEE"/>
<path d="M30.6528 0.174576C28.5517 0.174576 26.843 1.8833 26.843 3.98358V193.443C26.843 195.544 28.5517 197.253 30.6528 197.253H165.436C167.535 197.253 169.245 195.544 169.245 193.443V3.98358C169.245 1.8833 167.535 0.174576 165.436 0.174576H30.6528ZM165.436 197.427H30.6528C28.4558 197.427 26.6685 195.641 26.6685 193.443V3.98358C26.6685 1.78767 28.4558 7.62939e-05 30.6528 7.62939e-05H165.436C167.632 7.62939e-05 169.419 1.78767 169.419 3.98358V193.443C169.419 195.641 167.632 197.427 165.436 197.427Z" fill="#EEEEEE"/>
<path d="M181.628 0.174576C179.528 0.174576 177.819 1.8833 177.819 3.98358V193.443C177.819 195.544 179.528 197.253 181.628 197.253H316.411C318.511 197.253 320.221 195.544 320.221 193.443V3.98358C320.221 1.8833 318.511 0.174576 316.411 0.174576H181.628ZM316.411 197.427H181.628C179.431 197.427 177.644 195.641 177.644 193.443V3.98358C177.644 1.78767 179.431 7.62939e-05 181.628 7.62939e-05H316.411C318.608 7.62939e-05 320.395 1.78767 320.395 3.98358V193.443C320.395 195.641 318.608 197.427 316.411 197.427Z" fill="#EEEEEE"/>
<path d="M247.041 30.1418C247.041 28.2565 245.513 26.7286 243.628 26.7286C243.287 26.7286 242.959 26.7802 242.648 26.873C242.697 26.5303 242.725 26.1806 242.725 25.8246C242.725 21.8328 239.488 18.5969 235.496 18.5969C235.041 18.5969 234.597 18.6415 234.165 18.7218C233.054 16.9035 231.057 15.6855 228.77 15.6855C225.31 15.6855 222.502 18.467 222.451 21.9151L222.346 21.9096C219.13 21.9096 216.523 24.5166 216.523 27.7323C216.523 30.948 219.13 33.555 222.346 33.555H243.728L243.724 33.5501C245.564 33.4985 247.041 31.9943 247.041 30.1418Z" fill="#F4F4F4"/>
<path d="M234.496 35.2491V28.5958H229.068V35.2491H224.649L231.782 41.277L238.915 35.2491H234.496Z" fill="#E3E3E2"/>
<path d="M140.075 40.2077C140.075 36.204 136.83 32.9583 132.826 32.9583C132.102 32.9583 131.405 33.0678 130.745 33.2654C130.851 32.5388 130.907 31.7961 130.907 31.0395C130.907 22.5616 124.035 15.689 115.557 15.689C114.591 15.689 113.646 15.7826 112.729 15.9536C110.37 12.0922 106.129 9.50616 101.272 9.50616C93.9223 9.50616 87.96 15.4119 87.8511 22.736C87.7757 22.7346 87.7031 22.7249 87.6277 22.7249C80.7978 22.7249 75.262 28.2614 75.262 35.0906C75.262 41.9199 80.7978 47.4564 87.6277 47.4564H133.04L133.031 47.4459C136.939 47.3371 140.075 44.1423 140.075 40.2077Z" fill="#F4F4F4"/>
<path d="M101.905 40.7703V54.902H113.432V40.7703H122.817L107.669 27.9697L92.5192 40.7703H101.905Z" fill="#E3E3E2"/>
<path d="M146.21 75.509V56.8529H203.714V75.3171H204.412V56.1549H145.512V75.509H146.21Z" fill="#E9E9E8"/>
<path d="M175.474 75.4573H176.172V38.5931H175.474V75.4573Z" fill="#E9E9E8"/>
<path d="M185.722 31.3529H165.923C165.466 31.3529 165.095 31.7235 165.095 32.1807V43.9643C165.095 44.4215 165.466 44.7921 165.923 44.7921H185.722C186.179 44.7921 186.55 44.4215 186.55 43.9643V32.1807C186.55 31.7235 186.179 31.3529 185.722 31.3529Z" fill="#F4F4F4"/>
<path d="M185.515 44.2554H166.13C165.968 44.2554 165.836 44.1235 165.836 43.9616V33.2249C165.836 33.063 165.968 32.9311 166.13 32.9311H185.515C185.677 32.9311 185.809 33.063 185.809 33.2249V43.9616C185.809 44.1235 185.677 44.2554 185.515 44.2554Z" fill="#E3E3E2"/>
<path d="M155.76 73.7856H135.963C135.505 73.7856 135.134 74.1562 135.134 74.6141V86.3971C135.134 86.855 135.505 87.2256 135.963 87.2256H155.76C156.218 87.2256 156.589 86.855 156.589 86.3971V74.6141C156.589 74.1562 156.218 73.7856 155.76 73.7856Z" fill="#F4F4F4"/>
<path d="M155.553 86.6882H136.169C136.007 86.6882 135.875 86.5569 135.875 86.3943V75.6584C135.875 75.4964 136.007 75.3645 136.169 75.3645H155.553C155.716 75.3645 155.848 75.4964 155.848 75.6584V86.3943C155.848 86.5569 155.716 86.6882 155.553 86.6882Z" fill="#E3E3E2"/>
<path d="M185.722 73.7856H165.923C165.466 73.7856 165.095 74.1562 165.095 74.6141V86.3971C165.095 86.855 165.466 87.2256 165.923 87.2256H185.722C186.179 87.2256 186.55 86.855 186.55 86.3971V74.6141C186.55 74.1562 186.179 73.7856 185.722 73.7856Z" fill="#F4F4F4"/>
<path d="M185.515 86.6882H166.13C165.968 86.6882 165.836 86.5569 165.836 86.3943V75.6584C165.836 75.4964 165.968 75.3645 166.13 75.3645H185.515C185.677 75.3645 185.809 75.4964 185.809 75.6584V86.3943C185.809 86.5569 185.677 86.6882 185.515 86.6882Z" fill="#E3E3E2"/>
<path d="M214.008 73.7856H194.21C193.752 73.7856 193.382 74.1562 193.382 74.6141V86.3971C193.382 86.855 193.752 87.2256 194.21 87.2256H214.008C214.465 87.2256 214.837 86.855 214.837 86.3971V74.6141C214.837 74.1562 214.465 73.7856 214.008 73.7856Z" fill="#F4F4F4"/>
<path d="M213.802 86.6882H194.417C194.254 86.6882 194.123 86.5569 194.123 86.3943V75.6584C194.123 75.4964 194.254 75.3645 194.417 75.3645H213.802C213.964 75.3645 214.096 75.4964 214.096 75.6584V86.3943C214.096 86.5569 213.964 86.6882 213.802 86.6882Z" fill="#E3E3E2"/>
<path d="M175.425 50.7412L170.059 56.1067C169.84 56.3259 169.84 56.6826 170.059 56.9017L175.425 62.2673C175.645 62.4864 176 62.4864 176.22 62.2673L181.585 56.9017C181.805 56.6826 181.805 56.3259 181.585 56.1067L176.22 50.7412C176 50.5213 175.645 50.5213 175.425 50.7412Z" fill="#E3E3E2"/>
<path d="M62.1806 56.351H48.2154C47.8798 56.351 47.6074 56.0781 47.6074 55.743V47.8605C47.6074 47.5255 47.8798 47.2525 48.2154 47.2525H62.1806C62.5168 47.2525 62.7889 47.5255 62.7889 47.8605V55.743C62.7889 56.0781 62.5168 56.351 62.1806 56.351Z" fill="#EAEAE8"/>
<path d="M51.5274 73.7661H40.4651C40.1295 73.7661 39.8572 73.4939 39.8572 73.1581V67.4289C39.8572 67.0925 40.1295 66.821 40.4651 66.821H51.5274C51.863 66.821 52.1354 67.0925 52.1354 67.4289V73.1581C52.1354 73.4939 51.863 73.7661 51.5274 73.7661Z" fill="#E3E3E2"/>
<path d="M70.156 73.7661H59.0944C58.7585 73.7661 58.4861 73.4939 58.4861 73.1581V67.4289C58.4861 67.0925 58.7585 66.821 59.0944 66.821H70.156C70.4924 66.821 70.7646 67.0925 70.7646 67.4289V73.1581C70.7646 73.4939 70.4924 73.7661 70.156 73.7661Z" fill="#E3E3E2"/>
<path d="M58.7018 87.449H53.4737C53.1377 87.449 52.8654 87.1768 52.8654 86.8411V82.1254C52.8654 81.7896 53.1377 81.5167 53.4737 81.5167H58.7018C59.0378 81.5167 59.3098 81.7896 59.3098 82.1254V86.8411C59.3098 87.1768 59.0378 87.449 58.7018 87.449Z" fill="#E3E3E2"/>
<path d="M66.8864 87.449H61.6582C61.322 87.449 61.0499 87.1768 61.0499 86.8411V82.1254C61.0499 81.7896 61.322 81.5167 61.6582 81.5167H66.8864C67.222 81.5167 67.4944 81.7896 67.4944 82.1254V86.8411C67.4944 87.1768 67.222 87.449 66.8864 87.449Z" fill="#E3E3E2"/>
<path d="M75.0706 87.449H69.8426C69.5066 87.449 69.2343 87.1768 69.2343 86.8411V82.1254C69.2343 81.7896 69.5066 81.5167 69.8426 81.5167H75.0706C75.407 81.5167 75.6792 81.7896 75.6792 82.1254V86.8411C75.6792 87.1768 75.407 87.449 75.0706 87.449Z" fill="#E3E3E2"/>
<path d="M39.7637 87.449H34.5352C34.1993 87.449 33.9272 87.1768 33.9272 86.8411V82.1254C33.9272 81.7896 34.1993 81.5167 34.5352 81.5167H39.7637C40.0996 81.5167 40.372 81.7896 40.372 82.1254V86.8411C40.372 87.1768 40.0996 87.449 39.7637 87.449Z" fill="#E3E3E2"/>
<path d="M48.6464 87.449H43.418C43.0824 87.449 42.8099 87.1768 42.8099 86.8411V82.1254C42.8099 81.7896 43.0824 81.5167 43.418 81.5167H48.6464C48.9824 81.5167 49.2544 81.7896 49.2544 82.1254V86.8411C49.2544 87.1768 48.9824 87.449 48.6464 87.449Z" fill="#E3E3E2"/>
<path d="M63.9233 66.821H64.6213V61.935H55.5473V56.351H54.8493V61.935H45.7753V66.821H46.4733V62.633H63.9233V66.821Z" fill="#E3E3E2"/>
<path d="M45.7752 77.9883H36.7012V81.4783H37.3992V78.6863H45.7752V81.4783H46.4732V73.8003H45.7752V77.9883Z" fill="#E3E3E2"/>
<path d="M64.6212 78.687V73.801H63.9232V78.687H55.5472V81.4783H56.2452V79.385H63.9232V81.4783H64.6212V79.385H72.2996V81.4783H72.9976V78.687H64.6212Z" fill="#E3E3E2"/>
<path d="M281.713 45.1558C285.462 45.1558 288.501 48.1948 288.501 51.9438C288.501 55.6928 285.462 58.7326 281.713 58.7326C277.964 58.7326 274.925 55.6928 274.925 51.9438C274.925 48.1948 277.964 45.1558 281.713 45.1558ZM265.933 49.4373V54.4517L268.514 54.6946C268.863 56.3754 269.529 57.9382 270.44 59.3266L268.782 61.3291L272.327 64.8757L274.331 63.2165C275.719 64.1274 277.281 64.794 278.963 65.1423L279.206 67.7242H284.22L284.463 65.1423C286.144 64.7933 287.707 64.1274 289.095 63.2165L291.097 64.8757L294.643 61.3291L292.986 59.3259C293.896 57.9382 294.562 56.3754 294.911 54.6946L297.493 54.4517V49.4373L294.911 49.1944C294.562 47.5129 293.896 45.9501 292.986 44.5625L294.643 42.5592L291.097 39.0134L289.095 40.6718C287.707 39.7609 286.144 39.095 284.463 38.746L284.22 36.1641H279.206L278.963 38.746C277.281 39.0943 275.719 39.7609 274.331 40.6718L272.327 39.0134L268.782 42.5592L270.44 44.5625C269.529 45.9501 268.863 47.5129 268.514 49.1944L265.933 49.4373Z" fill="#F8F8F9"/>
<path d="M261.697 75.6814C261.697 72.7442 264.079 70.3627 267.016 70.3627C269.954 70.3627 272.336 72.7442 272.336 75.6814C272.336 78.6193 269.954 81.0009 267.016 81.0009C264.079 81.0009 261.697 78.6193 261.697 75.6814ZM269.172 86.0244C270.489 85.7508 271.713 85.2287 272.801 84.5153L274.371 85.8143L277.149 83.0363L275.85 81.4665C276.564 80.379 277.086 79.154 277.359 77.8369L279.382 77.6463V73.7173L277.359 73.5267C277.086 72.2096 276.564 70.9853 275.85 69.8971L277.149 68.3273L274.371 65.5493L272.801 66.8483C271.713 66.1349 270.489 65.6128 269.172 65.3399L268.981 63.3164H265.052L264.862 65.3399C263.544 65.6128 262.32 66.1349 261.232 66.8483L259.662 65.5493L256.884 68.3273L258.183 69.8971C257.47 70.9853 256.948 72.2096 256.674 73.5267L254.651 73.7173V77.6463L256.674 77.8369C256.948 79.154 257.47 80.379 258.183 81.4665L256.884 83.0363L259.662 85.8143L261.232 84.5153C262.32 85.2287 263.544 85.7508 264.862 86.0244L265.052 88.0472H268.981L269.172 86.0244Z" fill="#F8F8F9"/>
<path d="M251.079 57.338C251.079 54.8705 253.079 52.8708 255.547 52.8708C258.014 52.8708 260.015 54.8705 260.015 57.338C260.015 59.8054 258.014 61.8058 255.547 61.8058C253.079 61.8058 251.079 59.8054 251.079 57.338ZM260.406 64.757L261.723 65.8487L264.057 63.5153L262.966 62.1967C263.565 61.283 264.004 60.2542 264.233 59.1486L265.933 58.988V55.6879L264.233 55.528C264.004 54.4217 263.565 53.3928 262.966 52.4799L264.057 51.1607L261.723 48.8272L260.406 49.9182C259.492 49.3193 258.463 48.881 257.357 48.6513L257.197 46.9517H253.897L253.737 48.6513C252.631 48.8803 251.602 49.3193 250.688 49.9182L249.369 48.8272L247.035 51.1607L248.127 52.4799C247.528 53.3928 247.089 54.4217 246.859 55.528L245.161 55.6879V58.988L246.859 59.1486C247.09 60.2542 247.528 61.283 248.127 62.1967L247.035 63.5153L249.369 65.8487L250.688 64.757C251.602 65.3566 252.631 65.7956 253.737 66.0246L253.897 67.7242H257.197L257.357 66.0246C258.463 65.7956 259.492 65.3566 260.406 64.757Z" fill="#F8F8F9"/>
<path d="M259.821 218.3H306.69V187.817H259.821V218.3Z" fill="#F8F8F9"/>
<path d="M261.535 216.777H304.975V193.532H261.535V216.777Z" fill="#E3E3E2"/>
<path d="M265.075 198.005H297.208V197.006H265.075V198.005Z" fill="#F8F8F9"/>
<path d="M265.075 201.068H280.493V200.068H265.075V201.068Z" fill="#F8F8F9"/>
<path d="M265.075 204.13H284.493V203.131H265.075V204.13Z" fill="#F8F8F9"/>
<path d="M265.075 207.192H271.919V206.193H265.075V207.192Z" fill="#F8F8F9"/>
<path d="M269.507 210.255H265.075V209.256H269.507V210.255Z" fill="#F8F8F9"/>
<path d="M66.8172 208.215L33.467 208.367L33.3732 187.796L66.7234 187.645L66.8172 208.215Z" fill="#EEEEEE"/>
<path d="M46.1672 203.195C46.0243 203.195 45.8801 203.151 45.756 203.061L39.6711 198.615C39.4923 198.484 39.386 198.276 39.3849 198.055C39.3838 197.832 39.4879 197.624 39.666 197.492L45.7105 192.991C46.02 192.761 46.457 192.825 46.6872 193.134C46.9173 193.443 46.8532 193.881 46.544 194.11L41.2586 198.046L46.5795 201.933C46.8906 202.161 46.959 202.597 46.7316 202.909C46.595 203.096 46.3826 203.195 46.1672 203.195Z" fill="#FCFDFD"/>
<path d="M54.0639 203.158C53.851 203.158 53.6402 203.062 53.5033 202.878C53.2733 202.568 53.3373 202.13 53.6465 201.901L58.9317 197.965L53.6108 194.078C53.2996 193.851 53.2315 193.415 53.4586 193.103C53.686 192.792 54.1228 192.723 54.4342 192.951L60.519 197.396C60.6982 197.527 60.8043 197.735 60.8054 197.956C60.8064 198.178 60.702 198.387 60.5242 198.52L54.4803 203.02C54.3552 203.114 54.209 203.158 54.0639 203.158Z" fill="#FCFDFD"/>
<path d="M48.5277 203.184C48.4514 203.184 48.3736 203.172 48.2973 203.145C47.9333 203.017 47.7416 202.62 47.869 202.255L51.0039 193.294C51.131 192.931 51.5291 192.738 51.8931 192.866C52.2571 192.993 52.449 193.391 52.3214 193.755L49.1867 202.716C49.0861 203.004 48.8161 203.184 48.5277 203.184Z" fill="#FCFDFD"/>
<path d="M309.835 252.178C309.835 256.543 249.244 260.081 174.5 260.081C99.7567 260.081 39.1656 256.543 39.1656 252.178C39.1656 247.812 99.7567 244.274 174.5 244.274C249.244 244.274 309.835 247.812 309.835 252.178Z" fill="#C4C4C4"/>
<path d="M233.401 252.179H238.524L245.504 213.619H240.381L233.401 252.179Z" fill="#1D2A30"/>
<path d="M238.873 250.251L238.175 246.395L239.695 237.999H241.091L238.873 250.251Z" fill="#45555C"/>
<path d="M241.501 235.735H240.105L242.031 225.09H243.427L242.8 228.558L242.769 228.732L241.501 235.735Z" fill="#45555C"/>
<path d="M243.838 222.825H242.442L243.775 215.459H245.171L243.838 222.825Z" fill="#45555C"/>
<path d="M234.099 252.179H233.401L233.75 250.251L234.099 252.179ZM238.175 246.395L236.656 237.999H239.695L238.175 246.395ZM240.105 235.735H237.192H236.377L238.304 225.09H242.032L240.105 235.735ZM242.442 222.825H239.471H238.714L240.048 215.459H243.775L242.442 222.825Z" fill="#6A797F"/>
<path d="M218.954 225.09H239.471C240.096 225.09 240.603 224.584 240.603 223.958C240.603 223.332 240.096 222.825 239.471 222.825H218.954C218.329 222.825 217.822 223.332 217.822 223.958C217.822 224.584 218.329 225.09 218.954 225.09Z" fill="#1D2A30"/>
<path d="M216.677 237.999H237.192C237.818 237.999 238.324 237.493 238.324 236.867C238.324 236.242 237.818 235.735 237.192 235.735H216.677C216.051 235.735 215.544 236.242 215.544 236.867C215.544 237.493 216.051 237.999 216.677 237.999Z" fill="#1D2A30"/>
<path d="M212.461 252.179H217.584L224.564 213.619H219.441L212.461 252.179Z" fill="#1D2A30"/>
<path d="M217.584 252.179H216.188L222.835 215.459H224.231L222.898 222.825L222.487 225.09L221.86 228.557L221.829 228.732L220.561 235.735L220.151 237.999L217.584 252.179Z" fill="#45555C"/>
<path d="M216.188 252.179H212.461L219.108 215.459H222.835L216.188 252.179Z" fill="#6A797F"/>
<path d="M260.162 252.179H255.039L248.059 213.619H253.182L260.162 252.179Z" fill="#1D2A30"/>
<path d="M260.162 252.179H258.766L252.119 215.459H253.515L260.162 252.179Z" fill="#758288"/>
<path d="M258.766 252.179H255.039L252.471 237.999H253.43C254.056 237.999 254.563 237.493 254.563 236.867C254.563 236.242 254.056 235.735 253.43 235.735H252.062L250.135 225.09H251.152C251.778 225.09 252.284 224.584 252.284 223.958C252.284 223.332 251.778 222.825 251.152 222.825H249.725L248.392 215.459H252.119L258.766 252.179Z" fill="#929C9E"/>
<path d="M251.152 225.09H230.637C230.011 225.09 229.504 224.584 229.504 223.958C229.504 223.332 230.011 222.825 230.637 222.825H251.152C251.778 222.825 252.285 223.332 252.285 223.958C252.285 224.584 251.778 225.09 251.152 225.09Z" fill="#1D2A30"/>
<path d="M253.431 237.999H232.914C232.289 237.999 231.782 237.493 231.782 236.867C231.782 236.242 232.289 235.735 232.914 235.735H253.431C254.056 235.735 254.563 236.242 254.563 236.867C254.563 237.493 254.056 237.999 253.431 237.999Z" fill="#1D2A30"/>
<path d="M251.152 225.09H234.319L233.909 222.825H251.152C251.778 222.825 252.284 223.332 252.284 223.958C252.284 224.584 251.778 225.09 251.152 225.09Z" fill="#45555C"/>
<path d="M253.431 237.999H236.656L236.246 235.735H253.431C254.056 235.735 254.563 236.242 254.563 236.867C254.563 237.493 254.056 237.999 253.431 237.999Z" fill="#45555C"/>
<path d="M239.222 252.179H234.099L227.119 213.619H232.242L239.222 252.179Z" fill="#1D2A30"/>
<path d="M239.222 252.179H237.826L231.179 215.459H232.211H232.575L239.222 252.179Z" fill="#758288"/>
<path d="M237.826 252.179H234.099L227.452 215.459H231.179L237.826 252.179Z" fill="#929C9E"/>
<path d="M255.184 215.459H218.121C217.664 215.459 217.293 215.088 217.293 214.631V212.609C217.293 212.151 217.664 211.78 218.121 211.78H255.184C255.642 211.78 256.012 212.151 256.012 212.609V214.631C256.012 215.088 255.642 215.459 255.184 215.459Z" fill="#1D2A30"/>
<path d="M232.211 215.459H218.121C217.664 215.459 217.293 215.088 217.293 214.631V212.609C217.293 212.151 217.664 211.78 218.121 211.78H232.211C232.669 211.78 233.04 212.151 233.04 212.609V214.631C233.04 215.088 232.669 215.459 232.211 215.459Z" fill="#45555C"/>
<path d="M88.7877 251.677H135.657V221.193H88.7877V251.677Z" fill="#4870C0"/>
<path d="M135.657 251.677H88.7877V221.193H135.657V228.557V228.732V237.43V237.605V251.677Z" fill="#B4CAEC"/>
<path d="M133.943 250.152H90.5027V226.909H133.943V250.152Z" fill="#4870C0"/>
<path d="M126.176 231.381H94.0422V230.381H126.176V231.381Z" fill="white"/>
<path d="M109.46 234.444H94.0422V233.444H109.46V234.444Z" fill="white"/>
<path d="M113.461 237.506H94.0422V236.507H113.461V237.506Z" fill="white"/>
<path d="M100.886 240.568H94.0422V239.568H100.886V240.568Z" fill="white"/>
<path d="M98.4745 243.631H94.0422V242.631H98.4745V243.631Z" fill="white"/>
<path d="M193.578 252.178H155.422L161.883 201.455H187.117L193.578 252.178Z" fill="#4870C0"/>
<path d="M155.423 252.179H193.576V252.178H155.423V252.179Z" fill="#FDFEFE"/>
<path d="M193.576 252.178H155.423L155.431 252.116H193.569L193.576 252.178ZM193.091 248.367H155.908L159.843 217.477L161.13 207.377L159.843 217.477L190.127 225.09L187.87 207.377L190.127 225.09L193.091 248.367Z" fill="#B4CAEC"/>
<path d="M190.127 225.09L159.843 217.477L161.13 207.377H187.869L190.127 225.09Z" fill="#A0B5E3"/>
<path d="M264.449 76.3815H84.5508C82.0087 76.3815 79.9475 78.4427 79.9475 80.9855V202.773C79.9475 205.316 82.0087 207.377 84.5508 207.377H88.364H260.636H264.449C266.991 207.377 269.053 205.316 269.053 202.773V80.9855C269.053 78.4427 266.991 76.3815 264.449 76.3815Z" fill="#4870C0"/>
<path d="M264.449 207.377H84.5508C82.0087 207.377 79.9475 205.316 79.9475 202.773V111.538L80.21 112.023L80.9938 113.463L81.9131 113.144C82.9775 115.953 84.2877 119.149 85.6585 121.883V178.903L86.0055 177.608V198.328H88.4087H110.061H131.748H141.54H161.852H167.025H170.528H262.997V125.136C263.427 125.189 263.878 125.214 264.344 125.214C265.797 125.214 267.406 124.973 269.053 124.587V197.006V198.005V200.068V201.068V202.773C269.053 202.893 269.048 203.013 269.039 203.131C269.012 203.476 268.948 203.81 268.849 204.13C268.602 204.934 268.14 205.643 267.532 206.193C267.024 206.65 266.415 206.996 265.742 207.192C265.331 207.312 264.898 207.377 264.449 207.377ZM263.695 111.222L262.997 110.27V98.5067V81.0016V80.8899H86.0055H85.6585V91.6349C85.6334 91.6021 85.2663 91.1302 84.562 90.4295C84.5508 90.4183 84.539 90.4064 84.5278 90.3952C83.6316 89.506 82.2041 88.2622 80.2707 87.0986C80.1646 87.0351 80.0564 86.9716 79.9475 86.908V84.5586C80.4033 84.4951 80.8535 84.3862 81.2919 84.234C82.9461 83.6609 84.4189 82.4618 85.3047 80.7726C85.424 80.5521 85.5294 80.3189 85.6271 80.0795C86.0145 79.0974 86.3349 77.8005 86.5471 76.3815H88.364H260.636H264.449C266.991 76.3815 269.053 78.4427 269.053 80.9855V108.077C267.349 109.03 265.551 110.08 263.695 111.222Z" fill="#C7D9F2"/>
<path d="M86.0055 198.328H262.997V80.8899H86.0055V198.328Z" fill="#4870C0"/>
<path d="M206.544 248.366H142.456C142.056 248.366 141.732 248.69 141.732 249.09V251.392C141.732 251.792 142.056 252.116 142.456 252.116H206.544C206.944 252.116 207.268 251.792 207.268 251.392V249.09C207.268 248.69 206.944 248.366 206.544 248.366Z" fill="#4870C0"/>
<path d="M206.544 252.116H142.456C142.056 252.116 141.732 251.792 141.732 251.392V249.09C141.732 248.69 142.056 248.366 142.456 248.366H206.544C206.944 248.366 207.268 248.69 207.268 249.09V251.392C207.268 251.792 206.944 252.116 206.544 252.116Z" fill="#C7D9F2"/>
<path d="M262.997 98.5067H254.376L253.489 97.2971C253.489 97.2971 253.317 97.3502 253.043 97.5051L252.029 96.0016C252.029 96.0016 251.543 93.9642 250.935 93.4993C250.327 93.0344 244.272 90.4665 243.519 90.4665C243.517 90.4665 243.516 90.4665 243.514 90.4665C242.784 90.4791 242.784 95.1989 243.514 96.0016C244.128 96.6766 246.932 97.9979 248.406 98.5067H197.245L200.07 87.9516H200.82V87.2536H200.256L201.929 81.0016H262.997V98.5067ZM238.311 95.1221L240.236 93.1971L241.461 94.4234H241.462L242.565 93.3199L241.339 92.0935L243.264 90.1691L237.213 87.9048V86.1473H234.303V86.4963V87.2536H234.013V87.9516H234.303V89.0579H235.409V89.3476H236.107V89.2317L238.311 95.1221ZM226.636 87.2536V87.9516H230.325V87.2536H226.636ZM219.261 87.2536V87.9516H222.949V87.2536H219.261ZM211.884 87.2536V87.9516H215.572V87.2536H211.884ZM204.508 87.2536V87.9516H208.197V87.2536H204.508ZM193.741 98.5067H168.257L169.222 94.9002V95.6708H169.92V92.5095H169.862L170.786 89.0579H171.027V88.1575L171.082 87.9516H171.316V87.2536H171.268L172.942 81.0016H198.425L193.741 98.5067ZM189.756 87.2536V87.9516H193.444V87.2536H189.756ZM182.38 87.2536V87.9516H186.068V87.2536H182.38ZM175.004 87.2536V87.9516H178.692V87.2536H175.004ZM158.464 98.5067H136.777L141.462 81.0016H163.149L158.464 98.5067ZM115.119 98.5067H107.175L109.536 89.6868C110.252 89.4509 110.769 88.7766 110.769 87.9809V87.6487C110.769 87.2271 110.623 86.839 110.38 86.5326L111.859 81.0016H119.803L115.119 98.5067Z" fill="#395EB4"/>
<path d="M161.852 198.328H141.54L148.18 173.522H157.371V139.18L161.852 122.44V185.325H149.686C148.957 185.325 148.365 185.917 148.365 186.647V190.973C148.365 191.703 148.957 192.295 149.686 192.295H161.852V198.328ZM131.748 198.328H110.061L116.7 173.522H138.387L131.748 198.328ZM88.4087 198.328H86.0055V177.608L98.0041 132.775V162.469L88.4087 198.328ZM154.276 114.155H132.589L136.721 98.7133H158.408L154.276 114.155ZM110.932 114.155H105.412C106.192 113.053 106.658 112.357 106.658 112.357C106.658 112.357 108.962 112.335 111.445 112.237L110.932 114.155ZM104.924 106.916L107.119 98.7133H115.064L113.76 103.586C112.422 103.901 107.17 105.864 104.924 106.916Z" fill="#8DAEE0"/>
<path d="M235.409 124.125V125.521H234.013V126.219H236.107V124.125H235.409Z" fill="white"/>
<path d="M230.325 125.521H226.637V126.219H230.325V125.521ZM222.949 125.521H219.261V126.219H222.949V125.521ZM215.573 125.521H211.885V126.219H215.573V125.521ZM208.197 125.521H204.508V126.219H208.197V125.521ZM200.821 125.521H197.133V126.219H200.821V125.521ZM193.444 125.521H189.756V126.219H193.444V125.521ZM186.069 125.521H182.38V126.219H186.069V125.521ZM178.692 125.521H175.005V126.219H178.692V125.521Z" fill="white"/>
<path d="M171.316 125.521H169.92V124.125H169.222L169.222 126.219H171.316V125.521Z" fill="white"/>
<path d="M169.92 120.963V117.802H169.222V120.963H169.92ZM169.92 114.64V111.478H169.222V114.64H169.92ZM169.92 108.317V105.155H169.222V108.317H169.92ZM169.92 101.994V98.8327H169.222V101.994H169.92ZM169.92 95.6707V92.5095H169.222V95.6707H169.92Z" fill="white"/>
<path d="M169.92 89.3475V87.9515H171.316V87.2535H169.222V89.3475H169.92Z" fill="white"/>
<path d="M175.004 87.9516H178.692V87.2536H175.004V87.9516ZM182.38 87.9516H186.068V87.2536H182.38V87.9516ZM189.756 87.9516H193.444V87.2536H189.756V87.9516ZM197.133 87.9516H200.82V87.2536H197.133V87.9516ZM204.508 87.9516H208.197V87.2536H204.508V87.9516ZM211.884 87.9516H215.572V87.2536H211.884V87.9516ZM219.261 87.9516H222.949V87.2536H219.261V87.9516ZM226.637 87.9516H230.325V87.2536H226.637V87.9516Z" fill="white"/>
<path d="M234.013 87.9515H235.409V89.3475H236.107V87.2535H234.013V87.9515Z" fill="white"/>
<path d="M235.409 95.6707H236.107V92.5096H235.409V95.6707ZM235.409 101.994H236.107V98.8327H235.409V101.994ZM235.409 108.317H236.107V105.155H235.409V108.317ZM235.409 114.64H236.107V111.478H235.409V114.64ZM235.409 120.963H236.107V117.802H235.409V120.963Z" fill="white"/>
<path d="M234.651 88.7089H236.864V86.4963H234.651V88.7089Z" fill="#4870C0"/>
<path d="M234.652 86.4962H234.303V89.0579H237.213V86.1472H234.303V86.4962H234.652V86.8452H236.515V88.3599H235.001V86.4962H234.652V86.8452V86.4962Z" fill="white"/>
<path d="M234.651 126.976H236.864V124.763H234.651V126.976Z" fill="#4870C0"/>
<path d="M234.652 126.976V127.325H237.213V124.414H234.303V127.325H234.652V126.976H235.001V125.112H236.515V126.627H234.652V126.976H235.001H234.652Z" fill="white"/>
<path d="M168.464 88.7089H170.678V86.4963H168.464V88.7089Z" fill="#4870C0"/>
<path d="M168.464 88.7089V89.0579H171.027V86.1472H168.116V89.0579H168.464V88.7089H168.814V86.8452H170.329V88.3599H168.464V88.7089H168.814H168.464Z" fill="white"/>
<path d="M168.465 126.976H170.678V124.763H168.465V126.976Z" fill="#4870C0"/>
<path d="M168.465 126.976V127.325H171.027V124.414H168.116V127.325H168.465V126.976H168.814V125.112H170.329V126.627H168.465V126.976H168.814H168.465Z" fill="white"/>
<path d="M201.558 88.7089H203.771V86.4963H201.558V88.7089Z" fill="#4870C0"/>
<path d="M201.558 88.7089V89.0579H204.12V86.1472H201.209V89.0579H201.558V88.7089H201.907V86.8452H203.422V88.3599H201.558V88.7089H201.907H201.558Z" fill="white"/>
<path d="M201.558 126.976H203.771V124.763H201.558V126.976Z" fill="#4870C0"/>
<path d="M201.558 126.976V127.325H204.12V124.414H201.209V127.325H201.558V126.976H201.907V125.112H203.422V126.627H201.558V126.976H201.907H201.558Z" fill="white"/>
<path d="M234.651 107.842H236.864V105.63H234.651V107.842Z" fill="#4870C0"/>
<path d="M234.652 107.842V108.191H237.213V105.281H234.303V108.191H234.652V107.842H235.001V105.979H236.515V107.493H234.652V107.842H235.001H234.652Z" fill="white"/>
<path d="M168.465 107.842H170.678V105.63H168.465V107.842Z" fill="#4870C0"/>
<path d="M168.465 107.842V108.191H171.027V105.281H168.116V108.191H168.465V107.842H168.814V105.979H170.329V107.493H168.465V107.842H168.814H168.465Z" fill="white"/>
<path d="M229.747 107.426H213.552C212.822 107.426 212.23 106.835 212.23 106.104V101.778C212.23 101.048 212.822 100.456 213.552 100.456H229.747C230.477 100.456 231.069 101.048 231.069 101.778V106.104C231.069 106.835 230.477 107.426 229.747 107.426Z" fill="#C7D9F2"/>
<path d="M201.827 107.426H194.858L196.723 100.456H201.827C202.557 100.456 203.149 101.048 203.149 101.778V106.104C203.149 106.835 202.557 107.426 201.827 107.426ZM191.354 107.426H185.632C184.902 107.426 184.31 106.835 184.31 106.104V101.778C184.31 101.048 184.902 100.456 185.632 100.456H193.219L191.354 107.426Z" fill="#C7D9F2"/>
<path d="M165.881 192.295H161.852V185.325H165.881C166.611 185.325 167.203 185.917 167.203 186.647V190.973C167.203 191.703 166.611 192.295 165.881 192.295Z" fill="#C7D9F2"/>
<path d="M161.851 192.295H149.686C148.957 192.295 148.365 191.703 148.365 190.973V186.647C148.365 185.917 148.957 185.325 149.686 185.325H161.851V192.295Z" fill="#DEEAF8"/>
<path d="M251.318 87.7499H257.209C257.498 87.7499 257.733 87.5154 257.733 87.2264C257.733 86.9374 257.498 86.7029 257.209 86.7029H251.318C251.029 86.7029 250.795 86.9374 250.795 87.2264C250.795 87.5154 251.029 87.7499 251.318 87.7499Z" fill="white"/>
<path d="M251.318 90.5418H257.209C257.498 90.5418 257.733 90.3073 257.733 90.0183C257.733 89.7293 257.498 89.4948 257.209 89.4948H251.318C251.029 89.4948 250.795 89.7293 250.795 90.0183C250.795 90.3073 251.029 90.5418 251.318 90.5418Z" fill="white"/>
<path d="M251.318 93.3339H257.209C257.498 93.3339 257.733 93.0993 257.733 92.8104C257.733 92.5214 257.498 92.2869 257.209 92.2869H251.318C251.029 92.2869 250.795 92.5214 250.795 92.8104C250.795 93.0993 251.029 93.3339 251.318 93.3339Z" fill="white"/>
<path d="M157.371 173.521H148.18L148.675 171.672H149.914V168.76H149.454L157.371 139.18V173.521ZM138.387 173.521H116.7L122.507 151.826V170.216H123.205V150.617C125.226 159.152 131.462 166.056 139.594 169.012L138.387 173.521ZM139.775 168.335C136.294 167.061 133.173 165.041 130.601 162.471C126.84 158.708 124.259 153.767 123.464 148.248L124.048 146.068H124.311V145.084L128.62 128.986C129.236 128.204 129.898 127.46 130.601 126.756C135.173 122.186 141.483 119.359 148.458 119.359V118.661C140.736 118.661 133.801 122.034 129.047 127.388L132.589 114.154H154.276L139.775 168.335ZM98.004 162.469V132.775L101.638 119.197C103.165 117.272 104.502 115.438 105.412 114.154H110.932L98.004 162.469Z" fill="#C8DAF2"/>
<path d="M122.507 170.216H123.205V119.011H122.507V170.216Z" fill="#4870C0"/>
<path d="M147.352 120.117H149.565V117.904H147.352V120.117Z" fill="white"/>
<path d="M147.352 120.117V120.466H149.914V117.555H147.003V120.466H147.352V120.117H147.701V118.253H149.216V119.768H147.352V120.117H147.701H147.352Z" fill="#4870C0"/>
<path d="M147.352 171.323H149.565V169.109H147.352V171.323Z" fill="white"/>
<path d="M147.352 171.323V171.672H149.914V168.76H147.003V171.672H147.352V171.323H147.701V169.458H149.216V170.974H147.352V171.323H147.701H147.352Z" fill="#4870C0"/>
<path d="M121.749 145.719H123.962V143.507H121.749V145.719Z" fill="white"/>
<path d="M121.749 145.719V146.068H124.311V143.158H121.4V146.068H121.749V145.719H122.098V143.856H123.613V145.37H121.749V145.719H122.098H121.749Z" fill="#4870C0"/>
<path d="M123.429 119.01C123.429 119.327 123.173 119.584 122.856 119.584C122.539 119.584 122.282 119.327 122.282 119.01C122.282 118.694 122.539 118.437 122.856 118.437C123.173 118.437 123.429 118.694 123.429 119.01Z" fill="white"/>
<path d="M123.429 119.01H123.08C123.08 119.134 122.979 119.235 122.856 119.235C122.732 119.235 122.632 119.134 122.631 119.01C122.632 118.887 122.731 118.786 122.856 118.786C122.98 118.786 123.08 118.887 123.08 119.01H123.429H123.778C123.778 118.501 123.365 118.088 122.856 118.088C122.346 118.088 121.934 118.501 121.933 119.01C121.934 119.52 122.346 119.933 122.856 119.933C123.366 119.933 123.778 119.52 123.778 119.01H123.429Z" fill="#4870C0"/>
<path d="M123.429 170.216C123.429 170.533 123.173 170.789 122.856 170.789C122.539 170.789 122.282 170.533 122.282 170.216C122.282 169.9 122.539 169.643 122.856 169.643C123.173 169.643 123.429 169.9 123.429 170.216Z" fill="white"/>
<path d="M123.429 170.216H123.08C123.08 170.339 122.979 170.441 122.856 170.441C122.732 170.441 122.632 170.339 122.631 170.216C122.632 170.092 122.732 169.992 122.856 169.992C122.979 169.992 123.08 170.092 123.08 170.216H123.429H123.778C123.778 169.707 123.366 169.294 122.856 169.294C122.346 169.294 121.934 169.707 121.933 170.216C121.934 170.725 122.346 171.139 122.856 171.139C123.366 171.139 123.778 170.725 123.778 170.216H123.429Z" fill="#4870C0"/>
<path d="M221.216 186.168H203.245C200.377 186.168 198.052 183.843 198.052 180.975C198.052 178.107 200.377 175.781 203.245 175.781H221.216C224.084 175.781 226.409 178.107 226.409 180.975C226.409 183.843 224.084 186.168 221.216 186.168Z" fill="#C7D9F2"/>
<path d="M237.007 141.879H185.637L186.244 139.609H237.007C237.633 139.609 238.142 140.117 238.142 140.744C238.142 141.372 237.633 141.879 237.007 141.879ZM182.133 141.879H181.488C180.861 141.879 180.353 141.372 180.353 140.744C180.353 140.117 180.861 139.609 181.488 139.609H182.74L182.133 141.879Z" fill="#C7D9F2"/>
<path d="M237.007 150.169H183.418L184.026 147.899H237.007C237.633 147.899 238.142 148.407 238.142 149.034C238.142 149.661 237.633 150.169 237.007 150.169Z" fill="#C7D9F2"/>
<path d="M237.007 158.459H202.428C201.801 158.459 201.293 157.951 201.293 157.324C201.293 156.698 201.801 156.189 202.428 156.189H237.007C237.633 156.189 238.142 156.698 238.142 157.324C238.142 157.951 237.633 158.459 237.007 158.459Z" fill="#C7D9F2"/>
<path d="M109.536 89.6867L110.38 86.5325C110.623 86.8389 110.769 87.227 110.769 87.6486V87.9808C110.769 88.7765 110.252 89.4508 109.536 89.6867Z" fill="#263C7A"/>
<path d="M235.35 87.2075L238.311 95.1221L243.264 90.1691L235.35 87.2075Z" fill="#4870C0"/>
<path d="M242.565 93.3199L241.461 94.4234L239.009 91.9713L240.113 90.8678L242.565 93.3199Z" fill="#4870C0"/>
<path d="M242.565 93.3199L241.339 92.0942V92.0935L242.565 93.3199ZM243.263 90.1691L237.213 87.9055V87.9048L243.263 90.1691Z" fill="#809FD9"/>
<path d="M236.515 87.6445L235.35 87.2075L236.515 87.6438V87.6445Z" fill="#8DAEE0"/>
<path d="M237.213 87.9055L236.515 87.6445V87.6438L237.213 87.9048V87.9055Z" fill="white"/>
<path d="M238.311 95.1221L235.35 87.2082L236.515 87.6445L237.213 87.9055L243.264 90.1691L241.339 92.0935V92.0942L240.113 90.8678L239.009 91.9714L240.236 93.1971L238.311 95.1221Z" fill="#8DAEE0"/>
<path d="M241.462 94.4234H241.461L242.565 93.3199L241.462 94.4234Z" fill="#809FD9"/>
<path d="M241.461 94.4234L240.236 93.197L239.009 91.9713L240.113 90.8678L241.339 92.0942L242.565 93.3199L241.461 94.4234Z" fill="#8DAEE0"/>
<path d="M114.096 115.494L121.542 118.28L117.639 114.376C117.345 114.54 116.974 114.509 116.724 114.26C116.423 113.959 116.423 113.47 116.724 113.17C117.025 112.869 117.513 112.869 117.815 113.17C118.064 113.419 118.094 113.79 117.931 114.083L121.835 117.988L119.049 110.542L116.583 111.088L116.486 110.198L116.019 109.731L113.285 112.465L113.752 112.932L114.643 113.028L114.096 115.494Z" fill="#1D2A30"/>
<path d="M85.6584 178.903V121.883C85.7736 122.112 85.8888 122.339 86.0054 122.561V177.608L85.6584 178.903Z" fill="#CDDEF3"/>
<path d="M86.0055 177.608V122.561C87.5551 125.537 89.1639 127.839 90.5704 128.263C90.7435 128.316 90.9264 128.341 91.119 128.341C92.9003 128.341 95.4676 126.187 98.0041 123.461V132.775L86.0055 177.608Z" fill="#99B6E4"/>
<path d="M98.004 132.775V123.461C99.2555 122.116 100.499 120.631 101.638 119.197L98.004 132.775Z" fill="#CEDFF4"/>
<path d="M86.0054 92.1668C85.8783 91.9295 85.7625 91.7494 85.6598 91.6363C85.6598 91.6363 85.6598 91.6356 85.6584 91.6349V80.8899H86.0054V92.1668Z" fill="#CDDEF3"/>
<path d="M107.119 98.7133H88.3989C88.3773 98.6442 88.3557 98.5751 88.334 98.5067H107.175L107.119 98.7133ZM86.0055 92.1668V80.8899H111.889L111.859 81.0016H86.0055V92.1668Z" fill="#537BC6"/>
<path d="M107.175 98.5067H88.334C87.472 95.772 86.6141 93.3067 86.0055 92.1668V81.0016H111.859L110.38 86.5326C110.051 86.1193 109.543 85.8541 108.974 85.8541H108.642C107.651 85.8541 106.847 86.6575 106.847 87.6487V87.9809C106.847 88.9728 107.651 89.7762 108.642 89.7762H108.974C109.17 89.7762 109.359 89.7448 109.536 89.6868L107.175 98.5067ZM100.226 85.8541C99.6709 85.8541 99.2214 86.3043 99.2214 86.8592V88.771C99.2214 89.326 99.6709 89.7762 100.226 89.7762H102.138C102.693 89.7762 103.143 89.326 103.143 88.771V86.8592C103.143 86.3043 102.693 85.8541 102.138 85.8541H100.226ZM91.5951 85.8541V89.7762H95.5171V85.8541H91.5951Z" fill="#456BBD"/>
<path d="M92.7405 117.685C92.73 117.685 92.7209 117.683 92.714 117.679C92.4383 117.527 91.1442 113.731 90.0274 110.324L91.5951 109.779C91.5951 109.779 90.0015 103.825 88.3989 98.7133H107.119L104.924 106.916C104.352 107.185 103.974 107.394 103.908 107.502C103.563 108.062 93.5041 117.685 92.7405 117.685Z" fill="#99B6E4"/>
<path d="M91.5951 89.7761H95.5173V85.854H91.5951V89.7761Z" fill="#2B4A90"/>
<path d="M102.138 89.7761H100.226C99.6709 89.7761 99.2214 89.3259 99.2214 88.771V86.8592C99.2214 86.3043 99.6709 85.8541 100.226 85.8541H102.138C102.693 85.8541 103.143 86.3043 103.143 86.8592V88.771C103.143 89.3259 102.693 89.7761 102.138 89.7761Z" fill="#2B4A90"/>
<path d="M108.974 89.7761H108.642C107.651 89.7761 106.847 88.9727 106.847 87.9809V87.6486C106.847 86.6575 107.651 85.8541 108.642 85.8541H108.974C109.543 85.8541 110.051 86.1193 110.38 86.5325L109.536 89.6868C109.359 89.7447 109.17 89.7761 108.974 89.7761Z" fill="#2B4A90"/>
<path d="M136.721 98.7133H115.064L115.119 98.5067H136.777L136.721 98.7133ZM141.462 81.0016H119.803L119.833 80.8899H141.492L141.462 81.0016Z" fill="#537BC6"/>
<path d="M136.777 98.5067H115.119L119.803 81.0016H141.462L136.777 98.5067Z" fill="#456BBD"/>
<path d="M110.061 198.328H88.4087L98.0041 162.469V173.522H116.7L110.061 198.328ZM98.9743 192.035C99.2528 192.217 99.5662 192.351 99.9041 192.42L99.9529 192.939H100.959L101.008 192.42C101.345 192.351 101.658 192.217 101.937 192.035L102.339 192.367L103.05 191.656L102.717 191.254C102.9 190.976 103.033 190.662 103.104 190.325L103.622 190.276V189.27L103.103 189.221C103.033 188.884 102.9 188.57 102.717 188.292L103.05 187.89L102.339 187.179L101.937 187.512C101.658 187.329 101.345 187.195 101.008 187.125L100.959 186.607H99.9529L99.9041 187.125C99.5662 187.195 99.2528 187.329 98.9743 187.512L98.573 187.179L97.8617 187.89L98.194 188.292C98.0111 188.57 97.8778 188.884 97.808 189.221L97.2893 189.27L97.29 190.276L97.8073 190.325C97.8778 190.662 98.0111 190.976 98.194 191.254L97.8617 191.656L98.573 192.367L98.9743 192.035ZM104.284 188.97C104.616 189.187 104.989 189.346 105.39 189.429L105.448 190.046H106.646L106.704 189.429C107.105 189.346 107.479 189.187 107.81 188.97L108.289 189.365L109.136 188.519L108.74 188.04C108.957 187.708 109.116 187.335 109.199 186.934L109.816 186.876V185.678L109.199 185.62C109.116 185.219 108.957 184.845 108.74 184.514L109.136 184.035L108.289 183.188L107.81 183.584C107.479 183.367 107.105 183.208 106.704 183.125L106.646 182.508H105.448L105.39 183.125C104.989 183.208 104.616 183.367 104.284 183.584L103.805 183.188L102.959 184.035L103.355 184.514C103.137 184.845 102.978 185.219 102.895 185.62L102.278 185.678V186.876L102.895 186.934C102.978 187.335 103.137 187.708 103.355 188.04L102.959 188.519L103.805 189.365L104.284 188.97ZM96.5613 185.233C96.9843 185.511 97.4604 185.714 97.9734 185.82L98.0474 186.607H99.576L99.65 185.82C100.162 185.714 100.638 185.511 101.062 185.233L101.672 185.739L102.753 184.658L102.247 184.047C102.525 183.624 102.728 183.148 102.834 182.635L103.622 182.561V181.033L102.834 180.959C102.728 180.446 102.525 179.97 102.247 179.547L102.753 178.937L101.672 177.855L101.061 178.361C100.638 178.083 100.162 177.88 99.65 177.774L99.576 176.987H98.0474L97.9734 177.774C97.4604 177.88 96.9843 178.083 96.5613 178.361L95.9506 177.855L94.8694 178.937L95.3754 179.547C95.0976 179.97 94.8945 180.446 94.7884 180.959L94.0011 181.033V182.561L94.7884 182.635C94.8945 183.148 95.0976 183.624 95.3754 184.047L94.8694 184.658L95.9506 185.739L96.5613 185.233ZM100.455 191.135C99.7037 191.135 99.0937 190.525 99.0937 189.772C99.0937 189.021 99.7037 188.411 100.455 188.411C101.208 188.411 101.817 189.021 101.817 189.772C101.817 190.525 101.208 191.135 100.455 191.135ZM106.047 187.898C105.152 187.898 104.426 187.172 104.426 186.277C104.426 185.381 105.152 184.655 106.047 184.655C106.943 184.655 107.669 185.381 107.669 186.277C107.669 187.172 106.943 187.898 106.047 187.898ZM98.8117 183.867C97.6691 183.867 96.7421 182.94 96.7421 181.798C96.7421 180.654 97.6691 179.728 98.8117 179.728C99.9543 179.728 100.881 180.654 100.881 181.798C100.881 182.94 99.9543 183.867 98.8117 183.867ZM132.589 114.155H120.401L119.049 110.542L117.466 110.893C117.087 108.924 114.673 103.555 114.024 103.544C114.022 103.544 114.021 103.544 114.02 103.544C113.967 103.544 113.879 103.558 113.76 103.586L115.064 98.7133H136.721L132.589 114.155ZM118.002 114.155H116.637C116.544 114.023 116.498 113.869 116.498 113.715C116.498 113.517 116.574 113.32 116.724 113.17C116.875 113.019 117.072 112.943 117.269 112.943C117.466 112.943 117.664 113.019 117.815 113.17C117.963 113.318 118.033 113.509 118.033 113.701C118.032 113.833 117.998 113.965 117.931 114.083L118.002 114.155ZM114.393 114.155H110.932L111.445 112.237C112.172 112.208 112.915 112.173 113.62 112.13L113.285 112.465L113.752 112.932L114.643 113.028L114.393 114.155Z" fill="#99B6E4"/>
<path d="M116.7 173.521H98.004V162.469L110.932 114.154H114.393L114.096 115.494L121.542 118.28L117.639 114.376C117.518 114.443 117.385 114.478 117.252 114.478C117.061 114.478 116.871 114.406 116.724 114.26C116.691 114.227 116.662 114.191 116.636 114.154H118.002L121.835 117.988L120.401 114.154H132.589L129.047 127.388C126.25 130.538 124.208 134.372 123.205 138.609V119.865C123.541 119.727 123.778 119.396 123.778 119.01C123.778 118.501 123.365 118.088 122.856 118.088C122.346 118.088 121.934 118.501 121.933 119.01C121.934 119.396 122.17 119.727 122.507 119.865V143.158H121.4V146.068H121.749H122.507V151.826L116.7 173.521ZM123.464 148.248C123.361 147.53 123.288 146.804 123.246 146.068H124.048L123.464 148.248ZM124.311 145.084V143.158H123.246C123.549 137.821 125.509 132.929 128.62 128.986L124.311 145.084Z" fill="#CEDFF4"/>
<path d="M122.856 119.235C122.732 119.235 122.632 119.134 122.631 119.01C122.632 118.887 122.731 118.786 122.856 118.786C122.98 118.786 123.08 118.887 123.08 119.01C123.08 119.134 122.979 119.235 122.856 119.235Z" fill="white"/>
<path d="M122.856 119.933C122.732 119.933 122.614 119.909 122.507 119.865C122.17 119.727 121.934 119.396 121.933 119.01C121.934 118.501 122.346 118.088 122.856 118.088C123.365 118.088 123.778 118.501 123.778 119.01C123.778 119.396 123.541 119.727 123.205 119.865C123.097 119.909 122.979 119.933 122.856 119.933ZM122.856 118.786C122.731 118.786 122.632 118.887 122.631 119.01C122.632 119.134 122.732 119.235 122.856 119.235C122.979 119.235 123.08 119.134 123.08 119.01C123.08 118.887 122.98 118.786 122.856 118.786Z" fill="#537BC6"/>
<path d="M99.576 186.607H98.0474L97.9734 185.82C97.4604 185.714 96.9844 185.511 96.5614 185.233L95.9506 185.739L94.8694 184.658L95.3755 184.047C95.0977 183.624 94.8945 183.148 94.7884 182.635L94.0011 182.561V181.033L94.7884 180.959C94.8945 180.446 95.0977 179.97 95.3755 179.547L94.8694 178.937L95.9506 177.855L96.5614 178.361C96.9844 178.083 97.4604 177.88 97.9734 177.774L98.0474 176.987H99.576L99.65 177.774C100.162 177.88 100.638 178.083 101.061 178.361L101.672 177.855L102.753 178.937L102.247 179.547C102.525 179.97 102.728 180.446 102.834 180.959L103.622 181.033V182.561L102.834 182.635C102.728 183.148 102.525 183.624 102.247 184.047L102.753 184.658L101.672 185.739L101.062 185.233C100.638 185.511 100.162 185.714 99.65 185.82L99.576 186.607ZM98.8117 179.728C97.6691 179.728 96.7421 180.654 96.7421 181.798C96.7421 182.94 97.6691 183.867 98.8117 183.867C99.9543 183.867 100.881 182.94 100.881 181.798C100.881 180.654 99.9543 179.728 98.8117 179.728Z" fill="#F6FAFE"/>
<path d="M106.646 190.046H105.448L105.39 189.429C104.989 189.346 104.616 189.187 104.284 188.97L103.805 189.365L102.959 188.519L103.355 188.04C103.137 187.708 102.978 187.335 102.895 186.934L102.278 186.876V185.678L102.895 185.62C102.978 185.219 103.137 184.845 103.355 184.514L102.959 184.035L103.805 183.188L104.284 183.584C104.616 183.367 104.989 183.208 105.39 183.125L105.448 182.508H106.646L106.704 183.125C107.105 183.208 107.479 183.367 107.81 183.584L108.289 183.188L109.136 184.035L108.74 184.514C108.957 184.845 109.116 185.219 109.199 185.62L109.816 185.678V186.876L109.199 186.934C109.116 187.335 108.957 187.708 108.74 188.04L109.136 188.519L108.289 189.365L107.81 188.97C107.479 189.187 107.105 189.346 106.704 189.429L106.646 190.046ZM106.047 184.655C105.152 184.655 104.426 185.381 104.426 186.277C104.426 187.172 105.152 187.898 106.047 187.898C106.943 187.898 107.669 187.172 107.669 186.277C107.669 185.381 106.943 184.655 106.047 184.655Z" fill="#D9E4F6"/>
<path d="M100.959 192.939H99.9529L99.904 192.42C99.5662 192.351 99.2528 192.217 98.9743 192.035L98.5729 192.367L97.8617 191.656L98.1939 191.254C98.011 190.976 97.8777 190.662 97.8072 190.325L97.29 190.276L97.2893 189.27L97.8079 189.221C97.8777 188.884 98.011 188.57 98.1939 188.292L97.8617 187.89L98.5729 187.179L98.9743 187.512C99.2528 187.329 99.5662 187.195 99.904 187.125L99.9529 186.607H100.959L101.008 187.125C101.345 187.195 101.658 187.329 101.937 187.512L102.339 187.179L103.05 187.89L102.717 188.292C102.9 188.57 103.033 188.884 103.103 189.221L103.622 189.27V190.276L103.104 190.325C103.033 190.662 102.9 190.976 102.717 191.254L103.05 191.656L102.339 192.367L101.937 192.035C101.658 192.217 101.345 192.351 101.008 192.42L100.959 192.939ZM100.455 188.411C99.7037 188.411 99.0936 189.021 99.0936 189.772C99.0936 190.525 99.7037 191.135 100.455 191.135C101.208 191.135 101.817 190.525 101.817 189.772C101.817 189.021 101.208 188.411 100.455 188.411Z" fill="#C3D7F1"/>
<path d="M121.542 118.28L114.096 115.494L114.643 113.028L113.752 112.932L113.285 112.465L113.62 112.13C115.606 112.009 117.289 111.826 117.47 111.55C117.536 111.45 117.529 111.218 117.466 110.893L119.049 110.542L121.835 117.988L117.931 114.083C117.998 113.965 118.032 113.833 118.033 113.701C118.033 113.509 117.963 113.318 117.815 113.17C117.664 113.019 117.466 112.943 117.269 112.943C117.072 112.943 116.875 113.019 116.724 113.17C116.574 113.32 116.498 113.517 116.498 113.715C116.498 113.912 116.574 114.109 116.724 114.26C116.871 114.407 117.061 114.478 117.252 114.478C117.385 114.478 117.518 114.443 117.639 114.376L121.542 118.28Z" fill="#57676E"/>
<path d="M161.852 122.44V98.7133H158.408L158.464 98.5067H168.257L161.852 122.44ZM172.942 81.0015H163.148L163.178 80.8898H172.971L172.942 81.0015Z" fill="#537BC6"/>
<path d="M168.257 98.5067H158.464L163.148 81.0016H172.942L171.268 87.2536H171.027V86.1473H168.116V89.0579H168.464H169.222V89.3476H169.92V89.0579H170.786L169.862 92.5095H169.222V94.9002L168.257 98.5067ZM171.027 88.1575V87.9516H171.082L171.027 88.1575Z" fill="#456BBD"/>
<path d="M141.54 198.328H131.748L138.387 173.522H148.18L141.54 198.328ZM157.371 139.18V114.155H154.276L158.408 98.7133H161.852V122.44L157.371 139.18Z" fill="#99B6E4"/>
<path d="M169.222 94.9001V92.5095H169.862L169.222 94.9001Z" fill="white"/>
<path d="M169.92 89.3475H169.222V89.0579H169.92V89.3475ZM171.082 87.9515H171.027V87.2535H171.268L171.082 87.9515Z" fill="white"/>
<path d="M168.814 88.3599H170.329V86.8453H168.814V88.3599Z" fill="#537BC6"/>
<path d="M170.786 89.0579H168.116V86.1472H171.027V87.2535V87.9515V88.1574L170.786 89.0579ZM168.814 88.3599H170.329V86.8452H168.814V88.3599Z" fill="white"/>
<path d="M148.18 173.521H138.387L139.594 169.012C141.926 169.86 144.413 170.382 147.003 170.525V171.672H147.352H148.675L148.18 173.521ZM147.003 169.826C144.476 169.682 142.049 169.167 139.775 168.335L154.276 114.154H157.371V139.18L149.454 168.76H147.003V169.826Z" fill="#CEDFF4"/>
<path d="M147.003 170.525C144.413 170.382 141.926 169.86 139.594 169.012L139.775 168.335C142.049 169.167 144.476 169.682 147.003 169.826V170.525Z" fill="#537BC6"/>
<path d="M148.862 170.974H147.701V169.458H149.216V169.651L148.862 170.974Z" fill="white"/>
<path d="M148.675 171.672H147.003V168.76H149.454L149.216 169.651V169.458H147.701V170.974H148.862L148.675 171.672Z" fill="#537BC6"/>
<path d="M170.528 198.328H167.025L182.133 141.879H185.637L184.026 147.899H181.488C180.861 147.899 180.353 148.407 180.353 149.034C180.353 149.661 180.861 150.169 181.488 150.169H183.418L170.528 198.328ZM186.244 139.609H182.74L191.354 107.426H194.858L190.015 125.521H189.756V126.219H189.828L186.244 139.609ZM196.723 100.456H193.219L193.741 98.5067H197.245L196.723 100.456ZM201.929 81.0016H198.425L198.455 80.8899H201.959L201.929 81.0016Z" fill="#537BC6"/>
<path d="M197.245 98.5067H193.741L198.425 81.0016H201.929L200.256 87.2536H197.133V87.9516H200.07L197.245 98.5067Z" fill="#456BBD"/>
<path d="M189.828 126.219H189.756V125.521H190.015L189.828 126.219Z" fill="white"/>
<path d="M200.07 87.9516H197.133V87.2536H200.256L200.07 87.9516Z" fill="white"/>
<path d="M194.858 107.426H191.354L193.219 100.456H196.723L194.858 107.426Z" fill="#CDDEF3"/>
<path d="M185.637 141.879H182.133L182.74 139.609H186.244L185.637 141.879Z" fill="#CDDEF3"/>
<path d="M183.418 150.169H181.488C180.861 150.169 180.353 149.661 180.353 149.034C180.353 148.407 180.861 147.899 181.488 147.899H184.026L183.418 150.169Z" fill="#CDDEF3"/>
<path d="M308.448 106.798C310.925 109.658 323.53 133.94 321.093 139.609C318.656 145.278 298.459 138.744 298.459 138.744L299.665 130.743C299.665 130.743 307.514 131.02 308.265 130.275C309.016 129.531 297.647 118.176 297.647 118.176L308.448 106.798Z" fill="#1D2A30"/>
<path d="M320.859 140.044L320.857 140.043C320.948 139.906 321.027 139.763 321.093 139.609C321.724 138.14 321.346 135.421 320.395 132.148V132.147C321.346 135.42 321.725 138.141 321.094 139.612C321.028 139.765 320.95 139.909 320.859 140.044ZM320.221 131.563C318.46 125.79 315.064 118.483 312.303 113.255C315.065 118.483 318.46 125.787 320.221 131.561V131.563Z" fill="white"/>
<path d="M320.395 132.148C320.339 131.955 320.281 131.76 320.221 131.563V131.561C320.281 131.758 320.339 131.954 320.395 132.147V132.148Z" fill="#F3F3F2"/>
<path d="M320.858 140.043L318.789 138.106C314.882 125.124 307.476 113.137 307.476 113.137L307.475 113.137C308.498 110.227 309.256 108.51 309.256 108.51C309.256 108.51 309.196 107.823 308.465 106.821C309.159 107.634 310.612 110.056 312.303 113.255C315.064 118.483 318.461 125.79 320.221 131.563C320.281 131.76 320.339 131.955 320.395 132.148C321.346 135.421 321.724 138.14 321.093 139.609C321.027 139.763 320.948 139.906 320.858 140.043Z" fill="#45555C"/>
<path d="M313.665 141.883C313.389 141.867 313.11 141.848 312.828 141.825L312.828 141.824C313.109 141.847 313.389 141.867 313.665 141.882V141.883Z" fill="#CFCECC"/>
<path d="M313.665 141.882C313.389 141.866 313.109 141.847 312.828 141.824L311.189 139.564L313.665 141.882Z" fill="#364248"/>
<path d="M303.972 140.276C303.256 140.101 302.583 139.928 301.969 139.764C301.969 139.763 301.968 139.762 301.968 139.761C302.582 139.925 303.255 140.098 303.971 140.274L303.972 140.276Z" fill="#CFCECC"/>
<path d="M303.971 140.274C303.255 140.098 302.582 139.925 301.968 139.761C301.699 139.157 301.417 138.555 301.117 137.953L302.192 137.993L302.193 137.992C302.196 137.94 302.199 137.888 302.203 137.836L303.971 140.274Z" fill="#364248"/>
<path d="M318.789 138.106L304.204 124.451C305.246 119.881 306.484 115.952 307.475 113.138L307.476 113.137C307.476 113.137 314.882 125.124 318.789 138.106Z" fill="#364248"/>
<path d="M282.979 106.002C281.58 107.017 280.892 108.454 281.442 109.213L318.326 160.065C318.876 160.823 320.457 160.616 321.856 159.601C323.255 158.586 323.943 157.148 323.393 156.39L286.509 105.538C285.959 104.779 284.379 104.987 282.979 106.002Z" fill="#1D2A30"/>
<path d="M318.329 160.063L302.203 137.83C302.253 137.04 302.316 136.256 302.391 135.476L319.228 158.096C318.786 159.013 318.025 159.644 318.329 160.063ZM319.167 157.462L302.494 134.475C302.595 133.555 302.711 132.646 302.841 131.748L311.183 139.559L323.391 156.391C323.52 156.568 323.58 156.783 323.58 157.022C323.58 156.783 323.52 156.568 323.391 156.391C323.168 156.083 322.775 155.935 322.293 155.935C321.588 155.935 320.693 156.252 319.864 156.853C319.604 157.042 319.376 157.251 319.167 157.462Z" fill="#BDC1C2"/>
<path d="M319.428 160.52C318.946 160.52 318.552 160.37 318.329 160.063C318.025 159.644 318.786 159.013 319.228 158.096L302.391 135.476C302.398 135.403 302.405 135.33 302.413 135.257C302.439 134.995 302.466 134.735 302.494 134.475L319.167 157.462C319.376 157.251 319.604 157.042 319.864 156.853C320.693 156.252 321.587 155.935 322.292 155.935C322.775 155.935 323.168 156.083 323.391 156.39C323.52 156.568 323.58 156.783 323.58 157.021C323.578 157.799 322.924 158.825 321.856 159.6C321.024 160.203 320.131 160.52 319.428 160.52Z" fill="#7F8486"/>
<path d="M278.411 104.59C277.23 105.852 276.827 107.394 277.511 108.035L323.37 150.969C324.054 151.61 325.567 151.106 326.748 149.844C327.929 148.583 328.332 147.041 327.648 146.4L281.789 103.466C281.105 102.825 279.593 103.329 278.411 104.59Z" fill="#4870C0"/>
<path d="M323.372 150.966L302.841 131.744C302.93 131.126 303.026 130.514 303.126 129.908L323.882 148.864C323.623 149.849 322.995 150.613 323.372 150.966ZM323.702 148.254L303.261 129.116C303.544 127.505 303.863 125.944 304.203 124.453L327.646 146.401C327.872 146.611 327.978 146.921 327.978 147.286C327.978 146.921 327.872 146.611 327.646 146.401C327.445 146.212 327.173 146.124 326.857 146.124C326.101 146.124 325.103 146.636 324.271 147.524C324.051 147.758 323.867 148.006 323.702 148.254Z" fill="#C7D9F2"/>
<path d="M324.163 151.244C323.847 151.244 323.573 151.155 323.372 150.966C322.995 150.613 323.623 149.849 323.882 148.864L303.126 129.908C303.17 129.642 303.215 129.379 303.261 129.116L323.702 148.254C323.867 148.006 324.051 147.758 324.271 147.524C325.103 146.636 326.101 146.124 326.857 146.124C327.173 146.124 327.445 146.212 327.646 146.401C327.871 146.612 327.978 146.921 327.978 147.286C327.978 148.028 327.536 148.999 326.747 149.843C325.914 150.733 324.917 151.244 324.163 151.244Z" fill="#8394B7"/>
<path d="M289.433 241.611L285.936 241.667C282.383 224.977 279.87 204.324 278.307 188.745C278.062 186.302 277.839 183.991 277.643 181.834C277.553 180.809 277.462 179.824 277.378 178.875C276.959 174.191 276.673 170.478 276.499 168.182C276.373 166.506 276.31 165.585 276.31 165.585H288.944L288.825 168.802L288.435 179.426L288.393 180.64L288.127 187.655L287.688 199.599C292.022 216.413 289.433 241.611 289.433 241.611Z" fill="#F9A95E"/>
<path d="M317.771 240.718L314.33 241.366C307.441 224.147 300.971 202.098 296.762 186.692C296.113 184.305 295.512 182.071 294.975 180.048C294.947 179.942 294.926 179.845 294.898 179.747C293.837 175.727 293.02 172.523 292.511 170.492C292.12 168.9 291.904 168.028 291.904 168.028L304.356 165.878L305.061 171.113L306.101 178.805L306.303 180.313L307.008 185.554L308.9 199.612C316.033 215.443 317.771 240.718 317.771 240.718Z" fill="#F9A95E"/>
<path d="M294.975 180.048C294.947 179.942 294.926 179.845 294.898 179.747C294.649 178.802 294.413 177.902 294.191 177.052L305.666 175.587L306.101 178.805L294.975 180.048Z" fill="#CA8849"/>
<path d="M277.643 181.834C277.553 180.809 277.462 179.824 277.378 178.874C277.326 178.285 277.275 177.712 277.227 177.155L288.497 177.746L288.434 179.426L288.393 180.64L277.643 181.834Z" fill="#CA8849"/>
<path d="M279.108 253.211C279.76 252.685 280.501 252.281 281.297 252.022C281.297 252.022 283.677 249.66 284.822 242.552L287.938 241.74C289.021 241.477 290.154 241.919 290.773 242.847C290.859 242.972 290.926 243.11 290.971 243.255C291.132 244.017 291.243 244.789 291.304 245.566C291.617 247.971 291.349 253.372 291.349 253.372H290.786L290.561 248.471C290.478 246.807 289.205 248.758 288.841 250.55C288.476 252.341 287.702 254.249 284.055 254.337C279.8 254.421 278.034 254.254 279.108 253.211Z" fill="#1D2A30"/>
<path d="M290.882 242.904C291.086 241.24 291.151 238.348 291.151 238.348L284.228 239.116C284.228 239.116 285.065 242.405 284.375 244.875C287.862 243.959 290.882 242.904 290.882 242.904Z" fill="#1D2A30"/>
<path d="M307.279 253.211C307.93 252.685 308.672 252.281 309.467 252.022C309.467 252.022 311.848 249.66 312.993 242.552L316.109 241.74C317.192 241.477 318.324 241.919 318.943 242.847C319.03 242.972 319.097 243.11 319.142 243.255C319.302 244.017 319.413 244.789 319.475 245.566C319.788 247.971 319.519 253.372 319.519 253.372H318.956L318.732 248.471C318.649 246.807 317.376 248.758 317.011 250.55C316.646 252.341 315.872 254.249 312.225 254.337C307.97 254.421 306.204 254.254 307.279 253.211Z" fill="#1D2A30"/>
<path d="M319.052 242.904C319.257 241.24 319.321 238.348 319.321 238.348L312.398 239.116C312.398 239.116 313.236 242.405 312.545 244.875C316.032 243.959 319.052 242.904 319.052 242.904Z" fill="#1D2A30"/>
<path d="M307.302 175.377L294.13 177.06L293.621 177.122L290.913 167.198L290.201 177.835L276.087 177.095C269.798 140.191 280.547 131.473 280.547 131.473L299.693 135.326C308.365 150.065 306.301 167.198 306.301 167.198L307.302 175.377Z" fill="#4870C0"/>
<path d="M289.17 85.496H288.996C288.996 86.1947 288.839 86.8249 288.596 87.2668C288.351 87.7135 288.037 87.9473 287.734 87.9445C287.431 87.9473 287.117 87.7135 286.872 87.2668C286.629 86.8249 286.472 86.1947 286.473 85.496C286.472 84.7973 286.629 84.167 286.872 83.7244C287.117 83.2784 287.431 83.0439 287.734 83.0474C288.037 83.0439 288.351 83.2784 288.596 83.7244C288.839 84.167 288.996 84.7973 288.996 85.496H289.17H289.345C289.344 84.7456 289.179 84.0644 288.903 83.5569C288.628 83.0544 288.224 82.7012 287.734 82.6984C287.244 82.7012 286.841 83.0544 286.566 83.5569C286.289 84.0644 286.125 84.7456 286.124 85.496C286.125 86.2463 286.289 86.9269 286.566 87.4343C286.841 87.9376 287.244 88.2908 287.734 88.2935C288.224 88.2908 288.628 87.9376 288.903 87.4343C289.179 86.9269 289.344 86.2463 289.345 85.496H289.17Z" fill="#1D2A30"/>
<path d="M298.625 94.2866L298.458 94.408C297.684 94.9588 296.794 95.4864 295.784 95.7161C292.955 96.3687 291.023 95.982 289.763 94.7026H289.756C287.99 92.7831 287.549 89.3824 287.799 85.281C287.907 83.3999 288.176 81.7631 288.694 80.4899L288.707 80.4173L288.778 80.2435C289.552 78.465 290.838 77.3126 292.892 76.8261C293.602 76.66 294.408 76.5664 295.317 76.5539C303.314 76.4708 304.754 89.7182 298.625 94.2866Z" fill="#F9A95E"/>
<path d="M293.47 95.8948C291.854 95.8948 290.644 95.3866 289.763 94.4785C290.362 94.6112 291.049 94.7075 291.784 94.7075C292.525 94.7075 293.314 94.6091 294.107 94.3487C294.097 94.8234 294.056 95.3448 293.963 95.8794C293.795 95.8899 293.63 95.8948 293.47 95.8948Z" fill="#CA8849"/>
<path d="M299.271 101.632C299.763 103.91 296.814 104.838 296.814 104.838C291.99 102.777 291.094 100.211 291.094 100.211C295.119 98.1131 293.954 92.1752 293.954 92.1752L294.773 92.5779L300.52 93.7024C300.52 93.7024 298.926 96.7624 298.715 97.4604L298.708 97.4793C297.627 101.126 299.271 101.632 299.271 101.632Z" fill="#F9A95E"/>
<path d="M288.691 80.4369C288.691 80.4369 288.25 86.046 293.565 88.4548C293.565 88.4548 295.848 94.281 299.208 94.3634C303.788 94.4758 307.826 87.9578 306.238 81.3191C304.181 72.71 291.139 72.0106 288.691 80.4369Z" fill="#1D2A30"/>
<path d="M290.874 86.8445C290.875 85.97 291.579 84.5 292.939 84.6996C294.347 84.9062 295.126 88.3759 291.668 89.1507C291.171 89.2624 290.87 88.6698 290.874 86.8445Z" fill="#F9A95E"/>
<path d="M298.458 74.476C298.458 74.476 293.108 73.1233 290.15 75.2745C286.696 77.7866 285.386 80.3867 289.476 84.4204C289.476 84.4204 298.46 81.5083 301.447 82.1247C304.433 82.7417 306.569 83.6121 306.569 83.6121C307.197 77.6791 301.447 73.2636 298.458 74.476Z" fill="#1D2A30"/>
<path d="M290.874 85.4939C290.874 85.4939 292.304 91.9623 290.077 97.4709C290.077 97.4709 302.779 101.878 307.198 99.4846C311.615 97.0912 307.565 89.0544 307.382 84.4204C307.198 79.787 305.183 72.9389 298.459 74.4759C291.734 76.0129 290.874 85.4939 290.874 85.4939Z" fill="#1D2A30"/>
<path d="M286.299 85.2566H291.665C291.761 85.2566 291.839 85.1784 291.839 85.0821C291.839 84.9858 291.761 84.9076 291.665 84.9076H286.299C286.202 84.9076 286.124 84.9858 286.124 85.0821C286.124 85.1784 286.202 85.2566 286.299 85.2566Z" fill="#1D2A30"/>
<path d="M293.621 177.122L290.912 167.198C290.912 167.198 296.72 157.279 294.905 152.113C295.163 152.477 301.417 161.753 294.13 177.06L293.621 177.122Z" fill="#395EB4"/>
<path d="M283.255 101.131C283.255 101.131 289.642 98.8529 299.271 101.632C308.899 104.411 309.253 108.512 309.253 108.512C309.253 108.512 303.153 122.339 302.193 137.992L277.105 137.054C277.105 137.054 274.113 114.962 283.255 101.131Z" fill="#1D2A30"/>
<path d="M302.192 137.993L301.117 137.953L301.116 137.951L302.193 137.992C302.192 137.993 302.192 137.993 302.192 137.993Z" fill="#5D686F"/>
<path d="M301.117 137.953L277.106 137.057C277.106 137.057 277.106 137.057 277.105 137.054L301.116 137.951L301.117 137.953Z" fill="#658ACF"/>
<path d="M308.446 106.799C308.367 106.691 308.279 106.578 308.182 106.462C308.182 106.462 308.182 106.461 308.182 106.46C308.279 106.576 308.367 106.689 308.448 106.798C308.448 106.797 308.448 106.797 308.448 106.797L308.446 106.799Z" fill="white"/>
<path d="M308.466 106.821C308.46 106.814 308.454 106.808 308.448 106.801C308.448 106.801 308.447 106.799 308.446 106.798L308.448 106.797C308.454 106.806 308.46 106.813 308.466 106.821Z" fill="#45555C"/>
<path d="M307.473 113.138C308.496 110.229 309.253 108.512 309.253 108.512C309.253 108.512 309.193 107.815 308.448 106.802C308.454 106.808 308.46 106.814 308.465 106.821C309.196 107.823 309.256 108.51 309.256 108.51C309.256 108.51 308.498 110.227 307.475 113.138H307.473Z" fill="#6A797F"/>
<path d="M304.204 124.451L304.202 124.45C305.245 119.88 306.483 115.952 307.472 113.138H307.475C306.484 115.952 305.246 119.881 304.204 124.451Z" fill="#5D686F"/>
<path d="M302.494 134.475V134.475C302.595 133.555 302.711 132.645 302.84 131.748H302.841C302.711 132.646 302.595 133.555 302.494 134.475Z" fill="#CBCFCF"/>
<path d="M302.413 135.257C302.439 134.996 302.466 134.735 302.494 134.475V134.475C302.466 134.735 302.439 134.995 302.413 135.257Z" fill="#999D9D"/>
<path d="M302.841 131.748H302.84C302.84 131.746 302.84 131.745 302.841 131.744C302.841 131.746 302.841 131.747 302.841 131.748ZM304.203 124.453L304.202 124.451V124.45L304.204 124.451L304.203 124.453Z" fill="#658ACF"/>
<path d="M302.841 131.744C302.929 131.126 303.025 130.513 303.125 129.907L303.126 129.908C303.026 130.514 302.93 131.126 302.841 131.744ZM303.261 129.116L303.26 129.115C303.543 127.504 303.862 125.944 304.202 124.451L304.203 124.453C303.863 125.944 303.544 127.505 303.261 129.116Z" fill="#D4E1F5"/>
<path d="M303.126 129.908L303.125 129.907C303.169 129.642 303.214 129.378 303.26 129.115L303.261 129.116C303.215 129.379 303.17 129.642 303.126 129.908Z" fill="#9FABC6"/>
<path d="M302.193 137.992L301.116 137.951L277.105 137.054C277.092 136.952 276.686 133.902 276.645 129.407C281.795 125.539 282.877 119.293 282.906 119.122C282.906 119.122 282.907 119.122 282.907 119.122C282.907 119.122 284.861 114.23 284.863 108.71C284.864 106.178 284.453 103.515 283.255 101.131C283.277 101.124 285.667 100.279 289.712 100.255C289.726 100.359 291.962 116.195 298.997 116.837C299.184 116.854 299.369 116.863 299.551 116.863C304.721 116.863 307.663 110.135 308.182 106.463C308.279 106.578 308.367 106.691 308.446 106.799C308.447 106.8 308.448 106.801 308.448 106.802C309.193 107.815 309.253 108.512 309.253 108.512C309.253 108.512 308.496 110.229 307.472 113.138C306.483 115.952 305.244 119.88 304.202 124.45V124.451C303.862 125.944 303.543 127.504 303.26 129.115C303.214 129.378 303.169 129.642 303.125 129.907C303.025 130.513 302.929 131.126 302.841 131.744C302.84 131.745 302.84 131.746 302.84 131.748C302.711 132.645 302.595 133.555 302.494 134.475C302.466 134.735 302.438 134.996 302.413 135.257C302.323 136.161 302.249 137.074 302.192 137.993" fill="#45555C"/>
<path d="M276.645 129.407C276.642 129.12 276.641 128.828 276.641 128.53C276.641 126.541 276.714 124.305 276.917 121.939C280.328 120.512 282.85 119.153 282.906 119.122C282.877 119.293 281.795 125.539 276.645 129.407Z" fill="#364248"/>
<path d="M255.192 100.694L252.029 96.0016C252.029 96.0016 251.543 93.9642 250.935 93.4993C250.326 93.0337 244.244 90.4546 243.514 90.4665C242.784 90.4791 242.784 95.1989 243.514 96.0016C244.244 96.8043 248.076 98.5235 249.079 98.698C250.083 98.8725 249.596 98.698 249.596 98.698L252.394 104.276L255.192 100.694Z" fill="#F9A95E"/>
<path d="M283.255 101.131C283.255 101.131 274.454 104.595 263.695 111.222L253.489 97.2971C253.489 97.2971 250.733 98.1521 249.718 102.938C249.718 102.938 254.962 122.912 261.773 124.89C268.584 126.869 282.907 119.122 282.907 119.122C282.907 119.122 287.066 108.712 283.255 101.131Z" fill="#1D2A30"/>
<path d="M264.345 125.214C263.878 125.214 263.427 125.189 262.997 125.136C262.567 125.083 262.158 125.003 261.773 124.89C254.962 122.912 249.718 102.938 249.718 102.938C250.733 98.1522 253.489 97.2971 253.489 97.2971L263.695 111.222C274.454 104.595 283.255 101.131 283.255 101.131C284.453 103.515 284.864 106.179 284.863 108.71C284.862 114.23 282.907 119.122 282.907 119.122C282.907 119.122 282.906 119.122 282.906 119.122C282.85 119.153 280.328 120.512 276.917 121.939H276.916C273.102 123.535 268.177 125.214 264.345 125.214Z" fill="#45555C"/>
<path d="M289.712 100.254C289.712 100.254 291.939 116.193 298.997 116.837C306.055 117.48 309.214 105.706 308.018 104.276C306.821 102.846 297.731 100.147 289.712 100.254Z" fill="#1D2A30"/>
<path d="M299.551 116.863C299.369 116.863 299.184 116.854 298.997 116.837C291.939 116.193 289.712 100.254 289.712 100.254C289.867 100.252 290.023 100.251 290.178 100.251C298.08 100.251 306.844 102.874 308.018 104.276C308.184 104.475 308.265 104.872 308.265 105.408C308.262 108.633 305.269 116.863 299.551 116.863Z" fill="#5D6C72"/>
<path d="M38.6427 246.892H43.8112L44.2384 234.919H39.0637L38.6427 246.892Z" fill="#CE6858"/>
<path d="M44.5278 246.294H38.2486C38.0369 246.295 37.854 246.442 37.8079 246.649L36.789 251.252C36.7018 251.663 36.9651 252.068 37.3771 252.155L37.5451 252.172C39.5769 252.139 41.0563 252.014 43.6073 252.014C45.1789 252.014 49.9193 252.179 52.0894 252.179C54.2589 252.179 54.5419 250.035 53.6542 249.838C49.6696 248.97 46.6715 247.766 45.3957 246.623C45.1592 246.405 44.8484 246.288 44.5278 246.294Z" fill="#1D2A30"/>
<path d="M45.2377 246.839C45.8408 247.043 46.499 247.01 47.0786 246.747C47.2025 246.636 47.2644 246.472 47.2431 246.307C47.2365 246.208 47.197 246.162 47.1643 246.162L47.0064 246.13C46.3772 246.251 45.7765 246.492 45.2377 246.839ZM44.8829 247.01L44.7905 246.906L44.85 246.787C45.0341 246.668 46.7043 245.643 47.2761 245.939C47.4077 246.001 47.4901 246.135 47.4863 246.28C47.5209 246.53 47.4242 246.778 47.23 246.939C46.9388 247.137 46.5884 247.23 46.2373 247.202C45.7803 247.188 45.326 247.123 44.8829 247.01Z" fill="#4870C0"/>
<path d="M45.6783 245.025C45.3149 245.489 45.1013 246.054 45.067 246.642C45.5992 246.241 46.2572 245.38 46.1915 245.045C46.1846 245.012 46.1715 244.919 46.0137 244.919H45.9545C45.8528 244.92 45.7547 244.957 45.6783 245.025ZM44.85 247.037L44.7905 246.925C44.7974 246.853 44.9222 245.367 45.5204 244.881C45.663 244.755 45.8523 244.698 46.0402 244.722C46.2315 244.722 46.3968 244.856 46.4347 245.045C46.5396 245.59 45.5074 246.728 44.9749 247.017H44.9157L44.85 247.037Z" fill="#4870C0"/>
<path d="M38.8465 241.1H38.8402L38.879 240.03H38.8841L38.8465 241.1Z" fill="#CECDCC"/>
<path d="M44.0149 241.1H38.8464L38.8841 240.03H44.0537L44.0149 241.1Z" fill="#A25245"/>
<path d="M65.2587 247.281L70.5929 247.845L71.5938 236.34L66.2598 235.777L65.2587 247.281Z" fill="#CE6858"/>
<path d="M71.1569 246.13H64.8777C64.6661 246.131 64.4832 246.278 64.4371 246.484L63.4182 251.087C63.3309 251.499 63.5944 251.904 64.0063 251.991L64.1743 252.008C66.2061 251.975 67.6855 251.85 70.2362 251.85C71.8081 251.85 76.549 252.014 78.7183 252.014C80.8884 252.014 81.1711 249.871 80.2833 249.674C76.2991 248.806 73.3005 247.602 72.0252 246.458C71.7886 246.241 71.478 246.124 71.1569 246.13Z" fill="#1D2A30"/>
<path d="M71.8675 246.675C72.4705 246.879 73.1287 246.846 73.7081 246.583C73.8323 246.472 73.8938 246.307 73.8728 246.143C73.8658 246.044 73.8267 245.998 73.7939 245.998L73.6362 245.965C73.0066 246.086 72.4063 246.328 71.8675 246.675ZM71.5122 246.846L71.42 246.741L71.4794 246.623C71.6636 246.504 73.334 245.478 73.9056 245.775C74.0368 245.837 74.1192 245.971 74.1157 246.116C74.1506 246.365 74.0536 246.614 73.8596 246.774C73.5678 246.973 73.2181 247.065 72.867 247.037C72.4098 247.024 71.9554 246.96 71.5122 246.846Z" fill="#4870C0"/>
<path d="M72.3079 244.861C71.9442 245.325 71.7307 245.889 71.6965 246.479C72.229 246.076 72.8865 245.216 72.8209 244.881C72.8139 244.847 72.8007 244.755 72.6429 244.755H72.5836C72.4824 244.756 72.384 244.794 72.3079 244.861ZM71.4794 246.872L71.42 246.761C71.427 246.688 71.5513 245.203 72.1502 244.715C72.2925 244.591 72.4817 244.534 72.6695 244.558C72.8607 244.558 73.0261 244.692 73.0638 244.881C73.1692 245.426 72.1369 246.564 71.6043 246.853H71.545L71.4794 246.872Z" fill="#4870C0"/>
<path d="M65.7434 241.71H65.739L66.0188 238.523L66.0209 238.523L65.7434 241.71Z" fill="#CECDCC"/>
<path d="M71.0731 242.274L65.7434 241.711L66.0209 238.523L71.3446 239.184L71.0731 242.274Z" fill="#A25245"/>
<path d="M41.1976 129.896H68.632C71.2407 144.14 79.4052 194.545 73.5475 239.457L64.2599 238.305C64.2599 238.305 65.1198 178.683 56.9197 156.642C55.9763 168.438 54.8568 180.989 53.884 187.668C51.4971 204.106 46.3884 240.03 46.3884 240.03H36.9335C36.9335 240.03 38.8663 205.644 39.7609 189.489C40.7379 171.95 41.1602 133.497 41.1976 129.896Z" fill="#1D2A30"/>
<path d="M74.6099 241.62L63.1145 239.91L63.4662 236.727L75.4238 238.296L74.6099 241.62Z" fill="#4870C0"/>
<path d="M47.5262 240.106H36.3743V236.773L47.9469 236.556L47.5262 240.106Z" fill="#4870C0"/>
<path d="M59.986 168.511C59.1377 163.948 58.1316 159.892 56.9219 156.643L57.6848 146.882C57.6848 146.882 60.7533 158.015 59.986 168.511Z" fill="#182124"/>
<path d="M40.4227 134.67L39.7964 137.984C39.7964 137.984 58.9928 140.47 70.935 140.4L70.5211 138.122L40.4227 134.67Z" fill="#4870C0"/>
<path d="M79.3884 105.961C79.3884 105.961 86.0306 126.894 90.5704 128.263C95.1095 129.632 106.658 112.357 106.658 112.357C106.658 112.357 117.006 112.257 117.47 111.55C117.933 110.844 114.781 103.557 114.024 103.544C113.267 103.53 104.257 106.934 103.908 107.502C103.558 108.07 93.2186 117.958 92.7139 117.679C92.2093 117.401 88.3005 104.944 88.3005 104.944L79.3884 105.961Z" fill="#CE6858"/>
<path d="M107.979 111.259C108.068 111.24 108.15 111.222 108.227 111.196L108.106 111.12L107.979 111.259Z" fill="#CE6858"/>
<path d="M75.6199 103.544L76.4296 105.036L80.2099 112.023L80.9938 113.464L91.595 109.779C91.595 109.779 87.1899 93.3192 85.6599 91.6363L75.6199 103.544Z" fill="#4870C0"/>
<path d="M80.9938 113.464L80.21 112.023C81.9466 108.607 82.0157 104.255 81.9382 102.252C82.9957 99.4826 83.8263 97.1505 84.4315 95.3846C84.6597 94.7194 84.8572 94.1352 85.0227 93.6382C85.4498 92.3441 85.6599 91.6363 85.6599 91.6363C87.19 93.3192 91.595 109.779 91.595 109.779L90.0273 110.324L81.9131 113.144L80.9938 113.464Z" fill="#8DAEE0"/>
<path d="M80.2099 112.023L78.9514 109.698C80.0947 106.977 81.0894 104.474 81.9382 102.252C82.0156 104.255 81.9465 108.607 80.2099 112.023Z" fill="#678ACF"/>
<path d="M85.6586 91.6349C85.6586 91.6349 80.0844 84.3736 69.6915 83.885C59.299 83.3971 56.0361 84.4308 52.2377 87.8217C46.6894 92.774 39.7964 135.457 39.7964 135.457C39.7964 135.457 54.3121 139.946 70.9399 138.846C70.9399 138.846 71.0648 126.998 74.8131 119.011C82.103 103.479 85.6586 91.6349 85.6586 91.6349Z" fill="#4870C0"/>
<path d="M70.6565 138.867L70.6558 138.864C70.75 138.857 70.8456 138.851 70.9398 138.846C70.9398 138.846 70.9573 137.156 71.1814 134.623C71.166 134.801 71.1513 134.975 71.1381 135.145C70.9538 137.389 70.9405 138.848 70.9405 138.848C70.8463 138.854 70.7507 138.86 70.6565 138.867Z" fill="white"/>
<path d="M65.5992 139.021C60.5499 139.021 55.8436 138.575 51.8707 137.999C55.8395 138.574 60.539 139.019 65.5829 139.019C67.242 139.019 68.9363 138.971 70.6558 138.864L70.6565 138.866C68.9426 138.973 67.2532 139.021 65.5992 139.021ZM51.8508 137.996C51.8478 137.995 51.8448 137.995 51.8416 137.995C51.8448 137.995 51.8478 137.995 51.8508 137.996Z" fill="#8DAEE0"/>
<path d="M40.2487 135.591C39.9499 135.505 39.7933 135.457 39.7933 135.457C39.7933 135.457 39.921 134.679 40.1509 133.315C40.4818 131.358 41.0364 128.202 41.7442 124.428C42.2416 121.808 42.8087 118.889 43.4339 115.88C43.6822 114.688 43.9372 113.477 44.1987 112.265C44.3708 111.475 44.5493 110.678 44.7276 109.888C44.9496 108.906 45.1762 107.928 45.4063 106.96C45.1762 107.928 44.9496 108.906 44.7276 109.888C44.5493 110.678 44.3708 111.475 44.1987 112.265C44.1997 112.265 44.2014 112.264 44.2025 112.264C41.6469 123.997 39.7963 135.457 39.7963 135.457C39.7963 135.457 39.9518 135.506 40.2487 135.59V135.591Z" fill="white"/>
<path d="M41.5381 135.941C40.978 135.795 40.5439 135.675 40.2487 135.591V135.59C40.5434 135.675 40.9777 135.795 41.5381 135.941Z" fill="#8DAEE0"/>
<path d="M71.2924 133.472C71.3915 132.522 71.5178 131.489 71.6797 130.403C71.6246 130.777 71.5737 131.144 71.5276 131.505C71.4361 132.189 71.358 132.849 71.2924 133.472Z" fill="white"/>
<path d="M85.6572 91.6398C85.6586 91.637 85.6586 91.6349 85.6586 91.6349V91.6384L85.6572 91.6398ZM85.6586 91.6349C85.6586 91.6349 85.2886 91.1533 84.562 90.4295C85.2663 91.1303 85.6334 91.6021 85.6586 91.6349Z" fill="#DEEAF8"/>
<path d="M85.6584 91.6384V91.6341C85.6602 91.635 85.6602 91.6359 85.6602 91.6359L85.6584 91.6384Z" fill="#E3ECF9"/>
<path d="M84.4314 95.3845C85.2243 93.0707 85.6306 91.7277 85.6571 91.6398L85.6599 91.6363C85.6599 91.6363 85.4498 92.344 85.0226 93.6381C84.8572 94.1351 84.6596 94.7193 84.4314 95.3845Z" fill="#BBD2EF"/>
<path d="M84.5279 90.3953C83.6295 89.5053 82.2028 88.2622 80.2708 87.0986C82.2042 88.2622 83.6316 89.506 84.5279 90.3953Z" fill="#DEEAF8"/>
<path d="M68.7328 83.8438C68.308 83.8271 67.8943 83.8131 67.4944 83.8019C67.8952 83.8131 68.3077 83.8264 68.7331 83.8431C68.7328 83.8438 68.7328 83.8438 68.7328 83.8438Z" fill="white"/>
<path d="M67.4945 83.802C67.3153 83.7971 67.1384 83.7929 66.9639 83.7887C67.1384 83.7929 67.315 83.7971 67.4945 83.802Z" fill="#EFEFEF"/>
<path d="M65.5829 139.019C60.539 139.019 55.8395 138.574 51.8707 137.999C51.8636 137.997 51.8579 137.997 51.8508 137.996C51.8478 137.995 51.8448 137.995 51.8416 137.995C47.195 137.319 43.5528 136.466 41.5382 135.941C40.9778 135.795 40.5435 135.675 40.2488 135.59C39.9518 135.506 39.7964 135.457 39.7964 135.457C39.7964 135.457 41.6469 123.997 44.2025 112.264C50.68 109.57 55.8242 98.5884 55.9878 98.2366C57.6794 95.952 58.6498 92.2317 58.6503 88.9888C58.6509 87.3206 58.3949 85.7787 57.8487 84.6228C57.8487 84.6228 57.7443 84.6305 57.551 84.6577C59.5141 84.047 61.949 83.7712 65.3833 83.7712C65.888 83.7712 66.4145 83.7775 66.9639 83.7887C67.1384 83.7929 67.3153 83.7971 67.4945 83.802C67.8944 83.8131 68.3081 83.8271 68.7329 83.8438C68.5753 84.0114 68.4158 84.1691 68.2536 84.3157C66.4984 84.4148 65.0978 84.7303 65.242 85.3061C65.4075 85.9755 67.0841 88.0346 69.3919 89.5584C70.6097 90.368 71.9988 91.0242 73.4394 91.2475C73.882 91.3173 74.2959 91.3487 74.6819 91.3487C77.9366 91.3487 79.2468 89.0886 79.3494 88.1365C79.4171 87.4706 77.7726 86.3448 75.8413 85.5037C75.844 85.4639 75.8489 85.4234 75.8559 85.3836C75.8748 85.2789 75.8971 85.1749 75.9229 85.0709C77.5772 85.637 79.0283 86.3517 80.2708 87.0986C82.2028 88.2622 83.6295 89.5053 84.5279 90.3953C84.5313 90.3988 84.5348 90.4022 84.5383 90.4064C84.5467 90.4141 84.5544 90.4218 84.5621 90.4295C85.2887 91.1533 85.6586 91.6349 85.6586 91.6349C85.6586 91.6349 85.6586 91.637 85.6572 91.6398C85.6307 91.7277 85.2245 93.0707 84.4315 95.3846C84.2117 96.0246 83.9625 96.7387 83.684 97.5205C83.1744 98.9548 82.5623 100.625 81.8482 102.487C80.8536 105.08 79.6614 108.051 78.2717 111.296C77.6093 112.839 76.9015 114.452 76.1491 116.11C75.7156 117.06 75.2696 118.028 74.8103 119.01C73.9881 120.756 73.3375 122.695 72.828 124.651C72.6172 125.474 72.4266 126.296 72.2605 127.112C72.0295 128.235 71.8368 129.342 71.6798 130.403C71.5178 131.489 71.3915 132.522 71.2924 133.472C71.2505 133.872 71.2135 134.256 71.1814 134.623C70.9573 137.156 70.9399 138.846 70.9399 138.846C70.8457 138.851 70.75 138.857 70.6558 138.864C68.9363 138.971 67.242 139.019 65.5829 139.019ZM61.3395 98.5067C61.3395 98.5067 55.8169 111.82 54.7126 122.866L69.5817 124.763C69.5817 124.763 76.2587 106.779 77.6358 101.154C77.6358 101.154 65.7579 99.9648 61.3395 98.5067Z" fill="#8DAEE0"/>
<path d="M61.3394 98.5068C61.3394 98.5068 55.8168 111.82 54.7125 122.866L69.5815 124.763C69.5815 124.763 76.2585 106.779 77.6357 101.154C77.6357 101.154 65.7578 99.9649 61.3394 98.5068Z" fill="#4870C0"/>
<path d="M75.2842 103.053L74.7321 101.673L76.803 101.879L75.2842 103.053Z" fill="#8DAEE0"/>
<path d="M66.6361 85.3271C67.7595 88.5393 71.9415 90.0037 74.1353 90.1893C77.2135 90.4497 78.1104 88.0353 78.1104 88.0353C78.1104 88.0353 75.6095 86.7901 75.8559 85.3836C76.001 84.5642 76.3891 83.7649 76.8889 82.9964C77.1465 82.5902 77.4417 82.1965 77.7453 81.8154L73.7325 73.2147C72.8342 76.9685 70.0918 84.1265 66.6361 85.3271Z" fill="#CE6858"/>
<path d="M75.8559 85.3836C74.8179 84.6186 73.1986 82.9867 72.9431 80.668C73.0066 80.7419 73.0639 80.8068 73.1141 80.8627C73.3068 81.2249 73.5343 81.5823 73.801 81.9397C74.5101 82.9002 75.3715 83.587 76.3068 84.0253C76.0953 84.4707 75.9375 84.9237 75.8559 85.3836Z" fill="#A25245"/>
<path d="M87.0302 66.035C87.0302 66.035 88.3138 73.1246 84.6123 75.9704C80.9101 78.8161 80.5353 65.5611 80.5353 65.5611L87.0302 66.035Z" fill="#CE6858"/>
<path d="M86.8257 72.3604C86.7901 69.5767 86.2373 66.9864 84.8922 65.8794L87.0302 66.0351C87.0302 66.0351 87.2452 67.2224 87.2452 68.8201C87.2459 69.8929 87.1488 71.1521 86.8257 72.3604Z" fill="#763C33"/>
<path d="M73.8009 81.9396C75.7086 84.5236 78.719 85.1288 81.2919 84.2339C82.9461 83.6609 84.4189 82.4617 85.3047 80.7726C85.424 80.552 85.5294 80.3189 85.6271 80.0795C87.3645 75.6758 87.756 64.9238 83.0592 65.3251C82.0911 65.4082 81.1271 65.3949 80.196 65.381C77.4263 65.3405 74.9429 65.3007 73.4729 67.7933C72.9075 68.737 72.5822 69.8056 72.5082 70.9063C72.0873 76.0094 71.5994 78.9899 73.8009 81.9396Z" fill="#CE6858"/>
<path d="M80.0013 73.4143C79.9147 73.8191 80.1109 74.1905 80.3852 74.2289C80.6595 74.2673 80.9198 73.9601 80.9806 73.5497C81.0413 73.1393 80.8647 72.7714 80.5967 72.7351C80.3293 72.6975 80.0634 72.9976 80.0013 73.4143Z" fill="#1D2A30"/>
<path d="M84.6674 74.076C84.5808 74.4808 84.7832 74.8536 85.0513 74.8906C85.3186 74.9276 85.5859 74.6219 85.6467 74.2114C85.7081 73.8003 85.5308 73.4331 85.2628 73.3961C84.9954 73.3592 84.7239 73.6844 84.6674 74.076Z" fill="#1D2A30"/>
<path d="M83.1556 74.0683C83.4683 75.4001 83.9639 76.683 84.627 77.8794C83.9946 78.2082 83.2499 78.241 82.5909 77.9687L83.1556 74.0683Z" fill="#B93C36"/>
<path d="M78.768 71.6979C78.8559 71.723 78.9501 71.7 79.0164 71.6365C79.4471 71.1877 80.0648 70.9685 80.6826 71.0453C80.8138 71.0732 80.9429 70.9901 80.9715 70.8589C81.0002 70.7277 80.9171 70.5979 80.7852 70.5699L80.7845 70.5692C80.0062 70.4527 79.2196 70.72 78.6737 71.2882C78.576 71.3796 78.5704 71.5339 78.6626 71.6323L78.6667 71.6358L78.768 71.6979Z" fill="#1D2A30"/>
<path d="M86.9003 72.7512L87.042 72.782C87.1704 72.7422 87.2423 72.6068 87.2032 72.4776L87.2018 72.4727C86.9771 71.7154 86.3984 71.1151 85.6502 70.8632C85.5203 70.8283 85.3863 70.9043 85.3514 71.0342L85.3507 71.0349C85.3193 71.1647 85.3947 71.2959 85.5224 71.3336C86.1074 71.5493 86.5555 72.0295 86.7314 72.6277C86.767 72.6919 86.8284 72.7366 86.9003 72.7512Z" fill="#1D2A30"/>
<path d="M79.193 78.2256C79.1979 78.2361 79.4115 78.694 79.8484 79.1602C80.2833 79.6244 80.9555 80.1032 81.8622 80.1039L81.9648 80.1018C82.0611 80.0977 82.1365 80.0167 82.1323 79.9204C82.1288 79.824 82.0478 79.7494 81.9515 79.7528L81.8622 79.7549C81.0853 79.7549 80.5025 79.3452 80.1025 78.9208C79.9036 78.7093 79.7542 78.4964 79.6551 78.3373C79.6055 78.2577 79.5685 78.1914 79.5441 78.1461L79.5092 78.0783C79.4687 77.9911 79.3647 77.9527 79.2775 77.9939C79.1902 78.0344 79.1525 78.1384 79.193 78.2256Z" fill="#1D2A30"/>
<path d="M77.1241 65.1095L77.1883 67.3822C76.4149 67.7061 75.8921 68.4962 76.1497 69.4127C76.6983 71.3706 75.3526 74.2017 73.7932 75.2354C73.7932 75.2354 73.8246 74.4118 73.1155 74.5416C72.4063 74.6714 72.199 78.9529 73.3563 81.1125C73.3563 81.1125 70.8854 78.842 70.1525 74.2582C69.4753 70.0192 69.592 67.3326 70.1936 65.3056L77.1241 65.1095Z" fill="#CE6858"/>
<path d="M73.3563 81.1125C73.3563 81.1125 70.8854 78.842 70.1525 74.2582C69.8349 72.271 69.6921 70.6251 69.6918 69.2284C69.6912 67.6453 69.874 66.3827 70.1937 65.3056L77.1242 65.1095L77.1884 67.3822C76.5511 67.6488 76.0841 68.233 76.0834 68.9429C76.0834 69.0944 76.1044 69.2514 76.1497 69.4127C76.2356 69.7191 76.2754 70.0458 76.2747 70.3843C76.2726 72.2117 75.1083 74.3636 73.7933 75.2354C73.7933 75.2354 73.7933 75.2298 73.7933 75.2207C73.7933 75.1188 73.7717 74.5276 73.2593 74.5276C73.2147 74.5276 73.1672 74.5318 73.1155 74.5416C72.7644 74.6058 72.5362 75.6877 72.5362 77.0265C72.5355 78.391 72.7721 80.0223 73.3563 81.1125Z" fill="#763C33"/>
<path d="M69.7438 67.8394C69.7438 67.8394 72.6486 68.2854 77.1884 67.3822C84.2242 65.9827 87.2144 68.5716 87.2144 68.5716C87.2144 68.5716 88.8841 67.1365 88.6767 65.1095C88.4694 63.0832 85.6586 62.7377 85.6586 62.7377C85.6586 62.7377 84.8105 60.4601 82.9469 59.7698C81.0832 59.0795 79.2154 60.8049 79.2154 60.8049C79.2154 60.8049 76.8889 58.5616 74.1828 59.1995C70.8582 59.982 70.935 63.1523 70.935 63.1523C70.935 63.1523 67.7598 63.4776 67.8287 65.1095C67.898 66.7421 69.7438 67.8394 69.7438 67.8394Z" fill="#1D2A30"/>
<path d="M82.8205 73.7536H82.646C82.646 74.4383 82.4052 75.0553 82.0213 75.4979C81.6367 75.9404 81.1146 76.207 80.5408 76.207C79.9671 76.207 79.4457 75.9404 79.0604 75.4979C78.6765 75.0553 78.4357 74.4383 78.4357 73.7536C78.4357 73.0688 78.6765 72.4518 79.0604 72.0093C79.4457 71.5667 79.9671 71.3001 80.5408 71.2994C81.1146 71.3001 81.6367 71.5667 82.0213 72.0093C82.4052 72.4518 82.646 73.0688 82.646 73.7536H82.8205H82.995C82.995 72.9872 82.7263 72.2899 82.2844 71.781C81.8447 71.2722 81.2263 70.9504 80.5408 70.9504C79.8554 70.9504 79.2377 71.2722 78.7972 71.781C78.3561 72.2899 78.0867 72.9872 78.0867 73.7536C78.0867 74.5207 78.3561 75.2173 78.7972 75.7261C79.2377 76.235 79.8554 76.5567 80.5408 76.556C81.2263 76.5567 81.8447 76.235 82.2844 75.7261C82.7263 75.2173 82.995 74.5207 82.995 73.7536H82.8205Z" fill="#1D2A30"/>
<path d="M88.5588 74.1438H88.3843C88.3843 74.8285 88.1435 75.4455 87.7589 75.8874C87.3743 76.3299 86.8529 76.5972 86.2791 76.5972C85.7047 76.5972 85.1833 76.3299 84.7987 75.8874C84.4148 75.4455 84.174 74.8285 84.174 74.1438C84.174 73.459 84.4148 72.842 84.7987 72.3995C85.1833 71.9569 85.7047 71.6896 86.2791 71.6896C86.8529 71.6896 87.3743 71.9569 87.7589 72.3995C88.1435 72.842 88.3843 73.459 88.3843 74.1438H88.5588H88.7333C88.7333 73.3767 88.4639 72.6794 88.0227 72.1705C87.5823 71.6624 86.9639 71.3406 86.2791 71.3406C85.5937 71.3406 84.9753 71.6624 84.5348 72.1705C84.0937 72.6794 83.825 73.3767 83.825 74.1438C83.825 74.9102 84.0937 75.6075 84.5348 76.1163C84.9753 76.6244 85.5937 76.9462 86.2791 76.9462C86.9639 76.9462 87.5823 76.6244 88.0227 76.1163C88.4639 75.6075 88.7333 74.9102 88.7333 74.1438H88.5588Z" fill="#1D2A30"/>
<path d="M82.9133 74.2163L82.9217 74.2115C82.9685 74.1821 83.2128 74.0558 83.4431 74.0579C83.5973 74.0607 83.7349 74.1012 83.8647 74.2547C83.9261 74.3287 84.0357 74.3392 84.1104 74.2778C84.1844 74.217 84.1948 74.1068 84.1341 74.0328C83.9373 73.7913 83.6699 73.7068 83.4431 73.7089C83.0501 73.7124 82.7416 73.9148 82.7276 73.9211C82.646 73.972 82.6216 74.0802 82.6732 74.1612C82.7242 74.2429 82.8323 74.2673 82.9133 74.2163Z" fill="#1D2A30"/>
<path d="M78.2841 73.5804L74.2804 73.0472C74.1862 73.0346 74.0912 73.0283 73.997 73.0283C73.5231 73.0283 73.0603 73.1861 72.6827 73.4799L72.5082 73.616C72.4321 73.6754 72.4181 73.785 72.4775 73.861C72.5368 73.9371 72.6464 73.9504 72.7225 73.891L72.897 73.7549V73.7556C73.2132 73.5092 73.6006 73.3773 73.997 73.3773C74.0759 73.3773 74.1548 73.3829 74.2343 73.3934L78.2381 73.9266C78.3337 73.9392 78.4216 73.8722 78.4342 73.7766C78.4468 73.6809 78.3798 73.5937 78.2841 73.5804Z" fill="#1D2A30"/>
<path d="M69.7047 74.7482C70.1044 75.9753 70.9741 76.993 72.1238 77.5793C73.651 78.345 74.7392 77.0558 74.5919 75.4427C74.4467 74.0104 73.4925 71.841 71.8222 71.7629C70.1526 71.684 69.233 73.2364 69.7047 74.7482Z" fill="#CE6858"/>
<path d="M44.1987 112.265C44.3708 111.475 44.5493 110.678 44.7277 109.888C44.9496 108.906 45.1762 107.928 45.4063 106.96C44.9916 108.709 44.5892 110.489 44.2025 112.264C44.2015 112.264 44.1998 112.265 44.1987 112.265Z" fill="#CECDCB"/>
<path d="M44.2025 112.264C44.5892 110.489 44.9916 108.709 45.4064 106.96C45.463 106.722 45.52 106.485 45.577 106.247C47.7653 104.83 51.594 102.234 54.9485 99.3687C55.3198 99.0518 55.6667 98.67 55.9878 98.2365C55.8242 98.5883 50.68 109.57 44.2025 112.264Z" fill="#678ACF"/>
<path d="M80.485 113.463L91.8519 109.289L92.1744 110.256L80.8068 114.306L80.485 113.463Z" fill="#4870C0"/>
<path d="M47.8086 162.508L14.8695 157.284L18.092 136.967L51.0311 142.191L47.8086 162.508Z" fill="#4870C0"/>
<path d="M29.431 144.081L22.7403 147.55C22.5438 147.652 22.4069 147.841 22.3723 148.06C22.3376 148.279 22.4088 148.502 22.5644 148.659L27.8537 154.027C28.1242 154.302 28.5662 154.305 28.8407 154.035C29.1153 153.764 29.1186 153.322 28.8481 153.047L24.223 148.354L30.0734 145.321C30.4156 145.144 30.5495 144.722 30.372 144.38C30.1945 144.038 29.7732 143.904 29.431 144.081Z" fill="white"/>
<path d="M36.4697 155.394L43.1604 151.926C43.357 151.824 43.4936 151.634 43.5285 151.416C43.5631 151.197 43.492 150.974 43.3363 150.816L38.047 145.449C37.7766 145.174 37.3346 145.171 37.06 145.441C36.7855 145.712 36.7822 146.154 37.0527 146.428L41.6777 151.122L35.8273 154.154C35.4852 154.331 35.3513 154.753 35.5288 155.095C35.7063 155.437 36.1275 155.571 36.4697 155.394Z" fill="white"/>
<path d="M31.2945 154.241L35.8322 145.902C36.0163 145.564 35.8914 145.14 35.5528 144.956C35.2142 144.772 34.7902 144.897 34.6059 145.235L30.0683 153.573C29.884 153.912 30.0092 154.336 30.3478 154.52C30.6865 154.704 31.1101 154.579 31.2945 154.241Z" fill="white"/>
<path d="M48.3052 89.6393C48.3052 89.6393 35.8933 102.101 34.1974 104.525C32.5015 106.949 29.2667 133.796 29.2667 133.796C29.2667 133.796 28.5847 134.033 28.5256 134.614C28.4664 135.194 28.4165 142.734 28.5256 143.083C28.6344 143.432 34.3509 146.958 35.1915 146.119C36.0321 145.282 37.2092 136.742 37.2092 136.742L34.1974 133.796C34.1974 133.796 37.7043 114.022 39.8946 110.822C42.0846 107.621 51.1313 100.764 51.1313 100.764L48.3052 89.6393Z" fill="#CE6858"/>
<path d="M57.8486 84.6228C59.6582 88.4541 58.2821 96.5216 54.9484 99.3688C49.9045 103.677 43.7891 107.376 43.7891 107.376L37.6901 99.403C37.6901 99.403 44.1675 93.0777 48.09 89.4341C52.8609 85.0032 57.8486 84.6228 57.8486 84.6228Z" fill="#4870C0"/>
<path d="M43.7891 107.376L43.5211 107.026L38.1791 100.042L37.6901 99.403C37.6901 99.403 44.1675 93.0777 48.09 89.4341C52.8609 85.0032 57.8486 84.6228 57.8486 84.6228C58.3948 85.7787 58.6508 87.3206 58.6502 88.9888C58.6497 92.2317 57.6793 95.9521 55.9877 98.2366C55.6666 98.6701 55.3197 99.0519 54.9484 99.3688C51.5939 102.234 47.7652 104.83 45.5769 106.248C45.5769 106.248 45.5766 106.248 45.5763 106.248C44.4751 106.962 43.7891 107.376 43.7891 107.376Z" fill="#8DAEE0"/>
<path d="M37.6902 98.8885L36.9365 99.916L43.2992 108.231L44.1987 107.586L37.6902 98.8885Z" fill="#4870C0"/>
</svg>
