<svg width="445" height="320" viewBox="0 0 445 320" fill="none" xmlns="http://www.w3.org/2000/svg">
<path d="M262.695 42.6974V256.327C262.695 261.733 258.276 266.156 252.876 266.156H145.851C140.449 266.156 136.032 261.733 136.032 256.327V42.6974C136.032 37.2926 140.449 32.8686 145.851 32.8686H252.876C258.276 32.8686 262.695 37.2926 262.695 42.6974Z" fill="#D9E4FF"/>
<path d="M262.695 42.6974V46.2623L136.032 46.2605V42.6974C136.032 37.2926 140.449 32.8686 145.851 32.8686H252.876C258.276 32.8686 262.695 37.2926 262.695 42.6974Z" fill="#ADC3FF"/>
<path d="M146.244 34.0967C141.507 34.0967 137.653 37.955 137.653 42.6973V256.328C137.653 261.07 141.507 264.929 146.244 264.929H253.27C258.007 264.929 261.861 261.07 261.861 256.328V42.6973C261.861 37.955 258.007 34.0967 253.27 34.0967H146.244ZM253.27 267.386H146.244C140.153 267.386 135.198 262.426 135.198 256.328V42.6973C135.198 36.5998 140.153 31.6396 146.244 31.6396H253.27C259.361 31.6396 264.317 36.5998 264.317 42.6973V256.328C264.317 262.426 259.361 267.386 253.27 267.386Z" fill="#5481FF"/>
<path d="M214.668 149.63C214.668 152.693 212.164 155.2 209.105 155.2H152.994C149.935 155.2 147.431 152.693 147.431 149.63V92.2262C147.431 89.1647 149.935 86.6581 152.994 86.6581H209.105C212.164 86.6581 214.668 89.1647 214.668 92.2262V149.63Z" fill="#EDF3FF"/>
<path d="M157.147 141.216L158.363 143.682L161.082 144.078L159.114 145.998L159.579 148.709L157.147 147.429L154.714 148.709L155.179 145.998L153.211 144.078L155.931 143.682L157.147 141.216" fill="#ADC3FF"/>
<path d="M167.798 141.216L169.014 143.682L171.733 144.078L169.766 145.998L170.23 148.709L167.798 147.429L165.365 148.709L165.83 145.998L163.862 144.078L166.582 143.682L167.798 141.216" fill="#ADC3FF"/>
<path d="M178.449 141.215L179.665 143.682L182.384 144.078L180.417 145.998L180.881 148.709L178.449 147.429L176.018 148.709L176.481 145.998L174.515 144.078L177.233 143.682L178.449 141.215Z" fill="#ADC3FF"/>
<path d="M189.155 141.216L187.939 143.682L185.218 144.077L187.187 145.998L186.721 148.708L189.155 147.429L191.586 148.708L191.121 145.998L193.088 144.077L190.37 143.682L189.155 141.216ZM189.155 143.733L189.373 144.176L189.63 144.701L190.211 144.785L190.698 144.855L190.344 145.2L189.926 145.609L190.024 146.186L190.108 146.673L189.672 146.443L189.155 146.171L188.636 146.443L188.199 146.673L188.283 146.186L188.381 145.609L187.962 145.2L187.609 144.855L188.098 144.785L188.678 144.701L188.935 144.176L189.155 143.733Z" fill="#ADC3FF"/>
<path d="M250.119 240.319C250.119 243.745 247.318 246.549 243.896 246.549H153.655C150.231 246.549 147.431 243.745 147.431 240.319V187.675C147.431 184.248 150.231 181.445 153.655 181.445H243.896C247.318 181.445 250.119 184.248 250.119 187.675V240.319Z" fill="#EDF3FF"/>
<path d="M290.273 149.631C290.273 152.694 287.77 155.2 284.71 155.2H228.599C225.54 155.2 223.036 152.694 223.036 149.631V92.2266C223.036 89.1643 225.54 86.6593 228.599 86.6593H284.71C287.77 86.6593 290.273 89.1643 290.273 92.2266V149.631Z" fill="#EDF3FF"/>
<path d="M232.753 141.216L233.968 143.683L236.687 144.078L234.719 145.998L235.183 148.709L232.753 147.429L230.319 148.709L230.784 145.998L228.817 144.078L231.537 143.683L232.753 141.216Z" fill="#ADC3FF"/>
<path d="M243.405 141.215L244.62 143.681L247.339 144.077L245.373 145.997L245.836 148.708L243.405 147.429L240.972 148.708L241.437 145.997L239.469 144.077L242.187 143.681L243.405 141.215" fill="#ADC3FF"/>
<path d="M254.054 141.216L255.271 143.683L257.989 144.078L256.021 145.998L256.486 148.709L254.054 147.429L251.622 148.709L252.086 145.998L250.119 144.078L252.837 143.683L254.054 141.216Z" fill="#ADC3FF"/>
<path d="M264.758 141.216L263.543 143.683L260.823 144.078L262.792 145.998L262.326 148.709L264.758 147.43L267.191 148.709L266.726 145.998L268.693 144.078L265.974 143.683L264.758 141.216ZM264.758 143.732L264.977 144.175L265.235 144.701L265.814 144.785L266.303 144.856L265.949 145.2L265.531 145.609L265.63 146.186L265.712 146.674L265.276 146.443L264.758 146.171L264.241 146.443L263.805 146.674L263.887 146.186L263.986 145.609L263.568 145.2L263.215 144.856L263.702 144.785L264.282 144.701L264.54 144.175L264.758 143.732" fill="#ADC3FF"/>
<path d="M196.035 173.781H147.432V168.059H196.035V173.781Z" fill="#ADC3FF"/>
<path d="M202.75 199.458H154.146V192.062H202.75V199.458Z" fill="#ADC3FF"/>
<path d="M195.544 209.941H154.146V208.271H195.544V209.941Z" fill="#ADC3FF"/>
<path d="M185.218 214.832H154.147V213.161H185.218V214.832Z" fill="#ADC3FF"/>
<path d="M193.088 219.722H154.147V218.052H193.088V219.722Z" fill="#ADC3FF"/>
<path d="M200.781 224.612H154.146V222.942H200.781V224.612Z" fill="#ADC3FF"/>
<path d="M224.985 216.141C219.033 216.141 214.188 220.989 214.188 226.95C214.188 232.91 219.033 237.758 224.985 237.758C230.938 237.758 235.783 232.91 235.783 226.95C235.783 220.989 230.938 216.141 224.985 216.141ZM224.985 239.428C218.112 239.428 212.52 233.831 212.52 226.95C212.52 220.068 218.112 214.471 224.985 214.471C231.859 214.471 237.451 220.068 237.451 226.95C237.451 233.831 231.859 239.428 224.985 239.428Z" fill="#ADC3FF"/>
<path d="M228.643 223.131H242.45V209.309L228.643 209.31V223.131ZM244.118 224.802H226.974V207.639L244.118 207.638V224.802" fill="#ADC3FF"/>
<path d="M370.302 101.777H401.351C404.466 101.777 406.996 104.307 406.996 107.426V138.508C406.996 141.63 404.466 144.16 401.351 144.16H370.302C367.186 144.16 364.656 141.63 364.656 138.508V107.426C364.656 104.307 367.186 101.777 370.302 101.777Z" fill="#D0DAF5"/>
<path d="M386.81 132.623C385.913 132.623 385.187 131.894 385.187 130.998V128.279C385.187 125.73 386.856 123.949 388.472 122.228C389.981 120.618 391.408 119.097 391.408 117.054C391.408 114.517 389.345 112.453 386.81 112.453C384.273 112.453 382.212 114.517 382.212 117.054C382.212 117.952 381.484 118.679 380.589 118.679C379.691 118.679 378.966 117.952 378.966 117.054C378.966 112.725 382.485 109.203 386.81 109.203C391.135 109.203 394.654 112.725 394.654 117.054C394.654 120.383 392.538 122.639 390.837 124.452C389.548 125.828 388.433 127.016 388.433 128.279V130.998C388.433 131.894 387.705 132.623 386.81 132.623V132.623ZM386.82 138.85C385.925 138.85 385.192 138.124 385.192 137.226C385.192 136.328 385.913 135.601 386.81 135.601H386.82C387.717 135.601 388.443 136.328 388.443 137.226C388.443 138.124 387.717 138.85 386.82 138.85Z" fill="#A5B7E8"/>
<path d="M44.5727 167.093H75.2192C78.2959 167.093 80.7909 169.591 80.7909 172.671V203.35C80.7909 206.433 78.2959 208.928 75.2192 208.928H44.5727C41.4949 208.928 39 206.433 39 203.35V172.671C39 169.591 41.4949 167.093 44.5727 167.093" fill="#D0DAF5"/>
<path d="M57.6013 177.623C53.3382 177.623 49.8697 181.095 49.8697 185.361C49.8697 189.629 53.3382 193.102 57.6013 193.102C61.8638 193.102 65.3323 189.629 65.3323 185.361C65.3323 181.095 61.8638 177.623 57.6013 177.623ZM57.6013 196.309C51.5716 196.309 46.6658 191.399 46.6658 185.361C46.6658 179.325 51.5716 174.414 57.6013 174.414C63.6309 174.414 68.5362 179.325 68.5362 185.361C68.5362 191.399 63.6309 196.309 57.6013 196.309Z" fill="#A5B7E8"/>
<path d="M70.5552 200.749C70.1457 200.749 69.7355 200.593 69.4227 200.279L62.7368 193.587C62.111 192.96 62.111 191.946 62.7368 191.318C63.3609 190.693 64.3756 190.693 65.0019 191.318L71.6878 198.011C72.3136 198.638 72.3136 199.653 71.6878 200.279C71.3754 200.593 70.9654 200.749 70.5552 200.749" fill="#A5B7E8"/>
<path d="M333.77 49.4971C332.206 48.6464 330.966 47.3075 331.015 46.5165C331.015 46.5165 331.015 46.5165 330.994 45.7852C330.976 45.0519 330.976 45.0519 330.976 45.0519C330.885 44.2691 332.056 42.8581 333.573 41.9332C335.097 41.0001 335.422 38.7342 334.295 36.8926L330.32 30.3998C329.192 28.5624 327.036 27.827 325.511 28.7539C323.99 29.685 322.202 30.1093 321.527 29.6891C320.85 29.2751 318.91 26.9289 318.865 25.1429C318.817 23.357 317.019 21.946 314.867 22.0016L307.264 22.2034C305.114 22.2591 303.391 23.7607 303.439 25.5467C303.484 27.3326 302.943 29.0938 302.243 29.4728C301.539 29.8519 298.556 30.3524 296.99 29.5017C295.418 28.6551 293.301 29.5017 292.274 31.3947L288.644 38.0894C287.615 39.9886 288.056 42.2339 289.63 43.0764C291.192 43.9292 292.432 45.2785 292.383 46.0612C292.383 46.0612 292.383 46.0612 292.403 46.7987C292.422 47.5258 292.422 47.5258 292.422 47.5258C292.513 48.3148 291.344 49.7175 289.827 50.6507C288.298 51.5838 287.978 53.8477 289.105 55.6851L293.078 62.1779C294.204 64.0133 296.362 64.7548 297.889 63.8238C299.408 62.8968 301.196 62.4745 301.871 62.8865C302.548 63.3088 304.486 65.655 304.533 67.441C304.581 69.2269 306.377 70.6379 308.529 70.5802L316.134 70.3804C318.284 70.3248 320.005 68.8231 319.957 67.0372C319.912 65.2513 320.455 63.4818 321.155 63.1049C321.856 62.7238 324.842 62.2315 326.408 63.076C327.98 63.9268 330.093 63.0719 331.124 61.1809L334.756 54.4883C335.785 52.5952 335.342 50.3499 333.77 49.4971" fill="#D0DAF5"/>
<path d="M311.964 56.472C306.351 56.6201 301.676 52.1796 301.53 46.5578C301.384 40.934 305.818 36.2584 311.434 36.1122C317.049 35.964 321.722 40.4026 321.868 46.0244C322.016 51.6482 317.582 56.3238 311.964 56.472Z" fill="#A5B7E8"/>
<path d="M291.795 259.515L299.142 216.722C299.394 215.258 300.86 214.021 302.343 214.021H332.523C334.006 214.021 335.472 215.258 335.724 216.722L343.071 259.515H291.795V259.515ZM286.386 282.981C287.129 283.11 287.828 282.611 287.955 281.87L291.338 262.165H343.528L346.912 281.87C347.025 282.533 347.599 283.001 348.249 283.001C348.326 283.001 348.403 282.994 348.48 282.981C349.22 282.854 349.717 282.15 349.59 281.409L338.401 216.261C337.923 213.48 335.343 211.301 332.523 211.301H302.343C299.525 211.301 296.943 213.48 296.465 216.261L285.278 281.409C285.151 282.15 285.646 282.854 286.386 282.981" fill="#A5B7E8"/>
<path d="M336.229 219.739L335.68 216.534C335.676 216.511 335.672 216.489 335.668 216.465C335.69 216.55 335.711 216.636 335.726 216.721L336.244 219.739H336.229V219.739ZM338.322 215.87C338.28 215.702 338.23 215.536 338.174 215.374H338.205C338.249 215.536 338.288 215.702 338.322 215.87Z" fill="#CCCCCC"/>
<path d="M336.243 219.738L335.724 216.722C335.71 216.636 335.691 216.55 335.668 216.465C335.585 216.051 335.413 215.687 335.194 215.374H338.173C338.229 215.536 338.279 215.702 338.321 215.871C338.335 215.939 338.348 216.005 338.36 216.073L338.983 219.715L336.243 219.738" fill="#8492BA"/>
<path d="M346.262 211.555C346.262 213.655 346.262 215.374 346.262 215.374H288.606C288.606 215.374 288.606 213.655 288.606 211.554C288.606 209.458 290.382 207.74 292.552 207.74H342.318C344.488 207.74 346.262 209.458 346.262 211.555" fill="#A5B7E8"/>
<path d="M301.366 284.265C298.346 284.265 298.479 283.47 299.225 281.488C299.863 279.796 303.674 272.8 304.046 268.78C304.181 268.809 304.533 268.87 305.144 268.87C305.639 268.87 306.303 268.83 307.156 268.699C311.713 268.117 313.401 265.382 314.43 263.223C316.503 265.493 319.484 270.3 319.451 272.915L314.473 276.341L313.148 274.41C313.148 274.41 312.847 277.677 311.42 279.027C310.018 280.355 306.399 284.265 301.366 284.265" fill="url(#paint0_linear)"/>
<path d="M303.983 268.764C311.432 269.29 313.444 265.377 314.652 262.745C308.814 253.441 301.366 226.486 301.038 222.509C304.5 218.908 321.084 201.644 325.634 193.728C326.352 192.485 326.766 191.441 326.794 190.671C326.983 184.992 326.794 180.83 326.794 180.83C326.794 180.83 307.315 181.456 306.181 181.805C305.047 182.152 302.777 184.803 302.777 184.803C299.224 188.075 274.996 210.668 280.11 224.151C282.029 229.219 295.069 256.715 303.983 268.764" fill="#49437B"/>
<path d="M304.047 268.779C304.006 268.769 303.983 268.764 303.983 268.764C303.223 267.771 302.421 266.61 301.594 265.321C302.415 266.568 303.214 267.722 303.983 268.764C304.006 268.765 304.028 268.766 304.049 268.768C304.047 268.772 304.047 268.775 304.047 268.779Z" fill="#CCCCCC"/>
<path d="M305.145 268.87C304.535 268.87 304.181 268.808 304.048 268.779C304.048 268.775 304.048 268.772 304.048 268.768C304.484 268.797 304.902 268.812 305.303 268.812C305.969 268.812 306.587 268.773 307.157 268.699C306.304 268.83 305.64 268.87 305.145 268.87" fill="url(#paint1_linear)"/>
<path d="M305.771 240.602C305.522 239.805 305.278 239.013 305.041 238.232C305.193 237.878 305.344 237.527 305.49 237.182C305.801 238.176 306.053 239.071 306.261 239.674C306.092 239.986 305.929 240.296 305.771 240.602" fill="#CCCCCC"/>
<path d="M305.304 268.812C304.903 268.812 304.484 268.797 304.047 268.768C304.028 268.766 304.005 268.765 303.983 268.764C303.214 267.723 302.415 266.569 301.593 265.321C299.933 262.738 298.168 259.649 296.435 256.43C299.365 250.549 302.593 243.905 305.042 238.232C305.277 239.013 305.521 239.805 305.771 240.602C298.451 254.848 303.607 263.371 307.185 268.695C307.175 268.696 307.167 268.698 307.156 268.699C306.586 268.773 305.969 268.812 305.304 268.812V268.812ZM286.609 236.903C286.012 235.697 285.541 234.771 285.231 234.22C287.224 227.575 291.445 216.642 293.609 214.211C296.654 210.794 312.894 198.291 316.459 195.557C312.872 198.61 296.479 212.672 293.662 217.124C292.983 218.195 289.929 226.872 286.609 236.903" fill="#3A3662"/>
<path d="M287.153 283.504H281.114V281.161C281.114 281.161 277.263 283.504 275.3 283.504C273.339 283.504 261.713 283.504 260.807 283.504C259.901 283.504 260.052 281.764 261.789 280.556C263.457 279.394 275.801 273.625 277.525 270.225C279.703 272.241 282.197 272.878 284.301 272.884C284.31 272.884 284.319 272.884 284.326 272.884C286.098 272.884 287.595 272.44 288.391 272.003C288.693 273.492 288.783 276 288.559 278.365C288.454 279.468 288.279 280.539 288.026 281.465C287.927 281.826 287.818 282.163 287.694 282.473C287.535 282.869 287.356 283.218 287.153 283.504Z" fill="url(#paint2_linear)"/>
<path d="M337.515 208.28C330.577 213.77 308.968 226.485 308.968 226.485C308.515 234.365 290.38 267.778 288.955 271.563C288.613 272.074 286.709 272.89 284.301 272.885C281.988 272.878 279.21 272.11 276.894 269.593C277.314 264.271 292.065 219.645 293.66 217.124C296.829 212.119 317.152 194.97 317.152 194.97L324.411 183.92C324.411 183.92 330.765 180.697 333.414 181.806C334.311 182.179 335.607 182.546 336.92 182.862C339.476 183.482 342.113 183.92 342.113 183.92C343.814 190.293 344.458 202.787 337.515 208.28" fill="#49437B"/>
<path d="M284.325 272.885C284.318 272.885 284.308 272.885 284.302 272.885C290.494 262.495 302.634 228.219 306.08 223.332C312.447 218.243 324.082 211.181 331.522 206.384C337.8 202.337 337.704 194.339 337.1 188.399H341.763C342.186 188.399 342.615 188.532 343 188.756C343.149 190.089 343.238 191.506 343.235 192.953C343.235 198.372 341.997 204.22 338.15 207.741C337.946 207.927 337.735 208.107 337.516 208.28C335.222 210.095 331.324 212.7 327.132 215.374C318.649 220.788 308.968 226.485 308.968 226.485C308.839 228.74 307.26 233.087 305.041 238.232C302.592 243.906 299.364 250.549 296.436 256.431C296.398 256.505 296.36 256.58 296.322 256.655C295.834 257.632 295.357 258.589 294.892 259.514C294.431 260.43 293.988 261.315 293.558 262.165C291.18 266.888 289.367 270.467 288.954 271.563C288.614 272.073 286.723 272.885 284.325 272.885V272.885ZM342.306 184.688C342.125 184.671 341.944 184.662 341.763 184.662H336.772C336.793 184.223 336.837 183.599 336.921 182.862C339.477 183.481 342.112 183.92 342.112 183.92C342.178 184.168 342.243 184.423 342.306 184.688" fill="#3A3662"/>
<path d="M259.85 143.848C258.939 141.496 254.334 134.24 254.107 140.364C254.182 141.042 248.446 134.015 246.936 136.055C245.427 138.095 244.219 143.764 247.388 146.788C250.559 149.81 255.844 149.356 257.203 150.943C258.561 152.53 260.901 148.298 260.599 146.788C260.297 145.274 259.85 143.848 259.85 143.848Z" fill="#FF9D87"/>
<path d="M259.157 142.407C257.43 143.762 255.429 146.219 255.562 150.054C255.767 150.12 256.469 150.407 256.469 150.407C256.469 150.407 259.165 149.884 259.469 148.523L259.851 143.846L259.157 142.407Z" fill="#FF7D71"/>
<path d="M284.733 155.124C289.223 145.435 293.489 138.498 296.978 134.316C298.102 132.966 302.652 129.52 302.652 129.52C302.652 129.52 306.813 134.316 307.569 137.092C308.325 139.87 305.994 148.134 300.838 155.528C297.113 160.868 290.973 169.333 286.342 169.333C280.303 169.333 258.362 153.915 256.548 151.497C256.046 149.078 257.857 144.343 260.374 143.637C263.897 145.653 280.505 151.496 284.733 155.124" fill="#8B50FF"/>
<path d="M342.112 183.919C341.858 178.618 347.785 135.2 347.785 135.2C345.013 129.268 331.27 124.725 327.361 123.589C327.361 123.589 321.518 123.304 318.536 123.589C315.554 123.873 305.424 128.006 302.65 129.521C299.5 135.578 301.895 143.53 302.147 151.356C302.398 159.181 303.534 178.239 302.777 184.802C311.854 187.68 329.252 187.581 342.112 183.919" fill="#8B50FF"/>
<path d="M337.523 148.863C337.197 152.806 337.109 162.706 336.309 164.439C335.51 166.172 320.774 169.031 317.406 169.758C315.122 170.251 314.238 169.228 310.801 170.363L310.065 175.709L303.027 179.594C303.027 179.594 302.873 183.382 302.779 184.802C306.277 186.601 328.876 188.493 342.115 183.919C342.237 180.916 342.603 176.842 342.603 176.842C342.603 176.842 343.249 156.308 341.736 154.416C340.222 152.522 337.523 148.863 337.523 148.863" fill="#6642CC"/>
<path d="M331.017 118.287C329.758 120.559 329.094 123.462 329.724 126.744C325.186 132.045 316.865 129.899 315.099 127.627C315.099 124.346 316.773 119.17 316.773 119.17C316.773 119.17 320.93 110.449 324.211 110.461C327.49 110.473 332.359 111.218 332.359 111.218L331.017 118.287" fill="#FFAD98"/>
<path d="M315.796 122.76C317.466 123.335 321.942 122.83 324.589 119.801C324.589 119.801 323.581 116.392 320.744 117.782C317.908 119.17 316.118 121.449 316.118 121.449L315.796 122.76Z" fill="#FF7D71"/>
<path d="M312.233 99.7335C309.964 112.353 309.586 126.869 324.589 119.801C330.388 115.257 333.793 111.092 331.775 106.044C329.758 100.995 325.092 96.1992 320.934 97.3336C316.771 98.4701 312.233 99.7335 312.233 99.7335Z" fill="#FFAD98"/>
<path d="M312.017 100.981C312.017 100.981 314.628 99.9866 321.712 99.2928C328.794 98.5989 328.685 104.341 328.135 107.77C325.091 101.247 317.338 105.602 311.699 103.01L312.017 100.981" fill="#FF7D71"/>
<path d="M336.63 108.536C335.575 111.424 333.777 114.665 331.017 118.288C327.379 118.17 328.689 110.339 327.711 105.954C327.472 104.882 327.096 104.017 326.475 103.52C323.327 100.996 313.958 105.143 310.969 101.709C311.239 90.1797 315.8 88.0655 320.993 90.03C326.187 91.9946 332.225 90.03 335.548 94.7158C337.803 97.8986 338.875 102.416 336.63 108.536Z" fill="#2C3D4F"/>
<path d="M316.941 173.131C308.674 167.789 310.44 171.785 308.168 172.006C305.894 172.225 299.949 172.311 300.097 173.829C300.241 175.347 301.164 180.443 303.673 180.675C306.184 180.907 312.828 181.009 314.036 181.053C315.244 181.096 317.404 179.813 317.404 179.813L316.941 173.131" fill="#FF9D87"/>
<path d="M315.218 172.066C315.218 172.066 313.606 176.643 315.463 180.742C316.288 180.395 317.404 179.813 317.404 179.813L316.941 173.131L315.218 172.066" fill="#FF7D71"/>
<path d="M338.722 168.295C338.257 163.731 336.52 151.42 337.039 147.574C337.039 147.574 339.988 129.282 346.217 132.986C347.086 134.117 347.703 135.256 347.703 135.256C350.26 141.285 352.705 157.718 352.902 166.69C353.043 172.985 351.662 178.075 346.035 179.08C340.41 180.086 320.553 181.852 317.249 181.318C315.378 178.72 315.097 173.99 316.706 171.267C324.43 170.829 335.105 168.077 338.722 168.295" fill="#8B50FF"/>
<path d="M336.632 108.536C335.575 111.423 333.779 114.664 331.019 118.288C327.38 118.17 328.69 110.337 327.712 105.955C330.125 105.924 334.334 106.239 336.632 108.536Z" fill="#4C5A69"/>
<path d="M327.361 108.317C327.361 108.317 330.111 106.045 331.266 107.432C332.423 108.82 330.832 115.132 328.086 113.743C327.361 111.218 327.361 108.317 327.361 108.317Z" fill="#FFAD98"/>
<path d="M301.781 145.764L302.197 153.699L298.165 159.407L301.781 145.764Z" fill="#6642CC"/>
<path d="M241.497 151.725L250.729 182.19H294.135L284.901 151.725C284.573 150.647 283.385 149.765 282.261 149.765H242.95C241.825 149.765 241.171 150.647 241.497 151.725Z" fill="#5481FF"/>
<path d="M280.619 149.764C281.745 149.764 282.932 150.646 283.261 151.725L291.491 178.874L292.493 182.189H315.886C315.886 180.714 314.659 179.279 311.998 179.279C309.722 179.279 293.136 178.894 293.136 178.894L284.902 151.725C284.575 150.646 283.387 149.764 282.262 149.764H280.619" fill="#474FBF"/>
<path d="M363.327 283.51C363.441 283.51 363.558 283.499 363.674 283.477C364.688 283.287 365.355 282.31 365.165 281.294L348.018 189.859C347.472 186.945 344.725 184.662 341.763 184.662L250.57 184.661C247.61 184.661 244.861 186.944 244.315 189.858L227.17 281.294C226.98 282.31 227.647 283.287 228.659 283.477C229.671 283.666 230.647 283 230.838 281.985L247.984 190.547C248.197 189.403 249.408 188.397 250.57 188.397L341.763 188.399C342.925 188.399 344.134 189.404 344.349 190.548L361.495 281.985C361.663 282.883 362.447 283.51 363.327 283.51" fill="#A5B7E8"/>
<path d="M244.328 186.185H247.99V197.646H244.328" fill="#BEC2CC"/>
<path d="M246.652 197.646L242.855 197.645L244.328 189.793C244.587 188.489 245.287 187.315 246.249 186.42L248.672 186.875L247.99 190.516C247.988 190.526 247.985 190.537 247.984 190.547L246.652 197.646" fill="#8492BA"/>
<path d="M349.479 197.644L348.018 189.858C347.769 188.531 347.065 187.335 346.09 186.426L347.369 186.185L349.517 197.644H349.479Z" fill="#CCCCCC"/>
<path d="M345.718 197.646L343.699 186.875L346.089 186.426C347.063 187.335 347.77 188.531 348.019 189.859L349.479 197.645L345.718 197.646" fill="#8492BA"/>
<path d="M363.986 186.006C363.986 188.108 363.986 189.824 363.986 189.824H228.347C228.347 189.824 228.347 188.108 228.347 186.006C228.347 185.486 228.456 184.99 228.653 184.537C229.25 183.162 230.66 182.192 232.293 182.192H360.042C361.673 182.192 363.085 183.162 363.681 184.537C363.877 184.99 363.986 185.486 363.986 186.006" fill="#A5B7E8"/>
<path d="M363.682 184.537H228.653C229.25 183.162 230.659 182.192 232.295 182.192H360.042C361.674 182.192 363.084 183.162 363.682 184.537Z" fill="#B8C8F5"/>
<path d="M238.159 73.1462C238.159 76.2094 235.656 78.7151 232.596 78.7151H102.99C99.9309 78.7151 97.4278 76.2094 97.4278 73.1462V58.668C97.4278 55.6048 99.9309 53.0992 102.99 53.0992H232.596C235.656 53.0992 238.159 55.6048 238.159 58.668V73.1462Z" fill="white"/>
<path d="M102.99 54.4909C100.69 54.4909 98.8185 56.3651 98.8185 58.6679V73.1456C98.8185 75.4484 100.69 77.3226 102.99 77.3226H232.597C234.897 77.3226 236.768 75.4484 236.768 73.1456V58.6679C236.768 56.3651 234.897 54.4909 232.597 54.4909H102.99ZM232.597 80.1067H102.99C99.1564 80.1067 96.0373 76.9847 96.0373 73.1456V58.6679C96.0373 54.8288 99.1564 51.7068 102.99 51.7068H232.597C236.43 51.7068 239.549 54.8288 239.549 58.6679V73.1456C239.549 76.9847 236.43 80.1067 232.597 80.1067Z" fill="#ADC3FF"/>
<path d="M224.003 60.2479C221.74 60.2479 219.899 62.0907 219.899 64.3571C219.899 66.6235 221.74 68.4679 224.003 68.4679C226.267 68.4679 228.108 66.6235 228.108 64.3571C228.108 62.0907 226.267 60.2479 224.003 60.2479ZM224.003 70.8857C220.407 70.8857 217.484 67.9572 217.484 64.3571C217.484 60.7585 220.407 57.8301 224.003 57.8301C227.598 57.8301 230.523 60.7585 230.523 64.3571C230.523 67.9572 227.598 70.8857 224.003 70.8857Z" fill="#87A7FF"/>
<path d="M229.961 75.0742C229.573 75.0742 229.19 74.8865 228.958 74.5361L225.736 69.7015C225.366 69.1449 225.516 68.3944 226.071 68.0254C226.625 67.6548 227.376 67.8037 227.745 68.3603L230.966 73.1949C231.335 73.7515 231.186 74.502 230.632 74.871C230.424 75.009 230.192 75.0742 229.961 75.0742" fill="#87A7FF"/>
<path d="M112.414 282.142C112.649 283.41 112.888 284.266 112.888 284.266H138.821C138.821 284.266 138.786 283.315 138.596 282.142C138.487 281.464 138.326 280.71 138.085 280.021C137.433 278.143 128.381 274.633 125.323 273.245C125.323 273.245 117.943 273.082 112.566 273.898C111.572 276.259 111.988 279.864 112.414 282.142" fill="url(#paint3_linear)"/>
<path d="M112.414 282.142C112.649 283.41 112.888 284.266 112.888 284.266H138.821C138.821 284.266 138.786 283.315 138.596 282.142H112.414Z" fill="#313131"/>
<path d="M75.5995 282.142C75.7608 282.996 75.983 283.737 76.2405 284.266H98.5361C98.5361 284.266 98.5627 283.266 98.4742 282.142C98.409 281.339 98.2841 280.469 98.0472 279.858C97.4768 278.388 91.8508 275.286 89.6725 274.102C89.6725 274.102 82.715 272.429 77.008 273.232C76.0058 274.886 75.0585 279.296 75.5995 282.142" fill="url(#paint4_linear)"/>
<path d="M75.5995 282.142C75.7608 282.996 75.983 283.737 76.2405 284.266H98.5362C98.5362 284.266 98.5628 283.266 98.4742 282.142H75.5995Z" fill="#313131"/>
<path d="M79.4363 152.933C74.4853 172.031 81.791 217.042 82.5863 220.492C81.394 226.062 75.6626 270.918 76.2747 273.612C80.3102 277.285 88.3927 275.327 89.6725 274.102C93.5206 261.49 103.39 209.944 103.125 206.626C102.86 203.31 98.0798 156.707 96.0363 155.266C93.9933 153.824 79.4363 152.933 79.4363 152.933Z" fill="#2D3A69"/>
<path d="M92.6765 263.242C92.6765 263.242 92.8576 262.019 93.1561 259.969C93.4786 258.515 93.8078 257.005 94.1414 255.451C93.2555 260.169 92.6765 263.242 92.6765 263.242ZM103.125 206.626C103.054 205.746 102.666 201.819 102.096 196.495C102.898 200.7 103.369 204.837 103.125 206.626Z" fill="#CCCCCC"/>
<path d="M93.1561 259.969C94.6009 250.046 98.7982 220.737 98.5394 216.87C98.2276 212.205 92.6765 185.693 92.6765 185.693C92.6765 185.693 95.1341 184.67 97.3621 184.67C97.5437 184.67 97.724 184.677 97.9011 184.692C99.2614 184.804 100.992 190.714 102.096 196.495C102.666 201.819 103.054 205.746 103.125 206.626C102.685 209.844 96.9124 240.693 94.1414 255.451C93.8078 257.005 93.4786 258.515 93.1561 259.969" fill="#242E54"/>
<path d="M86.5718 154.1C85.5517 166.928 88.4644 174.487 89.6295 177.695C90.7948 180.901 99.8127 208.818 103.258 217.175C103.258 226.859 109.544 266.51 111.502 274.347C113.703 275.693 120.553 277.652 125.323 273.245C125.446 270.918 123.664 217.307 123.664 214.388C123.664 211.47 119.361 161.454 118.025 152.934L86.5718 154.1" fill="#2D3A69"/>
<path d="M157.096 84.9988C160.387 78.7869 158.536 69.4098 155.002 67.8887C151.467 66.3677 153.655 71.3516 152.057 73.2965C150.458 75.2383 148.101 72.9583 148.101 75.9147C148.101 78.871 150.12 82.4196 150.037 83.604C149.952 84.7869 157.096 84.9988 157.096 84.9988Z" fill="#FF9D87"/>
<path d="M73.1905 96.3927V96.3958C73.6761 104.655 76.7551 113.716 78.4668 118.121C77.5927 125.41 79.0082 142.568 76.5594 156.048C77.7045 157.134 79.1398 158.062 80.7893 158.849C92.6474 164.505 115.517 162.766 120.531 158.193C120.072 156.706 119.539 152.683 119.303 150.458C118.385 141.849 118.837 130.256 119.53 128.326C120.403 125.893 142.246 123.269 149.915 113.942C150.689 112.999 151.575 111.132 152.475 108.775C155.147 101.789 157.979 90.4785 158.609 86.0456C157.106 83.2187 151.463 81.2431 148.549 82.1412C147.987 83.0425 143.507 101.987 141.856 104.006C140.208 106.03 120.304 106.359 118.948 105.973C117.588 105.584 110.403 101.211 107.491 100.338L94.386 98.9748C93.028 98.6847 87.979 97.9051 86.3302 93.9228C83.9737 88.2379 88.1734 80.9001 90.5994 78.6626C93.028 76.4298 103.131 66.237 92.9379 69.5395C82.7451 72.8466 73.9993 82.5529 73.2246 91.7867C73.0997 93.2664 73.0964 94.8147 73.1905 96.3927" fill="#E1B029"/>
<path d="M107.214 96.5746C107.055 98.199 107.82 100.286 107.82 100.286C103.017 103.276 96.5292 101.456 94.8421 100.286C93.9326 97.0387 93.9309 97.3021 93.4127 96.1333C92.5057 88.3374 101.72 91.3242 103.148 91.9748C104.575 92.624 107.214 96.5746 107.214 96.5746Z" fill="#FF9D87"/>
<path d="M100.585 96.1091C102.371 97.0071 106.167 98.5935 107.363 98.6018C107.224 97.6664 107.214 96.5755 107.214 96.5755C107.214 96.5755 104.628 94.1647 103.39 94.2382C102.152 94.3104 100.585 96.1091 100.585 96.1091" fill="#FF7D71"/>
<path d="M109.767 77.683C111.454 82.619 113.531 97.1712 105.873 96.6515C98.216 96.1333 96.789 95.3531 95.1017 93.5335C93.414 91.7154 91.856 80.4108 96.3989 79.1124C100.941 77.8125 109.767 77.683 109.767 77.683" fill="#FFAD98"/>
<path d="M93.6073 96.6665C94.1016 97.4456 97.1767 97.0264 97.6965 96.6665C98.2153 96.3066 100.363 89.9418 101.07 86.2585C102.386 79.4169 110.328 82.0189 111.358 77.6843C112.284 73.7844 112.324 67.4414 110.502 66.9428C108.598 66.424 106.608 68.1566 105.223 67.9836C103.839 67.8091 96.658 66.9428 92.9376 69.5417C89.2171 72.1406 85.67 78.2031 87.0545 84.6131C88.4382 91.0231 92.459 94.8607 93.6073 96.6665" fill="#2C3D4F"/>
<path d="M101.525 88.1421C98.7989 85.4147 96.3338 87.4271 97.3719 90.2872C98.4104 93.1444 100.487 93.3405 101.07 92.1714C101.655 91.0008 101.525 88.1421 101.525 88.1421Z" fill="#FFAD98"/>
<path d="M119.303 150.458C119.303 150.458 116.86 138.771 117.005 131.337C117.15 123.902 123.704 124.632 132.586 121.863C141.468 119.092 147.292 114.574 152.475 108.775C151.575 111.133 150.689 112.999 149.915 113.942C149.2 114.811 148.362 115.621 147.431 116.379C144.735 118.573 141.247 120.322 137.653 121.756C136.839 122.082 136.016 122.392 135.198 122.686C127.496 125.46 120.033 126.925 119.53 128.327C119.115 129.481 118.787 134.1 118.787 139.469C118.787 143.066 118.935 147.002 119.303 150.458" fill="#E1B029"/>
<path d="M76.5674 156.056C76.5648 156.053 76.562 156.051 76.5597 156.047C76.5622 156.051 76.5648 156.053 76.5674 156.056ZM76.5664 156.011C78.8846 143.202 77.5969 125.449 78.4635 118.149C77.5973 125.446 79.0028 142.551 76.5664 156.011Z" fill="#E6E6E6"/>
<path d="M82.4913 159.582C80.925 158.836 77.6637 157.089 76.5671 156.056C76.5645 156.053 76.562 156.052 76.5594 156.048C76.5616 156.035 76.5639 156.023 76.5661 156.012C79.0025 142.551 77.597 125.447 78.4632 118.15C78.4643 118.14 78.4655 118.132 78.4666 118.121C76.755 113.715 73.676 104.655 73.1904 96.3957C74.9227 102.477 77.7799 112.092 80.3102 116.76C82.7885 121.335 81.1757 145.358 82.4913 159.582Z" fill="#E1B029"/>
<path d="M135.042 277.67C133.217 277.6 130.111 278.512 129.625 278.639C127.392 277.891 123.478 276.502 123.121 275.732C122.764 274.962 125.83 273.473 126.334 273.69C127.764 274.304 135.042 277.67 135.042 277.67" fill="#5587ED"/>
<path d="M95.983 277.886C94.8715 277.891 94.1714 277.892 92.6765 277.211C91.1832 276.531 88.0288 274.924 88.0288 274.924L89.6725 274.102L95.983 277.886" fill="#5587ED"/>
<path d="M394.734 283.987H42.6461V282.317H394.734V283.987Z" fill="#2C3D4F"/>
<defs>
<linearGradient id="paint0_linear" x1="512.099" y1="262.026" x2="554.379" y2="223.777" gradientUnits="userSpaceOnUse">
<stop stop-color="#363F7D"/>
<stop offset="1" stop-color="#22314F"/>
</linearGradient>
<linearGradient id="paint1_linear" x1="492.384" y1="264.276" x2="533.027" y2="227.5" gradientUnits="userSpaceOnUse">
<stop stop-color="#2B3264"/>
<stop offset="1" stop-color="#1B273F"/>
</linearGradient>
<linearGradient id="paint2_linear" x1="412.654" y1="255.153" x2="458.982" y2="247.831" gradientUnits="userSpaceOnUse">
<stop stop-color="#363F7D"/>
<stop offset="1" stop-color="#22314F"/>
</linearGradient>
<linearGradient id="paint3_linear" x1="138.821" y1="278.748" x2="111.953" y2="278.748" gradientUnits="userSpaceOnUse">
<stop stop-color="#557DED"/>
<stop offset="0.004132" stop-color="#557DED"/>
<stop offset="1" stop-color="#474FBF"/>
</linearGradient>
<linearGradient id="paint4_linear" x1="98.5399" y1="278.639" x2="75.4421" y2="278.639" gradientUnits="userSpaceOnUse">
<stop stop-color="#557DED"/>
<stop offset="0.004132" stop-color="#557DED"/>
<stop offset="1" stop-color="#474FBF"/>
</linearGradient>
</defs>
</svg>
