<svg width="457" height="320" viewBox="0 0 457 320" fill="none" xmlns="http://www.w3.org/2000/svg">
<g clip-path="url(#clip0)">
<path d="M0 253.076H456.779V252.847H0V253.076Z" fill="#EEEEEE"/>
<path d="M380.752 267.552H411.011V267.78H380.752V267.552Z" fill="#EEEEEE"/>
<path d="M294.647 270.03H302.589V270.259H294.647V270.03Z" fill="#EEEEEE"/>
<path d="M362.305 259.068H379.838V259.296H362.305V259.068Z" fill="#EEEEEE"/>
<path d="M47.9243 260.603H87.3839V260.832H47.9243V260.603Z" fill="#EEEEEE"/>
<path d="M95.5181 260.603H101.304V260.832H95.5181V260.603Z" fill="#EEEEEE"/>
<path d="M120.106 264.689H205.685V264.46H120.106V264.689Z" fill="#EEEEEE"/>
<path d="M40.1191 -46.0657C37.3692 -46.0657 35.1327 -43.8293 35.1327 -41.0804V206.889C35.1327 209.638 37.3692 211.875 40.1191 211.875H216.526C219.274 211.875 221.511 209.638 221.511 206.889V-41.0804C221.511 -43.8293 219.274 -46.0657 216.526 -46.0657H40.1191ZM216.526 212.103H40.1191C37.2436 212.103 34.9043 209.765 34.9043 206.889V-41.0804C34.9043 -43.9544 37.2436 -46.2941 40.1191 -46.2941H216.526C219.4 -46.2941 221.74 -43.9544 221.74 -41.0804V206.889C221.74 209.765 219.4 212.103 216.526 212.103Z" fill="#EEEEEE"/>
<path d="M237.719 -46.0657C234.97 -46.0657 232.734 -43.8293 232.734 -41.0804V206.889C232.734 209.638 234.97 211.875 237.719 211.875H414.126C416.875 211.875 419.112 209.638 419.112 206.889V-41.0804C419.112 -43.8293 416.875 -46.0657 414.126 -46.0657H237.719ZM414.126 212.103H237.719C234.844 212.103 232.505 209.765 232.505 206.889V-41.0804C232.505 -43.9544 234.844 -46.2941 237.719 -46.2941H414.126C417.001 -46.2941 419.341 -43.9544 419.341 -41.0804V206.889C419.341 209.765 417.001 212.103 414.126 212.103Z" fill="#EEEEEE"/>
<path d="M183.334 6.33055C183.334 1.09038 179.086 -3.15766 173.846 -3.15766C172.898 -3.15766 171.986 -3.01424 171.122 -2.7557C171.26 -3.70671 171.334 -4.67873 171.334 -5.66903C171.334 -16.7651 162.34 -25.76 151.243 -25.76C149.979 -25.76 148.743 -25.6376 147.543 -25.4138C144.455 -30.4676 138.904 -33.8523 132.548 -33.8523C122.928 -33.8523 115.124 -26.1227 114.982 -16.5367C114.883 -16.5386 114.788 -16.5514 114.689 -16.5514C105.75 -16.5514 98.5046 -9.30501 98.5046 -0.366753C98.5046 8.57151 105.75 15.8179 114.689 15.8179H174.125L174.114 15.8042C179.229 15.6616 183.334 11.4803 183.334 6.33055Z" fill="#F4F4F4"/>
<path d="M191.363 52.5338V28.1162H266.626V52.2826H267.539V27.2027H190.45V52.5338H191.363Z" fill="#E9E9E8"/>
<path d="M229.664 52.4662H230.578V4.2174H229.664V52.4662Z" fill="#E9E9E8"/>
<path d="M243.077 -5.25884H217.164C216.565 -5.25884 216.08 -4.77375 216.08 -4.17537V11.2473C216.08 11.8457 216.565 12.3308 217.164 12.3308H243.077C243.675 12.3308 244.16 11.8457 244.16 11.2473V-4.17537C244.16 -4.77375 243.675 -5.25884 243.077 -5.25884Z" fill="#F4F4F4"/>
<path d="M203.863 50.2782H177.951C177.352 50.2782 176.867 50.7633 176.867 51.3626V66.7844C176.867 67.3837 177.352 67.8688 177.951 67.8688H203.863C204.462 67.8688 204.947 67.3837 204.947 66.7844V51.3626C204.947 50.7633 204.462 50.2782 203.863 50.2782Z" fill="#F4F4F4"/>
<path d="M203.592 67.1654H178.221C178.009 67.1654 177.836 66.9936 177.836 66.7808V52.7293C177.836 52.5174 178.009 52.3447 178.221 52.3447H203.592C203.805 52.3447 203.977 52.5174 203.977 52.7293V66.7808C203.977 66.9936 203.805 67.1654 203.592 67.1654Z" fill="#E3E3E2"/>
<path d="M243.077 50.2782H217.164C216.565 50.2782 216.08 50.7633 216.08 51.3626V66.7844C216.08 67.3837 216.565 67.8688 217.164 67.8688H243.077C243.675 67.8688 244.16 67.3837 244.16 66.7844V51.3626C244.16 50.7633 243.675 50.2782 243.077 50.2782Z" fill="#F4F4F4"/>
<path d="M242.806 67.1654H217.434C217.222 67.1654 217.05 66.9936 217.05 66.7808V52.7293C217.05 52.5174 217.222 52.3447 217.434 52.3447H242.806C243.018 52.3447 243.191 52.5174 243.191 52.7293V66.7808C243.191 66.9936 243.018 67.1654 242.806 67.1654Z" fill="#E3E3E2"/>
<path d="M280.099 50.2782H254.187C253.587 50.2782 253.102 50.7633 253.102 51.3626V66.7844C253.102 67.3837 253.587 67.8688 254.187 67.8688H280.099C280.697 67.8688 281.183 67.3837 281.183 66.7844V51.3626C281.183 50.7633 280.697 50.2782 280.099 50.2782Z" fill="#F4F4F4"/>
<path d="M279.828 67.1654H254.457C254.244 67.1654 254.073 66.9936 254.073 66.7808V52.7293C254.073 52.5174 254.244 52.3447 254.457 52.3447H279.828C280.041 52.3447 280.214 52.5174 280.214 52.7293V66.7808C280.214 66.9936 280.041 67.1654 279.828 67.1654Z" fill="#E3E3E2"/>
<path d="M368.712 12.8068C373.619 12.8068 377.597 16.7844 377.597 21.6911C377.597 26.5978 373.619 30.5764 368.712 30.5764C363.806 30.5764 359.828 26.5978 359.828 21.6911C359.828 16.7844 363.806 12.8068 368.712 12.8068ZM348.06 18.4105V24.9735L351.438 25.2914C351.895 27.4913 352.766 29.5368 353.958 31.3538L351.788 33.9748L356.429 38.6166L359.051 36.4451C360.868 37.6373 362.912 38.5097 365.113 38.9656L365.431 42.3448H371.994L372.312 38.9656C374.512 38.5088 376.558 37.6373 378.374 36.4451L380.995 38.6166L385.636 33.9748L383.466 31.3529C384.659 29.5368 385.53 27.4913 385.986 25.2914L389.366 24.9735V18.4105L385.986 18.0926C385.53 15.8918 384.659 13.8464 383.466 12.0302L385.636 9.4083L380.995 4.76744L378.374 6.93806C376.558 5.74586 374.512 4.87432 372.312 4.41754L371.994 1.03828H365.431L365.113 4.41754C362.912 4.87341 360.868 5.74586 359.051 6.93806L356.429 4.76744L351.788 9.4083L353.958 12.0302C352.766 13.8464 351.895 15.8918 351.438 18.0926L348.06 18.4105Z" fill="#F8F8F9"/>
<path d="M342.515 52.7595C342.515 48.9152 345.632 45.7982 349.477 45.7982C353.323 45.7982 356.44 48.9152 356.44 52.7595C356.44 56.6046 353.323 59.7217 349.477 59.7217C345.632 59.7217 342.515 56.6046 342.515 52.7595ZM352.298 66.2966C354.022 65.9385 355.625 65.2551 357.048 64.3215L359.104 66.0216L362.74 62.3856L361.039 60.3311C361.973 58.9077 362.656 57.3044 363.014 55.5805L365.662 55.3311V50.1887L363.014 49.9393C362.656 48.2154 361.973 46.6131 361.039 45.1888L362.74 43.1342L359.104 39.4983L357.048 41.1984C355.625 40.2647 354.022 39.5814 352.298 39.2242L352.049 36.5758H346.906L346.657 39.2242C344.932 39.5814 343.33 40.2647 341.907 41.1984L339.852 39.4983L336.215 43.1342L337.916 45.1888C336.983 46.6131 336.299 48.2154 335.941 49.9393L333.294 50.1887V55.3311L335.941 55.5805C336.299 57.3044 336.983 58.9077 337.916 60.3311L336.215 62.3856L339.852 66.0216L341.907 64.3215C343.33 65.2551 344.932 65.9385 346.657 66.2966L346.906 68.9441H352.049L352.298 66.2966Z" fill="#F8F8F9"/>
<path d="M328.618 28.7511C328.618 25.5217 331.236 22.9043 334.466 22.9043C337.695 22.9043 340.313 25.5217 340.313 28.7511C340.313 31.9805 337.695 34.5988 334.466 34.5988C331.236 34.5988 328.618 31.9805 328.618 28.7511ZM340.825 38.4613L342.55 39.8901L345.605 36.8361L344.176 35.1104C344.961 33.9145 345.534 32.568 345.835 31.1209L348.059 30.9108V26.5914L345.835 26.3822C345.534 24.9342 344.961 23.5877 344.176 22.3927L345.605 20.6661L342.55 17.6121L340.825 19.04C339.629 18.2561 338.282 17.6824 336.835 17.3818L336.625 15.1573H332.306L332.097 17.3818C330.649 17.6815 329.302 18.2561 328.106 19.04L326.381 17.6121L323.326 20.6661L324.754 22.3927C323.971 23.5877 323.396 24.9342 323.095 26.3822L320.872 26.5914V30.9108L323.095 31.1209C323.397 32.568 323.971 33.9145 324.754 35.1104L323.326 36.8361L326.381 39.8901L328.106 38.4613C329.302 39.2461 330.649 39.8207 332.097 40.1203L332.306 42.3448H336.625L336.835 40.1203C338.282 39.8207 339.629 39.2461 340.825 38.4613Z" fill="#F8F8F9"/>
<path d="M340.06 239.422H401.403V199.525H340.06V239.422Z" fill="#F8F8F9"/>
<path d="M342.303 237.428H399.158V207.005H342.303V237.428Z" fill="#E3E3E2"/>
<path d="M346.937 212.86H388.993V211.552H346.937V212.86Z" fill="#F8F8F9"/>
<path d="M346.937 216.868H367.115V215.559H346.937V216.868Z" fill="#F8F8F9"/>
<path d="M346.937 220.876H372.352V219.568H346.937V220.876Z" fill="#F8F8F9"/>
<path d="M346.937 224.884H355.894V223.576H346.937V224.884Z" fill="#F8F8F9"/>
<path d="M352.737 228.893H346.937V227.585H352.737V228.893Z" fill="#F8F8F9"/>
<path d="M87.4518 226.222L43.8022 226.421L43.6794 199.498L87.329 199.3L87.4518 226.222Z" fill="#EEEEEE"/>
<path d="M60.4247 219.652C60.2377 219.652 60.049 219.595 59.8866 219.477L51.9225 213.657C51.6885 213.487 51.5493 213.214 51.5479 212.925C51.5464 212.633 51.6827 212.36 51.9158 212.188L59.827 206.298C60.2321 205.996 60.804 206.08 61.1052 206.484C61.4064 206.889 61.3226 207.462 60.9179 207.762L54.0002 212.913L60.9643 218C61.3714 218.298 61.4611 218.869 61.1634 219.278C60.9846 219.522 60.7067 219.652 60.4247 219.652Z" fill="#FCFDFD"/>
<path d="M70.7601 219.604C70.4814 219.604 70.2055 219.478 70.0263 219.237C69.7252 218.832 69.8091 218.259 70.2137 217.958L77.1311 212.808L70.167 207.72C69.7597 207.422 69.6706 206.851 69.9678 206.444C70.2655 206.036 70.8371 205.947 71.2446 206.245L79.2087 212.062C79.4432 212.234 79.582 212.506 79.5834 212.796C79.5848 213.085 79.4481 213.359 79.2154 213.533L71.305 219.423C71.1412 219.546 70.9499 219.604 70.7601 219.604Z" fill="#FCFDFD"/>
<path d="M63.514 219.638C63.4141 219.638 63.3124 219.622 63.2125 219.587C62.7361 219.42 62.4852 218.899 62.6519 218.422L66.755 206.694C66.9213 206.219 67.4423 205.966 67.9187 206.133C68.3951 206.3 68.6464 206.821 68.4794 207.297L64.3766 219.025C64.2448 219.402 63.8916 219.638 63.514 219.638Z" fill="#FCFDFD"/>
<path d="M405.519 283.762C405.519 289.475 326.216 294.106 228.39 294.106C130.564 294.106 51.261 289.475 51.261 283.762C51.261 278.049 130.564 273.417 228.39 273.417C326.216 273.417 405.519 278.049 405.519 283.762Z" fill="#C4C4C4"/>
<path d="M305.48 283.764H312.186L321.322 233.296H314.616L305.48 283.764Z" fill="#1D2A30"/>
<path d="M312.643 281.24L311.729 276.193L313.718 265.205H315.545L312.643 281.24Z" fill="#45555C"/>
<path d="M316.082 262.241H314.255L316.777 248.309H318.604L317.782 252.847L317.741 253.076L316.082 262.241Z" fill="#45555C"/>
<path d="M319.141 245.345H317.314L319.059 235.703H320.886L319.141 245.345Z" fill="#45555C"/>
<path d="M306.394 283.764H305.48L305.937 281.24L306.394 283.764ZM311.729 276.193L309.74 265.205H313.718L311.729 276.193ZM314.255 262.241H310.443H309.376L311.898 248.309H316.777L314.255 262.241ZM317.314 245.345H313.425H312.434L314.18 235.703H319.059L317.314 245.345Z" fill="#6A797F"/>
<path d="M286.572 248.309H313.425C314.243 248.309 314.906 247.646 314.906 246.828C314.906 246.008 314.243 245.345 313.425 245.345H286.572C285.754 245.345 285.091 246.008 285.091 246.828C285.091 247.646 285.754 248.309 286.572 248.309Z" fill="#1D2A30"/>
<path d="M283.592 265.205H310.443C311.261 265.205 311.925 264.543 311.925 263.723C311.925 262.905 311.261 262.241 310.443 262.241H283.592C282.773 262.241 282.109 262.905 282.109 263.723C282.109 264.543 282.773 265.205 283.592 265.205Z" fill="#1D2A30"/>
<path d="M278.074 283.764H284.779L293.915 233.296H287.209L278.074 283.764Z" fill="#1D2A30"/>
<path d="M284.779 283.764H282.952L291.652 235.703H293.479L291.734 245.345L291.197 248.309L290.376 252.847L290.334 253.076L288.675 262.241L288.138 265.205L284.779 283.764Z" fill="#45555C"/>
<path d="M282.952 283.764H278.074L286.774 235.703H291.652L282.952 283.764Z" fill="#6A797F"/>
<path d="M340.506 283.764H333.801L324.665 233.296H331.371L340.506 283.764Z" fill="#1D2A30"/>
<path d="M340.506 283.764H338.679L329.979 235.703H331.807L340.506 283.764Z" fill="#758288"/>
<path d="M338.679 283.764H333.801L330.441 265.205H331.696C332.514 265.205 333.178 264.543 333.178 263.723C333.178 262.905 332.514 262.241 331.696 262.241H329.904L327.383 248.309H328.714C329.532 248.309 330.196 247.646 330.196 246.828C330.196 246.008 329.532 245.345 328.714 245.345H326.846L325.101 235.703H329.979L338.679 283.764Z" fill="#929C9E"/>
<path d="M328.714 248.309H301.863C301.044 248.309 300.38 247.646 300.38 246.828C300.38 246.008 301.044 245.345 301.863 245.345H328.714C329.533 245.345 330.196 246.008 330.196 246.828C330.196 247.646 329.533 248.309 328.714 248.309Z" fill="#1D2A30"/>
<path d="M331.696 265.205H304.844C304.025 265.205 303.362 264.543 303.362 263.723C303.362 262.905 304.025 262.241 304.844 262.241H331.696C332.514 262.241 333.178 262.905 333.178 263.723C333.178 264.543 332.514 265.205 331.696 265.205Z" fill="#1D2A30"/>
<path d="M328.714 248.309H306.682L306.146 245.345H328.714C329.533 245.345 330.196 246.008 330.196 246.828C330.196 247.646 329.533 248.309 328.714 248.309Z" fill="#45555C"/>
<path d="M331.696 265.205H309.74L309.204 262.241H331.696C332.514 262.241 333.178 262.905 333.178 263.723C333.178 264.543 332.514 265.205 331.696 265.205Z" fill="#45555C"/>
<path d="M313.099 283.764H306.394L297.258 233.296H303.964L313.099 283.764Z" fill="#1D2A30"/>
<path d="M313.099 283.764H311.272L302.573 235.703H303.924H304.4L313.099 283.764Z" fill="#758288"/>
<path d="M311.272 283.764H306.394L297.694 235.703H302.572L311.272 283.764Z" fill="#929C9E"/>
<path d="M333.991 235.703H285.483C284.883 235.703 284.398 235.218 284.398 234.62V231.973C284.398 231.374 284.883 230.889 285.483 230.889H333.991C334.59 230.889 335.075 231.374 335.075 231.973V234.62C335.075 235.218 334.59 235.703 333.991 235.703Z" fill="#1D2A30"/>
<path d="M303.924 235.703H285.483C284.883 235.703 284.398 235.218 284.398 234.62V231.973C284.398 231.374 284.883 230.889 285.483 230.889H303.924C304.522 230.889 305.008 231.374 305.008 231.973V234.62C305.008 235.218 304.522 235.703 303.924 235.703Z" fill="#45555C"/>
<path d="M116.208 283.107H177.551V243.208H116.208V283.107Z" fill="#4870C0"/>
<path d="M177.551 283.107H116.208V243.208H177.551V252.847V253.076V264.46V264.688V283.107Z" fill="#B4CAEC"/>
<path d="M175.307 281.111H118.452V250.689H175.307V281.111Z" fill="#4870C0"/>
<path d="M165.142 256.543H123.085V255.234H165.142V256.543Z" fill="white"/>
<path d="M143.263 260.551H123.085V259.243H143.263V260.551Z" fill="white"/>
<path d="M148.5 264.56H123.085V263.251H148.5V264.56Z" fill="white"/>
<path d="M132.042 268.568H123.085V267.259H132.042V268.568Z" fill="white"/>
<path d="M128.886 272.576H123.085V271.267H128.886V272.576Z" fill="white"/>
<path d="M253.36 283.762H203.419L211.876 217.374H244.903L253.36 283.762Z" fill="#4870C0"/>
<path d="M203.421 283.764H253.357V283.762H203.421V283.764Z" fill="#FDFEFE"/>
<path d="M253.357 283.762H203.421L203.431 283.682H253.347L253.357 283.762ZM252.721 278.774H204.056L209.207 238.344L210.89 225.125L209.207 238.344L248.842 248.309L245.888 225.125L248.842 248.309L252.721 278.774Z" fill="#B4CAEC"/>
<path d="M248.842 248.309L209.207 238.344L210.89 225.125H245.888L248.842 248.309Z" fill="#A0B5E3"/>
<path d="M346.117 53.6757H110.662C107.335 53.6757 104.637 56.3735 104.637 59.7016V219.1C104.637 222.428 107.335 225.125 110.662 225.125H115.653H341.127H346.117C349.445 225.125 352.142 222.428 352.142 219.1V59.7016C352.142 56.3735 349.445 53.6757 346.117 53.6757Z" fill="#4870C0"/>
<path d="M346.117 225.125H110.662C107.335 225.125 104.637 222.428 104.637 219.1V99.6899L104.981 100.324L106.007 102.209L107.21 101.791C108.603 105.467 110.318 109.651 112.112 113.229V187.858L112.566 186.164V213.283H115.711H144.05H172.435H185.251H211.835H218.606H223.192H344.217V117.487C344.78 117.556 345.37 117.589 345.98 117.589C347.881 117.589 349.987 117.273 352.142 116.768V211.552V212.86V215.559V216.868V219.1C352.142 219.257 352.136 219.413 352.124 219.568C352.089 220.02 352.005 220.458 351.876 220.876C351.552 221.928 350.948 222.857 350.152 223.576C349.487 224.174 348.69 224.627 347.809 224.884C347.272 225.041 346.705 225.125 346.117 225.125ZM345.131 99.276L344.217 98.0299V82.6337V59.7226V59.5764H112.566H112.112V73.6397C112.079 73.5968 111.599 72.9792 110.677 72.062C110.662 72.0474 110.647 72.0319 110.632 72.0173C109.459 70.8534 107.591 69.2254 105.06 67.7025C104.921 67.6194 104.78 67.5363 104.637 67.4531V64.3781C105.234 64.295 105.823 64.1524 106.397 63.9533C108.562 63.2032 110.489 61.6338 111.649 59.423C111.805 59.1343 111.943 58.8291 112.071 58.5158C112.578 57.2304 112.997 55.533 113.275 53.6757H115.653H341.127H346.117C349.445 53.6757 352.142 56.3735 352.142 59.7016V95.1595C349.912 96.4075 347.559 97.7806 345.131 99.276Z" fill="#C7D9F2"/>
<path d="M112.566 213.283H344.217V59.5764H112.566V213.283Z" fill="#4870C0"/>
<path d="M270.329 278.774H186.45C185.927 278.774 185.503 279.198 185.503 279.72V282.734C185.503 283.258 185.927 283.682 186.45 283.682H270.329C270.853 283.682 271.277 283.258 271.277 282.734V279.72C271.277 279.198 270.853 278.774 270.329 278.774Z" fill="#4870C0"/>
<path d="M270.329 283.682H186.45C185.927 283.682 185.503 283.258 185.503 282.734V279.72C185.503 279.198 185.927 278.774 186.45 278.774H270.329C270.853 278.774 271.277 279.198 271.277 279.72V282.734C271.277 283.258 270.853 283.682 270.329 283.682Z" fill="#C7D9F2"/>
<path d="M344.217 82.6338H332.933L331.773 81.0506C331.773 81.0506 331.547 81.12 331.188 81.3228L329.862 79.355C329.862 79.355 329.225 76.6884 328.429 76.0799C327.634 75.4715 319.709 72.1105 318.723 72.1105C318.721 72.1105 318.719 72.1105 318.717 72.1105C317.761 72.127 317.761 78.3044 318.717 79.355C319.52 80.2384 323.19 81.9678 325.12 82.6338H258.159L261.856 68.819H262.838V67.9054H262.1L264.29 59.7226H344.217V82.6338ZM311.906 78.2039L314.426 75.6844L316.03 77.2895H316.031L317.475 75.8452L315.87 74.24L318.389 71.7213L310.47 68.7578V66.4574H306.661V66.9142V67.9054H306.282V68.819H306.661V70.267H308.109V70.6461H309.022V70.4944L311.906 78.2039ZM296.627 67.9054V68.819H301.454V67.9054H296.627ZM286.974 67.9054V68.819H291.801V67.9054H286.974ZM277.319 67.9054V68.819H282.146V67.9054H277.319ZM267.666 67.9054V68.819H272.493V67.9054H267.666ZM253.573 82.6338H220.219L221.482 77.9134V78.922H222.395V74.7845H222.319L223.529 70.267H223.844V69.0885L223.916 68.819H224.223V67.9054H224.16L226.351 59.7226H259.704L253.573 82.6338ZM248.358 67.9054V68.819H253.185V67.9054H248.358ZM238.704 67.9054V68.819H243.53V67.9054H238.704ZM229.049 67.9054V68.819H233.877V67.9054H229.049ZM207.402 82.6338H179.017L185.149 59.7226H213.533L207.402 82.6338ZM150.671 82.6338H140.273L143.363 71.0901C144.3 70.7813 144.977 69.8988 144.977 68.8573V68.4225C144.977 67.8707 144.786 67.3627 144.468 66.9617L146.404 59.7226H156.801L150.671 82.6338Z" fill="#395EB4"/>
<path d="M211.835 213.283H185.251L193.941 180.815H205.971V135.868L211.835 113.958V196.263H195.913C194.958 196.263 194.183 197.038 194.183 197.993V203.656C194.183 204.611 194.958 205.386 195.913 205.386H211.835V213.283ZM172.435 213.283H144.05L152.74 180.815H181.124L172.435 213.283ZM115.711 213.283H112.566V186.164L128.27 127.485V166.35L115.711 213.283ZM201.92 103.114H173.535L178.944 82.9042H207.328L201.92 103.114ZM145.19 103.114H137.966C138.987 101.672 139.596 100.762 139.596 100.762C139.596 100.762 142.612 100.732 145.861 100.604L145.19 103.114ZM137.327 93.6404L140.2 82.9042H150.598L148.892 89.2818C147.14 89.6938 140.266 92.2627 137.327 93.6404Z" fill="#8DAEE0"/>
<path d="M308.109 116.163V117.99H306.282V118.904H309.022V116.163H308.109Z" fill="white"/>
<path d="M301.455 117.99H296.628V118.904H301.455V117.99ZM291.801 117.99H286.973V118.904H291.801V117.99ZM282.147 117.99H277.32V118.904H282.147V117.99ZM272.493 117.99H267.665V118.904H272.493V117.99ZM262.839 117.99H258.012V118.904H262.839V117.99ZM253.184 117.99H248.357V118.904H253.184V117.99ZM243.531 117.99H238.704V118.904H243.531V117.99ZM233.876 117.99H229.05V118.904H233.876V117.99Z" fill="white"/>
<path d="M224.222 117.99H222.395V116.163H221.482L221.481 118.904H224.222V117.99Z" fill="white"/>
<path d="M222.395 112.025V107.887H221.481V112.025H222.395ZM222.395 103.75V99.6113H221.481V103.75H222.395ZM222.395 95.4738V91.3354H221.481V95.4738H222.395ZM222.395 87.1979V83.0604H221.481V87.1979H222.395ZM222.395 78.922V74.7845H221.481V78.922H222.395Z" fill="white"/>
<path d="M222.395 70.646V68.8189H224.223V67.9053H221.481V70.646H222.395Z" fill="white"/>
<path d="M229.05 68.819H233.877V67.9054H229.05V68.819ZM238.704 68.819H243.53V67.9054H238.704V68.819ZM248.358 68.819H253.185V67.9054H248.358V68.819ZM258.012 68.819H262.838V67.9054H258.012V68.819ZM267.666 68.819H272.493V67.9054H267.666V68.819ZM277.319 68.819H282.147V67.9054H277.319V68.819ZM286.974 68.819H291.801V67.9054H286.974V68.819ZM296.627 68.819H301.455V67.9054H296.627V68.819Z" fill="white"/>
<path d="M306.282 68.8189H308.109V70.646H309.022V67.9053H306.282V68.8189Z" fill="white"/>
<path d="M308.109 78.922H309.022V74.7846H308.109V78.922ZM308.109 87.1979H309.022V83.0605H308.109V87.1979ZM308.109 95.4738H309.022V91.3353H308.109V95.4738ZM308.109 103.75H309.022V99.6113H308.109V103.75ZM308.109 112.025H309.022V107.887H308.109V112.025Z" fill="white"/>
<path d="M307.117 69.8102H310.013V66.9143H307.117V69.8102Z" fill="#4870C0"/>
<path d="M307.118 66.9141H306.661V70.2668H310.47V66.4573H306.661V66.9141H307.118V67.3709H309.557V69.3533H307.574V66.9141H307.118V67.3709V66.9141Z" fill="white"/>
<path d="M307.117 119.895H310.013V116.999H307.117V119.895Z" fill="#4870C0"/>
<path d="M307.118 119.895V120.352H310.47V116.542H306.661V120.352H307.118V119.895H307.574V117.456H309.557V119.438H307.118V119.895H307.574H307.118Z" fill="white"/>
<path d="M220.49 69.8102H223.387V66.9143H220.49V69.8102Z" fill="#4870C0"/>
<path d="M220.49 69.8101V70.2668H223.844V66.4573H220.034V70.2668H220.49V69.8101H220.948V67.3709H222.93V69.3533H220.49V69.8101H220.948H220.49Z" fill="white"/>
<path d="M220.491 119.895H223.387V116.999H220.491V119.895Z" fill="#4870C0"/>
<path d="M220.491 119.895V120.352H223.844V116.542H220.034V120.352H220.491V119.895H220.948V117.456H222.93V119.438H220.491V119.895H220.948H220.491Z" fill="white"/>
<path d="M263.804 69.8102H266.701V66.9142H263.804V69.8102Z" fill="#4870C0"/>
<path d="M263.804 69.8101V70.2668H267.158V66.4573H263.347V70.2668H263.804V69.8101H264.261V67.3709H266.244V69.3533H263.804V69.8101H264.261H263.804Z" fill="white"/>
<path d="M263.804 119.895H266.701V116.999H263.804V119.895Z" fill="#4870C0"/>
<path d="M263.804 119.895V120.352H267.158V116.542H263.347V120.352H263.804V119.895H264.261V117.456H266.244V119.438H263.804V119.895H264.261H263.804Z" fill="white"/>
<path d="M307.117 94.8525H310.013V91.9566H307.117V94.8525Z" fill="#4870C0"/>
<path d="M307.118 94.8527V95.3094H310.47V91.4999H306.661V95.3094H307.118V94.8527H307.574V92.4135H309.557V94.3959H307.118V94.8527H307.574H307.118Z" fill="white"/>
<path d="M220.491 94.8525H223.387V91.9566H220.491V94.8525Z" fill="#4870C0"/>
<path d="M220.491 94.8527V95.3094H223.844V91.4999H220.034V95.3094H220.491V94.8527H220.948V92.4135H222.93V94.3959H220.491V94.8527H220.948H220.491Z" fill="white"/>
<path d="M300.698 94.3073H279.502C278.547 94.3073 277.772 93.5335 277.772 92.5779V86.9147C277.772 85.9601 278.547 85.1845 279.502 85.1845H300.698C301.654 85.1845 302.428 85.9601 302.428 86.9147V92.5779C302.428 93.5335 301.654 94.3073 300.698 94.3073Z" fill="#C7D9F2"/>
<path d="M264.156 94.3073H255.035L257.476 85.1845H264.156C265.111 85.1845 265.886 85.9601 265.886 86.9147V92.5779C265.886 93.5335 265.111 94.3073 264.156 94.3073ZM250.449 94.3073H242.96C242.005 94.3073 241.23 93.5335 241.23 92.5779V86.9147C241.23 85.9601 242.005 85.1845 242.96 85.1845H252.89L250.449 94.3073Z" fill="#C7D9F2"/>
<path d="M217.109 205.386H211.835V196.263H217.109C218.065 196.263 218.839 197.038 218.839 197.993V203.656C218.839 204.611 218.065 205.386 217.109 205.386Z" fill="#C7D9F2"/>
<path d="M211.835 205.386H195.913C194.958 205.386 194.183 204.611 194.183 203.656V197.993C194.183 197.038 194.958 196.263 195.913 196.263H211.835V205.386Z" fill="#DEEAF8"/>
<path d="M328.931 68.5549H336.642C337.02 68.5549 337.327 68.248 337.327 67.8698C337.327 67.4916 337.02 67.1846 336.642 67.1846H328.931C328.553 67.1846 328.246 67.4916 328.246 67.8698C328.246 68.248 328.553 68.5549 328.931 68.5549Z" fill="white"/>
<path d="M328.931 72.2091H336.642C337.02 72.2091 337.327 71.9021 337.327 71.5239C337.327 71.1457 337.02 70.8388 336.642 70.8388H328.931C328.553 70.8388 328.246 71.1457 328.246 71.5239C328.246 71.9021 328.553 72.2091 328.931 72.2091Z" fill="white"/>
<path d="M328.931 75.8634H336.642C337.02 75.8634 337.327 75.5564 337.327 75.1782C337.327 74.8 337.02 74.4931 336.642 74.4931H328.931C328.553 74.4931 328.246 74.8 328.246 75.1782C328.246 75.5564 328.553 75.8634 328.931 75.8634Z" fill="white"/>
<path d="M205.971 180.815H193.941L194.59 178.394H196.211V174.583H195.609L205.971 135.868V180.815ZM181.124 180.815H152.74L160.34 152.419V176.489H161.253V150.837C163.899 162.008 172.061 171.044 182.704 174.912L181.124 180.815ZM182.941 174.027C178.385 172.359 174.3 169.716 170.934 166.351C166.011 161.426 162.634 154.96 161.593 147.736L162.357 144.884H162.701V143.595L168.341 122.525C169.147 121.502 170.013 120.528 170.934 119.607C176.917 113.625 185.177 109.926 194.306 109.926V109.013C184.198 109.013 175.122 113.427 168.9 120.434L173.535 103.114H201.92L182.941 174.027ZM128.27 166.35V127.485L133.026 109.713C135.025 107.194 136.775 104.794 137.966 103.114H145.19L128.27 166.35Z" fill="#C8DAF2"/>
<path d="M160.34 176.489H161.253V109.47H160.34V176.489Z" fill="#4870C0"/>
<path d="M192.858 110.917H195.754V108.021H192.858V110.917Z" fill="white"/>
<path d="M192.858 110.918V111.374H196.21V107.565H192.401V111.374H192.858V110.918H193.314V108.478H195.297V110.461H192.858V110.918H193.314H192.858Z" fill="#4870C0"/>
<path d="M192.858 177.937H195.754V175.04H192.858V177.937Z" fill="white"/>
<path d="M192.858 177.937V178.394H196.21V174.584H192.401V178.394H192.858V177.937H193.314V175.497H195.297V177.48H192.858V177.937H193.314H192.858Z" fill="#4870C0"/>
<path d="M159.348 144.427H162.244V141.531H159.348V144.427Z" fill="white"/>
<path d="M159.348 144.427V144.884H162.701V141.074H158.892V144.884H159.348V144.427H159.805V141.988H161.788V143.97H159.348V144.427H159.805H159.348Z" fill="#4870C0"/>
<path d="M161.546 109.47C161.546 109.884 161.211 110.22 160.796 110.22C160.382 110.22 160.045 109.884 160.045 109.47C160.045 109.055 160.382 108.719 160.796 108.719C161.211 108.719 161.546 109.055 161.546 109.47Z" fill="white"/>
<path d="M161.546 109.47H161.091C161.09 109.631 160.958 109.763 160.796 109.764C160.635 109.763 160.503 109.631 160.502 109.47C160.503 109.308 160.634 109.176 160.796 109.176C160.959 109.176 161.09 109.308 161.091 109.47H161.546H162.004C162.003 108.803 161.463 108.263 160.796 108.263C160.129 108.263 159.59 108.803 159.589 109.47C159.59 110.136 160.129 110.676 160.796 110.677C161.464 110.676 162.003 110.136 162.004 109.47H161.546Z" fill="#4870C0"/>
<path d="M161.547 176.489C161.547 176.903 161.211 177.239 160.796 177.239C160.382 177.239 160.045 176.903 160.045 176.489C160.045 176.074 160.382 175.738 160.796 175.738C161.211 175.738 161.547 176.074 161.547 176.489Z" fill="white"/>
<path d="M161.547 176.489H161.091C161.09 176.65 160.958 176.782 160.796 176.782C160.635 176.782 160.503 176.65 160.502 176.489C160.503 176.327 160.635 176.195 160.796 176.195C160.958 176.195 161.09 176.327 161.091 176.489H161.547H162.004C162.003 175.822 161.464 175.281 160.796 175.281C160.129 175.281 159.59 175.822 159.589 176.489C159.59 177.155 160.129 177.696 160.796 177.696C161.464 177.696 162.003 177.155 162.004 176.489H161.547Z" fill="#4870C0"/>
<path d="M289.532 197.367H266.012C262.258 197.367 259.215 194.324 259.215 190.57C259.215 186.816 262.258 183.772 266.012 183.772H289.532C293.286 183.772 296.329 186.816 296.329 190.57C296.329 194.324 293.286 197.367 289.532 197.367Z" fill="#C7D9F2"/>
<path d="M310.2 139.401H242.966L243.76 136.43H310.2C311.02 136.43 311.685 137.095 311.685 137.915C311.685 138.736 311.02 139.401 310.2 139.401ZM238.38 139.401H237.535C236.715 139.401 236.05 138.736 236.05 137.915C236.05 137.095 236.715 136.43 237.535 136.43H239.174L238.38 139.401Z" fill="#C7D9F2"/>
<path d="M310.2 150.251H240.062L240.857 147.28H310.2C311.02 147.28 311.685 147.945 311.685 148.765C311.685 149.586 311.02 150.251 310.2 150.251Z" fill="#C7D9F2"/>
<path d="M310.2 161.101H264.942C264.122 161.101 263.457 160.436 263.457 159.616C263.457 158.795 264.122 158.129 264.942 158.129H310.2C311.02 158.129 311.685 158.795 311.685 159.616C311.685 160.436 311.02 161.101 310.2 161.101Z" fill="#C7D9F2"/>
<path d="M143.363 71.09L144.468 66.9616C144.786 67.3626 144.977 67.8706 144.977 68.4224V68.8572C144.977 69.8987 144.3 70.7812 143.363 71.09Z" fill="#263C7A"/>
<path d="M308.031 67.845L311.907 78.2039L318.389 71.7213L308.031 67.845Z" fill="#4870C0"/>
<path d="M317.474 75.8451L316.03 77.2894L312.821 74.0801L314.265 72.6358L317.474 75.8451Z" fill="#4870C0"/>
<path d="M317.474 75.8451L315.87 74.2409V74.24L317.474 75.8451ZM318.389 71.7213L310.47 68.7586V68.7577L318.389 71.7213Z" fill="#809FD9"/>
<path d="M309.557 68.417L308.031 67.8451L309.557 68.4161V68.417Z" fill="#8DAEE0"/>
<path d="M310.47 68.7587L309.557 68.417V68.4161L310.47 68.7578V68.7587Z" fill="white"/>
<path d="M311.907 78.2039L308.031 67.8459L309.557 68.4169L310.47 68.7586L318.389 71.7212L315.87 74.2399V74.2408L314.265 72.6357L312.821 74.0801L314.426 75.6843L311.907 78.2039Z" fill="#8DAEE0"/>
<path d="M316.031 77.2894H316.03L317.475 75.8451L316.031 77.2894Z" fill="#809FD9"/>
<path d="M316.03 77.2894L314.426 75.6843L312.821 74.0801L314.265 72.6358L315.87 74.2409L317.474 75.8451L316.03 77.2894Z" fill="#8DAEE0"/>
<path d="M149.332 104.867L159.077 108.514L153.968 103.405C153.584 103.618 153.098 103.578 152.772 103.252C152.377 102.858 152.377 102.219 152.772 101.825C153.165 101.431 153.804 101.431 154.199 101.825C154.525 102.151 154.564 102.637 154.351 103.021L159.461 108.131L155.814 98.3854L152.586 99.1007L152.46 97.935L151.849 97.3248L148.271 100.902L148.882 101.513L150.047 101.64L149.332 104.867Z" fill="#1D2A30"/>
<path d="M112.112 187.858V113.229C112.263 113.529 112.413 113.825 112.566 114.117V186.164L112.112 187.858Z" fill="#CDDEF3"/>
<path d="M112.566 186.164V114.117C114.594 118.011 116.7 121.025 118.541 121.58C118.767 121.648 119.007 121.681 119.259 121.681C121.59 121.681 124.95 118.863 128.27 115.294V127.485L112.566 186.164Z" fill="#99B6E4"/>
<path d="M128.27 127.485V115.294C129.908 113.534 131.536 111.591 133.026 109.713L128.27 127.485Z" fill="#CEDFF4"/>
<path d="M112.566 74.3359C112.4 74.0253 112.248 73.7896 112.114 73.6416C112.114 73.6416 112.114 73.6407 112.112 73.6398V59.5765H112.566V74.3359Z" fill="#CDDEF3"/>
<path d="M140.2 82.9042H115.699C115.67 82.8137 115.642 82.7233 115.614 82.6338H140.273L140.2 82.9042ZM112.566 74.3359V59.5765H146.443L146.404 59.7226H112.566V74.3359Z" fill="#537BC6"/>
<path d="M140.273 82.6338H115.614C114.485 79.0545 113.363 75.8278 112.566 74.336V59.7226H146.404L144.467 66.9617C144.037 66.4209 143.373 66.0737 142.627 66.0737H142.193C140.896 66.0737 139.844 67.1252 139.844 68.4225V68.8573C139.844 70.1555 140.896 71.207 142.193 71.207H142.627C142.884 71.207 143.132 71.1659 143.363 71.0901L140.273 82.6338ZM131.178 66.0737C130.452 66.0737 129.863 66.663 129.863 67.3892V69.8915C129.863 70.6178 130.452 71.207 131.178 71.207H133.681C134.407 71.207 134.997 70.6178 134.997 69.8915V67.3892C134.997 66.663 134.407 66.0737 133.681 66.0737H131.178ZM119.882 66.0737V71.207H125.015V66.0737H119.882Z" fill="#456BBD"/>
<path d="M121.381 107.735C121.367 107.735 121.355 107.732 121.346 107.727C120.986 107.528 119.292 102.56 117.83 98.1002L119.882 97.3867C119.882 97.3867 117.796 89.595 115.699 82.9041H140.2L137.327 93.6402C136.578 93.992 136.084 94.266 135.997 94.4067C135.546 95.1394 122.381 107.735 121.381 107.735Z" fill="#99B6E4"/>
<path d="M119.882 71.2069H125.015V66.0735H119.882V71.2069Z" fill="#2B4A90"/>
<path d="M133.681 71.2069H131.178C130.452 71.2069 129.863 70.6177 129.863 69.8914V67.3891C129.863 66.6629 130.452 66.0736 131.178 66.0736H133.681C134.407 66.0736 134.997 66.6629 134.997 67.3891V69.8914C134.997 70.6177 134.407 71.2069 133.681 71.2069Z" fill="#2B4A90"/>
<path d="M142.628 71.2069H142.193C140.896 71.2069 139.844 70.1554 139.844 68.8572V68.4224C139.844 67.1251 140.896 66.0736 142.193 66.0736H142.628C143.373 66.0736 144.037 66.4208 144.468 66.9616L143.363 71.09C143.132 71.1658 142.884 71.2069 142.628 71.2069Z" fill="#2B4A90"/>
<path d="M178.944 82.9042H150.598L150.671 82.6338H179.017L178.944 82.9042ZM185.149 59.7226H156.801L156.84 59.5765H185.188L185.149 59.7226Z" fill="#537BC6"/>
<path d="M179.017 82.6338H150.67L156.8 59.7226H185.149L179.017 82.6338Z" fill="#456BBD"/>
<path d="M144.05 213.283H115.711L128.27 166.35V180.815H152.74L144.05 213.283ZM129.54 205.045C129.904 205.284 130.315 205.46 130.757 205.55L130.821 206.229H132.137L132.201 205.55C132.642 205.459 133.053 205.284 133.417 205.045L133.943 205.48L134.874 204.55L134.438 204.024C134.678 203.659 134.852 203.249 134.945 202.807L135.622 202.743V201.428L134.944 201.363C134.852 200.921 134.678 200.511 134.438 200.147L134.874 199.621L133.943 198.691L133.417 199.125C133.053 198.886 132.642 198.712 132.201 198.619L132.137 197.941H130.821L130.757 198.619C130.315 198.712 129.904 198.886 129.54 199.125L129.015 198.691L128.084 199.621L128.519 200.147C128.279 200.511 128.105 200.921 128.013 201.363L127.335 201.428L127.336 202.743L128.012 202.807C128.105 203.249 128.279 203.659 128.519 204.024L128.084 204.55L129.015 205.48L129.54 205.045ZM136.489 201.034C136.923 201.318 137.412 201.526 137.937 201.635L138.013 202.443H139.581L139.657 201.635C140.182 201.526 140.671 201.318 141.105 201.034L141.731 201.552L142.84 200.444L142.322 199.817C142.606 199.383 142.814 198.894 142.923 198.369L143.73 198.293V196.725L142.923 196.65C142.814 196.124 142.606 195.636 142.322 195.202L142.84 194.576L141.731 193.467L141.105 193.985C140.671 193.701 140.182 193.492 139.657 193.384L139.581 192.576H138.013L137.937 193.384C137.412 193.492 136.923 193.701 136.489 193.985L135.863 193.467L134.755 194.576L135.273 195.202C134.988 195.636 134.78 196.124 134.671 196.65L133.864 196.725V198.293L134.671 198.369C134.78 198.894 134.988 199.383 135.273 199.817L134.755 200.444L135.863 201.552L136.489 201.034ZM126.382 196.143C126.935 196.507 127.558 196.773 128.23 196.911L128.327 197.941H130.327L130.424 196.911C131.095 196.773 131.718 196.507 132.272 196.143L133.071 196.805L134.485 195.391L133.824 194.591C134.187 194.038 134.453 193.414 134.592 192.743L135.622 192.646V190.646L134.592 190.549C134.453 189.878 134.187 189.254 133.824 188.701L134.485 187.902L133.071 186.487L132.272 187.15C131.718 186.785 131.095 186.519 130.424 186.381L130.327 185.351H128.327L128.23 186.381C127.558 186.519 126.935 186.785 126.382 187.15L125.582 186.487L124.167 187.902L124.83 188.701C124.466 189.254 124.2 189.878 124.061 190.549L123.031 190.646V192.646L124.061 192.743C124.2 193.414 124.466 194.038 124.83 194.591L124.167 195.391L125.582 196.805L126.382 196.143ZM131.479 203.868C130.495 203.868 129.696 203.069 129.696 202.084C129.696 201.1 130.495 200.303 131.479 200.303C132.463 200.303 133.261 201.1 133.261 202.084C133.261 203.069 132.463 203.868 131.479 203.868ZM138.797 199.631C137.625 199.631 136.675 198.681 136.675 197.509C136.675 196.337 137.625 195.387 138.797 195.387C139.969 195.387 140.919 196.337 140.919 197.509C140.919 198.681 139.969 199.631 138.797 199.631ZM129.327 194.355C127.832 194.355 126.618 193.142 126.618 191.647C126.618 190.151 127.832 188.938 129.327 188.938C130.823 188.938 132.035 190.151 132.035 191.647C132.035 193.142 130.823 194.355 129.327 194.355ZM173.535 103.114H157.583L155.814 98.3854L153.742 98.8449C153.247 96.2677 150.087 89.2407 149.237 89.226C149.235 89.226 149.234 89.226 149.232 89.226C149.163 89.226 149.048 89.2452 148.892 89.2818L150.598 82.9042H178.944L173.535 103.114ZM154.444 103.114H152.657C152.536 102.942 152.476 102.74 152.476 102.538C152.476 102.28 152.574 102.022 152.772 101.825C152.968 101.628 153.227 101.529 153.484 101.529C153.743 101.529 154.001 101.628 154.199 101.825C154.392 102.019 154.485 102.269 154.484 102.52C154.483 102.693 154.438 102.865 154.351 103.021L154.444 103.114ZM149.72 103.114H145.19L145.862 100.604C146.814 100.567 147.786 100.52 148.708 100.465L148.271 100.902L148.882 101.513L150.048 101.639L149.72 103.114Z" fill="#99B6E4"/>
<path d="M152.74 180.815H128.27V166.35L145.19 103.114H149.72L149.332 104.867L159.077 108.514L153.968 103.404C153.81 103.492 153.636 103.537 153.462 103.537C153.212 103.537 152.964 103.444 152.772 103.252C152.728 103.209 152.689 103.162 152.657 103.114H154.444L159.461 108.131L157.583 103.114H173.535L168.9 120.434C165.239 124.557 162.567 129.575 161.253 135.12V110.588C161.693 110.407 162.003 109.975 162.004 109.47C162.003 108.803 161.463 108.263 160.796 108.263C160.129 108.263 159.59 108.803 159.589 109.47C159.59 109.975 159.899 110.408 160.34 110.588V141.074H158.892V144.884H159.348H160.34V152.419L152.74 180.815ZM161.593 147.736C161.458 146.797 161.362 145.847 161.307 144.884H162.357L161.593 147.736ZM162.701 143.595V141.074H161.307C161.704 134.089 164.269 127.687 168.341 122.525L162.701 143.595Z" fill="#CEDFF4"/>
<path d="M160.797 109.764C160.635 109.763 160.503 109.631 160.502 109.47C160.503 109.308 160.634 109.176 160.797 109.176C160.959 109.176 161.09 109.308 161.091 109.47C161.09 109.631 160.958 109.763 160.797 109.764Z" fill="white"/>
<path d="M160.796 110.677C160.635 110.677 160.48 110.645 160.34 110.588C159.899 110.408 159.59 109.975 159.589 109.47C159.59 108.803 160.129 108.263 160.796 108.263C161.463 108.263 162.003 108.803 162.004 109.47C162.003 109.975 161.693 110.407 161.253 110.588C161.112 110.645 160.958 110.677 160.796 110.677ZM160.796 109.176C160.634 109.176 160.503 109.308 160.502 109.47C160.503 109.631 160.635 109.763 160.796 109.764C160.958 109.763 161.09 109.631 161.091 109.47C161.09 109.308 160.959 109.176 160.796 109.176Z" fill="#537BC6"/>
<path d="M130.327 197.941H128.327L128.23 196.911C127.558 196.773 126.935 196.507 126.382 196.143L125.582 196.805L124.167 195.391L124.83 194.591C124.466 194.038 124.2 193.414 124.061 192.743L123.031 192.646V190.646L124.061 190.549C124.2 189.878 124.466 189.254 124.83 188.701L124.167 187.902L125.582 186.487L126.382 187.15C126.935 186.785 127.558 186.519 128.23 186.381L128.327 185.351H130.327L130.424 186.381C131.095 186.519 131.718 186.785 132.271 187.15L133.071 186.487L134.485 187.902L133.824 188.701C134.187 189.254 134.453 189.878 134.592 190.549L135.622 190.646V192.646L134.592 192.743C134.453 193.414 134.187 194.038 133.824 194.591L134.485 195.391L133.071 196.805L132.272 196.143C131.718 196.507 131.095 196.773 130.424 196.911L130.327 197.941ZM129.327 188.938C127.832 188.938 126.618 190.151 126.618 191.647C126.618 193.142 127.832 194.355 129.327 194.355C130.823 194.355 132.035 193.142 132.035 191.647C132.035 190.151 130.823 188.938 129.327 188.938Z" fill="#F6FAFE"/>
<path d="M139.581 202.442H138.013L137.937 201.635C137.412 201.526 136.923 201.318 136.489 201.034L135.863 201.552L134.754 200.444L135.273 199.817C134.988 199.383 134.78 198.894 134.671 198.369L133.864 198.293V196.725L134.671 196.65C134.78 196.124 134.988 195.635 135.273 195.202L134.754 194.576L135.863 193.467L136.489 193.985C136.923 193.701 137.412 193.492 137.937 193.384L138.013 192.576H139.581L139.657 193.384C140.182 193.492 140.671 193.701 141.105 193.985L141.731 193.467L142.839 194.576L142.321 195.202C142.606 195.635 142.814 196.124 142.923 196.65L143.73 196.725V198.293L142.923 198.369C142.814 198.894 142.606 199.383 142.321 199.817L142.839 200.444L141.731 201.552L141.105 201.034C140.671 201.318 140.182 201.526 139.657 201.635L139.581 202.442ZM138.797 195.387C137.625 195.387 136.675 196.337 136.675 197.509C136.675 198.681 137.625 199.631 138.797 199.631C139.969 199.631 140.919 198.681 140.919 197.509C140.919 196.337 139.969 195.387 138.797 195.387Z" fill="#D9E4F6"/>
<path d="M132.137 206.229H130.821L130.757 205.55C130.315 205.46 129.904 205.284 129.54 205.045L129.015 205.48L128.084 204.55L128.518 204.024C128.279 203.659 128.105 203.249 128.012 202.807L127.335 202.743L127.334 201.428L128.013 201.363C128.105 200.921 128.279 200.511 128.518 200.147L128.084 199.62L129.015 198.691L129.54 199.125C129.904 198.886 130.315 198.712 130.757 198.619L130.821 197.941H132.137L132.201 198.619C132.642 198.712 133.052 198.886 133.417 199.125L133.943 198.691L134.874 199.62L134.438 200.147C134.678 200.511 134.852 200.921 134.944 201.363L135.622 201.428V202.743L134.944 202.807C134.852 203.249 134.678 203.659 134.438 204.024L134.874 204.55L133.943 205.48L133.417 205.045C133.052 205.284 132.642 205.459 132.201 205.55L132.137 206.229ZM131.478 200.303C130.494 200.303 129.696 201.1 129.696 202.084C129.696 203.069 130.494 203.868 131.478 203.868C132.463 203.868 133.261 203.069 133.261 202.084C133.261 201.1 132.463 200.303 131.478 200.303Z" fill="#C3D7F1"/>
<path d="M159.077 108.514L149.332 104.867L150.047 101.64L148.882 101.513L148.271 100.902L148.708 100.465C151.308 100.306 153.511 100.066 153.747 99.7055C153.833 99.574 153.824 99.2706 153.742 98.8449L155.814 98.3854L159.461 108.131L154.351 103.021C154.438 102.866 154.483 102.693 154.484 102.52C154.485 102.269 154.392 102.019 154.199 101.825C154.001 101.628 153.743 101.529 153.484 101.529C153.227 101.529 152.968 101.628 152.772 101.825C152.574 102.022 152.476 102.28 152.476 102.538C152.476 102.797 152.574 103.055 152.772 103.252C152.963 103.444 153.212 103.537 153.462 103.537C153.636 103.537 153.81 103.492 153.968 103.405L159.077 108.514Z" fill="#57676E"/>
<path d="M211.835 113.958V82.9042H207.329L207.402 82.6338H220.219L211.835 113.958ZM226.351 59.7226H213.533L213.572 59.5765H226.389L226.351 59.7226Z" fill="#537BC6"/>
<path d="M220.219 82.6338H207.402L213.533 59.7226H226.351L224.16 67.9054H223.844V66.4574H220.034V70.267H220.49H221.481V70.6461H222.395V70.267H223.529L222.319 74.7845H221.481V77.9134L220.219 82.6338ZM223.844 69.0885V68.819H223.916L223.844 69.0885Z" fill="#456BBD"/>
<path d="M185.251 213.283H172.435L181.124 180.815H193.941L185.251 213.283ZM205.971 135.868V103.114H201.92L207.328 82.9042H211.835V113.958L205.971 135.868Z" fill="#99B6E4"/>
<path d="M221.481 77.9133V74.7844H222.319L221.481 77.9133Z" fill="white"/>
<path d="M222.395 70.646H221.481V70.2669H222.395V70.646ZM223.916 68.8189H223.844V67.9053H224.16L223.916 68.8189Z" fill="white"/>
<path d="M220.948 69.3533H222.93V67.3709H220.948V69.3533Z" fill="#537BC6"/>
<path d="M223.529 70.2668H220.034V66.4573H223.844V67.9053V68.8188V69.0883L223.529 70.2668ZM220.948 69.3533H222.93V67.3709H220.948V69.3533Z" fill="white"/>
<path d="M193.941 180.815H181.124L182.704 174.912C185.757 176.022 189.012 176.706 192.401 176.893V178.394H192.858H194.59L193.941 180.815ZM192.401 175.978C189.094 175.79 185.917 175.116 182.941 174.027L201.92 103.114H205.971V135.868L195.609 174.583H192.401V175.978Z" fill="#CEDFF4"/>
<path d="M192.401 176.893C189.012 176.706 185.757 176.022 182.704 174.912L182.941 174.027C185.917 175.116 189.094 175.79 192.401 175.978V176.893Z" fill="#537BC6"/>
<path d="M194.834 177.48H193.314V175.497H195.297V175.749L194.834 177.48Z" fill="white"/>
<path d="M194.59 178.394H192.401V174.584H195.609L195.297 175.749V175.497H193.314V177.48H194.834L194.59 178.394Z" fill="#537BC6"/>
<path d="M223.192 213.283H218.606L238.38 139.401H242.966L240.857 147.28H237.535C236.715 147.28 236.05 147.945 236.05 148.765C236.05 149.586 236.715 150.251 237.535 150.251H240.061L223.192 213.283ZM243.76 136.43H239.174L250.449 94.3073H255.035L248.696 117.99H248.357V118.904H248.452L243.76 136.43ZM257.476 85.1845H252.89L253.573 82.6338H258.159L257.476 85.1845ZM264.29 59.7227H259.704L259.743 59.5765H264.329L264.29 59.7227Z" fill="#537BC6"/>
<path d="M258.159 82.6338H253.573L259.704 59.7226H264.29L262.1 67.9054H258.012V68.819H261.856L258.159 82.6338Z" fill="#456BBD"/>
<path d="M248.452 118.904H248.357V117.99H248.696L248.452 118.904Z" fill="white"/>
<path d="M261.856 68.819H258.012V67.9054H262.1L261.856 68.819Z" fill="white"/>
<path d="M255.035 94.3073H250.448L252.89 85.1845H257.476L255.035 94.3073Z" fill="#CDDEF3"/>
<path d="M242.965 139.401H238.379L239.174 136.43H243.76L242.965 139.401Z" fill="#CDDEF3"/>
<path d="M240.061 150.251H237.535C236.715 150.251 236.05 149.586 236.05 148.765C236.05 147.945 236.715 147.28 237.535 147.28H240.857L240.061 150.251Z" fill="#CDDEF3"/>
<path d="M403.704 93.485C406.946 97.2288 423.444 129.01 420.255 136.43C417.064 143.85 390.63 135.297 390.63 135.297L392.208 124.826C392.208 124.826 402.482 125.187 403.465 124.213C404.448 123.24 389.568 108.378 389.568 108.378L403.704 93.485Z" fill="#1D2A30"/>
<path d="M419.948 136.999L419.946 136.997C420.064 136.819 420.168 136.631 420.254 136.43C421.08 134.507 420.585 130.948 419.341 126.665V126.663C420.585 130.946 421.081 134.508 420.255 136.433C420.169 136.633 420.067 136.822 419.948 136.999ZM419.112 125.898C416.808 118.343 412.363 108.78 408.749 101.937C412.364 108.779 416.808 118.339 419.112 125.896V125.898Z" fill="white"/>
<path d="M419.341 126.665C419.267 126.411 419.191 126.157 419.112 125.898V125.896C419.191 126.154 419.267 126.41 419.341 126.663V126.665Z" fill="#F3F3F2"/>
<path d="M419.946 136.997L417.238 134.462C412.125 117.471 402.432 101.782 402.432 101.782L402.43 101.783C403.769 97.9733 404.762 95.7259 404.762 95.7259C404.762 95.7259 404.683 94.827 403.727 93.516C404.635 94.5803 406.537 97.7494 408.749 101.937C412.363 108.78 416.809 118.343 419.113 125.898C419.191 126.157 419.267 126.411 419.341 126.664C420.585 130.948 421.08 134.506 420.255 136.43C420.168 136.63 420.065 136.819 419.946 136.997Z" fill="#45555C"/>
<path d="M410.531 139.405C410.17 139.385 409.805 139.359 409.437 139.329L409.436 139.328C409.804 139.359 410.17 139.384 410.531 139.404V139.405Z" fill="#CFCECC"/>
<path d="M410.532 139.404C410.171 139.384 409.804 139.359 409.436 139.328L407.292 136.371L410.532 139.404Z" fill="#364248"/>
<path d="M397.846 137.302C396.909 137.074 396.028 136.847 395.224 136.632C395.224 136.631 395.223 136.63 395.223 136.629C396.026 136.844 396.907 137.07 397.844 137.299L397.846 137.302Z" fill="#CFCECC"/>
<path d="M397.844 137.299C396.907 137.07 396.026 136.843 395.223 136.629C394.871 135.838 394.501 135.049 394.109 134.262L395.516 134.315L395.517 134.313C395.522 134.244 395.525 134.177 395.53 134.108L397.844 137.299Z" fill="#364248"/>
<path d="M417.238 134.462L398.149 116.591C399.513 110.609 401.134 105.466 402.43 101.783L402.432 101.782C402.432 101.782 412.125 117.472 417.238 134.462Z" fill="#364248"/>
<path d="M370.369 92.4435C368.539 93.7718 367.638 95.6528 368.358 96.6459L416.633 163.203C417.353 164.195 419.421 163.924 421.252 162.596C423.084 161.267 423.984 159.385 423.264 158.392L374.989 91.836C374.269 90.8429 372.201 91.1152 370.369 92.4435Z" fill="#1D2A30"/>
<path d="M416.636 163.2L395.53 134.101C395.596 133.067 395.679 132.041 395.776 131.021L417.813 160.625C417.235 161.826 416.238 162.652 416.636 163.2ZM417.733 159.796L395.912 129.71C396.043 128.506 396.196 127.316 396.365 126.141L407.284 136.364L423.262 158.393C423.43 158.626 423.509 158.907 423.509 159.219C423.509 158.907 423.43 158.626 423.262 158.393C422.97 157.992 422.455 157.797 421.824 157.797C420.901 157.797 419.73 158.213 418.646 158.999C418.305 159.247 418.006 159.52 417.733 159.796Z" fill="#BDC1C2"/>
<path d="M418.075 163.798C417.443 163.798 416.928 163.602 416.636 163.2C416.238 162.651 417.235 161.826 417.813 160.625L395.777 131.02C395.786 130.924 395.795 130.829 395.805 130.734C395.839 130.391 395.874 130.05 395.912 129.71L417.733 159.796C418.006 159.52 418.305 159.247 418.646 158.999C419.73 158.212 420.901 157.797 421.824 157.797C422.455 157.797 422.97 157.991 423.262 158.393C423.43 158.626 423.509 158.907 423.509 159.219C423.507 160.237 422.651 161.58 421.252 162.594C420.164 163.383 418.996 163.798 418.075 163.798Z" fill="#7F8486"/>
<path d="M364.391 90.5964C362.845 92.2481 362.318 94.2662 363.213 95.1048L423.234 151.298C424.13 152.136 426.109 151.477 427.655 149.825C429.201 148.174 429.729 146.156 428.834 145.318L368.812 89.1246C367.916 88.286 365.938 88.9456 364.391 90.5964Z" fill="#4870C0"/>
<path d="M423.237 151.294L396.365 126.136C396.482 125.327 396.607 124.525 396.739 123.732L423.905 148.543C423.565 149.832 422.744 150.832 423.237 151.294ZM423.669 147.744L396.915 122.696C397.286 120.588 397.703 118.545 398.148 116.593L428.831 145.319C429.126 145.594 429.266 146 429.266 146.478C429.266 146 429.126 145.594 428.831 145.319C428.568 145.072 428.212 144.956 427.799 144.956C426.809 144.956 425.502 145.626 424.414 146.789C424.126 147.095 423.885 147.42 423.669 147.744Z" fill="#C7D9F2"/>
<path d="M424.272 151.658C423.858 151.658 423.5 151.541 423.237 151.294C422.744 150.832 423.565 149.832 423.905 148.542L396.739 123.732C396.796 123.385 396.855 123.04 396.915 122.696L423.669 147.744C423.885 147.42 424.126 147.095 424.414 146.788C425.502 145.626 426.809 144.956 427.799 144.956C428.212 144.956 428.568 145.072 428.831 145.319C429.126 145.594 429.266 146 429.266 146.478C429.266 147.448 428.688 148.72 427.654 149.823C426.564 150.989 425.259 151.658 424.272 151.658Z" fill="#8394B7"/>
<path d="M378.816 269.932L374.24 270.005C369.59 248.161 366.301 221.129 364.254 200.74C363.935 197.542 363.642 194.517 363.386 191.694C363.268 190.352 363.149 189.063 363.039 187.821C362.491 181.691 362.117 176.832 361.888 173.826C361.724 171.633 361.642 170.427 361.642 170.427H378.177L378.022 174.638L377.51 188.543L377.455 190.132L377.108 199.314L376.533 214.945C382.206 236.952 378.816 269.932 378.816 269.932Z" fill="#F9A95E"/>
<path d="M415.907 268.763L411.403 269.612C402.386 247.074 393.917 218.216 388.409 198.053C387.559 194.928 386.773 192.005 386.07 189.357C386.033 189.219 386.006 189.092 385.969 188.963C384.581 183.701 383.512 179.508 382.845 176.849C382.334 174.766 382.05 173.624 382.05 173.624L398.348 170.811L399.271 177.662L400.632 187.731L400.897 189.704L401.82 196.564L404.295 214.963C413.632 235.683 415.907 268.763 415.907 268.763Z" fill="#F9A95E"/>
<path d="M386.07 189.357C386.033 189.219 386.006 189.092 385.969 188.963C385.643 187.726 385.334 186.548 385.044 185.436L400.063 183.518L400.632 187.731L386.07 189.357Z" fill="#CA8849"/>
<path d="M363.386 191.694C363.267 190.352 363.149 189.063 363.039 187.821C362.971 187.05 362.904 186.299 362.841 185.57L377.591 186.344L377.51 188.543L377.455 190.132L363.386 191.694Z" fill="#CA8849"/>
<path d="M365.304 285.115C366.156 284.425 367.126 283.897 368.168 283.557C368.168 283.557 371.283 280.467 372.782 271.164L376.86 270.101C378.278 269.756 379.761 270.334 380.57 271.55C380.684 271.713 380.771 271.894 380.83 272.084C381.04 273.082 381.185 274.092 381.265 275.108C381.676 278.256 381.324 285.325 381.324 285.325H380.588L380.293 278.91C380.185 276.732 378.518 279.287 378.042 281.632C377.564 283.976 376.551 286.473 371.777 286.589C366.208 286.698 363.897 286.48 365.304 285.115Z" fill="#1D2A30"/>
<path d="M380.713 271.624C380.981 269.446 381.065 265.662 381.065 265.662L372.004 266.667C372.004 266.667 373.1 270.971 372.197 274.203C376.76 273.006 380.713 271.624 380.713 271.624Z" fill="#1D2A30"/>
<path d="M402.174 285.115C403.026 284.425 403.997 283.897 405.038 283.557C405.038 283.557 408.153 280.467 409.653 271.164L413.731 270.101C415.149 269.756 416.63 270.334 417.441 271.55C417.554 271.713 417.642 271.894 417.7 272.084C417.91 273.082 418.055 274.092 418.136 275.108C418.546 278.256 418.194 285.325 418.194 285.325H417.457L417.164 278.91C417.055 276.732 415.389 279.287 414.911 281.632C414.434 283.976 413.421 286.473 408.648 286.589C403.079 286.698 400.767 286.48 402.174 285.115Z" fill="#1D2A30"/>
<path d="M417.583 271.624C417.851 269.446 417.934 265.662 417.934 265.662L408.874 266.667C408.874 266.667 409.971 270.971 409.066 274.203C413.63 273.006 417.583 271.624 417.583 271.624Z" fill="#1D2A30"/>
<path d="M402.204 183.244L384.965 185.447L384.298 185.528L380.753 172.538L379.821 186.461L361.349 185.491C353.118 137.192 367.187 125.781 367.187 125.781L392.246 130.824C403.595 150.115 400.894 172.539 400.894 172.539L402.204 183.244Z" fill="#4870C0"/>
<path d="M378.473 65.6051H378.244C378.244 66.5195 378.039 67.3445 377.722 67.9227C377.401 68.5074 376.989 68.8135 376.593 68.8098C376.197 68.8135 375.785 68.5074 375.465 67.9227C375.147 67.3445 374.942 66.5195 374.943 65.6051C374.942 64.6906 375.147 63.8656 375.465 63.2864C375.785 62.7027 376.197 62.3957 376.593 62.4003C376.989 62.3957 377.401 62.7027 377.722 63.2864C378.039 63.8656 378.244 64.6906 378.244 65.6051H378.473H378.701C378.7 64.623 378.484 63.7314 378.123 63.0672C377.763 62.4094 377.235 61.9472 376.593 61.9435C375.952 61.9472 375.424 62.4094 375.064 63.0672C374.701 63.7314 374.487 64.623 374.486 65.6051C374.487 66.5871 374.701 67.4779 375.064 68.142C375.424 68.8007 375.952 69.2629 376.593 69.2666C377.235 69.2629 377.763 68.8007 378.123 68.142C378.484 67.4779 378.7 66.5871 378.701 65.6051H378.473Z" fill="#1D2A30"/>
<path d="M390.847 77.1104L390.629 77.2693C389.615 77.9901 388.451 78.6808 387.129 78.9813C383.427 79.8355 380.898 79.3294 379.248 77.6549H379.24C376.929 75.1426 376.35 70.6917 376.678 65.3236C376.82 62.8616 377.172 60.7193 377.85 59.053L377.867 58.958L377.959 58.7305C378.972 56.4027 380.655 54.8945 383.344 54.2577C384.273 54.0403 385.328 53.9179 386.517 53.9014C396.985 53.7927 398.87 71.1311 390.847 77.1104Z" fill="#F9A95E"/>
<path d="M384.1 79.2152C381.986 79.2152 380.402 78.5501 379.249 77.3616C380.032 77.5352 380.932 77.6612 381.894 77.6612C382.864 77.6612 383.897 77.5324 384.935 77.1917C384.921 77.8129 384.868 78.4953 384.746 79.1951C384.526 79.2088 384.311 79.2152 384.1 79.2152Z" fill="#CA8849"/>
<path d="M391.693 86.7238C392.337 89.7057 388.477 90.9198 388.477 90.9198C382.163 88.223 380.991 84.8648 380.991 84.8648C386.258 82.1186 384.734 74.3469 384.734 74.3469L385.806 74.8741L393.327 76.3458C393.327 76.3458 391.241 80.3508 390.965 81.2644L390.956 81.2891C389.541 86.0624 391.693 86.7238 391.693 86.7238Z" fill="#F9A95E"/>
<path d="M377.846 58.9836C377.846 58.9836 377.269 66.3249 384.226 69.4776C384.226 69.4776 387.213 77.1031 391.611 77.2109C397.606 77.358 402.89 68.8272 400.812 60.1383C398.119 48.8705 381.049 47.9551 377.846 58.9836Z" fill="#1D2A30"/>
<path d="M380.703 67.3701C380.705 66.2254 381.625 64.3014 383.406 64.5627C385.248 64.8331 386.268 69.3744 381.741 70.3885C381.091 70.5346 380.697 69.759 380.703 67.3701Z" fill="#F9A95E"/>
<path d="M390.629 51.1818C390.629 51.1818 383.626 49.4113 379.755 52.2269C375.234 55.5148 373.52 58.9178 378.873 64.1973C378.873 64.1973 390.631 60.3859 394.54 61.1926C398.449 62.0001 401.244 63.1394 401.244 63.1394C402.066 55.3741 394.54 49.5949 390.629 51.1818Z" fill="#1D2A30"/>
<path d="M380.703 65.6023C380.703 65.6023 382.574 74.0683 379.66 81.2781C379.66 81.2781 396.285 87.0463 402.067 83.9137C407.849 80.7811 402.549 70.2624 402.309 64.1973C402.067 58.1331 399.431 49.1701 390.63 51.1818C381.828 53.1934 380.703 65.6023 380.703 65.6023Z" fill="#1D2A30"/>
<path d="M374.714 65.2917H381.738C381.864 65.2917 381.966 65.1894 381.966 65.0634C381.966 64.9373 381.864 64.835 381.738 64.835H374.714C374.588 64.835 374.486 64.9373 374.486 65.0634C374.486 65.1894 374.588 65.2917 374.714 65.2917Z" fill="#1D2A30"/>
<path d="M384.298 185.528L380.753 172.538C380.753 172.538 388.354 159.556 385.978 152.795C386.317 153.271 394.502 165.412 384.964 185.447L384.298 185.528Z" fill="#395EB4"/>
<path d="M370.731 86.0687C370.731 86.0687 379.09 83.0869 391.693 86.7238C404.294 90.3616 404.758 95.7287 404.758 95.7287C404.758 95.7287 396.773 113.825 395.517 134.313L362.682 133.086C362.682 133.086 358.765 104.171 370.731 86.0687Z" fill="#1D2A30"/>
<path d="M395.516 134.315L394.109 134.262L394.108 134.26L395.517 134.313C395.516 134.315 395.516 134.315 395.516 134.315Z" fill="#5D686F"/>
<path d="M394.109 134.262L362.683 133.09C362.683 133.09 362.683 133.089 362.682 133.086L394.107 134.26L394.109 134.262Z" fill="#658ACF"/>
<path d="M403.702 93.4868C403.598 93.3452 403.482 93.1981 403.355 93.0464C403.356 93.0455 403.356 93.0446 403.356 93.0437C403.483 93.1954 403.598 93.3425 403.704 93.4859C403.704 93.485 403.704 93.485 403.704 93.485L403.702 93.4868Z" fill="white"/>
<path d="M403.727 93.5161C403.719 93.5067 403.712 93.4983 403.704 93.4899C403.704 93.4889 403.703 93.4871 403.702 93.4861L403.704 93.4842C403.712 93.4955 403.719 93.5058 403.727 93.5161Z" fill="#45555C"/>
<path d="M402.427 101.783C403.767 97.976 404.758 95.7287 404.758 95.7287C404.758 95.7287 404.679 94.8169 403.705 93.4904C403.712 93.4987 403.719 93.5069 403.727 93.516C404.683 94.827 404.762 95.7259 404.762 95.7259C404.762 95.7259 403.77 97.9733 402.43 101.783H402.427Z" fill="#6A797F"/>
<path d="M398.149 116.591L398.147 116.589C399.511 110.608 401.132 105.466 402.427 101.783H402.43C401.134 105.466 399.513 110.609 398.149 116.591Z" fill="#5D686F"/>
<path d="M395.912 129.71V129.71C396.043 128.506 396.195 127.315 396.364 126.141H396.365C396.196 127.316 396.043 128.506 395.912 129.71Z" fill="#CBCFCF"/>
<path d="M395.805 130.734C395.839 130.392 395.875 130.05 395.912 129.709V129.71C395.875 130.05 395.839 130.391 395.805 130.734Z" fill="#999D9D"/>
<path d="M396.365 126.141H396.364C396.364 126.138 396.364 126.137 396.365 126.136C396.365 126.138 396.365 126.139 396.365 126.141ZM398.148 116.593L398.147 116.591V116.589L398.149 116.591L398.148 116.593Z" fill="#658ACF"/>
<path d="M396.365 126.136C396.481 125.326 396.606 124.524 396.738 123.731L396.739 123.732C396.607 124.525 396.482 125.327 396.365 126.136ZM396.915 122.696L396.914 122.695C397.284 120.586 397.702 118.544 398.147 116.591L398.148 116.593C397.703 118.545 397.286 120.588 396.915 122.696Z" fill="#D4E1F5"/>
<path d="M396.739 123.732L396.738 123.731C396.795 123.384 396.854 123.039 396.914 122.695L396.915 122.696C396.855 123.04 396.796 123.385 396.739 123.732Z" fill="#9FABC6"/>
<path d="M395.517 134.313L394.107 134.26L362.682 133.086C362.665 132.952 362.134 128.959 362.08 123.077C368.82 118.014 370.236 109.84 370.274 109.616C370.274 109.616 370.275 109.616 370.275 109.616C370.275 109.616 372.833 103.213 372.835 95.9882C372.836 92.6747 372.299 89.1885 370.731 86.0687C370.76 86.0587 373.888 84.9533 379.182 84.9213C379.201 85.0583 382.127 105.785 391.335 106.625C391.58 106.648 391.822 106.659 392.059 106.659C398.826 106.659 402.677 97.8536 403.355 93.0465C403.482 93.1981 403.597 93.3452 403.702 93.4868C403.702 93.4877 403.703 93.4896 403.704 93.4905C404.679 94.817 404.758 95.7287 404.758 95.7287C404.758 95.7287 403.766 97.9761 402.427 101.783C401.132 105.466 399.511 110.608 398.147 116.589V116.591C397.701 118.544 397.284 120.586 396.914 122.695C396.854 123.039 396.795 123.384 396.738 123.731C396.606 124.524 396.481 125.326 396.365 126.136C396.364 126.137 396.364 126.138 396.364 126.141C396.195 127.315 396.043 128.506 395.912 129.709C395.874 130.05 395.839 130.392 395.805 130.734C395.687 131.917 395.59 133.112 395.516 134.315" fill="#45555C"/>
<path d="M362.08 123.077C362.076 122.702 362.074 122.319 362.074 121.929C362.074 119.326 362.17 116.399 362.435 113.303C366.9 111.435 370.201 109.656 370.274 109.616C370.236 109.84 368.82 118.014 362.08 123.077Z" fill="#364248"/>
<path d="M334.001 85.496L329.862 79.3551C329.862 79.3551 329.225 76.6884 328.429 76.0799C327.633 75.4706 319.672 72.095 318.717 72.1105C317.762 72.127 317.762 78.3045 318.717 79.3551C319.672 80.4057 324.687 82.6557 326.001 82.8841C327.315 83.1125 326.677 82.8841 326.677 82.8841L330.339 90.1853L334.001 85.496Z" fill="#F9A95E"/>
<path d="M370.732 86.0687C370.732 86.0687 359.212 90.6027 345.131 99.2761L331.773 81.0506C331.773 81.0506 328.165 82.1697 326.837 88.4339C326.837 88.4339 333.7 114.575 342.615 117.165C351.529 119.755 370.276 109.616 370.276 109.616C370.276 109.616 375.719 95.9909 370.732 86.0687Z" fill="#1D2A30"/>
<path d="M345.981 117.589C345.37 117.589 344.78 117.556 344.217 117.487C343.655 117.418 343.119 117.313 342.615 117.165C333.7 114.576 326.837 88.434 326.837 88.434C328.165 82.1698 331.773 81.0507 331.773 81.0507L345.131 99.2762C359.212 90.6028 370.732 86.0688 370.732 86.0688C372.299 89.1886 372.836 92.6748 372.835 95.9883C372.834 103.213 370.276 109.616 370.276 109.616C370.276 109.616 370.275 109.616 370.274 109.616C370.201 109.656 366.9 111.435 362.436 113.303H362.435C357.443 115.391 350.997 117.589 345.981 117.589Z" fill="#45555C"/>
<path d="M379.182 84.9204C379.182 84.9204 382.097 105.783 391.335 106.625C400.572 107.467 404.706 92.0563 403.141 90.1853C401.574 88.3134 389.678 84.7807 379.182 84.9204Z" fill="#1D2A30"/>
<path d="M392.059 106.658C391.822 106.658 391.58 106.647 391.335 106.625C382.097 105.782 379.182 84.9203 379.182 84.9203C379.384 84.9176 379.588 84.9166 379.792 84.9166C390.133 84.9166 401.604 88.3498 403.141 90.1852C403.358 90.4446 403.465 90.9653 403.465 91.667C403.46 95.8867 399.543 106.658 392.059 106.658Z" fill="#5D6C72"/>
<path d="M50.5767 276.844H57.3413L57.9005 261.173H51.1276L50.5767 276.844Z" fill="#CE6858"/>
<path d="M58.279 276.062H50.0605C49.7835 276.062 49.5441 276.255 49.4838 276.526L48.1503 282.55C48.0361 283.088 48.3808 283.618 48.9199 283.733L49.1398 283.755C51.7991 283.712 53.7354 283.548 57.0742 283.548C59.1312 283.548 65.3355 283.764 68.1758 283.764C71.0153 283.764 71.3856 280.957 70.2238 280.7C65.0086 279.563 61.0846 277.988 59.4148 276.492C59.1054 276.207 58.6986 276.053 58.279 276.062Z" fill="#1D2A30"/>
<path d="M59.2083 276.775C59.9977 277.042 60.8592 276.999 61.6178 276.654C61.7798 276.509 61.8609 276.295 61.833 276.079C61.8244 275.949 61.7727 275.889 61.7299 275.889L61.5232 275.846C60.6997 276.005 59.9134 276.32 59.2083 276.775ZM58.744 276.999L58.623 276.862L58.7009 276.707C58.9418 276.551 61.1278 275.209 61.8762 275.597C62.0485 275.678 62.1563 275.853 62.1513 276.043C62.1966 276.37 62.07 276.695 61.8158 276.905C61.4348 277.164 60.9762 277.286 60.5166 277.249C59.9185 277.231 59.3239 277.147 58.744 276.999Z" fill="#4870C0"/>
<path d="M59.785 274.401C59.3093 275.008 59.0299 275.746 58.9849 276.517C59.6815 275.992 60.5426 274.865 60.4566 274.426C60.4477 274.383 60.4305 274.262 60.224 274.262H60.1465C60.0134 274.263 59.8849 274.312 59.785 274.401ZM58.7009 277.034L58.623 276.887C58.632 276.792 58.7954 274.848 59.5784 274.212C59.765 274.047 60.0127 273.972 60.2586 274.004C60.5091 274.003 60.7253 274.18 60.7749 274.426C60.9123 275.14 59.5613 276.629 58.8643 277.008H58.7869L58.7009 277.034Z" fill="#4870C0"/>
<path d="M50.8432 269.263H50.835L50.8857 267.862H50.8924L50.8432 269.263Z" fill="#CECDCC"/>
<path d="M57.6079 269.263H50.8433L50.8925 267.862H57.6586L57.6079 269.263Z" fill="#A25245"/>
<path d="M85.4121 277.353L92.3937 278.091L93.7038 263.033L86.7224 262.296L85.4121 277.353Z" fill="#CE6858"/>
<path d="M93.1319 275.846H84.9135C84.6366 275.848 84.3972 276.04 84.3369 276.31L83.0033 282.334C82.8891 282.874 83.2339 283.404 83.7731 283.518L83.9929 283.54C86.6522 283.497 88.5885 283.332 91.9269 283.332C93.9843 283.332 100.189 283.548 103.029 283.548C105.869 283.548 106.239 280.742 105.077 280.485C99.8621 279.349 95.9375 277.773 94.2684 276.276C93.9587 275.992 93.5522 275.838 93.1319 275.846Z" fill="#1D2A30"/>
<path d="M94.0617 276.56C94.851 276.827 95.7125 276.784 96.4707 276.44C96.6333 276.295 96.7137 276.079 96.6863 275.863C96.6772 275.734 96.626 275.673 96.5831 275.673L96.3766 275.631C95.5526 275.789 94.7669 276.105 94.0617 276.56ZM93.5967 276.784L93.4761 276.646L93.5537 276.492C93.7949 276.336 95.9811 274.993 96.7293 275.382C96.901 275.463 97.0088 275.639 97.0042 275.829C97.0499 276.155 96.9229 276.48 96.669 276.689C96.2871 276.949 95.8294 277.07 95.3699 277.034C94.7715 277.016 94.1768 276.932 93.5967 276.784Z" fill="#4870C0"/>
<path d="M94.6381 274.185C94.1622 274.793 93.8826 275.532 93.8378 276.303C94.5349 275.776 95.3955 274.65 95.3096 274.212C95.3004 274.168 95.2831 274.047 95.0766 274.047H94.999C94.8665 274.048 94.7377 274.097 94.6381 274.185ZM93.5537 276.818L93.4761 276.672C93.4852 276.577 93.6478 274.633 94.4317 273.995C94.618 273.832 94.8656 273.757 95.1113 273.789C95.3617 273.789 95.5782 273.965 95.6275 274.212C95.7654 274.925 94.4143 276.414 93.7172 276.792H93.6396L93.5537 276.818Z" fill="#4870C0"/>
<path d="M86.0465 270.062H86.0408L86.4069 265.89L86.4098 265.891L86.0465 270.062Z" fill="#CECDCC"/>
<path d="M93.0223 270.8L86.0466 270.062L86.4099 265.891L93.3777 266.755L93.0223 270.8Z" fill="#A25245"/>
<path d="M53.9203 123.717H89.8271C93.2414 142.36 103.927 208.331 96.2607 267.112L84.1048 265.605C84.1048 265.605 85.2303 187.571 74.4978 158.722C73.2631 174.161 71.7978 190.588 70.5246 199.33C67.4006 220.844 60.7142 267.862 60.7142 267.862H48.3394C48.3394 267.862 50.8691 222.858 52.04 201.713C53.3186 178.758 53.8714 128.43 53.9203 123.717Z" fill="#1D2A30"/>
<path d="M97.6512 269.944L82.6057 267.705L83.0661 263.54L98.7164 265.594L97.6512 269.944Z" fill="#4870C0"/>
<path d="M62.2034 267.963H47.6074V263.6L62.754 263.316L62.2034 267.963Z" fill="#4870C0"/>
<path d="M78.5111 174.257C77.4009 168.285 76.0841 162.977 74.5007 158.724L75.4992 145.948C75.4992 145.948 79.5153 160.519 78.5111 174.257Z" fill="#182124"/>
<path d="M52.9062 129.965L52.0864 134.303C52.0864 134.303 77.2111 137.556 92.8414 137.465L92.2997 134.483L52.9062 129.965Z" fill="#4870C0"/>
<path d="M103.906 92.3906C103.906 92.3906 112.599 119.788 118.541 121.58C124.482 123.371 139.596 100.762 139.596 100.762C139.596 100.762 153.141 100.63 153.747 99.7054C154.354 98.7809 150.228 89.2434 149.237 89.226C148.247 89.2087 136.455 93.6641 135.997 94.4068C135.539 95.1504 122.007 108.092 121.346 107.727C120.686 107.363 115.57 91.0595 115.57 91.0595L103.906 92.3906Z" fill="#CE6858"/>
<path d="M141.325 99.3245C141.442 99.2998 141.549 99.2751 141.65 99.2413L141.491 99.1418L141.325 99.3245Z" fill="#CE6858"/>
<path d="M98.9731 89.2269L100.033 91.1792L104.981 100.324L106.007 102.209L119.882 97.3868C119.882 97.3868 114.116 75.8442 112.114 73.6416L98.9731 89.2269Z" fill="#4870C0"/>
<path d="M106.007 102.209L104.981 100.324C107.254 95.8529 107.344 90.1569 107.243 87.5359C108.627 83.9109 109.714 80.8587 110.506 78.5474C110.805 77.6768 111.063 76.9121 111.28 76.2617C111.839 74.5679 112.114 73.6416 112.114 73.6416C114.116 75.8442 119.882 97.3868 119.882 97.3868L117.83 98.1003L107.21 101.791L106.007 102.209Z" fill="#8DAEE0"/>
<path d="M104.981 100.324L103.333 97.2818C104.83 93.7199 106.132 90.4438 107.243 87.536C107.344 90.157 107.254 95.853 104.981 100.324Z" fill="#678ACF"/>
<path d="M112.112 73.6398C112.112 73.6398 104.816 64.136 91.2139 63.4965C77.6119 62.8579 73.3414 64.2109 68.37 68.649C61.1082 75.1307 52.0864 130.996 52.0864 130.996C52.0864 130.996 71.0849 136.871 92.8478 135.43C92.8478 135.43 93.0113 119.924 97.9171 109.47C107.458 89.141 112.112 73.6398 112.112 73.6398Z" fill="#4870C0"/>
<path d="M92.4767 135.458L92.4758 135.454C92.5992 135.446 92.7243 135.438 92.8477 135.43C92.8477 135.43 92.8705 133.218 93.1637 129.903C93.1437 130.137 93.1245 130.365 93.1071 130.587C92.8659 133.524 92.8486 135.433 92.8486 135.433C92.7252 135.441 92.6001 135.449 92.4767 135.458Z" fill="white"/>
<path d="M85.8576 135.659C79.2491 135.659 73.0893 135.076 67.8895 134.322C73.0839 135.075 79.2347 135.657 85.8363 135.658C88.0078 135.658 90.2253 135.595 92.4758 135.454L92.4768 135.458C90.2335 135.596 88.0224 135.659 85.8576 135.659ZM67.8635 134.318C67.8595 134.317 67.8556 134.316 67.8513 134.316C67.8556 134.316 67.8595 134.317 67.8635 134.318Z" fill="#8DAEE0"/>
<path d="M52.6785 131.17C52.2874 131.058 52.0825 130.995 52.0825 130.995C52.0825 130.995 52.2496 129.977 52.5504 128.192C52.9837 125.63 53.7095 121.499 54.6359 116.561C55.2868 113.131 56.0291 109.311 56.8474 105.372C57.1724 103.812 57.5061 102.227 57.8484 100.641C58.0735 99.6067 58.3072 98.5634 58.5406 97.5293C58.8312 96.2439 59.1277 94.9649 59.4289 93.6978C59.1277 94.9649 58.8312 96.2439 58.5406 97.5293C58.3072 98.5634 58.0735 99.6067 57.8484 100.641C57.8497 100.641 57.8519 100.64 57.8533 100.639C54.5085 115.996 52.0865 130.996 52.0865 130.996C52.0865 130.996 52.2899 131.059 52.6785 131.169V131.17Z" fill="white"/>
<path d="M54.3661 131.629C53.633 131.438 53.0649 131.28 52.6785 131.17V131.169C53.0643 131.28 53.6327 131.438 54.3661 131.629Z" fill="#8DAEE0"/>
<path d="M93.3091 128.397C93.4388 127.154 93.6042 125.801 93.8161 124.381C93.7439 124.869 93.6772 125.351 93.6169 125.822C93.4973 126.719 93.395 127.582 93.3091 128.397Z" fill="white"/>
<path d="M112.11 73.6462C112.112 73.6426 112.112 73.6398 112.112 73.6398V73.6444L112.11 73.6462ZM112.112 73.6398C112.112 73.6398 111.628 73.0095 110.677 72.0621C111.599 72.9793 112.079 73.5969 112.112 73.6398Z" fill="#DEEAF8"/>
<path d="M112.112 73.6444V73.6388C112.114 73.6399 112.114 73.641 112.114 73.641L112.112 73.6444Z" fill="#E3ECF9"/>
<path d="M110.506 78.5474C111.544 75.5189 112.075 73.7612 112.11 73.6461L112.114 73.6416C112.114 73.6416 111.839 74.5679 111.28 76.2616C111.063 76.9121 110.805 77.6767 110.506 78.5474Z" fill="#BBD2EF"/>
<path d="M110.632 72.0173C109.456 70.8525 107.589 69.2255 105.06 67.7026C107.591 69.2255 109.459 70.8535 110.632 72.0173Z" fill="#DEEAF8"/>
<path d="M89.9592 63.4426C89.4032 63.4207 88.8618 63.4024 88.3384 63.3878C88.8629 63.4024 89.4029 63.4198 89.9596 63.4417C89.9592 63.4426 89.9592 63.4426 89.9592 63.4426Z" fill="white"/>
<path d="M88.3383 63.3878C88.1038 63.3814 87.8722 63.376 87.6438 63.3705C87.8722 63.376 88.1034 63.3814 88.3383 63.3878Z" fill="#EFEFEF"/>
<path d="M85.8364 135.658C79.2348 135.657 73.084 135.075 67.8896 134.322C67.8803 134.32 67.8728 134.319 67.8636 134.318C67.8597 134.318 67.8557 134.317 67.8514 134.317C61.7699 133.432 57.0029 132.316 54.3661 131.629C53.6327 131.438 53.0643 131.28 52.6785 131.169C52.2899 131.059 52.0864 130.996 52.0864 130.996C52.0864 130.996 54.5085 115.996 57.8533 100.639C66.3312 97.1138 73.064 82.7407 73.2782 82.2803C75.4922 79.2902 76.7622 74.421 76.7629 70.1766C76.7637 67.9931 76.4286 65.9751 75.7137 64.4622C75.7137 64.4622 75.577 64.4723 75.3241 64.5079C77.8935 63.7086 81.0802 63.3477 85.5752 63.3477C86.2357 63.3477 86.9248 63.3559 87.6439 63.3705C87.8723 63.376 88.1038 63.3815 88.3384 63.3879C88.8618 63.4025 89.4032 63.4208 89.9592 63.4427C89.7529 63.662 89.5442 63.8684 89.3319 64.0603C87.0347 64.19 85.2016 64.6029 85.3903 65.3566C85.6069 66.2327 87.8013 68.9277 90.8217 70.922C92.4157 71.9817 94.2337 72.8405 96.1192 73.1328C96.6984 73.2242 97.2402 73.2653 97.7454 73.2653C102.005 73.2653 103.72 70.3072 103.854 69.0611C103.943 68.1896 101.791 66.716 99.2628 65.6151C99.2664 65.5631 99.2728 65.5101 99.282 65.458C99.3066 65.321 99.3359 65.1849 99.3697 65.0487C101.535 65.7896 103.434 66.7251 105.06 67.7026C107.589 69.2255 109.456 70.8526 110.632 72.0174C110.637 72.0219 110.641 72.0265 110.646 72.032C110.657 72.042 110.667 72.0521 110.677 72.0621C111.628 73.0095 112.112 73.6399 112.112 73.6399C112.112 73.6399 112.112 73.6426 112.11 73.6463C112.075 73.7614 111.544 75.519 110.506 78.5475C110.218 79.3852 109.892 80.3198 109.528 81.343C108.861 83.2204 108.059 85.4065 107.125 87.8429C105.823 91.2377 104.263 95.1258 102.444 99.373C101.577 101.392 100.65 103.503 99.6657 105.673C99.0983 106.916 98.5146 108.184 97.9135 109.469C96.8373 111.754 95.9859 114.291 95.319 116.852C95.0431 117.929 94.7937 119.005 94.5762 120.073C94.2738 121.542 94.0217 122.992 93.8162 124.381C93.6042 125.801 93.4389 127.154 93.3091 128.397C93.2543 128.92 93.2059 129.424 93.1639 129.903C92.8706 133.219 92.8478 135.43 92.8478 135.43C92.7244 135.438 92.5993 135.446 92.476 135.454C90.2254 135.595 88.0079 135.658 85.8364 135.658ZM80.2826 82.6338C80.2826 82.6338 73.0544 100.059 71.6092 114.515L91.0701 116.999C91.0701 116.999 99.8091 93.4604 101.612 86.0981C101.612 86.0981 86.0655 84.5423 80.2826 82.6338Z" fill="#8DAEE0"/>
<path d="M80.2825 82.6338C80.2825 82.6338 73.0544 100.059 71.6091 114.515L91.07 116.999C91.07 116.999 99.809 93.4604 101.611 86.098C101.611 86.098 86.0655 84.5422 80.2825 82.6338Z" fill="#4870C0"/>
<path d="M98.5336 88.5847L97.811 86.7777L100.522 87.0481L98.5336 88.5847Z" fill="#8DAEE0"/>
<path d="M87.2148 65.3839C88.6851 69.5881 94.1586 71.5047 97.0299 71.7477C101.059 72.0885 102.233 68.9285 102.233 68.9285C102.233 68.9285 98.9594 67.2987 99.2819 65.4579C99.4719 64.3854 99.9798 63.3393 100.634 62.3335C100.971 61.8018 101.357 61.2866 101.755 60.7878L96.5028 49.5309C95.3271 54.444 91.7377 63.8126 87.2148 65.3839Z" fill="#CE6858"/>
<path d="M99.282 65.458C97.9235 64.4567 95.8041 62.3209 95.4697 59.286C95.5529 59.3829 95.6278 59.4678 95.6935 59.5409C95.9457 60.015 96.2435 60.4828 96.5925 60.9505C97.5207 62.2076 98.648 63.1065 99.8722 63.6802C99.5953 64.2631 99.3889 64.856 99.282 65.458Z" fill="#A25245"/>
<path d="M113.907 40.1341C113.907 40.1341 115.587 49.4131 110.743 53.1377C105.897 56.8622 105.406 39.5137 105.406 39.5137L113.907 40.1341Z" fill="#CE6858"/>
<path d="M113.639 48.4128C113.593 44.7696 112.869 41.3793 111.109 39.9304L113.907 40.1342C113.907 40.1342 114.188 41.6881 114.188 43.7793C114.189 45.1834 114.062 46.8315 113.639 48.4128Z" fill="#763C33"/>
<path d="M96.5925 60.9504C99.0892 64.3323 103.029 65.1244 106.397 63.9532C108.562 63.2032 110.49 61.6337 111.649 59.4229C111.805 59.1342 111.943 58.8291 112.071 58.5157C114.345 52.7521 114.857 38.6796 108.71 39.2049C107.443 39.3136 106.181 39.2963 104.962 39.278C101.337 39.225 98.087 39.1729 96.1631 42.4352C95.4231 43.6704 94.9974 45.069 94.9006 46.5097C94.3497 53.1888 93.7111 57.0897 96.5925 60.9504Z" fill="#CE6858"/>
<path d="M104.707 49.7922C104.594 50.322 104.851 50.8081 105.21 50.8583C105.569 50.9086 105.91 50.5066 105.989 49.9694C106.069 49.4322 105.838 48.9508 105.487 48.9033C105.137 48.8539 104.789 49.2468 104.707 49.7922Z" fill="#1D2A30"/>
<path d="M110.815 50.6583C110.701 51.1881 110.966 51.676 111.317 51.7244C111.667 51.7728 112.017 51.3727 112.096 50.8355C112.177 50.2974 111.945 49.8169 111.594 49.7685C111.244 49.7201 110.889 50.1458 110.815 50.6583Z" fill="#1D2A30"/>
<path d="M108.836 50.6482C109.245 52.3912 109.894 54.0704 110.762 55.6362C109.934 56.0665 108.959 56.1094 108.097 55.7531L108.836 50.6482Z" fill="#B93C36"/>
<path d="M103.093 47.5458C103.208 47.5787 103.332 47.5485 103.418 47.4654C103.982 46.878 104.791 46.5911 105.599 46.6916C105.771 46.7281 105.94 46.6194 105.977 46.4477C106.015 46.2759 105.906 46.106 105.733 46.0695L105.732 46.0685C104.714 45.916 103.684 46.2659 102.97 47.0095C102.842 47.1292 102.835 47.3311 102.955 47.4599L102.961 47.4645L103.093 47.5458Z" fill="#1D2A30"/>
<path d="M113.737 48.9244L113.923 48.9646C114.091 48.9125 114.185 48.7353 114.134 48.5663L114.132 48.5599C113.838 47.5687 113.08 46.783 112.101 46.4532C111.931 46.4075 111.756 46.5071 111.71 46.6771L111.709 46.678C111.668 46.8479 111.767 47.0196 111.934 47.069C112.699 47.3513 113.286 47.9798 113.516 48.7627C113.563 48.8468 113.643 48.9052 113.737 48.9244Z" fill="#1D2A30"/>
<path d="M103.65 56.0895C103.656 56.1032 103.936 56.7025 104.508 57.3127C105.077 57.9202 105.956 58.5469 107.143 58.5479L107.277 58.5451C107.404 58.5396 107.502 58.4336 107.497 58.3076C107.492 58.1815 107.386 58.0838 107.26 58.0883L107.143 58.0911C106.126 58.0911 105.364 57.5548 104.84 56.9994C104.58 56.7226 104.384 56.4439 104.254 56.2356C104.19 56.1315 104.141 56.0447 104.109 55.9853L104.064 55.8967C104.011 55.7825 103.874 55.7323 103.76 55.7862C103.646 55.8392 103.597 55.9753 103.65 56.0895Z" fill="#1D2A30"/>
<path d="M100.942 38.9226L101.026 41.8972C100.014 42.3211 99.3294 43.3552 99.6665 44.5547C100.385 47.1173 98.6232 50.8227 96.5823 52.1756C96.5823 52.1756 96.6235 51.0976 95.6953 51.2676C94.7671 51.4375 94.4958 57.0412 96.0105 59.8678C96.0105 59.8678 92.7765 56.896 91.8172 50.8967C90.9309 45.3486 91.0836 41.8323 91.8711 39.1793L100.942 38.9226Z" fill="#CE6858"/>
<path d="M96.0104 59.8678C96.0104 59.8678 92.7764 56.896 91.8172 50.8967C91.4015 48.2958 91.2145 46.1416 91.2141 44.3135C91.2134 42.2416 91.4526 40.589 91.8711 39.1793L100.942 38.9226L101.026 41.8972C100.192 42.2462 99.5806 43.0108 99.5797 43.9399C99.5797 44.1381 99.6071 44.3437 99.6665 44.5547C99.7788 44.9558 99.8309 45.3833 99.83 45.8264C99.8273 48.2181 98.3034 51.0346 96.5823 52.1756C96.5823 52.1756 96.5823 52.1683 96.5823 52.1565C96.5823 52.0231 96.554 51.2493 95.8834 51.2493C95.825 51.2493 95.7628 51.2548 95.6952 51.2676C95.2357 51.3516 94.937 52.7676 94.937 54.5198C94.936 56.3058 95.2457 58.4408 96.0104 59.8678Z" fill="#763C33"/>
<path d="M91.2824 42.4957C91.2824 42.4957 95.0842 43.0794 101.026 41.8973C110.235 40.0656 114.148 43.454 114.148 43.454C114.148 43.454 116.334 41.5757 116.062 38.9227C115.791 36.2707 112.112 35.8184 112.112 35.8184C112.112 35.8184 111.002 32.8375 108.563 31.934C106.124 31.0305 103.679 33.2888 103.679 33.2888C103.679 33.2888 100.634 30.3526 97.0922 31.1876C92.7409 32.2117 92.8414 36.3611 92.8414 36.3611C92.8414 36.3611 88.6856 36.7868 88.7759 38.9227C88.8665 41.0595 91.2824 42.4957 91.2824 42.4957Z" fill="#1D2A30"/>
<path d="M108.397 50.2362H108.169C108.169 51.1324 107.854 51.94 107.351 52.5192C106.848 53.0984 106.165 53.4474 105.414 53.4474C104.663 53.4474 103.98 53.0984 103.476 52.5192C102.974 51.94 102.658 51.1324 102.658 50.2362C102.658 49.34 102.974 48.5325 103.476 47.9533C103.98 47.3741 104.663 47.0251 105.414 47.0242C106.165 47.0251 106.848 47.3741 107.351 47.9533C107.854 48.5325 108.169 49.34 108.169 50.2362H108.397H108.626C108.626 49.2332 108.274 48.3205 107.696 47.6545C107.12 46.9885 106.311 46.5674 105.414 46.5674C104.517 46.5674 103.708 46.9885 103.132 47.6545C102.554 48.3205 102.202 49.2332 102.202 50.2362C102.202 51.2402 102.554 52.152 103.132 52.818C103.708 53.4839 104.517 53.9051 105.414 53.9042C106.311 53.9051 107.12 53.4839 107.696 52.818C108.274 52.152 108.626 51.2402 108.626 50.2362H108.397Z" fill="#1D2A30"/>
<path d="M115.908 50.747H115.679C115.679 51.6432 115.364 52.4508 114.861 53.0291C114.357 53.6083 113.675 53.9581 112.924 53.9581C112.172 53.9581 111.49 53.6083 110.986 53.0291C110.484 52.4508 110.169 51.6432 110.169 50.747C110.169 49.8508 110.484 49.0432 110.986 48.464C111.49 47.8848 112.172 47.5349 112.924 47.5349C113.675 47.5349 114.357 47.8848 114.861 48.464C115.364 49.0432 115.679 49.8508 115.679 50.747H115.908H116.136C116.136 49.743 115.783 48.8303 115.206 48.1644C114.63 47.4993 113.82 47.0781 112.924 47.0781C112.027 47.0781 111.217 47.4993 110.641 48.1644C110.064 48.8303 109.712 49.743 109.712 50.747C109.712 51.7501 110.064 52.6627 110.641 53.3287C111.217 53.9938 112.027 54.4149 112.924 54.4149C113.82 54.4149 114.63 53.9938 115.206 53.3287C115.783 52.6627 116.136 51.7501 116.136 50.747H115.908Z" fill="#1D2A30"/>
<path d="M108.519 50.8419L108.53 50.8355C108.591 50.7972 108.911 50.6318 109.212 50.6345C109.414 50.6382 109.594 50.6912 109.764 50.8922C109.844 50.989 109.988 51.0027 110.086 50.9223C110.182 50.8429 110.196 50.6985 110.117 50.6017C109.859 50.2856 109.509 50.175 109.212 50.1778C108.698 50.1823 108.294 50.4473 108.276 50.4555C108.169 50.5222 108.137 50.6638 108.205 50.7697C108.271 50.8766 108.413 50.9086 108.519 50.8419Z" fill="#1D2A30"/>
<path d="M102.46 50.0096L97.2199 49.3116C97.0966 49.2952 96.9723 49.287 96.849 49.287C96.2287 49.287 95.623 49.4934 95.1288 49.878L94.9004 50.0562C94.8008 50.1339 94.7825 50.2773 94.8602 50.3769C94.9378 50.4764 95.0813 50.4938 95.1808 50.4161L95.4092 50.238V50.2389C95.8231 49.9164 96.3301 49.7438 96.849 49.7438C96.9522 49.7438 97.0555 49.7511 97.1596 49.7648L102.4 50.4627C102.525 50.4792 102.64 50.3915 102.656 50.2663C102.673 50.1412 102.585 50.027 102.46 50.0096Z" fill="#1D2A30"/>
<path d="M91.2312 51.5381C91.7544 53.1441 92.8927 54.4761 94.3973 55.2435C96.3962 56.2457 97.8204 54.5583 97.6276 52.4471C97.4376 50.5725 96.1888 47.7331 94.0026 47.6308C91.8174 47.5276 90.6138 49.5593 91.2312 51.5381Z" fill="#CE6858"/>
<path d="M57.8484 100.641C58.0736 99.6068 58.3073 98.5636 58.5407 97.5294C58.8312 96.244 59.1277 94.9651 59.4289 93.698C58.8861 95.9864 58.3594 98.3169 57.8533 100.639C57.852 100.64 57.8498 100.641 57.8484 100.641Z" fill="#CECDCB"/>
<path d="M57.8533 100.639C58.3594 98.3168 58.8861 95.9863 59.4289 93.6978C59.5031 93.3863 59.5776 93.0757 59.6523 92.7651C62.5164 90.9096 67.5274 87.5121 71.9179 83.762C72.4039 83.3472 72.8578 82.8475 73.2782 82.2802C73.064 82.7406 66.3312 97.1136 57.8533 100.639Z" fill="#678ACF"/>
<path d="M105.341 102.21L120.218 96.7465L120.64 98.0118L105.762 103.312L105.341 102.21Z" fill="#4870C0"/>
<path d="M62.573 166.401L19.4615 159.563L23.6793 132.972L66.7907 139.809L62.573 166.401Z" fill="#4870C0"/>
<path d="M38.5199 142.283L29.763 146.822C29.5058 146.956 29.3266 147.204 29.2813 147.49C29.2359 147.777 29.3291 148.068 29.5328 148.275L36.4556 155.3C36.8096 155.66 37.388 155.664 37.7473 155.31C38.1067 154.956 38.111 154.377 37.757 154.018L31.7036 147.875L39.3608 143.905C39.8086 143.673 39.9838 143.121 39.7515 142.674C39.5192 142.226 38.9679 142.051 38.5199 142.283Z" fill="white"/>
<path d="M47.7324 157.089L56.4894 152.55C56.7466 152.417 56.9254 152.168 56.9711 151.882C57.0164 151.596 56.9233 151.304 56.7195 151.098L49.7968 144.072C49.4428 143.712 48.8644 143.709 48.505 144.062C48.1457 144.417 48.1414 144.995 48.4954 145.354L54.5488 151.498L46.8916 155.466C46.4438 155.698 46.2686 156.25 46.5009 156.698C46.7332 157.145 47.2845 157.321 47.7324 157.089Z" fill="white"/>
<path d="M40.9588 155.58L46.898 144.666C47.1389 144.223 46.9754 143.669 46.5323 143.427C46.089 143.186 45.5341 143.35 45.2928 143.793L39.354 154.706C39.1128 155.149 39.2766 155.704 39.7198 155.945C40.163 156.186 40.7175 156.023 40.9588 155.58Z" fill="white"/>
<path d="M63.223 71.0279C63.223 71.0279 46.9781 87.3377 44.7585 90.5105C42.5388 93.6833 38.305 128.822 38.305 128.822C38.305 128.822 37.4125 129.131 37.3351 129.891C37.2576 130.651 37.1923 140.52 37.3351 140.976C37.4774 141.433 44.9594 146.048 46.0596 144.95C47.1598 143.854 48.7003 132.678 48.7003 132.678L44.7585 128.822C44.7585 128.822 49.3484 102.94 52.215 98.7517C55.0813 94.5631 66.9219 85.5883 66.9219 85.5883L63.223 71.0279Z" fill="#CE6858"/>
<path d="M75.7138 64.4621C78.0823 69.4766 76.2812 80.0356 71.9179 83.762C65.3164 89.4004 57.3124 94.2423 57.3124 94.2423L49.3298 83.8067C49.3298 83.8067 57.8077 75.528 62.9415 70.7593C69.1858 64.96 75.7138 64.4621 75.7138 64.4621Z" fill="#4870C0"/>
<path d="M57.3124 94.2423L56.9616 93.7837L49.97 84.6435L49.3298 83.8067C49.3298 83.8067 57.8077 75.528 62.9415 70.7593C69.1858 64.96 75.7138 64.4621 75.7138 64.4621C76.4286 65.975 76.7637 67.993 76.763 70.1764C76.7623 74.4208 75.4922 79.2901 73.2782 82.2802C72.8579 82.8475 72.404 83.3472 71.9179 83.762C67.5275 87.5121 62.5164 90.9097 59.6523 92.7651C59.6523 92.7651 59.652 92.7651 59.6516 92.766C58.2103 93.6997 57.3124 94.2423 57.3124 94.2423Z" fill="#8DAEE0"/>
<path d="M49.3296 83.1336L48.3433 84.4783L56.6709 95.3616L57.8482 94.5174L49.3296 83.1336Z" fill="#4870C0"/>
</g>
<defs>
<clipPath id="clip0">
<rect width="457" height="320" fill="white"/>
</clipPath>
</defs>
</svg>
