<svg width="375" height="320" viewBox="0 0 375 320" fill="none" xmlns="http://www.w3.org/2000/svg">
<path d="M227.733 48.071V265.557C227.733 271.06 223.234 275.563 217.736 275.563H108.779C103.281 275.563 98.7832 271.06 98.7832 265.557V48.071C98.7832 42.5687 103.281 38.0648 108.779 38.0648H217.736C223.234 38.0648 227.733 42.5687 227.733 48.071Z" fill="#D9E4FF"/>
<path d="M227.733 48.071V51.7003L98.7832 51.6985V48.071C98.7832 42.5687 103.281 38.0649 108.779 38.0649H217.736C223.234 38.0649 227.733 42.5687 227.733 48.071Z" fill="#ADC3FF"/>
<path d="M109.18 39.315C104.358 39.315 100.433 43.243 100.433 48.0709V265.558C100.433 270.386 104.358 274.314 109.18 274.314H218.138C222.96 274.314 226.884 270.386 226.884 265.558V48.0709C226.884 43.243 222.96 39.315 218.138 39.315H109.18ZM218.138 276.816H109.18C102.979 276.816 97.9348 271.765 97.9348 265.558V48.0709C97.9348 41.8633 102.979 36.8136 109.18 36.8136H218.138C224.339 36.8136 229.385 41.8633 229.385 48.0709V265.558C229.385 271.765 224.339 276.816 218.138 276.816Z" fill="#5481FF"/>
<path d="M178.839 156.934C178.839 160.052 176.29 162.604 173.175 162.604H116.052C112.937 162.604 110.388 160.052 110.388 156.934V98.4939C110.388 95.3771 112.937 92.8253 116.052 92.8253H173.175C176.29 92.8253 178.839 95.3771 178.839 98.4939V156.934Z" fill="#EDF3FF"/>
<path d="M120.28 148.368L121.518 150.879L124.286 151.282L122.282 153.236L122.756 155.996L120.28 154.693L117.803 155.996L118.276 153.236L116.273 151.282L119.042 150.879L120.28 148.368Z" fill="#ADC3FF"/>
<path d="M131.123 148.368L132.361 150.879L135.129 151.282L133.126 153.236L133.599 155.996L131.123 154.693L128.646 155.996L129.119 153.236L127.116 151.282L129.885 150.879L131.123 148.368Z" fill="#ADC3FF"/>
<path d="M141.967 148.367L143.204 150.879L145.972 151.281L143.969 153.236L144.442 155.996L141.967 154.693L139.491 155.996L139.963 153.236L137.961 151.281L140.729 150.879L141.967 148.367Z" fill="#ADC3FF"/>
<path d="M152.866 148.368L151.627 150.879L148.858 151.281L150.862 153.236L150.388 155.996L152.866 154.693L155.34 155.996L154.867 153.236L156.87 151.281L154.103 150.879L152.866 148.368ZM152.866 150.93L153.087 151.381L153.35 151.916L153.94 152.001L154.436 152.073L154.076 152.424L153.65 152.84L153.75 153.428L153.836 153.923L153.392 153.689L152.866 153.412L152.337 153.689L151.892 153.923L151.977 153.428L152.077 152.84L151.651 152.424L151.291 152.073L151.79 152.001L152.379 151.916L152.642 151.381L152.866 150.93Z" fill="#ADC3FF"/>
<path d="M214.93 249.26C214.93 252.748 212.079 255.602 208.594 255.602H116.724C113.239 255.602 110.388 252.748 110.388 249.26V195.666C110.388 192.177 113.239 189.323 116.724 189.323H208.594C212.079 189.323 214.93 192.177 214.93 195.666V249.26Z" fill="#EDF3FF"/>
<path d="M255.808 156.935C255.808 160.053 253.261 162.604 250.145 162.604H193.021C189.907 162.604 187.358 160.053 187.358 156.935V98.4943C187.358 95.3768 189.907 92.8266 193.021 92.8266H250.145C253.261 92.8266 255.808 95.3768 255.808 98.4943V156.935Z" fill="#EDF3FF"/>
<path d="M197.25 148.368L198.487 150.879L201.256 151.281L199.252 153.236L199.724 155.996L197.25 154.693L194.772 155.996L195.246 153.236L193.243 151.281L196.012 150.879L197.25 148.368Z" fill="#ADC3FF"/>
<path d="M208.094 148.367L209.331 150.878L212.1 151.281L210.098 153.236L210.57 155.995L208.094 154.693L205.617 155.995L206.091 153.236L204.087 151.281L206.854 150.878L208.094 148.367Z" fill="#ADC3FF"/>
<path d="M218.936 148.368L220.175 150.879L222.942 151.282L220.939 153.236L221.412 155.997L218.936 154.694L216.46 155.997L216.933 153.236L214.93 151.282L217.697 150.879L218.936 148.368Z" fill="#ADC3FF"/>
<path d="M229.833 148.368L228.596 150.879L225.828 151.282L227.832 153.236L227.358 155.996L229.833 154.694L232.31 155.996L231.837 153.236L233.84 151.282L231.071 150.879L229.833 148.368ZM229.833 150.93L230.056 151.381L230.319 151.916L230.909 152.002L231.406 152.074L231.046 152.424L230.62 152.84L230.721 153.428L230.805 153.924L230.361 153.689L229.833 153.412L229.307 153.689L228.863 153.924L228.946 153.428L229.047 152.84L228.621 152.424L228.263 152.074L228.759 152.002L229.348 151.916L229.612 151.381L229.833 150.93Z" fill="#ADC3FF"/>
<path d="M159.87 181.521H110.39V175.696H159.87V181.521Z" fill="#ADC3FF"/>
<path d="M166.706 207.661H117.225V200.132H166.706V207.661Z" fill="#ADC3FF"/>
<path d="M159.37 218.334H117.225V216.633H159.37V218.334Z" fill="#ADC3FF"/>
<path d="M148.858 223.313H117.225V221.612H148.858V223.313Z" fill="#ADC3FF"/>
<path d="M156.87 228.291H117.225V226.591H156.87V228.291Z" fill="#ADC3FF"/>
<path d="M164.701 233.27H117.225V231.569H164.701V233.27Z" fill="#ADC3FF"/>
<path d="M189.343 224.646C183.283 224.646 178.351 229.581 178.351 235.65C178.351 241.717 183.283 246.652 189.343 246.652C195.403 246.652 200.335 241.717 200.335 235.65C200.335 229.581 195.403 224.646 189.343 224.646ZM189.343 248.353C182.345 248.353 176.652 242.654 176.652 235.65C176.652 228.644 182.345 222.945 189.343 222.945C196.34 222.945 202.033 228.644 202.033 235.65C202.033 242.654 196.34 248.353 189.343 248.353Z" fill="#ADC3FF"/>
<path d="M193.066 231.762H207.122V217.69L193.066 217.691V231.762ZM208.821 233.463H191.367V215.99L208.821 215.989V233.463Z" fill="#ADC3FF"/>
<path d="M337.282 108.217H368.892C372.064 108.217 374.639 110.793 374.639 113.969V145.612C374.639 148.789 372.064 151.366 368.892 151.366H337.282C334.11 151.366 331.535 148.789 331.535 145.612V113.969C331.535 110.793 334.11 108.217 337.282 108.217Z" fill="#D0DAF5"/>
<path d="M354.088 139.62C353.175 139.62 352.436 138.878 352.436 137.965V135.198C352.436 132.602 354.135 130.789 355.78 129.038C357.317 127.398 358.77 125.849 358.77 123.77C358.77 121.187 356.669 119.086 354.088 119.086C351.505 119.086 349.407 121.187 349.407 123.77C349.407 124.684 348.666 125.424 347.755 125.424C346.841 125.424 346.103 124.684 346.103 123.77C346.103 119.363 349.685 115.777 354.088 115.777C358.491 115.777 362.074 119.363 362.074 123.77C362.074 127.159 359.92 129.456 358.188 131.302C356.876 132.702 355.741 133.912 355.741 135.198V137.965C355.741 138.878 355 139.62 354.088 139.62ZM354.098 145.959C353.187 145.959 352.441 145.22 352.441 144.306C352.441 143.392 353.175 142.651 354.088 142.651H354.098C355.012 142.651 355.751 143.392 355.751 144.306C355.751 145.22 355.012 145.959 354.098 145.959Z" fill="#A5B7E8"/>
<path d="M5.67333 174.712H36.873C40.0053 174.712 42.5453 177.255 42.5453 180.39V211.624C42.5453 214.762 40.0053 217.302 36.873 217.302H5.67333C2.53993 217.302 0 214.762 0 211.624V180.39C0 177.255 2.53993 174.712 5.67333 174.712Z" fill="#D0DAF5"/>
<path d="M18.937 185.432C14.597 185.432 11.0659 188.966 11.0659 193.31C11.0659 197.655 14.597 201.19 18.937 201.19C23.2765 201.19 26.8076 197.655 26.8076 193.31C26.8076 188.966 23.2765 185.432 18.937 185.432ZM18.937 204.456C12.7986 204.456 7.8042 199.457 7.8042 193.31C7.8042 187.165 12.7986 182.166 18.937 182.166C25.0755 182.166 30.0693 187.165 30.0693 193.31C30.0693 199.457 25.0755 204.456 18.937 204.456Z" fill="#A5B7E8"/>
<path d="M32.1248 208.975C31.7079 208.975 31.2904 208.816 30.9719 208.497L24.1653 201.685C23.5282 201.047 23.5282 200.014 24.1653 199.374C24.8007 198.738 25.8337 198.738 26.4713 199.374L33.2779 206.188C33.915 206.827 33.915 207.86 33.2779 208.497C32.9599 208.816 32.5424 208.975 32.1248 208.975Z" fill="#A5B7E8"/>
<path d="M300.091 54.9935C298.499 54.1274 297.236 52.7643 297.286 51.959C297.286 51.959 297.286 51.959 297.265 51.2145C297.246 50.468 297.246 50.4679 297.246 50.4679C297.154 49.6711 298.346 48.2346 299.89 47.293C301.442 46.343 301.773 44.0362 300.625 42.1614L296.578 35.5514C295.43 33.6808 293.235 32.9321 291.683 33.8758C290.135 34.8237 288.314 35.2557 287.627 34.8279C286.938 34.4064 284.963 32.0178 284.916 30.1996C284.868 28.3814 283.037 26.9449 280.846 27.0016L273.106 27.2071C270.917 27.2637 269.164 28.7925 269.212 30.6107C269.258 32.4288 268.707 34.2218 267.995 34.6077C267.278 34.9935 264.241 35.5032 262.647 34.6371C261.046 33.7752 258.891 34.637 257.846 36.5643L254.15 43.3798C253.103 45.3133 253.551 47.5991 255.154 48.4569C256.744 49.325 258.007 50.6986 257.957 51.4955C257.957 51.4955 257.957 51.4955 257.978 52.2463C257.996 52.9865 257.996 52.9866 257.996 52.9866C258.089 53.7897 256.899 55.2178 255.355 56.1678C253.799 57.1178 253.472 59.4225 254.62 61.2931L258.665 67.9031C259.811 69.7716 262.008 70.5266 263.562 69.5787C265.108 68.635 266.929 68.2051 267.616 68.6245C268.305 69.0544 270.278 71.443 270.326 73.2612C270.374 75.0794 272.203 76.5158 274.394 76.4571L282.137 76.2537C284.326 76.1971 286.077 74.6683 286.029 72.8501C285.983 71.032 286.536 69.2306 287.248 68.8468C287.962 68.4589 291.002 67.9576 292.596 68.8174C294.196 69.6835 296.348 68.8133 297.397 66.8881L301.094 60.0747C302.142 58.1475 301.691 55.8616 300.091 54.9935Z" fill="#D0DAF5"/>
<path d="M277.892 62.0942C272.177 62.2451 267.418 57.7243 267.269 52.0011C267.121 46.2758 271.635 41.5157 277.352 41.3669C283.068 41.2161 287.825 45.7348 287.974 51.4581C288.125 57.1834 283.611 61.9434 277.892 62.0942Z" fill="#A5B7E8"/>
<path d="M257.358 268.802L264.837 225.237C265.095 223.747 266.587 222.487 268.097 222.487H298.821C300.331 222.487 301.823 223.747 302.081 225.237L309.56 268.802H257.358ZM251.851 292.692C252.609 292.823 253.32 292.315 253.448 291.561L256.894 271.5H310.025L313.47 291.561C313.585 292.236 314.17 292.712 314.831 292.712C314.91 292.712 314.988 292.705 315.067 292.692C315.82 292.562 316.326 291.846 316.197 291.092L304.806 224.767C304.319 221.936 301.692 219.718 298.821 219.718H268.097C265.228 219.718 262.599 221.936 262.112 224.767L250.723 291.092C250.595 291.846 251.099 292.562 251.851 292.692Z" fill="#A5B7E8"/>
<path d="M302.595 228.308L302.036 225.046C302.031 225.022 302.027 225 302.023 224.976C302.046 225.062 302.067 225.149 302.082 225.236L302.61 228.308H302.595ZM304.725 224.37C304.683 224.199 304.632 224.03 304.575 223.864H304.607C304.651 224.03 304.691 224.199 304.725 224.37Z" fill="#CCCCCC"/>
<path d="M302.609 228.308L302.08 225.237C302.065 225.149 302.046 225.062 302.023 224.976C301.939 224.554 301.763 224.183 301.541 223.865H304.573C304.631 224.03 304.681 224.199 304.724 224.37C304.738 224.439 304.751 224.507 304.764 224.577L305.398 228.284L302.609 228.308Z" fill="#8492BA"/>
<path d="M312.809 219.977C312.809 222.115 312.809 223.865 312.809 223.865H254.111C254.111 223.865 254.111 222.115 254.111 219.976C254.111 217.842 255.919 216.093 258.129 216.093H308.793C311.003 216.093 312.809 217.842 312.809 219.977Z" fill="#A5B7E8"/>
<path d="M267.102 293.999C264.027 293.999 264.163 293.189 264.922 291.172C265.572 289.45 269.452 282.327 269.83 278.234C269.968 278.264 270.327 278.326 270.948 278.326C271.453 278.326 272.128 278.285 272.997 278.153C277.636 277.559 279.354 274.775 280.402 272.577C282.512 274.888 285.548 279.782 285.514 282.444L280.446 285.932L279.097 283.967C279.097 283.967 278.79 287.292 277.337 288.667C275.91 290.018 272.226 293.999 267.102 293.999Z" fill="url(#paint0_linear)"/>
<path d="M269.766 278.218C277.35 278.754 279.398 274.771 280.628 272.091C274.684 262.619 267.102 235.177 266.768 231.129C270.292 227.463 287.176 209.887 291.808 201.828C292.538 200.563 292.961 199.499 292.989 198.716C293.181 192.934 292.989 188.697 292.989 188.697C292.989 188.697 273.158 189.335 272.004 189.689C270.849 190.043 268.538 192.742 268.538 192.742C264.922 196.073 240.256 219.073 245.462 232.8C247.416 237.96 260.691 265.952 269.766 278.218Z" fill="#49437B"/>
<path d="M269.831 278.234C269.79 278.224 269.767 278.218 269.767 278.218C268.993 277.208 268.176 276.025 267.334 274.713C268.17 275.983 268.984 277.158 269.767 278.218C269.79 278.219 269.812 278.22 269.833 278.223C269.831 278.226 269.831 278.23 269.831 278.234Z" fill="#CCCCCC"/>
<path d="M270.949 278.326C270.329 278.326 269.968 278.263 269.832 278.234C269.832 278.23 269.832 278.226 269.832 278.223C270.277 278.252 270.702 278.267 271.11 278.267C271.789 278.267 272.417 278.227 272.998 278.152C272.13 278.285 271.453 278.326 270.949 278.326Z" fill="url(#paint1_linear)"/>
<path d="M271.587 249.548C271.333 248.736 271.084 247.93 270.844 247.135C270.998 246.775 271.151 246.418 271.3 246.066C271.617 247.079 271.873 247.989 272.086 248.604C271.914 248.921 271.747 249.236 271.587 249.548Z" fill="#CCCCCC"/>
<path d="M271.111 278.267C270.703 278.267 270.276 278.252 269.832 278.223C269.812 278.221 269.789 278.219 269.767 278.218C268.983 277.158 268.17 275.984 267.333 274.714C265.643 272.083 263.847 268.939 262.082 265.662C265.065 259.674 268.351 252.911 270.845 247.135C271.084 247.93 271.332 248.736 271.587 249.548C264.135 264.051 269.384 272.728 273.026 278.148C273.016 278.149 273.008 278.151 272.996 278.152C272.416 278.227 271.788 278.267 271.111 278.267ZM252.079 245.783C251.471 244.555 250.991 243.611 250.676 243.051C252.705 236.286 257.002 225.156 259.206 222.681C262.305 219.202 278.838 206.473 282.468 203.69C278.816 206.798 262.127 221.114 259.259 225.646C258.568 226.737 255.459 235.57 252.079 245.783Z" fill="#3A3662"/>
<path d="M252.632 293.224H246.485V290.839C246.485 290.839 242.565 293.224 240.566 293.224C238.569 293.224 226.733 293.224 225.811 293.224C224.889 293.224 225.042 291.453 226.81 290.223C228.508 289.04 241.075 283.167 242.831 279.706C245.048 281.758 247.587 282.406 249.729 282.413C249.738 282.413 249.747 282.413 249.755 282.413C251.559 282.413 253.082 281.961 253.893 281.516C254.201 283.032 254.292 285.585 254.064 287.993C253.957 289.115 253.779 290.206 253.522 291.148C253.421 291.516 253.309 291.859 253.183 292.174C253.021 292.578 252.839 292.933 252.632 293.224Z" fill="url(#paint2_linear)"/>
<path d="M303.904 216.642C296.841 222.232 274.842 235.176 274.842 235.176C274.38 243.199 255.918 277.215 254.468 281.068C254.119 281.588 252.181 282.419 249.729 282.414C247.374 282.407 244.546 281.624 242.188 279.062C242.616 273.645 257.633 228.213 259.258 225.646C262.483 220.551 283.173 203.092 283.173 203.092L290.563 191.843C290.563 191.843 297.032 188.562 299.729 189.69C300.642 190.07 301.962 190.444 303.298 190.766C305.901 191.397 308.585 191.843 308.585 191.843C310.317 198.331 310.972 211.051 303.904 216.642Z" fill="#49437B"/>
<path d="M249.753 282.414C249.747 282.414 249.736 282.414 249.729 282.414C256.034 271.836 268.393 236.941 271.901 231.966C278.383 226.786 290.228 219.596 297.802 214.713C304.194 210.592 304.096 202.45 303.481 196.402H308.228C308.659 196.402 309.095 196.539 309.487 196.766C309.639 198.124 309.729 199.566 309.727 201.039C309.727 206.556 308.466 212.51 304.549 216.094C304.342 216.283 304.128 216.467 303.905 216.642C301.569 218.491 297.601 221.143 293.333 223.865C284.697 229.376 274.841 235.176 274.841 235.176C274.71 237.472 273.102 241.897 270.843 247.136C268.35 252.911 265.064 259.675 262.083 265.662C262.044 265.738 262.006 265.814 261.967 265.891C261.47 266.886 260.984 267.86 260.511 268.802C260.042 269.734 259.59 270.635 259.153 271.5C256.732 276.309 254.886 279.952 254.466 281.068C254.119 281.587 252.194 282.414 249.753 282.414ZM308.781 192.625C308.597 192.607 308.412 192.598 308.228 192.598H303.147C303.168 192.152 303.213 191.516 303.299 190.766C305.901 191.396 308.584 191.843 308.584 191.843C308.65 192.095 308.716 192.355 308.781 192.625Z" fill="#3A3662"/>
<path d="M224.836 151.048C223.909 148.653 219.221 141.267 218.99 147.5C219.067 148.191 213.227 141.037 211.69 143.114C210.154 145.19 208.924 150.962 212.15 154.04C215.378 157.117 220.759 156.654 222.142 158.27C223.525 159.886 225.907 155.578 225.6 154.04C225.292 152.499 224.836 151.048 224.836 151.048Z" fill="#FF9D87"/>
<path d="M224.131 149.58C222.373 150.959 220.336 153.461 220.471 157.366C220.68 157.432 221.394 157.724 221.394 157.724C221.394 157.724 224.14 157.192 224.449 155.807L224.838 151.045L224.131 149.58Z" fill="#FF7D71"/>
<path d="M250.169 162.527C254.74 152.663 259.083 145.601 262.635 141.343C263.78 139.969 268.411 136.461 268.411 136.461C268.411 136.461 272.648 141.343 273.417 144.17C274.186 146.998 271.813 155.411 266.564 162.938C262.772 168.375 256.521 176.992 251.807 176.992C245.658 176.992 223.322 161.296 221.475 158.835C220.964 156.372 222.808 151.551 225.37 150.832C228.957 152.885 245.864 158.834 250.169 162.527Z" fill="#8B50FF"/>
<path d="M308.584 191.842C308.325 186.445 314.359 142.244 314.359 142.244C311.537 136.204 297.546 131.579 293.567 130.423C293.567 130.423 287.617 130.132 284.582 130.423C281.547 130.712 271.234 134.92 268.409 136.462C265.202 142.628 267.641 150.724 267.897 158.691C268.153 166.658 269.309 186.06 268.539 192.741C277.78 195.671 295.491 195.57 308.584 191.842Z" fill="#8B50FF"/>
<path d="M303.912 156.153C303.58 160.167 303.49 170.246 302.676 172.01C301.862 173.774 286.86 176.685 283.431 177.425C281.106 177.927 280.207 176.885 276.708 178.041L275.958 183.483L268.793 187.439C268.793 187.439 268.637 191.295 268.54 192.741C272.101 194.572 295.108 196.498 308.586 191.842C308.711 188.785 309.083 184.637 309.083 184.637C309.083 184.637 309.741 163.733 308.201 161.807C306.659 159.878 303.912 156.153 303.912 156.153Z" fill="#6642CC"/>
<path d="M297.288 125.025C296.007 127.338 295.331 130.293 295.972 133.635C291.352 139.031 282.88 136.847 281.083 134.533C281.083 131.193 282.787 125.924 282.787 125.924C282.787 125.924 287.019 117.046 290.359 117.058C293.697 117.071 298.655 117.828 298.655 117.828L297.288 125.025Z" fill="#FFAD98"/>
<path d="M281.792 129.578C283.493 130.165 288.049 129.65 290.744 126.567C290.744 126.567 289.718 123.096 286.83 124.511C283.943 125.924 282.12 128.244 282.12 128.244L281.792 129.578Z" fill="#FF7D71"/>
<path d="M278.165 106.137C275.856 118.984 275.47 133.762 290.744 126.567C296.648 121.94 300.115 117.7 298.06 112.562C296.006 107.421 291.257 102.539 287.023 103.693C282.786 104.85 278.165 106.137 278.165 106.137Z" fill="#FFAD98"/>
<path d="M277.946 107.407C277.946 107.407 280.604 106.394 287.816 105.688C295.025 104.982 294.914 110.828 294.354 114.318C291.255 107.678 283.363 112.111 277.622 109.472L277.946 107.407Z" fill="#FF7D71"/>
<path d="M303.002 115.098C301.928 118.038 300.098 121.337 297.288 125.027C293.584 124.906 294.918 116.933 293.922 112.47C293.679 111.378 293.297 110.497 292.665 109.991C289.46 107.422 279.921 111.644 276.879 108.148C277.153 96.4105 281.796 94.2581 287.083 96.2581C292.371 98.2581 298.518 96.2581 301.901 101.028C304.197 104.269 305.288 108.868 303.002 115.098Z" fill="#2C3D4F"/>
<path d="M282.959 180.859C274.542 175.421 276.34 179.489 274.027 179.714C271.712 179.937 265.659 180.024 265.81 181.57C265.956 183.115 266.897 188.303 269.451 188.539C272.007 188.775 278.771 188.88 280.001 188.924C281.23 188.968 283.43 187.662 283.43 187.662L282.959 180.859Z" fill="#FF9D87"/>
<path d="M281.204 179.775C281.204 179.775 279.563 184.435 281.454 188.607C282.293 188.255 283.43 187.662 283.43 187.662L282.959 180.859L281.204 179.775Z" fill="#FF7D71"/>
<path d="M305.133 175.936C304.659 171.289 302.89 158.756 303.419 154.841C303.419 154.841 306.421 136.219 312.762 139.99C313.648 141.141 314.276 142.301 314.276 142.301C316.879 148.438 319.368 165.168 319.568 174.302C319.711 180.71 318.306 185.893 312.577 186.916C306.851 187.939 286.635 189.738 283.272 189.194C281.367 186.549 281.081 181.734 282.719 178.962C290.582 178.516 301.45 175.714 305.133 175.936Z" fill="#8B50FF"/>
<path d="M303.004 115.098C301.929 118.037 300.1 121.337 297.29 125.026C293.585 124.906 294.919 116.931 293.924 112.47C296.381 112.438 300.665 112.76 303.004 115.098Z" fill="#4C5A69"/>
<path d="M293.566 114.875C293.566 114.875 296.366 112.562 297.541 113.974C298.719 115.387 297.1 121.813 294.304 120.399C293.566 117.829 293.566 114.875 293.566 114.875Z" fill="#FFAD98"/>
<path d="M267.524 152.998L267.948 161.076L263.843 166.887L267.524 152.998Z" fill="#6642CC"/>
<path d="M206.152 159.067L215.551 190.081H259.741L250.34 159.067C250.006 157.969 248.797 157.071 247.652 157.071H207.631C206.486 157.071 205.82 157.969 206.152 159.067Z" fill="#5481FF"/>
<path d="M245.98 157.071C247.127 157.071 248.335 157.969 248.67 159.066L257.048 186.706L258.069 190.081H281.885C281.885 188.579 280.635 187.118 277.926 187.118C275.609 187.118 258.723 186.726 258.723 186.726L250.341 159.066C250.008 157.969 248.798 157.071 247.653 157.071H245.98Z" fill="#474FBF"/>
<path d="M330.182 293.23C330.298 293.23 330.416 293.219 330.535 293.197C331.567 293.004 332.247 292.009 332.053 290.975L314.597 197.889C314.041 194.923 311.244 192.598 308.228 192.598L215.39 192.597C212.376 192.597 209.577 194.921 209.021 197.888L191.567 290.975C191.373 292.009 192.052 293.004 193.083 293.197C194.113 293.389 195.107 292.711 195.301 291.678L212.757 198.59C212.973 197.425 214.207 196.401 215.39 196.401L308.228 196.402C309.411 196.402 310.642 197.426 310.861 198.591L328.317 291.678C328.488 292.592 329.286 293.23 330.182 293.23Z" fill="#A5B7E8"/>
<path d="M209.034 194.149H212.763V205.817H209.034" fill="#BEC2CC"/>
<path d="M211.401 205.817L207.535 205.815L209.034 197.822C209.298 196.494 210.011 195.299 210.99 194.388L213.457 194.851L212.762 198.558C212.761 198.568 212.758 198.579 212.756 198.59L211.401 205.817Z" fill="#8492BA"/>
<path d="M316.083 205.815L314.596 197.888C314.343 196.537 313.626 195.319 312.634 194.394L313.936 194.149L316.123 205.815H316.083Z" fill="#CCCCCC"/>
<path d="M312.255 205.817L310.199 194.851L312.632 194.394C313.624 195.319 314.344 196.537 314.597 197.889L316.084 205.815L312.255 205.817Z" fill="#8492BA"/>
<path d="M330.853 193.967C330.853 196.106 330.853 197.854 330.853 197.854H192.765C192.765 197.854 192.765 196.106 192.765 193.967C192.765 193.437 192.876 192.933 193.076 192.471C193.685 191.071 195.12 190.083 196.782 190.083H326.838C328.498 190.083 329.935 191.071 330.541 192.471C330.741 192.933 330.853 193.437 330.853 193.967Z" fill="#A5B7E8"/>
<path d="M330.543 192.471H193.077C193.685 191.071 195.119 190.083 196.784 190.083H326.838C328.498 190.083 329.935 191.071 330.543 192.471Z" fill="#B8C8F5"/>
<path d="M202.754 79.0695C202.754 82.188 200.206 84.7389 197.091 84.7389H65.1453C62.0307 84.7389 59.4824 82.188 59.4824 79.0695V64.33C59.4824 61.2115 62.0307 58.6606 65.1453 58.6606H197.091C200.206 58.6606 202.754 61.2115 202.754 64.33V79.0695Z" fill="white"/>
<path d="M65.1455 60.0774C62.8034 60.0774 60.8983 61.9854 60.8983 64.3298V79.0689C60.8983 81.4132 62.8034 83.3213 65.1455 83.3213H197.092C199.434 83.3213 201.338 81.4132 201.338 79.0689V64.3298C201.338 61.9854 199.434 60.0774 197.092 60.0774H65.1455ZM197.092 86.1556H65.1455C61.2423 86.1556 58.0669 82.9772 58.0669 79.0689V64.3298C58.0669 60.4214 61.2423 57.243 65.1455 57.243H197.092C200.994 57.243 204.169 60.4214 204.169 64.3298V79.0689C204.169 82.9772 200.994 86.1556 197.092 86.1556Z" fill="#ADC3FF"/>
<path d="M188.343 65.9382C186.038 65.9382 184.164 67.8143 184.164 70.1216C184.164 72.4289 186.038 74.3066 188.343 74.3066C190.648 74.3066 192.522 72.4289 192.522 70.1216C192.522 67.8143 190.648 65.9382 188.343 65.9382ZM188.343 76.7681C184.682 76.7681 181.706 73.7868 181.706 70.1216C181.706 66.4581 184.682 63.4768 188.343 63.4768C192.003 63.4768 194.981 66.4581 194.981 70.1216C194.981 73.7868 192.003 76.7681 188.343 76.7681Z" fill="#87A7FF"/>
<path d="M194.408 81.0322C194.013 81.0322 193.623 80.8412 193.387 80.4845L190.107 75.5626C189.73 74.9959 189.883 74.2319 190.447 73.8562C191.012 73.479 191.777 73.6305 192.152 74.1972L195.432 79.119C195.807 79.6857 195.656 80.4498 195.091 80.8254C194.88 80.9659 194.643 81.0322 194.408 81.0322Z" fill="#87A7FF"/>
<path d="M74.7395 291.838C74.9785 293.129 75.222 294 75.222 294H101.623C101.623 294 101.587 293.032 101.394 291.838C101.283 291.147 101.119 290.38 100.874 289.679C100.21 287.766 90.9944 284.194 87.8809 282.781C87.8809 282.781 80.3685 282.614 74.8936 283.445C73.8822 285.849 74.3057 289.519 74.7395 291.838Z" fill="url(#paint3_linear)"/>
<path d="M74.7395 291.838C74.9785 293.129 75.222 294 75.222 294H101.622C101.622 294 101.587 293.032 101.394 291.838H74.7395Z" fill="#313131"/>
<path d="M37.2599 291.838C37.4242 292.707 37.6503 293.461 37.9125 294H60.6106C60.6106 294 60.6377 292.982 60.5475 291.838C60.4812 291.02 60.354 290.135 60.1128 289.512C59.5322 288.016 53.8046 284.858 51.587 283.653C51.587 283.653 44.5039 281.95 38.6939 282.767C37.6736 284.451 36.7092 288.941 37.2599 291.838Z" fill="url(#paint4_linear)"/>
<path d="M37.2603 291.838C37.4245 292.707 37.6507 293.461 37.9129 294H60.611C60.611 294 60.638 292.982 60.5479 291.838H37.2603Z" fill="#313131"/>
<path d="M41.1662 160.297C36.1259 179.74 43.5635 225.563 44.3732 229.075C43.1592 234.746 37.3244 280.411 37.9475 283.154C42.0559 286.893 50.2843 284.9 51.5873 283.653C55.5047 270.813 65.5526 218.336 65.2822 214.959C65.0129 211.583 60.1463 164.139 58.0659 162.672C55.986 161.204 41.1662 160.297 41.1662 160.297Z" fill="#2D3A69"/>
<path d="M54.6455 272.597C54.6455 272.597 54.8299 271.352 55.1338 269.264C55.4621 267.785 55.7972 266.247 56.1369 264.666C55.235 269.468 54.6455 272.597 54.6455 272.597ZM65.2822 214.959C65.2108 214.063 64.8157 210.065 64.2347 204.645C65.0519 208.926 65.5314 213.138 65.2822 214.959Z" fill="#CCCCCC"/>
<path d="M55.1338 269.264C56.6046 259.163 60.8777 229.324 60.6143 225.387C60.2968 220.639 54.6455 193.648 54.6455 193.648C54.6455 193.648 57.1475 192.606 59.4157 192.606C59.6006 192.606 59.7841 192.614 59.9644 192.629C61.3493 192.743 63.1112 198.759 64.2347 204.645C64.8157 210.065 65.2107 214.063 65.2822 214.958C64.8347 218.235 58.9579 249.641 56.1369 264.665C55.7972 266.247 55.4621 267.785 55.1338 269.264Z" fill="#242E54"/>
<path d="M48.4307 161.485C47.3922 174.544 50.3575 182.24 51.5436 185.505C52.7299 188.769 61.9106 217.19 65.4178 225.698C65.4178 235.557 71.8179 275.923 73.8104 283.902C76.0512 285.273 83.0257 287.267 87.8811 282.781C88.0068 280.411 86.1924 225.833 86.1924 222.861C86.1924 219.891 81.8116 168.971 80.4513 160.298L48.4307 161.485Z" fill="#2D3A69"/>
<path d="M120.228 91.136C123.578 84.8119 121.694 75.2655 118.096 73.717C114.497 72.1686 116.725 77.2424 115.098 79.2224C113.47 81.1993 111.07 78.8782 111.07 81.8879C111.07 84.8976 113.126 88.5102 113.041 89.716C112.955 90.9202 120.228 91.136 120.228 91.136Z" fill="#FF9D87"/>
<path d="M34.8076 102.736V102.739C35.302 111.147 38.4365 120.371 40.1791 124.856C39.2892 132.277 40.7302 149.744 38.2373 163.467C39.4031 164.574 40.8642 165.518 42.5436 166.32C54.6157 172.078 77.8983 170.307 83.003 165.651C82.5352 164.137 81.9926 160.042 81.7525 157.776C80.8181 149.013 81.278 137.21 81.9836 135.245C82.8726 132.769 105.11 130.097 112.917 120.602C113.705 119.641 114.607 117.741 115.523 115.341C118.243 108.229 121.126 96.7146 121.768 92.2017C120.238 89.3237 114.493 87.3125 111.526 88.2268C110.954 89.1444 106.393 108.431 104.712 110.487C103.035 112.547 82.772 112.882 81.3912 112.488C80.0061 112.093 72.6921 107.641 69.7274 106.752L56.3857 105.364C55.0032 105.069 49.863 104.275 48.1845 100.221C45.7854 94.4335 50.0609 86.9633 52.5307 84.6854C55.0032 82.4123 65.2889 72.0355 54.9114 75.3976C44.5347 78.7645 35.631 88.6459 34.8423 98.0464C34.7151 99.5528 34.7118 101.129 34.8076 102.736Z" fill="#E1B029"/>
<path d="M69.4453 102.921C69.2837 104.574 70.0623 106.699 70.0623 106.699C65.1731 109.743 58.5679 107.891 56.8503 106.699C55.9244 103.393 55.9227 103.661 55.3951 102.471C54.4717 94.5348 63.8519 97.5755 65.3065 98.2379C66.7591 98.8988 69.4453 102.921 69.4453 102.921Z" fill="#FF9D87"/>
<path d="M62.697 102.447C64.5148 103.361 68.3799 104.976 69.597 104.985C69.4554 104.032 69.445 102.922 69.445 102.922C69.445 102.922 66.8131 100.467 65.5527 100.542C64.2925 100.616 62.697 102.447 62.697 102.447Z" fill="#FF7D71"/>
<path d="M72.0449 83.6881C73.762 88.7132 75.876 103.528 68.0803 102.999C60.2849 102.471 58.8322 101.677 57.1144 99.8247C55.3962 97.9738 53.8101 86.4652 58.435 85.1433C63.0595 83.8199 72.0449 83.6881 72.0449 83.6881Z" fill="#FFAD98"/>
<path d="M55.593 103.014C56.0962 103.807 59.2268 103.381 59.756 103.014C60.2841 102.648 62.4703 96.1682 63.1908 92.4184C64.5297 85.4533 72.6159 88.1023 73.6638 83.6895C74.6066 79.7192 74.6475 73.2617 72.7924 72.7541C70.8546 72.2259 68.8283 73.9897 67.4186 73.8137C66.0096 73.636 58.6987 72.7541 54.9112 75.3999C51.1235 78.0457 47.5123 84.2177 48.9219 90.7434C50.3305 97.2691 54.4239 101.176 55.593 103.014Z" fill="#2C3D4F"/>
<path d="M63.654 94.3361C60.8784 91.5594 58.3688 93.6081 59.4256 96.5199C60.4829 99.4287 62.5966 99.6283 63.191 98.438C63.7856 97.2463 63.654 94.3361 63.654 94.3361Z" fill="#FFAD98"/>
<path d="M81.7526 157.777C81.7526 157.777 79.2656 145.879 79.4128 138.311C79.5612 130.742 86.2332 131.485 95.2756 128.665C104.318 125.845 110.247 121.245 115.523 115.341C114.607 117.741 113.705 119.642 112.917 120.602C112.189 121.486 111.336 122.311 110.388 123.082C107.644 125.316 104.092 127.097 100.434 128.557C99.6046 128.889 98.7676 129.205 97.9345 129.503C90.093 132.328 82.4957 133.819 81.9837 135.246C81.5612 136.421 81.2272 141.124 81.2272 146.589C81.2272 150.251 81.3778 154.259 81.7526 157.777Z" fill="#E1B029"/>
<path d="M38.2456 163.476C38.243 163.473 38.2402 163.471 38.2378 163.467C38.2403 163.471 38.243 163.473 38.2456 163.476ZM38.2446 163.43C40.6046 150.389 39.2938 132.316 40.176 124.885C39.2942 132.314 40.725 149.728 38.2446 163.43Z" fill="#E6E6E6"/>
<path d="M44.2764 167.066C42.6819 166.306 39.3617 164.528 38.2453 163.476C38.2426 163.473 38.2401 163.472 38.2375 163.467C38.2397 163.455 38.2421 163.442 38.2443 163.431C40.7247 149.728 39.2938 132.314 40.1756 124.885C40.1767 124.875 40.178 124.867 40.1791 124.856C38.4366 120.371 35.302 111.147 34.8076 102.739C36.5712 108.929 39.48 118.718 42.0559 123.471C44.579 128.128 42.9371 152.584 44.2764 167.066Z" fill="#E1B029"/>
<path d="M97.7753 287.286C95.9179 287.214 92.7557 288.143 92.2608 288.272C89.9877 287.51 86.0033 286.096 85.6397 285.313C85.2762 284.528 88.3976 283.012 88.9106 283.233C90.366 283.858 97.7753 287.286 97.7753 287.286Z" fill="#5587ED"/>
<path d="M58.0116 287.505C56.8801 287.51 56.1673 287.511 54.6454 286.818C53.1251 286.126 49.9138 284.489 49.9138 284.489L51.5872 283.653L58.0116 287.505Z" fill="#5587ED"/>
<path d="M362.155 293.717H3.71191V292.016H362.155V293.717Z" fill="#2C3D4F"/>
<defs>
<linearGradient id="paint0_linear" x1="481.639" y1="271.359" x2="524.682" y2="232.42" gradientUnits="userSpaceOnUse">
<stop stop-color="#363F7D"/>
<stop offset="1" stop-color="#22314F"/>
</linearGradient>
<linearGradient id="paint1_linear" x1="461.568" y1="273.65" x2="502.945" y2="236.209" gradientUnits="userSpaceOnUse">
<stop stop-color="#2B3264"/>
<stop offset="1" stop-color="#1B273F"/>
</linearGradient>
<linearGradient id="paint2_linear" x1="380.399" y1="264.362" x2="427.563" y2="256.907" gradientUnits="userSpaceOnUse">
<stop stop-color="#363F7D"/>
<stop offset="1" stop-color="#22314F"/>
</linearGradient>
<linearGradient id="paint3_linear" x1="101.623" y1="288.383" x2="74.2701" y2="288.383" gradientUnits="userSpaceOnUse">
<stop stop-color="#557DED"/>
<stop offset="0.004132" stop-color="#557DED"/>
<stop offset="1" stop-color="#474FBF"/>
</linearGradient>
<linearGradient id="paint4_linear" x1="60.6145" y1="288.272" x2="37.0997" y2="288.272" gradientUnits="userSpaceOnUse">
<stop stop-color="#557DED"/>
<stop offset="0.004132" stop-color="#557DED"/>
<stop offset="1" stop-color="#474FBF"/>
</linearGradient>
</defs>
</svg>
