<svg width="425" height="320" viewBox="0 0 425 320" fill="none" xmlns="http://www.w3.org/2000/svg">
<path d="M341.099 26.0439H370.75C373.727 26.0439 376.14 28.4651 376.14 31.454V61.2222C376.14 64.2134 373.727 66.6369 370.75 66.6369H341.099C338.123 66.6369 335.708 64.2134 335.708 61.2222V31.454C335.708 28.4651 338.123 26.0439 341.099 26.0439Z" fill="#D0DAF5"/>
<path d="M356.863 55.5852C356.006 55.5852 355.313 54.8894 355.313 54.0298V51.4264C355.313 48.9846 356.908 47.2789 358.449 45.6315C359.892 44.0874 361.255 42.6309 361.255 40.676C361.255 38.2454 359.284 36.2682 356.863 36.2682C354.442 36.2682 352.473 38.2454 352.473 40.676C352.473 41.5356 351.777 42.2314 350.921 42.2314C350.067 42.2314 349.373 41.5356 349.373 40.676C349.373 36.5285 352.732 33.1575 356.863 33.1575C360.994 33.1575 364.353 36.5285 364.353 40.676C364.353 43.863 362.332 46.0243 360.71 47.7614C359.478 49.0789 358.414 50.2167 358.414 51.4264V54.0298C358.414 54.8894 357.719 55.5852 356.863 55.5852ZM356.874 61.5506C356.018 61.5506 355.318 60.8549 355.318 59.9953C355.318 59.1358 356.006 58.4378 356.863 58.4378H356.874C357.73 58.4378 358.423 59.1358 358.423 59.9953C358.423 60.8549 357.73 61.5506 356.874 61.5506Z" fill="#A5B7E8"/>
<path d="M50.8659 200.074H80.1316C83.0693 200.074 85.4517 202.466 85.4517 205.415V234.799C85.4517 237.75 83.0693 240.141 80.1316 240.141H50.8659C47.9271 240.141 45.5444 237.75 45.5444 234.799V205.415C45.5444 202.466 47.9271 200.074 50.8659 200.074Z" fill="#D0DAF5"/>
<path d="M63.3072 210.158C59.2362 210.158 55.9244 213.482 55.9244 217.569C55.9244 221.658 59.2362 224.983 63.3072 224.983C67.378 224.983 70.6901 221.658 70.6901 217.569C70.6901 213.482 67.378 210.158 63.3072 210.158ZM63.3072 228.055C57.5493 228.055 52.8647 223.351 52.8647 217.569C52.8647 211.789 57.5493 207.086 63.3072 207.086C69.0651 207.086 73.7497 211.789 73.7497 217.569C73.7497 223.351 69.0651 228.055 63.3072 228.055Z" fill="#A5B7E8"/>
<path d="M75.6778 232.307C75.2867 232.307 74.895 232.157 74.5962 231.857L68.2114 225.447C67.6138 224.847 67.6138 223.875 68.2114 223.274C68.8077 222.675 69.7767 222.675 70.3746 223.274L76.7596 229.686C77.3569 230.286 77.3569 231.258 76.7596 231.857C76.4611 232.157 76.0692 232.307 75.6778 232.307Z" fill="#A5B7E8"/>
<path d="M385.428 211.002C383.936 210.188 382.752 208.906 382.799 208.147C382.799 208.147 382.799 208.147 382.78 207.449C382.762 206.745 382.762 206.745 382.762 206.745C382.676 205.994 383.793 204.644 385.24 203.758C386.697 202.865 387.008 200.695 385.929 198.931L382.134 192.711C381.058 190.953 379 190.247 377.543 191.136C376.089 192.028 374.382 192.434 373.739 192.031C373.09 191.636 371.238 189.388 371.196 187.678C371.151 185.967 369.435 184.615 367.379 184.67L360.117 184.862C358.064 184.915 356.419 186.354 356.464 188.065C356.507 189.775 355.991 191.462 355.321 191.824C354.649 192.186 351.802 192.666 350.305 191.852C348.805 191.042 346.785 191.853 345.801 193.665L342.337 200.077C341.353 201.895 341.774 204.046 343.278 204.854C344.77 205.67 345.953 206.961 345.909 207.713C345.909 207.713 345.909 207.713 345.926 208.418C345.944 209.114 345.944 209.114 345.944 209.114C346.03 209.871 344.915 211.214 343.466 212.106C342.009 213.001 341.7 215.169 342.777 216.929L346.572 223.148C347.648 224.906 349.706 225.616 351.165 224.723C352.614 223.837 354.321 223.431 354.967 223.826C355.613 224.23 357.465 226.479 357.51 228.188C357.555 229.898 359.271 231.249 361.326 231.194L368.587 231.004C370.64 230.95 372.287 229.511 372.241 227.802C372.196 226.09 372.714 224.397 373.382 224.035C374.055 223.67 376.904 223.198 378.399 224.007C379.901 224.822 381.921 224.004 382.902 222.193L386.369 215.782C387.353 213.97 386.93 211.82 385.428 211.002Z" fill="#D0DAF5"/>
<path d="M364.608 217.682C359.245 217.824 354.782 213.572 354.645 208.189C354.502 202.802 358.738 198.323 364.101 198.183C369.461 198.042 373.924 202.294 374.064 207.678C374.205 213.062 369.969 217.542 364.608 217.682Z" fill="#A5B7E8"/>
<path d="M98.3005 50.6684C98.3005 48.4351 100.104 46.6227 102.328 46.6227H315.424C317.649 46.6227 319.448 48.4351 319.448 50.6684V206.136C319.448 208.369 317.649 210.179 315.424 210.179H102.328C100.104 210.179 98.3005 208.369 98.3005 206.136V50.6684Z" fill="white"/>
<path d="M102.329 47.421C100.548 47.421 99.0982 48.8768 99.0982 50.666V206.135C99.0982 207.924 100.548 209.379 102.329 209.379H315.425C317.205 209.379 318.653 207.924 318.653 206.135V50.666C318.653 48.8768 317.205 47.421 315.425 47.421H102.329ZM315.425 210.979H102.329C99.6687 210.979 97.5046 208.806 97.5046 206.135V50.666C97.5046 47.995 99.6687 45.8212 102.329 45.8212H315.425C318.083 45.8212 320.247 47.995 320.247 50.666V206.135C320.247 208.806 318.083 210.979 315.425 210.979Z" fill="#F2AD33"/>
<path d="M320.497 62.4007H97.459V51.2287C97.459 48.5281 99.6398 46.3407 102.329 46.3407H315.626C318.314 46.3407 320.497 48.5281 320.497 51.2287V62.4007Z" fill="#87A7FF"/>
<path d="M104.642 53.8438C104.642 52.831 105.46 52.0106 106.468 52.0106H228.687C229.696 52.0106 230.511 52.831 230.511 53.8438C230.511 54.8565 229.696 55.6769 228.687 55.6769H106.468C105.46 55.6769 104.642 54.8565 104.642 53.8438Z" fill="#D0DAF5"/>
<path d="M299.045 53.845C299.045 55.7347 300.573 57.2683 302.455 57.2683C304.337 57.2683 305.861 55.7347 305.861 53.845C305.861 51.9552 304.337 50.4236 302.455 50.4236C300.573 50.4236 299.045 51.9552 299.045 53.845Z" fill="#D0DAF5"/>
<path d="M291.255 57.2665C289.373 57.2665 287.848 55.7345 287.848 53.8432C287.848 51.9537 289.373 50.4218 291.255 50.4218C293.14 50.4218 294.664 51.9537 294.664 53.8432C294.664 55.7345 293.14 57.2665 291.255 57.2665ZM291.255 56.5331C289.777 56.5331 288.579 55.3298 288.579 53.8432C288.579 52.3585 289.777 51.1551 291.255 51.1551C292.735 51.1551 293.933 52.3585 293.933 53.8432C293.933 55.3298 292.735 56.5331 291.255 56.5331Z" fill="#D0DAF5"/>
<path d="M280.057 57.2675C278.173 57.2675 276.648 55.7343 276.648 53.8434C276.648 51.9541 278.173 50.421 280.057 50.421C281.939 50.421 283.466 51.9541 283.466 53.8434C283.466 55.7343 281.939 57.2675 280.057 57.2675ZM280.057 56.5341C278.579 56.5341 277.379 55.3293 277.379 53.8434C277.379 52.3592 278.579 51.1543 280.057 51.1543C281.539 51.1543 282.735 52.3592 282.735 53.8434C282.735 55.3293 281.539 56.5341 280.057 56.5341Z" fill="#D0DAF5"/>
<path d="M319.361 82.1752H98.3013V60.7919H319.361V82.1752Z" fill="#D9E4FF"/>
<path d="M175.01 126.738C175.01 129.672 172.621 132.071 169.699 132.071H126.291C123.369 132.071 120.979 129.672 120.979 126.738V96.2215C120.979 93.2879 123.369 90.8887 126.291 90.8887H169.699C172.621 90.8887 175.01 93.2879 175.01 96.2215V126.738Z" fill="#D9E4FF"/>
<path d="M175.012 151.108C175.012 152.834 173.605 154.246 171.887 154.246H124.105C122.386 154.246 120.98 152.834 120.98 151.108V143.128C120.98 141.402 122.386 139.99 124.105 139.99H171.887C173.605 139.99 175.012 141.402 175.012 143.128V151.108Z" fill="#D9E4FF"/>
<path d="M184.477 210.179V96.8271C184.477 93.5607 187.139 90.8879 190.394 90.8879H279.921C283.175 90.8879 285.837 93.5607 285.837 96.8271V210.179H184.477Z" fill="#D9E4FF"/>
<path d="M102.329 47.421C100.548 47.421 99.0982 48.8768 99.0982 50.666V206.135C99.0982 207.924 100.548 209.379 102.329 209.379H315.425C317.205 209.379 318.653 207.924 318.653 206.135V50.666C318.653 48.8768 317.205 47.421 315.425 47.421H102.329ZM315.425 210.979H102.329C99.6687 210.979 97.5046 208.806 97.5046 206.135V50.666C97.5046 47.995 99.6687 45.8212 102.329 45.8212H315.425C318.083 45.8212 320.247 47.995 320.247 50.666V206.135C320.247 208.806 318.083 210.979 315.425 210.979Z" fill="#A68DF8"/>
<path d="M246.443 269.694L253.46 228.71C253.702 227.308 255.099 226.122 256.518 226.122H285.336C286.753 226.122 288.152 227.308 288.393 228.71L295.411 269.694H246.443ZM301.635 290.663L290.951 228.268C290.494 225.604 288.028 223.518 285.336 223.518H256.518C253.826 223.518 251.359 225.604 250.903 228.268L240.22 290.663C240.097 291.373 240.573 292.047 241.279 292.169C241.354 292.182 241.426 292.188 241.5 292.188C242.118 292.188 242.668 291.74 242.778 291.105L246.008 272.233H295.844L299.077 291.105C299.197 291.814 299.867 292.292 300.574 292.169C301.281 292.047 301.755 291.373 301.635 290.663Z" fill="#A5B7E8"/>
<path d="M288.888 231.599L288.402 228.755L288.888 231.599ZM291.192 229.679L290.951 228.268C290.901 227.978 290.826 227.694 290.731 227.418H290.774C290.831 227.636 290.881 227.86 290.921 228.089L291.192 229.679Z" fill="#CCCCCC"/>
<path d="M288.888 231.599L288.402 228.755L288.363 228.53C288.289 228.106 288.118 227.734 287.9 227.418H290.733C290.828 227.694 290.901 227.978 290.951 228.268L291.192 229.679L291.518 231.578L288.888 231.599Z" fill="#8492BA"/>
<path d="M243.397 223.762C243.397 225.773 243.397 227.419 243.397 227.419H298.457C298.457 227.419 298.457 225.773 298.457 223.76C298.457 221.753 296.761 220.108 294.688 220.108H247.166C245.093 220.108 243.397 221.753 243.397 223.762Z" fill="#A5B7E8"/>
<path d="M125.635 269.694L132.651 228.709C132.891 227.307 134.291 226.122 135.708 226.122H164.527C165.943 226.122 167.343 227.307 167.584 228.709L174.601 269.694H125.635ZM180.824 290.663L170.14 228.267C169.685 225.604 167.22 223.518 164.527 223.518H135.708C133.017 223.518 130.55 225.604 130.094 228.267L119.409 290.663C119.288 291.373 119.762 292.047 120.469 292.169C120.543 292.182 120.617 292.187 120.69 292.187C121.311 292.187 121.859 291.74 121.968 291.105L125.199 272.232H175.035L178.266 291.105C178.388 291.814 179.055 292.292 179.766 292.169C180.471 292.047 180.946 291.373 180.824 290.663Z" fill="#A5B7E8"/>
<path d="M132.168 231.599H132.156L132.65 228.71C132.665 228.627 132.683 228.545 132.704 228.464C132.7 228.486 132.696 228.508 132.692 228.53L132.168 231.599ZM130.171 227.894C130.203 227.734 130.24 227.574 130.282 227.418H130.312C130.258 227.574 130.211 227.734 130.171 227.894Z" fill="#CCCCCC"/>
<path d="M132.156 231.599L129.539 231.578L130.136 228.089C130.146 228.023 130.158 227.958 130.171 227.894C130.211 227.734 130.258 227.574 130.312 227.418H133.157C132.949 227.718 132.783 228.067 132.704 228.464C132.683 228.545 132.665 228.627 132.65 228.71L132.156 231.599Z" fill="#8492BA"/>
<path d="M122.588 223.761C122.588 225.773 122.588 227.419 122.588 227.419H177.646C177.646 227.419 177.646 225.773 177.646 223.76C177.646 221.753 175.95 220.108 173.877 220.108H126.355C124.283 220.108 122.588 221.753 122.588 223.761Z" fill="#A5B7E8"/>
<path d="M267.614 292.185H254.743C254.705 291.713 254.752 291.23 254.875 290.756C255.482 288.282 257.911 285.93 259.579 285.93C260.925 284.215 263.144 278.142 263.168 278.078C264.309 278.586 265.897 278.968 267.557 278.968C269 278.968 270.497 278.681 271.809 277.936C272.451 277.57 273.049 277.094 273.573 276.49C274.545 278.223 275.646 281.78 276.137 284.046C276.288 284.73 276.384 285.29 276.402 285.658C276.427 286.183 269.329 292.185 267.614 292.185Z" fill="url(#paint0_linear)"/>
<path d="M254.741 292.185H267.613C269.329 292.185 276.426 286.183 276.401 285.658C276.382 285.29 276.289 285.091 276.136 284.41C273.725 286.401 268.246 290.524 267.613 290.734C266.944 290.959 258.021 290.814 254.873 290.756C254.752 291.231 254.704 291.714 254.741 292.185Z" fill="#2C3D4F"/>
<path d="M259.578 285.93C261.023 285.839 262.827 286.201 263.732 286.926C265.265 285.386 269.058 281.578 269.058 281.578C269.058 281.578 265.753 279.286 262.259 280.431L259.578 285.93Z" fill="#5587ED"/>
<path d="M215.302 292.185C215.302 291.554 215.282 290.992 215.347 290.463C215.473 289.469 215.906 288.598 217.38 287.652C219.638 286.202 228.605 281.7 228.605 281.7L229.253 279.911C230.243 280.611 232.311 281.785 235.057 281.785C235.47 281.785 235.898 281.759 236.339 281.7C237.266 281.578 238.259 281.314 239.299 280.854C239.339 282.102 238.613 287.03 238.104 289.783C237.949 290.643 237.812 291.293 237.724 291.55C236.281 292.003 216.658 292.185 215.302 292.185Z" fill="url(#paint1_linear)"/>
<path d="M218.509 286.945C218.509 286.945 222.795 286.734 224.718 287.622C226.1 287.059 230.923 284.206 230.923 284.206C230.923 284.206 231.133 282.006 228.606 281.701L218.509 286.945Z" fill="#5587ED"/>
<path d="M228.607 279.401C228.607 279.401 231.705 282.314 236.339 281.7C237.625 281.53 239.034 281.088 240.526 280.236C242.151 275.956 250.642 248.112 252.353 243.862C254.067 239.613 252.913 238.241 256.742 234.252C260.051 230.803 275.885 214.269 280.231 206.686C280.917 205.497 281.313 204.496 281.338 203.758C281.519 198.321 281.338 194.334 281.338 194.334C281.338 194.334 262.737 194.933 261.654 195.266C260.571 195.6 258.404 198.138 258.404 198.138C257.321 202.672 245.136 213.239 240.522 221.58C238.034 226.081 237.455 232.075 236.372 237.153C235.288 242.23 228.607 279.401 228.607 279.401Z" fill="#2D3A69"/>
<path d="M239.3 280.854C239.701 280.678 240.11 280.473 240.524 280.236C241.029 278.909 242.191 275.318 243.609 270.866L243.507 271.466C242.137 275.606 241.017 278.941 240.524 280.236C240.11 280.473 239.701 280.678 239.3 280.854ZM248.976 254.904L249.325 252.864C250.702 248.578 251.836 245.146 252.353 243.862C253.328 241.443 253.374 239.958 253.94 238.39C253.951 238.517 253.963 238.643 253.975 238.772C253.375 240.736 253.349 242.662 252.353 245.131C251.794 246.522 250.509 250.299 248.976 254.904Z" fill="#CCCCCC"/>
<path d="M243.507 271.467L243.609 270.866C245.382 265.294 247.554 258.374 249.325 252.864L248.976 254.904C247.239 260.12 245.185 266.397 243.507 271.467Z" fill="#8492BA"/>
<path d="M236.338 281.7C239.069 273.07 249.637 239.985 251.298 234.433C253.202 228.068 255.515 221.44 259.486 218.538C263.46 215.638 274.181 206.628 274.181 206.628C274.181 206.628 274.25 206.63 274.375 206.633C272.159 208.877 266.87 214.17 263.132 217.39C258.291 221.559 254.973 225.911 253.888 233.709C253.732 234.838 253.764 236.447 253.939 238.39C253.374 239.958 253.328 241.443 252.354 243.862C251.837 245.146 250.702 248.578 249.325 252.864C247.555 258.374 245.383 265.294 243.611 270.865C242.192 275.318 241.028 278.909 240.525 280.236C240.11 280.473 239.702 280.678 239.299 280.854C238.259 281.313 237.266 281.578 236.338 281.7Z" fill="#242E54"/>
<path d="M262.557 277.77C264.53 278.902 268.697 279.702 271.808 277.936C272.686 277.437 273.48 276.732 274.116 275.775C274.116 271.967 269.962 238.061 268.516 234.977C268.516 234.977 284.951 225.882 291.579 220.622C298.207 215.364 297.592 203.397 295.968 197.294C295.968 197.294 293.451 196.872 291.012 196.282C289.754 195.976 288.52 195.626 287.66 195.266C285.132 194.208 279.065 197.294 279.065 197.294L275.415 205.573C275.415 205.573 267.975 213.219 263.132 217.39C258.291 221.559 254.973 225.911 253.889 233.709C252.806 241.505 260.752 272.15 262.557 277.77Z" fill="#2D3A69"/>
<path d="M271.808 277.936C270.678 267.905 265.148 233.527 265.148 233.527C265.148 233.527 278.75 223.404 285.853 218.81C291.846 214.932 291.755 207.27 291.179 201.582H296.774C296.941 202.958 297.04 204.434 297.04 205.946C297.04 207.079 296.984 208.234 296.856 209.379C296.798 209.916 296.723 210.45 296.632 210.979C296.023 214.5 294.676 217.818 292.184 220.108C291.989 220.286 291.786 220.458 291.578 220.623C289.113 222.579 285.29 225.066 281.461 227.418C274.999 231.39 268.517 234.977 268.517 234.977C269.962 238.061 274.116 271.967 274.116 275.775C273.479 276.732 272.685 277.437 271.808 277.936ZM290.866 198.003C290.888 197.583 290.93 196.986 291.012 196.282C293.45 196.873 295.967 197.294 295.967 197.294C296.027 197.522 296.087 197.759 296.146 198.003H290.866Z" fill="#242E54"/>
<path d="M247.435 180.367C247.54 180.418 247.435 184.434 247.435 184.434C247.435 184.434 240.253 190.16 239.621 191.975C238.99 193.787 239.621 195.781 239.621 195.781C239.621 195.781 249.119 195.485 252.352 194.965C255.587 194.447 259.306 188.98 259.395 187.122C259.486 185.265 259.486 180.37 259.486 180.37C259.486 180.37 254.43 173.389 252.443 175.656C250.456 177.922 247.435 180.367 247.435 180.367Z" fill="#FF9D87"/>
<path d="M247.482 181.093C249.645 182.818 257.237 185.082 258.357 183.996C258.471 182.815 258.33 178.909 258.33 178.909C258.33 178.909 255.155 177.467 252.943 178.285C250.728 179.1 247.482 180.33 247.482 180.33V181.093Z" fill="#FF7D71"/>
<path d="M258.284 145.194C258.284 145.194 253.466 148.213 252.866 149.786C252.262 151.358 247.327 156.071 246.605 179.886C250.577 182.546 257.559 181.457 259.486 180.369C261.773 173.116 263.701 155.105 262.977 152.444C262.255 149.786 258.284 145.194 258.284 145.194Z" fill="#3EC2BC"/>
<path d="M257.536 161.55L255.854 181.284C255.854 181.284 257.536 181.284 258.864 180.75C260.192 180.218 257.536 161.55 257.536 161.55Z" fill="#2FAFA5"/>
<path d="M295.967 197.293C295.727 192.215 301.385 150.632 301.385 150.632C298.737 144.95 285.613 140.599 281.882 139.511C281.882 139.511 276.302 139.238 273.452 139.511C270.606 139.783 260.933 143.742 258.285 145.192C255.273 150.994 257.56 158.61 257.802 166.105C258.043 173.599 259.126 191.853 258.405 198.138C267.073 200.894 283.688 200.8 295.967 197.293Z" fill="#3EC2BC"/>
<path d="M291.583 163.718C291.272 167.494 292.347 177.683 291.583 179.344C290.82 181.004 277.017 185.99 275.122 187.169C273.226 188.346 269.091 185.356 265.808 186.444L258.64 193.151C258.64 193.151 258.494 196.778 258.403 198.138C261.743 199.862 283.324 201.674 295.966 197.293C296.085 194.417 296.435 190.515 296.435 190.515C296.435 190.515 297.051 170.849 295.605 169.037C294.16 167.222 291.583 163.718 291.583 163.718Z" fill="#2FAFA5"/>
<path d="M285.371 134.434C284.167 136.611 283.534 139.39 284.135 142.533C279.8 147.611 271.855 145.555 270.17 143.379C270.17 140.238 271.767 135.279 271.767 135.279C271.767 135.279 275.737 126.928 278.87 126.94C282.002 126.95 286.652 127.664 286.652 127.664L285.371 134.434Z" fill="#FFAD98"/>
<path d="M270.834 138.718C272.431 139.27 276.703 138.785 279.231 135.885C279.231 135.885 278.269 132.62 275.561 133.951C272.85 135.279 271.144 137.462 271.144 137.462L270.834 138.718Z" fill="#FF7D71"/>
<path d="M267.433 116.666C265.265 128.753 264.904 142.654 279.231 135.885C284.768 131.533 288.02 127.544 286.094 122.708C284.166 117.874 279.711 113.28 275.739 114.368C271.767 115.455 267.433 116.666 267.433 116.666Z" fill="#FFAD98"/>
<path d="M267.227 117.858C267.227 117.858 269.723 116.905 276.486 116.24C283.249 115.575 283.144 121.075 282.618 124.36C279.713 118.114 272.31 122.284 266.923 119.802L267.227 117.858Z" fill="#FF7D71"/>
<path d="M285.372 134.434C281.278 130.202 284.048 122.707 281.037 120.29C278.028 117.873 268.036 121.983 265.266 117.51C262.498 113.037 265.266 107.961 265.266 107.961C265.266 107.961 270.657 110.378 274.703 108.443C278.751 106.51 286.128 106.63 286.654 113.159C295.485 115.938 285.372 134.434 285.372 134.434Z" fill="#2C3D4F"/>
<path d="M281.882 124.885C281.882 124.885 284.505 122.709 285.61 124.037C286.714 125.366 285.195 131.41 282.572 130.082C281.882 127.665 281.882 124.885 281.882 124.885Z" fill="#FFAD98"/>
<path d="M305.961 178.643C306.441 181.91 306.893 188.165 304.997 190.16C303.101 192.155 297.575 193.061 291.578 193.514C285.584 193.969 273.393 194.965 271.587 195.237C269.782 195.509 267.524 193.786 265.809 193.786C264.092 193.786 259.837 194.797 258.624 194.246C257.412 193.696 260.439 186.734 265.809 186.443C267.519 186.35 272.22 188.527 273.031 188.801C273.844 189.073 293.529 181.806 295.066 181.54C295.515 180.279 294.612 176.379 294.612 176.379C294.612 176.379 300.572 172.843 302.107 173.751C303.642 174.657 305.961 178.643 305.961 178.643Z" fill="#FF9D87"/>
<path d="M295.155 179.743C298.164 182.208 304.088 181.084 304.904 184.434C305.255 185.866 305.718 188.528 304.995 190.16C304.995 190.16 306.794 188.983 306.377 183.814C305.959 178.643 305.959 178.643 305.959 178.643C305.959 178.643 303.732 176.47 301.383 176.562C299.036 176.652 294.786 177.215 294.786 177.215L295.155 179.743Z" fill="#FF7D71"/>
<path d="M301.384 150.633C304.033 156.314 306.802 169.49 307.283 178.073C303.068 180.37 295.123 179.04 293.438 178.073C292.835 173.721 291.27 166.492 291.632 162.794C291.632 162.794 293.812 145.184 299.886 148.512C300.757 149.564 301.384 150.633 301.384 150.633Z" fill="#3EC2BC"/>
<path d="M246.604 185.219C246.604 185.219 250.006 184.357 252.353 185.219C251.088 184.358 248.749 184.149 247.436 184.434L246.604 185.219Z" fill="#FF7D71"/>
<path d="M295.064 181.541C295.064 181.541 298.513 182.187 300.285 183.955C299.497 182.643 297.457 181.469 296.145 181.178L295.064 181.541Z" fill="#FF7D71"/>
<path d="M215.304 292.185C216.658 292.185 236.281 292.003 237.725 291.55C237.813 291.293 237.948 290.644 238.105 289.783L215.348 290.463C215.282 290.992 215.304 291.554 215.304 292.185Z" fill="#2C3D4F"/>
<path d="M165.461 293.399C160.655 293.399 157.197 289.654 155.859 288.382C154.497 287.089 154.21 283.961 154.21 283.961L152.943 285.809L148.191 282.528C148.159 280.023 151.006 275.42 152.984 273.246C153.969 275.313 155.581 277.934 159.933 278.49C160.747 278.615 161.38 278.654 161.851 278.654C162.436 278.654 162.772 278.595 162.902 278.566C163.256 282.418 166.896 289.119 167.505 290.739C168.218 292.637 168.344 293.399 165.461 293.399Z" fill="url(#paint2_linear)"/>
<path d="M162.961 278.553C155.847 279.056 153.925 275.31 152.772 272.788C158.347 263.878 165.459 238.061 165.774 234.252C162.466 230.803 146.631 214.269 142.287 206.687C141.6 205.497 141.204 204.496 141.177 203.759C140.997 198.32 141.177 194.335 141.177 194.335C141.177 194.335 159.777 194.933 160.862 195.266C161.945 195.6 164.113 198.139 164.113 198.139C167.504 201.272 190.642 222.911 185.759 235.824C183.924 240.678 171.472 267.012 162.961 278.553Z" fill="#49437B"/>
<path d="M162.9 278.566H165.246V275.254H162.9V278.566Z" fill="#CCCCCC"/>
<path d="M161.851 278.653C161.38 278.653 160.747 278.615 159.933 278.49C160.478 278.561 161.066 278.598 161.701 278.598C162.083 278.598 162.482 278.584 162.9 278.557C162.9 278.56 162.9 278.563 162.901 278.566C162.772 278.595 162.436 278.653 161.851 278.653Z" fill="url(#paint3_linear)"/>
<path d="M161.254 251.581C161.104 251.287 160.948 250.991 160.786 250.692C160.986 250.114 161.225 249.258 161.522 248.305C161.662 248.636 161.805 248.973 161.95 249.311C161.725 250.058 161.493 250.817 161.254 251.581Z" fill="#CCCCCC"/>
<path d="M161.699 278.598C161.065 278.598 160.477 278.562 159.932 278.491C159.923 278.49 159.913 278.488 159.903 278.486C163.32 273.388 168.244 265.225 161.252 251.581C161.492 250.818 161.724 250.059 161.949 249.311C164.288 254.745 167.372 261.109 170.168 266.741C168.512 269.823 166.83 272.78 165.245 275.254C164.46 276.448 163.694 277.555 162.96 278.553C162.94 278.554 162.92 278.555 162.899 278.557C162.481 278.585 162.082 278.598 161.699 278.598ZM179.552 248.04C176.382 238.431 173.465 230.121 172.816 229.095C170.127 224.834 154.488 211.377 151.052 208.444C154.467 211.07 169.961 223.034 172.867 226.306C174.935 228.634 178.964 239.104 180.868 245.469C180.571 245.996 180.122 246.882 179.552 248.04Z" fill="#3A3662"/>
<path d="M204.192 292.67C203.328 292.67 192.225 292.67 190.352 292.67C188.476 292.67 184.8 290.426 184.8 290.426V292.67H179.033C178.841 292.396 178.669 292.062 178.518 291.682C178.4 291.386 178.294 291.062 178.2 290.718C177.958 289.831 177.791 288.803 177.692 287.747C177.476 285.481 177.564 283.082 177.851 281.655C178.612 282.074 180.04 282.499 181.735 282.499C181.741 282.499 181.748 282.499 181.756 282.499C183.768 282.493 186.148 281.882 188.228 279.952C189.875 283.209 201.662 288.734 203.255 289.846C204.915 291.004 205.057 292.67 204.192 292.67Z" fill="url(#paint4_linear)"/>
<path d="M130.938 220.624C137.566 225.883 158.201 238.06 158.201 238.06C158.632 245.608 175.951 277.609 177.311 281.234C177.638 281.723 179.455 282.505 181.755 282.499C183.964 282.493 186.618 281.757 188.829 279.346C188.428 274.25 174.341 231.51 172.817 229.094C169.792 224.301 150.385 207.877 150.385 207.877L143.453 197.294C143.453 197.294 137.386 194.207 134.857 195.268C133.998 195.626 132.76 195.977 131.507 196.281C129.066 196.874 126.55 197.294 126.55 197.294C124.923 203.398 124.31 215.363 130.938 220.624Z" fill="#49437B"/>
<path d="M181.734 282.499C179.444 282.499 177.638 281.722 177.313 281.233C176.771 279.79 173.698 273.847 170.169 266.74C167.373 261.108 164.289 254.744 161.951 249.31C159.831 244.382 158.323 240.219 158.201 238.059C158.201 238.059 137.567 225.882 130.94 220.624C126.789 217.331 125.478 211.41 125.477 205.945C125.475 204.558 125.559 203.202 125.703 201.926C126.07 201.71 126.48 201.582 126.885 201.582H131.337C130.76 207.273 130.669 214.932 136.663 218.808C143.769 223.402 154.879 230.166 160.96 235.04C164.25 239.72 175.842 272.548 181.757 282.499C181.749 282.499 181.742 282.499 181.734 282.499ZM126.365 198.028C126.426 197.775 126.487 197.53 126.55 197.294C126.55 197.294 129.067 196.874 131.507 196.28C131.588 196.986 131.63 197.583 131.65 198.003H126.885C126.711 198.003 126.538 198.012 126.365 198.028Z" fill="#3A3662"/>
<path d="M205.106 158.914C205.974 156.662 210.372 149.714 210.588 155.577C210.516 156.228 215.994 149.497 217.436 151.451C218.877 153.406 220.031 158.834 217.003 161.729C213.976 164.624 208.93 164.19 207.632 165.71C206.335 167.23 204.1 163.177 204.387 161.729C204.676 160.282 205.106 158.914 205.106 158.914Z" fill="#FF9D87"/>
<path d="M205.767 157.536C207.416 158.834 209.328 161.186 209.201 164.86C209.006 164.923 208.334 165.198 208.334 165.198C208.334 165.198 205.758 164.698 205.469 163.394L205.106 158.914L205.767 157.536Z" fill="#FF7D71"/>
<path d="M181.343 169.714C177.057 160.436 172.982 153.791 169.65 149.786C168.575 148.494 164.233 145.193 164.233 145.193C164.233 145.193 160.259 149.786 159.537 152.445C158.815 155.105 161.042 163.02 165.964 170.102C169.522 175.216 175.385 183.322 179.806 183.322C185.573 183.322 206.527 168.557 208.257 166.241C208.738 163.924 207.008 159.389 204.605 158.713C201.241 160.644 185.382 166.24 181.343 169.714Z" fill="#8B50FF"/>
<path d="M126.55 197.293C126.791 192.215 121.133 150.633 121.133 150.633C123.782 144.95 136.904 140.598 140.637 139.51C140.637 139.51 146.216 139.238 149.063 139.51C151.912 139.783 161.584 143.742 164.234 145.192C167.243 150.994 164.955 158.61 164.715 166.105C164.474 173.599 163.391 191.853 164.114 198.138C155.445 200.894 138.83 200.8 126.55 197.293Z" fill="#8B50FF"/>
<path d="M130.933 163.718C131.245 167.494 131.329 176.976 132.092 178.636C132.855 180.295 146.929 183.034 150.144 183.73C152.324 184.202 153.168 183.222 156.452 184.31L157.153 189.43L163.875 193.151C163.875 193.151 164.022 196.778 164.113 198.138C160.773 199.862 139.191 201.674 126.55 197.293C126.432 194.417 126.081 190.515 126.081 190.515C126.081 190.515 125.467 170.849 126.91 169.037C128.357 167.222 130.933 163.718 130.933 163.718Z" fill="#6642CC"/>
<path d="M137.146 134.434C138.349 136.61 138.982 139.39 138.381 142.534C142.714 147.61 150.661 145.555 152.345 143.379C152.345 140.237 150.749 135.28 150.749 135.28C150.749 135.28 146.778 126.928 143.646 126.94C140.514 126.95 135.865 127.663 135.865 127.663L137.146 134.434Z" fill="#FFAD98"/>
<path d="M151.68 138.719C150.085 139.27 145.813 138.786 143.284 135.885C143.284 135.885 144.248 132.621 146.957 133.952C149.665 135.281 151.373 137.463 151.373 137.463L151.68 138.719Z" fill="#FF7D71"/>
<path d="M155.082 116.666C157.25 128.753 157.61 142.654 143.283 135.885C137.746 131.533 134.495 127.545 136.421 122.709C138.349 117.874 142.802 113.279 146.775 114.368C150.748 115.456 155.082 116.666 155.082 116.666Z" fill="#FFAD98"/>
<path d="M155.289 117.858C155.289 117.858 152.795 116.906 146.031 116.241C139.268 115.576 139.372 121.076 139.898 124.36C142.804 118.114 150.207 122.285 155.594 119.802L155.289 117.858Z" fill="#FF7D71"/>
<path d="M131.785 125.094C132.794 127.861 134.51 130.964 137.146 134.436C140.62 134.322 139.367 126.82 140.303 122.622C140.53 121.595 140.891 120.767 141.481 120.291C144.49 117.875 153.437 121.846 156.288 118.557C156.032 107.515 151.679 105.489 146.717 107.37C141.758 109.252 135.99 107.37 132.818 111.858C130.666 114.907 129.642 119.234 131.785 125.094Z" fill="#2C3D4F"/>
<path d="M150.586 186.96C158.481 181.844 156.796 185.671 158.965 185.882C161.134 186.093 166.813 186.175 166.673 187.629C166.533 189.082 165.652 193.964 163.256 194.186C160.859 194.407 154.514 194.506 153.361 194.547C152.21 194.589 150.144 193.36 150.144 193.36L150.586 186.96Z" fill="#FF9D87"/>
<path d="M152.232 185.94C152.232 185.94 153.772 190.324 151.997 194.25C151.211 193.918 150.144 193.36 150.144 193.36L150.587 186.96L152.232 185.94Z" fill="#FF7D71"/>
<path d="M129.787 182.329C130.23 177.958 131.889 166.166 131.395 162.483C131.395 162.483 128.579 144.965 122.629 148.513C121.798 149.595 121.21 150.686 121.21 150.686C118.767 156.46 116.435 172.198 116.245 180.792C116.111 186.821 117.429 191.696 122.803 192.658C128.175 193.622 147.137 195.314 150.292 194.802C152.078 192.314 152.346 187.784 150.809 185.176C143.437 184.757 133.241 182.121 129.787 182.329Z" fill="#8B50FF"/>
<path d="M131.785 125.094C132.793 127.861 134.509 130.965 137.145 134.435C140.62 134.323 139.367 126.82 140.302 122.622C137.997 122.594 133.978 122.895 131.785 125.094Z" fill="#4C5A69"/>
<path d="M140.636 124.885C140.636 124.885 138.01 122.708 136.907 124.038C135.802 125.367 137.322 131.411 139.946 130.082C140.636 127.663 140.636 124.885 140.636 124.885Z" fill="#FFAD98"/>
<path d="M165.066 160.75L164.667 168.349L168.518 173.817L165.066 160.75Z" fill="#6642CC"/>
<path d="M210.633 166.459L219.449 195.637H260.898L252.079 166.459C251.767 165.426 250.634 164.582 249.558 164.582H212.021C210.946 164.582 210.321 165.426 210.633 166.459Z" fill="#5481FF"/>
<path d="M247.992 164.582C249.067 164.582 250.2 165.426 250.513 166.458L258.373 192.461L259.33 195.636H281.67C281.67 194.223 280.499 192.849 277.956 192.849C275.783 192.849 259.945 192.48 259.945 192.48L252.081 166.458C251.768 165.426 250.635 164.582 249.56 164.582H247.992Z" fill="#474FBF"/>
<path d="M106.291 292.675C106.182 292.675 106.071 292.665 105.959 292.643C104.992 292.462 104.355 291.526 104.537 290.554L120.91 202.982C121.432 200.19 124.056 198.004 126.885 198.004L297.918 198.003C300.745 198.003 303.369 200.19 303.892 202.98L320.264 290.554C320.445 291.526 319.808 292.462 318.841 292.643C317.874 292.825 316.942 292.186 316.761 291.215L300.387 203.641C300.184 202.545 299.028 201.582 297.918 201.582L126.885 201.583C125.774 201.583 124.619 202.546 124.414 203.642L108.04 291.215C107.88 292.074 107.131 292.675 106.291 292.675Z" fill="#A5B7E8"/>
<path d="M300.383 203.61H301.461V209.379H300.383" fill="#CCCCCC"/>
<path d="M301.658 210.44L301.46 209.379L301.658 210.44Z" fill="#8571C6"/>
<path d="M303.879 202.918C303.632 201.669 302.963 200.545 302.044 199.687L303.235 199.463L303.879 202.918Z" fill="#CCCCCC"/>
<path d="M301.659 210.44L301.46 209.379L300.387 203.641C300.387 203.631 300.383 203.62 300.381 203.611L299.729 200.124L302.043 199.688C302.961 200.546 303.631 201.67 303.88 202.918L305.285 210.438L301.659 210.44Z" fill="#8492BA"/>
<path d="M119.714 209.379H119.677L121.531 199.463L122.752 199.694C121.821 200.564 121.148 201.71 120.91 202.982L119.714 209.379Z" fill="#CCCCCC"/>
<path d="M119.516 210.438H119.479L119.677 209.379H119.714L119.516 210.438Z" fill="#8571C6"/>
<path d="M123.106 210.439L119.516 210.438L119.714 209.379L120.91 202.982C121.148 201.71 121.821 200.564 122.752 199.694L125.034 200.124L123.106 210.439Z" fill="#8492BA"/>
<path d="M105.662 199.292C105.662 201.305 105.662 202.948 105.662 202.948H319.139C319.139 202.948 319.139 201.305 319.139 199.292C319.139 198.794 319.036 198.319 318.848 197.885C318.278 196.567 316.931 195.638 315.37 195.638H109.428C107.871 195.638 106.525 196.567 105.953 197.885C105.765 198.319 105.662 198.794 105.662 199.292Z" fill="#A5B7E8"/>
<path d="M105.954 197.885H318.849C318.277 196.567 316.932 195.638 315.371 195.638H109.428C107.871 195.638 106.525 196.567 105.954 197.885Z" fill="#B8C8F5"/>
<path d="M368.111 91.0399V131.245C368.111 135.234 364.858 138.499 360.887 138.499H307.252C303.278 138.499 300.028 135.234 300.028 131.245V91.0399C300.028 87.0495 303.278 83.7863 307.252 83.7863H360.887C364.858 83.7863 368.111 87.0495 368.111 91.0399Z" fill="#49437B"/>
<path d="M368.111 91.04V92.7384H300.028V91.04C300.028 87.0495 303.278 83.7863 307.252 83.7863H360.887C364.858 83.7863 368.111 87.0495 368.111 91.04Z" fill="#5F58A1"/>
<path d="M359.271 88.6575C359.271 89.5031 359.954 90.1887 360.796 90.1887C361.636 90.1887 362.318 89.5031 362.318 88.6575C362.318 87.812 361.636 87.1264 360.796 87.1264C359.954 87.1264 359.271 87.812 359.271 88.6575Z" fill="#FFECC5"/>
<path d="M352.959 88.6583C352.959 89.5023 353.643 90.1887 354.484 90.1887C355.324 90.1887 356.008 89.5023 356.008 88.6583C356.008 87.812 355.324 87.1272 354.484 87.1272C353.643 87.1272 352.959 87.812 352.959 88.6583Z" fill="#FFECC5"/>
<path d="M337.402 88.9944H306.697C306.361 88.9944 306.092 88.7216 306.092 88.3863C306.092 88.0487 306.361 87.7767 306.697 87.7767H337.402C337.738 87.7767 338.01 88.0487 338.01 88.3863C338.01 88.7216 337.738 88.9944 337.402 88.9944Z" fill="#FFECC5"/>
<path d="M316.451 100.058H306.155C305.821 100.058 305.548 99.784 305.548 99.4479C305.548 99.1119 305.821 98.8391 306.155 98.8391H316.451C316.786 98.8391 317.058 99.1119 317.058 99.4479C317.058 99.784 316.786 100.058 316.451 100.058Z" fill="#FFECC5"/>
<path d="M326.566 104.954H311.575C311.24 104.954 310.967 104.682 310.967 104.345C310.967 104.009 311.24 103.736 311.575 103.736H326.566C326.899 103.736 327.173 104.009 327.173 104.345C327.173 104.682 326.899 104.954 326.566 104.954Z" fill="#FFECC5"/>
<path d="M349.325 104.954H331.082C330.745 104.954 330.475 104.682 330.475 104.346C330.475 104.01 330.745 103.736 331.082 103.736H349.325C349.659 103.736 349.932 104.01 349.932 104.346C349.932 104.682 349.659 104.954 349.325 104.954Z" fill="#4BCFB9"/>
<path d="M333.972 109.85H317.898C317.56 109.85 317.29 109.578 317.29 109.242C317.29 108.906 317.56 108.632 317.898 108.632H333.972C334.308 108.632 334.579 108.906 334.579 109.242C334.579 109.578 334.308 109.85 333.972 109.85Z" fill="#4BCFB9"/>
<path d="M347.88 109.85H337.945C337.612 109.85 337.34 109.578 337.34 109.242C337.34 108.906 337.612 108.632 337.945 108.632H347.88C348.216 108.632 348.487 108.906 348.487 109.242C348.487 109.578 348.216 109.85 347.88 109.85Z" fill="#FFECC5"/>
<path d="M361.428 109.851H351.494C351.158 109.851 350.887 109.578 350.887 109.242C350.887 108.906 351.158 108.633 351.494 108.633H361.428C361.763 108.633 362.034 108.906 362.034 109.242C362.034 109.578 361.763 109.851 361.428 109.851Z" fill="#FFECC5"/>
<path d="M328.192 114.746H317.896C317.561 114.746 317.291 114.475 317.291 114.139C317.291 113.801 317.561 113.53 317.896 113.53H328.192C328.526 113.53 328.799 113.801 328.799 114.139C328.799 114.475 328.526 114.746 328.192 114.746Z" fill="#FFECC5"/>
<path d="M346.435 114.747H331.804C331.47 114.747 331.197 114.475 331.197 114.139C331.197 113.802 331.47 113.53 331.804 113.53H346.435C346.771 113.53 347.042 113.802 347.042 114.139C347.042 114.475 346.771 114.747 346.435 114.747Z" fill="#B58AF2"/>
<path d="M335.055 119.644H324.759C324.423 119.644 324.154 119.372 324.154 119.035C324.154 118.699 324.423 118.427 324.759 118.427H335.055C335.392 118.427 335.663 118.699 335.663 119.035C335.663 119.372 335.392 119.644 335.055 119.644Z" fill="#B58AF2"/>
<path d="M342.461 119.644H338.126C337.791 119.644 337.52 119.372 337.52 119.035C337.52 118.699 337.791 118.427 338.126 118.427H342.461C342.796 118.427 343.068 118.699 343.068 119.035C343.068 119.372 342.796 119.644 342.461 119.644Z" fill="#FFECC5"/>
<path d="M328.192 124.541H317.896C317.561 124.541 317.291 124.267 317.291 123.931C317.291 123.595 317.561 123.322 317.896 123.322H328.192C328.526 123.322 328.799 123.595 328.799 123.931C328.799 124.267 328.526 124.541 328.192 124.541Z" fill="#4BCFB9"/>
<path d="M350.229 124.541H331.262C330.929 124.541 330.657 124.267 330.657 123.931C330.657 123.595 330.929 123.322 331.262 123.322H350.229C350.564 123.322 350.835 123.595 350.835 123.931C350.835 124.267 350.564 124.541 350.229 124.541Z" fill="#B58AF2"/>
<path d="M328.192 129.437H317.896C317.561 129.437 317.291 129.165 317.291 128.829C317.291 128.491 317.561 128.219 317.896 128.219H328.192C328.526 128.219 328.799 128.491 328.799 128.829C328.799 129.165 328.526 129.437 328.192 129.437Z" fill="#FFECC5"/>
<path d="M321.869 134.334H311.574C311.239 134.334 310.968 134.062 310.968 133.725C310.968 133.389 311.239 133.117 311.574 133.117H321.869C322.205 133.117 322.476 133.389 322.476 133.725C322.476 134.062 322.205 134.334 321.869 134.334Z" fill="#FFECC5"/>
<path d="M335.417 134.334H325.122C324.786 134.334 324.514 134.062 324.514 133.725C324.514 133.389 324.786 133.117 325.122 133.117H335.417C335.753 133.117 336.023 133.389 336.023 133.725C336.023 134.062 335.753 134.334 335.417 134.334Z" fill="#4BCFB9"/>
<path d="M69.9693 61.6197H68.3757V52.9547H69.9693V61.6197Z" fill="#5A6876"/>
<path d="M69.1728 63.2774C68.9689 63.2774 68.765 63.2003 68.6095 63.043L65.336 59.7566C65.0247 59.4451 65.0247 58.9378 65.336 58.6264C65.6468 58.3133 66.1514 58.3133 66.4628 58.6264L69.1728 61.346L71.8826 58.6264C72.1937 58.3133 72.6979 58.3133 73.0092 58.6264C73.3203 58.9378 73.3203 59.4451 73.0092 59.7566L69.7363 63.043C69.5805 63.2003 69.3766 63.2774 69.1728 63.2774Z" fill="#5A6876"/>
<path d="M69.9693 94.6447H68.3757V85.9791H69.9693V94.6447Z" fill="#5A6876"/>
<path d="M69.1729 96.3024C68.9689 96.3024 68.765 96.224 68.6094 96.068L65.3359 92.7807C65.0248 92.4695 65.0248 91.9615 65.3359 91.6503C65.6466 91.3375 66.1514 91.3375 66.4627 91.6503L69.1729 94.3704L71.8826 91.6503C72.1937 91.3375 72.698 91.3375 73.0091 91.6503C73.3204 91.9615 73.3204 92.4695 73.0091 92.7807L69.7362 96.068C69.5806 96.224 69.3767 96.3024 69.1729 96.3024Z" fill="#5A6876"/>
<path d="M69.9685 142.355H68.375V133.69H69.9685V142.355Z" fill="#5A6876"/>
<path d="M69.1728 144.013C68.9689 144.013 68.765 143.935 68.6093 143.778L65.3359 140.493C65.0248 140.179 65.0248 139.674 65.3359 139.362C65.6466 139.048 66.1513 139.048 66.4625 139.362L69.1728 142.082L71.8823 139.362C72.1936 139.048 72.6978 139.048 73.0091 139.362C73.3203 139.674 73.3203 140.179 73.0091 140.493L69.7361 143.778C69.5804 143.935 69.3766 144.013 69.1728 144.013Z" fill="#5A6876"/>
<path d="M87.7711 50.2853C87.7711 51.7526 86.5751 52.9532 85.1139 52.9532H53.2304C51.769 52.9532 50.5732 51.7526 50.5732 50.2853V34.8715C50.5732 33.4042 51.769 32.2036 53.2304 32.2036H85.1139C86.5751 32.2036 87.7711 33.4042 87.7711 34.8715V50.2853Z" fill="#44C9C3"/>
<path d="M54.5593 118.297H38.8433C38.4033 118.297 38.0466 117.94 38.0466 117.498V75.9268C38.0466 75.4836 38.4033 75.1261 38.8433 75.1261H47.474C47.9141 75.1261 48.2708 75.4836 48.2708 75.9268C48.2708 76.3685 47.9141 76.726 47.474 76.726H39.6401V116.697H54.5593C54.9996 116.697 55.356 117.057 55.356 117.498C55.356 117.94 54.9996 118.297 54.5593 118.297Z" fill="#5A6876"/>
<path d="M45.0548 80.0127C44.851 80.0127 44.6471 79.9353 44.4915 79.7785C44.1803 79.4663 44.1803 78.9592 44.4915 78.6469L47.2011 75.9255L44.4915 73.2055C44.1803 72.8934 44.1803 72.3862 44.4915 72.074C44.8021 71.7618 45.3069 71.7618 45.6181 72.074L48.8911 75.3605C49.2023 75.6727 49.2023 76.1783 48.8911 76.492L45.6181 79.7785C45.4627 79.9353 45.2587 80.0127 45.0548 80.0127Z" fill="#5A6876"/>
<path d="M87.7712 83.7792C87.7712 85.2472 86.5752 86.4472 85.114 86.4472H53.2304C51.7692 86.4472 50.5735 85.2472 50.5735 83.7792V68.3669C50.5735 66.9004 51.7692 65.6991 53.2304 65.6991H85.114C86.5752 65.6991 87.7712 66.9004 87.7712 68.3669V83.7792Z" fill="#44C9C3"/>
<path d="M87.7711 165.146C87.7711 166.612 86.5752 167.814 85.1139 167.814H53.2304C51.7691 167.814 50.5735 166.612 50.5735 165.146V149.732C50.5735 148.265 51.7691 147.065 53.2304 147.065H85.1139C86.5752 147.065 87.7711 148.265 87.7711 149.732V165.146Z" fill="#44C9C3"/>
<path d="M71.3982 133.567C70.174 134.797 68.1702 134.797 66.9458 133.567L53.0945 119.659C51.8702 118.43 51.8702 116.418 53.0945 115.189L66.9458 101.281C68.1702 100.052 70.174 100.052 71.3982 101.281L85.2503 115.189C86.4749 116.418 86.4749 118.43 85.2503 119.659L71.3982 133.567Z" fill="#44C9C3"/>
<path d="M246.63 115.824C246.63 116.51 246.07 117.073 245.386 117.073H217.807C217.122 117.073 216.562 116.51 216.562 115.824V101.678C216.562 100.99 217.122 100.429 217.807 100.429H245.386C246.07 100.429 246.63 100.99 246.63 101.678V115.824Z" fill="#AB80FF"/>
<path d="M226.092 112.289L220.949 109.972C220.803 109.902 220.69 109.81 220.61 109.694C220.528 109.578 220.486 109.445 220.486 109.298V109.195C220.486 109.049 220.528 108.917 220.61 108.801C220.69 108.684 220.803 108.592 220.949 108.523L226.092 106.205C226.162 106.18 226.23 106.168 226.299 106.168C226.444 106.168 226.568 106.217 226.667 106.316C226.765 106.415 226.814 106.539 226.814 106.686C226.814 106.788 226.782 106.885 226.718 106.975C226.655 107.066 226.569 107.133 226.467 107.177L221.827 109.247L226.467 111.319C226.569 111.361 226.655 111.426 226.718 111.517C226.782 111.608 226.814 111.705 226.814 111.81C226.814 111.956 226.765 112.079 226.667 112.178C226.568 112.277 226.444 112.326 226.299 112.326C226.23 112.326 226.162 112.315 226.092 112.289Z" fill="#2D3A69"/>
<path d="M228.277 114.152C228.178 114.049 228.129 113.922 228.129 113.777C228.129 113.725 228.142 113.661 228.168 113.581L231.584 103.553C231.618 103.45 231.678 103.364 231.763 103.294C231.851 103.225 231.957 103.19 232.086 103.19C232.241 103.19 232.367 103.242 232.466 103.346C232.565 103.45 232.614 103.574 232.614 103.722C232.614 103.774 232.601 103.838 232.576 103.916L229.161 113.944C229.125 114.049 229.066 114.135 228.979 114.203C228.894 114.273 228.788 114.306 228.658 114.306C228.502 114.306 228.375 114.255 228.277 114.152Z" fill="#2D3A69"/>
<path d="M237.416 112.177C237.318 112.078 237.267 111.955 237.267 111.809C237.267 111.705 237.3 111.609 237.364 111.517C237.428 111.427 237.511 111.361 237.615 111.317L242.255 109.247L237.615 107.177C237.511 107.133 237.428 107.067 237.364 106.975C237.3 106.886 237.267 106.788 237.267 106.686C237.267 106.538 237.318 106.416 237.416 106.317C237.515 106.216 237.637 106.166 237.782 106.166C237.86 106.166 237.927 106.18 237.99 106.206L243.131 108.522C243.278 108.591 243.391 108.683 243.473 108.802C243.554 108.917 243.596 109.047 243.596 109.196V109.3C243.596 109.445 243.554 109.578 243.473 109.694C243.391 109.81 243.278 109.903 243.131 109.972L237.99 112.287C237.927 112.314 237.86 112.326 237.782 112.326C237.637 112.326 237.515 112.277 237.416 112.177Z" fill="#2D3A69"/>
<path d="M191.158 97.1832C191.158 97.8048 190.651 98.312 190.033 98.312H167.696C167.075 98.312 166.57 97.8048 166.57 97.1832V82.796C166.57 82.1744 167.075 81.6672 167.696 81.6672H190.033C190.651 81.6672 191.158 82.1744 191.158 82.796V97.1832Z" fill="#44C9C3"/>
<path d="M175.319 94.8447C175.048 94.6519 174.911 94.3015 174.911 93.7943V91.4359C174.911 91.2783 174.895 91.1487 174.857 91.0439C174.82 90.9399 174.726 90.8415 174.578 90.7479C174.429 90.6543 174.2 90.5823 173.888 90.5303C173.761 90.5071 173.667 90.4567 173.604 90.3791C173.542 90.3015 173.51 90.2031 173.51 90.0839C173.51 89.9639 173.542 89.8647 173.604 89.7863C173.667 89.7087 173.761 89.6583 173.888 89.6351C174.2 89.5831 174.429 89.5111 174.578 89.4175C174.726 89.3239 174.82 89.2256 174.857 89.1224C174.895 89.0168 174.911 88.8872 174.911 88.7304V86.372C174.911 85.8656 175.048 85.5144 175.319 85.3208C175.589 85.128 175.974 85.0296 176.471 85.0296H176.604C176.709 85.0296 176.798 85.0688 176.877 85.1464C176.954 85.2256 176.995 85.3176 176.995 85.4216C176.995 85.5256 176.954 85.6176 176.877 85.696C176.798 85.7752 176.709 85.812 176.604 85.812H176.438C176.155 85.812 175.976 85.8568 175.898 85.9464C175.819 86.036 175.781 86.148 175.781 86.2824V88.7648C175.781 89.3976 175.446 89.8368 174.78 90.0839C175.446 90.3287 175.781 90.7679 175.781 91.4023V93.8847C175.781 94.0175 175.819 94.1303 175.898 94.2191C175.976 94.3087 176.155 94.3535 176.438 94.3535H176.604C176.709 94.3535 176.798 94.3927 176.877 94.4719C176.954 94.5495 176.995 94.6399 176.995 94.7455C176.995 94.8495 176.954 94.9399 176.877 95.0191C176.798 95.0975 176.709 95.1359 176.604 95.1359H176.471C175.974 95.1359 175.589 95.0399 175.319 94.8447Z" fill="#2D3A69"/>
<path d="M180.63 95.0191C180.551 94.9399 180.513 94.8495 180.513 94.7455C180.513 94.6399 180.551 94.5495 180.63 94.4719C180.708 94.3927 180.798 94.3535 180.903 94.3535H181.068C181.352 94.3535 181.53 94.3087 181.609 94.2191C181.687 94.1303 181.725 94.0175 181.725 93.8847V91.4023C181.725 90.7679 182.06 90.3287 182.728 90.0839C182.06 89.8368 181.725 89.3976 181.725 88.7648V86.2824C181.725 86.148 181.687 86.036 181.609 85.9464C181.53 85.8568 181.352 85.812 181.068 85.812H180.903C180.798 85.812 180.708 85.7752 180.63 85.696C180.551 85.6176 180.513 85.5256 180.513 85.4216C180.513 85.3176 180.551 85.2256 180.63 85.1464C180.708 85.0688 180.798 85.0296 180.903 85.0296H181.035C181.533 85.0296 181.918 85.128 182.188 85.3208C182.459 85.5144 182.595 85.8656 182.595 86.372V88.7304C182.595 88.8872 182.613 89.0168 182.65 89.1224C182.687 89.2256 182.781 89.3239 182.929 89.4175C183.078 89.5111 183.306 89.5831 183.618 89.6351C183.746 89.6583 183.839 89.7087 183.904 89.7863C183.965 89.8647 183.997 89.9639 183.997 90.0839C183.997 90.2031 183.965 90.3015 183.904 90.3791C183.839 90.4567 183.746 90.5071 183.618 90.5303C183.306 90.5823 183.078 90.6543 182.929 90.7479C182.781 90.8415 182.687 90.9399 182.65 91.0439C182.613 91.1487 182.595 91.2783 182.595 91.4359V93.7943C182.595 94.3015 182.459 94.6519 182.188 94.8447C181.918 95.0399 181.533 95.1359 181.035 95.1359H180.903C180.798 95.1359 180.708 95.0975 180.63 95.0191Z" fill="#2D3A69"/>
<path d="M382.227 293.133H46.0044V291.533H382.227V293.133Z" fill="#2C3D4F"/>
<defs>
<linearGradient id="paint0_linear" x1="441.191" y1="261.114" x2="406.598" y2="261.114" gradientUnits="userSpaceOnUse">
<stop stop-color="#474FBF"/>
<stop offset="0.995868" stop-color="#557DED"/>
<stop offset="1" stop-color="#557DED"/>
</linearGradient>
<linearGradient id="paint1_linear" x1="326.861" y1="282.991" x2="305.334" y2="267.466" gradientUnits="userSpaceOnUse">
<stop stop-color="#474FBF"/>
<stop offset="0.995868" stop-color="#557DED"/>
<stop offset="1" stop-color="#557DED"/>
</linearGradient>
<linearGradient id="paint2_linear" x1="175.154" y1="296.23" x2="152.148" y2="275.477" gradientUnits="userSpaceOnUse">
<stop stop-color="#363F7D"/>
<stop offset="1" stop-color="#22314F"/>
</linearGradient>
<linearGradient id="paint3_linear" x1="175.154" y1="296.174" x2="152.212" y2="275.415" gradientUnits="userSpaceOnUse">
<stop stop-color="#2B3264"/>
<stop offset="1" stop-color="#1B273F"/>
</linearGradient>
<linearGradient id="paint4_linear" x1="242.653" y1="282.997" x2="209.752" y2="277.811" gradientUnits="userSpaceOnUse">
<stop stop-color="#363F7D"/>
<stop offset="1" stop-color="#22314F"/>
</linearGradient>
</defs>
</svg>
