<svg width="302" height="346" viewBox="0 0 302 346" fill="none" xmlns="http://www.w3.org/2000/svg">
<g clip-path="url(#clip0)">
<path fill-rule="evenodd" clip-rule="evenodd" d="M130.834 133.326C130.844 133.331 133.048 131.336 136.305 128.945L131.145 135.535C130.071 135.226 129.833 134.525 130.834 133.326Z" fill="#B0CCF8"/>
<path d="M129.875 133.788C130.922 133.415 132.149 133.008 133.463 132.574L131.512 135.067C131.151 135.191 130.818 135.309 130.517 135.415" fill="#B0CCF8"/>
<path fill-rule="evenodd" clip-rule="evenodd" d="M130.115 132.624C130.089 132.628 120.905 116.489 111.742 113.589C108.496 112.56 103.069 113.947 106.142 118.616C111.176 126.257 132.951 139.729 130.115 132.624Z" fill="#B0CCF8"/>
<path d="M130.881 133.359C127.373 130.66 121.355 126.541 118.044 123.33C119.026 126.838 126.587 132.263 129.764 134.706" fill="#B0CCF8"/>
<path fill-rule="evenodd" clip-rule="evenodd" d="M136.438 117.651C136.463 117.657 147.634 103.191 156.959 101.622C158.234 101.408 157.755 102.395 157.615 103.652C156.876 110.237 153.581 114.137 145.239 117.536C139.29 120.032 134.589 120.878 136.438 117.651Z" fill="#B0CCF8"/>
<path d="M135.59 118.262C139.378 116.111 145.81 112.924 149.477 110.251C148.039 113.531 139.922 117.783 136.494 119.727" fill="#B0CCF8"/>
<path fill-rule="evenodd" clip-rule="evenodd" d="M135.02 117.445C134.994 117.449 125.119 102.076 115.966 99.7095C112.722 98.8696 107.464 100.518 110.73 104.942C116.079 112.182 138.181 124.276 135.02 117.445Z" fill="#B0CCF8"/>
<path d="M135.812 118.128C132.224 115.658 126.095 111.928 122.672 108.947C123.822 112.341 131.537 117.274 134.785 119.507" fill="#B0CCF8"/>
<path fill-rule="evenodd" clip-rule="evenodd" d="M140.055 100.663C140.081 100.665 148.813 85.6083 157.423 82.9605C160.474 82.0226 165.55 83.3637 162.635 87.7149C157.857 94.8386 137.342 107.302 140.055 100.663Z" fill="#B0CCF8"/>
<path d="M139.332 101.343C142.639 98.8418 148.312 95.0264 151.441 92.0422C150.494 95.3246 143.363 100.35 140.369 102.616" fill="#B0CCF8"/>
<path fill-rule="evenodd" clip-rule="evenodd" d="M139.375 101.298C139.348 101.302 129.94 86.6528 121.22 84.3986C118.128 83.5989 113.118 85.1681 116.229 89.3844C121.325 96.2846 142.385 107.807 139.375 101.298Z" fill="#B0CCF8"/>
<path d="M140.129 101.946C136.711 99.5947 130.87 96.0421 127.607 93.2006C128.702 96.4336 136.055 101.135 139.15 103.264" fill="#B0CCF8"/>
<path fill-rule="evenodd" clip-rule="evenodd" d="M141.135 87.4226C141.109 87.4267 131.702 72.7781 122.979 70.522C119.887 69.724 114.878 71.2935 117.99 75.5081C123.085 82.4101 144.146 93.9322 141.135 87.4226Z" fill="#B0CCF8"/>
<path d="M141.887 88.0744C138.468 85.7231 132.627 82.1668 129.365 79.3287C130.462 82.561 137.814 87.2638 140.909 89.3918" fill="#B0CCF8"/>
<path fill-rule="evenodd" clip-rule="evenodd" d="M141.276 87.3377C141.3 87.342 150.068 72.303 158.685 69.6761C161.738 68.7456 166.811 70.1002 163.885 74.4431C159.091 81.5579 138.546 93.9698 141.276 87.3377Z" fill="#B0CCF8"/>
<path d="M140.548 88.0205C143.862 85.5235 149.544 81.7217 152.68 78.7447C151.726 82.025 144.583 87.0358 141.583 89.2919" fill="#B0CCF8"/>
<path fill-rule="evenodd" clip-rule="evenodd" d="M142.101 69.0613C142.076 69.0654 131.583 55.1684 122.714 53.5757C119.572 53.0122 114.698 54.9548 118.12 58.9233C123.722 65.4203 145.596 75.3244 142.101 69.0613Z" fill="#B0CCF8"/>
<path d="M142.902 69.6502C139.314 67.564 133.221 64.4588 129.754 61.8722C131.09 65.0157 138.778 69.1478 142.026 71.0363" fill="#B0CCF8"/>
<path fill-rule="evenodd" clip-rule="evenodd" d="M142.236 68.9644C142.259 68.9644 149.865 53.31 158.257 50.0421C161.232 48.8836 166.392 49.8519 163.804 54.4036C159.562 61.8558 140.016 75.7812 142.236 68.9644Z" fill="#B0CCF8"/>
<path d="M141.56 69.6972C144.678 66.9611 150.054 62.7425 152.957 59.5364C152.252 62.8776 145.51 68.4123 142.688 70.8907" fill="#B0CCF8"/>
<path fill-rule="evenodd" clip-rule="evenodd" d="M138.826 53.9879C138.801 53.994 128.311 40.0949 119.443 38.5044C116.302 37.9392 111.425 39.8829 114.846 43.8512C120.451 50.3487 142.323 60.2512 138.826 53.9879Z" fill="#B0CCF8"/>
<path d="M139.629 54.578C136.039 52.4905 129.949 49.3862 126.48 46.8013C127.819 49.9435 135.505 54.0766 138.753 55.9664" fill="#B0CCF8"/>
<path fill-rule="evenodd" clip-rule="evenodd" d="M139.048 54.4777C139.072 54.4714 141.195 37.2065 148.08 31.4089C150.521 29.3548 155.715 28.6086 154.742 33.7523C153.144 42.1719 139.158 61.646 139.048 54.4777Z" fill="#B0CCF8"/>
<path d="M138.649 55.3893C140.709 51.7949 144.433 46.0707 146.141 42.1028C146.556 45.4913 141.969 52.9026 140.103 56.1564" fill="#B0CCF8"/>
<path fill-rule="evenodd" clip-rule="evenodd" d="M134.88 35.596C134.861 35.6002 126.953 25.1239 120.267 23.9228C117.896 23.4972 114.221 24.9616 116.802 27.9537C121.027 32.8526 137.516 40.3179 134.88 35.596Z" fill="#B0CCF8"/>
<path d="M135.484 36.0397C132.782 34.4674 128.188 32.1266 125.572 30.1762C126.581 32.546 132.376 35.6616 134.824 37.0852" fill="#B0CCF8"/>
<path fill-rule="evenodd" clip-rule="evenodd" d="M135.048 35.9663C135.065 35.9598 136.666 22.9446 141.855 18.5755C143.694 17.0273 147.613 16.464 146.877 20.3407C145.672 26.6882 135.13 41.3698 135.048 35.9663Z" fill="#B0CCF8"/>
<path d="M134.745 36.6524C136.301 33.9425 139.107 29.627 140.394 26.6351C140.708 29.1906 137.25 34.7755 135.843 37.2287" fill="#B0CCF8"/>
<path fill-rule="evenodd" clip-rule="evenodd" d="M130.245 21.0383C130.231 21.0404 124.384 13.2946 119.442 12.4063C117.692 12.0928 114.973 13.1748 116.879 15.3867C120.004 19.0092 132.192 24.528 130.245 21.0383Z" fill="#B0CCF8"/>
<path d="M130.692 21.3647C128.695 20.2032 125.297 18.4709 123.366 17.0304C124.11 18.7821 128.395 21.0856 130.204 22.1374" fill="#B0CCF8"/>
<path fill-rule="evenodd" clip-rule="evenodd" d="M130.37 21.3096C130.383 21.3052 131.566 11.6831 135.404 8.45364C136.764 7.30719 139.659 6.89196 139.117 9.75691C138.224 14.4509 130.431 25.3056 130.37 21.3096Z" fill="#B0CCF8"/>
<path d="M130.147 21.8178C131.297 19.815 133.371 16.6228 134.324 14.4124C134.555 16.3005 131.998 20.4315 130.956 22.2438" fill="#B0CCF8"/>
<path fill-rule="evenodd" clip-rule="evenodd" d="M127.638 14.0067C127.622 14.0044 125.826 3.96312 121.611 0.788176C120.116 -0.337035 117.049 -0.607665 117.784 2.37119C118.989 7.25079 127.804 18.2076 127.638 14.0067Z" fill="#B0CCF8"/>
<path d="M127.444 138.153C137.314 118.031 141.464 96.4669 140.855 75.4108C140.341 57.5967 132.612 22.9965 122.581 8.20207C133.44 13.5634 142.253 62.9603 142.61 75.358C143.208 96.0775 139.259 117.287 129.862 137.174L128.469 138.95" fill="#B0CCF8"/>
<path fill-rule="evenodd" clip-rule="evenodd" d="M138.933 135.53C138.938 135.536 141.085 134.328 144.153 132.994L138.778 137.37C137.97 136.923 137.904 136.314 138.933 135.53Z" fill="#A8A8AB"/>
<path d="M138.074 135.727C138.987 135.621 140.05 135.515 141.19 135.404L139.157 137.058C138.844 137.095 138.555 137.127 138.293 137.159" fill="#A8A8AB"/>
<path fill-rule="evenodd" clip-rule="evenodd" d="M138.481 134.832C138.459 134.83 134.015 120.132 127.156 116.12C124.726 114.697 120.093 114.826 121.715 119.153C124.371 126.237 139.462 141.084 138.481 134.832Z" fill="#A8A8AB"/>
<path d="M138.964 135.565C136.63 132.746 132.531 128.325 130.45 125.129C130.598 128.139 135.703 133.899 137.815 136.449" fill="#A8A8AB"/>
<path fill-rule="evenodd" clip-rule="evenodd" d="M146.334 123.907C146.354 123.918 158.022 114.289 165.834 114.726C166.901 114.787 166.335 115.495 165.99 116.484C164.184 121.66 160.81 124.206 153.453 125.424C148.197 126.353 144.248 126.176 146.334 123.907Z" fill="#A8A8AB"/>
<path d="M145.537 124.246C148.988 123.206 154.761 121.806 158.213 120.319C156.449 122.703 149.121 124.65 145.996 125.594" fill="#A8A8AB"/>
<path fill-rule="evenodd" clip-rule="evenodd" d="M145.229 123.482C145.206 123.482 140.064 109.274 133.116 105.695C130.654 104.426 126.109 104.793 127.931 108.958C130.915 115.778 146.524 129.571 145.229 123.482Z" fill="#A8A8AB"/>
<path d="M145.741 124.18C143.302 121.533 139.039 117.403 136.827 114.373C137.131 117.321 142.449 122.71 144.658 125.106" fill="#A8A8AB"/>
<path fill-rule="evenodd" clip-rule="evenodd" d="M152.374 110.865C152.392 110.873 162.204 100.317 169.637 99.7546C172.272 99.5551 176.12 101.564 172.967 104.543C167.804 109.417 148.965 115.724 152.374 110.865Z" fill="#A8A8AB"/>
<path d="M151.664 111.281C154.794 109.866 160.071 107.825 163.145 105.988C161.778 108.463 155.1 111.215 152.267 112.498" fill="#A8A8AB"/>
<path fill-rule="evenodd" clip-rule="evenodd" d="M151.708 111.251C151.687 111.249 146.789 97.7144 140.166 94.3023C137.819 93.0924 133.491 93.4442 135.225 97.413C138.07 103.91 152.943 117.051 151.708 111.251Z" fill="#A8A8AB"/>
<path d="M152.196 111.914C149.87 109.393 145.81 105.458 143.701 102.57C143.992 105.38 149.059 110.515 151.164 112.798" fill="#A8A8AB"/>
<path fill-rule="evenodd" clip-rule="evenodd" d="M155.676 100.381C155.655 100.381 150.759 86.8438 144.134 83.4301C141.788 82.2207 137.46 82.572 139.193 86.5409C142.037 93.0377 156.91 106.182 155.676 100.381Z" fill="#A8A8AB"/>
<path d="M156.167 101.041C153.841 98.52 149.782 94.5855 147.673 91.6969C147.961 94.5072 153.03 99.643 155.135 101.925" fill="#A8A8AB"/>
<path fill-rule="evenodd" clip-rule="evenodd" d="M155.806 100.337C155.824 100.343 165.662 89.8151 173.096 89.2682C175.732 89.0753 179.575 91.0931 176.415 94.0641C171.241 98.9265 152.385 105.189 155.806 100.337Z" fill="#A8A8AB"/>
<path d="M155.095 100.754C158.227 99.3459 163.508 97.3175 166.586 95.4887C165.213 97.9579 158.53 100.697 155.695 101.97" fill="#A8A8AB"/>
<path fill-rule="evenodd" clip-rule="evenodd" d="M159.831 85.7415C159.809 85.7415 153.9 72.6141 147.038 69.7091C144.605 68.6795 140.314 69.3573 142.348 73.1832C145.674 79.4495 161.5 91.4345 159.831 85.7415Z" fill="#A8A8AB"/>
<path d="M160.368 86.3637C157.858 84.0246 153.514 80.4088 151.191 77.6874C151.694 80.4682 157.136 85.208 159.408 87.324" fill="#A8A8AB"/>
<path fill-rule="evenodd" clip-rule="evenodd" d="M159.955 85.6886C159.976 85.6953 168.987 74.4546 176.359 73.3504C178.971 72.9612 182.957 74.6831 180.031 77.8825C175.24 83.1227 156.912 90.784 159.955 85.6886Z" fill="#A8A8AB"/>
<path d="M159.278 86.1574C162.297 84.5183 167.41 82.0968 170.339 80.0424C169.157 82.6104 162.7 85.8427 159.97 87.3266" fill="#A8A8AB"/>
<path fill-rule="evenodd" clip-rule="evenodd" d="M159.959 72.9853C159.937 72.9853 154.028 59.8574 147.165 56.9533C144.734 55.9235 140.444 56.6015 142.476 60.4267C145.801 66.6932 161.629 78.6782 159.959 72.9853Z" fill="#A8A8AB"/>
<path d="M160.497 73.608C157.986 71.2703 153.642 67.651 151.318 64.9328C151.821 67.7125 157.263 72.4498 159.535 74.5666" fill="#A8A8AB"/>
<path fill-rule="evenodd" clip-rule="evenodd" d="M160.049 73.4204C160.069 73.4204 164.954 59.8789 171.573 56.4611C173.918 55.2481 178.25 55.5966 176.517 59.5661C173.68 66.0666 158.821 79.224 160.049 73.4204Z" fill="#A8A8AB"/>
<path d="M159.557 74.0823C161.881 71.5592 165.937 67.6224 168.045 64.7322C167.758 67.5421 162.694 72.6818 160.592 74.9661" fill="#A8A8AB"/>
<path fill-rule="evenodd" clip-rule="evenodd" d="M160.154 57.426C160.14 57.426 155.684 47.5281 150.513 45.3397C148.678 44.564 145.444 45.0733 146.976 47.9585C149.484 52.6826 161.414 61.7176 160.154 57.426Z" fill="#A8A8AB"/>
<path d="M160.56 57.8973C158.67 56.133 155.393 53.4058 153.642 51.3566C154.02 53.4525 158.121 57.0236 159.836 58.6199" fill="#A8A8AB"/>
<path fill-rule="evenodd" clip-rule="evenodd" d="M160.221 57.7563C160.236 57.7541 163.919 47.5466 168.91 44.9682C170.676 44.0565 173.942 44.317 172.636 47.3104C170.497 52.211 159.296 62.1293 160.221 57.7563Z" fill="#A8A8AB"/>
<path d="M159.855 58.2545C161.606 56.3511 164.663 53.3827 166.251 51.2049C166.035 53.3222 162.217 57.198 160.633 58.9178" fill="#A8A8AB"/>
<path fill-rule="evenodd" clip-rule="evenodd" d="M159.093 44.8349C159.08 44.8349 155.786 37.5169 151.963 35.8975C150.607 35.3245 148.216 35.7023 149.349 37.8353C151.201 41.3266 160.022 48.0057 159.093 44.8349Z" fill="#A8A8AB"/>
<path d="M159.391 45.1836C157.991 43.8786 155.571 41.8618 154.277 40.3471C154.555 41.8957 157.587 44.5375 158.853 45.7175" fill="#A8A8AB"/>
<path fill-rule="evenodd" clip-rule="evenodd" d="M159.141 45.0794C159.151 45.0772 161.876 37.5312 165.565 35.6246C166.871 34.9492 169.284 35.1431 168.32 37.3569C166.737 40.9784 158.456 48.313 159.141 45.0794Z" fill="#A8A8AB"/>
<path d="M158.869 45.4485C160.163 44.0418 162.423 41.8462 163.598 40.2359C163.437 41.8012 160.615 44.6658 159.442 45.9395" fill="#A8A8AB"/>
<path fill-rule="evenodd" clip-rule="evenodd" d="M158.278 38.6884C158.267 38.6821 158.662 30.2534 155.843 26.9238C154.845 25.7421 152.419 24.9641 152.466 27.5009C152.545 31.6592 157.64 42.1069 158.278 38.6884Z" fill="#A8A8AB"/>
<path d="M135.311 138.807C146.971 124.375 154.28 107.736 157.658 90.6379C160.516 76.1745 160.641 46.8494 155.266 33.0818C163.041 39.3908 161.072 80.8501 159.084 90.9183C155.757 107.743 148.674 124.128 137.439 138.458L135.99 139.637" fill="#A8A8AB"/>
<path fill-rule="evenodd" clip-rule="evenodd" d="M100.524 298.509C53.3568 281.255 13.9278 253.616 1 214.642C12.2695 183.065 59.3646 159.375 115.757 159.375C180.558 159.375 233.088 190.652 233.088 229.235C233.088 267.818 180.558 299.095 115.757 299.095C110.595 299.095 105.51 298.894 100.524 298.509Z" fill="#A8C7E3"/>
<path fill-rule="evenodd" clip-rule="evenodd" d="M191.938 244.986C191.938 244.986 185.059 243.463 186.589 262.888C187.571 275.369 194.546 300.745 195.454 319.111C199.476 319.468 203.472 319.771 207.425 320L204.544 253.366C204.544 253.366 194.995 244.223 191.938 244.986Z" fill="#FFB59E"/>
<path fill-rule="evenodd" clip-rule="evenodd" d="M188.428 248.098C187.302 250.585 186.541 255.017 187.161 262.888C188.142 275.381 195.13 300.791 196.029 319.161C196.505 319.202 196.984 319.244 197.461 319.283L194.609 253.366C194.609 253.366 191.605 250.49 188.428 248.098Z" fill="#FF8961"/>
<path fill-rule="evenodd" clip-rule="evenodd" d="M180.476 244.985C180.476 244.985 173.6 243.463 175.128 262.888C176.089 275.102 182.787 299.661 183.925 317.918C187.948 318.394 191.952 318.803 195.928 319.151L193.084 253.365C193.084 253.365 183.533 244.223 180.476 244.985Z" fill="#FFB59E"/>
<path fill-rule="evenodd" clip-rule="evenodd" d="M256.05 244.615C255.254 243.026 230.666 219.836 193.98 235.738C157.297 251.639 208.467 279.798 208.467 279.798C208.467 279.798 263.759 331.545 256.05 244.615Z" fill="#FD576B"/>
<path fill-rule="evenodd" clip-rule="evenodd" d="M59.8631 85.7597C59.8631 85.7597 32.4832 105.108 48.433 172.688C77.1417 169.242 79.5329 152.28 79.5329 152.28C79.5329 152.28 82.7236 90.5296 59.8631 85.7597Z" fill="#2B4582"/>
<path fill-rule="evenodd" clip-rule="evenodd" d="M80.986 64.5508C80.986 64.5508 71.5023 66.6157 68.1119 70.6563C63.4878 76.1637 64.8204 86.7129 67.4286 113.315C72.2142 133.987 64.9077 145.688 68.2259 150.154L109.427 132.398C109.427 132.398 122.454 61.3695 98.7956 60.8396C94.3442 62.1643 80.986 64.5508 80.986 64.5508Z" fill="#3366DE"/>
<path fill-rule="evenodd" clip-rule="evenodd" d="M165.731 114.85C230.531 114.85 283.061 146.127 283.061 184.71C283.061 223.294 230.531 254.571 165.731 254.571C100.933 254.571 48.4028 223.294 48.4028 184.71C48.4028 146.127 100.933 114.85 165.731 114.85Z" fill="#579BF2"/>
<path fill-rule="evenodd" clip-rule="evenodd" d="M165.731 106.907C230.531 106.907 283.061 138.184 283.061 176.767C283.061 215.35 230.531 246.627 165.731 246.627C100.933 246.627 48.4028 215.35 48.4028 176.767C48.4028 138.184 100.933 106.907 165.731 106.907Z" fill="#EBF5FF"/>
<path fill-rule="evenodd" clip-rule="evenodd" d="M109.776 130.367C118.707 132.304 143.354 113.812 143.354 113.812L141.363 107.698L116.818 113.409L114.042 98.226L112.948 98.5049C112.581 112.152 110.591 125.426 109.776 130.367Z" fill="#FFB59E"/>
<path fill-rule="evenodd" clip-rule="evenodd" d="M98.3857 160.456L72.1016 142.582L72.2521 140.299L131.786 137.298" fill="#A8A8AB"/>
<path fill-rule="evenodd" clip-rule="evenodd" d="M98.424 157.653L72.3167 140.276L106.677 117.794L132.855 135.525" fill="#DBDEE3"/>
<path fill-rule="evenodd" clip-rule="evenodd" d="M98.8351 155.676L80.0498 142.966L111.001 122.715L129.85 135.742" fill="#A8A8AB"/>
<path fill-rule="evenodd" clip-rule="evenodd" d="M98.4375 124.685L142.114 97.4494L144.253 97.4108L100.516 160.532L98.4375 160.502" fill="#A8A8AB"/>
<path fill-rule="evenodd" clip-rule="evenodd" d="M100.535 124.684L144.214 97.4495V133.054L100.535 160.5" fill="#DBDEE3"/>
<path fill-rule="evenodd" clip-rule="evenodd" d="M53.2072 105.234C53.2072 105.234 46.0313 125.112 48.9549 133.591C51.3218 140.454 85.4596 139.854 98.3934 139.377V131.405L64.1069 123.254L68.3609 108.413" fill="#FFB59E"/>
<path fill-rule="evenodd" clip-rule="evenodd" d="M255.246 187.792L256.043 192.034C256.043 192.034 240.362 198.13 236.905 211.38C233.449 224.632 229.995 226.486 232.119 230.197C234.248 233.908 245.412 238.413 245.412 238.413C245.412 238.413 235.309 270.745 244.35 270.745C253.387 270.745 281.885 263.677 288.209 262.53C291.168 261.994 295.854 204.45 284.847 190.089C283.914 188.874 284.391 187.207 284.284 186.06C278.274 184.521 252.157 188.072 255.246 187.792Z" fill="#94C2F5"/>
<path fill-rule="evenodd" clip-rule="evenodd" d="M243.691 280.263C243.691 280.263 236.778 218.248 281.436 209.237C308.356 206.169 296.159 231.259 298.252 245.648C300.039 257.953 303.367 285.675 296.055 294.178C286.487 305.308 252.997 331.944 204.081 286.889C201.157 276.818 205.676 278.076 205.676 278.076C205.676 278.076 237.842 300.538 243.691 280.263Z" fill="#2B4582"/>
<path fill-rule="evenodd" clip-rule="evenodd" d="M253.226 153.578C253.226 153.578 247.114 179.019 264.126 180.876C281.139 182.732 269.178 155.964 253.226 153.578Z" fill="#FFB59E"/>
<path fill-rule="evenodd" clip-rule="evenodd" d="M129.512 202.341L180.55 234.41L251.789 188.559L203.144 157.817" fill="#B0CCF8"/>
<path fill-rule="evenodd" clip-rule="evenodd" d="M130.308 208.701L181.347 240.77L242.537 201.39C245.468 198.171 248.894 195.814 251.562 194.27L203.944 164.176" fill="white"/>
<path fill-rule="evenodd" clip-rule="evenodd" d="M179.881 194.143C193.167 194.143 203.938 200.674 203.938 208.733C203.938 216.79 193.167 223.322 179.881 223.322C166.596 223.322 155.823 216.79 155.823 208.733C155.823 200.674 166.596 194.143 179.881 194.143ZM179.881 200.005C187.828 200.005 194.273 203.912 194.273 208.733C194.273 213.552 187.828 217.46 179.881 217.46C171.933 217.46 165.49 213.552 165.49 208.733C165.49 203.912 171.933 200.005 179.881 200.005Z" fill="#3378CC"/>
<path fill-rule="evenodd" clip-rule="evenodd" d="M179.88 194.143C185.135 194.143 189.994 195.166 193.953 196.898L189.422 202.2C186.882 200.836 183.542 200.005 179.88 200.005C173.932 200.005 168.829 202.193 166.635 205.315L161.598 199.248C166.013 196.124 172.564 194.143 179.88 194.143Z" fill="#FFBF45"/>
<path fill-rule="evenodd" clip-rule="evenodd" d="M199.499 217.178C195.139 220.897 187.977 223.323 179.882 223.323C166.596 223.323 155.822 216.792 155.822 208.734C155.822 204.691 158.532 201.034 162.909 198.391L170.332 202.204C167.361 203.802 165.491 206.135 165.491 208.734C165.491 213.553 171.932 217.461 179.882 217.461C185.02 217.461 189.529 215.824 192.076 213.366" fill="#FD576B"/>
<path d="M216.753 202.474L236.156 190.282L237.84 191.668L218.366 203.909" fill="black"/>
<path d="M210.771 198.565L230.175 186.373L231.859 187.759L212.388 200" fill="black"/>
<path d="M203.66 194.324L223.065 182.132L224.748 183.518L205.276 195.759" fill="black"/>
<path d="M197.812 190.085L217.217 177.892L218.899 179.279L199.428 191.52" fill="black"/>
<path d="M190.635 185.445L210.039 173.254L211.724 174.64L192.251 186.881" fill="black"/>
<path fill-rule="evenodd" clip-rule="evenodd" d="M261.334 167.097C261.334 167.097 244.056 153.845 254.956 143.243C261.706 136.678 274.992 137.364 283.565 144.672C305.316 163.217 295.673 201.617 258.411 190.153C258.411 190.153 264.125 180.082 261.334 167.097Z" fill="#5470BD"/>
<path fill-rule="evenodd" clip-rule="evenodd" d="M93.5408 85.5557C97.0042 105.723 97.3699 104.067 98.7971 103.954C100.224 103.842 112.117 102.718 116.698 102.089C117.075 97.6479 118.406 60.5638 102.626 60.7066C92.8056 60.7968 92.5511 79.7926 93.5408 85.5557Z" fill="#3366DE"/>
<path fill-rule="evenodd" clip-rule="evenodd" d="M78.4646 45.4726C78.4646 45.4726 86.7712 67.1393 100.661 62.4351C106.774 60.4458 104.846 37.3239 104.846 37.3239C104.846 37.3239 86.1749 28.1131 78.4646 45.4726Z" fill="#FFB59E"/>
<path fill-rule="evenodd" clip-rule="evenodd" d="M80.7917 49.5813L81.2565 64.6884C81.2565 64.6884 86.9062 74.295 97.2722 70.7846C97.737 64.225 97.4069 55.2142 97.4069 55.2142" fill="#FFB59E"/>
<path fill-rule="evenodd" clip-rule="evenodd" d="M82.258 54.9488C82.258 54.9488 74.1499 44.4799 78.9345 34.1436C83.7192 23.8072 102.725 26.8556 110.17 36.794C114.555 44.2146 100.601 43.6842 95.683 41.4316C93.3181 40.3495 89.8003 42.0927 89.3611 46.0945C88.8059 51.1511 82.7796 50.669 82.258 54.9488Z" fill="#5470BD"/>
<path fill-rule="evenodd" clip-rule="evenodd" d="M82.3776 44.5374C83.8666 44.3058 85.4013 46.2278 85.8103 48.8307C86.2193 51.4336 85.3458 53.7318 83.8567 53.9633C82.3717 54.1969 80.835 52.2749 80.426 49.6699C80.0171 47.0671 80.8926 44.769 82.3776 44.5374Z" fill="#FFB59E"/>
<path fill-rule="evenodd" clip-rule="evenodd" d="M245.541 194.846C245.541 194.846 238.317 193.865 237.477 188.93C236.612 183.865 241.084 188.738 242.549 186.399C243.989 184.106 249.545 187.573 253.515 193.206C252.256 193.85 250.629 194.763 248.88 195.956C247.521 195.346 246.284 194.854 245.541 194.846Z" fill="#FFB59E"/>
<path fill-rule="evenodd" clip-rule="evenodd" d="M55.6004 88.0072C49.7513 107.619 50.8143 106.294 52.1444 106.824C53.4726 107.353 64.6382 111.593 69.0254 113.051C71.335 109.236 88.9933 76.5681 74.7781 69.7342C65.933 65.4804 57.2718 82.4014 55.6004 88.0072Z" fill="#3366DE"/>
<path fill-rule="evenodd" clip-rule="evenodd" d="M232.448 230.686C231.511 232.498 229.702 235.565 227.733 236.523C224.875 237.915 203.31 225.525 199.555 219.428C195.8 213.332 192.376 213.134 194.372 217.706C194.504 222.345 183.274 213.134 183.076 221.152C182.875 229.168 197.427 226.717 197.427 226.717C197.427 226.717 228.664 259.713 235.041 253.353C238.801 249.604 242.191 242.864 244.342 237.962C241.651 236.796 234.653 233.574 232.448 230.686Z" fill="#FFB59E"/>
<path fill-rule="evenodd" clip-rule="evenodd" d="M136.017 151.162L168.848 130.622L192.639 145.863L160.475 167.196" fill="#FFB01C"/>
<path fill-rule="evenodd" clip-rule="evenodd" d="M155.158 147.45L187.987 126.911L211.779 142.15L179.616 163.484" fill="#B094FF"/>
<path fill-rule="evenodd" clip-rule="evenodd" d="M151.703 133.669L184.532 113.13L208.324 128.369L176.16 149.703" fill="#0000FF"/>
<path fill-rule="evenodd" clip-rule="evenodd" d="M90.2314 172.932C76.8806 172.932 66.0571 180.094 66.0571 188.923C66.0571 197.754 76.8806 204.914 90.2314 204.914C103.582 204.914 114.406 197.754 114.406 188.923C114.406 180.094 103.582 172.932 90.2314 172.932Z" fill="#B0CCF8"/>
<path fill-rule="evenodd" clip-rule="evenodd" d="M90.2314 170.523C76.8806 170.523 66.0571 177.681 66.0571 186.513C66.0571 195.343 76.8806 202.503 90.2314 202.503C103.582 202.503 114.406 195.343 114.406 186.513C114.406 177.681 103.582 170.523 90.2314 170.523Z" fill="#2B4582"/>
<path fill-rule="evenodd" clip-rule="evenodd" d="M114.104 189.04C114.3 188.216 114.406 187.372 114.406 186.513C114.406 177.959 104.251 170.974 91.4811 170.543L89.6748 186.512" fill="#FD576B"/>
</g>
<defs>
<clipPath id="clip0">
<rect width="302" height="346" fill="white"/>
</clipPath>
</defs>
</svg>
