<svg width="366" height="320" viewBox="0 0 366 320" fill="none" xmlns="http://www.w3.org/2000/svg">
<path d="M189.338 274.209H141.227L147.465 248.35H183.099L189.338 274.209Z" fill="#90AFD9"/>
<path d="M189.338 274.209H141.227L147.465 248.35H183.099L189.338 274.209Z" fill="#C1DAF3"/>
<path d="M227.221 261.541L229.941 260.145L232.43 256.866L229.401 254.757L227.221 261.541Z" fill="#90AFD9"/>
<path d="M90.4995 178.683L89.3917 175.566L91.6543 172.599L96.3766 172.699L90.4995 178.683" fill="#90AFD9"/>
<path d="M227.221 261.541H107.115C104.88 261.541 102.757 259.728 102.371 257.493L88.7367 178.358C88.3511 176.123 89.8514 174.31 92.0859 174.31H212.192C214.427 174.31 216.551 176.123 216.937 178.358L230.571 257.493C230.956 259.728 229.457 261.541 227.221 261.541" fill="#90AFD9"/>
<path d="M229.401 258.653H109.295C107.06 258.653 104.935 256.84 104.55 254.606L90.9151 175.47C90.5315 173.236 92.0308 171.423 94.2653 171.423H214.371C216.608 171.423 218.731 173.236 219.115 175.47L232.751 254.606C233.135 256.84 231.635 258.653 229.401 258.653" fill="#C1DAF3"/>
<path d="M225.248 246.351H109.209C108.387 246.351 107.606 245.685 107.465 244.863L95.8758 177.601C95.7346 176.779 96.2855 176.113 97.1068 176.113H213.146C213.967 176.113 214.749 176.779 214.89 177.601L226.479 244.863C226.62 245.685 226.069 246.351 225.248 246.351Z" fill="white"/>
<path d="M210.338 186.658H104.139L103.272 182.23H209.471L210.338 186.658Z" fill="#92B2DE"/>
<path d="M199.436 184.511C199.573 185.213 199.116 185.781 198.414 185.781C197.712 185.781 197.032 185.213 196.895 184.511C196.758 183.809 197.215 183.24 197.916 183.24C198.619 183.24 199.299 183.809 199.436 184.511Z" fill="white"/>
<path d="M203.796 184.511C203.933 185.213 203.475 185.781 202.774 185.781C202.073 185.781 201.392 185.213 201.255 184.511C201.118 183.809 201.576 183.24 202.277 183.24C202.978 183.24 203.659 183.809 203.796 184.511Z" fill="#EDF7FD"/>
<path d="M208.156 184.511C208.294 185.213 207.836 185.781 207.135 185.781C206.432 185.781 205.753 185.213 205.615 184.511C205.477 183.809 205.935 183.24 206.637 183.24C207.339 183.24 208.018 183.809 208.156 184.511Z" fill="#3B7BC7"/>
<path d="M219.708 273.609H110.857V278.419H219.708V273.609Z" fill="#90AFD9"/>
<path d="M110.258 196.84H106.907L106.382 193.305H109.732L110.258 196.84Z" fill="#3B7BC7"/>
<path d="M179.552 196.84H112.875L112.35 193.305H179.025L179.552 196.84Z" fill="#EDF7FD"/>
<path d="M111.545 205.502H108.195L107.67 201.967H111.021L111.545 205.502Z" fill="#3B7BC7"/>
<path d="M176.833 205.502H114.163L113.638 201.967H176.307L176.833 205.502Z" fill="#EDF7FD"/>
<path d="M112.833 214.164H109.484L108.957 210.629H112.309L112.833 214.164Z" fill="#3B7BC7"/>
<path d="M178.12 214.164H115.451L114.926 210.629H177.595L178.12 214.164Z" fill="#EDF7FD"/>
<path d="M145.07 222.826H116.739L116.214 219.291H144.543L145.07 222.826" fill="#EDF7FD"/>
<path d="M233.437 174.639C232.648 177.134 231.816 179.463 231.733 181.958C231.65 184.454 231.027 186.201 229.572 187.448C228.116 188.696 227.243 189.445 227.534 189.902C227.825 190.361 230.321 192.564 230.321 192.564C230.321 192.564 230.978 198.23 231.269 200.102C231.56 201.973 234.639 203.026 237.689 202.445C241.971 201.63 243.649 200.712 245.436 198.675C247.224 196.636 250.284 193.227 249.909 192.437C249.535 191.647 254.108 178.13 254.108 178.13L233.437 174.639Z" fill="#EF9D9E"/>
<path d="M253.678 194.828C253.507 196.202 255.908 209.404 255.908 209.404L238.761 213.521C238.761 213.521 240.305 202.374 239.275 197.915C238.246 193.457 237.218 193.115 237.218 193.115L245.619 184.54L253.678 194.828" fill="#EF9D9E"/>
<path d="M229.611 169.232C233.52 172.143 238.06 168.332 245.746 167.318C251.735 166.527 257.267 170.269 256.186 175.135C256.186 175.135 258.14 173.762 259.639 180.458C261.137 187.153 255.815 192.02 254.983 194.349C254.151 196.678 254.193 198.259 254.193 198.259C254.193 198.259 250.617 198.093 248.662 195.93C246.707 193.768 245.899 191.498 245.899 191.498C245.899 191.498 247.931 190.848 248.952 189.317C250.617 186.822 249.659 183.661 247.162 184.286C244.667 184.91 243.42 189.11 243.42 189.11C243.42 189.11 241.351 188.739 241.434 186.951C241.517 185.162 241.75 182.554 241.75 182.554C241.75 182.554 238.302 182.354 237.402 178.189C237.058 176.599 234.186 176.218 232.439 175.595C230.693 174.971 229.611 169.232 229.611 169.232" fill="#1D385E"/>
<path d="M213.398 237.403L202.236 234.866L196.148 239.179C196.148 239.179 172.301 230.3 169.258 229.032C166.214 227.763 163.93 223.704 163.423 221.929C162.916 220.153 160.125 221.168 160.125 221.168C160.125 221.168 157.843 216.601 156.574 214.826C155.306 213.05 153.53 210.006 152.514 209.498C151.501 208.991 151.246 211.02 152.768 213.811C154.291 216.601 155.306 220.153 155.306 220.153C155.306 220.153 152.768 220.66 153.276 222.69C153.276 222.69 150.232 225.226 150.485 226.242C150.485 226.242 147.949 228.016 150.232 230.046C152.514 232.076 154.291 234.613 157.588 235.12C160.886 235.627 164.185 236.388 166.467 237.656C168.75 238.925 187.015 252.877 192.85 254.653C198.685 256.429 220.501 245.521 220.501 245.521L213.398 237.403" fill="#EF9D9E"/>
<path d="M229.731 212.11C229.731 212.11 241.599 207.322 248.261 205.656C254.923 203.991 265.126 204.407 269.498 206.281C273.87 208.154 278.243 216.067 276.37 223.354C274.495 230.64 271.372 252.918 270.955 257.291C270.539 261.664 272.621 282.068 272.621 283.942C272.621 285.816 262.419 292.478 253.883 294.144C245.346 295.809 227.025 290.604 224.734 289.771C222.445 288.939 221.195 287.273 221.195 287.273C221.195 287.273 223.902 276.239 223.902 272.906C223.902 269.575 225.568 240.01 224.734 237.304C223.902 234.597 229.731 212.11 229.731 212.11" fill="#1D385E"/>
<path d="M237.497 220.407C236.229 219.646 229.731 212.111 229.731 212.111C229.731 212.111 208.325 229.54 206.549 231.061C204.773 232.583 202.49 234.105 202.236 234.866C201.983 235.627 202.628 240.325 206.433 245.399C210.238 250.471 213.93 251.788 215.198 251.535C216.467 251.281 236.237 240.723 236.237 240.723L237.497 220.407" fill="#1D385E"/>
<path d="M239.783 289.313C244.016 265.604 248.552 230.214 272.612 223.354C296.67 216.492 309.371 224.114 305.984 242.742C302.954 259.404 295.823 289.313 295.823 289.313H239.783" fill="#90AFD9"/>
<path d="M244.542 289.313C248.776 265.604 252.31 230.214 276.37 223.354C300.428 216.492 313.129 224.114 309.742 242.742C306.712 259.404 299.581 289.313 299.581 289.313H244.542" fill="#C1DAF3"/>
<path d="M332.605 278.152H74.3452V294.662H332.605V278.152Z" fill="white"/>
<path d="M195.446 151.432H125.734V82.7433H195.446V151.432Z" fill="#3B7BC7"/>
<path d="M130.786 128.128L150.309 107.262L170.648 124.322L180.226 116.766L190.527 128.938V146.539H130.786V128.128" fill="white"/>
<path d="M178.291 98.8155C178.291 102.8 175.06 106.03 171.075 106.03C167.09 106.03 163.86 102.8 163.86 98.8155C163.86 94.8302 167.09 91.6002 171.075 91.6002C175.06 91.6002 178.291 94.8302 178.291 98.8155Z" fill="white"/>
<path d="M151.621 94.8493V94.3485H66.0973V29.4631H151.12V94.8493H151.621V94.3485V94.8493H152.122V28.4615H65.0958V95.35H152.122V94.8493H151.621Z" fill="#3B7BC7"/>
<path d="M65.5966 42.4294H151.621V41.4278H65.5966V42.4294Z" fill="#3B7BC7"/>
<path d="M126.398 35.5046C126.398 37.1391 125.073 38.4632 123.439 38.4632C121.804 38.4632 120.479 37.1391 120.479 35.5046C120.479 33.87 121.804 32.5449 123.439 32.5449C125.073 32.5449 126.398 33.87 126.398 35.5046Z" fill="#DDE3EC"/>
<path d="M136.552 35.5046C136.552 37.1391 135.228 38.4632 133.594 38.4632C131.959 38.4632 130.635 37.1391 130.635 35.5046C130.635 33.87 131.959 32.5449 133.594 32.5449C135.228 32.5449 136.552 33.87 136.552 35.5046Z" fill="#92B2DE"/>
<path d="M146.708 35.5046C146.708 37.1391 145.382 38.4632 143.748 38.4632C142.114 38.4632 140.789 37.1391 140.789 35.5046C140.789 33.87 142.114 32.5449 143.748 32.5449C145.382 32.5449 146.708 33.87 146.708 35.5046Z" fill="#3B7BC7"/>
<path d="M75.4149 53.9354H141.921V52.9338H75.4149V53.9354Z" fill="#3B7BC7"/>
<path d="M75.4149 62.7521H131.472V61.7506H75.4149V62.7521Z" fill="#3B7BC7"/>
<path d="M75.4149 83.0919H110.217V82.0903H75.4149V83.0919Z" fill="#3B7BC7"/>
<path d="M312.578 150.016V151.143H311.452V151.894H313.33V150.016H312.578Z" fill="#92B2DE"/>
<path d="M308.487 151.143H305.522V151.894H308.487V151.143ZM302.557 151.143H299.592V151.894H302.557V151.143ZM296.628 151.143H293.663V151.894H296.628V151.143ZM290.698 151.143H287.733V151.894H290.698V151.143ZM284.768 151.143H281.803V151.894H284.768V151.143ZM278.839 151.143H275.874V151.894H278.839V151.143ZM272.909 151.143H269.945V151.894H272.909V151.143ZM266.979 151.143H264.014V151.894H266.979V151.143ZM261.05 151.143H258.085V151.894H261.05V151.143ZM255.121 151.143H252.156V151.894H255.121V151.143ZM249.19 151.143H246.226V151.894H249.19V151.143ZM243.261 151.143H240.297V151.894H243.261V151.143ZM237.332 151.143H234.366V151.894H237.332V151.143ZM231.402 151.143H228.437V151.894H231.402V151.143ZM225.472 151.143H222.508V151.894H225.472V151.143ZM219.543 151.143H216.578V151.894H219.543V151.143ZM213.613 151.143H210.648V151.894H213.613V151.143Z" fill="#92B2DE"/>
<path d="M207.683 151.143H206.556V150.016H205.805V151.894H207.683V151.143Z" fill="#92B2DE"/>
<path d="M206.556 143.814H205.805V146.916H206.556V143.814ZM206.556 137.61H205.805V140.712H206.556V137.61ZM206.556 131.407H205.805V134.508H206.556V131.407ZM206.556 125.204H205.805V128.306H206.556V125.204ZM206.556 119H205.805V122.102H206.556V119ZM206.556 112.797H205.805V115.898H206.556V112.797ZM206.556 106.594H205.805V109.695H206.556V106.594ZM206.556 100.39H205.805V103.492H206.556V100.39ZM206.556 94.1872H205.805V97.2894H206.556V94.1872ZM206.556 87.9836H205.805V91.0853H206.556V87.9836Z" fill="#92B2DE"/>
<path d="M206.556 84.8817V83.7549H207.683V83.0038H205.805V84.8817H206.556Z" fill="#92B2DE"/>
<path d="M210.648 83.7549H213.613V83.0038H210.648V83.7549ZM216.578 83.7549H219.543V83.0038H216.578V83.7549ZM222.508 83.7549H225.472V83.0038H222.508V83.7549ZM228.437 83.7549H231.403V83.0038H228.437V83.7549ZM234.367 83.7549H237.332V83.0038H234.367V83.7549ZM240.297 83.7549H243.261V83.0038H240.297V83.7549ZM246.226 83.7549H249.191V83.0038H246.226V83.7549ZM252.156 83.7549H255.12V83.0038H252.156V83.7549ZM258.085 83.7549H261.05V83.0038H258.085V83.7549ZM264.015 83.7549H266.98V83.0038H264.015V83.7549ZM269.945 83.7549H272.909V83.0038H269.945V83.7549ZM275.874 83.7549H278.839V83.0038H275.874V83.7549ZM281.803 83.7549H284.769V83.0038H281.803V83.7549ZM287.734 83.7549H290.698V83.0038H287.734V83.7549ZM293.663 83.7549H296.628V83.0038H293.663V83.7549ZM299.593 83.7549H302.558V83.0038H299.593V83.7549ZM305.522 83.7549H308.487V83.0038H305.522V83.7549Z" fill="#92B2DE"/>
<path d="M311.452 83.7549H312.578V84.8817H313.33V83.0038H311.452V83.7549Z" fill="#92B2DE"/>
<path d="M312.578 91.0854H313.33V87.9836H312.578V91.0854ZM312.578 97.2881H313.33V94.1863H312.578V97.2881ZM312.578 103.492H313.33V100.39H312.578V103.492ZM312.578 109.694H313.33V106.594H312.578V109.694ZM312.578 115.898H313.33V112.796H312.578V115.898ZM312.578 122.102H313.33V119H312.578V122.102ZM312.578 128.305H313.33V125.203H312.578V128.305ZM312.578 134.508H313.33V131.406H312.578V134.508ZM312.578 140.711H313.33V137.61H312.578V140.711ZM312.578 146.915H313.33V143.812H312.578V146.915Z" fill="#92B2DE"/>
<path d="M320.763 158.644H213.989V90.5045H320.763V158.644Z" fill="white"/>
<path d="M320.763 94.9565H213.989V90.5045H320.763V94.9565Z" fill="#92B2DE"/>
<path d="M310.225 92.7981C310.225 93.5032 309.653 94.0761 308.948 94.0761C308.242 94.0761 307.67 93.5032 307.67 92.7981C307.67 92.093 308.242 91.5211 308.948 91.5211C309.653 91.5211 310.225 92.093 310.225 92.7981Z" fill="white"/>
<path d="M314.609 92.7981C314.609 93.5032 314.037 94.0761 313.332 94.0761C312.626 94.0761 312.054 93.5032 312.054 92.7981C312.054 92.093 312.626 91.5211 313.332 91.5211C314.037 91.5211 314.609 92.093 314.609 92.7981Z" fill="#EDF7FD"/>
<path d="M318.992 92.7981C318.992 93.5032 318.421 94.0761 317.715 94.0761C317.009 94.0761 316.438 93.5032 316.438 92.7981C316.438 92.093 317.009 91.5211 317.715 91.5211C318.421 91.5211 318.992 92.093 318.992 92.7981Z" fill="#25499D"/>
<path d="M286.003 126.386C286.003 135.941 278.256 143.688 268.701 143.688C259.145 143.688 251.4 135.941 251.4 126.386C251.4 116.831 259.145 109.084 268.701 109.084C278.256 109.084 286.003 116.831 286.003 126.386Z" fill="#3B7BC7"/>
<path d="M265.112 120.272V133.508L276.579 126.889L265.112 120.272Z" fill="white"/>
<path d="M320.104 217.524H277.372C275.467 217.524 273.922 215.98 273.922 214.074V181.906H323.554V214.074C323.554 215.98 322.009 217.524 320.104 217.524" fill="#3B7BC7"/>
<path d="M320.104 167.635H277.372C275.467 167.635 273.922 169.179 273.922 171.083V181.906H323.554V171.083C323.554 169.179 322.009 167.635 320.104 167.635V167.635ZM320.104 168.637C321.454 168.637 322.552 169.734 322.552 171.083V180.905H274.924V171.083C274.924 169.734 276.021 168.637 277.372 168.637H320.104" fill="#3B7BC7"/>
<path d="M284.84 169.741H284.169C283.853 169.741 283.596 169.485 283.596 169.169V165.645C283.596 165.328 283.853 165.073 284.169 165.073H284.84C285.156 165.073 285.412 165.328 285.412 165.645V169.169C285.412 169.485 285.156 169.741 284.84 169.741Z" fill="#3B7BC7"/>
<path d="M292.417 169.741H291.745C291.429 169.741 291.173 169.485 291.173 169.169V165.645C291.173 165.328 291.429 165.073 291.745 165.073H292.417C292.733 165.073 292.988 165.328 292.988 165.645V169.169C292.988 169.485 292.733 169.741 292.417 169.741Z" fill="#3B7BC7"/>
<path d="M299.993 169.741H299.322C299.006 169.741 298.75 169.485 298.75 169.169V165.645C298.75 165.328 299.006 165.073 299.322 165.073H299.993C300.309 165.073 300.566 165.328 300.566 165.645V169.169C300.566 169.485 300.309 169.741 299.993 169.741Z" fill="#3B7BC7"/>
<path d="M307.571 169.741H306.899C306.583 169.741 306.328 169.485 306.328 169.169V165.645C306.328 165.328 306.583 165.073 306.899 165.073H307.571C307.886 165.073 308.142 165.328 308.142 165.645V169.169C308.142 169.485 307.886 169.741 307.571 169.741Z" fill="#3B7BC7"/>
<path d="M315.146 169.741H314.475C314.16 169.741 313.903 169.485 313.903 169.169V165.645C313.903 165.328 314.16 165.073 314.475 165.073H315.146C315.463 165.073 315.719 165.328 315.719 165.645V169.169C315.719 169.485 315.463 169.741 315.146 169.741Z" fill="#3B7BC7"/>
<path d="M296.721 210.227H294.286V194.084L289.403 195.878V193.678L296.342 191.073H296.721V210.227ZM298.044 232.848C297.537 233.45 296.931 233.935 296.224 234.301C295.525 234.668 294.757 234.851 293.919 234.851C292.82 234.851 291.86 234.58 291.039 234.039C290.227 233.498 289.599 232.739 289.154 231.761C288.709 230.775 288.486 229.688 288.486 228.501C288.486 227.227 288.726 226.079 289.206 225.058C289.695 224.037 290.384 223.255 291.275 222.714C292.165 222.173 293.204 221.902 294.391 221.902C296.276 221.902 297.76 222.609 298.842 224.023C299.933 225.429 300.479 227.349 300.479 229.784V230.491C300.479 234.201 299.746 236.911 298.279 238.622C296.813 240.324 294.6 241.197 291.641 241.24H291.17V239.198H291.681C293.679 239.163 295.216 238.644 296.289 237.64C297.363 236.627 297.948 235.03 298.044 232.848ZM294.312 232.848C295.124 232.848 295.87 232.599 296.551 232.102C297.241 231.604 297.743 230.989 298.057 230.256V229.287C298.057 227.698 297.712 226.406 297.022 225.411C296.333 224.416 295.46 223.919 294.404 223.919C293.339 223.919 292.484 224.329 291.838 225.149C291.192 225.961 290.869 227.035 290.869 228.37C290.869 229.671 291.179 230.744 291.798 231.591C292.427 232.429 293.265 232.848 294.312 232.848Z" fill="white"/>
<path d="M329.777 50.484L212.373 50.6873L212.37 49.6476L329.781 49.4443L329.777 50.484Z" fill="#E9EFF9"/>
<path d="M329.783 57.1174L212.379 57.3207L212.376 56.281L329.786 56.0777L329.783 57.1174" fill="#E9EFF9"/>
<path d="M298.355 63.7357L212.384 63.954L212.381 62.9144L298.359 62.697L298.355 63.7357" fill="#E9EFF9"/>
<path d="M314.928 43.1295L314.923 39.7692L212.449 39.7321L212.465 43.0914L314.928 43.1295" fill="#3B7BC7"/>
<path d="M214.989 33.7889L212.979 34.9156L213.428 32.6541L211.734 31.0886L214.023 30.8172L214.989 28.723L215.956 30.8172L218.245 31.0886L216.552 32.6541L217.002 34.9156L214.989 33.7889" fill="#3B7BC7"/>
<path d="M224.489 33.7889L222.477 34.9156L222.926 32.6541L221.234 31.0886L223.523 30.8172L224.489 28.723L225.455 30.8172L227.745 31.0886L226.051 32.6541L226.5 34.9156L224.489 33.7889" fill="#3B7BC7"/>
<path d="M233.988 33.7889L231.976 34.9156L232.425 32.6541L230.733 31.0886L233.022 30.8172L233.988 28.723L234.953 30.8172L237.243 31.0886L235.551 32.6541L236 34.9156L233.988 33.7889" fill="#3B7BC7"/>
<path d="M243.487 33.7889L241.475 34.9156L241.924 32.6541L240.231 31.0886L242.521 30.8172L243.487 28.723L244.452 30.8172L246.742 31.0886L245.049 32.6541L245.499 34.9156L243.487 33.7889Z" fill="#3B7BC7"/>
<path d="M252.986 33.7889L250.974 34.9156L251.423 32.6541L249.73 31.0886L252.02 30.8172L252.986 28.723L253.952 30.8172L256.241 31.0886L254.548 32.6541L254.998 34.9156L252.986 33.7889" fill="#3B7BC7"/>
<path d="M202.771 46.3875C202.771 56.7918 194.337 65.226 183.933 65.226C173.529 65.226 165.094 56.7918 165.094 46.3875C165.094 35.9843 173.529 27.5491 183.933 27.5491C194.337 27.5491 202.771 35.9843 202.771 46.3875Z" fill="#3B7BC7"/>
<path d="M183.933 48.6501C176.156 48.6501 169.853 54.9539 169.853 62.7301V65.8299H198.012V62.7301C198.012 54.9539 191.709 48.6501 183.933 48.6501Z" fill="white"/>
<path d="M190.545 39.9665C190.545 43.6182 187.584 46.5789 183.933 46.5789C180.281 46.5789 177.32 43.6182 177.32 39.9665C177.32 36.3148 180.281 33.3542 183.933 33.3542C187.584 33.3542 190.545 36.3148 190.545 39.9665Z" fill="white"/>
<path d="M106.751 228.495H41.8915C39.6049 228.495 37.751 230.348 37.751 232.635V257.492C37.751 259.779 39.6049 261.633 41.8915 261.633H88.6646L102.901 270.71L101.17 261.633H106.751C109.036 261.633 110.89 259.779 110.89 257.492V232.635C110.89 230.348 109.036 228.495 106.751 228.495" fill="#3B7BC7"/>
<path d="M48.7001 237.8H102.201V236.798H48.7001V237.8Z" fill="#F8F8F8"/>
<path d="M48.7001 245.525H102.201V244.523H48.7001V245.525Z" fill="#F8F8F8"/>
<path d="M48.7001 253.25H68.0816V252.248H48.7001V253.25Z" fill="#F8F8F8"/>
<path d="M104.521 143.928C102.714 145.738 100.261 146.752 97.7027 146.752C95.1437 146.752 92.6908 145.738 90.882 143.928C89.0742 142.119 88.0576 139.666 88.0576 137.109C88.0576 134.551 89.0742 132.098 90.882 130.29C92.6908 128.481 95.1437 127.465 97.7027 127.465C100.261 127.465 102.714 128.481 104.521 130.29C106.33 132.098 107.347 134.551 107.347 137.109C107.347 139.666 106.33 142.119 104.521 143.928ZM117.05 141.244V132.809H113.549C113.176 131.404 112.619 130.059 111.891 128.803L114.367 126.327L108.4 120.362L105.926 122.838C104.669 122.109 103.323 121.552 101.92 121.178V117.678H93.4841V121.178C92.0809 121.552 90.7358 122.109 89.4788 122.838L87.003 120.362L81.0387 126.327L83.5135 128.803C82.7854 130.059 82.2285 131.404 81.8549 132.809H78.3535V141.244H81.8549C82.2285 142.648 82.7854 143.993 83.5135 145.249L81.0387 147.725L87.003 153.69L89.4788 151.215C90.7358 151.943 92.0809 152.5 93.4841 152.874V156.374H101.92V152.874C103.323 152.5 104.669 151.943 105.926 151.215L108.4 153.69L114.367 147.725L111.891 145.249C112.619 143.993 113.176 142.648 113.549 141.244H117.05Z" fill="#92B2DE"/>
<path d="M67.9572 167.06C66.3607 167.537 64.6421 167.361 63.1768 166.569C61.7105 165.777 60.6198 164.436 60.143 162.841C59.6673 161.244 59.8436 159.524 60.6358 158.06C61.427 156.595 62.7681 155.504 64.3636 155.027C65.9591 154.551 67.6788 154.727 69.1441 155.518C70.6094 156.31 71.7001 157.651 72.1768 159.247C72.6536 160.842 72.4763 162.563 71.6851 164.027C70.8938 165.493 69.5517 166.583 67.9572 167.06V167.06ZM75.9647 169.399L78.5748 164.567L76.5687 163.484C76.79 162.564 76.8872 161.621 76.8581 160.676L79.0426 160.023L77.4711 154.761L75.2867 155.413C74.7919 154.607 74.194 153.872 73.5059 153.222L74.5886 151.217L69.755 148.607L68.6723 150.612C67.7529 150.392 66.8105 150.296 65.865 150.324L65.213 148.141L59.9497 149.712L60.6018 151.895C59.7965 152.39 59.0603 152.988 58.4123 153.677L56.4072 152.594L53.7971 157.427L55.8022 158.51C55.5819 159.429 55.4848 160.372 55.5138 161.317L53.3304 161.97L54.9008 167.232L57.0852 166.579C57.58 167.387 58.177 168.121 58.866 168.77L57.7833 170.775L62.6159 173.385L63.6986 171.38C64.619 171.6 65.5615 171.697 66.507 171.668L67.159 173.853L72.4222 172.281L71.7692 170.097C72.5755 169.602 73.3106 169.004 73.9596 168.316L75.9647 169.399" fill="white"/>
<path d="M76.121 183.602H16.4948C15.3851 183.602 14.4847 184.502 14.4847 185.611V219.738C14.4847 220.848 15.3851 221.748 16.4948 221.748H76.121C77.2307 221.748 78.1311 220.848 78.1311 219.739V185.611C78.1311 184.502 77.2307 183.602 76.121 183.602Z" fill="#C1DAF3"/>
<path d="M78.1311 190.274V185.611C78.1311 184.502 77.2307 183.602 76.121 183.602H16.4948C15.3851 183.602 14.4847 184.502 14.4847 185.611V190.274H78.1311Z" fill="#3B7BC7"/>
<path d="M35.3321 208.075L43.8481 211.517V214.183L32.7201 209.027V207.041L43.8481 201.899V204.565L35.3321 208.075ZM48.3237 218.536H46.1607L54.4319 197.029H56.5813L48.3237 218.536ZM42.5557 240.993L33.5636 237.47V234.885L45.1813 240.027V242.013L33.5636 247.169V244.557L42.5557 240.993Z" fill="white"/>
</svg>
