<svg width="347" height="320" viewBox="0 0 347 320" fill="none" xmlns="http://www.w3.org/2000/svg">
<path d="M328.866 264.366H18V264.584H328.866V264.366Z" fill="#EBEBEB"/>
<path d="M297.717 276.088H277.137V276.306H297.717V276.088Z" fill="#EBEBEB"/>
<path d="M223.917 278.054H218.508V278.272H223.917V278.054Z" fill="#EBEBEB"/>
<path d="M276.516 269.317H264.579V269.535H276.516V269.317Z" fill="#EBEBEB"/>
<path d="M77.4997 270.555H50.6409V270.773H77.4997V270.555Z" fill="#EBEBEB"/>
<path d="M86.9499 270.555H83.033V270.773H86.9499V270.555Z" fill="#EBEBEB"/>
<path d="M158.015 273.613H99.7578V273.83H158.015V273.613Z" fill="#EBEBEB"/>
<path d="M165.35 231.895H45.2944C43.367 231.895 41.7505 230.002 41.7505 227.745V30.1499C41.7505 27.8929 43.367 26 45.2944 26H165.35C167.278 26 168.895 27.8929 168.895 30.1499V227.745C168.895 230.002 167.34 231.895 165.35 231.895ZM45.2944 26.1456C43.4292 26.1456 41.8748 27.8929 41.8748 30.1499V227.745C41.8748 229.929 43.367 231.749 45.2944 231.749H165.35C167.216 231.749 168.77 230.002 168.77 227.745V30.1499C168.77 27.9658 167.278 26.1456 165.35 26.1456H45.2944Z" fill="#EBEBEB"/>
<path d="M299.831 231.895H179.775C177.847 231.895 176.231 230.002 176.231 227.745V30.1499C176.231 27.8929 177.847 26 179.775 26H299.831C301.758 26 303.375 27.8929 303.375 30.1499V227.745C303.375 230.002 301.82 231.895 299.831 231.895ZM179.775 26.1456C177.91 26.1456 176.356 27.8929 176.356 30.1499V227.745C176.356 229.929 177.847 231.749 179.775 231.749H299.831C301.696 231.749 303.251 230.002 303.251 227.745V30.1499C303.251 27.9658 301.758 26.1456 299.831 26.1456H179.775Z" fill="#EBEBEB"/>
<path d="M71.0958 237.719C71.0958 237.429 71.904 208.815 75.8831 204.302C79.7378 199.933 84.1521 204.156 84.3386 204.302L84.7117 203.719C84.6495 203.646 79.6757 198.914 75.3857 203.719C71.2201 208.451 70.4119 236.409 70.4119 237.647L71.0958 237.719Z" fill="#E0E0E0"/>
<path d="M70.7227 243.325C70.7227 242.961 73.4583 208.961 62.8267 194.764L62.3293 195.273C72.7744 209.253 70.101 242.961 70.0388 243.325H70.7227Z" fill="#B0AEAE"/>
<path d="M71.1582 239.758L71.7799 239.685C71.7799 239.321 69.7282 201.025 77.4998 192.653L77.0646 192.143C69.0443 200.807 71.0338 238.156 71.1582 239.758Z" fill="#B0AEAE"/>
<path d="M70.1012 239.758H70.723C70.723 238.739 70.4743 213.912 64.4435 209.907C63.1378 209.034 61.77 208.889 60.5266 209.471C56.9205 211.218 55.1175 218.79 54.9932 219.154L55.6149 219.372C55.6149 219.3 57.4179 211.8 60.7753 210.199C61.8322 209.689 62.9513 209.835 64.1326 210.636C69.8526 214.349 70.1012 239.467 70.1012 239.758Z" fill="#B0AEAE"/>
<path d="M72.463 239.758L73.0848 239.685C73.0848 239.467 72.1522 220.1 76.6286 213.257C77.6856 211.582 78.8669 210.781 80.1103 210.927C83.0325 211.145 85.5194 216.169 85.5194 216.241L86.0789 215.877C85.9546 215.659 83.4055 210.49 80.1725 210.199C78.7425 210.053 77.3747 210.927 76.1312 212.82C71.5304 219.882 72.4008 238.957 72.463 239.758Z" fill="#B0AEAE"/>
<path d="M71.4691 242.379C71.5935 240.486 74.3912 196.22 69.4796 188.43L68.9822 188.867C73.7695 196.438 70.9095 241.87 70.8474 242.306L71.4691 242.379Z" fill="#B0AEAE"/>
<path d="M59.2209 213.912C59.2209 213.912 62.2052 215.223 61.2726 218.208C60.4022 221.192 51.0762 226.144 51.0762 226.144C51.0762 226.144 47.1593 221.921 50.7654 215.077C54.3714 208.305 59.1588 211.728 59.2209 213.912Z" fill="#B0AEAE"/>
<path d="M72.0906 208.16C72.0906 208.16 68.9197 208.015 68.7954 211.218C68.6089 214.421 75.6344 223.159 75.6344 223.159C75.6344 223.159 80.6083 221.047 79.5513 213.111C78.4322 205.175 72.8988 206.194 72.0906 208.16Z" fill="#B0AEAE"/>
<path d="M74.764 192.944C74.764 192.944 72.6501 192.653 72.8366 191.196C73.0231 189.668 80.9813 185.881 85.7065 192.07C85.7065 192.07 82.66 198.113 78.3078 198.186C73.9557 198.332 74.764 192.944 74.764 192.944Z" fill="#EBEBEB"/>
<path d="M70.8472 189.304C70.8472 189.304 72.7745 190.396 73.2719 189.012C73.8315 187.629 68.7955 179.402 61.9564 181.804C61.9564 181.804 61.7699 188.794 65.4381 191.56C69.1063 194.4 70.8472 189.304 70.8472 189.304Z" fill="#EBEBEB"/>
<path d="M80.7948 212.674C80.7948 212.674 79.3648 211.291 80.9191 210.636C82.4734 209.98 90.1207 210.126 90.2451 219.081C90.2451 219.081 81.2921 220.828 80.2352 217.407C79.0539 214.057 80.7948 212.674 80.7948 212.674Z" fill="#B0AEAE"/>
<path d="M62.578 192.725C62.578 192.725 64.008 191.342 62.4537 190.686C60.8993 190.032 53.252 190.177 53.1277 199.132C53.1277 199.132 62.0806 200.879 63.1376 197.458C64.3188 194.109 62.578 192.725 62.578 192.725Z" fill="#EBEBEB"/>
<path d="M67.3034 199.933C67.3034 199.933 67.4278 198.258 66.3087 198.914C65.1896 199.569 61.1483 204.592 65.3139 209.398C65.3139 209.398 70.9095 204.592 69.9147 202.045C68.8578 199.496 67.3034 199.933 67.3034 199.933Z" fill="#EBEBEB"/>
<path d="M82.0998 202.263C82.0998 202.263 81.2294 200.953 82.4728 200.734C83.7163 200.589 89.4362 202.336 88.0684 208.961C88.0684 208.961 81.1672 208.379 80.8563 205.612C80.6076 202.918 82.0998 202.263 82.0998 202.263Z" fill="#EBEBEB"/>
<path d="M58.7236 264.366H82.4737L85.0228 233.934H56.1123L58.7236 264.366Z" fill="#C4C4C4"/>
<path d="M54.8718 237.308H86.2693V230.61H54.8718V237.308Z" fill="#B0AEAE"/>
<path d="M275.522 237.719C275.522 237.429 274.713 208.815 270.735 204.302C266.879 199.933 262.465 204.156 262.278 204.302L261.906 203.719C261.968 203.646 266.941 198.914 271.231 203.719C275.398 208.451 276.205 236.409 276.205 237.647L275.522 237.719Z" fill="#E0E0E0"/>
<path d="M275.894 243.325C275.894 242.961 273.159 208.961 283.79 194.764L284.287 195.273C273.843 209.253 276.516 242.961 276.578 243.325H275.894Z" fill="#E0E0E0"/>
<path d="M275.459 239.758L274.837 239.685C274.837 239.321 276.888 201.025 269.117 192.653L269.552 192.143C277.573 200.807 275.583 238.156 275.459 239.758Z" fill="#E0E0E0"/>
<path d="M276.516 239.758H275.895C275.895 238.739 276.143 213.912 282.174 209.907C283.479 209.034 284.848 208.889 286.091 209.471C289.697 211.218 291.5 218.79 291.624 219.154L291.002 219.372C291.002 219.3 289.2 211.8 285.842 210.199C284.785 209.689 283.666 209.835 282.485 210.636C276.765 214.349 276.516 239.467 276.516 239.758Z" fill="#E0E0E0"/>
<path d="M274.153 239.758L273.532 239.685C273.532 239.467 274.464 220.1 269.988 213.257C268.931 211.582 267.75 210.781 266.507 210.927C263.584 211.145 261.097 216.169 261.097 216.241L260.538 215.877C260.662 215.659 263.211 210.49 266.445 210.199C267.874 210.053 269.242 210.927 270.486 212.82C275.086 219.882 274.216 238.957 274.153 239.758Z" fill="#E0E0E0"/>
<path d="M275.148 242.379C275.024 240.486 272.226 196.22 277.138 188.43L277.635 188.867C272.848 196.438 275.708 241.87 275.77 242.306L275.148 242.379Z" fill="#E0E0E0"/>
<path d="M287.396 213.912C287.396 213.912 284.412 215.223 285.344 218.208C286.215 221.192 295.541 226.144 295.541 226.144C295.541 226.144 299.457 221.921 295.852 215.077C292.245 208.305 287.458 211.728 287.396 213.912Z" fill="#EBEBEB"/>
<path d="M274.527 208.16C274.527 208.16 277.698 208.015 277.822 211.218C278.009 214.421 270.983 223.159 270.983 223.159C270.983 223.159 266.009 221.047 267.066 213.111C268.185 205.175 273.718 206.194 274.527 208.16Z" fill="#EBEBEB"/>
<path d="M271.852 192.944C271.852 192.944 273.967 192.653 273.78 191.196C273.594 189.668 265.635 185.881 260.91 192.07C260.91 192.07 263.957 198.113 268.309 198.186C272.661 198.332 271.852 192.944 271.852 192.944Z" fill="#EBEBEB"/>
<path d="M275.77 189.304C275.77 189.304 273.843 190.396 273.346 189.012C272.786 187.629 277.822 179.402 284.661 181.804C284.661 181.804 284.848 188.794 281.179 191.56C277.511 194.4 275.77 189.304 275.77 189.304Z" fill="#EBEBEB"/>
<path d="M265.822 212.674C265.822 212.674 267.252 211.291 265.698 210.636C264.144 209.98 256.496 210.126 256.372 219.081C256.372 219.081 265.325 220.828 266.382 217.407C267.563 214.057 265.822 212.674 265.822 212.674Z" fill="#EBEBEB"/>
<path d="M284.039 192.725C284.039 192.725 282.61 191.342 284.164 190.686C285.718 190.032 293.365 190.177 293.49 199.132C293.49 199.132 284.537 200.879 283.479 197.458C282.361 194.109 284.039 192.725 284.039 192.725Z" fill="#EBEBEB"/>
<path d="M279.313 199.933C279.313 199.933 279.189 198.258 280.309 198.914C281.427 199.569 285.469 204.592 281.303 209.398C281.303 209.398 275.708 204.592 276.702 202.045C277.76 199.496 279.313 199.933 279.313 199.933Z" fill="#EBEBEB"/>
<path d="M264.517 202.263C264.517 202.263 265.387 200.953 264.144 200.734C262.9 200.589 257.18 202.336 258.548 208.961C258.548 208.961 265.449 208.379 265.76 205.612C266.009 202.918 264.517 202.263 264.517 202.263Z" fill="#EBEBEB"/>
<path d="M287.955 264.366H264.206L261.595 233.934H290.505L287.955 264.366Z" fill="#C4C4C4"/>
<path d="M291.749 230.585H260.351V237.283H291.749V230.585Z" fill="#E6E6E6"/>
<path d="M165.785 79.0026H102.555V227.891H165.785V79.0026Z" fill="#C4C4C4"/>
<path d="M167.278 76.9641H101.125V84.2447H167.278V76.9641Z" fill="#B0AEAE"/>
<path d="M167.278 85.0455H101.125V88.6859H167.278V85.0455Z" fill="#B0AEAE"/>
<path d="M167.278 90.506H101.125V94.1465H167.278V90.506Z" fill="#B0AEAE"/>
<path d="M167.278 95.8936H101.125V99.5341H167.278V95.8936Z" fill="#B0AEAE"/>
<path d="M167.278 101.354H101.125V104.994H167.278V101.354Z" fill="#B0AEAE"/>
<path d="M167.278 106.742H101.125V110.382H167.278V106.742Z" fill="#B0AEAE"/>
<path d="M167.278 112.202H101.125V115.843H167.278V112.202Z" fill="#B0AEAE"/>
<path d="M167.278 117.59H101.125V121.23H167.278V117.59Z" fill="#B0AEAE"/>
<path d="M167.278 123.051H101.125V126.69H167.278V123.051Z" fill="#B0AEAE"/>
<path d="M167.278 128.438H101.125V132.078H167.278V128.438Z" fill="#B0AEAE"/>
<path d="M167.278 133.898H101.125V137.539H167.278V133.898Z" fill="#B0AEAE"/>
<path d="M167.278 139.286H101.125V142.926H167.278V139.286Z" fill="#B0AEAE"/>
<path d="M167.278 144.747H101.125V148.386H167.278V144.747Z" fill="#B0AEAE"/>
<path d="M167.278 150.134H101.125V153.774H167.278V150.134Z" fill="#B0AEAE"/>
<path d="M167.278 155.594H101.125V159.235H167.278V155.594Z" fill="#B0AEAE"/>
<path d="M167.278 160.982H101.125V164.622H167.278V160.982Z" fill="#B0AEAE"/>
<path d="M167.278 166.443H101.125V170.083H167.278V166.443Z" fill="#B0AEAE"/>
<path d="M167.278 171.83H101.125V175.47H167.278V171.83Z" fill="#B0AEAE"/>
<path d="M167.278 177.29H101.125V180.931H167.278V177.29Z" fill="#B0AEAE"/>
<path d="M167.278 182.678H101.125V186.319H167.278V182.678Z" fill="#B0AEAE"/>
<path d="M167.278 188.139H101.125V191.779H167.278V188.139Z" fill="#B0AEAE"/>
<path d="M167.278 193.526H101.125V197.166H167.278V193.526Z" fill="#B0AEAE"/>
<path d="M167.278 198.987H101.125V202.627H167.278V198.987Z" fill="#B0AEAE"/>
<path d="M167.278 204.374H101.125V208.015H167.278V204.374Z" fill="#B0AEAE"/>
<path d="M167.278 209.835H101.125V213.475H167.278V209.835Z" fill="#B0AEAE"/>
<path d="M167.278 215.223H101.125V218.862H167.278V215.223Z" fill="#B0AEAE"/>
<path d="M167.278 220.61H101.125V224.25H167.278V220.61Z" fill="#B0AEAE"/>
<path d="M167.278 226.07H101.125V229.711H167.278V226.07Z" fill="#B0AEAE"/>
<path d="M244.31 79.0026H181.08V227.891H244.31V79.0026Z" fill="#FAFAFA"/>
<path d="M245.74 76.9641H179.588V84.2447H245.74V76.9641Z" fill="#F0F0F0"/>
<path d="M245.74 85.0455H179.588V85.7008H245.74V85.0455Z" fill="#F0F0F0"/>
<path d="M245.74 86.5745H179.588V87.2297H245.74V86.5745Z" fill="#F0F0F0"/>
<path d="M245.74 88.1034H179.588V88.7586H245.74V88.1034Z" fill="#F0F0F0"/>
<path d="M245.74 89.6323H179.588V90.2877H245.74V89.6323Z" fill="#F0F0F0"/>
<path d="M245.74 91.1616H179.588V91.8164H245.74V91.1616Z" fill="#F0F0F0"/>
<path d="M245.74 92.6903H179.588V93.3452H245.74V92.6903Z" fill="#F0F0F0"/>
<path d="M245.74 94.2191H179.588V94.8747H245.74V94.2191Z" fill="#F0F0F0"/>
<path d="M245.74 95.7478H179.588V96.4034H245.74V95.7478Z" fill="#F0F0F0"/>
<path d="M245.74 97.2765H179.588V97.9321H245.74V97.2765Z" fill="#F0F0F0"/>
<path d="M245.74 98.806H179.588V99.4609H245.74V98.806Z" fill="#F0F0F0"/>
<path d="M245.74 100.335H179.588V100.99H245.74V100.335Z" fill="#F0F0F0"/>
<path d="M245.74 101.863H179.588V102.519H245.74V101.863Z" fill="#F0F0F0"/>
<path d="M245.74 103.392H179.588V104.048H245.74V103.392Z" fill="#F0F0F0"/>
<path d="M245.74 104.922H179.588V105.577H245.74V104.922Z" fill="#F0F0F0"/>
<path d="M245.74 106.45H179.588V107.106H245.74V106.45Z" fill="#F0F0F0"/>
<path d="M245.74 107.979H179.588V108.635H245.74V107.979Z" fill="#F0F0F0"/>
<path d="M245.74 109.508H179.588V110.164H245.74V109.508Z" fill="#F0F0F0"/>
<path d="M245.74 111.037H179.588V111.692H245.74V111.037Z" fill="#F0F0F0"/>
<path d="M182.791 57.8065C183.634 51.7743 180.139 46.0961 174.986 45.1237C169.832 44.1513 164.972 48.253 164.13 54.2852C163.288 60.3173 166.784 65.9956 171.937 66.9679C177.09 67.9403 181.949 63.8386 182.791 57.8065Z" fill="#B0AEAE"/>
<path d="M181.366 57.561C182.075 52.4409 179.106 47.6166 174.733 46.7856C170.361 45.9546 166.241 49.4317 165.532 54.5518C164.823 59.6719 167.791 64.4962 172.164 65.3272C176.536 66.1582 180.656 62.6811 181.366 57.561Z" fill="#C4C4C4"/>
<path d="M173.06 49.5891V56.1416L169.33 53.739" fill="#F0F0F0"/>
<path d="M173.06 49.5891V56.1416L169.33 53.739" stroke="#E0E0E0" stroke-width="2" stroke-miterlimit="10" stroke-linecap="round" stroke-linejoin="round"/>
<path d="M173.055 293C254.052 293 319.714 289.179 319.714 284.465C319.714 279.751 254.052 275.93 173.055 275.93C92.0573 275.93 26.3958 279.751 26.3958 284.465C26.3958 289.179 92.0573 293 173.055 293Z" fill="#C4C4C4"/>
<path opacity="0.5" d="M315.629 242.395H177.442C175.929 242.395 174.643 241.186 174.643 239.6V88.9924C174.643 87.4818 175.853 86.1977 177.442 86.1977H315.629C317.142 86.1977 318.428 87.4062 318.428 88.9924V239.676C318.352 241.186 317.142 242.395 315.629 242.395Z" fill="#407BFF"/>
<path d="M311.091 239.373H172.904C171.391 239.373 170.105 238.165 170.105 236.579V85.9711C170.105 84.4605 171.315 83.1765 172.904 83.1765H311.091C312.604 83.1765 313.89 84.385 313.89 85.9711V236.654C313.814 238.165 312.604 239.373 311.091 239.373Z" fill="#407BFF"/>
<path opacity="0.8" d="M311.091 239.373H172.904C171.391 239.373 170.105 238.165 170.105 236.579V85.9711C170.105 84.4605 171.315 83.1765 172.904 83.1765H311.091C312.604 83.1765 313.89 84.385 313.89 85.9711V236.654C313.814 238.165 312.604 239.373 311.091 239.373Z" fill="white"/>
<path opacity="0.5" d="M126.992 216.035H56.8774C55.3647 216.035 54.0789 214.826 54.0789 213.24V85.2914C54.0789 83.7808 55.289 82.4967 56.8774 82.4967H126.992C128.505 82.4967 129.791 83.7052 129.791 85.2914V213.315C129.715 214.826 128.505 216.035 126.992 216.035Z" fill="#407BFF"/>
<path d="M122.454 211.503H52.3391C50.8263 211.503 49.5405 210.294 49.5405 208.708V80.7596C49.5405 79.249 50.7507 77.9649 52.3391 77.9649H122.454C123.967 77.9649 125.252 79.1734 125.252 80.7596V208.784C125.177 210.294 123.967 211.503 122.454 211.503Z" fill="#407BFF"/>
<path opacity="0.8" d="M122.454 211.503H52.3391C50.8263 211.503 49.5405 210.294 49.5405 208.708V80.7596C49.5405 79.249 50.7507 77.9649 52.3391 77.9649H122.454C123.967 77.9649 125.252 79.1734 125.252 80.7596V208.784C125.177 210.294 123.967 211.503 122.454 211.503Z" fill="white"/>
<path d="M311.545 56.6653H52.4903C50.902 56.6653 49.5405 55.3813 49.5405 53.7197V42.0124C49.5405 40.4263 50.8263 39.0668 52.4903 39.0668H311.545C313.133 39.0668 314.495 40.3508 314.495 42.0124V53.7952C314.419 55.3058 313.133 56.6653 311.545 56.6653Z" fill="#407BFF"/>
<path opacity="0.6" d="M287.568 47.8283C287.568 49.7166 286.056 51.2272 284.165 51.2272C282.274 51.2272 280.761 49.7166 280.761 47.8283C280.761 45.94 282.274 44.4294 284.165 44.4294C286.056 44.4294 287.568 45.94 287.568 47.8283Z" fill="white"/>
<path opacity="0.6" d="M298.157 47.8283C298.157 49.7166 296.645 51.2272 294.754 51.2272C292.863 51.2272 291.35 49.7166 291.35 47.8283C291.35 45.94 292.863 44.4294 294.754 44.4294C296.645 44.4294 298.157 45.94 298.157 47.8283Z" fill="white"/>
<path opacity="0.6" d="M308.822 47.8283C308.822 49.7166 307.309 51.2272 305.419 51.2272C303.528 51.2272 302.015 49.7166 302.015 47.8283C302.015 45.94 303.528 44.4294 305.419 44.4294C307.309 44.4294 308.822 45.94 308.822 47.8283Z" fill="white"/>
<path opacity="0.6" d="M64.4411 43.4475H55.7429V52.2846H64.4411V43.4475Z" fill="white"/>
<path d="M120.487 99.2645H38.9512V114.824H120.487V99.2645Z" fill="#407BFF"/>
<path opacity="0.2" d="M120.487 99.2645H38.9512V114.824H120.487V99.2645Z" fill="black"/>
<path d="M50.6747 103.872H44.1699V110.367H50.6747V103.872Z" fill="white"/>
<path d="M45.6069 107.12L46.8171 108.63L49.2375 105.534" stroke="#407BFF" stroke-width="1.5" stroke-miterlimit="10" stroke-linecap="round" stroke-linejoin="round"/>
<path d="M116.176 110.745H109.596V106.289H116.176V110.745ZM112.924 103.041C111.411 103.041 110.125 104.25 110.125 105.836H110.882C110.882 104.703 111.789 103.796 112.924 103.796C114.058 103.796 114.966 104.703 114.966 105.836H115.722C115.722 104.325 114.436 103.041 112.924 103.041Z" fill="#407BFF"/>
<path d="M108.461 128.117H26.925V143.676H108.461V128.117Z" fill="#407BFF"/>
<path opacity="0.4" d="M108.461 128.117H26.925V143.676H108.461V128.117Z" fill="white"/>
<path d="M38.6485 132.649H32.1438V139.145H38.6485V132.649Z" fill="white"/>
<path d="M104.226 135.141H97.6453V139.598H104.226V135.141Z" fill="white"/>
<path d="M103.696 134.613H102.94C102.94 133.48 102.032 132.573 100.897 132.573C99.7629 132.573 98.8552 133.48 98.8552 134.613H98.0989C98.0989 133.102 99.3091 131.818 100.897 131.818C102.486 131.894 103.696 133.102 103.696 134.613Z" fill="white"/>
<path d="M120.866 158.254H39.3293V173.813H120.866V158.254Z" fill="#407BFF"/>
<path opacity="0.4" d="M120.866 158.254H39.3293V173.813H120.866V158.254Z" fill="white"/>
<path d="M51.0528 162.786H44.5481V169.281H51.0528V162.786Z" fill="white"/>
<path d="M45.9851 166.033L47.1953 167.62L49.6913 164.447" stroke="#407BFF" stroke-width="1.5" stroke-miterlimit="10" stroke-linecap="round" stroke-linejoin="round"/>
<g opacity="0.6">
<path opacity="0.6" d="M116.63 165.278H110.05V169.734H116.63V165.278Z" fill="white"/>
<g opacity="0.6">
<path opacity="0.6" d="M116.101 164.825H115.344C115.344 163.692 114.437 162.786 113.302 162.786C112.167 162.786 111.26 163.692 111.26 164.825H110.503C110.503 163.314 111.714 162.03 113.302 162.03C114.89 162.03 116.101 163.239 116.101 164.825Z" fill="white"/>
</g>
</g>
<path d="M294.981 141.259H231.295V182.65H294.981V141.259Z" fill="#407BFF"/>
<path opacity="0.5" d="M294.981 141.259H231.295V182.65H294.981V141.259Z" fill="white"/>
<path d="M292.56 149.039H233.564V180.611H292.56V149.039Z" fill="#407BFF"/>
<path d="M282.047 153.722H238.405V155.081H282.047V153.722Z" fill="white"/>
<path d="M259.356 157.876H238.405V159.236H259.356V157.876Z" fill="white"/>
<path d="M264.802 162.03H238.405V163.39H264.802V162.03Z" fill="white"/>
<path d="M247.708 166.184H238.405V167.544H247.708V166.184Z" fill="white"/>
<path d="M244.455 170.339H238.405V171.698H244.455V170.339Z" fill="white"/>
<path d="M296.796 222.832V245.869C296.796 247.153 295.813 248.286 294.602 248.437C294.451 248.437 294.376 248.437 294.224 248.437H264.575C263.138 248.437 261.927 247.304 261.927 245.793V222.757C261.927 222.379 262.003 221.926 262.23 221.624C262.684 220.717 263.516 220.113 264.575 220.113H276.223C276.752 220.113 277.357 219.962 277.735 219.584C278.189 219.282 278.492 218.829 278.719 218.3C279.097 217.243 280.08 216.488 281.215 216.488H287.417C288.552 216.488 289.535 217.243 289.913 218.3C290.291 219.358 291.274 220.113 292.409 220.113H294.3C295.586 220.264 296.796 221.397 296.796 222.832Z" fill="#407BFF"/>
<path opacity="0.3" d="M294.527 223.965V248.513H264.499C263.062 248.513 261.852 247.38 261.852 245.869V222.832C261.852 222.455 261.927 222.001 262.154 221.699H292.333C293.544 221.699 294.527 222.681 294.527 223.965Z" fill="white"/>
<path d="M226 188.919V217.772L220.327 223.361H199.603V188.919H226Z" fill="#407BFF"/>
<path opacity="0.4" d="M226 188.919V217.772L220.327 223.361H199.603V188.919H226Z" fill="white"/>
<path d="M226 217.772H220.327V223.361L226 217.772Z" fill="#407BFF"/>
<path d="M222.824 194.735H202.931V195.792H222.824V194.735Z" fill="#407BFF"/>
<path d="M219.647 198.058H202.931V199.116H219.647V198.058Z" fill="#407BFF"/>
<path d="M222.824 201.382H202.931V202.439H222.824V201.382Z" fill="#407BFF"/>
<path d="M210.344 204.705H202.931V205.762H210.344V204.705Z" fill="#407BFF"/>
<path d="M207.696 208.028H202.931V209.086H207.696V208.028Z" fill="#407BFF"/>
<path d="M243.775 78.7958H189.922V123.208H243.775V78.7958Z" fill="#407BFF"/>
<path opacity="0.6" d="M189.922 78.7958V123.208H243.775V78.7958H189.922ZM241.959 121.47H191.661V80.533H241.959V121.47Z" fill="white"/>
<path opacity="0.3" d="M191.661 109.31L207.091 98.1315L218.512 109.31L230.009 102.814L241.96 110.141V121.47H191.661V109.31Z" fill="white"/>
<path opacity="0.6" d="M227.967 90.654C227.967 92.6934 226.303 94.355 224.261 94.355C222.218 94.355 220.554 92.6934 220.554 90.654C220.554 88.6147 222.218 86.953 224.261 86.953C226.378 86.953 227.967 88.6147 227.967 90.654Z" fill="white"/>
<path d="M247.254 125.096V126.607H245.741" stroke="#263238" stroke-miterlimit="10"/>
<path d="M243.397 126.607H189.165" stroke="#263238" stroke-miterlimit="10" stroke-dasharray="4.18 4.18"/>
<path d="M188.031 126.607H186.518V125.096" stroke="#263238" stroke-miterlimit="10"/>
<path d="M186.518 122.906V78.116" stroke="#263238" stroke-miterlimit="10" stroke-dasharray="3.85 3.85"/>
<path d="M186.518 77.0586V75.548H188.031" stroke="#263238" stroke-miterlimit="10"/>
<path d="M190.375 75.548H244.531" stroke="#263238" stroke-miterlimit="10" stroke-dasharray="4.18 4.18"/>
<path d="M245.741 75.548H247.254V77.0586" stroke="#263238" stroke-miterlimit="10"/>
<path d="M247.254 79.2489V123.963" stroke="#263238" stroke-miterlimit="10" stroke-dasharray="3.85 3.85"/>
<path d="M248.464 74.3395H246.044V76.7564H248.464V74.3395Z" fill="#263238"/>
<path d="M248.464 125.398H246.044V127.815H248.464V125.398Z" fill="#263238"/>
<path d="M187.728 125.398H185.308V127.815H187.728V125.398Z" fill="#263238"/>
<path d="M187.728 74.3395H185.308V76.7564H187.728V74.3395Z" fill="#263238"/>
<path d="M218.058 74.3395H215.638V76.7564H218.058V74.3395Z" fill="#263238"/>
<path d="M218.134 125.398H215.714V127.815H218.134V125.398Z" fill="#263238"/>
<path d="M248.464 99.8687H246.044V102.286H248.464V99.8687Z" fill="#263238"/>
<path d="M187.728 99.8687H185.308V102.286H187.728V99.8687Z" fill="#263238"/>
<path d="M116.327 148.812L108.31 155.308C108.31 155.308 106.343 155.384 105.738 155.988C105.133 156.668 102.713 161.426 103.091 162.106C103.393 162.786 107.402 164.07 108.234 163.314C109.066 162.559 110.503 158.103 110.503 157.574L120.79 150.701L116.327 148.812Z" fill="#EBB376"/>
<path d="M112.016 151.834L113.831 155.761C113.831 155.761 124.874 150.55 127.295 147.604C127.9 146.849 128.732 145.565 129.639 144.205C131.152 141.864 132.816 139.069 134.026 137.105C134.934 135.67 135.463 134.613 135.463 134.613L129.186 124.718C127.824 125.776 123.588 142.619 122.908 143.525C122.151 144.432 112.016 151.834 112.016 151.834Z" fill="#407BFF"/>
<path opacity="0.1" d="M129.639 144.13C131.152 141.788 132.816 138.994 134.026 137.03L131.076 129.854C131.152 129.854 129.564 138.087 129.639 144.13Z" fill="black"/>
<path d="M180.618 111.576L188.56 105.458C188.56 105.458 189.165 103.57 189.997 103.192C190.829 102.814 196.124 102.059 196.653 102.512C197.183 103.041 197.183 107.195 196.2 107.799C195.216 108.328 190.527 108.404 190.073 108.177L181.375 114.522L180.618 111.576Z" fill="#EBB376"/>
<path d="M113.68 280.537L118.445 281.368L120.412 274.873L122.151 268.981L116.706 267.093L115.117 274.193L113.68 280.537Z" fill="#EBB376"/>
<path opacity="0.2" d="M115.117 274.344L120.336 275.024L122.151 269.057L116.706 267.093L115.117 274.344Z" fill="black"/>
<path d="M145.372 280.689H150.213L151.045 274.193L151.725 268.15L145.977 267.32L145.674 274.344L145.372 280.689Z" fill="#EBB376"/>
<path opacity="0.2" d="M145.674 274.797L151.044 274.571L151.725 268.377L145.977 267.395L145.674 274.797Z" fill="black"/>
<path d="M114.663 269.132L122.454 270.492C130.32 250.93 135.917 234.539 139.926 220.944C142.044 213.618 143.783 207.122 144.994 201.306L144.691 222.606V270.719H152.557C171.844 179.327 158.154 158.103 158.154 158.103L135.085 154.251C134.178 157.725 133.572 163.314 133.119 167.166L132.06 174.795L123.059 221.322L114.663 269.132Z" fill="#263238"/>
<path d="M123.664 269.586L113.983 266.338L114.134 270.492L122.151 273.06L123.664 269.586Z" fill="#407BFF"/>
<path opacity="0.6" d="M123.664 269.586L113.983 266.338L114.134 270.492L122.151 273.06L123.664 269.586Z" fill="white"/>
<path d="M153.54 270.039L143.481 268.528L144.313 272.531L152.633 273.664L153.54 270.039Z" fill="#407BFF"/>
<path opacity="0.6" d="M153.54 270.039L143.481 268.528L144.313 272.531L152.633 273.664L153.54 270.039Z" fill="white"/>
<path opacity="0.2" d="M138.791 224.569C139.169 223.361 139.548 222.152 139.85 221.02C141.817 214.373 143.103 208.406 144.615 203.043L145.372 193.149C145.372 193.149 140.455 182.272 142.271 174.644C142.119 175.097 138.867 183.405 140.153 191.714C140.153 191.714 140.833 206.669 138.791 224.569Z" fill="black"/>
<path d="M138.186 114.748C138.262 114.824 138.338 114.824 138.413 114.824C139.321 115.352 140.38 115.806 141.59 115.881C144.842 116.183 146.885 115.504 148.095 113.917C149.759 111.576 149.759 107.724 148.927 103.268C148.549 101.228 148.019 99.4156 147.263 98.1315V98.056C147.263 97.9805 147.187 97.9049 147.187 97.9049C146.053 96.0167 144.464 94.9593 142.119 94.7327C141.287 94.6571 140.38 94.6571 139.397 94.8082C130.396 95.7901 130.698 110.594 138.186 114.748Z" fill="#EBB376"/>
<path opacity="0.2" d="M138.338 114.899C139.245 115.428 140.304 115.73 141.439 115.806C144.691 116.108 146.733 115.277 147.943 113.691C146.431 114.22 144.389 114.597 142.271 113.993C140.985 113.54 139.623 114.068 138.338 114.899Z" fill="black"/>
<path d="M137.657 122.075C136.825 124.567 140.002 125.927 140.002 125.927C145.599 124.19 146.885 121.395 146.885 121.395C142.649 118.6 144.615 112.18 144.615 112.18L143.632 112.558L137.127 113.162C137.127 113.162 138.565 116.712 138.716 117.543C139.548 121.697 137.657 122.075 137.657 122.075Z" fill="#EBB376"/>
<path d="M147.111 98.056C147.111 98.056 148.397 104.174 142.876 107.573C142.876 107.573 141.212 114.295 137.506 114.899C132.438 115.655 127.068 109.083 127.9 101.53C128.883 91.787 143.178 89.1434 147.111 98.056Z" fill="#263238"/>
<path d="M145.674 105.458C145.523 104.476 144.54 102.965 143.103 103.419C141.59 103.872 141.212 107.799 145.145 108.177C145.674 108.177 145.901 107.497 145.674 105.458Z" fill="#EBB376"/>
<path d="M150.742 279.707H145.372C145.145 279.707 144.918 279.858 144.918 280.084L143.783 285.069C143.708 285.523 144.01 285.976 144.388 286.051C144.464 286.051 144.54 286.051 144.54 286.051C146.733 286.051 146.884 285.9 149.683 285.9C151.423 285.9 156.49 286.051 158.911 286.051C161.331 286.051 161.558 283.71 160.575 283.483C156.263 282.577 153.011 281.217 151.65 280.009C151.423 279.858 151.044 279.707 150.742 279.707Z" fill="#263238"/>
<path d="M151.12 280.537C151.044 280.537 151.044 280.462 151.044 280.386C151.044 280.311 151.044 280.311 151.12 280.235C151.347 280.084 153.162 279.027 153.767 279.329C153.919 279.405 153.994 279.556 153.994 279.707C153.994 280.009 153.919 280.235 153.692 280.386C153.389 280.613 153.011 280.689 152.633 280.689C152.103 280.689 151.574 280.613 151.12 280.537ZM151.498 280.311C152.179 280.538 152.86 280.462 153.465 280.235C153.616 280.084 153.692 279.933 153.616 279.782C153.616 279.707 153.54 279.631 153.54 279.631C153.465 279.631 153.465 279.556 153.389 279.631C152.708 279.707 152.103 279.933 151.498 280.311Z" fill="#407BFF"/>
<path d="M151.044 280.537C150.969 280.537 150.969 280.462 150.969 280.386C150.969 280.311 151.12 278.725 151.725 278.196C151.876 278.045 152.103 277.969 152.255 278.045C152.481 278.045 152.633 278.196 152.708 278.423C152.86 279.027 151.725 280.235 151.12 280.537H151.044C151.12 280.537 151.12 280.537 151.044 280.537ZM151.952 278.347C151.574 278.876 151.347 279.48 151.271 280.084C151.876 279.631 152.557 278.725 152.481 278.347C152.481 278.347 152.481 278.196 152.255 278.196H152.179C152.179 278.272 152.028 278.272 151.952 278.347Z" fill="#407BFF"/>
<path d="M118.596 279.707H113.226C112.999 279.707 112.772 279.858 112.772 280.084L111.638 285.069C111.562 285.523 111.865 285.976 112.243 286.051C112.319 286.051 112.394 286.051 112.394 286.051C114.588 286.051 114.739 285.9 117.538 285.9C119.277 285.9 124.345 286.051 126.765 286.051C129.186 286.051 129.412 283.71 128.429 283.483C124.118 282.577 120.866 281.217 119.504 280.009C119.353 279.858 118.975 279.707 118.596 279.707Z" fill="#263238"/>
<path d="M119.05 280.537C118.975 280.537 118.975 280.462 118.975 280.386C118.975 280.311 118.975 280.311 119.05 280.235C119.277 280.084 121.092 279.027 121.698 279.329C121.849 279.405 121.924 279.556 121.924 279.707C121.924 280.009 121.849 280.235 121.622 280.386C121.319 280.613 120.941 280.689 120.563 280.689C119.958 280.689 119.504 280.613 119.05 280.537ZM119.428 280.311C120.109 280.538 120.79 280.462 121.395 280.235C121.546 280.084 121.622 279.933 121.546 279.782C121.546 279.707 121.471 279.631 121.471 279.631C121.395 279.631 121.395 279.556 121.319 279.631C120.639 279.707 119.958 279.933 119.428 280.311Z" fill="#407BFF"/>
<path d="M118.975 280.537C118.899 280.537 118.899 280.462 118.899 280.386C118.899 280.311 119.05 278.725 119.655 278.196C119.807 278.045 120.033 277.969 120.185 278.045C120.412 278.045 120.563 278.196 120.639 278.423C120.79 279.027 119.655 280.235 119.05 280.537H118.975C118.975 280.537 119.05 280.537 118.975 280.537ZM119.882 278.347C119.504 278.876 119.277 279.48 119.201 280.084C119.807 279.631 120.487 278.725 120.412 278.347C120.412 278.347 120.412 278.196 120.185 278.196H120.109C120.033 278.272 119.958 278.272 119.882 278.347Z" fill="#407BFF"/>
<path d="M158.154 158.254C158.154 158.254 162.541 131.516 154.978 119.507C154.978 119.507 139.85 118.6 129.261 124.718C129.261 124.718 133.648 136.652 134.329 158.329H158.154V158.254Z" fill="#407BFF"/>
<path opacity="0.1" d="M159.516 137.785C159.818 134.16 158.759 130.685 158.608 127.588C155.81 125.247 153.616 121.924 153.616 121.924C153.616 121.924 152.255 132.8 159.516 137.785Z" fill="black"/>
<path d="M153.087 119.431C153.087 119.431 168.063 117.694 170.332 116.712C171.769 116.108 182.736 108.932 182.736 108.932L185.308 112.784C185.308 112.784 174.038 121.848 172.147 122.906C167.685 125.322 157.625 128.797 157.625 128.797C157.625 128.797 151.574 124.643 153.087 119.431Z" fill="#407BFF"/>
<path d="M146.885 102.135C146.885 102.135 153.087 95.9412 147.263 91.7115C141.363 87.5573 135.463 92.9955 135.463 92.9955C135.463 92.9955 121.395 96.3943 124.42 105.685C127.446 114.975 129.337 115.806 124.95 120.564C120.487 125.322 115.949 132.422 120.487 136.954C125.026 141.486 140.909 136.803 145.75 130.005C150.591 123.208 142.044 108.555 146.885 102.135Z" fill="#263238"/>
<path d="M134.253 158.254L134.177 155.761L158.381 156.365V158.707L134.253 158.254Z" fill="black"/>
<path d="M141.968 155.912H140.985V158.405H141.968V155.912Z" fill="#263238"/>
<path d="M153.087 156.214H152.255V158.934H153.087V156.214Z" fill="#263238"/>
<path d="M135.69 155.761H134.858V158.707H135.69V155.761Z" fill="#263238"/>
</svg>
