<svg width="362" height="320" viewBox="0 0 362 320" fill="none" xmlns="http://www.w3.org/2000/svg">
<g clip-path="url(#clip0)">
<path d="M348.458 295.694C348.458 298.607 273.398 300.969 180.808 300.969C88.2197 300.969 13.161 298.607 13.161 295.694C13.161 292.781 88.2197 290.419 180.808 290.419C273.398 290.419 348.458 292.781 348.458 295.694Z" fill="#C4C4C4"/>
<path d="M154.802 292.715C268.011 301.97 340.123 250.528 309.364 218.013C286.613 193.964 308.869 189.086 300.129 170.106C291.793 151.995 258.346 144.841 263.412 102.574C268.478 60.3061 217.636 59.5781 191.619 38.5231C165.607 17.471 114.168 18.0206 95.7038 49.9429C84.7921 68.8071 99.0008 95.8604 75.9207 104.602C52.8401 113.344 43.8063 157.456 63.1607 174.838C82.515 192.219 8.21789 236.595 41.4079 268.216C61.4129 287.274 113.47 289.336 154.802 292.715Z" fill="#0082BA"/>
<path d="M279.439 216.896C279.081 217.169 278.577 217.099 278.307 216.741C278.032 216.382 278.101 215.878 278.46 215.606C278.818 215.334 279.325 215.402 279.595 215.76C279.867 216.119 279.798 216.623 279.439 216.896ZM275.588 216.206L282.727 225.593L286.942 222.39L279.802 213L275.588 216.206Z" fill="white"/>
<path d="M288.046 221.551L294.514 216.629C296.822 214.875 297.268 211.579 295.514 209.27L292.775 205.667C293.927 204.791 294.149 203.148 293.274 201.995C292.398 200.844 290.757 200.62 289.603 201.496L284.277 205.639L283.745 201.351C283.533 199.608 281.504 198.591 280.089 199.631L280.056 199.656L281.31 212.688L288.046 221.551Z" fill="white"/>
<path d="M240.808 292.229L239.756 292.204C240.288 270.503 247.772 249.033 260.921 231.76L261.76 232.399C248.75 249.491 241.339 270.756 240.808 292.229Z" fill="#3CB83D"/>
<path d="M262.936 241.878C259.625 241.825 256.796 239.292 256.796 239.292C256.796 239.292 257.468 238.619 258.562 237.963C259.689 237.333 261.23 236.728 262.891 236.814C264.547 236.894 266.046 237.66 267.121 238.375C268.195 239.091 268.856 239.766 268.856 239.766C268.856 239.766 266.262 241.953 262.936 241.878Z" fill="#3CB83D"/>
<path d="M247.752 240.884C248.495 242.437 249.786 243.482 250.896 244.155C252.001 244.827 252.9 245.122 252.9 245.122C252.9 245.122 253.172 244.217 253.262 242.92C253.351 241.626 253.245 239.917 252.575 238.368C251.206 235.227 247.676 233.817 247.676 233.817C247.676 233.817 247.308 234.797 247.117 236.165C246.956 237.55 247.011 239.333 247.752 240.884Z" fill="#3CB83D"/>
<path d="M255.39 232.928C256.191 235.036 258.482 236.034 258.482 236.034C258.482 236.034 258.715 235.457 258.847 234.613C258.975 233.765 259.015 232.656 258.66 231.609C257.934 229.496 255.699 228.381 255.699 228.381C255.699 228.381 255.414 228.982 255.226 229.847C255.042 230.717 254.996 231.874 255.39 232.928Z" fill="#3CB83D"/>
<path d="M261.505 228.716C260.18 230.581 260.591 233.049 260.591 233.049C260.591 233.049 263.024 232.523 264.295 230.751C265.609 229.013 265.348 226.502 265.348 226.502C265.348 226.502 262.891 226.893 261.505 228.716Z" fill="#3CB83D"/>
<path d="M258.706 252.386C256.667 252.553 254.725 252.026 253.258 251.405C251.796 250.793 250.849 250.112 250.849 250.112C250.849 250.112 251.554 249.186 252.835 248.257C254.102 247.318 255.855 246.351 257.934 246.27C259.991 246.176 261.895 246.907 263.299 247.642C264.7 248.378 265.602 249.115 265.602 249.115C265.602 249.115 264.886 249.846 263.647 250.603C262.438 251.377 260.752 252.221 258.706 252.386Z" fill="#3CB83D"/>
<path d="M240.064 253.484C241.198 255.265 242.987 256.34 244.431 256.974C245.883 257.611 247.027 257.821 247.027 257.821C247.027 257.821 247.182 256.667 247.099 255.076C246.989 253.477 246.633 251.425 245.578 249.621C244.502 247.809 242.851 246.575 241.458 245.819C240.069 245.061 238.932 244.777 238.932 244.777C238.932 244.777 238.626 246.053 238.598 247.776C238.572 249.501 238.928 251.706 240.064 253.484Z" fill="#3CB83D"/>
<path d="M253.374 265.527C251.406 265.999 249.369 265.75 247.832 265.355C246.298 264.965 245.265 264.429 245.265 264.429C245.265 264.429 245.857 263.419 246.936 262.295C248.047 261.182 249.708 259.992 251.695 259.583C253.689 259.175 255.72 259.634 257.209 260.15C258.706 260.674 259.699 261.27 259.699 261.27C259.699 261.27 259.071 262.087 258.007 263.038C256.924 263.982 255.321 265.046 253.374 265.527Z" fill="#3CB83D"/>
<path d="M235.083 269.351C236.504 270.955 238.396 271.746 239.925 272.164C241.452 272.577 242.621 272.618 242.621 272.618C242.621 272.618 242.611 271.456 242.251 269.886C241.946 268.329 241.309 266.353 239.953 264.711C238.627 263.079 236.833 262.106 235.34 261.562C233.853 261.016 232.684 260.903 232.684 260.903C232.684 260.903 232.527 262.193 232.804 263.918C233.067 265.642 233.634 267.74 235.083 269.351Z" fill="#3CB83D"/>
<path d="M250.136 278.636C248.238 279.377 246.184 279.417 244.607 279.245C243.03 279.074 241.931 278.692 241.931 278.692C241.931 278.692 243.713 274.333 247.648 272.995C249.581 272.316 251.61 272.476 253.16 272.781C254.714 273.088 255.79 273.539 255.79 273.539C255.79 273.539 253.868 277.133 250.136 278.636Z" fill="#3CB83D"/>
<path d="M232.581 285.019C234.203 286.405 236.181 286.916 237.753 287.112C239.323 287.301 240.487 287.175 240.487 287.175C240.487 287.175 239.802 282.594 236.751 279.727C235.193 278.296 233.253 277.581 231.704 277.254C230.158 276.923 228.984 276.976 228.984 276.976C228.984 276.976 229.068 278.289 229.546 279.956C229.997 281.62 230.952 283.635 232.581 285.019Z" fill="#3CB83D"/>
<path d="M159.28 67.5127C159.28 69.6645 157.538 71.4073 155.388 71.4073C153.237 71.4073 151.492 69.6645 151.492 67.5127C151.492 65.3609 153.237 63.616 155.388 63.616C157.538 63.616 159.28 65.3609 159.28 67.5127Z" fill="#F78E11"/>
<path d="M197.107 103.088C197.107 104.176 196.225 105.059 195.138 105.059C194.05 105.059 193.168 104.176 193.168 103.088C193.168 102 194.05 101.118 195.138 101.118C196.225 101.118 197.107 102 197.107 103.088Z" fill="#F78E11"/>
<path d="M209.476 168.85C209.476 169.938 208.594 170.821 207.506 170.821C206.419 170.821 205.536 169.938 205.536 168.85C205.536 167.762 206.419 166.879 207.506 166.879C208.594 166.879 209.476 167.762 209.476 168.85Z" fill="#F78E11"/>
<path d="M109.919 63.5783C109.919 64.6664 109.037 65.5488 107.949 65.5488C106.862 65.5488 105.98 64.6664 105.98 63.5783C105.98 62.4881 106.862 61.6056 107.949 61.6056C109.037 61.6056 109.919 62.4881 109.919 63.5783Z" fill="#F78E11"/>
<path d="M164.176 295.843H267.066C267.402 295.843 267.674 295.571 267.674 295.236V107.06C267.674 106.726 267.402 106.453 267.066 106.453H164.176C163.841 106.453 163.569 106.726 163.569 107.06V295.236C163.569 295.571 163.841 295.843 164.176 295.843Z" fill="#263238"/>
<path d="M171.56 272.136H259.681V120.991H171.56V272.136Z" fill="#93A1AA"/>
<path d="M209.297 283.517C209.297 287.012 212.129 289.845 215.62 289.845C219.114 289.845 221.945 287.012 221.945 283.517C221.945 280.023 219.114 277.19 215.62 277.19C212.129 277.19 209.297 280.023 209.297 283.517Z" fill="#332437"/>
<path d="M199.087 114.734H232.152C232.207 114.734 232.251 114.69 232.251 114.635V111.39C232.251 111.335 232.207 111.291 232.152 111.291H199.087C199.034 111.291 198.991 111.335 198.991 111.39V114.635C198.991 114.69 199.034 114.734 199.087 114.734Z" fill="#332437"/>
<path d="M227.047 191.335C224.53 194.932 220.356 197.278 215.627 197.278C207.897 197.278 201.647 191.026 201.647 183.293C201.647 175.58 207.897 169.309 215.627 169.309C217.761 169.309 219.782 169.79 221.587 170.674L223.605 168.154C221.223 166.885 218.512 166.173 215.627 166.173C206.167 166.173 198.515 173.848 198.515 183.293C198.515 192.738 206.167 200.414 215.627 200.414C221.453 200.414 226.588 197.49 229.703 193.026L227.047 191.335Z" fill="#FFBE0B"/>
<path d="M198.992 235.567L197.983 241.321H200.224L200.135 241.81H197.268L198.364 235.567H198.992Z" fill="white"/>
<path d="M203.237 241.355C204.542 241.355 205.445 240.204 205.445 238.899C205.445 237.879 204.756 237.398 203.942 237.398C202.64 237.398 201.765 238.549 201.765 239.853C201.765 240.863 202.434 241.355 203.237 241.355ZM203.166 241.883C201.944 241.883 201.121 241.103 201.121 239.879C201.121 238.221 202.347 236.86 204.034 236.86C205.255 236.86 206.087 237.638 206.087 238.864C206.087 240.533 204.837 241.883 203.166 241.883Z" fill="white"/>
<path d="M209.69 237.406C208.673 237.406 207.752 238.123 207.539 239.363C207.314 240.596 207.977 241.336 208.992 241.336C209.995 241.336 210.938 240.584 211.154 239.372C211.376 238.157 210.69 237.406 209.69 237.406ZM209.672 236.86C210.653 236.86 211.227 237.386 211.396 238.003L211.582 236.933H212.208L211.349 241.81H210.726L210.912 240.728C210.53 241.355 209.751 241.883 208.78 241.883C207.448 241.883 206.627 240.889 206.896 239.363C207.163 237.836 208.332 236.86 209.672 236.86Z" fill="white"/>
<path d="M215.711 237.406C214.695 237.406 213.773 238.123 213.561 239.363C213.336 240.596 213.999 241.336 215.013 241.336C216.017 241.336 216.96 240.584 217.175 239.372C217.398 238.157 216.711 237.406 215.711 237.406ZM215.703 236.86C216.579 236.86 217.222 237.345 217.427 237.988L217.918 235.202H218.542L217.371 241.81H216.748L216.943 240.718C216.542 241.362 215.776 241.883 214.808 241.883C213.47 241.883 212.649 240.889 212.918 239.363C213.185 237.836 214.354 236.86 215.703 236.86Z" fill="white"/>
<path d="M219.759 235.547C219.803 235.278 220.036 235.092 220.294 235.092C220.546 235.092 220.717 235.278 220.664 235.547C220.618 235.815 220.385 236.011 220.135 236.011C219.876 236.011 219.717 235.815 219.759 235.547ZM219.653 236.933H220.279L219.419 241.81H218.795L219.653 236.933Z" fill="white"/>
<path d="M224.981 239.023C225.167 237.942 224.686 237.386 223.791 237.386C222.881 237.386 222.14 237.958 221.934 239.146V239.123L221.46 241.81H220.836L221.695 236.933H222.319L222.164 237.771C222.587 237.166 223.277 236.844 224.008 236.844C225.104 236.844 225.863 237.524 225.613 238.952L225.104 241.81H224.487L224.981 239.023Z" fill="white"/>
<path d="M229.421 237.406C228.403 237.406 227.482 238.123 227.269 239.363C227.045 240.596 227.707 241.336 228.723 241.336C229.725 241.336 230.668 240.584 230.885 239.372C231.106 238.157 230.421 237.406 229.421 237.406ZM229.401 236.86C230.366 236.86 230.957 237.38 231.126 237.995L231.311 236.933H231.94L231.064 241.933C230.824 243.303 229.725 244.205 228.383 244.205C227.125 244.205 226.364 243.561 226.349 242.541H226.966C227.054 243.205 227.581 243.658 228.485 243.658C229.413 243.658 230.242 243.041 230.436 241.933L230.642 240.728C230.262 241.355 229.484 241.883 228.518 241.883C227.178 241.883 226.357 240.889 226.626 239.363C226.895 237.836 228.062 236.86 229.401 236.86Z" fill="white"/>
<path d="M232.603 241.856C232.344 241.856 232.185 241.651 232.227 241.389C232.273 241.13 232.515 240.934 232.762 240.934C233.022 240.934 233.185 241.13 233.139 241.389C233.085 241.651 232.855 241.856 232.603 241.856Z" fill="white"/>
<path d="M234.228 241.856C233.971 241.856 233.81 241.651 233.855 241.389C233.898 241.13 234.142 240.934 234.389 240.934C234.651 240.934 234.81 241.13 234.765 241.389C234.712 241.651 234.48 241.856 234.228 241.856Z" fill="white"/>
<path d="M235.853 241.856C235.594 241.856 235.435 241.651 235.476 241.389C235.521 241.13 235.765 240.934 236.012 240.934C236.272 240.934 236.435 241.13 236.388 241.389C236.335 241.651 236.103 241.856 235.853 241.856Z" fill="white"/>
<path d="M232.721 183.293C232.721 186.91 231.607 190.276 229.703 193.028L227.047 191.335C228.644 189.064 229.587 186.295 229.587 183.293C229.587 177.715 226.318 172.887 221.587 170.674L223.605 168.155C229.028 171.021 232.721 176.734 232.721 183.293Z" fill="#5E8CA1"/>
<path d="M70.274 289.043C66.0748 276.941 51.6782 274.34 51.6782 274.34C51.6782 274.34 54.9776 288.042 60.8762 292.244H70.7739L70.274 289.043Z" fill="#2C657B"/>
<path d="M67.4082 292.244C67.4082 292.244 63.1425 283.174 58.6099 280.842C58.6099 280.842 63.209 286.243 65.6753 292.244H67.4082Z" fill="#244D61"/>
<path d="M49.4789 292.244C44.1802 286.442 46.7794 279.24 46.7794 279.24C46.7794 279.24 59.6767 284.342 62.0761 292.244H49.4789Z" fill="#CC9529"/>
<path d="M56.8105 292.244L51.5449 285.974L54.7442 292.244H56.8105Z" fill="#B96C25"/>
<path d="M316.029 292.639C321.519 283.352 318.225 270.767 318.225 270.767C318.225 270.767 309.344 273.665 305.15 292.639H316.029Z" fill="#2C657B"/>
<path d="M311.037 292.639C313.3 283.051 322.484 279.789 322.484 279.789C322.484 279.789 322.084 288.11 318.224 292.639H311.037Z" fill="#244D61"/>
<path d="M308.943 292.639C310.939 284.116 314.167 279.855 314.167 279.855C314.167 279.855 310.44 288.177 310.044 292.639H308.943Z" fill="#244D61"/>
<path d="M313.458 292.639L318.749 284.274L314.605 292.639H313.458Z" fill="#1D3A46"/>
<path d="M309.164 292.639C306.902 283.051 297.719 279.789 297.719 279.789C297.719 279.789 298.117 288.11 301.976 292.639H309.164Z" fill="#244D61"/>
<path d="M306.745 292.639L301.454 284.274L305.597 292.639H306.745Z" fill="#1D3A46"/>
<path d="M284.122 296.122C298.861 271.184 290.016 237.398 290.016 237.398C290.016 237.398 266.161 245.174 254.905 296.122H284.122Z" fill="#2C657B"/>
<path d="M270.717 296.122C276.795 270.379 301.452 261.621 301.452 261.621C301.452 261.621 300.38 283.967 290.016 296.122H270.717Z" fill="#244D61"/>
<path d="M265.091 296.122C270.453 273.24 279.118 261.799 279.118 261.799C279.118 261.799 269.113 284.143 268.039 296.122H265.091Z" fill="#244D61"/>
<path d="M277.221 296.122L291.427 273.665L280.301 296.122H277.221Z" fill="#1D3A46"/>
<path d="M265.688 296.122C259.61 270.377 234.954 261.62 234.954 261.62C234.954 261.62 236.025 283.967 246.391 296.122H265.688Z" fill="#244D61"/>
<path d="M259.184 296.122L244.98 273.665L256.102 296.122H259.184Z" fill="#1D3A46"/>
<path d="M84.4897 160.329C84.4897 156.5 91.2747 149.713 95.1021 149.713C91.2747 149.713 84.4897 142.925 84.4897 139.096C84.4897 142.925 77.7049 149.713 73.8776 149.713C77.7049 149.713 84.4897 156.5 84.4897 160.329Z" fill="#FFBE0B"/>
<path d="M74.9732 143.84C74.9732 141.648 78.8572 137.763 81.0481 137.763C78.8572 137.763 74.9732 133.877 74.9732 131.685C74.9732 133.877 71.0892 137.763 68.8982 137.763C71.0892 137.763 74.9732 141.648 74.9732 143.84Z" fill="#FFBE0B"/>
<path d="M125.573 286.9C115.452 257.728 80.7524 251.46 80.7524 251.46C80.7524 251.46 88.7046 284.488 102.922 294.612H126.78L125.573 286.9Z" fill="#2C657B"/>
<path d="M118.666 294.612C118.666 294.612 108.385 272.756 97.4601 267.13C97.4601 267.13 108.544 280.149 114.488 294.612H118.666Z" fill="#244D61"/>
<path d="M75.4509 294.612C62.6793 280.631 68.9448 263.273 68.9448 263.273C68.9448 263.273 100.031 275.569 105.814 294.612H75.4509Z" fill="#CC9529"/>
<path d="M93.1223 294.612L80.431 279.505L88.1424 294.612H93.1223Z" fill="#B96C25"/>
<path d="M112.744 170.166L110.962 181.524L115.342 182.731L119.35 170.706L112.744 170.166Z" fill="#E2896B"/>
<path d="M125.179 162.316C125.533 172.048 123.908 175.863 118.602 175.651C113.299 175.438 108.166 167.789 111.349 164.181C114.53 160.573 125.031 158.264 125.179 162.316Z" fill="#F89D76"/>
<path d="M123.51 293L121.974 299.924H137.466C137.466 299.924 138.021 294.884 128.548 294.204L125.572 292.522L123.51 293Z" fill="#363F7D"/>
<path d="M74.2184 293L72.6821 299.924H88.1743C88.1743 299.924 88.7284 294.884 79.256 294.204L76.2801 292.522L74.2184 293Z" fill="#363F7D"/>
<path d="M130.259 294.204H121.739C121.974 277.813 125.226 261.371 125.226 253.434L107.593 229.929L104.116 256.685C103.84 258.811 103.035 260.835 101.777 262.57L82.9037 294.463L73.71 292.622L91.8903 257.257L96.9277 215.045L112.273 212.403L133.728 243.789C136.133 247.305 137.097 251.611 136.42 255.817L130.259 294.204Z" fill="#263238"/>
<path d="M119.35 188.531L130.038 210.358C130.993 212.307 130.067 214.656 128.04 215.427C126.265 216.102 124.266 215.317 123.424 213.614L117.798 202.224L119.35 188.531Z" fill="#7570BF"/>
<path d="M110.368 175.659C110.368 175.659 98.4051 198.911 96.2988 212.03C96.135 213.048 94.172 219.338 94.1027 220.274L116.188 218.729C116.188 218.729 121.085 186.344 120.504 181.59C119.867 176.368 110.368 175.659 110.368 175.659Z" fill="#8B50FF"/>
<path d="M108.002 187.708C104.019 196.863 112.139 217.975 112.139 217.975L103.146 216.306L100.628 197.704L98.4648 190.431L108.002 187.708Z" fill="#7570BF"/>
<path d="M113.507 165.236C113.507 165.236 124.111 166.225 125.968 159.678C127.825 153.131 119.047 153.25 119.047 153.25C119.047 153.25 118.861 152.107 118.861 154.939C118.861 154.939 103.601 156.278 109.26 169.548C109.26 169.548 109.968 171.694 112.18 173.994L113.507 165.236Z" fill="#462F4F"/>
<path d="M113.905 168.42C112.046 166.164 110.321 167.359 111.382 170.676C112.446 173.994 114.236 171.937 114.236 171.937L113.905 168.42Z" fill="#F89D76"/>
<path d="M175.882 197.133L161.843 162.32C166.096 158.059 171.346 154.66 177.401 152.515C192.548 147.148 208.723 151.039 219.75 161.246L179.99 175.332L175.882 197.133Z" fill="white"/>
<path d="M155.533 191.927L80.1209 218.643C73.8551 220.864 70.5744 227.744 72.7933 234.011C75.0124 240.281 81.8903 243.563 88.1562 241.342L163.567 214.626L155.533 191.927Z" fill="white"/>
<path d="M141.273 209.751C139.67 205.224 134.703 202.854 130.177 204.458L83.9064 220.851C79.381 222.453 77.0119 227.422 78.6143 231.951C80.2167 236.477 85.1841 238.847 89.7093 237.245L135.98 220.852C140.505 219.249 142.875 214.279 141.273 209.751Z" fill="#E6E0F3"/>
<path d="M87.0857 231.954C85.6115 232.477 83.9933 231.705 83.471 230.229C82.9489 228.754 83.7209 227.136 85.1952 226.613C86.6694 226.089 88.2878 226.864 88.81 228.336C89.332 229.811 88.56 231.433 87.0857 231.954Z" fill="#FCD0EA"/>
<path d="M205.304 231.34C183.547 239.047 159.669 227.646 151.963 205.881C146.403 190.172 150.787 173.353 161.843 162.32L175.882 197.133L192.962 211.977L232.721 197.891C230.574 212.765 220.452 225.973 205.304 231.34Z" fill="white"/>
<path d="M111.69 185.518C112.928 183.687 112.994 181.253 111.721 179.446C110.312 177.444 108.197 177.465 105.597 180.421C103.035 183.332 97.9933 189.539 95.0144 193.23C93.5615 195.032 93.2382 197.492 94.1736 199.608L104.308 222.531L109.048 219.424L104.019 196.863L111.69 185.518Z" fill="#8B50FF"/>
<path d="M144.272 220.542C143.735 221.324 143.908 222.403 144.686 222.941C147.427 224.84 150.613 223.745 152.178 221.332C153.982 218.549 151.899 216.24 148.943 216.699C147.007 216.999 145.249 219.121 144.272 220.542Z" fill="#F89D76"/>
<path d="M110.33 217.931C105.297 216.865 101.006 218.758 100.847 221.995C100.685 225.233 103.588 227.419 106.627 226.47C109.669 225.518 109.764 220.098 109.764 220.098C109.764 220.098 110.624 221.023 111.829 220.673C113.034 220.327 110.33 217.931 110.33 217.931Z" fill="#F89D76"/>
<path d="M188.861 63.5032C189.37 63.344 189.918 63.3682 190.402 63.5937L191.663 64.1799L187.964 72.1393L195.924 75.8415L195.544 76.662C195.32 77.1463 194.92 77.5179 194.43 77.7236C193.735 78.011 193.143 78.5484 192.8 79.2872C191.976 81.0587 192.959 83.1839 194.959 83.6417C196.166 83.9204 197.492 83.3918 198.183 82.3657C198.76 81.5098 198.86 80.5279 198.588 79.6609C198.429 79.1522 198.454 78.6038 198.679 78.1195L199.059 77.2989L207.012 80.9966L210.713 73.0283L210.043 72.7188C209.559 72.4932 209.012 72.48 208.503 72.6435C207.632 72.9134 206.644 72.8006 205.798 72.2345C204.774 71.5334 204.243 70.2109 204.512 69.0011C204.974 66.9974 207.103 66.031 208.872 66.8514C209.612 67.1964 210.141 67.7715 210.438 68.4814C210.646 68.9591 211.01 69.3726 211.494 69.596L212.164 69.9079L215.864 61.9417L207.937 58.2528C208.166 57.8305 208.523 57.4876 208.974 57.3019C209.668 57.0121 210.258 56.477 210.603 55.7382C211.426 53.9646 210.444 51.8415 208.443 51.3815C207.236 51.105 205.911 51.6313 205.218 52.6576C204.641 53.5134 204.542 54.4954 204.814 55.3624C204.96 55.829 204.93 56.3221 204.756 56.7756L196.817 53.0843L193.118 61.0439L191.858 60.4578C191.374 60.2323 191.003 59.8342 190.797 59.3432C190.51 58.6466 189.973 58.0561 189.235 57.7132C187.464 56.8884 185.339 57.8725 184.881 59.8717C184.603 61.0792 185.132 62.4061 186.158 63.0985C187.014 63.6757 187.995 63.7752 188.861 63.5032Z" fill="white"/>
<path d="M109.024 103.634C111.897 100.759 116.566 100.766 119.44 103.641C122.321 106.523 122.321 111.187 119.447 114.062C116.566 116.944 111.904 116.944 109.024 114.062C106.15 111.187 106.143 106.516 109.024 103.634ZM100.199 118.698L104.39 122.891L107.728 119.551C108.842 120.237 110.038 120.721 111.274 121.015V125.746H117.196V121.015C118.432 120.721 119.622 120.23 120.742 119.551L124.08 122.891L128.265 118.704L124.927 115.365C125.606 114.243 126.096 113.054 126.399 111.811L131.119 111.817V105.892L126.399 105.886C126.096 104.656 125.612 103.46 124.927 102.345L128.265 99.0056L124.074 94.8125L120.736 98.1519C119.628 97.473 118.426 96.982 117.196 96.6813V91.9639H111.274V96.6813C110.038 96.9887 108.842 97.473 107.728 98.1585L104.39 94.8191L100.205 99.0056L103.544 102.345C102.858 103.46 102.374 104.656 102.073 105.886L97.3513 105.892V111.817L102.073 111.811C102.367 113.047 102.858 114.25 103.537 115.358L100.199 118.698Z" fill="white"/>
</g>
<defs>
<clipPath id="clip0">
<rect width="362" height="320" fill="white"/>
</clipPath>
</defs>
</svg>
