<svg width="448" height="320" viewBox="0 0 448 320" fill="none" xmlns="http://www.w3.org/2000/svg">
<g clip-path="url(#clip0)">
<path d="M65.6866 107.346C65.1414 106.237 65.6091 104.898 66.731 104.359C67.8541 103.818 69.2072 104.282 69.7524 105.391C70.2988 106.502 69.8312 107.84 68.708 108.379C67.5862 108.919 66.2331 108.457 65.6866 107.346Z" fill="white"/>
<path d="M65.7917 104.701C65.793 104.701 65.793 104.7 65.793 104.7C65.793 104.7 65.793 104.701 65.7917 104.701ZM65.7968 104.696C65.8145 104.676 65.8335 104.655 65.8524 104.634C65.8587 104.629 65.8638 104.623 65.8701 104.617C65.8448 104.642 65.8208 104.669 65.7968 104.696V104.696ZM65.8613 104.627C65.8689 104.618 65.8764 104.609 65.8853 104.602C65.8802 104.607 65.8752 104.61 65.8701 104.616C65.8676 104.619 65.8638 104.623 65.8613 104.627" fill="#6D644D"/>
<path d="M65.8955 104.591C65.9219 104.565 65.9458 104.54 65.9671 104.517L65.9696 104.52C65.9445 104.543 65.9194 104.567 65.8955 104.591Z" fill="#C55A38"/>
<path d="M65.8733 104.615C65.8808 104.607 65.8884 104.6 65.8947 104.592C65.9186 104.568 65.9437 104.544 65.9689 104.52C65.9362 104.55 65.9047 104.582 65.8733 104.615Z" fill="#6D644D"/>
<path d="M62.4316 263.22V270.526C62.4316 275.514 67.614 279.595 73.9458 279.595H361.037C367.367 279.595 372.548 275.515 372.548 270.528V263.22H62.4316Z" fill="#253A57"/>
<path d="M341.011 122.778V112.06C341.011 108.949 338.437 106.402 335.287 106.402H99.6892C96.5443 106.402 93.9683 108.949 93.9683 112.06V122.778H341.011Z" fill="#364A63"/>
<path d="M93.9683 257.561C93.9683 260.673 96.5443 263.22 99.6892 263.22H335.287C338.437 263.22 341.011 260.673 341.011 257.561V122.778H93.9683V257.561Z" fill="#364A63"/>
<path d="M102.076 255.675H332.902V122.778H102.076V255.675Z" fill="#D3F1F7"/>
<path d="M214.938 115.227C214.938 113.833 216.08 112.703 217.49 112.703C218.902 112.703 220.044 113.833 220.044 115.227C220.044 116.622 218.902 117.752 217.49 117.752C216.08 117.752 214.938 116.622 214.938 115.227Z" fill="#C74F12"/>
<path d="M171.226 263.22V265.4C171.226 266.888 172.772 268.106 174.661 268.106H260.32C262.21 268.106 263.754 266.888 263.754 265.4V263.22H171.226Z" fill="#B0DCE4"/>
<path d="M316.094 29.5977H353.615V237.884H316.094V29.5977Z" fill="#EEBE2D"/>
<path d="M316.094 29.5977V237.884H330.626V29.5977H316.094Z" fill="#E69824"/>
<path d="M260.102 116.853H297.623V237.884H260.102V116.853Z" fill="#EEBE2D"/>
<path d="M260.102 116.853V237.884H274.634V116.853H260.102Z" fill="#E69824"/>
<path d="M204.11 156.909H241.631V237.884H204.11V156.909Z" fill="#EEBE2D"/>
<path d="M204.11 156.909V237.884H218.642V156.909H204.11Z" fill="#E69824"/>
<path d="M148.119 189.226H185.638V237.884H148.119V189.226Z" fill="#EEBE2D"/>
<path d="M148.119 189.226V237.884H162.649V189.226H148.119" fill="#E69824"/>
<path d="M123.83 141.104V239.183H359.844V236.585H126.458V141.104H123.83Z" fill="#253A57"/>
<path d="M120.655 226.943H129.632V225.643H120.655V226.943Z" fill="#253A57"/>
<path d="M120.655 212.746H129.632V211.445H120.655V212.746Z" fill="#253A57"/>
<path d="M120.655 198.547H129.632V197.246H120.655V198.547Z" fill="#253A57"/>
<path d="M120.655 184.349H129.632V183.049H120.655V184.349Z" fill="#253A57"/>
<path d="M120.655 170.15H129.632V168.85H120.655V170.15Z" fill="#253A57"/>
<path d="M120.655 155.953H129.632V154.653H120.655V155.953Z" fill="#253A57"/>
<path d="M169.48 173.226L212.494 211.019L237.741 163.183L271.02 199.742L386.546 47.7152L382.345 44.5939L270.655 191.574L236.585 154.146L210.952 202.712L172.97 169.342L169.48 173.226" fill="#C74F12"/>
<path d="M383.177 85.1887C381.877 85.0913 380.903 83.9625 381.004 82.6726L383.797 47.0086L349.931 59.5851C348.707 60.041 347.339 59.4305 346.882 58.2225C346.425 57.0145 347.056 55.6609 348.267 55.2076L385.61 41.34C386.364 41.0607 387.215 41.1789 387.862 41.6596C388.508 42.1389 388.86 42.9156 388.8 43.7093L385.72 83.035C385.681 83.4975 385.514 83.9144 385.253 84.2586C384.784 84.8756 384.014 85.2511 383.177 85.1887" fill="#C74F12"/>
<path d="M217.49 206.867C217.49 210.015 214.908 212.568 211.723 212.568C208.539 212.568 205.956 210.015 205.956 206.867C205.956 203.717 208.539 201.164 211.723 201.164C214.908 201.164 217.49 203.717 217.49 206.867Z" fill="white"/>
<path d="M217.49 206.866H214.863C214.861 207.731 214.515 208.491 213.943 209.06C213.366 209.627 212.598 209.968 211.723 209.97C210.848 209.968 210.08 209.627 209.503 209.06C208.932 208.491 208.585 207.731 208.583 206.866C208.585 206 208.932 205.24 209.503 204.671C210.08 204.105 210.848 203.763 211.723 203.762C212.598 203.763 213.366 204.105 213.943 204.671C214.515 205.24 214.861 206 214.863 206.866H217.49H220.117C220.115 202.281 216.36 198.567 211.723 198.566C207.086 198.567 203.331 202.281 203.329 206.866C203.331 211.45 207.086 215.164 211.723 215.165C216.36 215.164 220.115 211.45 220.117 206.866H217.49Z" fill="#C74F12"/>
<path d="M242.93 158.664C242.93 161.814 240.348 164.366 237.163 164.366C233.979 164.366 231.396 161.814 231.396 158.664C231.396 155.515 233.979 152.963 237.163 152.963C240.348 152.963 242.93 155.515 242.93 158.664Z" fill="white"/>
<path d="M242.93 158.664H240.303C240.302 159.53 239.955 160.289 239.383 160.859C238.807 161.426 238.038 161.767 237.163 161.769C236.288 161.767 235.52 161.426 234.943 160.859C234.372 160.289 234.025 159.53 234.024 158.664C234.025 157.799 234.372 157.039 234.943 156.47C235.52 155.904 236.288 155.562 237.163 155.561C238.038 155.562 238.807 155.904 239.383 156.47C239.955 157.039 240.302 157.799 240.303 158.664H242.93H245.558C245.555 154.08 241.801 150.366 237.163 150.365C232.526 150.366 228.772 154.08 228.769 158.664C228.772 163.249 232.526 166.963 237.163 166.964C241.801 166.963 245.555 163.249 245.558 158.664H242.93Z" fill="#C74F12"/>
<path d="M276.933 195.462C276.933 198.61 274.35 201.164 271.166 201.164C267.982 201.164 265.399 198.61 265.399 195.462C265.399 192.313 267.982 189.759 271.166 189.759C274.35 189.759 276.933 192.313 276.933 195.462Z" fill="white"/>
<path d="M276.933 195.462H274.305C274.304 196.327 273.957 197.087 273.386 197.657C272.809 198.222 272.041 198.565 271.166 198.566C270.291 198.565 269.522 198.222 268.946 197.657C268.374 197.087 268.027 196.327 268.026 195.462C268.027 194.597 268.374 193.837 268.946 193.267C269.522 192.702 270.291 192.359 271.166 192.357C272.041 192.359 272.809 192.702 273.386 193.267C273.957 193.837 274.304 194.597 274.305 195.462H276.933H279.56C279.557 190.877 275.803 187.164 271.166 187.162C266.529 187.164 262.774 190.877 262.771 195.462C262.774 200.047 266.529 203.76 271.166 203.762C275.803 203.76 279.557 200.047 279.56 195.462H276.933Z" fill="#C74F12"/>
<path d="M137.943 -18.9052C137.385 -18.9052 124.953 -11.9376 122.414 -0.432842C119.874 11.0746 128.745 22.7612 128.745 22.7612C128.745 22.7612 120.058 1.34023 137.943 -18.9052Z" fill="#F6F6EF"/>
<path d="M363.738 146.106H408.259V102.083H363.738V146.106Z" fill="white"/>
<path d="M420.268 67.2749H414.446V72.9656H411.601V67.2749H405.813V64.2977H411.601V58.5746H414.446V64.2977H420.268V67.2749Z" fill="white"/>
<path d="M313.213 -17.0218H328.463C336.069 -17.0218 342.241 -10.9245 342.241 -3.40492V-2.48916C342.241 5.03045 336.069 11.0862 328.463 11.0862H323.528L326.624 19.1838L314.829 11.0862H313.213C305.608 11.0862 299.504 5.03045 299.504 -2.48916V-3.40492C299.504 -10.9245 305.608 -17.0218 313.213 -17.0218Z" fill="white"/>
<path d="M399.025 172.316C399.025 174.151 397.52 175.64 395.663 175.64C393.806 175.64 392.3 174.151 392.3 172.316C392.3 170.479 393.806 168.992 395.663 168.992C397.52 168.992 399.025 170.479 399.025 172.316Z" fill="white"/>
<path d="M409.463 172.316C409.463 174.151 407.959 175.64 406.102 175.64C404.245 175.64 402.74 174.151 402.74 172.316C402.74 170.479 404.245 168.992 406.102 168.992C407.959 168.992 409.463 170.479 409.463 172.316Z" fill="white"/>
<path d="M419.903 172.316C419.903 174.151 418.397 175.64 416.541 175.64C414.684 175.64 413.178 174.151 413.178 172.316C413.178 170.479 414.684 168.992 416.541 168.992C418.397 168.992 419.903 170.479 419.903 172.316Z" fill="white"/>
<path d="M430.341 172.316C430.341 174.151 428.836 175.64 426.98 175.64C425.122 175.64 423.618 174.151 423.618 172.316C423.618 170.479 425.122 168.992 426.98 168.992C428.836 168.992 430.341 170.479 430.341 172.316Z" fill="white"/>
<path d="M440.781 172.316C440.781 174.151 439.275 175.64 437.418 175.64C435.562 175.64 434.056 174.151 434.056 172.316C434.056 170.479 435.562 168.992 437.418 168.992C439.275 168.992 440.781 170.479 440.781 172.316Z" fill="white"/>
<path d="M451.219 172.316C451.219 174.151 449.714 175.64 447.858 175.64C446 175.64 444.496 174.151 444.496 172.316C444.496 170.479 446 168.992 447.858 168.992C449.714 168.992 451.219 170.479 451.219 172.316Z" fill="white"/>
<path d="M388.585 172.316C388.585 174.151 387.081 175.64 385.224 175.64C383.368 175.64 381.862 174.151 381.862 172.316C381.862 170.479 383.368 168.992 385.224 168.992C387.081 168.992 388.585 170.479 388.585 172.316Z" fill="white"/>
<path d="M378.147 172.316C378.147 174.151 376.642 175.64 374.786 175.64C372.928 175.64 371.423 174.151 371.423 172.316C371.423 170.479 372.928 168.992 374.786 168.992C376.642 168.992 378.147 170.479 378.147 172.316Z" fill="white"/>
<path d="M383.519 204.825H371.521V192.963H383.519V204.825Z" fill="white"/>
<path d="M399.275 204.825H387.279V192.963H399.275V204.825Z" fill="white"/>
<path d="M415.032 204.825H403.034V192.963H415.032V204.825Z" fill="white"/>
<path d="M430.789 204.825H418.792V192.963H430.789V204.825Z" fill="white"/>
<path d="M446.545 204.825H434.549V192.963H446.545V204.825Z" fill="white"/>
<path d="M383.519 219.981H371.521V208.117H383.519V219.981Z" fill="white"/>
<path d="M399.275 219.981H387.279V208.117H399.275V219.981Z" fill="white"/>
<path d="M415.032 219.981H403.034V208.117H415.032V219.981Z" fill="white"/>
<path d="M430.789 219.981H418.792V208.117H430.789V219.981Z" fill="white"/>
<path d="M446.545 219.981H434.549V208.117H446.545V219.981Z" fill="white"/>
<path d="M383.519 235.136H371.521V223.273H383.519V235.136" fill="white"/>
<path d="M399.275 235.136H387.279V223.273H399.275V235.136" fill="white"/>
<path d="M415.032 235.136H403.034V223.273H415.032V235.136" fill="white"/>
<path d="M430.789 235.136H418.792V223.273H430.789V235.136" fill="white"/>
<path d="M446.545 235.136H434.549V223.273H446.545V235.136" fill="white"/>
<path d="M383.519 250.291H371.521V238.427H383.519V250.291Z" fill="white"/>
<path d="M399.275 250.291H387.279V238.427H399.275V250.291Z" fill="white"/>
<path d="M415.032 250.291H403.034V238.427H415.032V250.291Z" fill="white"/>
<path d="M430.789 250.291H418.792V238.427H430.789V250.291Z" fill="white"/>
<path d="M446.545 250.291H434.549V238.427H446.545V250.291Z" fill="white"/>
<path d="M286.022 -0.771801V-15.7344H227.398V-0.771801C227.398 9.82763 237.092 19.0969 245.678 24.1511C247.8 25.3994 247.8 28.4273 245.678 29.6756C237.092 34.7298 227.398 43.9991 227.398 54.5986V69.5612H286.022V54.5986C286.022 44.0004 276.328 34.7298 267.742 29.6756C265.621 28.4273 265.621 25.3994 267.742 24.1511C276.328 19.0969 286.022 9.82763 286.022 -0.771801" fill="white"/>
</g>
<defs>
<clipPath id="clip0">
<rect width="448" height="320" fill="white"/>
</clipPath>
</defs>
</svg>
