<svg width="347" height="320" viewBox="0 0 347 320" fill="none" xmlns="http://www.w3.org/2000/svg">
<path d="M329 265.23H10V265.453H329V265.23Z" fill="#EBEBEB"/>
<path d="M297.036 277.258H275.918V277.481H297.036V277.258Z" fill="#EBEBEB"/>
<path d="M221.305 279.275H215.755V279.499H221.305V279.275Z" fill="#EBEBEB"/>
<path d="M275.281 270.31H263.031V270.533H275.281V270.31Z" fill="#EBEBEB"/>
<path d="M71.0564 271.58H43.4948V271.804H71.0564V271.58Z" fill="#EBEBEB"/>
<path d="M80.7541 271.58H76.7346V271.804H80.7541V271.58Z" fill="#EBEBEB"/>
<path d="M153.678 274.718H93.897V274.941H153.678V274.718Z" fill="#EBEBEB"/>
<path d="M161.206 231.909H38.0086C36.0308 231.909 34.372 229.966 34.372 227.65V24.8845C34.372 22.5685 36.0308 20.626 38.0086 20.626H161.206C163.184 20.626 164.843 22.5685 164.843 24.8845V227.65C164.843 229.966 163.248 231.909 161.206 231.909ZM38.0086 20.7754C36.0946 20.7754 34.4996 22.5685 34.4996 24.8845V227.65C34.4996 229.891 36.0308 231.759 38.0086 231.759H161.206C163.12 231.759 164.715 229.966 164.715 227.65V24.8845C164.715 22.6432 163.184 20.7754 161.206 20.7754H38.0086Z" fill="#EBEBEB"/>
<path d="M299.206 231.909H176.008C174.03 231.909 172.371 229.966 172.371 227.65V24.8845C172.371 22.5685 174.03 20.626 176.008 20.626H299.206C301.183 20.626 302.842 22.5685 302.842 24.8845V227.65C302.842 229.966 301.247 231.909 299.206 231.909ZM176.008 20.7754C174.094 20.7754 172.499 22.5685 172.499 24.8845V227.65C172.499 229.891 174.03 231.759 176.008 231.759H299.206C301.12 231.759 302.715 229.966 302.715 227.65V24.8845C302.715 22.6432 301.183 20.7754 299.206 20.7754H176.008Z" fill="#EBEBEB"/>
<path d="M64.485 237.885C64.485 237.587 65.3144 208.225 69.3976 203.593C73.3532 199.11 77.883 203.444 78.0744 203.593L78.4572 202.996C78.3934 202.92 73.2894 198.065 68.8872 202.996C64.6126 207.851 63.7832 236.541 63.7832 237.811L64.485 237.885Z" fill="#E0E0E0"/>
<path d="M64.1023 243.638C64.1023 243.264 66.9095 208.375 55.9997 193.806L55.4893 194.329C66.2077 208.674 63.4643 243.264 63.4005 243.638H64.1023Z" fill="#B0AEAE"/>
<path d="M64.549 239.977L65.187 239.903C65.187 239.529 63.0816 200.231 71.0566 191.639L70.61 191.116C62.3798 200.007 64.4214 238.333 64.549 239.977Z" fill="#B0AEAE"/>
<path d="M63.4646 239.977H64.1026C64.1026 238.932 63.8474 213.455 57.6588 209.346C56.319 208.449 54.9154 208.3 53.6394 208.898C49.939 210.69 48.0888 218.461 47.9612 218.834L48.5992 219.058C48.5992 218.984 50.4494 211.288 53.8946 209.645C54.9792 209.122 56.1276 209.271 57.3398 210.093C63.2094 213.903 63.4646 239.679 63.4646 239.977Z" fill="#B0AEAE"/>
<path d="M65.8881 239.977L66.5261 239.903C66.5261 239.679 65.5691 219.805 70.1627 212.782C71.2473 211.064 72.4595 210.242 73.7355 210.392C76.7341 210.616 79.2861 215.771 79.2861 215.845L79.8603 215.472C79.7327 215.248 77.1169 209.943 73.7993 209.645C72.3319 209.495 70.9283 210.392 69.6523 212.334C64.9311 219.581 65.8243 239.156 65.8881 239.977Z" fill="#B0AEAE"/>
<path d="M64.8682 242.667C64.9958 240.724 67.8668 195.3 62.8266 187.306L62.3162 187.755C67.2288 195.524 64.294 242.144 64.2302 242.592L64.8682 242.667Z" fill="#B0AEAE"/>
<path d="M52.2996 213.455C52.2996 213.455 55.362 214.8 54.405 217.863C53.5118 220.926 43.9418 226.007 43.9418 226.007C43.9418 226.007 39.9224 221.673 43.6228 214.65C47.3232 207.702 52.2358 211.214 52.2996 213.455Z" fill="#B0AEAE"/>
<path d="M65.5058 207.553C65.5058 207.553 62.252 207.403 62.1244 210.69C61.933 213.978 69.1424 222.944 69.1424 222.944C69.1424 222.944 74.2464 220.776 73.1618 212.633C72.0134 204.49 66.3352 205.535 65.5058 207.553Z" fill="#B0AEAE"/>
<path d="M68.2493 191.938C68.2493 191.938 66.0801 191.639 66.2715 190.145C66.4629 188.576 74.6293 184.691 79.4781 191.042C79.4781 191.042 76.3519 197.242 71.8859 197.317C67.4199 197.467 68.2493 191.938 68.2493 191.938Z" fill="#EBEBEB"/>
<path d="M64.23 188.203C64.23 188.203 66.2078 189.323 66.7182 187.903C67.2924 186.484 62.1246 178.042 55.1066 180.507C55.1066 180.507 54.9152 187.679 58.6794 190.519C62.4436 193.432 64.23 188.203 64.23 188.203Z" fill="#EBEBEB"/>
<path d="M74.4379 212.185C74.4379 212.185 72.9705 210.766 74.5655 210.093C76.1605 209.42 84.0079 209.57 84.1355 218.76C84.1355 218.76 74.9483 220.552 73.8637 217.041C72.6515 213.604 74.4379 212.185 74.4379 212.185Z" fill="#B0AEAE"/>
<path d="M55.7445 191.714C55.7445 191.714 57.2119 190.295 55.6169 189.622C54.0219 188.95 46.1745 189.099 46.0469 198.289C46.0469 198.289 55.2341 200.081 56.3187 196.57C57.5309 193.134 55.7445 191.714 55.7445 191.714Z" fill="#EBEBEB"/>
<path d="M60.5935 199.11C60.5935 199.11 60.7211 197.392 59.5727 198.065C58.4243 198.737 54.2773 203.892 58.5519 208.823C58.5519 208.823 64.2939 203.892 63.2731 201.277C62.1885 198.662 60.5935 199.11 60.5935 199.11Z" fill="#EBEBEB"/>
<path d="M75.7772 201.501C75.7772 201.501 74.884 200.157 76.16 199.933C77.436 199.783 83.3056 201.576 81.902 208.375C81.902 208.375 74.8202 207.777 74.5012 204.938C74.246 202.173 75.7772 201.501 75.7772 201.501Z" fill="#EBEBEB"/>
<path d="M51.7891 265.23H76.1607L78.7765 234.001H49.1095L51.7891 265.23Z" fill="#C4C4C4"/>
<path d="M47.8367 237.464H80.0557V230.59H47.8367V237.464Z" fill="#B0AEAE"/>
<path d="M274.26 237.885C274.26 237.587 273.43 208.225 269.348 203.593C265.392 199.11 260.862 203.444 260.67 203.593L260.288 202.996C260.351 202.92 265.455 198.065 269.858 202.996C274.133 207.851 274.962 236.541 274.962 237.811L274.26 237.885Z" fill="#E0E0E0"/>
<path d="M274.642 243.638C274.642 243.264 271.835 208.375 282.745 193.806L283.255 194.329C272.537 208.674 275.28 243.264 275.344 243.638H274.642Z" fill="#E0E0E0"/>
<path d="M274.196 239.977L273.558 239.903C273.558 239.529 275.663 200.231 267.688 191.639L268.135 191.116C276.365 200.007 274.323 238.333 274.196 239.977Z" fill="#E0E0E0"/>
<path d="M275.281 239.977H274.643C274.643 238.932 274.898 213.455 281.086 209.346C282.426 208.449 283.83 208.3 285.106 208.898C288.806 210.69 290.656 218.461 290.784 218.834L290.146 219.058C290.146 218.984 288.296 211.288 284.851 209.645C283.766 209.122 282.618 209.271 281.405 210.093C275.536 213.903 275.281 239.679 275.281 239.977Z" fill="#E0E0E0"/>
<path d="M272.856 239.977L272.218 239.903C272.218 239.679 273.175 219.805 268.582 212.782C267.497 211.064 266.285 210.242 265.009 210.392C262.01 210.616 259.458 215.771 259.458 215.845L258.884 215.472C259.012 215.248 261.627 209.943 264.945 209.645C266.412 209.495 267.816 210.392 269.092 212.334C273.813 219.581 272.92 239.156 272.856 239.977Z" fill="#E0E0E0"/>
<path d="M273.877 242.667C273.749 240.724 270.878 195.3 275.919 187.306L276.429 187.755C271.516 195.524 274.451 242.144 274.515 242.592L273.877 242.667Z" fill="#E0E0E0"/>
<path d="M286.445 213.455C286.445 213.455 283.383 214.8 284.34 217.863C285.233 220.926 294.803 226.007 294.803 226.007C294.803 226.007 298.822 221.673 295.122 214.65C291.422 207.702 286.509 211.214 286.445 213.455Z" fill="#EBEBEB"/>
<path d="M273.239 207.553C273.239 207.553 276.493 207.403 276.62 210.69C276.812 213.978 269.602 222.944 269.602 222.944C269.602 222.944 264.498 220.776 265.583 212.633C266.731 204.49 272.41 205.535 273.239 207.553Z" fill="#EBEBEB"/>
<path d="M270.495 191.938C270.495 191.938 272.664 191.639 272.473 190.145C272.282 188.576 264.115 184.691 259.266 191.042C259.266 191.042 262.393 197.242 266.859 197.317C271.325 197.467 270.495 191.938 270.495 191.938Z" fill="#EBEBEB"/>
<path d="M274.515 188.203C274.515 188.203 272.537 189.323 272.027 187.903C271.453 186.484 276.62 178.042 283.638 180.507C283.638 180.507 283.83 187.679 280.066 190.519C276.301 193.432 274.515 188.203 274.515 188.203Z" fill="#EBEBEB"/>
<path d="M264.307 212.185C264.307 212.185 265.774 210.766 264.179 210.093C262.584 209.42 254.737 209.57 254.609 218.76C254.609 218.76 263.797 220.552 264.881 217.041C266.093 213.604 264.307 212.185 264.307 212.185Z" fill="#EBEBEB"/>
<path d="M283 191.714C283 191.714 281.533 190.295 283.128 189.622C284.723 188.95 292.57 189.099 292.698 198.289C292.698 198.289 283.511 200.081 282.426 196.57C281.278 193.134 283 191.714 283 191.714Z" fill="#EBEBEB"/>
<path d="M278.151 199.11C278.151 199.11 278.024 197.392 279.172 198.065C280.32 198.737 284.467 203.892 280.193 208.823C280.193 208.823 274.451 203.892 275.472 201.277C276.557 198.662 278.151 199.11 278.151 199.11Z" fill="#EBEBEB"/>
<path d="M262.967 201.501C262.967 201.501 263.86 200.157 262.584 199.933C261.308 199.783 255.438 201.576 256.842 208.375C256.842 208.375 263.924 207.777 264.243 204.938C264.498 202.173 262.967 201.501 262.967 201.501Z" fill="#EBEBEB"/>
<path d="M287.019 265.23H262.648L259.969 234.001H289.636L287.019 265.23Z" fill="#C4C4C4"/>
<path d="M290.912 230.564H258.693V237.437H290.912V230.564Z" fill="#E6E6E6"/>
<path d="M161.652 75.0155H96.768V227.799H161.652V75.0155Z" fill="#C4C4C4"/>
<path d="M163.184 72.9236H95.3003V80.3947H163.184V72.9236Z" fill="#B0AEAE"/>
<path d="M163.184 81.2166H95.3003V84.9521H163.184V81.2166Z" fill="#B0AEAE"/>
<path d="M163.184 86.8199H95.3003V90.5557H163.184V86.8199Z" fill="#B0AEAE"/>
<path d="M163.184 92.3485H95.3003V96.0843H163.184V92.3485Z" fill="#B0AEAE"/>
<path d="M163.184 97.9514H95.3003V101.687H163.184V97.9514Z" fill="#B0AEAE"/>
<path d="M163.184 103.481H95.3003V107.216H163.184V103.481Z" fill="#B0AEAE"/>
<path d="M163.184 109.084H95.3003V112.82H163.184V109.084Z" fill="#B0AEAE"/>
<path d="M163.184 114.612H95.3003V118.348H163.184V114.612Z" fill="#B0AEAE"/>
<path d="M163.184 120.216H95.3003V123.951H163.184V120.216Z" fill="#B0AEAE"/>
<path d="M163.184 125.745H95.3003V129.48H163.184V125.745Z" fill="#B0AEAE"/>
<path d="M163.184 131.348H95.3003V135.083H163.184V131.348Z" fill="#B0AEAE"/>
<path d="M163.184 136.876H95.3003V140.612H163.184V136.876Z" fill="#B0AEAE"/>
<path d="M163.184 142.48H95.3003V146.215H163.184V142.48Z" fill="#B0AEAE"/>
<path d="M163.184 148.008H95.3003V151.743H163.184V148.008Z" fill="#B0AEAE"/>
<path d="M163.184 153.611H95.3003V157.347H163.184V153.611Z" fill="#B0AEAE"/>
<path d="M163.184 159.14H95.3003V162.876H163.184V159.14Z" fill="#B0AEAE"/>
<path d="M163.184 164.744H95.3003V168.479H163.184V164.744Z" fill="#B0AEAE"/>
<path d="M163.184 170.272H95.3003V174.007H163.184V170.272Z" fill="#B0AEAE"/>
<path d="M163.184 175.875H95.3003V179.611H163.184V175.875Z" fill="#B0AEAE"/>
<path d="M163.184 181.404H95.3003V185.14H163.184V181.404Z" fill="#B0AEAE"/>
<path d="M163.184 187.007H95.3003V190.743H163.184V187.007Z" fill="#B0AEAE"/>
<path d="M163.184 192.536H95.3003V196.271H163.184V192.536Z" fill="#B0AEAE"/>
<path d="M163.184 198.139H95.3003V201.875H163.184V198.139Z" fill="#B0AEAE"/>
<path d="M163.184 203.668H95.3003V207.403H163.184V203.668Z" fill="#B0AEAE"/>
<path d="M163.184 209.271H95.3003V213.006H163.184V209.271Z" fill="#B0AEAE"/>
<path d="M163.184 214.8H95.3003V218.535H163.184V214.8Z" fill="#B0AEAE"/>
<path d="M163.184 220.328H95.3003V224.063H163.184V220.328Z" fill="#B0AEAE"/>
<path d="M163.184 225.931H95.3003V229.667H163.184V225.931Z" fill="#B0AEAE"/>
<path d="M242.232 75.0155H177.347V227.799H242.232V75.0155Z" fill="#FAFAFA"/>
<path d="M243.699 72.9236H175.816V80.3947H243.699V72.9236Z" fill="#F0F0F0"/>
<path d="M243.699 81.2166H175.816V81.889H243.699V81.2166Z" fill="#F0F0F0"/>
<path d="M243.699 82.7855H175.816V83.4579H243.699V82.7855Z" fill="#F0F0F0"/>
<path d="M243.699 84.3544H175.816V85.0268H243.699V84.3544Z" fill="#F0F0F0"/>
<path d="M243.699 85.9234H175.816V86.5959H243.699V85.9234Z" fill="#F0F0F0"/>
<path d="M243.699 87.4927H175.816V88.1646H243.699V87.4927Z" fill="#F0F0F0"/>
<path d="M243.699 89.0614H175.816V89.7334H243.699V89.0614Z" fill="#F0F0F0"/>
<path d="M243.699 90.6301H175.816V91.3029H243.699V90.6301Z" fill="#F0F0F0"/>
<path d="M243.699 92.1989H175.816V92.8716H243.699V92.1989Z" fill="#F0F0F0"/>
<path d="M243.699 93.7676H175.816V94.4404H243.699V93.7676Z" fill="#F0F0F0"/>
<path d="M243.699 95.3371H175.816V96.0091H243.699V95.3371Z" fill="#F0F0F0"/>
<path d="M243.699 96.9059H175.816V97.5786H243.699V96.9059Z" fill="#F0F0F0"/>
<path d="M243.699 98.4746H175.816V99.1474H243.699V98.4746Z" fill="#F0F0F0"/>
<path d="M243.699 100.043H175.816V100.716H243.699V100.043Z" fill="#F0F0F0"/>
<path d="M243.699 101.613H175.816V102.285H243.699V101.613Z" fill="#F0F0F0"/>
<path d="M243.699 103.182H175.816V103.854H243.699V103.182Z" fill="#F0F0F0"/>
<path d="M243.699 104.75H175.816V105.423H243.699V104.75Z" fill="#F0F0F0"/>
<path d="M243.699 106.319H175.816V106.992H243.699V106.319Z" fill="#F0F0F0"/>
<path d="M243.699 107.889H175.816V108.561H243.699V107.889Z" fill="#F0F0F0"/>
<path d="M179.103 53.2647C179.968 47.0747 176.381 41.2479 171.093 40.2501C165.806 39.2523 160.818 43.4613 159.954 49.6513C159.09 55.8413 162.677 61.6681 167.965 62.6659C173.253 63.6637 178.24 59.4547 179.103 53.2647Z" fill="#B0AEAE"/>
<path d="M177.64 53.0128C178.368 47.7587 175.321 42.8082 170.834 41.9555C166.348 41.1028 162.12 44.6708 161.392 49.9249C160.664 55.179 163.711 60.1295 168.198 60.9822C172.685 61.835 176.912 58.267 177.64 53.0128Z" fill="#C4C4C4"/>
<path d="M169.117 44.8324V51.5563L165.289 49.0908" fill="#F0F0F0"/>
<path d="M169.117 44.8324V51.5563L165.289 49.0908" stroke="#E0E0E0" stroke-width="2" stroke-miterlimit="10" stroke-linecap="round" stroke-linejoin="round"/>
<path d="M169.112 294.612C252.229 294.612 319.609 290.691 319.609 285.854C319.609 281.017 252.229 277.096 169.112 277.096C85.9951 277.096 18.6154 281.017 18.6154 285.854C18.6154 290.691 85.9951 294.612 169.112 294.612Z" fill="#C4C4C4"/>
<path opacity="0.5" d="M315.417 242.683H173.614C172.061 242.683 170.742 241.443 170.742 239.815V85.2667C170.742 83.7165 171.984 82.3989 173.614 82.3989H315.417C316.97 82.3989 318.289 83.639 318.289 85.2667V239.893C318.211 241.443 316.97 242.683 315.417 242.683Z" fill="#407BFF"/>
<path d="M310.76 239.583H168.957C167.404 239.583 166.085 238.343 166.085 236.715V82.1664C166.085 80.6163 167.327 79.2986 168.957 79.2986H310.76C312.313 79.2986 313.632 80.5388 313.632 82.1664V236.792C313.555 238.343 312.313 239.583 310.76 239.583Z" fill="#407BFF"/>
<path opacity="0.8" d="M310.76 239.583H168.957C167.404 239.583 166.085 238.343 166.085 236.715V82.1664C166.085 80.6163 167.327 79.2986 168.957 79.2986H310.76C312.313 79.2986 313.632 80.5388 313.632 82.1664V236.792C313.555 238.343 312.313 239.583 310.76 239.583Z" fill="white"/>
<path opacity="0.5" d="M121.844 215.633H49.8946C48.3423 215.633 47.0228 214.393 47.0228 212.765V81.4688C47.0228 79.9187 48.2646 78.6011 49.8946 78.6011H121.844C123.396 78.6011 124.716 79.8412 124.716 81.4688V212.843C124.638 214.393 123.396 215.633 121.844 215.633Z" fill="#407BFF"/>
<path d="M117.187 210.983H45.2376C43.6853 210.983 42.3658 209.743 42.3658 208.115V76.8184C42.3658 75.2683 43.6077 73.9507 45.2376 73.9507H117.187C118.739 73.9507 120.059 75.1908 120.059 76.8184V208.192C119.981 209.743 118.739 210.983 117.187 210.983Z" fill="#407BFF"/>
<path opacity="0.8" d="M117.187 210.983H45.2376C43.6853 210.983 42.3658 209.743 42.3658 208.115V76.8184C42.3658 75.2683 43.6077 73.9507 45.2376 73.9507H117.187C118.739 73.9507 120.059 75.1908 120.059 76.8184V208.192C119.981 209.743 118.739 210.983 117.187 210.983Z" fill="white"/>
<path d="M311.226 52.0938H45.3929C43.7629 52.0938 42.3658 50.7761 42.3658 49.071V37.0574C42.3658 35.4298 43.6853 34.0347 45.3929 34.0347H311.226C312.856 34.0347 314.253 35.3523 314.253 37.0574V49.1485C314.175 50.6986 312.856 52.0938 311.226 52.0938Z" fill="#407BFF"/>
<path opacity="0.6" d="M286.622 43.0255C286.622 44.9631 285.07 46.5133 283.129 46.5133C281.189 46.5133 279.636 44.9631 279.636 43.0255C279.636 41.0878 281.189 39.5377 283.129 39.5377C285.07 39.5377 286.622 41.0878 286.622 43.0255Z" fill="white"/>
<path opacity="0.6" d="M297.488 43.0255C297.488 44.9631 295.936 46.5133 293.995 46.5133C292.055 46.5133 290.503 44.9631 290.503 43.0255C290.503 41.0878 292.055 39.5377 293.995 39.5377C295.936 39.5377 297.488 41.0878 297.488 43.0255Z" fill="white"/>
<path opacity="0.6" d="M308.432 43.0255C308.432 44.9631 306.88 46.5133 304.939 46.5133C302.999 46.5133 301.446 44.9631 301.446 43.0255C301.446 41.0878 302.999 39.5377 304.939 39.5377C306.88 39.5377 308.432 41.0878 308.432 43.0255Z" fill="white"/>
<path opacity="0.6" d="M57.6563 38.5301H48.7305V47.5984H57.6563V38.5301Z" fill="white"/>
<path d="M115.169 95.8076H31.4993V111.774H115.169V95.8076Z" fill="#407BFF"/>
<path opacity="0.2" d="M115.169 95.8076H31.4993V111.774H115.169V95.8076Z" fill="black"/>
<path d="M43.5296 100.535H36.8547V107.201H43.5296V100.535Z" fill="white"/>
<path d="M38.3293 103.868L39.5711 105.418L42.0548 102.241" stroke="#407BFF" stroke-width="1.5" stroke-miterlimit="10" stroke-linecap="round" stroke-linejoin="round"/>
<path d="M110.745 107.589H103.992V103.016H110.745V107.589ZM107.408 99.6829C105.855 99.6829 104.536 100.923 104.536 102.551H105.312C105.312 101.388 106.243 100.458 107.408 100.458C108.572 100.458 109.503 101.388 109.503 102.551H110.279C110.279 101.001 108.96 99.6829 107.408 99.6829Z" fill="#407BFF"/>
<path d="M102.828 125.415H19.1585V141.382H102.828V125.415Z" fill="#407BFF"/>
<path opacity="0.4" d="M102.828 125.415H19.1585V141.382H102.828V125.415Z" fill="white"/>
<path d="M31.1888 130.066H24.5139V136.731H31.1888V130.066Z" fill="white"/>
<path d="M98.4818 132.623H91.7292V137.196H98.4818V132.623Z" fill="white"/>
<path d="M97.9384 132.081H97.1623C97.1623 130.918 96.2309 129.988 95.0667 129.988C93.9024 129.988 92.971 130.918 92.971 132.081H92.1949C92.1949 130.531 93.4367 129.213 95.0667 129.213C96.6966 129.291 97.9384 130.531 97.9384 132.081Z" fill="white"/>
<path d="M115.557 156.34H31.8874V172.307H115.557V156.34Z" fill="#407BFF"/>
<path opacity="0.4" d="M115.557 156.34H31.8874V172.307H115.557V156.34Z" fill="white"/>
<path d="M43.9177 160.991H37.2428V167.656H43.9177V160.991Z" fill="white"/>
<path d="M38.7174 164.324L39.9592 165.951L42.5205 162.696" stroke="#407BFF" stroke-width="1.5" stroke-miterlimit="10" stroke-linecap="round" stroke-linejoin="round"/>
<g opacity="0.6">
<path opacity="0.6" d="M111.211 163.549H104.458V168.121H111.211V163.549Z" fill="white"/>
<g opacity="0.6">
<path opacity="0.6" d="M110.667 163.083H109.891C109.891 161.921 108.96 160.991 107.796 160.991C106.631 160.991 105.7 161.921 105.7 163.083H104.924C104.924 161.533 106.166 160.216 107.796 160.216C109.426 160.216 110.667 161.456 110.667 163.083Z" fill="white"/>
</g>
</g>
<path d="M294.228 138.901H228.876V181.375H294.228V138.901Z" fill="#407BFF"/>
<path opacity="0.5" d="M294.228 138.901H228.876V181.375H294.228V138.901Z" fill="white"/>
<path d="M291.745 146.885H231.204V179.282H291.745V146.885Z" fill="#407BFF"/>
<path d="M280.956 151.69H236.172V153.085H280.956V151.69Z" fill="white"/>
<path d="M257.671 155.953H236.172V157.348H257.671V155.953Z" fill="white"/>
<path d="M263.26 160.216H236.172V161.611H263.26V160.216Z" fill="white"/>
<path d="M245.718 164.479H236.172V165.874H245.718V164.479Z" fill="white"/>
<path d="M242.381 168.741H236.172V170.137H242.381V168.741Z" fill="white"/>
<path d="M296.091 222.609V246.248C296.091 247.566 295.082 248.728 293.84 248.883C293.685 248.883 293.607 248.883 293.452 248.883H263.027C261.552 248.883 260.31 247.721 260.31 246.171V222.531C260.31 222.144 260.388 221.679 260.621 221.369C261.086 220.438 261.94 219.818 263.027 219.818H274.98C275.523 219.818 276.144 219.663 276.532 219.276C276.998 218.966 277.308 218.501 277.541 217.958C277.929 216.873 278.938 216.098 280.102 216.098H286.467C287.631 216.098 288.64 216.873 289.028 217.958C289.416 219.043 290.425 219.818 291.589 219.818H293.53C294.849 219.973 296.091 221.136 296.091 222.609Z" fill="#407BFF"/>
<path opacity="0.3" d="M293.763 223.771V248.961H262.949C261.474 248.961 260.233 247.798 260.233 246.248V222.609C260.233 222.221 260.31 221.756 260.543 221.446H291.512C292.754 221.446 293.763 222.454 293.763 223.771Z" fill="white"/>
<path d="M223.443 187.808V217.416L217.622 223.151H196.355V187.808H223.443Z" fill="#407BFF"/>
<path opacity="0.4" d="M223.443 187.808V217.416L217.622 223.151H196.355V187.808H223.443Z" fill="white"/>
<path d="M223.443 217.416H217.622V223.151L223.443 217.416Z" fill="#407BFF"/>
<path d="M220.183 193.776H199.77V194.861H220.183V193.776Z" fill="#407BFF"/>
<path d="M216.923 197.186H199.77V198.272H216.923V197.186Z" fill="#407BFF"/>
<path d="M220.183 200.597H199.77V201.682H220.183V200.597Z" fill="#407BFF"/>
<path d="M207.376 204.007H199.77V205.092H207.376V204.007Z" fill="#407BFF"/>
<path d="M204.66 207.417H199.77V208.502H204.66V207.417Z" fill="#407BFF"/>
<path d="M241.682 74.8033H186.42V120.377H241.682V74.8033Z" fill="#407BFF"/>
<path opacity="0.6" d="M186.42 74.8033V120.377H241.682V74.8033H186.42ZM239.82 118.595H188.205V76.5859H239.82V118.595Z" fill="white"/>
<path opacity="0.3" d="M188.205 106.116L204.039 94.645L215.759 106.116L227.556 99.4504L239.82 106.969V118.595H188.205V106.116Z" fill="white"/>
<path opacity="0.6" d="M225.461 86.9718C225.461 89.0645 223.753 90.7696 221.658 90.7696C219.562 90.7696 217.854 89.0645 217.854 86.9718C217.854 84.8791 219.562 83.174 221.658 83.174C223.831 83.174 225.461 84.8791 225.461 86.9718Z" fill="white"/>
<path d="M245.253 122.315V123.865H243.701" stroke="#263238" stroke-miterlimit="10"/>
<path d="M241.294 123.865H185.644" stroke="#263238" stroke-miterlimit="10" stroke-dasharray="4.18 4.18"/>
<path d="M184.48 123.865H182.927V122.315" stroke="#263238" stroke-miterlimit="10"/>
<path d="M182.927 120.067V74.1057" stroke="#263238" stroke-miterlimit="10" stroke-dasharray="3.85 3.85"/>
<path d="M182.927 73.0206V71.4705H184.48" stroke="#263238" stroke-miterlimit="10"/>
<path d="M186.886 71.4705H242.459" stroke="#263238" stroke-miterlimit="10" stroke-dasharray="4.18 4.18"/>
<path d="M243.701 71.4705H245.253V73.0206" stroke="#263238" stroke-miterlimit="10"/>
<path d="M245.253 75.2683V121.152" stroke="#263238" stroke-miterlimit="10" stroke-dasharray="3.85 3.85"/>
<path d="M246.495 70.2303H244.011V72.7106H246.495V70.2303Z" fill="#263238"/>
<path d="M246.495 122.625H244.011V125.105H246.495V122.625Z" fill="#263238"/>
<path d="M184.169 122.625H181.686V125.105H184.169V122.625Z" fill="#263238"/>
<path d="M184.169 70.2303H181.686V72.7106H184.169V70.2303Z" fill="#263238"/>
<path d="M215.293 70.2303H212.809V72.7106H215.293V70.2303Z" fill="#263238"/>
<path d="M215.371 122.625H212.887V125.105H215.371V122.625Z" fill="#263238"/>
<path d="M246.495 96.4276H244.011V98.9079H246.495V96.4276Z" fill="#263238"/>
<path d="M184.169 96.4276H181.686V98.9079H184.169V96.4276Z" fill="#263238"/>
<path d="M110.9 146.652L102.673 153.318C102.673 153.318 100.655 153.395 100.034 154.015C99.4131 154.713 96.9294 159.596 97.3175 160.293C97.628 160.991 101.742 162.308 102.595 161.533C103.449 160.758 104.924 156.185 104.924 155.643L115.48 148.59L110.9 146.652Z" fill="#EBB376"/>
<path d="M106.476 149.752L108.339 153.783C108.339 153.783 119.671 148.435 122.155 145.412C122.775 144.637 123.629 143.319 124.561 141.924C126.113 139.521 127.82 136.654 129.062 134.638C129.994 133.166 130.537 132.081 130.537 132.081L124.095 121.927C122.698 123.012 118.351 140.296 117.653 141.227C116.877 142.157 106.476 149.752 106.476 149.752Z" fill="#407BFF"/>
<path opacity="0.1" d="M124.561 141.847C126.113 139.444 127.82 136.576 129.062 134.561L126.035 127.198C126.113 127.198 124.483 135.646 124.561 141.847Z" fill="black"/>
<path d="M176.873 108.441L185.023 102.163C185.023 102.163 185.644 100.225 186.498 99.8379C187.352 99.4504 192.785 98.6753 193.328 99.1404C193.871 99.6829 193.871 103.946 192.862 104.566C191.853 105.108 187.041 105.186 186.575 104.953L177.65 111.464L176.873 108.441Z" fill="#EBB376"/>
<path d="M108.184 281.824L113.073 282.676L115.091 276.011L116.877 269.965L111.288 268.028L109.658 275.313L108.184 281.824Z" fill="#EBB376"/>
<path opacity="0.2" d="M109.658 275.468L115.014 276.166L116.877 270.043L111.288 268.028L109.658 275.468Z" fill="black"/>
<path d="M140.705 281.979H145.672L146.526 275.313L147.224 269.113L141.326 268.26L141.015 275.468L140.705 281.979Z" fill="#EBB376"/>
<path opacity="0.2" d="M141.015 275.933L146.526 275.701L147.224 269.345L141.326 268.338L141.015 275.933Z" fill="black"/>
<path d="M109.193 270.12L117.187 271.515C125.259 251.441 131.003 234.622 135.116 220.671C137.29 213.153 139.075 206.487 140.317 200.519L140.006 222.376V271.748H148.078C167.87 177.965 153.822 156.185 153.822 156.185L130.149 152.233C129.218 155.798 128.597 161.533 128.131 165.486L127.044 173.314L117.808 221.059L109.193 270.12Z" fill="#263238"/>
<path d="M118.429 270.585L108.494 267.253L108.649 271.515L116.877 274.151L118.429 270.585Z" fill="#407BFF"/>
<path opacity="0.6" d="M118.429 270.585L108.494 267.253L108.649 271.515L116.877 274.151L118.429 270.585Z" fill="white"/>
<path d="M149.087 271.05L138.764 269.5L139.618 273.608L148.156 274.771L149.087 271.05Z" fill="#407BFF"/>
<path opacity="0.6" d="M149.087 271.05L138.764 269.5L139.618 273.608L148.156 274.771L149.087 271.05Z" fill="white"/>
<path opacity="0.2" d="M133.952 224.391C134.34 223.151 134.728 221.911 135.039 220.749C137.057 213.928 138.376 207.805 139.928 202.302L140.705 192.149C140.705 192.149 135.66 180.988 137.522 173.159C137.367 173.624 134.03 182.15 135.349 190.676C135.349 190.676 136.048 206.022 133.952 224.391Z" fill="black"/>
<path d="M133.331 111.696C133.409 111.774 133.486 111.774 133.564 111.774C134.495 112.317 135.582 112.782 136.824 112.859C140.161 113.169 142.257 112.472 143.499 110.844C145.206 108.441 145.206 104.488 144.353 99.9154C143.964 97.8228 143.421 95.9626 142.645 94.645V94.5675C142.645 94.49 142.567 94.4125 142.567 94.4125C141.403 92.4748 139.773 91.3897 137.367 91.1572C136.513 91.0797 135.582 91.0797 134.573 91.2347C125.337 92.2423 125.647 107.434 133.331 111.696Z" fill="#EBB376"/>
<path opacity="0.2" d="M133.486 111.851C134.418 112.394 135.504 112.704 136.669 112.782C140.006 113.092 142.102 112.239 143.344 110.611C141.791 111.154 139.696 111.541 137.522 110.921C136.203 110.456 134.806 110.999 133.486 111.851Z" fill="black"/>
<path d="M132.788 119.215C131.934 121.772 135.194 123.167 135.194 123.167C140.937 121.385 142.257 118.517 142.257 118.517C137.91 115.649 139.928 109.061 139.928 109.061L138.919 109.449L132.245 110.069C132.245 110.069 133.719 113.712 133.874 114.564C134.728 118.827 132.788 119.215 132.788 119.215Z" fill="#EBB376"/>
<path d="M142.49 94.5675C142.49 94.5675 143.809 100.846 138.143 104.333C138.143 104.333 136.436 111.231 132.633 111.851C127.432 112.627 121.922 105.883 122.775 98.1328C123.784 88.1344 138.454 85.4217 142.49 94.5675Z" fill="#263238"/>
<path d="M141.015 102.163C140.86 101.156 139.851 99.6054 138.376 100.07C136.824 100.536 136.436 104.566 140.472 104.953C141.015 104.953 141.248 104.256 141.015 102.163Z" fill="#EBB376"/>
<path d="M146.215 280.971H140.705C140.472 280.971 140.239 281.126 140.239 281.359L139.075 286.474C138.997 286.939 139.308 287.404 139.696 287.482C139.773 287.482 139.851 287.482 139.851 287.482C142.102 287.482 142.257 287.327 145.129 287.327C146.914 287.327 152.114 287.482 154.598 287.482C157.082 287.482 157.314 285.079 156.305 284.847C151.881 283.917 148.544 282.521 147.147 281.281C146.914 281.126 146.526 280.971 146.215 280.971Z" fill="#263238"/>
<path d="M146.603 281.824C146.526 281.824 146.526 281.746 146.526 281.669C146.526 281.591 146.526 281.591 146.603 281.514C146.836 281.359 148.699 280.274 149.32 280.584C149.475 280.661 149.553 280.816 149.553 280.971C149.553 281.281 149.475 281.514 149.242 281.669C148.932 281.901 148.544 281.979 148.156 281.979C147.612 281.979 147.069 281.901 146.603 281.824ZM146.991 281.591C147.69 281.824 148.389 281.746 149.009 281.514C149.165 281.359 149.242 281.204 149.165 281.049C149.165 280.971 149.087 280.894 149.087 280.894C149.009 280.894 149.009 280.816 148.932 280.894C148.233 280.971 147.612 281.204 146.991 281.591Z" fill="#407BFF"/>
<path d="M146.526 281.824C146.448 281.824 146.448 281.746 146.448 281.669C146.448 281.591 146.603 279.964 147.224 279.421C147.38 279.266 147.612 279.189 147.768 279.266C148 279.266 148.156 279.421 148.233 279.654C148.389 280.274 147.224 281.514 146.603 281.824H146.526C146.603 281.824 146.603 281.824 146.526 281.824ZM147.457 279.576C147.069 280.119 146.836 280.739 146.759 281.359C147.38 280.894 148.078 279.964 148 279.576C148 279.576 148 279.421 147.768 279.421H147.69C147.69 279.499 147.535 279.499 147.457 279.576Z" fill="#407BFF"/>
<path d="M113.229 280.971H107.718C107.485 280.971 107.252 281.126 107.252 281.359L106.088 286.474C106.01 286.939 106.321 287.404 106.709 287.482C106.787 287.482 106.864 287.482 106.864 287.482C109.115 287.482 109.27 287.327 112.142 287.327C113.927 287.327 119.127 287.482 121.611 287.482C124.095 287.482 124.328 285.079 123.319 284.847C118.895 283.917 115.557 282.521 114.16 281.281C114.005 281.126 113.617 280.971 113.229 280.971Z" fill="#263238"/>
<path d="M113.694 281.824C113.617 281.824 113.617 281.746 113.617 281.669C113.617 281.591 113.617 281.591 113.694 281.514C113.927 281.359 115.79 280.274 116.411 280.584C116.566 280.661 116.644 280.816 116.644 280.971C116.644 281.281 116.566 281.514 116.333 281.669C116.023 281.901 115.635 281.979 115.247 281.979C114.626 281.979 114.16 281.901 113.694 281.824ZM114.082 281.591C114.781 281.824 115.48 281.746 116.1 281.514C116.256 281.359 116.333 281.204 116.256 281.049C116.256 280.971 116.178 280.894 116.178 280.894C116.101 280.894 116.101 280.816 116.023 280.894C115.324 280.971 114.626 281.204 114.082 281.591Z" fill="#407BFF"/>
<path d="M113.617 281.824C113.539 281.824 113.539 281.746 113.539 281.669C113.539 281.591 113.694 279.964 114.315 279.421C114.471 279.266 114.703 279.189 114.859 279.266C115.091 279.266 115.247 279.421 115.324 279.654C115.48 280.274 114.315 281.514 113.694 281.824H113.617C113.694 281.824 113.617 281.824 113.617 281.824ZM114.548 279.576C114.16 280.119 113.927 280.739 113.85 281.359C114.471 280.894 115.169 279.964 115.091 279.576C115.091 279.576 115.091 279.421 114.859 279.421H114.781C114.703 279.499 114.626 279.499 114.548 279.576Z" fill="#407BFF"/>
<path d="M153.822 156.34C153.822 156.34 158.323 128.903 150.562 116.579C150.562 116.579 135.039 115.649 124.173 121.927C124.173 121.927 128.674 134.173 129.373 156.418H153.822V156.34Z" fill="#407BFF"/>
<path opacity="0.1" d="M155.219 135.336C155.529 131.616 154.443 128.05 154.287 124.873C151.416 122.47 149.165 119.06 149.165 119.06C149.165 119.06 147.768 130.221 155.219 135.336Z" fill="black"/>
<path d="M148.621 116.502C148.621 116.502 163.989 114.719 166.318 113.712C167.792 113.092 179.047 105.728 179.047 105.728L181.686 109.681C181.686 109.681 170.121 118.982 168.181 120.067C163.601 122.547 153.278 126.113 153.278 126.113C153.278 126.113 147.069 121.85 148.621 116.502Z" fill="#407BFF"/>
<path d="M142.257 98.7528C142.257 98.7528 148.621 92.3973 142.645 88.0569C136.591 83.794 130.537 89.3745 130.537 89.3745C130.537 89.3745 116.1 92.8623 119.205 102.396C122.31 111.929 124.25 112.782 119.748 117.664C115.169 122.547 110.512 129.833 115.169 134.483C119.826 139.134 136.125 134.328 141.093 127.353C146.06 120.377 137.29 105.341 142.257 98.7528Z" fill="#263238"/>
<path d="M129.295 156.34L129.218 153.783L154.055 154.403V156.805L129.295 156.34Z" fill="black"/>
<path d="M137.212 153.938H136.203V156.495H137.212V153.938Z" fill="#263238"/>
<path d="M148.621 154.248H147.768V157.038H148.621V154.248Z" fill="#263238"/>
<path d="M130.77 153.783H129.916V156.805H130.77V153.783Z" fill="#263238"/>
</svg>
