<svg width="366" height="320" viewBox="0 0 366 320" fill="none" xmlns="http://www.w3.org/2000/svg">
<path d="M197.853 272.547H149.742L155.981 246.688H191.614L197.853 272.547Z" fill="#90AFD9"/>
<path d="M197.853 272.547H149.742L155.981 246.688H191.614L197.853 272.547Z" fill="#C1DAF3"/>
<path d="M235.737 259.878L238.457 258.483L240.946 255.204L237.916 253.095L235.737 259.878Z" fill="#90AFD9"/>
<path d="M99.0147 177.021L97.907 173.904L100.17 170.936L104.892 171.036L99.0147 177.021Z" fill="#90AFD9"/>
<path d="M235.736 259.878H115.631C113.395 259.878 111.272 258.065 110.886 255.831L97.2521 176.695C96.8665 174.461 98.3668 172.648 100.601 172.648H220.707C222.942 172.648 225.067 174.461 225.452 176.695L239.087 255.831C239.471 258.065 237.972 259.878 235.736 259.878Z" fill="#90AFD9"/>
<path d="M237.916 256.991H117.81C115.576 256.991 113.45 255.178 113.066 252.943L99.4305 173.808C99.0469 171.573 100.546 169.76 102.781 169.76H222.886C225.123 169.76 227.246 171.573 227.631 173.808L241.266 252.943C241.651 255.178 240.15 256.991 237.916 256.991Z" fill="#C1DAF3"/>
<path d="M233.763 244.689H117.724C116.903 244.689 116.122 244.022 115.98 243.2L104.391 175.938C104.25 175.117 104.801 174.451 105.622 174.451H221.661C222.483 174.451 223.264 175.117 223.405 175.938L234.994 243.2C235.135 244.022 234.585 244.689 233.763 244.689Z" fill="white"/>
<path d="M218.853 184.995H112.654L111.788 180.567H217.987L218.853 184.995Z" fill="#92B2DE"/>
<path d="M207.951 182.849C208.088 183.551 207.632 184.119 206.929 184.119C206.227 184.119 205.547 183.551 205.41 182.849C205.273 182.147 205.731 181.578 206.432 181.578C207.135 181.578 207.814 182.147 207.951 182.849Z" fill="white"/>
<path d="M212.312 182.849C212.448 183.551 211.99 184.119 211.289 184.119C210.588 184.119 209.907 183.551 209.77 182.849C209.634 182.147 210.091 181.578 210.792 181.578C211.494 181.578 212.175 182.147 212.312 182.849Z" fill="#EDF7FD"/>
<path d="M216.672 182.849C216.809 183.551 216.351 184.119 215.65 184.119C214.947 184.119 214.268 183.551 214.131 182.849C213.992 182.147 214.45 181.578 215.152 181.578C215.854 181.578 216.533 182.147 216.672 182.849Z" fill="#3B7BC7"/>
<path d="M228.224 271.946H119.373V276.757H228.224V271.946Z" fill="#90AFD9"/>
<path d="M118.774 195.177H115.423L114.898 191.643H118.248L118.774 195.177Z" fill="#3B7BC7"/>
<path d="M188.067 195.177H121.391L120.865 191.643H187.54L188.067 195.177Z" fill="#EDF7FD"/>
<path d="M120.061 203.84H116.71L116.186 200.304H119.536L120.061 203.84Z" fill="#3B7BC7"/>
<path d="M185.349 203.84H122.679L122.153 200.304H184.822L185.349 203.84Z" fill="#EDF7FD"/>
<path d="M121.349 212.501H117.999L117.473 208.967H120.824L121.349 212.501Z" fill="#3B7BC7"/>
<path d="M186.636 212.501H123.967L123.441 208.967H186.11L186.636 212.501Z" fill="#EDF7FD"/>
<path d="M153.585 221.164H125.255L124.729 217.628H153.058L153.585 221.164Z" fill="#EDF7FD"/>
<path d="M241.952 172.976C241.163 175.471 240.332 177.801 240.249 180.296C240.165 182.792 239.542 184.539 238.087 185.785C236.632 187.033 235.759 187.783 236.049 188.239C236.34 188.698 238.836 190.901 238.836 190.901C238.836 190.901 239.493 196.567 239.785 198.439C240.075 200.31 243.154 201.364 246.205 200.783C250.487 199.968 252.164 199.049 253.952 197.012C255.74 194.974 258.8 191.565 258.425 190.774C258.05 189.984 262.623 176.468 262.623 176.468L241.952 172.976Z" fill="#EF9D9E"/>
<path d="M262.194 193.166C262.023 194.539 264.423 207.742 264.423 207.742L247.277 211.858C247.277 211.858 248.82 200.712 247.79 196.253C246.762 191.795 245.733 191.452 245.733 191.452L254.134 182.878L262.194 193.166Z" fill="#EF9D9E"/>
<path d="M238.126 167.57C242.035 170.481 246.575 166.67 254.261 165.655C260.251 164.865 265.782 168.607 264.702 173.472C264.702 173.472 266.656 172.099 268.154 178.796C269.652 185.491 264.33 190.358 263.499 192.686C262.667 195.016 262.709 196.596 262.709 196.596C262.709 196.596 259.132 196.43 257.177 194.268C255.222 192.105 254.415 189.836 254.415 189.836C254.415 189.836 256.447 189.186 257.467 187.654C259.132 185.16 258.175 181.999 255.678 182.624C253.183 183.248 251.936 187.447 251.936 187.447C251.936 187.447 249.867 187.076 249.95 185.289C250.033 183.5 250.265 180.892 250.265 180.892C250.265 180.892 246.818 180.692 245.917 176.527C245.574 174.937 242.701 174.556 240.955 173.933C239.208 173.309 238.126 167.57 238.126 167.57Z" fill="#1D385E"/>
<path d="M221.913 235.74L210.751 233.204L204.663 237.516C204.663 237.516 180.817 228.637 177.773 227.369C174.729 226.1 172.446 222.041 171.939 220.266C171.431 218.491 168.641 219.505 168.641 219.505C168.641 219.505 166.358 214.939 165.089 213.163C163.821 211.387 162.045 208.344 161.03 207.836C160.016 207.328 159.762 209.357 161.283 212.149C162.806 214.939 163.821 218.491 163.821 218.491C163.821 218.491 161.283 218.997 161.791 221.028C161.791 221.028 158.747 223.563 159.001 224.579C159.001 224.579 156.465 226.354 158.747 228.384C161.03 230.413 162.806 232.95 166.104 233.458C169.402 233.965 172.7 234.726 174.982 235.994C177.265 237.263 195.531 251.215 201.366 252.99C207.2 254.766 229.016 243.858 229.016 243.858L221.913 235.74Z" fill="#EF9D9E"/>
<path d="M238.246 210.448C238.246 210.448 250.114 205.659 256.776 203.994C263.439 202.328 273.642 202.745 278.013 204.619C282.385 206.492 286.758 214.404 284.885 221.692C283.01 228.978 279.887 251.256 279.471 255.629C279.054 260.001 281.136 280.405 281.136 282.279C281.136 284.153 270.934 290.816 262.398 292.481C253.862 294.147 235.54 288.942 233.249 288.108C230.96 287.276 229.71 285.61 229.71 285.61C229.71 285.61 232.417 274.576 232.417 271.244C232.417 267.913 234.083 238.348 233.249 235.641C232.417 232.934 238.246 210.448 238.246 210.448Z" fill="#1D385E"/>
<path d="M246.012 218.745C244.744 217.984 238.246 210.448 238.246 210.448C238.246 210.448 216.84 227.877 215.064 229.399C213.288 230.921 211.005 232.442 210.751 233.204C210.498 233.965 211.143 238.662 214.948 243.736C218.753 248.809 222.446 250.126 223.714 249.873C224.983 249.618 244.753 239.061 244.753 239.061L246.012 218.745Z" fill="#1D385E"/>
<path d="M248.298 287.651C252.532 263.942 257.068 228.551 281.127 221.692C305.185 214.83 317.887 222.452 314.5 241.08C311.47 257.742 304.339 287.651 304.339 287.651H248.298Z" fill="#90AFD9"/>
<path d="M253.058 287.651C257.291 263.942 260.826 228.551 284.885 221.692C308.943 214.83 321.645 222.452 318.258 241.08C315.228 257.742 308.097 287.651 308.097 287.651H253.058Z" fill="#C1DAF3"/>
<path d="M341.12 276.489H82.8606V293H341.12V276.489Z" fill="white"/>
<path d="M203.962 149.769H134.25V81.0809H203.962V149.769Z" fill="#3B7BC7"/>
<path d="M139.302 126.466L158.824 105.599L179.163 122.66L188.741 115.103L199.042 127.275V144.877H139.302V126.466Z" fill="white"/>
<path d="M186.806 97.153C186.806 101.137 183.575 104.367 179.591 104.367C175.606 104.367 172.375 101.137 172.375 97.153C172.375 93.1678 175.606 89.9377 179.591 89.9377C183.575 89.9377 186.806 93.1678 186.806 97.153Z" fill="white"/>
<path d="M160.136 93.1868V92.686H74.6126V27.8006H159.635V93.1868H160.136V92.686V93.1868H160.637V26.799H73.6111V93.6876H160.637V93.1868H160.136Z" fill="#3B7BC7"/>
<path d="M74.1118 40.7669H160.136V39.7653H74.1118V40.7669Z" fill="#3B7BC7"/>
<path d="M134.913 33.8421C134.913 35.4766 133.589 36.8007 131.954 36.8007C130.32 36.8007 128.995 35.4766 128.995 33.8421C128.995 32.2075 130.32 30.8825 131.954 30.8825C133.589 30.8825 134.913 32.2075 134.913 33.8421Z" fill="#DDE3EC"/>
<path d="M145.068 33.8421C145.068 35.4766 143.744 36.8007 142.109 36.8007C140.474 36.8007 139.15 35.4766 139.15 33.8421C139.15 32.2075 140.474 30.8825 142.109 30.8825C143.744 30.8825 145.068 32.2075 145.068 33.8421Z" fill="#92B2DE"/>
<path d="M155.224 33.8421C155.224 35.4766 153.898 36.8007 152.263 36.8007C150.63 36.8007 149.304 35.4766 149.304 33.8421C149.304 32.2075 150.63 30.8825 152.263 30.8825C153.898 30.8825 155.224 32.2075 155.224 33.8421Z" fill="#3B7BC7"/>
<path d="M83.9302 52.2729H150.436V51.2713H83.9302V52.2729Z" fill="#3B7BC7"/>
<path d="M83.9302 61.0896H139.987V60.0881H83.9302V61.0896Z" fill="#3B7BC7"/>
<path d="M83.9302 81.4294H118.732V80.4279H83.9302V81.4294Z" fill="#3B7BC7"/>
<path d="M321.094 148.354V149.481H319.967V150.232H321.845V148.354H321.094Z" fill="#92B2DE"/>
<path d="M317.002 149.481H314.038V150.232H317.002V149.481ZM311.072 149.481H308.108V150.232H311.072V149.481ZM305.143 149.481H302.178V150.232H305.143V149.481ZM299.214 149.481H296.249V150.232H299.214V149.481ZM293.283 149.481H290.319V150.232H293.283V149.481ZM287.354 149.481H284.389V150.232H287.354V149.481ZM281.425 149.481H278.46V150.232H281.425V149.481ZM275.495 149.481H272.53V150.232H275.495V149.481ZM269.565 149.481H266.601V150.232H269.565V149.481ZM263.636 149.481H260.672V150.232H263.636V149.481ZM257.706 149.481H254.741V150.232H257.706V149.481ZM251.777 149.481H248.812V150.232H251.777V149.481ZM245.847 149.481H242.882V150.232H245.847V149.481ZM239.917 149.481H236.953V150.232H239.917V149.481ZM233.988 149.481H231.023V150.232H233.988V149.481ZM228.058 149.481H225.094V150.232H228.058V149.481ZM222.128 149.481H219.164V150.232H222.128V149.481Z" fill="#92B2DE"/>
<path d="M216.198 149.481H215.071V148.354H214.32V150.232H216.198V149.481Z" fill="#92B2DE"/>
<path d="M215.071 142.151H214.32V145.253H215.071V142.151ZM215.071 135.948H214.32V139.049H215.071V135.948ZM215.071 129.745H214.32V132.846H215.071V129.745ZM215.071 123.541H214.32V126.643H215.071V123.541ZM215.071 117.338H214.32V120.439H215.071V117.338ZM215.071 111.135H214.32V114.235H215.071V111.135ZM215.071 104.931H214.32V108.033H215.071V104.931ZM215.071 98.7274H214.32V101.83H215.071V98.7274ZM215.071 92.5247H214.32V95.6269H215.071V92.5247ZM215.071 86.3211H214.32V89.4228H215.071V86.3211Z" fill="#92B2DE"/>
<path d="M215.071 83.2192V82.0925H216.198V81.3413H214.32V83.2192H215.071Z" fill="#92B2DE"/>
<path d="M219.164 82.0925H222.128V81.3413H219.164V82.0925ZM225.094 82.0925H228.059V81.3413H225.094V82.0925ZM231.023 82.0925H233.988V81.3413H231.023V82.0925ZM236.952 82.0925H239.918V81.3413H236.952V82.0925ZM242.883 82.0925H245.847V81.3413H242.883V82.0925ZM248.812 82.0925H251.776V81.3413H248.812V82.0925ZM254.741 82.0925H257.707V81.3413H254.741V82.0925ZM260.671 82.0925H263.636V81.3413H260.671V82.0925ZM266.601 82.0925H269.565V81.3413H266.601V82.0925ZM272.53 82.0925H275.496V81.3413H272.53V82.0925ZM278.46 82.0925H281.425V81.3413H278.46V82.0925ZM284.389 82.0925H287.354V81.3413H284.389V82.0925ZM290.319 82.0925H293.284V81.3413H290.319V82.0925ZM296.249 82.0925H299.214V81.3413H296.249V82.0925ZM302.178 82.0925H305.143V81.3413H302.178V82.0925ZM308.109 82.0925H311.073V81.3413H308.109V82.0925ZM314.038 82.0925H317.003V81.3413H314.038V82.0925Z" fill="#92B2DE"/>
<path d="M319.967 82.0925H321.094V83.2192H321.845V81.3413H319.967V82.0925Z" fill="#92B2DE"/>
<path d="M321.094 89.4229H321.845V86.3212H321.094V89.4229ZM321.094 95.6256H321.845V92.5239H321.094V95.6256ZM321.094 101.829H321.845V98.7272H321.094V101.829ZM321.094 108.032H321.845V104.931H321.094V108.032ZM321.094 114.236H321.845V111.134H321.094V114.236ZM321.094 120.439H321.845V117.338H321.094V120.439ZM321.094 126.642H321.845V123.54H321.094V126.642ZM321.094 132.846H321.845V129.744H321.094V132.846ZM321.094 139.048H321.845V135.948H321.094V139.048ZM321.094 145.252H321.845V142.15H321.094V145.252Z" fill="#92B2DE"/>
<path d="M329.278 156.981H222.505V88.842H329.278V156.981Z" fill="white"/>
<path d="M329.278 93.294H222.505V88.842H329.278V93.294Z" fill="#92B2DE"/>
<path d="M318.74 91.1356C318.74 91.8407 318.168 92.4136 317.463 92.4136C316.757 92.4136 316.185 91.8407 316.185 91.1356C316.185 90.4305 316.757 89.8586 317.463 89.8586C318.168 89.8586 318.74 90.4305 318.74 91.1356Z" fill="white"/>
<path d="M323.124 91.1356C323.124 91.8407 322.552 92.4136 321.847 92.4136C321.141 92.4136 320.569 91.8407 320.569 91.1356C320.569 90.4305 321.141 89.8586 321.847 89.8586C322.552 89.8586 323.124 90.4305 323.124 91.1356Z" fill="#EDF7FD"/>
<path d="M327.508 91.1356C327.508 91.8407 326.936 92.4136 326.231 92.4136C325.525 92.4136 324.953 91.8407 324.953 91.1356C324.953 90.4305 325.525 89.8586 326.231 89.8586C326.936 89.8586 327.508 90.4305 327.508 91.1356Z" fill="#25499D"/>
<path d="M294.518 124.723C294.518 134.279 286.771 142.025 277.216 142.025C267.66 142.025 259.915 134.279 259.915 124.723C259.915 115.168 267.66 107.422 277.216 107.422C286.771 107.422 294.518 115.168 294.518 124.723Z" fill="#3B7BC7"/>
<path d="M273.628 118.61V131.845L285.095 125.227L273.628 118.61Z" fill="white"/>
<path d="M328.62 215.861H285.887C283.982 215.861 282.438 214.317 282.438 212.411V180.244H332.069V212.411C332.069 214.317 330.525 215.861 328.62 215.861Z" fill="#3B7BC7"/>
<path d="M328.62 165.973H285.887C283.982 165.973 282.438 167.517 282.438 169.421V180.244H332.069V169.421C332.069 167.517 330.525 165.973 328.62 165.973ZM328.62 166.974C329.97 166.974 331.067 168.072 331.067 169.421V179.242H283.439V169.421C283.439 168.072 284.537 166.974 285.887 166.974H328.62Z" fill="#3B7BC7"/>
<path d="M293.355 168.079H292.684C292.368 168.079 292.111 167.822 292.111 167.507V163.982C292.111 163.666 292.368 163.411 292.684 163.411H293.355C293.671 163.411 293.927 163.666 293.927 163.982V167.507C293.927 167.822 293.671 168.079 293.355 168.079Z" fill="#3B7BC7"/>
<path d="M300.932 168.079H300.26C299.945 168.079 299.688 167.822 299.688 167.507V163.982C299.688 163.666 299.945 163.411 300.26 163.411H300.932C301.248 163.411 301.503 163.666 301.503 163.982V167.507C301.503 167.822 301.248 168.079 300.932 168.079Z" fill="#3B7BC7"/>
<path d="M308.508 168.079H307.837C307.522 168.079 307.265 167.822 307.265 167.507V163.982C307.265 163.666 307.522 163.411 307.837 163.411H308.508C308.825 163.411 309.081 163.666 309.081 163.982V167.507C309.081 167.822 308.825 168.079 308.508 168.079Z" fill="#3B7BC7"/>
<path d="M316.086 168.079H315.414C315.098 168.079 314.843 167.822 314.843 167.507V163.982C314.843 163.666 315.098 163.411 315.414 163.411H316.086C316.401 163.411 316.657 163.666 316.657 163.982V167.507C316.657 167.822 316.401 168.079 316.086 168.079Z" fill="#3B7BC7"/>
<path d="M323.662 168.079H322.991C322.675 168.079 322.419 167.822 322.419 167.507V163.982C322.419 163.666 322.675 163.411 322.991 163.411H323.662C323.978 163.411 324.235 163.666 324.235 163.982V167.507C324.235 167.822 323.978 168.079 323.662 168.079Z" fill="#3B7BC7"/>
<path d="M305.237 208.565H302.801V192.421L297.918 194.215V192.016L304.857 189.41H305.237V208.565ZM306.559 231.185C306.053 231.788 305.446 232.272 304.739 232.639C304.041 233.005 303.273 233.189 302.435 233.189C301.335 233.189 300.375 232.918 299.554 232.377C298.743 231.836 298.114 231.076 297.669 230.099C297.224 229.112 297.001 228.026 297.001 226.839C297.001 225.564 297.241 224.417 297.721 223.395C298.21 222.374 298.9 221.593 299.79 221.052C300.68 220.511 301.719 220.24 302.906 220.24C304.792 220.24 306.275 220.947 307.358 222.361C308.449 223.766 308.994 225.686 308.994 228.122V228.829C308.994 232.538 308.261 235.248 306.795 236.959C305.328 238.661 303.116 239.534 300.157 239.578H299.685V237.535H300.196C302.195 237.5 303.731 236.981 304.805 235.977C305.878 234.965 306.463 233.368 306.559 231.185ZM302.828 231.185C303.639 231.185 304.386 230.937 305.066 230.439C305.756 229.942 306.258 229.326 306.572 228.593V227.624C306.572 226.036 306.227 224.744 305.538 223.749C304.848 222.754 303.975 222.256 302.919 222.256C301.854 222.256 300.999 222.666 300.353 223.487C299.707 224.299 299.384 225.372 299.384 226.708C299.384 228.008 299.694 229.082 300.314 229.929C300.942 230.766 301.78 231.185 302.828 231.185Z" fill="white"/>
<path d="M338.293 48.8215L220.888 49.0248L220.885 47.9852L338.297 47.7819L338.293 48.8215Z" fill="#E9EFF9"/>
<path d="M338.299 55.4549L220.894 55.6582L220.891 54.6186L338.302 54.4152L338.299 55.4549Z" fill="#E9EFF9"/>
<path d="M306.871 62.0732L220.899 62.2915L220.896 61.2519L306.875 61.0346L306.871 62.0732Z" fill="#E9EFF9"/>
<path d="M323.443 41.467L323.439 38.1067L220.964 38.0697L220.98 41.4289L323.443 41.467Z" fill="#3B7BC7"/>
<path d="M223.504 32.1264L221.494 33.2532L221.943 30.9916L220.249 29.4262L222.539 29.1548L223.504 27.0605L224.471 29.1548L226.76 29.4262L225.068 30.9916L225.517 33.2532L223.504 32.1264Z" fill="#3B7BC7"/>
<path d="M233.004 32.1264L230.992 33.2532L231.442 30.9916L229.749 29.4262L232.039 29.1548L233.004 27.0605L233.971 29.1548L236.26 29.4262L234.567 30.9916L235.015 33.2532L233.004 32.1264Z" fill="#3B7BC7"/>
<path d="M242.503 32.1264L240.491 33.2532L240.941 30.9916L239.248 29.4262L241.538 29.1548L242.503 27.0605L243.469 29.1548L245.758 29.4262L244.067 30.9916L244.515 33.2532L242.503 32.1264Z" fill="#3B7BC7"/>
<path d="M252.002 32.1264L249.991 33.2532L250.439 30.9916L248.747 29.4262L251.036 29.1548L252.002 27.0605L252.967 29.1548L255.257 29.4262L253.564 30.9916L254.014 33.2532L252.002 32.1264Z" fill="#3B7BC7"/>
<path d="M261.502 32.1264L259.49 33.2532L259.938 30.9916L258.246 29.4262L260.535 29.1548L261.502 27.0605L262.467 29.1548L264.757 29.4262L263.063 30.9916L263.514 33.2532L261.502 32.1264Z" fill="#3B7BC7"/>
<path d="M211.286 44.7251C211.286 55.1293 202.852 63.5635 192.449 63.5635C182.045 63.5635 173.609 55.1293 173.609 44.7251C173.609 34.3218 182.045 25.8867 192.449 25.8867C202.852 25.8867 211.286 34.3218 211.286 44.7251Z" fill="#3B7BC7"/>
<path d="M192.449 46.9876C184.672 46.9876 178.369 53.2915 178.369 61.0676V64.1674H206.528V61.0676C206.528 53.2915 200.224 46.9876 192.449 46.9876Z" fill="white"/>
<path d="M199.06 38.3041C199.06 41.9558 196.099 44.9164 192.449 44.9164C188.796 44.9164 185.835 41.9558 185.835 38.3041C185.835 34.6524 188.796 31.6917 192.449 31.6917C196.099 31.6917 199.06 34.6524 199.06 38.3041Z" fill="white"/>
<path d="M115.266 226.833H50.4068C48.1203 226.833 46.2664 228.686 46.2664 230.972V255.83C46.2664 258.116 48.1203 259.97 50.4068 259.97H97.1799L111.416 269.048L109.685 259.97H115.266C117.552 259.97 119.406 258.116 119.406 255.83V230.972C119.406 228.686 117.552 226.833 115.266 226.833Z" fill="#3B7BC7"/>
<path d="M57.2153 236.137H110.716V235.136H57.2153V236.137Z" fill="#F8F8F8"/>
<path d="M57.2153 243.862H110.716V242.861H57.2153V243.862Z" fill="#F8F8F8"/>
<path d="M57.2153 251.587H76.5968V250.586H57.2153V251.587Z" fill="#F8F8F8"/>
<path d="M113.037 142.265C111.229 144.075 108.776 145.09 106.218 145.09C103.659 145.09 101.206 144.075 99.3975 142.265C97.5896 140.457 96.5731 138.004 96.5731 135.447C96.5731 132.889 97.5896 130.436 99.3975 128.627C101.206 126.818 103.659 125.803 106.218 125.803C108.776 125.803 111.229 126.818 113.037 128.627C114.846 130.436 115.862 132.889 115.862 135.447C115.862 138.004 114.846 140.457 113.037 142.265ZM125.565 139.581V131.146H122.065C121.691 129.742 121.134 128.397 120.406 127.141L122.882 124.665L116.916 118.7L114.441 121.176C113.184 120.446 111.839 119.89 110.436 119.516V116.015H102V119.516C100.596 119.89 99.2512 120.446 97.9943 121.176L95.5184 118.7L89.5541 124.665L92.029 127.141C91.3008 128.397 90.7439 129.742 90.3704 131.146H86.8689V139.581H90.3704C90.7439 140.985 91.3008 142.331 92.029 143.587L89.5541 146.062L95.5184 152.028L97.9943 149.553C99.2512 150.281 100.596 150.838 102 151.211V154.712H110.436V151.211C111.839 150.838 113.184 150.281 114.441 149.553L116.916 152.028L122.882 146.062L120.406 143.587C121.134 142.331 121.691 140.985 122.065 139.581H125.565Z" fill="#92B2DE"/>
<path d="M76.4726 165.398C74.8761 165.874 73.1574 165.698 71.6921 164.907C70.2258 164.115 69.1351 162.774 68.6584 161.178C68.1826 159.582 68.3589 157.862 69.1511 156.398C69.9423 154.932 71.2834 153.842 72.8789 153.365C74.4744 152.888 76.1941 153.064 77.6594 153.856C79.1247 154.648 80.2154 155.989 80.6921 157.584C81.1689 159.18 80.9916 160.901 80.2004 162.365C79.4091 163.83 78.0671 164.921 76.4726 165.398ZM84.4801 167.736L87.0902 162.905L85.084 161.821C85.3054 160.902 85.4025 159.958 85.3735 159.014L87.5579 158.361L85.9864 153.098L83.802 153.75C83.3072 152.944 82.7093 152.209 82.0212 151.56L83.1039 149.555L78.2704 146.945L77.1877 148.95C76.2682 148.73 75.3258 148.633 74.3803 148.661L73.7283 146.478L68.4651 148.05L69.1171 150.233C68.3118 150.728 67.5757 151.326 66.9276 152.015L64.9225 150.931L62.3124 155.765L64.3176 156.847C64.0972 157.767 64.0001 158.709 64.0291 159.655L61.8457 160.308L63.4162 165.57L65.6006 164.917C66.0953 165.724 66.6923 166.458 67.3814 167.107L66.2987 169.112L71.1312 171.722L72.2139 169.717C73.1343 169.938 74.0768 170.035 75.0223 170.006L75.6743 172.19L80.9375 170.619L80.2845 168.434C81.0908 167.94 81.8259 167.342 82.4749 166.654L84.4801 167.736Z" fill="white"/>
<path d="M84.6363 181.939H25.0101C23.9004 181.939 23 182.84 23 183.949V218.076C23 219.186 23.9004 220.085 25.0101 220.085H84.6363C85.746 220.085 86.6464 219.186 86.6464 218.077V183.949C86.6464 182.84 85.746 181.939 84.6363 181.939Z" fill="#C1DAF3"/>
<path d="M86.6464 188.612V183.949C86.6464 182.84 85.746 181.939 84.6363 181.939H25.0101C23.9004 181.939 23 182.84 23 183.949V188.612H86.6464Z" fill="#3B7BC7"/>
<path d="M43.8473 206.412L52.3633 209.854V212.521L41.2353 207.365V205.378L52.3633 200.236V202.903L43.8473 206.412ZM56.8389 216.874H54.6759L62.9471 195.366H65.0965L56.8389 216.874ZM51.0709 239.331L42.0788 235.807V233.223L53.6965 238.365V240.351L42.0788 245.507V242.895L51.0709 239.331Z" fill="white"/>
</svg>
