<svg width="471" height="320" viewBox="0 0 471 320" fill="none" xmlns="http://www.w3.org/2000/svg">
<g clip-path="url(#clip0)">
<path d="M452.36 286.845C452.36 290.772 351.142 293.957 226.286 293.957C101.433 293.957 0.217163 290.772 0.217163 286.845C0.217163 282.917 101.433 279.732 226.286 279.732C351.142 279.732 452.36 282.917 452.36 286.845Z" fill="#C4C4C4"/>
<path d="M359.289 180.588C358.806 180.954 358.127 180.861 357.762 180.377C357.391 179.894 357.485 179.214 357.968 178.848C358.451 178.481 359.135 178.572 359.5 179.056C359.866 179.539 359.772 180.219 359.289 180.588ZM354.096 179.657L363.723 192.315L369.406 187.996L359.779 175.334L354.096 179.657Z" fill="white"/>
<path d="M370.895 186.864L379.617 180.228C382.729 177.861 383.331 173.417 380.965 170.303L377.272 165.445C378.825 164.264 379.125 162.048 377.945 160.493C376.764 158.941 374.551 158.639 372.995 159.82L365.813 165.407L365.096 159.625C364.809 157.275 362.073 155.903 360.166 157.306L360.121 157.339L361.811 174.913L370.895 186.864Z" fill="white"/>
<path d="M307.196 282.172L305.777 282.139C306.494 252.876 316.587 223.924 334.318 200.631L335.45 201.492C317.906 224.541 307.912 253.216 307.196 282.172Z" fill="#3CB83D"/>
<path d="M337.035 214.275C332.57 214.203 328.756 210.788 328.756 210.788C328.756 210.788 329.661 209.88 331.137 208.996C332.657 208.146 334.734 207.33 336.975 207.446C339.208 207.553 341.229 208.587 342.678 209.551C344.127 210.517 345.019 211.427 345.019 211.427C345.019 211.427 341.52 214.375 337.035 214.275Z" fill="#3CB83D"/>
<path d="M316.56 212.935C317.561 215.028 319.303 216.438 320.799 217.346C322.29 218.252 323.502 218.65 323.502 218.65C323.502 218.65 323.868 217.428 323.989 215.679C324.11 213.935 323.967 211.631 323.064 209.542C321.217 205.306 316.457 203.404 316.457 203.404C316.457 203.404 315.961 204.726 315.703 206.571C315.487 208.439 315.56 210.844 316.56 212.935Z" fill="#3CB83D"/>
<path d="M326.859 202.205C327.939 205.048 331.029 206.395 331.029 206.395C331.029 206.395 331.342 205.617 331.521 204.478C331.693 203.335 331.747 201.839 331.268 200.427C330.289 197.578 327.275 196.075 327.275 196.075C327.275 196.075 326.891 196.884 326.638 198.052C326.39 199.224 326.327 200.785 326.859 202.205Z" fill="#3CB83D"/>
<path d="M335.105 196.526C333.319 199.041 333.874 202.369 333.874 202.369C333.874 202.369 337.153 201.66 338.868 199.271C340.639 196.927 340.288 193.54 340.288 193.54C340.288 193.54 336.975 194.068 335.105 196.526Z" fill="#3CB83D"/>
<path d="M331.331 228.444C328.581 228.67 325.963 227.959 323.985 227.122C322.013 226.297 320.736 225.378 320.736 225.378C320.736 225.378 321.686 224.13 323.415 222.877C325.123 221.611 327.486 220.307 330.29 220.198C333.064 220.07 335.631 221.056 337.524 222.047C339.414 223.04 340.63 224.034 340.63 224.034C340.63 224.034 339.664 225.02 337.994 226.04C336.364 227.084 334.09 228.223 331.331 228.444Z" fill="#3CB83D"/>
<path d="M306.192 229.925C307.722 232.327 310.134 233.777 312.081 234.631C314.04 235.49 315.583 235.774 315.583 235.774C315.583 235.774 315.79 234.217 315.679 232.072C315.531 229.916 315.05 227.149 313.628 224.716C312.177 222.273 309.951 220.609 308.073 219.589C306.199 218.567 304.665 218.184 304.665 218.184C304.665 218.184 304.254 219.904 304.216 222.228C304.18 224.555 304.661 227.527 306.192 229.925Z" fill="#3CB83D"/>
<path d="M324.141 246.166C321.487 246.801 318.74 246.466 316.667 245.933C314.599 245.408 313.206 244.685 313.206 244.685C313.206 244.685 314.004 243.323 315.46 241.806C316.958 240.306 319.198 238.702 321.876 238.149C324.566 237.599 327.305 238.219 329.313 238.914C331.331 239.621 332.671 240.424 332.671 240.424C332.671 240.424 331.823 241.527 330.388 242.808C328.928 244.081 326.766 245.517 324.141 246.166Z" fill="#3CB83D"/>
<path d="M299.476 251.321C301.392 253.484 303.943 254.551 306.004 255.115C308.064 255.672 309.64 255.728 309.64 255.728C309.64 255.728 309.626 254.16 309.141 252.044C308.73 249.944 307.871 247.28 306.042 245.065C304.254 242.864 301.835 241.551 299.823 240.818C297.817 240.082 296.241 239.93 296.241 239.93C296.241 239.93 296.028 241.67 296.402 243.996C296.757 246.32 297.522 249.149 299.476 251.321Z" fill="#3CB83D"/>
<path d="M319.775 263.842C317.215 264.842 314.445 264.896 312.318 264.663C310.192 264.433 308.71 263.918 308.71 263.918C308.71 263.918 311.113 258.04 316.419 256.235C319.026 255.321 321.762 255.535 323.853 255.947C325.948 256.361 327.399 256.969 327.399 256.969C327.399 256.969 324.807 261.816 319.775 263.842Z" fill="#3CB83D"/>
<path d="M296.102 272.449C298.289 274.319 300.956 275.008 303.076 275.272C305.193 275.527 306.762 275.357 306.762 275.357C306.762 275.357 305.839 269.179 301.725 265.314C299.624 263.384 297.008 262.42 294.92 261.979C292.834 261.532 291.251 261.604 291.251 261.604C291.251 261.604 291.365 263.375 292.009 265.623C292.617 267.866 293.905 270.584 296.102 272.449Z" fill="#3CB83D"/>
<path d="M264.945 115.797C264.945 117.265 263.756 118.455 262.289 118.455C260.822 118.455 259.633 117.265 259.633 115.797C259.633 114.33 260.822 113.14 262.289 113.14C263.756 113.14 264.945 114.33 264.945 115.797Z" fill="#F78E11"/>
<path d="M203.858 287.046H342.604C343.058 287.046 343.425 286.679 343.425 286.227V32.4748C343.425 32.0239 343.058 31.6569 342.604 31.6569H203.858C203.407 31.6569 203.041 32.0239 203.041 32.4748V286.227C203.041 286.679 203.407 287.046 203.858 287.046Z" fill="#263238"/>
<path d="M213.816 255.077H332.646V51.2612H213.816V255.077Z" fill="#93A1AA"/>
<path d="M264.703 270.425C264.703 275.138 268.522 278.958 273.231 278.958C277.941 278.958 281.76 275.138 281.76 270.425C281.76 265.712 277.941 261.892 273.231 261.892C268.522 261.892 264.703 265.712 264.703 270.425Z" fill="#332437"/>
<path d="M250.935 42.8235H295.523C295.597 42.8235 295.657 42.764 295.657 42.6893V38.3143C295.657 38.2398 295.597 38.1801 295.523 38.1801H250.935C250.864 38.1801 250.806 38.2398 250.806 38.3143V42.6893C250.806 42.764 250.864 42.8235 250.935 42.8235Z" fill="#332437"/>
<path d="M288.639 146.118C285.245 150.969 279.616 154.132 273.239 154.132C262.816 154.132 254.387 145.702 254.387 135.274C254.387 124.873 262.816 116.416 273.239 116.416C276.117 116.416 278.842 117.065 281.277 118.258L283.998 114.86C280.785 113.148 277.13 112.188 273.239 112.188C260.482 112.188 250.164 122.538 250.164 135.274C250.164 148.01 260.482 158.361 273.239 158.361C281.096 158.361 288.02 154.418 292.221 148.399L288.639 146.118Z" fill="#FFBE0B"/>
<path d="M250.808 205.764L249.446 213.523H252.469L252.348 214.183H248.483L249.961 205.764H250.808Z" fill="white"/>
<path d="M256.532 213.57C258.291 213.57 259.51 212.018 259.51 210.258C259.51 208.882 258.58 208.233 257.482 208.233C255.727 208.233 254.546 209.786 254.546 211.544C254.546 212.906 255.449 213.57 256.532 213.57ZM256.435 214.281C254.788 214.281 253.679 213.23 253.679 211.58C253.679 209.343 255.331 207.509 257.607 207.509C259.252 207.509 260.375 208.558 260.375 210.211C260.375 212.461 258.689 214.281 256.435 214.281Z" fill="white"/>
<path d="M265.233 208.245C263.863 208.245 262.62 209.211 262.333 210.884C262.029 212.546 262.924 213.543 264.292 213.543C265.645 213.543 266.917 212.53 267.207 210.895C267.507 209.258 266.581 208.245 265.233 208.245ZM265.209 207.509C266.532 207.509 267.306 208.218 267.534 209.05L267.784 207.607H268.629L267.471 214.183H266.631L266.881 212.725C266.367 213.57 265.316 214.281 264.006 214.281C262.21 214.281 261.104 212.942 261.466 210.884C261.826 208.824 263.402 207.509 265.209 207.509Z" fill="white"/>
<path d="M273.353 208.245C271.983 208.245 270.74 209.211 270.454 210.884C270.149 212.546 271.044 213.543 272.412 213.543C273.765 213.543 275.037 212.53 275.328 210.895C275.627 209.258 274.702 208.245 273.353 208.245ZM273.342 207.509C274.523 207.509 275.39 208.162 275.667 209.03L276.329 205.272H277.17L275.591 214.183H274.751L275.015 212.711C274.473 213.579 273.441 214.281 272.135 214.281C270.331 214.281 269.224 212.942 269.586 210.884C269.946 208.824 271.522 207.509 273.342 207.509Z" fill="white"/>
<path d="M278.811 205.737C278.871 205.375 279.184 205.124 279.533 205.124C279.873 205.124 280.103 205.375 280.032 205.737C279.969 206.1 279.656 206.364 279.319 206.364C278.97 206.364 278.755 206.1 278.811 205.737ZM278.668 207.607H279.513L278.353 214.183H277.512L278.668 207.607Z" fill="white"/>
<path d="M285.854 210.425C286.104 208.967 285.456 208.218 284.249 208.218C283.021 208.218 282.022 208.989 281.744 210.591V210.56L281.105 214.183H280.264L281.423 207.607H282.263L282.055 208.737C282.625 207.92 283.555 207.486 284.541 207.486C286.019 207.486 287.043 208.403 286.706 210.329L286.019 214.183H285.188L285.854 210.425Z" fill="white"/>
<path d="M291.841 208.245C290.468 208.245 289.225 209.211 288.939 210.884C288.637 212.546 289.529 213.543 290.9 213.543C292.25 213.543 293.522 212.53 293.815 210.895C294.112 209.258 293.189 208.245 291.841 208.245ZM291.814 207.509C293.115 207.509 293.911 208.209 294.139 209.039L294.39 207.607H295.237L294.057 214.349C293.732 216.196 292.25 217.413 290.441 217.413C288.744 217.413 287.718 216.545 287.698 215.169H288.53C288.648 216.064 289.359 216.675 290.578 216.675C291.83 216.675 292.948 215.843 293.209 214.349L293.486 212.725C292.974 213.57 291.926 214.281 290.622 214.281C288.816 214.281 287.709 212.942 288.071 210.884C288.434 208.824 290.008 207.509 291.814 207.509Z" fill="white"/>
<path d="M296.132 214.246C295.783 214.246 295.568 213.968 295.624 213.615C295.687 213.266 296.013 213.002 296.346 213.002C296.697 213.002 296.916 213.266 296.854 213.615C296.782 213.968 296.471 214.246 296.132 214.246Z" fill="white"/>
<path d="M298.322 214.246C297.976 214.246 297.759 213.968 297.819 213.615C297.877 213.266 298.206 213.002 298.539 213.002C298.892 213.002 299.107 213.266 299.047 213.615C298.975 213.968 298.662 214.246 298.322 214.246Z" fill="white"/>
<path d="M300.513 214.246C300.165 214.246 299.95 213.968 300.006 213.615C300.066 213.266 300.395 213.002 300.728 213.002C301.079 213.002 301.298 213.266 301.236 213.615C301.164 213.968 300.851 214.246 300.513 214.246Z" fill="white"/>
<path d="M296.29 135.274C296.29 140.151 294.788 144.691 292.221 148.401L288.639 146.118C290.792 143.057 292.064 139.322 292.064 135.274C292.064 127.752 287.655 121.241 281.277 118.258L283.998 114.86C291.311 118.725 296.29 126.429 296.29 135.274Z" fill="#5E8CA1"/>
<path d="M77.2331 277.876C71.5706 261.557 52.157 258.049 52.157 258.049C52.157 258.049 56.6061 276.527 64.5603 282.192H77.9072L77.2331 277.876Z" fill="#2C657B"/>
<path d="M73.3686 282.192C73.3686 282.192 67.6164 269.962 61.5043 266.817C61.5043 266.817 67.7061 274.1 71.0318 282.192H73.3686Z" fill="#244D61"/>
<path d="M49.1914 282.192C42.0461 274.368 45.5511 264.657 45.5511 264.657C45.5511 264.657 62.9429 271.537 66.1785 282.192H49.1914Z" fill="#CC9529"/>
<path d="M59.0779 282.192L51.9773 273.738L56.2914 282.192H59.0779Z" fill="#B96C25"/>
<path d="M408.631 282.725C416.033 270.201 411.591 253.232 411.591 253.232C411.591 253.232 399.616 257.139 393.959 282.725H408.631Z" fill="#2C657B"/>
<path d="M401.898 282.725C404.95 269.797 417.334 265.397 417.334 265.397C417.334 265.397 416.795 276.619 411.59 282.725H401.898Z" fill="#244D61"/>
<path d="M399.075 282.725C401.767 271.233 406.12 265.486 406.12 265.486C406.12 265.486 401.094 276.708 400.559 282.725H399.075Z" fill="#244D61"/>
<path d="M405.163 282.725L412.297 271.445L406.71 282.725H405.163Z" fill="#1D3A46"/>
<path d="M399.372 282.725C396.323 269.797 383.939 265.397 383.939 265.397C383.939 265.397 384.476 276.619 389.68 282.725H399.372Z" fill="#244D61"/>
<path d="M396.11 282.725L388.976 271.445L394.563 282.725H396.11Z" fill="#1D3A46"/>
<path d="M365.603 287.422C385.479 253.793 373.551 208.233 373.551 208.233C373.551 208.233 341.383 218.719 326.205 287.422H365.603Z" fill="#2C657B"/>
<path d="M347.527 287.422C355.724 252.708 388.974 240.898 388.974 240.898C388.974 240.898 387.527 271.031 373.552 287.422H347.527Z" fill="#244D61"/>
<path d="M339.941 287.422C347.172 256.566 358.856 241.138 358.856 241.138C358.856 241.138 345.365 271.268 343.917 287.422H339.941Z" fill="#244D61"/>
<path d="M356.298 287.422L375.454 257.139L360.452 287.422H356.298Z" fill="#1D3A46"/>
<path d="M340.746 287.422C332.55 252.706 299.302 240.896 299.302 240.896C299.302 240.896 300.746 271.031 314.724 287.422H340.746Z" fill="#244D61"/>
<path d="M331.975 287.422L312.822 257.139L327.819 287.422H331.975Z" fill="#1D3A46"/>
<path d="M151.802 274.986C138.155 235.649 91.3633 227.196 91.3633 227.196C91.3633 227.196 102.087 271.734 121.259 285.386H153.43L151.802 274.986Z" fill="#2C657B"/>
<path d="M142.49 285.386C142.49 285.386 128.625 255.913 113.893 248.326C113.893 248.326 128.84 265.882 136.855 285.386H142.49Z" fill="#244D61"/>
<path d="M84.2143 285.386C66.992 266.533 75.4409 243.126 75.4409 243.126C75.4409 243.126 117.36 259.707 125.158 285.386H84.2143Z" fill="#CC9529"/>
<path d="M108.044 285.386L90.9297 265.014L101.328 285.386H108.044Z" fill="#B96C25"/>
<path d="M134.504 117.573L132.101 132.888L138.006 134.517L143.411 118.3L134.504 117.573Z" fill="#E2896B"/>
<path d="M151.272 106.987C151.749 120.11 149.558 125.254 142.403 124.968C135.252 124.682 128.33 114.367 132.623 109.502C136.912 104.637 151.072 101.522 151.272 106.987Z" fill="#F89D76"/>
<path d="M149.021 283.212L146.949 292.548H167.84C167.84 292.548 168.588 285.753 155.815 284.836L151.802 282.568L149.021 283.212Z" fill="#363F7D"/>
<path d="M82.5521 283.212L80.4805 292.548H101.371C101.371 292.548 102.119 285.753 89.3453 284.836L85.3323 282.568L82.5521 283.212Z" fill="#363F7D"/>
<path d="M158.122 284.836H146.633C146.949 262.733 151.334 240.561 151.334 229.858L127.558 198.162L122.869 234.242C122.496 237.109 121.411 239.838 119.715 242.178L94.264 285.185L81.8665 282.702L106.382 235.014L113.175 178.092L133.869 174.528L162.799 216.851C166.043 221.593 167.342 227.4 166.43 233.072L158.122 284.836Z" fill="#263238"/>
<path d="M143.411 142.338L157.824 171.771C159.112 174.399 157.863 177.566 155.129 178.606C152.736 179.516 150.041 178.458 148.905 176.161L141.318 160.802L143.411 142.338Z" fill="#7570BF"/>
<path d="M131.299 124.979C131.299 124.979 115.167 156.335 112.327 174.025C112.106 175.398 109.459 183.88 109.365 185.142L139.148 183.059C139.148 183.059 145.751 139.389 144.967 132.978C144.108 125.936 131.299 124.979 131.299 124.979Z" fill="#8B50FF"/>
<path d="M128.109 141.228C122.737 153.573 133.687 182.042 133.687 182.042L121.56 179.791L118.165 154.707L115.248 144.899L128.109 141.228Z" fill="#7570BF"/>
<path d="M135.532 110.924C135.532 110.924 149.832 112.258 152.336 103.43C154.84 94.6012 143.002 94.7616 143.002 94.7616C143.002 94.7616 142.752 93.2205 142.752 97.0383C142.752 97.0383 122.174 98.844 129.805 116.74C129.805 116.74 130.759 119.633 133.743 122.735L135.532 110.924Z" fill="#462F4F"/>
<path d="M136.068 115.218C133.561 112.176 131.236 113.787 132.667 118.26C134.101 122.734 136.516 119.961 136.516 119.961L136.068 115.218Z" fill="#F89D76"/>
<path d="M219.644 153.937L200.712 106.993C206.448 101.247 213.527 96.6623 221.692 93.7698C242.118 86.5332 263.93 91.7805 278.8 105.543L225.184 124.538L219.644 153.937Z" fill="white"/>
<path d="M192.204 146.916L90.5116 182.943C82.0622 185.938 77.6383 195.216 80.6304 203.666C83.6228 212.121 92.8976 216.547 101.347 213.552L203.037 177.526L192.204 146.916Z" fill="white"/>
<path d="M172.973 170.952C170.812 164.848 164.114 161.652 158.012 163.815L95.6161 185.92C89.5136 188.081 86.3189 194.782 88.4797 200.888C90.6406 206.992 97.3389 210.188 103.441 208.028L165.837 185.922C171.939 183.759 175.135 177.058 172.973 170.952Z" fill="#E6E0F3"/>
<path d="M99.9036 200.893C97.9155 201.597 95.7334 200.557 95.0292 198.566C94.3251 196.578 95.3661 194.395 97.3541 193.69C99.3422 192.984 101.525 194.028 102.229 196.014C102.933 198.003 101.892 200.19 99.9036 200.893Z" fill="#FCD0EA"/>
<path d="M259.32 200.065C229.98 210.457 197.782 195.084 187.39 165.734C179.893 144.55 185.804 121.87 200.712 106.993L219.645 153.937L242.677 173.954L296.29 154.959C293.395 175.016 279.746 192.827 259.32 200.065Z" fill="white"/>
<path d="M133.082 138.274C134.751 135.805 134.841 132.523 133.124 130.086C131.224 127.387 128.372 127.414 124.866 131.401C121.411 135.327 114.612 143.696 110.595 148.674C108.636 151.103 108.2 154.42 109.462 157.275L123.128 188.186L129.519 183.997L122.738 153.573L133.082 138.274Z" fill="#8B50FF"/>
<path d="M177.019 185.504C176.294 186.557 176.527 188.014 177.576 188.738C181.273 191.299 185.568 189.823 187.679 186.569C190.111 182.815 187.303 179.702 183.318 180.322C180.706 180.726 178.336 183.587 177.019 185.504Z" fill="#F89D76"/>
<path d="M131.248 181.983C124.461 180.545 118.674 183.097 118.46 187.463C118.242 191.829 122.156 194.777 126.255 193.498C130.357 192.214 130.485 184.904 130.485 184.904C130.485 184.904 131.645 186.153 133.27 185.681C134.894 185.213 131.248 181.983 131.248 181.983Z" fill="#F89D76"/>
</g>
<defs>
<clipPath id="clip0">
<rect width="471" height="320" fill="white"/>
</clipPath>
</defs>
</svg>
