<svg width="302" height="320" viewBox="0 0 302 320" fill="none" xmlns="http://www.w3.org/2000/svg">
<path fill-rule="evenodd" clip-rule="evenodd" d="M0.219644 183.308C6.76603 92.4606 79.1036 3.86308 157.051 16.1448C254.55 31.5094 199.831 112.066 249.594 143.401C297.481 173.554 324.221 238.22 277.859 285.666C235.99 328.511 -8.34188 302.131 0.219644 183.308Z" fill="#0082BA"/>
<path fill-rule="evenodd" clip-rule="evenodd" d="M115.781 143.504C115.789 143.508 117.688 141.788 120.496 139.728L116.049 145.408C115.123 145.141 114.918 144.537 115.781 143.504Z" fill="#B0CCF8"/>
<path d="M114.954 143.902C115.857 143.581 116.914 143.23 118.046 142.856L116.365 145.004C116.053 145.111 115.767 145.212 115.507 145.304" fill="#B0CCF8"/>
<path fill-rule="evenodd" clip-rule="evenodd" d="M115.161 142.899C115.138 142.902 107.224 128.993 99.3263 126.493C96.5288 125.607 91.8515 126.802 94.5 130.826C98.8386 137.411 117.605 149.022 115.161 142.899Z" fill="#B0CCF8"/>
<path d="M115.821 143.532C112.798 141.206 107.611 137.656 104.758 134.889C105.604 137.912 112.12 142.588 114.858 144.693" fill="#B0CCF8"/>
<path fill-rule="evenodd" clip-rule="evenodd" d="M120.61 129.994C120.632 130 130.26 117.533 138.296 116.18C139.395 115.995 138.982 116.847 138.862 117.929C138.225 123.604 135.385 126.966 128.196 129.895C123.068 132.046 119.017 132.776 120.61 129.994Z" fill="#B0CCF8"/>
<path d="M119.879 130.521C123.144 128.668 128.687 125.92 131.848 123.616C130.608 126.443 123.613 130.108 120.658 131.784" fill="#B0CCF8"/>
<path fill-rule="evenodd" clip-rule="evenodd" d="M119.388 129.817C119.366 129.82 110.855 116.571 102.967 114.532C100.171 113.808 95.6395 115.229 98.4537 119.041C103.064 125.281 122.112 135.705 119.388 129.817Z" fill="#B0CCF8"/>
<path d="M120.071 130.406C116.979 128.277 111.696 125.062 108.746 122.493C109.737 125.418 116.386 129.67 119.186 131.594" fill="#B0CCF8"/>
<path fill-rule="evenodd" clip-rule="evenodd" d="M123.727 115.354C123.749 115.356 131.276 102.379 138.696 100.097C141.325 99.2886 145.7 100.444 143.188 104.194C139.07 110.334 121.39 121.075 123.727 115.354Z" fill="#B0CCF8"/>
<path d="M123.104 115.94C125.954 113.784 130.844 110.496 133.54 107.924C132.724 110.753 126.578 115.084 123.998 117.037" fill="#B0CCF8"/>
<path fill-rule="evenodd" clip-rule="evenodd" d="M123.141 115.901C123.118 115.905 115.01 103.279 107.495 101.336C104.83 100.647 100.512 102 103.194 105.633C107.585 111.58 125.736 121.511 123.141 115.901Z" fill="#B0CCF8"/>
<path d="M123.791 116.459C120.846 114.433 115.812 111.371 112.999 108.922C113.943 111.709 120.28 115.76 122.948 117.595" fill="#B0CCF8"/>
<path fill-rule="evenodd" clip-rule="evenodd" d="M124.658 103.943C124.636 103.946 116.528 91.3213 109.011 89.3769C106.346 88.6892 102.029 90.0419 104.712 93.6741C109.102 99.6226 127.254 109.553 124.658 103.943Z" fill="#B0CCF8"/>
<path d="M125.306 104.504C122.36 102.478 117.326 99.4129 114.514 96.9669C115.46 99.7526 121.796 103.806 124.464 105.64" fill="#B0CCF8"/>
<path fill-rule="evenodd" clip-rule="evenodd" d="M124.78 103.869C124.8 103.873 132.357 90.9119 139.783 88.6479C142.415 87.846 146.787 89.0134 144.265 92.7563C140.133 98.8881 122.426 109.585 124.78 103.869Z" fill="#B0CCF8"/>
<path d="M124.152 104.458C127.009 102.306 131.906 99.0292 134.608 96.4636C133.786 99.2907 127.63 103.609 125.044 105.554" fill="#B0CCF8"/>
<path fill-rule="evenodd" clip-rule="evenodd" d="M125.491 88.1181C125.47 88.1216 116.426 76.1446 108.782 74.772C106.075 74.2864 101.874 75.9606 104.823 79.3807C109.651 84.9801 128.502 93.5158 125.491 88.1181Z" fill="#B0CCF8"/>
<path d="M126.181 88.6256C123.088 86.8276 117.838 84.1515 114.85 81.9222C116.001 84.6314 122.627 88.1926 125.426 89.8202" fill="#B0CCF8"/>
<path fill-rule="evenodd" clip-rule="evenodd" d="M125.607 88.0345C125.627 88.0345 132.182 74.543 139.414 71.7266C141.979 70.7282 146.426 71.5627 144.195 75.4855C140.539 81.9081 123.694 93.9095 125.607 88.0345Z" fill="#B0CCF8"/>
<path d="M125.025 88.6661C127.712 86.308 132.345 82.6722 134.847 79.9091C134.239 82.7887 128.428 87.5587 125.996 89.6946" fill="#B0CCF8"/>
<path fill-rule="evenodd" clip-rule="evenodd" d="M122.669 75.1273C122.647 75.1325 113.606 63.1538 105.963 61.783C103.256 61.2959 99.0528 62.9711 102.001 66.3911C106.832 71.9909 125.682 80.5252 122.669 75.1273Z" fill="#B0CCF8"/>
<path d="M123.36 75.6359C120.267 73.8368 115.018 71.1614 112.028 68.9336C113.182 71.6417 119.806 75.2037 122.605 76.8324" fill="#B0CCF8"/>
<path fill-rule="evenodd" clip-rule="evenodd" d="M122.859 75.5494C122.88 75.544 124.71 60.6645 130.644 55.6678C132.747 53.8976 137.224 53.2545 136.385 57.6875C135.008 64.9439 122.954 81.7273 122.859 75.5494Z" fill="#B0CCF8"/>
<path d="M122.515 76.335C124.291 73.2372 127.5 68.3039 128.973 64.8843C129.331 67.8046 125.377 74.1919 123.769 76.9961" fill="#B0CCF8"/>
<path fill-rule="evenodd" clip-rule="evenodd" d="M119.267 59.2764C119.251 59.28 112.435 50.2512 106.674 49.2161C104.63 48.8493 101.463 50.1113 103.687 52.69C107.328 56.9121 121.539 63.346 119.267 59.2764Z" fill="#B0CCF8"/>
<path d="M119.788 59.6589C117.459 58.3038 113.5 56.2864 111.246 54.6055C112.116 56.6479 117.11 59.333 119.219 60.5599" fill="#B0CCF8"/>
<path fill-rule="evenodd" clip-rule="evenodd" d="M119.412 59.5956C119.427 59.59 120.806 48.373 125.278 44.6075C126.864 43.2733 130.241 42.7878 129.607 46.1289C128.568 51.5993 119.483 64.2525 119.412 59.5956Z" fill="#B0CCF8"/>
<path d="M119.151 60.1869C120.492 57.8514 122.91 54.1321 124.019 51.5536C124.29 53.756 121.31 58.5693 120.097 60.6835" fill="#B0CCF8"/>
<path fill-rule="evenodd" clip-rule="evenodd" d="M115.273 46.7301C115.261 46.7319 110.221 40.0563 105.962 39.2908C104.454 39.0205 102.111 39.953 103.754 41.8593C106.446 44.9814 116.951 49.7377 115.273 46.7301Z" fill="#B0CCF8"/>
<path d="M115.658 47.0114C113.937 46.0104 111.008 44.5174 109.344 43.276C109.986 44.7857 113.679 46.7708 115.237 47.6774" fill="#B0CCF8"/>
<path fill-rule="evenodd" clip-rule="evenodd" d="M115.38 46.9639C115.391 46.9601 116.411 38.6674 119.719 35.8842C120.891 34.8961 123.386 34.5382 122.919 37.0074C122.149 41.0528 115.433 50.4078 115.38 46.9639Z" fill="#B0CCF8"/>
<path d="M115.188 47.4019C116.18 45.6759 117.966 42.9247 118.788 41.0197C118.987 42.6469 116.783 46.2071 115.886 47.7691" fill="#B0CCF8"/>
<path fill-rule="evenodd" clip-rule="evenodd" d="M113.026 40.67C113.012 40.668 111.465 32.0141 107.832 29.2778C106.543 28.308 103.9 28.0748 104.534 30.6421C105.572 34.8475 113.169 44.2905 113.026 40.67Z" fill="#B0CCF8"/>
<path d="M112.859 147.664C121.366 130.322 124.942 111.737 124.417 93.5903C123.974 78.2375 117.313 48.4178 108.668 35.6674C118.027 40.288 125.622 82.86 125.929 93.5448C126.445 111.402 123.041 129.681 114.943 146.82L113.742 148.351" fill="#B0CCF8"/>
<path fill-rule="evenodd" clip-rule="evenodd" d="M122.76 145.403C122.765 145.408 124.616 144.368 127.259 143.218L122.627 146.989C121.93 146.604 121.874 146.079 122.76 145.403Z" fill="#A8A8AB"/>
<path d="M122.02 145.573C122.807 145.482 123.724 145.39 124.706 145.295L122.954 146.72C122.684 146.752 122.435 146.779 122.209 146.807" fill="#A8A8AB"/>
<path fill-rule="evenodd" clip-rule="evenodd" d="M122.371 144.802C122.352 144.8 118.522 132.132 112.611 128.675C110.516 127.448 106.523 127.56 107.922 131.289C110.21 137.394 123.216 150.19 122.371 144.802Z" fill="#A8A8AB"/>
<path d="M122.787 145.433C120.776 143.004 117.243 139.193 115.45 136.439C115.577 139.033 119.977 143.998 121.797 146.195" fill="#A8A8AB"/>
<path fill-rule="evenodd" clip-rule="evenodd" d="M129.139 135.387C129.156 135.396 139.212 127.097 145.945 127.473C146.865 127.526 146.377 128.136 146.079 128.988C144.522 133.45 141.615 135.644 135.274 136.694C130.745 137.494 127.341 137.342 129.139 135.387Z" fill="#A8A8AB"/>
<path d="M128.452 135.679C131.426 134.782 136.402 133.576 139.376 132.294C137.856 134.348 131.541 136.026 128.847 136.84" fill="#A8A8AB"/>
<path fill-rule="evenodd" clip-rule="evenodd" d="M128.186 135.019C128.167 135.019 123.736 122.775 117.748 119.69C115.625 118.597 111.709 118.913 113.278 122.502C115.85 128.38 129.303 140.268 128.186 135.019Z" fill="#A8A8AB"/>
<path d="M128.628 135.621C126.526 133.34 122.852 129.781 120.946 127.169C121.207 129.71 125.79 134.355 127.695 136.419" fill="#A8A8AB"/>
<path fill-rule="evenodd" clip-rule="evenodd" d="M134.344 124.146C134.36 124.153 142.816 115.055 149.223 114.571C151.493 114.399 154.809 116.13 152.092 118.697C147.643 122.898 131.407 128.334 134.344 124.146Z" fill="#A8A8AB"/>
<path d="M133.732 124.505C136.429 123.285 140.978 121.526 143.627 119.943C142.449 122.076 136.694 124.448 134.252 125.553" fill="#A8A8AB"/>
<path fill-rule="evenodd" clip-rule="evenodd" d="M133.77 124.479C133.753 124.477 129.531 112.812 123.823 109.872C121.801 108.829 118.07 109.132 119.565 112.553C122.017 118.152 134.835 129.477 133.77 124.479Z" fill="#A8A8AB"/>
<path d="M134.191 125.05C132.186 122.878 128.688 119.486 126.87 116.997C127.121 119.418 131.487 123.845 133.302 125.812" fill="#A8A8AB"/>
<path fill-rule="evenodd" clip-rule="evenodd" d="M137.191 115.111C137.172 115.111 132.952 103.444 127.243 100.502C125.221 99.4593 121.491 99.762 122.985 103.183C125.436 108.782 138.254 120.11 137.191 115.111Z" fill="#A8A8AB"/>
<path d="M137.614 115.679C135.609 113.507 132.11 110.116 130.293 107.626C130.542 110.048 134.91 114.475 136.724 116.441" fill="#A8A8AB"/>
<path fill-rule="evenodd" clip-rule="evenodd" d="M137.302 115.073C137.318 115.078 145.796 106.005 152.204 105.533C154.475 105.367 157.787 107.106 155.064 109.666C150.605 113.857 134.354 119.254 137.302 115.073Z" fill="#A8A8AB"/>
<path d="M136.689 115.432C139.388 114.218 143.94 112.47 146.593 110.894C145.41 113.022 139.65 115.383 137.206 116.48" fill="#A8A8AB"/>
<path fill-rule="evenodd" clip-rule="evenodd" d="M140.771 102.494C140.752 102.494 135.66 91.1801 129.746 88.6764C127.649 87.7891 123.951 88.3732 125.703 91.6705C128.57 97.071 142.21 107.4 140.771 102.494Z" fill="#A8A8AB"/>
<path d="M141.234 103.03C139.071 101.014 135.327 97.8978 133.325 95.5524C133.758 97.949 138.449 102.034 140.406 103.858" fill="#A8A8AB"/>
<path fill-rule="evenodd" clip-rule="evenodd" d="M140.878 102.448C140.896 102.454 148.662 92.7662 155.016 91.8146C157.266 91.4792 160.702 92.9631 158.18 95.7205C154.051 100.237 138.255 106.84 140.878 102.448Z" fill="#A8A8AB"/>
<path d="M140.294 102.852C142.896 101.439 147.303 99.3525 149.827 97.582C148.809 99.7952 143.244 102.581 140.891 103.86" fill="#A8A8AB"/>
<path fill-rule="evenodd" clip-rule="evenodd" d="M140.881 91.4999C140.863 91.4999 135.77 80.1858 129.855 77.683C127.76 76.7954 124.063 77.3798 125.814 80.6764C128.68 86.0772 142.321 96.4062 140.881 91.4999Z" fill="#A8A8AB"/>
<path d="M141.346 92.0366C139.181 90.0219 135.437 86.9026 133.434 84.56C133.868 86.9557 138.558 91.0384 140.517 92.8627" fill="#A8A8AB"/>
<path fill-rule="evenodd" clip-rule="evenodd" d="M140.959 91.875C140.977 91.875 145.186 80.2043 150.891 77.2588C152.912 76.2134 156.645 76.5137 155.152 79.9348C152.707 85.5371 139.901 96.8767 140.959 91.875Z" fill="#A8A8AB"/>
<path d="M140.535 92.4454C142.538 90.2708 146.034 86.878 147.85 84.3871C147.603 86.8088 143.238 91.2384 141.427 93.2071" fill="#A8A8AB"/>
<path fill-rule="evenodd" clip-rule="evenodd" d="M141.05 78.0903C141.038 78.0903 137.197 69.5599 132.741 67.6739C131.159 67.0054 128.372 67.4443 129.692 69.9309C131.854 74.0023 142.136 81.789 141.05 78.0903Z" fill="#A8A8AB"/>
<path d="M141.399 78.4965C139.77 76.976 136.946 74.6256 135.437 72.8595C135.763 74.6659 139.297 77.7435 140.775 79.1193" fill="#A8A8AB"/>
<path fill-rule="evenodd" clip-rule="evenodd" d="M141.107 78.375C141.12 78.3731 144.294 69.5759 148.596 67.3537C150.118 66.568 152.932 66.7925 151.807 69.3724C149.963 73.5959 140.31 82.1438 141.107 78.375Z" fill="#A8A8AB"/>
<path d="M140.792 78.8044C142.301 77.164 144.936 74.6057 146.305 72.7288C146.118 74.5535 142.827 77.8939 141.463 79.376" fill="#A8A8AB"/>
<path fill-rule="evenodd" clip-rule="evenodd" d="M140.135 67.2388C140.124 67.2388 137.285 60.9319 133.99 59.5363C132.822 59.0425 130.761 59.368 131.738 61.2063C133.333 64.2152 140.936 69.9715 140.135 67.2388Z" fill="#A8A8AB"/>
<path d="M140.392 67.5395C139.185 66.4147 137.1 64.6765 135.984 63.3711C136.225 64.7057 138.837 66.9826 139.929 67.9996" fill="#A8A8AB"/>
<path fill-rule="evenodd" clip-rule="evenodd" d="M140.176 67.4496C140.186 67.4477 142.533 60.9443 145.713 59.3011C146.839 58.719 148.918 58.8861 148.088 60.7941C146.724 63.9152 139.587 70.2364 140.176 67.4496Z" fill="#A8A8AB"/>
<path d="M139.942 67.7677C141.057 66.5554 143.005 64.6631 144.018 63.2753C143.879 64.6243 141.447 67.0931 140.436 68.1908" fill="#A8A8AB"/>
<path fill-rule="evenodd" clip-rule="evenodd" d="M139.433 61.9416C139.423 61.9362 139.764 54.672 137.334 51.8024C136.474 50.784 134.383 50.1135 134.424 52.2998C134.491 55.8836 138.883 64.8878 139.433 61.9416Z" fill="#A8A8AB"/>
<path d="M119.639 148.227C129.688 135.79 135.987 121.449 138.899 106.714C141.361 94.2485 141.469 68.975 136.837 57.1096C143.538 62.547 141.841 98.2781 140.127 106.955C137.26 121.455 131.155 135.577 121.473 147.927L120.224 148.943" fill="#A8A8AB"/>
<path fill-rule="evenodd" clip-rule="evenodd" d="M0.219678 183.308C1.24706 169.042 3.90025 154.832 7.93916 141.06C25.8224 131.543 49.4221 125.755 75.2953 125.755C131.142 125.755 176.414 152.71 176.414 185.962C176.414 219.214 131.142 246.171 75.2953 246.171C52.283 246.171 31.0717 241.59 14.0788 233.882C4.11779 219.381 -1.16747 202.566 0.219678 183.308Z" fill="#A8A8AB"/>
<path fill-rule="evenodd" clip-rule="evenodd" d="M89.6585 285.865C49.0078 270.994 15.0265 247.174 3.88477 213.585C13.5972 186.371 54.1855 165.954 102.787 165.954C158.635 165.954 203.907 192.91 203.907 226.162C203.907 259.414 158.635 286.37 102.787 286.37C98.3378 286.37 93.9557 286.197 89.6585 285.865Z" fill="#A8C7E3"/>
<path fill-rule="evenodd" clip-rule="evenodd" d="M168.442 239.737C168.442 239.737 162.513 238.424 163.832 255.165C164.679 265.922 170.69 287.791 171.472 303.62C174.938 303.928 178.383 304.189 181.79 304.386L179.307 246.958C179.307 246.958 171.076 239.079 168.442 239.737Z" fill="#FFB59E"/>
<path fill-rule="evenodd" clip-rule="evenodd" d="M165.417 242.418C164.447 244.562 163.79 248.381 164.325 255.165C165.171 265.932 171.193 287.831 171.968 303.663C172.378 303.698 172.791 303.734 173.202 303.769L170.744 246.958C170.744 246.958 168.155 244.48 165.417 242.418Z" fill="#FF8961"/>
<path fill-rule="evenodd" clip-rule="evenodd" d="M158.564 239.736C158.564 239.736 152.638 238.424 153.955 255.165C154.783 265.691 160.556 286.858 161.536 302.592C165.004 303.002 168.454 303.355 171.881 303.655L169.43 246.957C169.43 246.957 161.199 239.079 158.564 239.736Z" fill="#FFB59E"/>
<path fill-rule="evenodd" clip-rule="evenodd" d="M223.696 239.417C223.01 238.048 201.819 218.061 170.202 231.766C138.587 245.47 182.687 269.739 182.687 269.739C182.687 269.739 230.34 314.336 223.696 239.417Z" fill="#FD576B"/>
<path fill-rule="evenodd" clip-rule="evenodd" d="M54.6151 102.509C54.6151 102.509 31.0181 119.185 44.7642 177.428C69.5064 174.457 71.5673 159.839 71.5673 159.839C71.5673 159.839 74.3171 106.62 54.6151 102.509Z" fill="#2B4582"/>
<path fill-rule="evenodd" clip-rule="evenodd" d="M72.8198 84.2308C72.8198 84.2308 64.6463 86.0103 61.7244 89.4926C57.7392 94.2391 58.8876 103.331 61.1355 126.258C65.2599 144.074 58.9629 154.157 61.8226 158.007L97.3317 142.704C97.3317 142.704 108.559 81.4889 88.1688 81.0323C84.3323 82.174 72.8198 84.2308 72.8198 84.2308Z" fill="#3366DE"/>
<path fill-rule="evenodd" clip-rule="evenodd" d="M145.856 127.58C201.703 127.58 246.975 154.536 246.975 187.788C246.975 221.041 201.703 247.997 145.856 247.997C90.0108 247.997 44.7384 221.041 44.7384 187.788C44.7384 154.536 90.0108 127.58 145.856 127.58Z" fill="#579BF2"/>
<path fill-rule="evenodd" clip-rule="evenodd" d="M145.856 120.735C201.703 120.735 246.975 147.691 246.975 180.942C246.975 214.195 201.703 241.151 145.856 241.151C90.0108 241.151 44.7384 214.195 44.7384 180.942C44.7384 147.691 90.0108 120.735 145.856 120.735Z" fill="#EBF5FF"/>
<path fill-rule="evenodd" clip-rule="evenodd" d="M97.6322 140.954C105.329 142.623 126.57 126.686 126.57 126.686L124.855 121.416L103.701 126.339L101.309 113.253L100.366 113.494C100.05 125.255 98.3341 136.696 97.6322 140.954Z" fill="#FFB59E"/>
<path fill-rule="evenodd" clip-rule="evenodd" d="M87.8152 166.885L65.1626 151.481L65.2923 149.513L116.601 146.927" fill="#A8A8AB"/>
<path fill-rule="evenodd" clip-rule="evenodd" d="M87.8483 164.47L65.348 149.494L94.9608 130.118L117.522 145.399" fill="#DBDEE3"/>
<path fill-rule="evenodd" clip-rule="evenodd" d="M88.2027 162.766L72.0128 151.812L98.6874 134.359L114.933 145.586" fill="#A8A8AB"/>
<path fill-rule="evenodd" clip-rule="evenodd" d="M87.8601 136.057L125.502 112.584L127.345 112.551L89.6517 166.951L87.8601 166.925" fill="#A8A8AB"/>
<path fill-rule="evenodd" clip-rule="evenodd" d="M89.6675 136.056L127.312 112.584V143.269L89.6675 166.923" fill="#DBDEE3"/>
<path fill-rule="evenodd" clip-rule="evenodd" d="M48.8788 119.293C48.8788 119.293 42.6944 136.425 45.214 143.732C47.2538 149.647 76.6751 149.129 87.8219 148.719V141.848L58.2725 134.824L61.9388 122.033" fill="#FFB59E"/>
<path fill-rule="evenodd" clip-rule="evenodd" d="M223.003 190.445L223.69 194.1C223.69 194.1 210.176 199.354 207.197 210.774C204.218 222.194 201.241 223.793 203.072 226.991C204.907 230.189 214.528 234.072 214.528 234.072C214.528 234.072 205.821 261.936 213.612 261.936C221.401 261.936 245.962 255.845 251.412 254.857C253.962 254.395 258.001 204.801 248.514 192.424C247.71 191.377 248.121 189.94 248.029 188.952C242.85 187.625 220.341 190.686 223.003 190.445Z" fill="#94C2F5"/>
<path fill-rule="evenodd" clip-rule="evenodd" d="M213.045 270.14C213.045 270.14 207.086 216.693 245.575 208.926C268.775 206.283 258.263 227.906 260.068 240.307C261.608 250.912 264.476 274.804 258.174 282.132C249.927 291.724 221.065 314.68 178.907 275.85C176.388 267.171 180.282 268.255 180.282 268.255C180.282 268.255 208.004 287.613 213.045 270.14Z" fill="#2B4582"/>
<path fill-rule="evenodd" clip-rule="evenodd" d="M221.262 160.958C221.262 160.958 215.994 182.884 230.657 184.484C245.319 186.083 235.01 163.014 221.262 160.958Z" fill="#FFB59E"/>
<path fill-rule="evenodd" clip-rule="evenodd" d="M114.641 202.983L158.627 230.622L220.024 191.106L178.1 164.611" fill="#B0CCF8"/>
<path fill-rule="evenodd" clip-rule="evenodd" d="M115.328 208.464L159.315 236.103L212.05 202.164C214.577 199.39 217.529 197.358 219.829 196.028L178.789 170.091" fill="white"/>
<path fill-rule="evenodd" clip-rule="evenodd" d="M158.051 195.918C169.501 195.918 178.784 201.547 178.784 208.492C178.784 215.437 169.501 221.065 158.051 221.065C146.601 221.065 137.317 215.437 137.317 208.492C137.317 201.547 146.601 195.918 158.051 195.918ZM158.051 200.97C164.9 200.97 170.454 204.338 170.454 208.492C170.454 212.646 164.9 216.013 158.051 216.013C151.201 216.013 145.648 212.646 145.648 208.492C145.648 204.338 151.201 200.97 158.051 200.97Z" fill="#3378CC"/>
<path fill-rule="evenodd" clip-rule="evenodd" d="M158.05 195.918C162.579 195.918 166.767 196.8 170.179 198.293L166.273 202.862C164.084 201.686 161.206 200.97 158.05 200.97C152.924 200.97 148.526 202.856 146.635 205.547L142.294 200.318C146.099 197.625 151.745 195.918 158.05 195.918Z" fill="#FFBF45"/>
<path fill-rule="evenodd" clip-rule="evenodd" d="M174.959 215.77C171.201 218.975 165.028 221.066 158.052 221.066C146.601 221.066 137.316 215.437 137.316 208.493C137.316 205.009 139.652 201.857 143.424 199.579L149.822 202.865C147.261 204.242 145.649 206.253 145.649 208.493C145.649 212.647 151.2 216.014 158.052 216.014C162.48 216.014 166.366 214.604 168.561 212.485" fill="#FD576B"/>
<path d="M189.829 203.098L206.551 192.591L208.002 193.785L191.219 204.335" fill="black"/>
<path d="M184.673 199.729L201.396 189.222L202.847 190.416L186.066 200.966" fill="black"/>
<path d="M178.544 196.074L195.269 185.567L196.719 186.761L179.937 197.311" fill="black"/>
<path d="M173.505 192.42L190.228 181.912L191.679 183.108L174.898 193.657" fill="black"/>
<path d="M167.319 188.422L184.042 177.915L185.494 179.109L168.712 189.659" fill="black"/>
<path fill-rule="evenodd" clip-rule="evenodd" d="M228.251 172.609C228.251 172.609 213.359 161.188 222.753 152.051C228.57 146.393 240.021 146.984 247.41 153.282C266.156 169.265 257.845 202.359 225.731 192.48C225.731 192.48 230.656 183.8 228.251 172.609Z" fill="#5470BD"/>
<path fill-rule="evenodd" clip-rule="evenodd" d="M83.6398 102.334C86.6247 119.714 86.9398 118.287 88.1699 118.19C89.3999 118.094 99.6498 117.125 103.598 116.582C103.922 112.755 105.069 80.7946 91.4699 80.9177C83.0061 80.9955 82.7869 97.3667 83.6398 102.334Z" fill="#3366DE"/>
<path fill-rule="evenodd" clip-rule="evenodd" d="M70.6467 67.7885C70.6467 67.7885 77.8056 86.4616 89.7768 82.4074C95.0451 80.6929 93.3835 60.7656 93.3835 60.7656C93.3835 60.7656 77.2918 52.8274 70.6467 67.7885Z" fill="#FFB59E"/>
<path fill-rule="evenodd" clip-rule="evenodd" d="M72.6522 71.3295L73.0528 84.3493C73.0528 84.3493 77.9219 92.6287 86.8557 89.6032C87.2562 83.9499 86.9717 76.1841 86.9717 76.1841" fill="#FFB59E"/>
<path fill-rule="evenodd" clip-rule="evenodd" d="M73.9158 75.9554C73.9158 75.9554 66.9279 66.9329 71.0515 58.0247C75.1751 49.1164 91.5548 51.7436 97.9715 60.3089C101.751 66.7043 89.7241 66.2471 85.4859 64.3058C83.4478 63.3732 80.416 64.8755 80.0375 68.3244C79.5589 72.6824 74.3653 72.2669 73.9158 75.9554Z" fill="#5470BD"/>
<path fill-rule="evenodd" clip-rule="evenodd" d="M74.019 66.9825C75.3023 66.7829 76.6249 68.4393 76.9774 70.6826C77.3299 72.9258 76.5771 74.9065 75.2938 75.1061C74.0139 75.3073 72.6896 73.6509 72.337 71.4059C71.9846 69.1626 72.7392 67.1821 74.019 66.9825Z" fill="#FFB59E"/>
<path fill-rule="evenodd" clip-rule="evenodd" d="M214.639 196.524C214.639 196.524 208.413 195.678 207.689 191.426C206.944 187.06 210.798 191.26 212.06 189.244C213.302 187.267 218.09 190.256 221.511 195.111C220.427 195.665 219.024 196.453 217.517 197.481C216.346 196.955 215.28 196.53 214.639 196.524Z" fill="#FFB59E"/>
<path fill-rule="evenodd" clip-rule="evenodd" d="M50.9413 104.446C45.9004 121.349 46.8165 120.206 47.9628 120.664C49.1075 121.119 58.7304 124.774 62.5115 126.03C64.502 122.742 79.7205 94.5877 67.4693 88.698C59.8463 85.0319 52.3817 99.615 50.9413 104.446Z" fill="#3366DE"/>
<path fill-rule="evenodd" clip-rule="evenodd" d="M203.355 227.412C202.548 228.974 200.988 231.617 199.291 232.443C196.829 233.643 178.243 222.964 175.007 217.71C171.771 212.456 168.82 212.285 170.54 216.226C170.654 220.223 160.975 212.285 160.805 219.195C160.631 226.104 173.173 223.991 173.173 223.991C173.173 223.991 200.094 252.428 205.59 246.947C208.831 243.716 211.752 237.908 213.606 233.683C211.287 232.678 205.255 229.901 203.355 227.412Z" fill="#FFB59E"/>
<path fill-rule="evenodd" clip-rule="evenodd" d="M120.247 158.876L148.542 141.174L169.046 154.308L141.326 172.695" fill="#FFB01C"/>
<path fill-rule="evenodd" clip-rule="evenodd" d="M136.744 155.676L165.037 137.975L185.542 151.109L157.823 169.495" fill="#B094FF"/>
<path fill-rule="evenodd" clip-rule="evenodd" d="M133.766 143.799L162.059 126.098L182.564 139.231L154.844 157.618" fill="#0000FF"/>
<path fill-rule="evenodd" clip-rule="evenodd" d="M80.7877 177.638C69.2814 177.638 59.9534 183.81 59.9534 191.419C59.9534 199.03 69.2814 205.201 80.7877 205.201C92.2939 205.201 101.622 199.03 101.622 191.419C101.622 183.81 92.2939 177.638 80.7877 177.638Z" fill="#B0CCF8"/>
<path fill-rule="evenodd" clip-rule="evenodd" d="M80.7877 175.561C69.2814 175.561 59.9534 181.73 59.9534 189.342C59.9534 196.952 69.2814 203.123 80.7877 203.123C92.2939 203.123 101.622 196.952 101.622 189.342C101.622 181.73 92.2939 175.561 80.7877 175.561Z" fill="#2B4582"/>
<path fill-rule="evenodd" clip-rule="evenodd" d="M101.362 191.52C101.531 190.81 101.622 190.082 101.622 189.342C101.622 181.97 92.8708 175.95 81.8648 175.579L80.3081 189.341" fill="#FD576B"/>
</svg>
