<svg width="387" height="320" viewBox="0 0 387 320" fill="none" xmlns="http://www.w3.org/2000/svg">
<path d="M97.9627 116.611L70.7435 143.525L43.5243 116.611L41.4456 118.666L70.7435 147.635L100.04 118.666L97.9627 116.611" fill="#C74F12"/>
<path d="M96.1299 115.07C97.6404 113.576 100.089 113.576 101.599 115.07C103.11 116.562 103.11 118.984 101.599 120.477C100.089 121.97 97.6404 121.97 96.1299 120.477C94.6203 118.984 94.6203 116.562 96.1299 115.07Z" fill="#C74F12"/>
<path d="M45.3562 115.07C43.8466 113.576 41.3976 113.576 39.887 115.07C38.3775 116.562 38.3775 118.984 39.887 120.477C41.3976 121.97 43.8466 121.97 45.3562 120.477C46.8667 118.984 46.8667 116.562 45.3562 115.07Z" fill="#C74F12"/>
<path d="M73.0142 120.001V102.893C73.0142 101.652 71.9974 100.647 70.7435 100.647C69.4887 100.647 68.4718 101.652 68.4718 102.893V120.001C68.4718 121.241 69.4887 122.246 70.7435 122.246C71.9974 122.246 73.0142 121.241 73.0142 120.001Z" fill="#364A63"/>
<path d="M59.9473 105.429H81.5387V100.357H59.9473V105.429Z" fill="#C74F12"/>
<path d="M70.7435 176.519C53.769 176.519 39.9605 162.864 39.9605 146.08C39.9605 129.297 53.769 115.642 70.7435 115.642C87.7171 115.642 101.527 129.297 101.527 146.08C101.527 162.864 87.7171 176.519 70.7435 176.519Z" fill="white"/>
<path d="M70.7435 112.252C51.8783 112.252 36.5319 127.427 36.5319 146.08C36.5319 164.733 51.8783 179.909 70.7435 179.909C89.6077 179.909 104.955 164.733 104.955 146.08C104.955 127.427 89.6077 112.252 70.7435 112.252V112.252ZM70.7435 119.032C85.8509 119.032 98.0979 131.142 98.0979 146.08C98.0979 161.019 85.8509 173.129 70.7435 173.129C55.6361 173.129 43.3891 161.019 43.3891 146.08C43.3891 131.142 55.6361 119.032 70.7435 119.032Z" fill="#64A1B3"/>
<path d="M69.5425 123.815V128.466C69.5425 129.121 70.0803 129.653 70.7435 129.653C71.4067 129.653 71.9445 129.121 71.9445 128.466V123.815C71.9445 123.158 71.4067 122.628 70.7435 122.628C70.0803 122.628 69.5425 123.158 69.5425 123.815Z" fill="#EEBE2D"/>
<path d="M48.2254 147.268H52.9294C53.5926 147.268 54.1304 146.736 54.1304 146.081C54.1304 145.425 53.5926 144.893 52.9294 144.893H48.2254C47.5622 144.893 47.0244 145.425 47.0244 146.081C47.0244 146.736 47.5622 147.268 48.2254 147.268Z" fill="#EEBE2D"/>
<path d="M71.9445 168.346V163.694C71.9445 163.038 71.4067 162.508 70.7435 162.508C70.0803 162.508 69.5425 163.038 69.5425 163.694V168.346C69.5425 169.001 70.0803 169.533 70.7435 169.533C71.4067 169.533 71.9445 169.001 71.9445 168.346Z" fill="#EEBE2D"/>
<path d="M93.2606 144.893H88.5566C87.8934 144.893 87.3556 145.425 87.3556 146.081C87.3556 146.736 87.8934 147.268 88.5566 147.268H93.2606C93.9238 147.268 94.4616 146.736 94.4616 146.081C94.4616 145.425 93.9238 144.893 93.2606 144.893Z" fill="#EEBE2D"/>
<path d="M70.9776 145.76L55.7429 134.837C55.5636 134.709 55.3128 134.748 55.1835 134.926C55.0532 135.102 55.0934 135.35 55.2727 135.478L70.5084 146.401C70.6867 146.529 70.9375 146.489 71.0668 146.313C71.1971 146.136 71.1569 145.888 70.9776 145.76" fill="#DE8A69"/>
<path d="M70.048 146.402L79.2337 165.083C79.4267 165.476 79.9057 165.64 80.3034 165.448C80.7011 165.257 80.8667 164.784 80.6737 164.39L71.488 145.709C71.295 145.316 70.815 145.152 70.4173 145.344C70.0206 145.535 69.854 146.009 70.048 146.402Z" fill="#7B9991"/>
<path d="M69.2516 146.785C68.845 145.957 69.1938 144.959 70.0303 144.557C70.8679 144.154 71.8769 144.5 72.2834 145.327C72.6909 146.155 72.3422 147.153 71.5046 147.555C70.6681 147.958 69.6591 147.613 69.2516 146.785Z" fill="white"/>
<path d="M72.0826 145.424C72.4343 146.14 72.1316 147.006 71.4067 147.355C70.6818 147.704 69.806 147.404 69.4534 146.688C69.1007 145.971 69.4034 145.105 70.1283 144.756C70.8532 144.408 71.73 144.707 72.0826 145.424C72.1708 145.603 72.258 145.782 72.0826 145.424C71.9063 145.065 71.9944 145.244 72.0826 145.424ZM69.0508 146.881C69.5112 147.818 70.6563 148.209 71.6026 147.754C72.5499 147.299 72.9456 146.167 72.4852 145.23C72.0248 144.293 70.8797 143.902 69.9324 144.357C68.9861 144.812 68.5894 145.945 69.0508 146.881C69.28 147.349 69.1654 147.116 69.0498 146.881C68.9352 146.647 68.8196 146.414 69.0508 146.881Z" fill="#7B9991"/>
<path d="M70.191 145.507L60.9749 154.987C60.6683 155.303 60.6781 155.804 60.9974 156.107C61.3158 156.41 61.8223 156.4 62.1289 156.084L71.345 146.604C71.6516 146.29 71.6418 145.788 71.3224 145.485C71.0041 145.182 70.4966 145.192 70.191 145.507Z" fill="#7B9991"/>
<path d="M69.5523 144.901C70.1979 144.237 71.2647 144.217 71.9357 144.854C72.6067 145.491 72.6283 146.547 71.9827 147.211C71.3381 147.874 70.2704 147.896 69.5993 147.257C68.9283 146.62 68.9077 145.564 69.5523 144.901Z" fill="white"/>
<path d="M71.8211 147.058C71.2627 147.632 70.336 147.65 69.7551 147.097C69.1742 146.545 69.1556 145.629 69.7139 145.055C70.2723 144.479 71.2 144.462 71.7809 145.014C72.3618 145.566 72.3804 146.482 71.8211 147.058C71.5419 147.345 71.682 147.201 71.8211 147.057C71.9611 146.913 72.1012 146.77 71.8211 147.058V147.058ZM69.3907 144.748C68.6609 145.497 68.6854 146.696 69.4446 147.417C70.2037 148.139 71.4145 148.116 72.1443 147.365C72.8741 146.614 72.8506 145.416 72.0914 144.694C71.3322 143.973 70.1205 143.997 69.3907 144.748C69.0263 145.122 69.2085 144.935 69.3907 144.747C69.5739 144.56 69.7561 144.372 69.3907 144.748Z" fill="#7B9991"/>
<path d="M69.0067 145.325L55.2727 135.478C55.1649 135.401 55.1071 135.28 55.1071 135.158C55.1071 135.078 55.1316 134.995 55.1835 134.926C55.2619 134.818 55.3843 134.762 55.5078 134.762C55.5891 134.762 55.6714 134.786 55.7429 134.838L69.4622 144.673C69.4436 144.693 69.423 144.715 69.4024 144.736C69.3956 144.742 69.3897 144.749 69.3838 144.755C69.281 144.861 69.1801 144.964 69.1801 144.964C69.1801 144.964 69.233 144.909 69.377 144.761C69.3623 144.777 69.3476 144.793 69.3339 144.809C69.3329 144.81 69.3319 144.811 69.3309 144.812C69.3309 144.812 69.3309 144.813 69.3299 144.813C69.1918 144.968 69.0841 145.142 69.0067 145.325Z" fill="#C55A38"/>
<path d="M69.3299 144.812C69.3309 144.812 69.3309 144.812 69.3309 144.812C69.3309 144.812 69.3309 144.812 69.3299 144.812ZM69.3337 144.809C69.3469 144.794 69.361 144.778 69.3752 144.763C69.3799 144.759 69.3837 144.754 69.3884 144.749C69.3695 144.768 69.3516 144.788 69.3337 144.809V144.809ZM69.3818 144.757C69.3874 144.75 69.3931 144.744 69.3997 144.738C69.3959 144.742 69.3921 144.745 69.3884 144.748C69.3865 144.751 69.3837 144.754 69.3818 144.757" fill="#6D644D"/>
<path d="M69.4073 144.73C69.427 144.711 69.4448 144.692 69.4607 144.675L69.4626 144.677C69.4438 144.695 69.4251 144.712 69.4073 144.73Z" fill="#C55A38"/>
<path d="M69.3907 144.748C69.3963 144.742 69.4019 144.736 69.4066 144.731C69.4245 144.713 69.4432 144.695 69.462 144.677C69.4376 144.7 69.4141 144.723 69.3907 144.748Z" fill="#6D644D"/>
<path d="M70.7425 146.476C70.6612 146.476 70.5789 146.451 70.5084 146.401L69.3829 145.594C69.4495 145.398 69.5602 145.214 69.714 145.055C69.7531 145.014 69.7943 144.976 69.8374 144.941L70.9776 145.76C71.1569 145.888 71.1971 146.136 71.0668 146.313C70.9894 146.42 70.8669 146.476 70.7425 146.476" fill="#E3A788"/>
<path d="M69.3828 145.594L69.0067 145.325C69.0841 145.141 69.1918 144.968 69.3299 144.812C69.3309 144.812 69.3309 144.811 69.3309 144.811C69.3319 144.81 69.3329 144.809 69.3338 144.808C69.3524 144.786 69.3711 144.766 69.3906 144.747C69.4151 144.721 69.4396 144.697 69.4651 144.674L69.8373 144.941C69.7942 144.975 69.7531 145.013 69.7139 145.054C69.5601 145.213 69.4494 145.397 69.3828 145.594V145.594ZM69.18 144.963C69.18 144.963 69.2809 144.86 69.3838 144.754C69.3858 144.752 69.3887 144.749 69.3906 144.746C69.3946 144.742 69.3985 144.739 69.4024 144.735C69.423 144.714 69.4435 144.692 69.4622 144.672H69.4631C69.4465 144.689 69.4279 144.709 69.4073 144.729C69.4024 144.735 69.3965 144.741 69.3906 144.747C69.3857 144.752 69.3818 144.756 69.3769 144.76C69.2329 144.909 69.18 144.963 69.18 144.963" fill="#6D644D"/>
<path d="M70.048 146.402L79.2337 165.083C79.4267 165.476 79.9057 165.64 80.3034 165.448C80.7011 165.257 80.8667 164.784 80.6737 164.39L71.488 145.709C71.294 145.316 70.815 145.152 70.4173 145.344C70.0206 145.535 69.854 146.009 70.048 146.402Z" fill="#364A63"/>
<path d="M69.2516 146.785C68.845 145.956 69.1938 144.96 70.0303 144.557C70.8679 144.155 71.8769 144.5 72.2834 145.327C72.6909 146.155 72.3422 147.153 71.5046 147.555C70.6681 147.958 69.6591 147.613 69.2516 146.785Z" fill="white"/>
<path d="M72.0826 145.424C72.4343 146.14 72.1316 147.007 71.4067 147.355C70.6818 147.704 69.806 147.404 69.4534 146.688C69.1007 145.971 69.4034 145.105 70.1283 144.756C70.8532 144.408 71.73 144.707 72.0826 145.424C71.73 144.707 72.4343 146.14 72.0826 145.424ZM69.0508 146.881C69.5112 147.818 70.6563 148.209 71.6026 147.754C72.5499 147.299 72.9456 146.167 72.4852 145.23C72.0248 144.293 70.8797 143.902 69.9324 144.357C68.9861 144.812 68.5894 145.945 69.0508 146.881C68.5894 145.945 69.5112 147.818 69.0508 146.881Z" fill="#364A63"/>
<path d="M70.191 145.507L60.9749 154.987C60.6683 155.303 60.6781 155.804 60.9974 156.107C61.3158 156.41 61.8223 156.4 62.1289 156.084L71.345 146.604C71.6516 146.29 71.6418 145.788 71.3224 145.485C71.0041 145.182 70.4966 145.192 70.191 145.507Z" fill="#364A63"/>
<path d="M69.5523 144.901C70.1979 144.237 71.2647 144.217 71.9357 144.854C72.6067 145.492 72.6283 146.547 71.9827 147.211C71.3381 147.874 70.2704 147.896 69.5993 147.257C68.9283 146.62 68.9077 145.564 69.5523 144.901Z" fill="white"/>
<path d="M71.8211 147.058C71.2627 147.632 70.336 147.65 69.7551 147.097C69.1742 146.545 69.1556 145.629 69.7139 145.055C70.2733 144.479 71.2 144.462 71.7809 145.014C72.3618 145.566 72.3804 146.482 71.8211 147.058C71.2627 147.632 72.3804 146.482 71.8211 147.058V147.058ZM69.3907 144.747C68.6609 145.497 68.6854 146.696 69.4446 147.417C70.2037 148.139 71.4145 148.116 72.1443 147.365C72.8741 146.614 72.8506 145.416 72.0914 144.694C71.3322 143.973 70.1205 143.997 69.3907 144.747C70.1205 143.997 68.6609 145.497 69.3907 144.747Z" fill="#364A63"/>
<path d="M66.8241 263.021V268.469C66.8241 272.188 70.6887 275.232 75.4103 275.232H289.496C294.217 275.232 298.081 272.189 298.081 268.471V263.021H66.8241Z" fill="#253A57"/>
<path d="M274.563 158.292V150.3C274.563 147.98 272.643 146.08 270.294 146.08H94.6076C92.2624 146.08 90.3414 147.98 90.3414 150.3V158.292H274.563Z" fill="#364A63"/>
<path d="M90.3414 258.801C90.3414 261.122 92.2624 263.021 94.6076 263.021H270.294C272.643 263.021 274.563 261.122 274.563 258.801V158.292H90.3414V258.801Z" fill="#364A63"/>
<path d="M96.3875 257.394H268.516V158.292H96.3875V257.394Z" fill="#B0DCE4"/>
<path d="M180.549 152.661C180.549 151.622 181.401 150.779 182.452 150.779C183.505 150.779 184.357 151.622 184.357 152.661C184.357 153.702 183.505 154.544 182.452 154.544C181.401 154.544 180.549 153.702 180.549 152.661Z" fill="#C74F12"/>
<path d="M147.953 263.021V264.646C147.953 265.757 149.106 266.664 150.514 266.664H214.391C215.8 266.664 216.952 265.757 216.952 264.646V263.021H147.953Z" fill="#B0DCE4"/>
<path d="M255.982 88.807H283.962V244.128H255.982V88.807Z" fill="#EEBE2D"/>
<path d="M255.982 88.807V244.128H266.819V88.807H255.982Z" fill="#E69824"/>
<path d="M214.229 153.874H242.208V244.128H214.229V153.874Z" fill="#EEBE2D"/>
<path d="M214.229 153.874V244.128H225.065V153.874H214.229Z" fill="#E69824"/>
<path d="M172.475 183.744H200.455V244.128H172.475V183.744Z" fill="#EEBE2D"/>
<path d="M172.475 183.744V244.128H183.312V183.744H172.475Z" fill="#E69824"/>
<path d="M130.722 207.843H158.7V244.128H130.722V207.843Z" fill="#EEBE2D"/>
<path d="M130.722 207.843V244.128H141.557V207.843H130.722" fill="#E69824"/>
<path d="M112.61 171.958V245.096H288.607V243.159H114.569V171.958H112.61Z" fill="#253A57"/>
<path d="M110.242 235.969H116.936V234.999H110.242V235.969Z" fill="#253A57"/>
<path d="M110.242 225.382H116.936V224.412H110.242V225.382Z" fill="#253A57"/>
<path d="M110.242 214.793H116.936V213.824H110.242V214.793Z" fill="#253A57"/>
<path d="M110.242 204.207H116.936V203.237H110.242V204.207Z" fill="#253A57"/>
<path d="M110.242 193.618H116.936V192.648H110.242V193.618Z" fill="#253A57"/>
<path d="M110.242 183.031H116.936V182.062H110.242V183.031Z" fill="#253A57"/>
<path d="M146.651 195.912L178.727 224.094L197.554 188.422L222.37 215.685L308.519 102.317L305.386 99.9898L222.098 209.594L196.692 181.684L177.577 217.9L149.254 193.016L146.651 195.912" fill="#C74F12"/>
<path d="M306.007 130.262C305.037 130.189 304.311 129.347 304.386 128.385L306.469 101.79L281.215 111.169C280.302 111.509 279.282 111.053 278.941 110.153C278.6 109.252 279.07 108.243 279.974 107.904L307.821 97.5633C308.383 97.355 309.018 97.4432 309.5 97.8016C309.982 98.159 310.244 98.7382 310.199 99.3301L307.903 128.656C307.874 129 307.749 129.311 307.554 129.568C307.205 130.028 306.631 130.308 306.007 130.262" fill="#C74F12"/>
<path d="M182.452 220.998C182.452 223.346 180.527 225.249 178.152 225.249C175.777 225.249 173.851 223.346 173.851 220.998C173.851 218.649 175.777 216.745 178.152 216.745C180.527 216.745 182.452 218.649 182.452 220.998Z" fill="white"/>
<path d="M182.452 220.998H180.493C180.492 221.643 180.234 222.209 179.807 222.634C179.377 223.056 178.804 223.311 178.152 223.312C177.5 223.311 176.926 223.056 176.496 222.634C176.07 222.209 175.812 221.643 175.811 220.998C175.812 220.351 176.07 219.785 176.496 219.361C176.926 218.938 177.5 218.683 178.152 218.683C178.804 218.683 179.377 218.938 179.807 219.361C180.234 219.785 180.492 220.351 180.493 220.998H182.452H184.412C184.41 217.578 181.61 214.809 178.152 214.808C174.694 214.809 171.894 217.578 171.892 220.998C171.894 224.416 174.694 227.185 178.152 227.186C181.61 227.185 184.41 224.416 184.412 220.998H182.452Z" fill="#C74F12"/>
<path d="M201.423 185.052C201.423 187.401 199.497 189.305 197.123 189.305C194.748 189.305 192.822 187.401 192.822 185.052C192.822 182.704 194.748 180.801 197.123 180.801C199.497 180.801 201.423 182.704 201.423 185.052Z" fill="white"/>
<path d="M201.423 185.053H199.464C199.463 185.699 199.204 186.264 198.778 186.69C198.348 187.112 197.775 187.367 197.123 187.368C196.47 187.367 195.897 187.112 195.467 186.69C195.041 186.264 194.783 185.699 194.782 185.053C194.783 184.408 195.041 183.841 195.467 183.417C195.897 182.994 196.47 182.74 197.123 182.739C197.775 182.74 198.348 182.994 198.778 183.417C199.204 183.841 199.463 184.408 199.464 185.053H201.423H203.382C203.381 181.634 200.581 178.865 197.123 178.864C193.665 178.865 190.865 181.634 190.863 185.053C190.865 188.472 193.665 191.241 197.123 191.242C200.581 191.241 203.381 188.472 203.382 185.053H201.423Z" fill="#C74F12"/>
<path d="M226.779 212.493C226.779 214.841 224.853 216.745 222.479 216.745C220.104 216.745 218.178 214.841 218.178 212.493C218.178 210.145 220.104 208.241 222.479 208.241C224.853 208.241 226.779 210.145 226.779 212.493Z" fill="white"/>
<path d="M226.779 212.493H224.82C224.819 213.138 224.561 213.705 224.134 214.13C223.704 214.552 223.131 214.807 222.479 214.808C221.827 214.807 221.253 214.552 220.823 214.13C220.397 213.705 220.139 213.138 220.138 212.493C220.139 211.848 220.397 211.281 220.823 210.856C221.253 210.435 221.827 210.179 222.479 210.178C223.131 210.179 223.704 210.435 224.134 210.856C224.561 211.281 224.819 211.848 224.82 212.493H226.779H228.739C228.737 209.074 225.937 206.306 222.479 206.304C219.021 206.306 216.221 209.074 216.219 212.493C216.221 215.912 219.021 218.681 222.479 218.683C225.937 218.681 228.737 215.912 228.739 212.493H226.779Z" fill="#C74F12"/>
<path d="M163.69 72.4321C163.69 57.0947 151.116 44.6612 135.606 44.6612C120.095 44.6612 107.521 57.0947 107.521 72.4321C107.521 83.2973 113.833 92.7037 123.028 97.265V103.61C123.028 105.115 124.219 106.334 125.688 106.334H146.428C147.897 106.334 149.088 105.115 149.088 103.61V96.7972C157.79 92.0789 163.69 82.9379 163.69 72.4321" fill="#E69824"/>
<path d="M120.647 69.5174L124.23 75.1878C124.363 75.3999 124.6 75.5287 124.853 75.5287C125.106 75.5287 125.342 75.3999 125.476 75.1878L128.435 70.5035L131.395 75.1878C131.528 75.3999 131.765 75.5287 132.018 75.5287C132.27 75.5287 132.506 75.3999 132.641 75.1878L135.599 70.5044L138.557 75.1878C138.692 75.3999 138.928 75.5287 139.18 75.5287C139.433 75.5287 139.669 75.3999 139.803 75.1878L142.764 70.5025L145.729 75.1878C145.863 75.3999 146.099 75.5287 146.352 75.5287C146.605 75.5287 146.841 75.3999 146.975 75.1878L150.563 69.5184L149.318 68.7473L146.352 73.4336L143.386 68.7473C143.252 68.5352 143.017 68.4064 142.763 68.4064C142.51 68.4064 142.274 68.5352 142.141 68.7473L139.18 73.4316L136.222 68.7473C136.088 68.5362 135.852 68.4064 135.599 68.4064C135.346 68.4064 135.109 68.5362 134.976 68.7483L132.018 73.4316L129.058 68.7473C128.924 68.5352 128.688 68.4064 128.435 68.4064C128.182 68.4064 127.945 68.5352 127.812 68.7473L124.853 73.4316L121.893 68.7473L120.647 69.5174" fill="#64A1B3"/>
<path d="M149.218 69.655L143.066 102.69L144.51 102.954L150.663 69.9185" fill="#64A1B3"/>
<path d="M123.134 52.638C122.717 52.638 113.447 57.8338 111.554 66.413C109.659 74.9941 116.274 83.709 116.274 83.709C116.274 83.709 109.796 67.7352 123.134 52.638Z" fill="#F6F6EF"/>
<path d="M149.099 126.846H122.996V102.994H149.099V126.846Z" fill="#B0DCE4"/>
<path d="M122.16 126.582C123.168 131.69 129.058 135.612 136.177 135.612C143.296 135.612 149.186 131.69 150.194 126.582H122.16" fill="#364A63"/>
<path d="M152.479 123.263C152.479 124.845 151.143 126.126 149.495 126.126L122.818 123.264C121.169 123.264 119.833 121.983 119.833 120.401C119.833 118.82 121.169 117.538 122.818 117.538L149.495 120.4C151.143 120.4 152.479 121.682 152.479 123.263Z" fill="#364A63"/>
<path d="M152.36 115.506C152.36 117.087 151.023 118.369 149.375 118.369L122.699 115.506C121.05 115.506 119.714 114.225 119.714 112.645C119.714 111.063 121.05 109.782 122.699 109.782L149.375 112.644C151.023 112.644 152.36 113.926 152.36 115.506" fill="#364A63"/>
<path d="M152.399 107.751C152.399 109.332 151.063 110.613 149.414 110.613L122.738 107.751C121.089 107.751 119.753 106.47 119.753 104.888C119.753 103.307 121.089 102.025 122.738 102.025L149.414 104.887C151.063 104.887 152.399 106.17 152.399 107.751Z" fill="#364A63"/>
<path d="M120.547 69.9185L126.7 102.954L128.145 102.69L121.992 69.655" fill="#64A1B3"/>
<path d="M34.9631 240.347C34.8203 240.289 34.6779 240.229 34.5375 240.167C34.1066 239.974 33.6864 239.763 33.2789 239.532C33.075 239.416 32.8741 239.296 32.6763 239.171C32.4788 239.046 32.2844 238.917 32.0931 238.783C31.9978 238.716 31.9029 238.648 31.8091 238.579C31.2669 238.179 30.753 237.743 30.272 237.274C29.7911 236.805 29.3426 236.303 28.9305 235.771C28.7655 235.559 28.6067 235.342 28.4536 235.121C27.9949 234.455 27.5904 233.75 27.2471 233.011C26.4462 231.286 25.9779 229.376 25.9258 227.358C25.8156 223.12 27.5625 219.262 30.4335 216.545C30.6868 216.306 30.9493 216.075 31.2195 215.853C31.3098 215.78 31.4004 215.707 31.4927 215.635C31.6764 215.492 31.8639 215.353 32.0548 215.218C32.6277 214.814 33.2315 214.45 33.8617 214.129C34.0722 214.023 34.2854 213.92 34.5016 213.823C36.2302 213.048 38.1404 212.595 40.1574 212.545C42.5525 212.483 44.8272 212.996 46.8481 213.956C47.0606 214.057 47.2713 214.162 47.478 214.274C47.7885 214.439 48.0922 214.616 48.388 214.803C48.5859 214.928 48.7808 215.058 48.9719 215.192C49.0669 215.259 49.1619 215.326 49.255 215.396C49.443 215.534 49.6272 215.677 49.8084 215.823C50.0788 216.044 50.3413 216.274 50.596 216.512C50.7655 216.672 50.9311 216.835 51.0927 217.001C51.4963 217.42 51.8754 217.86 52.2271 218.324C52.3681 218.509 52.5043 218.698 52.6356 218.89C52.7678 219.083 52.8951 219.278 53.0176 219.477C53.2008 219.774 53.3742 220.08 53.5358 220.391C54.5086 222.262 55.0806 224.373 55.1394 226.617C55.1717 227.863 55.0434 229.076 54.773 230.238C54.7192 230.47 54.6594 230.701 54.5938 230.928C54.4958 231.27 54.3851 231.607 54.2637 231.939C54.1814 232.159 54.0952 232.377 54.0031 232.593C53.9414 232.737 53.8777 232.879 53.8111 233.021C53.6798 233.303 53.5397 233.582 53.3908 233.855C53.2782 234.06 53.1616 234.261 53.0401 234.46C52.9432 234.618 52.8423 234.773 52.7404 234.927C52.6493 235.063 52.5572 235.199 52.4612 235.332C52.3936 235.427 52.325 235.52 52.2555 235.613C52.1154 235.799 51.9714 235.981 51.8225 236.159C51.748 236.248 51.6726 236.337 51.5962 236.424C51.4434 236.6 51.2866 236.77 51.126 236.938L50.8811 237.187C50.5519 237.514 50.2052 237.826 49.8456 238.121C49.7555 238.195 49.6644 238.268 49.5723 238.339C49.3882 238.483 49.2011 238.622 49.0101 238.757C48.819 238.891 48.6251 239.021 48.4272 239.147C48.3282 239.21 48.2283 239.272 48.1284 239.332C47.9276 239.453 47.7229 239.57 47.5162 239.682C45.5472 240.742 43.3019 241.37 40.9068 241.43C38.9799 241.48 37.1304 241.156 35.4287 240.528C35.2722 240.47 35.1169 240.41 34.9631 240.347V240.347ZM76.9424 218.982L71.1099 219.129C70.2243 215.515 68.8529 212.767 67.0621 210.074L67.0788 209.967L71.0961 205.74C71.9895 204.81 71.9513 203.318 71.0099 202.435L63.6541 195.514C62.7127 194.631 61.2267 194.662 60.3333 195.592L56.3845 199.77C53.479 198.121 50.9399 196.953 47.2448 196.314L47.2438 196.287L47.094 190.52C47.0606 189.237 45.8479 188.347 44.5509 188.38L34.4074 188.638C33.1105 188.67 32.6522 189.603 32.6855 190.886L32.8351 196.652C29.1795 197.528 26.2947 198.887 23.571 200.657L23.4091 200.642L19.108 196.67C18.1678 195.787 16.646 195.826 15.7529 196.756L8.74609 204.031C7.85289 204.96 7.88198 206.43 8.82221 207.314L13.0517 211.436C11.3837 214.309 10.2071 217.038 9.55994 220.692H9.5332L3.70036 220.84C2.40385 220.873 1.70364 221.631 1.73695 222.914L1.99712 232.944C2.03043 234.226 2.77356 235.121 4.06996 235.088L9.90241 234.939C10.7883 238.554 12.1567 241.189 13.9467 243.883L13.9292 243.933L9.91083 248.132C9.01773 249.062 9.05603 250.539 9.99615 251.423L17.3532 258.338C18.2937 259.221 19.7799 259.185 20.6731 258.255L24.9485 254.067C27.8544 255.717 30.7193 256.873 34.4143 257.513L34.4151 257.541L34.5647 263.308C34.598 264.589 35.1643 265.723 36.4614 265.69L46.6051 265.432C47.9011 265.399 49.0071 264.224 48.9738 262.942L48.8239 257.174C52.4798 256.299 55.0385 254.949 57.7618 253.179L57.7598 253.197L61.98 257.171C62.9204 258.054 64.4016 258.017 65.2949 257.086L72.2805 249.813C73.1739 248.883 73.1347 247.413 72.1943 246.53L67.9624 242.52C69.6307 239.647 70.7866 236.304 71.4527 233.378L71.4792 233.377L77.3117 233.23C78.6087 233.197 79.9557 232.195 79.9223 230.914L79.6618 220.883C79.6285 219.601 78.2384 218.949 76.9424 218.982Z" fill="#C74F12"/>
<path d="M62.8176 251.272L63.3064 244.816L66.9809 248.299L63.5043 251.919L62.8176 251.272ZM40.032 207.702C37.4008 207.769 34.859 208.344 32.4773 209.414C32.1938 209.54 31.9049 209.678 31.6202 209.824C30.7952 210.241 29.9816 210.731 29.2106 211.276C28.958 211.453 28.7055 211.641 28.4571 211.834L28.1017 212.118C27.7362 212.419 27.3879 212.725 27.0512 213.042C23.0823 216.799 20.8886 222.06 21.0293 227.482C21.0975 230.114 21.6917 232.653 22.796 235.031C23.2515 236.013 23.7941 236.961 24.4086 237.851C24.6156 238.151 24.8284 238.443 25.0499 238.727C25.591 239.424 26.1945 240.101 26.8369 240.725C27.4694 241.343 28.1587 241.928 28.8803 242.461C29.0066 242.554 29.1313 242.644 29.2572 242.732C29.5228 242.917 29.7788 243.088 30.0382 243.252C30.3038 243.419 30.574 243.581 30.8491 243.737C31.3928 244.045 31.9585 244.33 32.5252 244.583C32.7145 244.666 32.9001 244.746 33.0872 244.822C33.3073 244.911 33.5108 244.99 33.7164 245.066C35.8962 245.871 38.1894 246.279 40.5297 246.279C40.6962 246.279 40.8637 246.277 41.0312 246.272C44.116 246.194 47.1675 245.385 49.8594 243.935C50.1366 243.785 50.409 243.63 50.6774 243.468L51.0604 243.231C51.3406 243.053 51.5982 242.88 51.85 242.702C52.1135 242.516 52.3593 242.333 52.5994 242.147C52.7336 242.042 52.854 241.946 52.9726 241.848C53.4467 241.46 53.912 241.04 54.3528 240.603C54.4508 240.507 54.5644 240.39 54.6781 240.272C54.8926 240.049 55.1022 239.82 55.306 239.586C55.3942 239.487 55.4931 239.37 55.592 239.252C55.8066 238.993 55.9976 238.751 56.1827 238.506C56.2748 238.383 56.3659 238.26 56.456 238.135C56.5854 237.955 56.7117 237.769 56.8371 237.581C56.9615 237.396 57.0987 237.182 57.2309 236.966C57.3896 236.709 57.5463 236.436 57.6972 236.161C57.897 235.797 58.0851 235.424 58.2614 235.044C58.3476 234.859 58.4319 234.673 58.5122 234.485C58.6386 234.188 58.7532 233.898 58.8619 233.607C59.0285 233.154 59.1754 232.705 59.3067 232.248C59.3948 231.94 59.4742 231.631 59.5467 231.322C59.9131 229.748 60.0776 228.123 60.0355 226.494C59.9591 223.565 59.2381 220.768 57.8921 218.178C57.6786 217.764 57.4464 217.356 57.1996 216.956C57.035 216.689 56.8645 216.426 56.6862 216.168C56.5158 215.918 56.3336 215.665 56.1455 215.417C55.6782 214.802 55.1708 214.212 54.635 213.656C54.4096 213.425 54.1892 213.206 53.9629 212.994C53.6289 212.682 53.2792 212.376 52.9177 212.082C52.6767 211.886 52.4289 211.693 52.1762 211.508C52.0576 211.421 51.9322 211.331 51.8068 211.243C51.5453 211.06 51.2877 210.888 51.0261 210.723C50.6323 210.475 50.2277 210.238 49.8134 210.015C49.5332 209.866 49.256 209.726 48.9748 209.593C46.3211 208.333 43.4851 207.696 40.5385 207.696C40.37 207.696 40.2015 207.697 40.032 207.702V207.702ZM39.2092 253.454L35.2604 252.743C32.4291 252.253 30.0746 251.393 27.3876 249.867L24.1518 248.03L18.9344 253.142L15.2099 249.64L18.208 246.508L19.3503 243.271L18.0397 241.223C16.5588 238.995 15.4181 236.88 14.6627 233.799L13.7309 229.998L6.8251 230.174L6.70686 225.608L13.6659 225.432L14.3845 221.527C14.947 218.352 15.9565 216.16 17.2996 213.847L19.1799 210.608L14.0191 205.579L17.5778 201.885L21.2865 205.309L24.8234 205.639L26.2622 204.704C28.7782 203.068 31.161 202.037 33.9888 201.36L37.8328 200.438L37.6506 193.399L42.2665 193.282L42.4507 200.374L46.3985 201.084C49.3765 201.601 51.3484 202.497 53.9463 203.971L57.3132 205.881L62.1397 200.774L65.8112 204.228L62.462 207.752L61.9399 211.186L62.9694 212.735C64.672 215.294 65.6829 217.548 66.35 220.27L67.2816 224.071L74.8402 223.88L74.9588 228.444L67.5383 228.633L66.6743 232.315C66.0228 235.176 64.9717 237.943 63.7149 240.107L61.8066 243.394L62.6667 244.209L55.0709 249.132C52.7208 250.659 50.6627 251.751 47.67 252.468L43.826 253.389L44.0141 260.653L39.3982 260.77L39.2092 253.454" fill="#E1781C"/>
<path d="M356.819 156.719L357.776 157.288C358.901 157.957 359.904 158.806 360.746 159.795L359.789 159.225C358.947 158.237 357.944 157.389 356.819 156.719Z" fill="#784F13"/>
<path d="M359.789 159.225L360.746 159.794C361.02 160.117 361.278 160.454 361.516 160.806L360.559 160.236C360.321 159.885 360.063 159.547 359.789 159.225Z" fill="#7C5213"/>
<path d="M360.559 160.236L361.516 160.806C361.707 161.087 361.887 161.377 362.053 161.675L361.096 161.106C360.93 160.808 360.75 160.518 360.559 160.236Z" fill="#815514"/>
<path d="M361.096 161.106L362.054 161.675C362.198 161.933 362.333 162.198 362.458 162.468L361.501 161.898C361.376 161.629 361.24 161.365 361.096 161.106Z" fill="#855815"/>
<path d="M361.501 161.898L362.458 162.468C362.572 162.714 362.676 162.964 362.773 163.219L361.816 162.65C361.719 162.395 361.615 162.144 361.501 161.898Z" fill="#8A5B16"/>
<path d="M361.816 162.65L362.773 163.218C362.865 163.458 362.948 163.701 363.023 163.948L362.066 163.378C361.991 163.132 361.908 162.889 361.816 162.65Z" fill="#8F5E16"/>
<path d="M362.066 163.379L363.023 163.948C363.096 164.184 363.16 164.424 363.218 164.666L362.261 164.097C362.203 163.855 362.139 163.615 362.066 163.379Z" fill="#936117"/>
<path d="M362.261 164.097L363.218 164.666C363.274 164.902 363.323 165.14 363.364 165.381L362.407 164.812C362.366 164.572 362.317 164.332 362.261 164.097" fill="#986418"/>
<path d="M362.407 164.812L363.364 165.382C363.405 165.622 363.44 165.865 363.466 166.11L362.509 165.54C362.483 165.295 362.448 165.053 362.407 164.812Z" fill="#9C6718"/>
<path d="M362.509 165.54L363.466 166.11C363.492 166.358 363.511 166.608 363.522 166.861L362.565 166.292C362.554 166.039 362.535 165.788 362.509 165.54Z" fill="#A16A19"/>
<path d="M362.565 166.292L363.522 166.861C363.53 167.048 363.534 167.237 363.533 167.426L363.53 167.645L362.573 167.076L362.576 166.857C362.577 166.668 362.573 166.479 362.565 166.292Z" fill="#A66D1A"/>
<path d="M362.573 167.076L363.53 167.645C363.523 167.92 363.507 168.193 363.483 168.464L362.526 167.894C362.55 167.624 362.567 167.352 362.573 167.076Z" fill="#AA701B"/>
<path d="M362.526 167.894L363.483 168.464C363.455 168.757 363.418 169.049 363.369 169.336L362.412 168.767C362.461 168.479 362.498 168.189 362.526 167.894Z" fill="#AF741B"/>
<path d="M362.412 168.767L363.369 169.336C363.313 169.666 363.245 169.992 363.161 170.312L362.205 169.743C362.288 169.423 362.356 169.097 362.412 168.767" fill="#B3771C"/>
<path d="M362.205 169.743L363.162 170.312C363.058 170.719 362.931 171.118 362.785 171.506L361.828 170.938C361.974 170.548 362.101 170.15 362.205 169.743Z" fill="#B87A1D"/>
<path d="M361.828 170.938L362.785 171.506C362.53 172.189 362.211 172.841 361.839 173.458L360.882 172.889C361.254 172.273 361.573 171.62 361.828 170.938Z" fill="#BD7D1E"/>
<path d="M360.882 172.888L361.839 173.458C361.503 174.015 361.121 174.543 360.7 175.036L359.743 174.467C360.164 173.974 360.546 173.446 360.882 172.888Z" fill="#C1801E"/>
<path d="M359.743 174.467L360.7 175.036C360.23 175.586 359.711 176.093 359.15 176.55L358.193 175.98C358.754 175.523 359.273 175.016 359.743 174.467Z" fill="#BD7D1E"/>
<path d="M358.193 175.98L359.15 176.55C358.828 176.812 358.491 177.058 358.142 177.286L357.185 176.717C357.534 176.489 357.871 176.243 358.193 175.98Z" fill="#B87A1D"/>
<path d="M357.185 176.716L358.142 177.285C357.861 177.47 357.571 177.642 357.274 177.803L356.317 177.234C356.614 177.073 356.904 176.901 357.185 176.716Z" fill="#B3771C"/>
<path d="M356.317 177.233L357.274 177.802C357.014 177.941 356.75 178.072 356.48 178.194L355.522 177.624C355.793 177.503 356.057 177.372 356.317 177.233Z" fill="#AF741B"/>
<path d="M355.523 177.624L356.48 178.194C356.233 178.304 355.981 178.407 355.726 178.501L354.769 177.932C355.024 177.838 355.276 177.735 355.523 177.624Z" fill="#AA701B"/>
<path d="M354.769 177.932L355.726 178.501C355.485 178.59 355.24 178.672 354.993 178.745L354.035 178.175C354.283 178.101 354.528 178.021 354.769 177.932" fill="#A66D1A"/>
<path d="M354.035 178.175L354.993 178.745C354.754 178.816 354.512 178.879 354.268 178.935L353.311 178.366C353.554 178.31 353.796 178.246 354.035 178.175" fill="#A16A19"/>
<path d="M353.311 178.366L354.268 178.935C354.029 178.991 353.787 179.038 353.543 179.078L352.586 178.509C352.83 178.468 353.072 178.42 353.311 178.366Z" fill="#9C6718"/>
<path d="M352.586 178.508L353.543 179.077C353.3 179.118 353.055 179.151 352.807 179.176L351.85 178.607C352.098 178.581 352.343 178.548 352.586 178.508Z" fill="#986418"/>
<path d="M351.85 178.607L352.807 179.177C352.555 179.203 352.301 179.22 352.045 179.23L351.088 178.661C351.344 178.651 351.598 178.633 351.85 178.607Z" fill="#936117"/>
<path d="M351.088 178.661L352.045 179.23C351.887 179.237 351.728 179.24 351.569 179.24C351.461 179.24 351.354 179.239 351.248 179.236L350.29 178.666C350.397 178.669 350.504 178.671 350.612 178.671C350.771 178.671 350.93 178.667 351.088 178.661Z" fill="#8F5E16"/>
<path d="M350.29 178.666L351.247 179.236C350.968 179.228 350.691 179.212 350.417 179.186L349.46 178.616C349.734 178.642 350.011 178.659 350.29 178.666Z" fill="#8A5B16"/>
<path d="M349.46 178.615L350.417 179.185C350.117 179.156 349.82 179.116 349.527 179.067L348.57 178.497C348.863 178.547 349.16 178.587 349.46 178.615Z" fill="#855815"/>
<path d="M348.57 178.497L349.527 179.067C349.187 179.009 348.853 178.936 348.524 178.85L347.567 178.28C347.896 178.366 348.23 178.439 348.57 178.497Z" fill="#815514"/>
<path d="M347.567 178.28L348.524 178.85C348.103 178.74 347.692 178.608 347.291 178.454L346.334 177.885C346.734 178.038 347.146 178.171 347.567 178.28Z" fill="#7C5213"/>
<path d="M346.334 177.885L347.291 178.453C346.654 178.21 346.044 177.914 345.466 177.57L344.509 177.002C345.087 177.345 345.697 177.642 346.334 177.885Z" fill="#784F13"/>
<path d="M350.721 155.052C357.3 155.052 362.606 160.336 362.576 166.857C362.545 173.386 357.19 178.671 350.612 178.671C344.033 178.671 338.717 173.386 338.748 166.857C338.778 160.336 344.142 155.052 350.721 155.052Z" fill="#9F6919"/>
<path d="M350.703 176.351C345.327 176.351 340.953 172.026 340.953 166.71C340.953 161.396 345.327 157.071 350.703 157.071C356.079 157.071 360.453 161.396 360.453 166.71C360.453 172.026 356.079 176.351 350.703 176.351Z" fill="#222221"/>
<path d="M351.143 176.786C345.767 176.786 341.393 172.461 341.393 167.145C341.393 161.831 345.767 157.506 351.143 157.506C356.519 157.506 360.893 161.831 360.893 167.145C360.893 172.461 356.519 176.786 351.143 176.786Z" fill="#EEBE2D"/>
<path d="M352.022 171.792C352.609 171.703 353.086 171.481 353.454 171.128C353.821 170.775 354.005 170.36 354.005 169.882C354.005 169.456 353.85 169.088 353.542 168.779C353.233 168.471 352.727 168.233 352.022 168.068V171.792ZM350.322 161.631C349.859 161.758 349.492 161.975 349.219 162.28C348.944 162.586 348.808 162.923 348.808 163.292C348.808 163.63 348.934 163.943 349.183 164.233C349.433 164.523 349.813 164.757 350.322 164.935V161.631ZM350.322 171.658V167.657C348.789 167.301 347.664 166.761 346.949 166.038C346.233 165.316 345.875 164.438 345.875 163.407C345.875 162.363 346.28 161.486 347.089 160.777C347.899 160.067 348.976 159.657 350.322 159.55V158.604H352.022V159.55C353.266 159.67 354.256 160.015 354.991 160.585C355.725 161.156 356.194 161.918 356.398 162.873L353.43 163.188C353.251 162.436 352.782 161.928 352.022 161.659V165.393C353.899 165.808 355.179 166.344 355.858 167.002C356.539 167.662 356.879 168.507 356.879 169.538C356.879 170.691 356.451 171.661 355.595 172.451C354.739 173.24 353.548 173.725 352.022 173.902V175.688H350.322V173.95C348.968 173.817 347.87 173.406 347.025 172.718C346.18 172.03 345.641 171.06 345.406 169.805L348.468 169.538C348.593 170.048 348.828 170.487 349.172 170.855C349.516 171.225 349.899 171.493 350.322 171.658" fill="#C74F12"/>
<path d="M291.51 175.688H324.71V142.86H291.51V175.688Z" fill="white"/>
<path d="M308.823 140.923H291.51C290.994 140.923 290.49 141.13 290.124 141.49C289.76 141.851 289.551 142.35 289.551 142.86V166.424C289.551 167.494 290.428 168.361 291.51 168.361C292.592 168.361 293.47 167.494 293.47 166.424V144.797H308.823C309.904 144.797 310.782 143.93 310.782 142.86C310.782 141.791 309.904 140.923 308.823 140.923ZM291.51 177.625H324.71C325.225 177.625 325.73 177.419 326.095 177.058C326.46 176.697 326.669 176.198 326.669 175.688V167.833C326.669 166.764 325.792 165.896 324.71 165.896C323.628 165.896 322.751 166.764 322.751 167.833V173.751H291.51C290.428 173.751 289.551 174.619 289.551 175.688C289.551 176.758 290.428 177.625 291.51 177.625Z" fill="#64A1B3"/>
<path d="M347.832 124.669L312.128 160.036L301.04 149.072C300.083 148.126 298.532 148.126 297.576 149.072C296.62 150.017 296.62 151.55 297.576 152.496L312.131 166.888L351.299 128.091C352.254 127.145 352.253 125.611 351.295 124.666C350.338 123.721 348.787 123.722 347.832 124.669" fill="#364A63"/>
<path d="M17.962 170.215H10.727V177.287H7.19282V170.215H0V166.516H7.19282V159.404H10.727V166.516H17.962V170.215" fill="#253A57"/>
<path d="M333.666 116.903H329.324V121.147H327.202V116.903H322.886V114.683H327.202V110.415H329.324V114.683H333.666V116.903Z" fill="white"/>
<path d="M253.834 54.0425H265.206C270.878 54.0425 275.48 58.5893 275.48 64.1967V64.8796C275.48 70.487 270.878 75.0028 265.206 75.0028H261.526L263.835 81.0413L255.039 75.0028H253.834C248.163 75.0028 243.611 70.487 243.611 64.8796V64.1967C243.611 58.5893 248.163 54.0425 253.834 54.0425Z" fill="white"/>
<path d="M265.226 75.0029H261.533L263.848 80.9774L255.024 75.0029H253.814C248.189 75.0029 243.711 70.522 243.611 65.1731H275.48C275.379 70.522 270.852 75.0029 265.226 75.0029" fill="#B0DCE4"/>
<path d="M168.971 117.689V126.242H177.593C177.56 130.957 173.72 134.7 168.988 134.7C164.235 134.7 160.374 130.894 160.374 126.194C160.374 121.495 164.203 117.689 168.971 117.689" fill="#E1781C"/>
<path d="M170.055 116.575C174.822 116.575 178.51 120.399 178.51 125.085L178.538 125.171H170.055V116.575" fill="#C74F12"/>
<path d="M84.9477 85.4195V75.8474H91.6109L78.738 61.0825L65.8661 75.8474H72.5293V85.4195H84.9477" fill="#EEBE2D"/>
<path d="M368.109 205.132H293.664V195.734C293.664 192.728 296.128 190.291 299.168 190.291H362.604C365.644 190.291 368.109 192.728 368.109 195.734V205.132" fill="#EEBE2D"/>
<path d="M362.738 258.64H299.141C296.146 258.64 293.717 256.239 293.717 253.277V205.346H368.162V253.277C368.162 256.239 365.734 258.64 362.738 258.64" fill="#364A63"/>
<path d="M317.824 195.233C317.824 196.602 316.702 197.712 315.318 197.712C313.932 197.712 312.81 196.602 312.81 195.233C312.81 193.863 313.932 192.754 315.318 192.754C316.702 192.754 317.824 193.863 317.824 195.233Z" fill="white"/>
<path d="M316.153 195.233V188.518C316.153 188.062 315.779 187.692 315.318 187.692C314.855 187.692 314.481 188.062 314.481 188.518V195.233C314.481 195.689 314.855 196.059 315.318 196.059C315.779 196.059 316.153 195.689 316.153 195.233Z" fill="#C74F12"/>
<path d="M325.608 195.233C325.608 196.602 324.487 197.712 323.102 197.712C321.717 197.712 320.595 196.602 320.595 195.233C320.595 193.863 321.717 192.754 323.102 192.754C324.487 192.754 325.608 193.863 325.608 195.233Z" fill="white"/>
<path d="M323.937 195.233V188.518C323.937 188.062 323.563 187.692 323.102 187.692C322.64 187.692 322.266 188.062 322.266 188.518V195.233C322.266 195.689 322.64 196.059 323.102 196.059C323.563 196.059 323.937 195.689 323.937 195.233Z" fill="#C74F12"/>
<path d="M333.393 195.233C333.393 196.602 332.271 197.712 330.886 197.712C329.501 197.712 328.379 196.602 328.379 195.233C328.379 193.863 329.501 192.754 330.886 192.754C332.271 192.754 333.393 193.863 333.393 195.233Z" fill="white"/>
<path d="M331.722 195.233V188.518C331.722 188.062 331.348 187.692 330.886 187.692C330.424 187.692 330.05 188.062 330.05 188.518V195.233C330.05 195.689 330.424 196.059 330.886 196.059C331.348 196.059 331.722 195.689 331.722 195.233Z" fill="#C74F12"/>
<path d="M341.177 195.233C341.177 196.602 340.055 197.712 338.67 197.712C337.285 197.712 336.164 196.602 336.164 195.233C336.164 193.863 337.285 192.754 338.67 192.754C340.055 192.754 341.177 193.863 341.177 195.233Z" fill="white"/>
<path d="M339.506 195.233V188.518C339.506 188.062 339.132 187.692 338.67 187.692C338.209 187.692 337.835 188.062 337.835 188.518V195.233C337.835 195.689 338.209 196.059 338.67 196.059C339.132 196.059 339.506 195.689 339.506 195.233Z" fill="#C74F12"/>
<path d="M348.962 195.233C348.962 196.602 347.84 197.712 346.454 197.712C345.07 197.712 343.948 196.602 343.948 195.233C343.948 193.863 345.07 192.754 346.454 192.754C347.84 192.754 348.962 193.863 348.962 195.233Z" fill="white"/>
<path d="M347.291 195.233V188.518C347.291 188.062 346.917 187.692 346.454 187.692C345.993 187.692 345.619 188.062 345.619 188.518V195.233C345.619 195.689 345.993 196.059 346.454 196.059C346.917 196.059 347.291 195.689 347.291 195.233Z" fill="#C74F12"/>
<path d="M356.746 195.233C356.746 196.602 355.623 197.712 354.239 197.712C352.854 197.712 351.732 196.602 351.732 195.233C351.732 193.863 352.854 192.754 354.239 192.754C355.623 192.754 356.746 193.863 356.746 195.233Z" fill="white"/>
<path d="M355.075 195.233V188.518C355.075 188.062 354.701 187.692 354.239 187.692C353.778 187.692 353.404 188.062 353.404 188.518V195.233C353.404 195.689 353.778 196.059 354.239 196.059C354.701 196.059 355.075 195.689 355.075 195.233Z" fill="#C74F12"/>
<path d="M364.531 195.233C364.531 196.602 363.408 197.712 362.023 197.712C360.639 197.712 359.516 196.602 359.516 195.233C359.516 193.863 360.639 192.754 362.023 192.754C363.408 192.754 364.531 193.863 364.531 195.233Z" fill="white"/>
<path d="M362.859 195.233V188.518C362.859 188.062 362.484 187.692 362.023 187.692C361.562 187.692 361.187 188.062 361.187 188.518V195.233C361.187 195.689 361.562 196.059 362.023 196.059C362.484 196.059 362.859 195.689 362.859 195.233Z" fill="#C74F12"/>
<path d="M310.04 195.233C310.04 196.602 308.918 197.712 307.533 197.712C306.149 197.712 305.026 196.602 305.026 195.233C305.026 193.863 306.149 192.754 307.533 192.754C308.918 192.754 310.04 193.863 310.04 195.233Z" fill="white"/>
<path d="M308.368 195.233V188.518C308.368 188.062 307.994 187.692 307.533 187.692C307.071 187.692 306.697 188.062 306.697 188.518V195.233C306.697 195.689 307.071 196.059 307.533 196.059C307.994 196.059 308.368 195.689 308.368 195.233Z" fill="#C74F12"/>
<path d="M302.256 195.233C302.256 196.602 301.133 197.712 299.749 197.712C298.364 197.712 297.241 196.602 297.241 195.233C297.241 193.863 298.364 192.754 299.749 192.754C301.133 192.754 302.256 193.863 302.256 195.233Z" fill="white"/>
<path d="M300.584 195.233V188.518C300.584 188.062 300.21 187.692 299.749 187.692C299.286 187.692 298.912 188.062 298.912 188.518V195.233C298.912 195.689 299.286 196.059 299.749 196.059C300.21 196.059 300.584 195.689 300.584 195.233Z" fill="#C74F12"/>
<path d="M306.261 219.475H297.315V210.63H306.261V219.475Z" fill="white"/>
<path d="M318.011 219.475H309.065V210.63H318.011V219.475Z" fill="white"/>
<path d="M329.761 219.475H320.814V210.63H329.761V219.475Z" fill="white"/>
<path d="M341.511 219.475H332.565V210.63H341.511V219.475Z" fill="white"/>
<path d="M353.261 219.475H344.315V210.63H353.261V219.475Z" fill="white"/>
<path d="M365.011 219.475H356.064V210.63H365.011V219.475Z" fill="white"/>
<path d="M306.261 230.777H297.315V221.93H306.261V230.777Z" fill="white"/>
<path d="M318.011 230.777H309.065V221.93H318.011V230.777Z" fill="white"/>
<path d="M329.761 230.777H320.814V221.93H329.761V230.777Z" fill="white"/>
<path d="M341.511 230.777H332.565V221.93H341.511V230.777Z" fill="white"/>
<path d="M353.261 230.777H344.315V221.93H353.261V230.777Z" fill="white"/>
<path d="M365.011 230.777H356.064V221.93H365.011V230.777Z" fill="white"/>
<path d="M306.261 242.078H297.315V233.232H306.261V242.078" fill="white"/>
<path d="M318.011 242.078H309.065V233.232H318.011V242.078" fill="white"/>
<path d="M329.761 242.078H320.814V233.232H329.761V242.078" fill="white"/>
<path d="M341.511 242.078H332.565V233.232H341.511V242.078" fill="white"/>
<path d="M353.261 242.078H344.315V233.232H353.261V242.078" fill="white"/>
<path d="M365.011 242.078H356.064V233.232H365.011V242.078" fill="white"/>
<path d="M306.261 253.379H297.315V244.533H306.261V253.379Z" fill="white"/>
<path d="M318.011 253.379H309.065V244.533H318.011V253.379Z" fill="white"/>
<path d="M329.761 253.379H320.814V244.533H329.761V253.379Z" fill="white"/>
<path d="M341.511 253.379H332.565V244.533H341.511V253.379Z" fill="white"/>
<path d="M353.261 253.379H344.315V244.533H353.261V253.379Z" fill="white"/>
<path d="M365.011 253.379H356.064V244.533H365.011V253.379Z" fill="white"/>
<path d="M379.293 263.78C376.901 263.78 374.964 261.864 374.964 259.5C374.964 257.136 376.901 255.219 379.293 255.219C381.683 255.219 383.621 257.136 383.621 259.5C383.621 261.864 381.683 263.78 379.293 263.78ZM379.293 251.879C377.689 251.879 376.198 252.367 374.964 253.199V248.956H337.037V262.068C337.037 269.31 342.975 275.18 350.298 275.18H361.703C367.839 275.18 372.987 271.054 374.499 265.458C375.817 266.496 377.481 267.121 379.293 267.121C383.542 267.121 387 263.703 387 259.5C387 255.298 383.542 251.879 379.293 251.879" fill="#E69824"/>
<path d="M236.185 55.0024H187.213V46.5985H236.185V55.0024Z" fill="#253A57"/>
<path d="M236.185 127.012H187.213V118.608H236.185V127.012Z" fill="#253A57"/>
<path d="M233.557 66.1602V55.0025H189.841V66.1602C189.841 74.0643 197.07 80.9765 203.473 84.7454C205.055 85.6763 205.055 87.9342 203.473 88.8651C197.07 92.634 189.841 99.5462 189.841 107.45V118.608H233.557V107.45C233.557 99.5472 226.329 92.634 219.926 88.8651C218.344 87.9342 218.344 85.6763 219.926 84.7454C226.329 80.9765 233.557 74.0643 233.557 66.1602" fill="white"/>
<path d="M217.922 92.1941C215.921 91.0172 214.752 88.9134 214.824 86.6012C214.893 84.3879 216.242 82.4254 218.156 81.2766C221.301 79.3878 224.708 76.5933 226.988 73.3784C220.183 75.9607 212.967 77.2277 205.336 78.485C204.489 78.8202 203.764 79.3064 203.105 79.8711C203.823 80.3806 204.543 80.8552 205.25 81.2805C207.159 82.4283 208.503 84.384 208.574 86.5915C208.65 88.9085 207.48 91.0163 205.478 92.1941C200.072 95.3761 193.76 101.281 193.76 107.449V109.936C193.76 112.586 195.932 114.733 198.612 114.733H224.786C227.466 114.733 229.639 112.586 229.639 109.936V107.449C229.639 101.281 223.326 95.3761 217.922 92.1941" fill="#EEBE2D"/>
</svg>
