<svg width="52" height="51" viewBox="0 0 52 51" fill="none" xmlns="http://www.w3.org/2000/svg">
<path opacity="0.5" fill-rule="evenodd" clip-rule="evenodd" d="M41.0508 17.5672C45.0734 17.5672 48.3344 14.3062 48.3344 10.2836C48.3344 6.26098 45.0734 3 41.0508 3C37.0282 3 33.7672 6.26098 33.7672 10.2836C33.7672 14.3062 37.0282 17.5672 41.0508 17.5672ZM41.0508 20.5672C46.7303 20.5672 51.3344 15.9631 51.3344 10.2836C51.3344 4.60413 46.7303 0 41.0508 0C35.3713 0 30.7672 4.60413 30.7672 10.2836C30.7672 11.2011 30.8874 12.0905 31.1128 12.937L18.0507 18.5928C16.1653 16.4218 13.3847 15.0492 10.2836 15.0492C4.60413 15.0492 0 19.6533 0 25.3328C0 31.0123 4.60413 35.6164 10.2836 35.6164C13.5682 35.6164 16.4932 34.0765 18.3759 31.6792L31.038 38.362C30.8609 39.1181 30.7672 39.9063 30.7672 40.7164C30.7672 46.3959 35.3713 51 41.0508 51C46.7303 51 51.3344 46.3959 51.3344 40.7164C51.3344 35.0369 46.7303 30.4328 41.0508 30.4328C37.9768 30.4328 35.2177 31.7816 33.3333 33.9198L20.4156 27.1021C20.5153 26.5273 20.5672 25.9361 20.5672 25.3328C20.5672 24.9068 20.5413 24.4868 20.491 24.0744L34.3416 18.0773C36.1425 19.6291 38.4871 20.5672 41.0508 20.5672ZM10.2836 31.6164C13.7539 31.6164 16.5672 28.8031 16.5672 25.3328C16.5672 21.8624 13.7539 19.0492 10.2836 19.0492C6.81327 19.0492 4 21.8624 4 25.3328C4 28.8031 6.81327 31.6164 10.2836 31.6164ZM47.3344 40.7164C47.3344 44.1868 44.5212 47 41.0508 47C37.5805 47 34.7672 44.1868 34.7672 40.7164C34.7672 37.2461 37.5805 34.4328 41.0508 34.4328C44.5212 34.4328 47.3344 37.2461 47.3344 40.7164Z" fill="#787878"/>
</svg>
