<svg xmlns="http://www.w3.org/2000/svg" viewBox="0 0 462.31 324.6"><title>team</title><path d="M218.39,165.49C203,109.73,133.76,91.77,94.06,133.44q-.86.9-1.71,1.83c-56.9,61.86-30,214.3,88.74,252.94s242.3-31.92,249.24-95S382.48,210.33,297.44,228C249.4,237.93,228,200.2,218.39,165.49Z" transform="translate(-22.42 -103.07)" style="fill:#e0d5f8"/><path d="M317.18,175c-15.89,2.58-20.29,16.66-8,26.65,4,3.3,9.85,6,18.1,7.41,31.42,5.22,48.1-8.69,35.5-26.72C355,171.24,332.93,172.46,317.18,175Z" transform="translate(-22.42 -103.07)" style="fill:#e0d5f8"/><path d="M71.27,289c-7.81-14.08-22.55-13.47-27.8,1.45-1.74,4.94-2.36,11.31-.86,19.54C48.32,341.3,67,352.3,79.75,334.36,87.6,323.28,79,302.93,71.27,289Z" transform="translate(-22.42 -103.07)" style="fill:#e0d5f8"/><path d="M441.53,300.55c-1.47,7.66,4.86,13.09,12,10.14a15.22,15.22,0,0,0,6.89-6.17c8.1-12.6,4-23.41-7.28-22.3C446.21,282.9,443,293,441.53,300.55Z" transform="translate(-22.42 -103.07)" style="fill:#e0d5f8"/><path d="M401.36,219.68c7.63,1.6,13.17-4.64,10.34-11.86a15.23,15.23,0,0,0-6.05-7c-12.46-8.31-23.34-4.39-22.42,6.9C383.79,214.7,393.79,218.1,401.36,219.68Z" transform="translate(-22.42 -103.07)" style="fill:#e0d5f8"/><path d="M215.74,137.68c6,4.93,13.83,1.94,14.63-5.77a15.14,15.14,0,0,0-2.15-9c-7.23-13.12-18.7-14.64-23.08-4.19C202.43,125.18,209.74,132.8,215.74,137.68Z" transform="translate(-22.42 -103.07)" style="fill:#e0d5f8"/><path d="M457.56,412.87a8,8,0,0,0,7.18-2.22,6.61,6.61,0,0,0,2-4.31v-.06c0-10.69,13.1-10,17.32-23s-12.45-14.17-22-6.1c-6.84,5.8-15-2.3-25,4.46-8.63,5.88-3.82,20.34-18,15.82-4.52-1.45-8.57-.06-12,2.51a20.29,20.29,0,0,0-7.56,11.59l1.13.79C428.62,429.43,441.2,410.14,457.56,412.87Z" transform="translate(-22.42 -103.07)" style="fill:#9c78ed"/><path d="M429.88,412.3l37-23.77a1.07,1.07,0,0,0-1.15-1.8L425.93,412.3Z" transform="translate(-22.42 -103.07)" style="fill:#7846d1"/><path d="M427.88,341.57c-1.56-23.3-1.82-47.74-.09-63.94,2.27-21.16,7.39-35.9,15.24-43.79a1.33,1.33,0,1,1,1.89,1.88c-13.71,13.8-18.64,50.85-14.28,107.21Z" transform="translate(-22.42 -103.07)" style="fill:#5b23a9"/><path d="M431.39,258.93s-11.17,0-10.37-19.64C421,239.29,438.1,244.16,431.39,258.93Z" transform="translate(-22.42 -103.07)" style="fill:#7846d1"/><path d="M430.45,269s-.6-11.15,19-11.44C449.49,257.59,445.57,274.91,430.45,269Z" transform="translate(-22.42 -103.07)" style="fill:#7846d1"/><path d="M439,241.5s-4.29-10.31,14.13-17.14C453.12,224.36,455.21,242,439,241.5Z" transform="translate(-22.42 -103.07)" style="fill:#7846d1"/><path d="M427.94,289.29s-10.51,3.76-16.4-15C411.54,274.31,429.27,273.11,427.94,289.29Z" transform="translate(-22.42 -103.07)" style="fill:#7846d1"/><path d="M428.55,299.72s-2.52-10.88,16.77-14.57C445.32,285.15,444.46,302.9,428.55,299.72Z" transform="translate(-22.42 -103.07)" style="fill:#7846d1"/><path d="M428,314.08s-10.44,4-16.68-14.67C411.28,299.41,429,297.89,428,314.08Z" transform="translate(-22.42 -103.07)" style="fill:#7846d1"/><path d="M104,393.51l-3-.12-1.61-.07-4.57-.18S52.52,321.44,79,298.05c8.15-7.2,22.39-1.23,19.24,31.86C95.3,360.58,104,393.51,104,393.51Z" transform="translate(-22.42 -103.07)" style="fill:#7846d1"/><path d="M100.94,393.39l-1.61-.07c-7.38-17.37-11.1-36-13-49.13a227.17,227.17,0,0,1-2.29-27,.72.72,0,0,1,.72-.73.74.74,0,0,1,.74.72A225.53,225.53,0,0,0,87.83,344C89.69,357.17,93.45,376,100.94,393.39Z" transform="translate(-22.42 -103.07)" style="fill:#5b23a9"/><path d="M112.37,407.87l-4.13,1.54-2.19.81-6.21,2.3S3.45,340.24,25.78,294.25C32.65,280.1,55,280.14,69.23,326.1,82.42,368.71,112.37,407.87,112.37,407.87Z" transform="translate(-22.42 -103.07)" style="fill:#9c78ed"/><path d="M108.24,409.41l-2.19.81c-19.53-19.11-34.91-42-44.68-58.45A332.46,332.46,0,0,1,43.28,317a1.06,1.06,0,0,1,1.95-.83,326.58,326.58,0,0,0,18,34.53C73,367.28,88.54,390.33,108.24,409.41Z" transform="translate(-22.42 -103.07)" style="fill:#7846d1"/><path d="M441.87,412a28,28,0,0,0-.61-5c-3.47-15.86,6-18.85,18.39-23.86s13.91-19.9,5.11-32.26,7-22.31,1.19-40.93-26.05-6.23-30.48,10.93c-3.18,12.34-19.35,9.67-25.34,25.67-5.2,13.89,12.24,26.72-7.9,33.09-6.43,2-10,7-11.85,12.74a28.8,28.8,0,0,0,.73,19.64Z" transform="translate(-22.42 -103.07)" style="fill:#7846d1"/><path d="M417.24,412l33.16-81.87a1.52,1.52,0,0,0-2.81-1.14L414,412Z" transform="translate(-22.42 -103.07)" style="fill:#5b23a9"/><path d="M140.91,164.44s.69-14.74-8.27-17.57c-14-4.41-17.85,2.83-20,7.62-2.76,6.13-1.59,18.15,6.74,19.31C131.82,175.54,140.14,168.56,140.91,164.44Z" transform="translate(-22.42 -103.07)" style="fill:#403657"/><path d="M149.9,213.73a15.32,15.32,0,0,0,15-12.18c1.07-5.12,2.12-9.65,2.12-12.19v-.07c.06-.8.1-1.6.1-2.4.1-11.63-7.07-32.87-32.29-29.49,0,0-20.93,2.38-23.31,22.83,0,0-1,9.44-1.65,16.27,0,.12,0,.24,0,.36a15.33,15.33,0,0,0,15.26,16.87Z" transform="translate(-22.42 -103.07)" style="fill:#403657"/><path d="M179.85,238s4.46,35.33,9.55,53.47c0,0,7.24-3.37,16.71-7.95,10.27-5,25-14,25-14l3.73,9s-38.14,36-50.78,38-20.38-43.21-20.38-43.21Z" transform="translate(-22.42 -103.07)" style="fill:#7846d1"/><path d="M230.37,270.6s-1.05-5,1.2-8.42,5.66-9.75,9.68-11.08c3.36-1.11-1.6,4.56-1.75,8.16a56.7,56.7,0,0,0,8.6-1.8c3.18-1,9.45-2.32,12.36-2.89a.8.8,0,0,1,.69,1.38c-1,.86-3.06,1.94-7.35,3,0,0,10.45-2,11.53-.38s-12,3.83-12,3.83,10.17-.6,10.43,1c.16,1-10.37,3.2-10.37,3.2s9.61.26,7.29,1.78c-.68.44-19.3,2.53-25.78,10.19C234.88,278.54,230.52,274,230.37,270.6Z" transform="translate(-22.42 -103.07)" style="fill:#ffa681"/><path d="M115.53,231.08s-21.34,6.3-39.72,10.44c0,0-.48-8-1-18.48-.52-11.39.42-28.69.42-28.69l-9.69,1S52.06,246,56.28,258.11s57.78-4.85,57.78-4.85Z" transform="translate(-22.42 -103.07)" style="fill:#7846d1"/><path d="M74.71,195.54s4.92-1.47,6.84-5.06,7.22-10.82,4-13.5c-1.2-1-2.06,3.29-5.16,5.13a57.14,57.14,0,0,1-2.51-8.42c-.6-3.28-2.45-9.41-3.33-12.24a.8.8,0,0,0-1.55,0c-.28,1.29-.25,3.62.89,7.89,0,0-3.24-10.14-5.16-10.33S71,171.45,71,171.45s-4.31-9.23-5.84-8.7c-.93.32,2.13,10.64,2.13,10.64s-4.81-8.33-5-5.56c-.07.8,6.94,18.17,3.29,27.51C65.58,195.34,71.62,197,74.71,195.54Z" transform="translate(-22.42 -103.07)" style="fill:#ffa681"/><path d="M179.05,374.93l.17.76c-16.62,11.25-78.78,3.56-78.78,3.56.11-1.3.25-2.66.43-4.07.19-1.58.44-3.2.71-4.89.75-4.52,1.76-9.42,2.89-14.45.36-1.58.73-3.19,1.11-4.81,1.12-4.8,2.32-9.68,3.45-14.42.39-1.64.77-3.24,1.14-4.84q.78-3.34,1.48-6.53c.61-2.82,1.16-5.52,1.62-8.07q.47-2.58.78-4.92c.24-1.65.4-3.22.5-4.66-1-3.65-1.91-7.23-2.77-10.7-.43-1.77-.84-3.49-1.26-5.2-1.27-5.46-2.39-10.67-3.37-15.54-.35-1.77-.7-3.49-1-5.17-1.08-5.75-2-11-2.67-15.48-.27-1.81-.53-3.5-.75-5.09-.25-1.75-.47-3.36-.65-4.82-.84-6.43-1.12-10.08-1.12-10.08s.3-.23.45-.34a34,34,0,0,1,8.11-3.72c3.46-1.19,7.29-2.22,10.66-3l1.5-.36c4.43-1,7.74-1.63,7.74-1.63,15.07,3.15,19.37,1.12,19.37,1.12l7.66,2.26.91.32,5.58,2,.22.08,10,3.53,6.68,2.34-2.6,12-1.13,5.22L172.71,271l-1.12,5.2-3.4,15.68L167.07,297l-2.81,13,.56,2.48,1.1,4.81,1.74,7.66,1.58,6.93,1.1,4.8,3.27,14.45,1.1,4.77L178,370.16Z" transform="translate(-22.42 -103.07)" style="fill:#9c78ed"/><path d="M157.35,230.13c-1.61,9.42-6.18,18.9-15.67,19.92-11.47,1.24-17.42-13.15-20-22,4.43-1,9-2,9-2,15.07,3.15,18,1.23,18,1.23l7.77,2.56Z" transform="translate(-22.42 -103.07)" style="fill:#ffa681"/><path d="M140.51,242.14c-12,0-14.9-14.85-14.92-15a.59.59,0,1,1,1.16-.22c.11.6,2.84,14.61,14.46,14,10.17-.51,10.77-11.8,10.79-12.28a.59.59,0,1,1,1.18,0c0,.13-.65,12.85-11.91,13.42Z" transform="translate(-22.42 -103.07)" style="fill:#fff"/><path d="M118.94,238a2.94,2.94,0,1,1-2.93-2.93A2.94,2.94,0,0,1,118.94,238Z" transform="translate(-22.42 -103.07)" style="fill:#7846d1"/><path d="M113.06,252.36a2.94,2.94,0,1,1-2.93-2.93A2.94,2.94,0,0,1,113.06,252.36Z" transform="translate(-22.42 -103.07)" style="fill:#7846d1"/><path d="M131.8,259.13a2.94,2.94,0,1,1-2.93-2.93A2.94,2.94,0,0,1,131.8,259.13Z" transform="translate(-22.42 -103.07)" style="fill:#7846d1"/><path d="M118.73,267.14a2.93,2.93,0,1,1-3.81-1.64A2.93,2.93,0,0,1,118.73,267.14Z" transform="translate(-22.42 -103.07)" style="fill:#7846d1"/><path d="M144.17,272.56a2.94,2.94,0,1,1-2.93-2.94A2.93,2.93,0,0,1,144.17,272.56Z" transform="translate(-22.42 -103.07)" style="fill:#7846d1"/><path d="M162.89,278.61a2.94,2.94,0,1,1-2.93-2.94A2.93,2.93,0,0,1,162.89,278.61Z" transform="translate(-22.42 -103.07)" style="fill:#7846d1"/><path d="M166.66,241a2.94,2.94,0,1,1-2.94-2.94A2.94,2.94,0,0,1,166.66,241Z" transform="translate(-22.42 -103.07)" style="fill:#7846d1"/><path d="M145.36,291.3a2.94,2.94,0,1,1-2.93-2.93A2.94,2.94,0,0,1,145.36,291.3Z" transform="translate(-22.42 -103.07)" style="fill:#7846d1"/><path d="M127.28,300.4a2.94,2.94,0,1,1-2.93-2.93A2.94,2.94,0,0,1,127.28,300.4Z" transform="translate(-22.42 -103.07)" style="fill:#7846d1"/><path d="M125.17,283.83a2.93,2.93,0,1,1-2.93-2.94A2.93,2.93,0,0,1,125.17,283.83Z" transform="translate(-22.42 -103.07)" style="fill:#7846d1"/><path d="M154.09,259.9a2.94,2.94,0,1,1-2.94-2.93A2.94,2.94,0,0,1,154.09,259.9Z" transform="translate(-22.42 -103.07)" style="fill:#7846d1"/><path d="M170.31,256.2a2.94,2.94,0,1,1-2.93-2.94A2.93,2.93,0,0,1,170.31,256.2Z" transform="translate(-22.42 -103.07)" style="fill:#7846d1"/><path d="M160,296.16a2.94,2.94,0,1,1-2.94-2.94A2.94,2.94,0,0,1,160,296.16Z" transform="translate(-22.42 -103.07)" style="fill:#7846d1"/><path d="M160.74,319.38a2.93,2.93,0,1,1-2.93-2.94A2.93,2.93,0,0,1,160.74,319.38Z" transform="translate(-22.42 -103.07)" style="fill:#7846d1"/><path d="M145.81,309.69a2.93,2.93,0,1,1-3.82-1.64A2.93,2.93,0,0,1,145.81,309.69Z" transform="translate(-22.42 -103.07)" style="fill:#7846d1"/><path d="M125.83,318.29a2.93,2.93,0,1,1-3.82-1.64A2.93,2.93,0,0,1,125.83,318.29Z" transform="translate(-22.42 -103.07)" style="fill:#7846d1"/><polygon points="162.85 308.87 162.24 305.21 159.87 291.03 159.06 286.17 156.8 272.61 152.69 272.8 98.2 275.27 78.03 276.18 76.73 286.73 76.12 291.64 74.33 306.2 74 308.87 162.85 308.87" style="fill:#9c78ed"/><path d="M185.26,411.94l-.55-3.3-.05-.35-.39-2.33-.4-2.32-1.59-9.54-.46-2.82-.35-2-.05-.3-2-12.37-.14-.88-.19-.76-.16-.67-.92-4.09-1.83-8-.53-2.29-.9-4-1.09-4.78-.74-3.29-.53-2.29-2-8.85-.74-3.24-.35-1.57-.16-.72-1.41-6.22c-22.15,6.55-45.62,2.66-56,.33-.46,2.1-1,4.3-1.48,6.52-.11.48-.23,1-.35,1.45-.18.77-.37,1.53-.55,2.29-.07.37-.16.72-.25,1.09-.86,3.63-1.76,7.33-2.64,11-.19.77-.35,1.53-.53,2.27-.09.39-.19.76-.28,1.16-.37,1.61-.74,3.23-1.11,4.8-.46,2.11-.9,4.17-1.32,6.2-.16.76-.32,1.5-.46,2.24-.42,2.06-.79,4.07-1.11,6-.28,1.69-.51,3.31-.69,4.91-.07.48-.12,1-.19,1.43-.07.78-.16,1.55-.23,2.31,0,.12,0,.21,0,.32l-1.3,10.55-.2,1.64-.28,2.29-.12,1-1.43,11.53-.28,2.32-.09.74-.32,2.65Z" transform="translate(-22.42 -103.07)" style="fill:#403657"/><path d="M158.46,190.7s3.6-4.56,6.28-.79-1.1,14.92-7.66,12.2Z" transform="translate(-22.42 -103.07)" style="fill:#f97853"/><path d="M158.51,198.67a.56.56,0,0,0,.53-.39c1-3.44,4.77-4.83,4.81-4.85a.52.52,0,0,0,.32-.68.55.55,0,0,0-.71-.3c-.18.06-4.31,1.58-5.49,5.55a.53.53,0,0,0,.39.65Z" transform="translate(-22.42 -103.07)" style="fill:#ea5143"/><path d="M162.3,196.93a.56.56,0,0,0,.3-.08.51.51,0,0,0,.16-.73,5,5,0,0,0-2.08-1.59.56.56,0,0,0-.73.26.52.52,0,0,0,.28.7,4.06,4.06,0,0,1,1.6,1.2A.55.55,0,0,0,162.3,196.93Z" transform="translate(-22.42 -103.07)" style="fill:#ea5143"/><path d="M156.84,202a3.9,3.9,0,1,0,5.32-.46,3.82,3.82,0,0,0-1.57-.75.7.7,0,0,1,.14-.74,4.58,4.58,0,0,1,2,1,4.66,4.66,0,1,1-6.59.66Z" transform="translate(-22.42 -103.07)" style="fill:#fff"/><path d="M130.69,214V227.7s6.36,4.9,11.31,5.33,6.67-5.42,6.67-5.42V214.88Z" transform="translate(-22.42 -103.07)" style="fill:#ffa681"/><path d="M130.69,215.36v5.46c3.33,3.69,9.23,5,18,3.71v-8.31Z" transform="translate(-22.42 -103.07)" style="fill:#f97853"/><path d="M160.63,195.9c-.16,1.32-.35,2.66-.58,4-1.58,8.89-7.2,18.5-14.3,20.11-15.34,3.48-21.71-8.56-24.16-17.45-.27-1,.24-2.12,0-3.29-.51-2.77-1.63-5.91-1.88-9-.17-2.15-.3-4.28-.39-6.19a12.56,12.56,0,0,1,7.77-12.31c7-2.81,17.76-5,27.9.92a12.65,12.65,0,0,1,6.18,10.72A95.64,95.64,0,0,1,160.63,195.9Z" transform="translate(-22.42 -103.07)" style="fill:#ffa681"/><path d="M141.18,202.78a.6.6,0,0,1-.59-.5.59.59,0,0,1,.49-.68l2-.35-2.82-7.5a.59.59,0,1,1,1.11-.42l3.33,8.86-3.47.58Z" transform="translate(-22.42 -103.07)" style="fill:#f97853"/><path d="M148.52,192.85c0,1.31.67,2.37,1.51,2.37s1.51-1.06,1.51-2.37-.68-2.38-1.51-2.38S148.52,191.54,148.52,192.85Z" transform="translate(-22.42 -103.07)" style="fill:#403657"/><path d="M131.82,192.85c0,1.31.67,2.37,1.51,2.37s1.51-1.06,1.51-2.37-.68-2.38-1.51-2.38S131.82,191.54,131.82,192.85Z" transform="translate(-22.42 -103.07)" style="fill:#403657"/><path d="M154.47,186.62a28.93,28.93,0,0,0-6.29-.54c-.69,0-1.24.54-1.14,1.09v0a1,1,0,0,0,1.09.69,32.62,32.62,0,0,1,8.62.54,1.11,1.11,0,0,0-.46-.94A3.48,3.48,0,0,0,154.47,186.62Z" transform="translate(-22.42 -103.07)" style="fill:#403657"/><path d="M130.18,186.9a29,29,0,0,1,6.28-.62c.69,0,1.25.53,1.16,1.08h0a1,1,0,0,1-1.09.7,33.29,33.29,0,0,0-8.61.66,1.11,1.11,0,0,1,.45-.94A3.6,3.6,0,0,1,130.18,186.9Z" transform="translate(-22.42 -103.07)" style="fill:#403657"/><path d="M148.52,206.33c-.45,2.09-1.91,5.93-6.86,5.93s-6.34-3.51-6.82-5.93Z" transform="translate(-22.42 -103.07)" style="fill:#fff"/><path d="M141.73,215.85a5.85,5.85,0,0,0,2.74-.8.59.59,0,0,0-.61-1h0a4.65,4.65,0,0,1-2.13.63,4.94,4.94,0,0,1-2.24-.63.58.58,0,0,0-.6,1A6.07,6.07,0,0,0,141.73,215.85Z" transform="translate(-22.42 -103.07)" style="fill:#f97853"/><path d="M161.25,194.5c-.15.12-.28.08-.41-.15-2-3.57-.12-10.7-6.12-13.43a12.65,12.65,0,0,1-6.2-6.36,13,13,0,0,1-3.77,3.43,107.19,107.19,0,0,1-14.06,6.85,23.26,23.26,0,0,0-4.71,2.37l.13,0s-2,3.23-.53,8.24-.42,13.27-3.64,15.17c0-.14,2.47-5.85,1.11-10.51-.79-2.67-.78-6.93-1.53-9.48-.83-.56-2.74-1.52-3.38-1.91-.19-2.19-.32-4.35-.41-6.31a12.78,12.78,0,0,1,8.19-12.55c7.43-2.85,18.72-5.12,29.41,1a12.83,12.83,0,0,1,6.51,10.92A93,93,0,0,1,161.25,194.5Z" transform="translate(-22.42 -103.07)" style="fill:#403657"/><path d="M121.52,190.66s-4.19-5.08-6.66-1.41,1.18,14.9,7.23,12.25Z" transform="translate(-22.42 -103.07)" style="fill:#ffa681"/><path d="M121.69,201.69a3.9,3.9,0,1,1-3.35-2.09.89.89,0,0,0,0-.75,4.56,4.56,0,0,0-2.17.46,4.66,4.66,0,1,0,6.24,2.24Z" transform="translate(-22.42 -103.07)" style="fill:#fff"/><path d="M120.61,197.75a.51.51,0,0,1-.49-.38,7.93,7.93,0,0,0-4.44-4.71.51.51,0,0,1,.37-.95,8.8,8.8,0,0,1,5,5.39.51.51,0,0,1-.35.63Z" transform="translate(-22.42 -103.07)" style="fill:#f97853"/><path d="M117.12,196.06a.48.48,0,0,1-.28-.08.5.5,0,0,1-.15-.7,4.52,4.52,0,0,1,1.92-1.55.51.51,0,1,1,.41.93,3.64,3.64,0,0,0-1.47,1.17A.52.52,0,0,1,117.12,196.06Z" transform="translate(-22.42 -103.07)" style="fill:#f97853"/><path d="M343.4,300c-9.75,7-25,11.8-25,11.8l-3.12-11.23-2.44-8.76-1.72-6.18H293.64c.95,3.27,1.93,6.62,2.91,9.92,1.26,4.25,2.52,8.41,3.72,12.25,1.68,5.4,3.24,10.15,4.49,13.54.3.79.64,1.66,1,2.58,2.33,6.31,4.22,13.15,13.14,8.86,7.85-3.78,18.49-9,23.81-12.5Z" transform="translate(-22.42 -103.07)" style="fill:#ffa681"/><path d="M296.55,295.57c1.26,4.25,2.52,8.41,3.72,12.25a24.9,24.9,0,0,0,15-7.22l-2.44-8.76Z" transform="translate(-22.42 -103.07)" style="fill:#f97853"/><path d="M292.84,234.26s18.24,43.49,26.08,57.58c0,0-11,9.35-21.7,9.6C297.22,301.44,291.05,253.69,292.84,234.26Z" transform="translate(-22.42 -103.07)" style="fill:#6020bd"/><path d="M250.15,411c.18-3,.35-5.94.51-8.62.64-11,1.06-18.47,1.06-18.47l-4.3-.19-2.42-.11-29.23-1.3s-.53,8.38-1.16,20.68c-.13,2.52-.26,5.21-.39,8Z" transform="translate(-22.42 -103.07)" style="fill:#9c78ed"/><path d="M247.42,383.69l4.3.19s-.42,7.49-1.06,18.47a260.8,260.8,0,0,1-36,.61c.63-12.3,1.16-20.68,1.16-20.68l29.23,1.3Z" transform="translate(-22.42 -103.07)" style="fill:#7846d1"/><path d="M245.89,411c.67-11.72,1.23-21.77,1.53-27.28l-2.42-.11c-.31,5.54-.86,15.63-1.54,27.39Z" transform="translate(-22.42 -103.07)" style="fill:#7846d1"/><path d="M259.57,411h35.92c-.13-2.8-.26-5.49-.39-8-.63-12.3-1.16-20.68-1.16-20.68l-29.23,1.3-2.42.11-4.3.19s.42,7.49,1.06,18.47C259.21,405,259.38,407.93,259.57,411Z" transform="translate(-22.42 -103.07)" style="fill:#9c78ed"/><path d="M262.29,383.69l-4.3.19s.42,7.49,1.06,18.47a260.8,260.8,0,0,0,36.05.61c-.63-12.3-1.16-20.68-1.16-20.68l-29.23,1.3Z" transform="translate(-22.42 -103.07)" style="fill:#7846d1"/><path d="M266.25,411c-.68-11.76-1.23-21.85-1.54-27.39l-2.42.11c.3,5.51.86,15.56,1.53,27.28Z" transform="translate(-22.42 -103.07)" style="fill:#7846d1"/><path d="M209.42,361.44v1.78c0,10.69.07,19,.12,23a171.18,171.18,0,0,0,31,5.44l1.4.1.76.05c.55,0,1.11.08,1.66.1l1.85.1a164.86,164.86,0,0,0,21.08-.37c1.42-.12,2.83-.26,4.25-.41l.27,0,1.09-.13.66-.08a172.76,172.76,0,0,0,24.52-4.77c0-1.85,0-4.59,0-8v-2h0c0-4.93,0-11.08-.09-18,0-.59,0-1.19,0-1.8,0-4.62-.09-9.58-.15-14.74,0-.6,0-1.2,0-1.8-.07-5.3-.15-10.81-.24-16.4-.06-3.41-.12-6.85-.19-10.3s-.14-7-.23-10.46c0-.76,0-1.51-.06-2.27-.8-32.85-2.18-63.05-4.47-66.41-1.59-2.33-5.23-5.07-9.51-7.84l-1.59-1c-1.83-1.14-16.71-6.19-18.6-7.31l-15.74-1.09c-.09.05-15.14,5.13-15.23,5.18-.65.37-1.31.74-2,1.12-5.57,3.21-11.07,6.6-14.24,9.51a15.65,15.65,0,0,0-1.22,1.24,11.18,11.18,0,0,0-.74.94,5.19,5.19,0,0,0-.55,1.38c-1.9,6.92-2.9,34.1-3.4,63.68l-.09,6.39c0,.94,0,1.88,0,2.82,0,.64,0,1.29,0,1.94v1c0,1.61,0,3.22-.05,4.81,0,1.19,0,2.36,0,3.54C209.46,335.18,209.41,349.65,209.42,361.44Z" transform="translate(-22.42 -103.07)" style="fill:#7846d1"/><path d="M181.29,403.68c-.39,4.2,4.73,1.92,3.28-6.59s2.66-16.21,4.42-16-1.46,9.3.11,12.55,3.6-3.07,5.63-6.91,2-12.69,1-18.9,10.3-43.93,10.36-54.87l1.37-4.63,5-17,7.86-26.57s-4.71-20.11-12.65-18.39c0,0-4.2,14-8.7,29.81-.76,2.68-1.53,5.42-2.29,8.15-3.2,11.45-6.2,22.76-7.6,29.47-3.7,17.72-4,54.54-4,54.54s-6.52,13.53-6.67,19.55C178.3,394.37,181.67,399.48,181.29,403.68Z" transform="translate(-22.42 -103.07)" style="fill:#ffa681"/><path d="M196.72,284.39l10.76,24,5-17L199,276.24C198.25,278.92,197.48,281.66,196.72,284.39Z" transform="translate(-22.42 -103.07)" style="fill:#f97853"/><path d="M196.19,277.25c4.72,8.09,9.52,16.13,14.3,24.19,1.57-5.27,3.2-10.33,4.73-15a.06.06,0,0,0,0,0c.62-1.86,1.21-3.65,1.79-5.37a.11.11,0,0,1,0-.08c.19-.61.39-1.2.59-1.78h0c2.28-6.89,4.05-12.38,4.55-15.57,1.36-8.61-2.35-25.47-7.58-28.79h0c-.14.3-.55-.64-.8-.06-.92,2.12-5,7.36-7,12.47l-.79,2C203.07,256.77,199.5,266.54,196.19,277.25Z" transform="translate(-22.42 -103.07)" style="fill:#7846d1"/><path d="M254.36,232.49c6.82,0,11.62-6.22,11.82-6.48a.92.92,0,0,0-.12-1.24.79.79,0,0,0-1.16.13c-.06.08-4.53,5.83-10.54,5.83s-9.55-6.51-9.59-6.57a.79.79,0,0,0-1.12-.32.91.91,0,0,0-.3,1.2C243.51,225.34,247.47,232.49,254.36,232.49Z" transform="translate(-22.42 -103.07)" style="fill:#6020bd"/><path d="M283.17,292.05a.74.74,0,0,0,.37-.1.92.92,0,0,0,.37-1.19l-3-6.28a.82.82,0,0,0-1.12-.39.91.91,0,0,0-.36,1.19l3,6.28A.82.82,0,0,0,283.17,292.05Z" transform="translate(-22.42 -103.07)" style="fill:#6020bd"/><path d="M289.36,286.9a.69.69,0,0,0,.37.13.83.83,0,0,0,.89-.8l.59-7a.87.87,0,0,0-.76-1,.85.85,0,0,0-.89.8l-.59,7A.89.89,0,0,0,289.36,286.9Z" transform="translate(-22.42 -103.07)" style="fill:#6020bd"/><path d="M273.4,276a.85.85,0,0,0,.82-.75l1.07-6.94a.89.89,0,0,0-.68-1,.84.84,0,0,0-1,.73L272.58,275a.87.87,0,0,0,.68,1Z" transform="translate(-22.42 -103.07)" style="fill:#6020bd"/><path d="M246.71,278.62a.81.81,0,0,0,.42-.12.94.94,0,0,0,.29-1.22l-3.35-6a.8.8,0,0,0-1.14-.31.92.92,0,0,0-.29,1.21l3.35,6.06A.84.84,0,0,0,246.71,278.62Z" transform="translate(-22.42 -103.07)" style="fill:#6020bd"/><path d="M279.5,251.48a.85.85,0,0,0,.45-.14l5.52-3.82a.92.92,0,0,0,.25-1.23.8.8,0,0,0-1.15-.26l-5.52,3.82a.91.91,0,0,0-.25,1.22A.81.81,0,0,0,279.5,251.48Z" transform="translate(-22.42 -103.07)" style="fill:#6020bd"/><path d="M254.88,307.89a.85.85,0,0,0,.38-.09.91.91,0,0,0,.36-1.19l-3-6.28a.8.8,0,0,0-1.11-.39.92.92,0,0,0-.37,1.19l3,6.28A.82.82,0,0,0,254.88,307.89Z" transform="translate(-22.42 -103.07)" style="fill:#6020bd"/><path d="M267.94,256.2a.79.79,0,0,0,.7-.41.92.92,0,0,0-.26-1.23l-5.58-3.73a.8.8,0,0,0-1.14.28.93.93,0,0,0,.26,1.22l5.58,3.74A.8.8,0,0,0,267.94,256.2Z" transform="translate(-22.42 -103.07)" style="fill:#6020bd"/><path d="M281.2,230.09a.85.85,0,0,0,.1.48.83.83,0,0,0,.67.47.86.86,0,0,0,.89-.82l.26-4c-.52-.34-1.05-.68-1.6-1Z" transform="translate(-22.42 -103.07)" style="fill:#6020bd"/><path d="M288.64,268.62a.82.82,0,0,0,.7-.42.91.91,0,0,0-.26-1.22l-5.58-3.73a.79.79,0,0,0-1.14.28.92.92,0,0,0,.26,1.22l5.58,3.73A.74.74,0,0,0,288.64,268.62Z" transform="translate(-22.42 -103.07)" style="fill:#6020bd"/><path d="M244.16,238a.79.79,0,0,0,.46-.15.92.92,0,0,0,.23-1.23l-3.18-5.16a.8.8,0,0,0-1.15-.25.93.93,0,0,0-.23,1.23l3.18,5.16A.81.81,0,0,0,244.16,238Z" transform="translate(-22.42 -103.07)" style="fill:#6020bd"/><path d="M241.31,327.15a.78.78,0,0,0,.6-.28l4.56-5.07a1,1,0,0,0,0-1.26.79.79,0,0,0-1.17,0l-4.56,5.08a.93.93,0,0,0,0,1.25A.77.77,0,0,0,241.31,327.15Z" transform="translate(-22.42 -103.07)" style="fill:#6020bd"/><path d="M258.06,326.09a.79.79,0,0,0,.59-.27l4.56-5.08a.92.92,0,0,0,0-1.25.79.79,0,0,0-1.17,0l-4.56,5.08a.92.92,0,0,0,0,1.25A.79.79,0,0,0,258.06,326.09Z" transform="translate(-22.42 -103.07)" style="fill:#6020bd"/><path d="M270.1,360.41a1,1,0,0,0,0-.7l-2.85-6.34a.8.8,0,0,0-1.1-.42.9.9,0,0,0-.39,1.18l2.84,6.35a.8.8,0,0,0,1.11.41A.9.9,0,0,0,270.1,360.41Z" transform="translate(-22.42 -103.07)" style="fill:#6020bd"/><path d="M222,381.34a.92.92,0,0,0,0-.69l-2.84-6.35a.81.81,0,0,0-1.11-.41.91.91,0,0,0-.39,1.18l2.85,6.35a.8.8,0,0,0,1.1.41A.85.85,0,0,0,222,381.34Z" transform="translate(-22.42 -103.07)" style="fill:#6020bd"/><path d="M242.68,391.85l1.66.11.58-4a.88.88,0,0,0-.69-1,.84.84,0,0,0-.95.74Z" transform="translate(-22.42 -103.07)" style="fill:#6020bd"/><path d="M236.06,379.91a.87.87,0,0,0,.34-.59l1-7a.88.88,0,0,0-.69-1,.85.85,0,0,0-.95.74l-1,7a.89.89,0,0,0,.7,1A.84.84,0,0,0,236.06,379.91Z" transform="translate(-22.42 -103.07)" style="fill:#6020bd"/><path d="M276.07,321.77a.7.7,0,0,0,.41-.12.91.91,0,0,0,.3-1.21l-3.29-6.09a.81.81,0,0,0-1.14-.32.92.92,0,0,0-.3,1.21l3.3,6.09A.8.8,0,0,0,276.07,321.77Z" transform="translate(-22.42 -103.07)" style="fill:#6020bd"/><path d="M266.39,306.55a.82.82,0,0,0,.74-.48l3-6.25a.93.93,0,0,0-.35-1.2.81.81,0,0,0-1.12.38l-3,6.26a.91.91,0,0,0,.36,1.19A.75.75,0,0,0,266.39,306.55Z" transform="translate(-22.42 -103.07)" style="fill:#6020bd"/><path d="M292.6,305.63a.9.9,0,0,0,.31.25.81.81,0,0,0,.86-.14l3.39-3.05c0-.75,0-1.51-.05-2.27l-4.41,4A.93.93,0,0,0,292.6,305.63Z" transform="translate(-22.42 -103.07)" style="fill:#6020bd"/><path d="M266.43,240.2a.82.82,0,0,0,.74-.48l3-6.25a.92.92,0,0,0-.36-1.2.81.81,0,0,0-1.12.38l-3,6.26a.91.91,0,0,0,.36,1.19A.75.75,0,0,0,266.43,240.2Z" transform="translate(-22.42 -103.07)" style="fill:#6020bd"/><path d="M247.1,263.11h.15a.89.89,0,0,0,.66-1l-1.25-6.91a.82.82,0,0,0-1-.7.88.88,0,0,0-.66,1l1.25,6.91A.85.85,0,0,0,247.1,263.11Z" transform="translate(-22.42 -103.07)" style="fill:#6020bd"/><path d="M257.86,269.18l.16,0a.89.89,0,0,0,.66-1l-1.25-6.9a.83.83,0,0,0-1-.71.89.89,0,0,0-.66,1l1.25,6.91A.84.84,0,0,0,257.86,269.18Z" transform="translate(-22.42 -103.07)" style="fill:#6020bd"/><path d="M250.15,246.38a.81.81,0,0,0,.7-.41l3.53-5.94a.92.92,0,0,0-.26-1.22.79.79,0,0,0-1.14.27L249.45,245a.91.91,0,0,0,.26,1.22A.72.72,0,0,0,250.15,246.38Z" transform="translate(-22.42 -103.07)" style="fill:#6020bd"/><path d="M282.5,307.65a1,1,0,0,0,.14-1l-2.84-6.35a.8.8,0,0,0-1.1-.42.9.9,0,0,0-.39,1.18l2.83,6.35a.81.81,0,0,0,1.11.42A.92.92,0,0,0,282.5,307.65Z" transform="translate(-22.42 -103.07)" style="fill:#6020bd"/><path d="M261.16,289.22a.83.83,0,0,0,.78-.56l2.39-6.55a.9.9,0,0,0-.47-1.15.81.81,0,0,0-1.07.5l-2.4,6.55a.92.92,0,0,0,.47,1.15A.8.8,0,0,0,261.16,289.22Z" transform="translate(-22.42 -103.07)" style="fill:#6020bd"/><path d="M234.82,329.7a.74.74,0,0,0,.37-.1.92.92,0,0,0,.37-1.19l-3-6.28a.82.82,0,0,0-1.12-.39.91.91,0,0,0-.36,1.19l3,6.28A.82.82,0,0,0,234.82,329.7Z" transform="translate(-22.42 -103.07)" style="fill:#6020bd"/><path d="M278.48,374.83a.85.85,0,0,0,.1.4.79.79,0,0,0,1.11.37l5.85-3.23a.93.93,0,0,0,.35-1.2.81.81,0,0,0-1.12-.38L278.93,374A.9.9,0,0,0,278.48,374.83Z" transform="translate(-22.42 -103.07)" style="fill:#6020bd"/><path d="M294.34,378.85a.93.93,0,0,0,.09.4.81.81,0,0,0,1.12.38l2.54-1.41v-2l-3.3,1.83A.88.88,0,0,0,294.34,378.85Z" transform="translate(-22.42 -103.07)" style="fill:#6020bd"/><path d="M269.79,386.68l2,4.56,1.09-.12.66-.08-2.24-5.11a.81.81,0,0,0-1.11-.43A.92.92,0,0,0,269.79,386.68Z" transform="translate(-22.42 -103.07)" style="fill:#6020bd"/><path d="M224,313.69a.84.84,0,0,0,.81-.75l1.08-6.94a.89.89,0,0,0-.69-1,.83.83,0,0,0-1,.73l-1.07,6.94a.87.87,0,0,0,.68,1Z" transform="translate(-22.42 -103.07)" style="fill:#6020bd"/><path d="M223.35,262.46a.72.72,0,0,0,.42-.13.9.9,0,0,0,.29-1.21l-3.35-6.06a.79.79,0,0,0-1.13-.31.91.91,0,0,0-.29,1.22l3.35,6A.82.82,0,0,0,223.35,262.46Z" transform="translate(-22.42 -103.07)" style="fill:#6020bd"/><path d="M234.13,287.07a.85.85,0,0,0,.45-.14l5.52-3.82a.92.92,0,0,0,.25-1.23.8.8,0,0,0-1.15-.26l-5.52,3.82a.91.91,0,0,0-.25,1.22A.81.81,0,0,0,234.13,287.07Z" transform="translate(-22.42 -103.07)" style="fill:#6020bd"/><path d="M292.63,328.35a.74.74,0,0,0,.37-.1.92.92,0,0,0,.37-1.19l-3-6.28a.8.8,0,0,0-1.11-.39.91.91,0,0,0-.36,1.19l3,6.28A.81.81,0,0,0,292.63,328.35Z" transform="translate(-22.42 -103.07)" style="fill:#6020bd"/><path d="M224.71,296.61a.83.83,0,0,0,.71-.42.93.93,0,0,0-.26-1.22l-5.58-3.74a.8.8,0,0,0-1.14.29.91.91,0,0,0,.26,1.22l5.58,3.73A.76.76,0,0,0,224.71,296.61Z" transform="translate(-22.42 -103.07)" style="fill:#6020bd"/><path d="M238.09,305.49a.77.77,0,0,0,.78.2.88.88,0,0,0,.58-1.08l-1.73-6.79a.82.82,0,0,0-1-.63.9.9,0,0,0-.58,1.09l1.73,6.79A.8.8,0,0,0,238.09,305.49Z" transform="translate(-22.42 -103.07)" style="fill:#6020bd"/><path d="M214.55,233.81l1.44,2.34a.81.81,0,0,0,.69.4.72.72,0,0,0,.46-.15.92.92,0,0,0,.24-1.22l-1.61-2.61C215.31,233,214.9,233.41,214.55,233.81Z" transform="translate(-22.42 -103.07)" style="fill:#6020bd"/><path d="M208.24,249.25l1.53,2.49a.82.82,0,0,0,.7.4.85.85,0,0,0,.45-.14.93.93,0,0,0,.24-1.23L209,247.23C208.74,247.89,208.5,248.56,208.24,249.25Z" transform="translate(-22.42 -103.07)" style="fill:#6020bd"/><path d="M280,350.27a.8.8,0,0,0,.6-.27l4.56-5.08a.92.92,0,0,0,0-1.25.79.79,0,0,0-1.18,0l-4.55,5.07a.94.94,0,0,0,0,1.26A.81.81,0,0,0,280,350.27Z" transform="translate(-22.42 -103.07)" style="fill:#6020bd"/><path d="M249.63,368a.8.8,0,0,0,.6-.27l4.56-5.08a.92.92,0,0,0,0-1.25.8.8,0,0,0-1.18,0L249,366.52a.92.92,0,0,0,0,1.25A.78.78,0,0,0,249.63,368Z" transform="translate(-22.42 -103.07)" style="fill:#6020bd"/><path d="M241.21,361a1,1,0,0,0,.18-.67l-.83-7a.83.83,0,0,0-.92-.77.87.87,0,0,0-.72,1l.82,7a.84.84,0,0,0,.93.77A.82.82,0,0,0,241.21,361Z" transform="translate(-22.42 -103.07)" style="fill:#6020bd"/><path d="M258.48,380.65a.79.79,0,0,0,.59-.27l4.56-5.08a.92.92,0,0,0,0-1.25.79.79,0,0,0-1.17,0l-4.56,5.08a.92.92,0,0,0,0,1.25A.79.79,0,0,0,258.48,380.65Z" transform="translate(-22.42 -103.07)" style="fill:#6020bd"/><path d="M209.42,361.44v1.78l5.15.46a.84.84,0,0,0,.89-.81.88.88,0,0,0-.75-1Z" transform="translate(-22.42 -103.07)" style="fill:#6020bd"/><path d="M269.66,339.6a.8.8,0,0,0,.6-.27l4.56-5.08a.93.93,0,0,0,0-1.25.79.79,0,0,0-1.17,0l-4.56,5.08a.93.93,0,0,0,0,1.25A.78.78,0,0,0,269.66,339.6Z" transform="translate(-22.42 -103.07)" style="fill:#6020bd"/><path d="M247.74,337.39a.88.88,0,0,0,.29.62l5,4.53a.79.79,0,0,0,1.17-.11.94.94,0,0,0-.1-1.25l-5-4.53a.8.8,0,0,0-1.17.11A.92.92,0,0,0,247.74,337.39Z" transform="translate(-22.42 -103.07)" style="fill:#6020bd"/><path d="M223.74,362.3a.73.73,0,0,0,.42-.12.92.92,0,0,0,.3-1.21l-3.3-6.09a.79.79,0,0,0-1.13-.32.91.91,0,0,0-.3,1.21l3.29,6.09A.82.82,0,0,0,223.74,362.3Z" transform="translate(-22.42 -103.07)" style="fill:#6020bd"/><path d="M218,344.2a.8.8,0,0,0,.73-.48l3-6.25a.92.92,0,0,0-.36-1.2.8.8,0,0,0-1.11.38l-3,6.26a.91.91,0,0,0,.36,1.19A.75.75,0,0,0,218,344.2Z" transform="translate(-22.42 -103.07)" style="fill:#6020bd"/><path d="M227,273.19a.8.8,0,0,0,.73-.48l3-6.25a.92.92,0,0,0-.36-1.2.8.8,0,0,0-1.11.39l-3,6.25a.91.91,0,0,0,.36,1.19A.75.75,0,0,0,227,273.19Z" transform="translate(-22.42 -103.07)" style="fill:#6020bd"/><path d="M223.74,247l.16,0a.89.89,0,0,0,.66-1L223.31,239a.83.83,0,0,0-1-.7.88.88,0,0,0-.66,1l1.25,6.91A.84.84,0,0,0,223.74,247Z" transform="translate(-22.42 -103.07)" style="fill:#6020bd"/><path d="M208.59,270.79a.47.47,0,0,0,.16,0,.87.87,0,0,0,.65-1l-1.24-6.91a.85.85,0,0,0-1-.71.89.89,0,0,0-.66,1l1.25,6.91A.83.83,0,0,0,208.59,270.79Z" transform="translate(-22.42 -103.07)" style="fill:#6020bd"/><path d="M234.51,253h.15a.88.88,0,0,0,.66-1l-1.25-6.91a.83.83,0,0,0-1-.7.88.88,0,0,0-.65,1l1.24,6.91A.85.85,0,0,0,234.51,253Z" transform="translate(-22.42 -103.07)" style="fill:#6020bd"/><path d="M229.57,229a.8.8,0,0,0,.46,0,.9.9,0,0,0,.53-.63l1.39-6.35L230,223.06,229,227.88A.89.89,0,0,0,229.57,229Z" transform="translate(-22.42 -103.07)" style="fill:#6020bd"/><path d="M210.6,281.47a.81.81,0,0,0,.7-.41l3.52-5.94a.92.92,0,0,0-.25-1.22.8.8,0,0,0-1.15.27l-3.52,5.94a.93.93,0,0,0,.25,1.23A.81.81,0,0,0,210.6,281.47Z" transform="translate(-22.42 -103.07)" style="fill:#6020bd"/><path d="M234.14,345.3a.93.93,0,0,0,.15-1L231.45,338a.8.8,0,0,0-1.1-.42.9.9,0,0,0-.39,1.18l2.83,6.35a.81.81,0,0,0,1.11.42A.75.75,0,0,0,234.14,345.3Z" transform="translate(-22.42 -103.07)" style="fill:#6020bd"/><path d="M292.46,357.23l5.54,1c0-.59,0-1.19,0-1.79l-5.26-.92a.84.84,0,0,0-1,.73A.88.88,0,0,0,292.46,357.23Z" transform="translate(-22.42 -103.07)" style="fill:#6020bd"/><path d="M294.15,341l3.69.64c0-.6,0-1.2,0-1.8l-3.4-.59a.83.83,0,0,0-.95.73A.87.87,0,0,0,294.15,341Z" transform="translate(-22.42 -103.07)" style="fill:#6020bd"/><path d="M212.81,326.87a.84.84,0,0,0,.78-.56l2.39-6.55a.9.9,0,0,0-.47-1.15.81.81,0,0,0-1.07.5l-2.4,6.55a.91.91,0,0,0,.47,1.15A.8.8,0,0,0,212.81,326.87Z" transform="translate(-22.42 -103.07)" style="fill:#6020bd"/><path d="M209.77,306.2c1.55-6.43,3.51-13.58,5.45-19.74v0c.6-1.9,1.2-3.71,1.78-5.37l0-.09c.18-.52.37-1,.55-1.52a.77.77,0,0,0,0-.25h0a.73.73,0,0,0-.48-.68.73.73,0,0,0-.94.44c-2,5.42-4.33,13.22-6.35,20.87Z" transform="translate(-22.42 -103.07)" style="fill:#6020bd"/><path d="M233.54,182s-5.77-6.37-3.59-13.77,8.14-7.32,8.14-7.32,3.47-7.87,9.4-8.13S259,142,264.38,144.86s-.58,9.09-.58,9.09,9.24-9.74,12.28-6.89-4.23,10.52-4.23,10.52,7.76-5.45,10.31-3.37-6.08,11-6.08,11,5.58,10.07,0,14.58Z" transform="translate(-22.42 -103.07)" style="fill:#403657"/><path d="M273.88,184.13s3.69-4.92,6.44-.85-1.14,16.09-7.86,13.15Z" transform="translate(-22.42 -103.07)" style="fill:#f97853"/><path d="M273.93,192.72a.55.55,0,0,0,.54-.42c1-3.71,4.89-5.21,4.93-5.23A.57.57,0,1,0,279,186c-.18.07-4.42,1.71-5.62,6a.57.57,0,0,0,.39.7Z" transform="translate(-22.42 -103.07)" style="fill:#ea5143"/><path d="M277.81,190.85a.61.61,0,0,0,.31-.09.58.58,0,0,0,.17-.79,5.19,5.19,0,0,0-2.14-1.71.56.56,0,1,0-.46,1,4,4,0,0,1,1.64,1.3A.56.56,0,0,0,277.81,190.85Z" transform="translate(-22.42 -103.07)" style="fill:#ea5143"/><path d="M235.83,184.13s-3.69-4.92-6.43-.85,1.13,16.09,7.85,13.15Z" transform="translate(-22.42 -103.07)" style="fill:#f97853"/><path d="M235.78,192.72a.56.56,0,0,1-.54-.42c-1-3.71-4.89-5.21-4.93-5.23a.57.57,0,0,1,.4-1.06c.18.07,4.42,1.71,5.62,6a.57.57,0,0,1-.39.7Z" transform="translate(-22.42 -103.07)" style="fill:#ea5143"/><path d="M231.9,190.85a.55.55,0,0,1-.3-.09.57.57,0,0,1-.17-.79,5,5,0,0,1,2.13-1.71.57.57,0,0,1,.75.28.56.56,0,0,1-.29.75,4.1,4.1,0,0,0-1.64,1.3A.56.56,0,0,1,231.9,190.85Z" transform="translate(-22.42 -103.07)" style="fill:#ea5143"/><path d="M245.77,206.63v12s3.56,6.09,8.39,6.5,9.09-5.24,9.09-5.24V207.47Z" transform="translate(-22.42 -103.07)" style="fill:#ffa681"/><path d="M245.77,206.63v5.31c3.23,3.59,9,4.48,17.48,3.23v-7.7Z" transform="translate(-22.42 -103.07)" style="fill:#f97853"/><path d="M233.17,175.93a115.34,115.34,0,0,0,1.54,15.1h0a.43.43,0,0,1,0,.05h0c.22,1.14.46,2.21.73,3.17.16.56.33,1.15.53,1.75,2.83,8.89,9.4,21.76,25.9,15.87,6.95-2.48,10.57-9.65,12.41-17.44.11-.46.21-.92.3-1.36s.12-.58.18-.86l.08-.42c0-.07,0-.12,0-.15v0a85.17,85.17,0,0,0,1.17-16.36,12.46,12.46,0,0,0-6.33-10.62c-10.4-5.9-21.37-3.7-28.6-.92A12.43,12.43,0,0,0,233.17,175.93Z" transform="translate(-22.42 -103.07)" style="fill:#ffa681"/><path d="M234.71,191h0a.43.43,0,0,1,0,.05h0c.1.39.68,2.52,1.26,4.92,2.83,8.89,9.4,21.76,25.9,15.87,6.95-2.48,10.57-9.65,12.41-17.44.11-.46.21-.92.3-1.36s.12-.58.18-.86l.08-.42c0-.07,0-.12,0-.15v0l-2.43-.49a18.47,18.47,0,0,1-2.75,6.39c-2-4.92-12.47-1.65-12.47-1.65h-.05a6.39,6.39,0,0,1-1.94.3,6.57,6.57,0,0,1-2-.31s-10.29-3.41-12.42,1.28a67.5,67.5,0,0,1-3.58-6.3l-2.54.18Zm20.51,7.06c11.78-1.59,9.93,4.76,9.93,4.76a19.6,19.6,0,0,1-3.31,2.51,13.59,13.59,0,0,1-6.93,1.89c-1.81-.08-2.31.29-6.88-2.18a11.49,11.49,0,0,1-2.42-1.84h0C245.41,202,243.41,196.06,255.22,198.09Z" transform="translate(-22.42 -103.07)" style="fill:#403657"/><path d="M244.55,184.57c0,1.28.66,2.32,1.47,2.32s1.47-1,1.47-2.32-.66-2.31-1.47-2.31S244.55,183.3,244.55,184.57Z" transform="translate(-22.42 -103.07)" style="fill:#403657"/><path d="M262.92,184.57c0,1.28.65,2.32,1.46,2.32s1.47-1,1.47-2.32-.65-2.31-1.47-2.31S262.92,183.3,262.92,184.57Z" transform="translate(-22.42 -103.07)" style="fill:#403657"/><path d="M240.79,176.78s6.07-2.4,10.74-.38l-.46,2.6s-6.86-.58-10.32.82A4.47,4.47,0,0,1,240.79,176.78Z" transform="translate(-22.42 -103.07)" style="fill:#403657"/><path d="M269.65,176.79s-6.11-2.41-10.82-.38l.47,2.62s6.91-.58,10.39.83A4.5,4.5,0,0,0,269.65,176.79Z" transform="translate(-22.42 -103.07)" style="fill:#403657"/><path d="M254.66,194.9a6.12,6.12,0,0,1-2.06-.43.57.57,0,0,1,.43-1.05,3.4,3.4,0,0,0,2.28.21.62.62,0,0,0,.28-.53,86.14,86.14,0,0,0-.34-8.69.57.57,0,0,1,.52-.62.58.58,0,0,1,.61.52,83.9,83.9,0,0,1,.34,8.91,1.72,1.72,0,0,1-.83,1.39A2.36,2.36,0,0,1,254.66,194.9Z" transform="translate(-22.42 -103.07)" style="fill:#f97853"/><path d="M261.9,199.23c-.43,2.17-1.86,6.16-6.69,6.16s-6.2-3.65-6.67-6.16Z" transform="translate(-22.42 -103.07)" style="fill:#fff"/><path d="M337.68,304.86c-1.54,14.09-10.74,45.55-17.1,51.71-8.29,8-35.56,24.91-49.77,33.57-2.57,1.57,9.47,12,9.47,12S318,386,332.41,373.26c4.08-3.6,12.35-14.95,21.69-36.56,2.84-6.55,9.7-19.77,9.34-28.39C363,298.39,347.28,300,337.68,304.86Z" transform="translate(-22.42 -103.07)" style="fill:#7846d1"/><path d="M308.25,385.76s-10.26,3.89-13.9,8.18-8.44,7.92-7.27,9.61,6.49-3.25,6.49-3.25,1.46,5.43,6.63,6,14.93-9.51,14.93-9.51Z" transform="translate(-22.42 -103.07)" style="fill:#ffa681"/><path d="M409.52,344.18c0,.89,0,1.95,0,3.14s0,2.52-.08,4q0,1.5-.09,3.15c0,.93-.07,1.9-.11,2.9s-.09,2.07-.14,3.15c-.72,14.75-2.45,35.12-6.24,51.44H323c2.66-11.86,6.73-30.58,10-54.86.14-1,.27-2.05.41-3.09s.26-2.1.39-3.16c.07-.56.14-1.13.2-1.7s.11-.93.16-1.4c.15-1.31.29-2.59.41-3.86.1-1.05.19-2.09.28-3.11,1.37-16.33.89-28.56,2.85-35.89,2.29-8.53,29-18.3,29-18.3l16.74.87s15.95,5.21,24.48,12.7,1.4,29.84,1.61,42.53C409.52,343.1,409.52,343.61,409.52,344.18Z" transform="translate(-22.42 -103.07)" style="fill:#9c78ed"/><path d="M409.5,347.32a186.72,186.72,0,0,1-22.26,1.23,330.08,330.08,0,0,1-52.69-4.69c.1-1.05.19-2.09.28-3.11,6.43,1.14,43.61,7.29,74.69,3.43C409.52,345.07,409.52,346.13,409.5,347.32Z" transform="translate(-22.42 -103.07)" style="fill:#e0d5f8"/><path d="M409.42,351.29q0,1.5-.09,3.15a186.09,186.09,0,0,1-22.09,1.21,328.69,328.69,0,0,1-53.46-4.83c.07-.56.14-1.13.2-1.7s.11-.93.16-1.4C337.84,348.4,376.94,355.3,409.42,351.29Z" transform="translate(-22.42 -103.07)" style="fill:#e0d5f8"/><path d="M409.22,357.34c-.05,1-.09,2.07-.14,3.15A183.38,183.38,0,0,1,386,361.82a330.36,330.36,0,0,1-53-4.75c.14-1,.27-2.05.41-3.09C339.15,355,377.56,361.48,409.22,357.34Z" transform="translate(-22.42 -103.07)" style="fill:#e0d5f8"/><path d="M371.51,302.61c8.32,0,16-8.84,16.33-9.23a.59.59,0,1,0-.89-.77c-.08.1-8.12,9.36-16.16,8.8a.59.59,0,0,0-.08,1.17Z" transform="translate(-22.42 -103.07)" style="fill:#7846d1"/><path d="M378.73,402.08a.59.59,0,0,0,.06-1.17c-21.49-2.48-30.4-39.68-30.48-40.06a.59.59,0,1,0-1.15.27c.37,1.56,9.19,38.39,31.5,40.95Z" transform="translate(-22.42 -103.07)" style="fill:#7846d1"/><path d="M370.17,390.82a.59.59,0,0,0,.5-.28.59.59,0,0,0-.2-.81c-11.43-7.05-13.13-17.44-13.14-17.54a.59.59,0,0,0-.67-.49.58.58,0,0,0-.49.66c.06.45,1.77,11,13.69,18.37A.56.56,0,0,0,370.17,390.82Z" transform="translate(-22.42 -103.07)" style="fill:#7846d1"/><circle cx="354.42" cy="144.81" r="23.55" style="fill:#403657"/><path d="M353.68,243.66s-6.67-1.84-5.79-8.31c.75-5.51,7.22-1.94,6.65-6.25s-1.83-8.22,3.74-9.29c4.87-.94,5,2.4,11.35-2.45,7.55-5.72,13.36,7.53,20.1,7.93,9.95.58,11.21,6.21,12.18,10.71s-2.85,7.66-2.85,7.66Z" transform="translate(-22.42 -103.07)" style="fill:#403657"/><path d="M357.25,254.47s-3.73-5-6.5-.86,1.14,16.26,7.93,13.29Z" transform="translate(-22.42 -103.07)" style="fill:#f97853"/><path d="M357.2,263.15a.58.58,0,0,1-.55-.42c-1-3.75-4.94-5.27-5-5.29a.57.57,0,0,1,.41-1.07c.18.07,4.46,1.73,5.67,6.05a.58.58,0,0,1-.39.71Z" transform="translate(-22.42 -103.07)" style="fill:#ea5143"/><path d="M353.28,261.26a.59.59,0,0,1-.31-.09.58.58,0,0,1-.17-.8,5.22,5.22,0,0,1,2.15-1.73.58.58,0,1,1,.47,1.05,4.14,4.14,0,0,0-1.66,1.31A.56.56,0,0,1,353.28,261.26Z" transform="translate(-22.42 -103.07)" style="fill:#ea5143"/><path d="M384.3,277.2v12.08s-5,5.33-9.84,5.74-7.82-5.35-7.82-5.35V278.05Z" transform="translate(-22.42 -103.07)" style="fill:#ffa681"/><path d="M384.3,277.2v5.36c-3.27,3.63-9.07,4.54-17.66,3.27v-7.78Z" transform="translate(-22.42 -103.07)" style="fill:#f97853"/><path d="M397,246.18a117.64,117.64,0,0,1-1.57,15.26c-.22,1.17-.48,2.27-.76,3.26-2.54,8.9-8.9,24.16-26.7,17.81-7.86-2.81-11.5-11.57-13.13-20.47a86.23,86.23,0,0,1-1.18-16.53,12.61,12.61,0,0,1,6.39-10.73c10.51-5.95,21.6-3.73,28.9-.93A12.59,12.59,0,0,1,397,246.18Z" transform="translate(-22.42 -103.07)" style="fill:#ffa681"/><path d="M375.68,254.71v1a7.12,7.12,0,0,0,7.11,7.13H383a6.43,6.43,0,0,0,4.43-1.95,7,7,0,0,0,2.05-5v-1.13a2.34,2.34,0,0,0-.17-.88,2.36,2.36,0,0,0-.56-.89,2.52,2.52,0,0,0-1.77-.73h-8.81a2.49,2.49,0,0,0-2.26,1.43,2.31,2.31,0,0,0-.24,1A.13.13,0,0,0,375.68,254.71Zm1,0a1.46,1.46,0,0,1,1.47-1.46H387a1.46,1.46,0,0,1,1.46,1.46v1.13a5.94,5.94,0,0,1-1.74,4.26,5.41,5.41,0,0,1-3.72,1.66h-.21a6.08,6.08,0,0,1-6.07-6.09Z" transform="translate(-22.42 -103.07)" style="fill:#403657"/><path d="M358,254.71v1a7.12,7.12,0,0,0,7.11,7.13h.24a6.41,6.41,0,0,0,4.42-1.95,7,7,0,0,0,2.05-5v-1.17a2.36,2.36,0,0,0-.21-1,2.5,2.5,0,0,0-2.29-1.5h-8.81a2.47,2.47,0,0,0-2.41,1.83A2.18,2.18,0,0,0,358,254.71Zm1,0a1.46,1.46,0,0,1,1.47-1.46h8.81a1.46,1.46,0,0,1,1.47,1.46v1.13a6,6,0,0,1-1.75,4.26,5.37,5.37,0,0,1-3.71,1.66h-.22a6.09,6.09,0,0,1-6.07-6.09Z" transform="translate(-22.42 -103.07)" style="fill:#403657"/><path d="M395.78,251.79a12.42,12.42,0,0,0-6,1.15c-.24.12-.87.53-.9.55l.5.88a10.66,10.66,0,0,1,1-.54,10.77,10.77,0,0,1,5.41-1Z" transform="translate(-22.42 -103.07)" style="fill:#403657"/><path d="M376.38,254.75l.34-1a10.71,10.71,0,0,0-3.12-.52,6.76,6.76,0,0,0-2.85.55l.45.93a6.27,6.27,0,0,1,2.4-.44A10,10,0,0,1,376.38,254.75Z" transform="translate(-22.42 -103.07)" style="fill:#403657"/><path d="M354.4,252v1a13.55,13.55,0,0,1,4.17,1.15l.46-.93A14,14,0,0,0,354.4,252Z" transform="translate(-22.42 -103.07)" style="fill:#403657"/><path d="M366.2,256.05c0,1.28-.67,2.33-1.49,2.33s-1.48-1.05-1.48-2.33.66-2.34,1.48-2.34S366.2,254.76,366.2,256.05Z" transform="translate(-22.42 -103.07)" style="fill:#403657"/><path d="M383.58,256.05c0,1.28-.67,2.33-1.49,2.33s-1.48-1.05-1.48-2.33.66-2.34,1.48-2.34S383.58,254.76,383.58,256.05Z" transform="translate(-22.42 -103.07)" style="fill:#403657"/><path d="M359.89,248.88s6.17-2.45,10.93-.39l-.4,2.21a20,20,0,0,0-10.19.73C359.91,250.41,359.48,249.92,359.89,248.88Z" transform="translate(-22.42 -103.07)" style="fill:#403657"/><path d="M388.16,248.88s-6.18-2.45-10.94-.39l.4,2.21a20.08,20.08,0,0,1,10.2.73C388.13,250.41,388.56,249.92,388.16,248.88Z" transform="translate(-22.42 -103.07)" style="fill:#403657"/><path d="M374.31,265.83a6.13,6.13,0,0,0,2.08-.44.57.57,0,1,0-.43-1.06,3.46,3.46,0,0,1-2.3.22.64.64,0,0,1-.29-.54c-.2-2,.35-8.72.35-8.78a.57.57,0,1,0-1.14-.1,82.39,82.39,0,0,0-.35,9,1.77,1.77,0,0,0,.84,1.4A2.4,2.4,0,0,0,374.31,265.83Z" transform="translate(-22.42 -103.07)" style="fill:#f97853"/><path d="M367.2,268.74c.47,2.36,2,6.7,7.28,6.7s6.74-4,7.25-6.7Z" transform="translate(-22.42 -103.07)" style="fill:#fff"/><path d="M374.41,278.44a6.12,6.12,0,0,0,2.8-.78.58.58,0,0,0-.6-1,4,4,0,0,1-4.29,0,.57.57,0,1,0-.6,1A5.74,5.74,0,0,0,374.41,278.44Z" transform="translate(-22.42 -103.07)" style="fill:#f97853"/><path d="M356.22,258.3c-.45-2.47-.88-5.67-.56-7.3.56-2.9,2.89-4.6,2.12-7.39s2.09-5.8,4.2-6.3,7,.58,11.91-1.79c4.64-2.27,12.7-.65,14,2.41,1.59,3.71-.57,4.06,3.77,8.07,1.72,1.59-.33,5.74-.62,8.44a18.49,18.49,0,0,0-.1,3.18v.68h5.2c.57-4.19.9-8.8,1.08-12.66a13.15,13.15,0,0,0-8.19-12.88c-7.41-2.93-18.67-5.25-29.35,1a13.21,13.21,0,0,0-6.49,11.21,97.87,97.87,0,0,0,.62,13.36Z" transform="translate(-22.42 -103.07)" style="fill:#403657"/><path d="M393.71,260.51a22.14,22.14,0,0,1,.31-4c.32-1.8.85-3.44,2.69-4.19,1.48-.6,3.06-.61,4.19,1.06,2.77,4.11-.32,16.91-7.11,13.94Z" transform="translate(-22.42 -103.07)" style="fill:#ffa681"/><path d="M395.11,263.6a.58.58,0,0,0,.46-.52c.29-3.88,3.81-6.13,3.84-6.15a.57.57,0,0,0,.18-.79.58.58,0,0,0-.79-.19c-.16.11-4,2.57-4.38,7.05a.57.57,0,0,0,.53.61A.43.43,0,0,0,395.11,263.6Z" transform="translate(-22.42 -103.07)" style="fill:#f97853"/><path d="M398.58,261a.54.54,0,0,0,.29-.15.57.57,0,0,0,0-.81,5.21,5.21,0,0,0-2.45-1.28.57.57,0,0,0-.69.43.58.58,0,0,0,.44.69,4.18,4.18,0,0,1,1.88,1A.55.55,0,0,0,398.58,261Z" transform="translate(-22.42 -103.07)" style="fill:#f97853"/><path d="M404.51,297.51c-8.39,12.71-40.48,56.66-47.72,61.76-9.43,6.65-35.13,16.1-49.88,26-5,3.35,6.83,12.82,6.83,12.82s36-10.11,52.16-20.45c4.58-2.93,23.64-22,35.79-38.95,4.16-5.8,10.94-13.86,11.91-22.43C414.73,306.35,411.63,301.07,404.51,297.51Z" transform="translate(-22.42 -103.07)" style="fill:#7846d1"/><rect x="216.18" y="296.26" width="104.61" height="12.59" rx="2.31" ry="2.31" style="fill:#1a0b42"/><path d="M238.62,411.93,219,338.29a6.5,6.5,0,0,1,6.29-8.19h43.27a6.51,6.51,0,0,1,6.27,4.75l21.65,77.08Z" transform="translate(-22.42 -103.07)" style="fill:#403657"/><path d="M274.79,334.85l21.48,76.45h4.94l-21.47-76.45a6.54,6.54,0,0,0-6.28-4.76h-4.94A6.52,6.52,0,0,1,274.79,334.85Z" transform="translate(-22.42 -103.07)" style="fill:#1a0b42"/><path d="M263.67,374.31c1.12,4.86-1.9,8.79-6.76,8.79a11.73,11.73,0,0,1-10.83-8.79c-1.12-4.86,1.9-8.79,6.76-8.79A11.73,11.73,0,0,1,263.67,374.31Z" transform="translate(-22.42 -103.07)" style="fill:#614c6e"/><path d="M397.75,140.71a6.61,6.61,0,1,1,6.6-6.61A6.62,6.62,0,0,1,397.75,140.71Zm0-11.14a4.53,4.53,0,1,0,4.53,4.53A4.53,4.53,0,0,0,397.75,129.57Z" transform="translate(-22.42 -103.07)" style="fill:#7846d1"/><path d="M421.52,163.87a6.6,6.6,0,1,1,6.6-6.6A6.62,6.62,0,0,1,421.52,163.87Zm0-11.13a4.53,4.53,0,1,0,4.53,4.53A4.53,4.53,0,0,0,421.52,152.74Z" transform="translate(-22.42 -103.07)" style="fill:#9c78ed"/><path d="M429.68,185.33a1,1,0,0,1-1-1v-4.56a1,1,0,1,1,2.07,0v4.56A1,1,0,0,1,429.68,185.33Z" transform="translate(-22.42 -103.07)" style="fill:#7846d1"/><path d="M429.68,193.32a1,1,0,0,1-1-1v-4.57a1,1,0,1,1,2.07,0v4.57A1,1,0,0,1,429.68,193.32Z" transform="translate(-22.42 -103.07)" style="fill:#7846d1"/><path d="M436.09,187H432a1,1,0,1,1,0-2.07h4.1a1,1,0,0,1,0,2.07Z" transform="translate(-22.42 -103.07)" style="fill:#7846d1"/><path d="M427.37,187h-4.11a1,1,0,0,1,0-2.07h4.11a1,1,0,0,1,0,2.07Z" transform="translate(-22.42 -103.07)" style="fill:#7846d1"/><path d="M393.22,159.73a1,1,0,0,1-1-1v-4.57a1,1,0,1,1,2.07,0v4.57A1,1,0,0,1,393.22,159.73Z" transform="translate(-22.42 -103.07)" style="fill:#5b23a9"/><path d="M393.22,167.73a1,1,0,0,1-1-1v-4.57a1,1,0,0,1,2.07,0v4.57A1,1,0,0,1,393.22,167.73Z" transform="translate(-22.42 -103.07)" style="fill:#5b23a9"/><path d="M399.63,161.45h-4.11a1,1,0,0,1,0-2.07h4.11a1,1,0,0,1,0,2.07Z" transform="translate(-22.42 -103.07)" style="fill:#5b23a9"/><path d="M390.91,161.45H386.8a1,1,0,0,1,0-2.07h4.11a1,1,0,0,1,0,2.07Z" transform="translate(-22.42 -103.07)" style="fill:#5b23a9"/><path d="M91.3,110.39a6.6,6.6,0,1,1,6.6,6.6A6.62,6.62,0,0,1,91.3,110.39Zm2.07,0a4.53,4.53,0,1,0,4.53-4.53A4.53,4.53,0,0,0,93.37,110.39Z" transform="translate(-22.42 -103.07)" style="fill:#7846d1"/><path d="M64.78,135.56a6.6,6.6,0,1,1,6.6,6.6A6.62,6.62,0,0,1,64.78,135.56Zm2.07,0A4.53,4.53,0,1,0,71.38,131,4.53,4.53,0,0,0,66.85,135.56Z" transform="translate(-22.42 -103.07)" style="fill:#9c78ed"/><path d="M51.05,144.82a1,1,0,0,0,1-1v-4.57a1,1,0,0,0-2.08,0v4.57A1,1,0,0,0,51.05,144.82Z" transform="translate(-22.42 -103.07)" style="fill:#7846d1"/><path d="M51.05,152.82a1,1,0,0,0,1-1v-4.57a1,1,0,0,0-2.08,0v4.57A1,1,0,0,0,51.05,152.82Z" transform="translate(-22.42 -103.07)" style="fill:#7846d1"/><path d="M44.64,146.54h4.1a1,1,0,1,0,0-2.07h-4.1a1,1,0,1,0,0,2.07Z" transform="translate(-22.42 -103.07)" style="fill:#7846d1"/><path d="M53.36,146.54h4.1a1,1,0,1,0,0-2.07h-4.1a1,1,0,1,0,0,2.07Z" transform="translate(-22.42 -103.07)" style="fill:#7846d1"/><path d="M74.92,109.71a1,1,0,0,0,1-1v-4.57a1,1,0,1,0-2.07,0v4.57A1,1,0,0,0,74.92,109.71Z" transform="translate(-22.42 -103.07)" style="fill:#5b23a9"/><path d="M74.92,117.7a1,1,0,0,0,1-1V112.1a1,1,0,0,0-2.07,0v4.57A1,1,0,0,0,74.92,117.7Z" transform="translate(-22.42 -103.07)" style="fill:#5b23a9"/><path d="M68.5,111.42h4.11a1,1,0,0,0,0-2.07H68.5a1,1,0,0,0,0,2.07Z" transform="translate(-22.42 -103.07)" style="fill:#5b23a9"/><path d="M77.22,111.42h4.11a1,1,0,0,0,0-2.07H77.22a1,1,0,0,0,0,2.07Z" transform="translate(-22.42 -103.07)" style="fill:#5b23a9"/><path d="M346,117.4v20.11a4.82,4.82,0,0,1-4.81,4.81H304.71l-11,4a1.4,1.4,0,0,1-1.78-1.82l4.17-10.77V117.4a4.82,4.82,0,0,1,4.82-4.82h40.33A4.82,4.82,0,0,1,346,117.4Z" transform="translate(-22.42 -103.07)" style="fill:#9c78ed"/><g style="opacity:0.5"><path d="M338.33,123.09H304.84a1.34,1.34,0,0,1-1.33-1.33h0a1.34,1.34,0,0,1,1.33-1.33h33.49a1.33,1.33,0,0,1,1.33,1.33h0A1.33,1.33,0,0,1,338.33,123.09Z" transform="translate(-22.42 -103.07)" style="fill:#e0d5f8"/><path d="M338.33,128.44H304.84a1.34,1.34,0,0,1-1.33-1.33h0a1.34,1.34,0,0,1,1.33-1.33h33.49a1.33,1.33,0,0,1,1.33,1.33h0A1.33,1.33,0,0,1,338.33,128.44Z" transform="translate(-22.42 -103.07)" style="fill:#e0d5f8"/><path d="M338.33,133.79H304.84a1.34,1.34,0,0,1-1.33-1.33h0a1.34,1.34,0,0,1,1.33-1.33h33.49a1.33,1.33,0,0,1,1.33,1.33h0A1.33,1.33,0,0,1,338.33,133.79Z" transform="translate(-22.42 -103.07)" style="fill:#e0d5f8"/></g><rect x="26.85" y="308.87" width="404.45" height="15.73" rx="7.51" ry="7.51" style="fill:#5b23a9"/><path d="M453.72,419.45v.36H49.27v-.36a7.51,7.51,0,0,1,7.51-7.51H446.21A7.51,7.51,0,0,1,453.72,419.45Z" transform="translate(-22.42 -103.07)" style="fill:#7846d1"/></svg>