<svg id="Imagen-tecnologias" xmlns="http://www.w3.org/2000/svg" width="490.508" height="494.291" viewBox="0 0 490.508 494.291">
  <path id="Path_238" data-name="Path 238" d="M439.643,387.892l175.4-101.3c4.97-2.865,4.337-7.914-1.393-11.174l-119.437-68.93c-5.73-3.308-14.388-3.672-19.358-.807L299.471,306.98c-4.97,2.865-4.353,7.914,1.377,11.174l119.437,68.93C426.015,390.393,434.689,390.757,439.643,387.892Z" transform="translate(-207.842 59.206)" fill="#c4d9e8" opacity="0.5"/>
  <path id="Path_239" data-name="Path 239" d="M396.828,193.325l175.4-101.3a7.06,7.06,0,0,1,5.935-.728h0l.317.111h.079l6.331,2.422-5.682,2.786a2.3,2.3,0,0,0,0,.317l28.569,130.042c1.424,6.521-1.44,14.118-6.331,16.983L430.272,342.788l.6,7.249-6.917-2.691a9.718,9.718,0,0,1-4.97-7.043L390.418,210.245C389.009,203.787,391.874,196.19,396.828,193.325Z" transform="translate(-346.288 -6.532)" fill="#173d7a"/>
  <path id="Path_240" data-name="Path 240" d="M402.059,193.325l175.4-101.3A7.06,7.06,0,0,1,583.4,91.3h0l.317.111h.079l6.331,2.422-5.682,2.786a2.312,2.312,0,0,0,0,.317l18.835,85.708L517.444,249.5l-121-49.225a13.659,13.659,0,0,1,5.619-6.948Z" transform="translate(-351.519 -6.532)" fill="#396caa"/>
  <path id="Path_241" data-name="Path 241" d="M524.449,175.277l-13.359-5.682A16.762,16.762,0,0,1,516.5,156.22l21.13,8.9Z" transform="translate(-467.294 31.507)" fill="#274f89"/>
  <path id="Path_242" data-name="Path 242" d="M423.664,348.5l175.4-101.3c4.954-2.865,7.819-10.462,6.331-16.967L576.831,100.188c-1.424-6.505-6.616-9.5-11.57-6.6l-175.4,101.3c-4.954,2.865-7.819,10.462-6.331,16.967l28.49,130.058C413.519,348.417,418.71,351.3,423.664,348.5Z" transform="translate(-332.969 -5.64)" fill="#d4ecff"/>
  <path id="Path_243" data-name="Path 243" d="M424.725,335.285,589.7,240.127c4.527-2.627,7.154-9.5,5.84-15.527L569.408,105.59c-1.314-5.951-6.062-8.658-10.589-6.03L393.845,194.749c-4.527,2.627-7.154,9.576-5.84,15.527l26.132,119.01C415.45,335.205,420.2,337.912,424.725,335.285Z" transform="translate(-330.232 -2.099)" fill="#fff"/>
  <path id="Path_244" data-name="Path 244" d="M424.725,335.285,589.7,240.127c4.527-2.627,7.154-9.5,5.84-15.527L569.408,105.59c-1.314-5.951-6.062-8.658-10.589-6.03L393.845,194.749c-4.527,2.627-7.154,9.576-5.84,15.527l26.132,119.01C415.45,335.205,420.2,337.912,424.725,335.285Z" transform="translate(-330.232 -2.099)" fill="#38069b"/>
  <path id="Path_245" data-name="Path 245" d="M296.123,291.766,320.1,288.6l154.765-89.317c4.97-2.865,13.628-2.517,19.358.791L603.9,263.387l14.5-1.915v8.23h0a5.635,5.635,0,0,1-3.324,5.081l-175.4,101.3c-4.954,2.865-13.628,2.5-19.358-.807l-119.437-68.93c-3.166-1.852-4.827-4.258-4.748-6.505h0Z" transform="translate(-207.849 55.474)" fill="#173d7a"/>
  <path id="Path_246" data-name="Path 246" d="M296.12,223.681l11-6.331H428.014l59.592,34.378,14.5-1.915v8.231h0a5.635,5.635,0,0,1-3.324,5.081l-175.4,101.3a18,18,0,0,1-9.987,1.868Z" transform="translate(-91.559 67.133)" fill="#396caa"/>
  <path id="Path_247" data-name="Path 247" d="M296.12,238.7l6.426-.855v8.231h0a5.635,5.635,0,0,1-3.324,5.081l-3.086,1.789Z" transform="translate(107.999 79.08)" fill="#5793ce"/>
  <path id="Path_248" data-name="Path 248" d="M426.605,317.893a22.412,22.412,0,0,1-16.445-1.029V298.52h16.445Z" transform="translate(-196.561 114.438)" fill="#274f89"/>
  <path id="Path_249" data-name="Path 249" d="M439.643,372.852l175.4-101.3c4.97-2.865,4.337-7.914-1.393-11.174l-119.437-68.93c-5.73-3.308-14.388-3.672-19.358-.807L299.471,291.94c-4.97,2.865-4.353,7.914,1.377,11.174l119.437,68.93C426.015,375.353,434.689,375.717,439.643,372.852Z" transform="translate(-207.842 50.441)" fill="#d4ecff"/>
  <path id="Path_250" data-name="Path 250" d="M300.792,271.952,420.23,340.9c5.73,3.308,14.4,3.656,19.358.791l175.4-101.3a6.489,6.489,0,0,0,3.166-3.371c.776,2.343-.222,4.748-3.166,6.331l-175.4,101.3c-4.954,2.865-13.628,2.5-19.358-.807L300.792,274.975c-3.846-2.216-5.381-5.207-4.463-7.8A9.275,9.275,0,0,0,300.792,271.952Z" transform="translate(-207.786 78.596)" fill="#fff"/>
  <path id="Path_251" data-name="Path 251" d="M352.559,224.227l7.914-4.59c.633-.364.554-1-.174-1.424l-9.37-5.413a2.707,2.707,0,0,0-2.485-.095l-7.914,4.574c-.649.364-.57,1.013.174,1.44l9.37,5.4a2.77,2.77,0,0,0,2.485.111Z" transform="translate(-19.95 64.276)" fill="#173d7a"/>
  <path id="Path_252" data-name="Path 252" d="M360.285,228.7l7.914-4.59c.633-.364.554-1-.174-1.424l-9.37-5.413a2.722,2.722,0,0,0-2.485-.095l-7.914,4.574c-.633.364-.554,1.013.19,1.44l9.354,5.4a2.8,2.8,0,0,0,2.485.111Z" transform="translate(-39.928 66.882)" fill="#173d7a"/>
  <path id="Path_253" data-name="Path 253" d="M368.054,233.167l7.914-4.574c.633-.38.554-1.013-.19-1.44l-9.37-5.413a2.706,2.706,0,0,0-2.485-.095l-7.914,4.574c-.633.364-.554,1.013.174,1.44l9.37,5.4a2.769,2.769,0,0,0,2.5.111Z" transform="translate(-59.962 69.486)" fill="#173d7a"/>
  <path id="Path_254" data-name="Path 254" d="M377.307,229.157l7.914-4.59c.633-.364.554-1.013-.19-1.425l-7.914-4.543a2.77,2.77,0,0,0-2.485-.111l-7.914,4.59c-.633.364-.554,1.013.174,1.425l7.914,4.543a2.769,2.769,0,0,0,2.5.111Z" transform="translate(-86.168 67.656)" fill="#173d7a"/>
  <path id="Path_255" data-name="Path 255" d="M385.023,233.627l7.914-4.59c.649-.364.57-1-.174-1.424l-7.914-4.543a2.77,2.77,0,0,0-2.485-.111l-7.914,4.59c-.633.364-.554,1.013.174,1.44l7.914,4.527a2.77,2.77,0,0,0,2.485.111Z" transform="translate(-106.134 70.261)" fill="#173d7a"/>
  <path id="Path_256" data-name="Path 256" d="M392.729,238.1l7.914-4.59c.633-.364.554-1-.174-1.425l-7.914-4.543a2.77,2.77,0,0,0-2.485-.111l-7.914,4.59c-.633.364-.554,1.013.19,1.44l7.914,4.527a2.769,2.769,0,0,0,2.469.111Z" transform="translate(-126.028 72.866)" fill="#173d7a"/>
  <path id="Path_257" data-name="Path 257" d="M400.537,242.567l7.914-4.59c.633-.364.554-1-.19-1.425l-7.914-4.543a2.77,2.77,0,0,0-2.485-.111l-7.914,4.59c-.633.364-.554,1.013.174,1.44l7.914,4.527a2.77,2.77,0,0,0,2.5.111Z" transform="translate(-146.166 75.471)" fill="#173d7a"/>
  <path id="Path_258" data-name="Path 258" d="M408.253,247.017l7.914-4.574c.649-.38.57-1.013-.174-1.44l-7.914-4.543a2.707,2.707,0,0,0-2.485-.095l-7.914,4.574c-.633.364-.554,1.013.174,1.44l7.914,4.543a2.817,2.817,0,0,0,2.485.095Z" transform="translate(-166.133 78.065)" fill="#173d7a"/>
  <path id="Path_259" data-name="Path 259" d="M416.012,251.507l7.914-4.574c.633-.38.554-1.013-.174-1.44l-7.914-4.543a2.706,2.706,0,0,0-2.485-.095l-7.914,4.574c-.649.364-.57,1.013.174,1.44l7.914,4.543A2.818,2.818,0,0,0,416.012,251.507Z" transform="translate(-186.143 80.681)" fill="#173d7a"/>
  <path id="Path_260" data-name="Path 260" d="M423.747,256.016l7.914-4.574c.633-.38.554-1.013-.19-1.44l-7.914-4.543a2.722,2.722,0,0,0-2.485-.095l-7.914,4.574c-.633.364-.554,1.013.174,1.44l7.914,4.543A2.817,2.817,0,0,0,423.747,256.016Z" transform="translate(-206.113 83.31)" fill="#173d7a"/>
  <path id="Path_261" data-name="Path 261" d="M431.483,260.447l7.914-4.574c.649-.38.57-1.013-.174-1.44l-7.914-4.543a2.706,2.706,0,0,0-2.485-.095l-7.914,4.574c-.633.364-.554,1.013.174,1.44L429,260.352a2.77,2.77,0,0,0,2.485.095Z" transform="translate(-226.131 85.891)" fill="#173d7a"/>
  <path id="Path_262" data-name="Path 262" d="M439.242,264.917l7.914-4.574c.633-.364.554-1.013-.174-1.44l-7.914-4.543a2.707,2.707,0,0,0-2.485-.1l-7.914,4.574c-.649.364-.57,1.013.174,1.44l7.914,4.543a2.754,2.754,0,0,0,2.485.095Z" transform="translate(-246.141 88.497)" fill="#173d7a"/>
  <path id="Path_263" data-name="Path 263" d="M446.979,269.384l7.914-4.574c.633-.364.554-1.013-.174-1.44l-7.914-4.543a2.77,2.77,0,0,0-2.485-.095l-7.914,4.574c-.633.38-.554,1.013.19,1.44l7.914,4.543A2.722,2.722,0,0,0,446.979,269.384Z" transform="translate(-266.144 91.104)" fill="#173d7a"/>
  <path id="Path_264" data-name="Path 264" d="M388.747,227.016l7.914-4.574c.633-.38.554-1.013-.19-1.44l-7.914-4.543a2.722,2.722,0,0,0-2.485-.095l-7.914,4.574c-.633.364-.554,1.013.174,1.44l7.914,4.543A2.817,2.817,0,0,0,388.747,227.016Z" transform="translate(-115.715 66.41)" fill="#173d7a"/>
  <path id="Path_265" data-name="Path 265" d="M380.873,222.492l7.914-4.574c.633-.364.554-1.013-.19-1.44l-7.914-4.543a2.849,2.849,0,0,0-2.5-.095l-7.914,4.574c-.633.38-.554,1.013.174,1.44l7.914,4.543a2.722,2.722,0,0,0,2.517.095Z" transform="translate(-95.352 63.779)" fill="#173d7a"/>
  <path id="Path_266" data-name="Path 266" d="M367.165,219.9l17.094-9.861c.649-.38.554-1.013-.174-1.44l-7.914-4.543a2.77,2.77,0,0,0-2.485-.111l-17.094,9.877c-.633.364-.554,1.013.19,1.44l7.914,4.527A2.77,2.77,0,0,0,367.165,219.9Z" transform="translate(-69.188 59.182)" fill="#173d7a"/>
  <path id="Path_267" data-name="Path 267" d="M374.779,213.686l13.834-8.009c.633-.364.554-1.013-.19-1.424l-7.914-4.543a2.77,2.77,0,0,0-2.485-.111l-13.865,8.009c-.633.38-.554,1.013.174,1.44l7.914,4.543A2.722,2.722,0,0,0,374.779,213.686Z" transform="translate(-85.507 56.647)" fill="#173d7a"/>
  <path id="Path_268" data-name="Path 268" d="M396.433,231.507l7.914-4.574c.649-.38.57-1.013-.174-1.44l-7.914-4.543a2.706,2.706,0,0,0-2.485-.095l-7.914,4.574c-.633.364-.554,1.013.174,1.44l7.914,4.543a2.77,2.77,0,0,0,2.485.095Z" transform="translate(-135.604 69.026)" fill="#173d7a"/>
  <path id="Path_269" data-name="Path 269" d="M404.192,236.014l7.914-4.574c.633-.364.554-1.013-.174-1.44l-7.914-4.543a2.77,2.77,0,0,0-2.485-.1l-7.914,4.574c-.649.364-.57,1.013.174,1.44l7.914,4.543a2.706,2.706,0,0,0,2.485.095Z" transform="translate(-155.614 71.657)" fill="#173d7a"/>
  <path id="Path_270" data-name="Path 270" d="M411.929,240.444l7.914-4.574c.633-.364.554-1.013-.174-1.44l-7.914-4.543a2.77,2.77,0,0,0-2.485-.095l-7.914,4.574c-.633.38-.554,1.013.19,1.44l7.914,4.543a2.723,2.723,0,0,0,2.469.095Z" transform="translate(-175.617 74.239)" fill="#173d7a"/>
  <path id="Path_271" data-name="Path 271" d="M419.663,244.912l7.914-4.574c.649-.364.57-1.013-.174-1.44l-7.914-4.543A2.817,2.817,0,0,0,417,234.26l-7.914,4.574c-.633.38-.554,1.013.174,1.44l7.914,4.543A2.722,2.722,0,0,0,419.663,244.912Z" transform="translate(-195.602 76.846)" fill="#173d7a"/>
  <path id="Path_272" data-name="Path 272" d="M427.422,249.382l7.914-4.574c.633-.364.554-1.013-.174-1.44l-7.914-4.543a2.817,2.817,0,0,0-2.485-.1l-7.914,4.574c-.649.38-.57,1.013.174,1.44l7.914,4.543A2.707,2.707,0,0,0,427.422,249.382Z" transform="translate(-215.612 79.451)" fill="#173d7a"/>
  <path id="Path_273" data-name="Path 273" d="M435.159,253.852l7.914-4.574c.633-.364.554-1.013-.174-1.44l-7.914-4.543a2.817,2.817,0,0,0-2.485-.1l-7.914,4.574c-.633.38-.554,1.013.19,1.44l7.914,4.543A2.723,2.723,0,0,0,435.159,253.852Z" transform="translate(-235.616 82.056)" fill="#173d7a"/>
  <path id="Path_274" data-name="Path 274" d="M442.917,258.337l7.914-4.59c.633-.364.554-1.013-.19-1.44l-7.914-4.527a2.77,2.77,0,0,0-2.485-.111l-7.914,4.59c-.633.364-.554,1,.174,1.425l7.914,4.543a2.77,2.77,0,0,0,2.5.111Z" transform="translate(-255.625 84.661)" fill="#173d7a"/>
  <path id="Path_275" data-name="Path 275" d="M450.652,262.807l7.914-4.59c.633-.364.554-1.013-.174-1.44l-7.914-4.527a2.77,2.77,0,0,0-2.485-.111l-7.914,4.59c-.649.364-.57,1,.174,1.424l7.914,4.543A2.77,2.77,0,0,0,450.652,262.807Z" transform="translate(-275.61 87.266)" fill="#173d7a"/>
  <path id="Path_276" data-name="Path 276" d="M458.379,267.277l7.914-4.59c.633-.364.554-1.013-.174-1.44L458.2,256.72a2.77,2.77,0,0,0-2.485-.111l-7.914,4.59c-.633.364-.554,1,.19,1.425l7.914,4.543A2.8,2.8,0,0,0,458.379,267.277Z" transform="translate(-295.588 89.872)" fill="#173d7a"/>
  <path id="Path_277" data-name="Path 277" d="M466.211,277.209l17.316-9.987c.633-.364.554-1.013-.174-1.44l-7.914-4.543a2.723,2.723,0,0,0-2.485-.1l-17.316,9.987c-.633.38-.554,1.013.174,1.44l7.914,4.543a2.707,2.707,0,0,0,2.485.095Z" transform="translate(-325.214 92.507)" fill="#173d7a"/>
  <path id="Path_278" data-name="Path 278" d="M482.989,267.934l14.625-8.436c.633-.364.554-1.013-.174-1.44l-7.914-4.543a2.818,2.818,0,0,0-2.485-.095l-14.625,8.436c-.633.364-.554,1.013.19,1.44l7.914,4.543a2.818,2.818,0,0,0,2.469.095Z" transform="translate(-365.861 88.012)" fill="#173d7a"/>
  <path id="Path_279" data-name="Path 279" d="M409.993,230.637l7.914-4.59c.649-.364.57-1.013-.174-1.424l-7.914-4.543a2.77,2.77,0,0,0-2.485-.111l-7.914,4.59c-.633.364-.554,1.013.174,1.424l7.914,4.543a2.77,2.77,0,0,0,2.485.111Z" transform="translate(-170.627 68.518)" fill="#173d7a"/>
  <path id="Path_280" data-name="Path 280" d="M402.059,226.017l7.914-4.59c.633-.364.554-1.013-.174-1.44l-7.914-4.527a2.77,2.77,0,0,0-2.485-.111l-7.914,4.59c-.633.364-.554,1,.19,1.425l7.914,4.543a2.77,2.77,0,0,0,2.469.111Z" transform="translate(-150.125 65.826)" fill="#173d7a"/>
  <path id="Path_281" data-name="Path 281" d="M394.163,221.462l7.914-4.574c.633-.364.554-1.013-.19-1.44l-7.914-4.543a2.849,2.849,0,0,0-2.5-.095l-7.914,4.574c-.633.38-.554,1.013.174,1.44l7.914,4.543a2.723,2.723,0,0,0,2.517.095Z" transform="translate(-129.678 63.179)" fill="#173d7a"/>
  <path id="Path_282" data-name="Path 282" d="M386.2,216.887l7.914-4.574c.633-.364.554-1.013-.174-1.44l-7.914-4.543a2.706,2.706,0,0,0-2.485-.095l-7.914,4.574c-.649.364-.57,1.013.174,1.44l7.914,4.543a2.77,2.77,0,0,0,2.485.1Z" transform="translate(-109.15 60.505)" fill="#173d7a"/>
  <path id="Path_283" data-name="Path 283" d="M417.742,235.107l7.914-4.59c.633-.364.554-1.013-.174-1.424l-7.914-4.543a2.77,2.77,0,0,0-2.485-.111l-7.914,4.59c-.649.364-.57,1.013.174,1.424L415.257,235a2.77,2.77,0,0,0,2.485.111Z" transform="translate(-190.611 71.123)" fill="#173d7a"/>
  <path id="Path_284" data-name="Path 284" d="M425.489,239.577l7.914-4.59c.633-.364.554-1-.174-1.424l-7.914-4.543a2.77,2.77,0,0,0-2.485-.111l-7.914,4.59c-.633.364-.554,1.013.19,1.44l7.914,4.527a2.77,2.77,0,0,0,2.469.111Z" transform="translate(-210.64 73.728)" fill="#173d7a"/>
  <path id="Path_285" data-name="Path 285" d="M433.247,244.017l7.914-4.59c.633-.364.554-1-.19-1.425l-7.914-4.543a2.77,2.77,0,0,0-2.485-.111l-7.914,4.59c-.633.364-.554,1.013.174,1.44l7.914,4.527A2.77,2.77,0,0,0,433.247,244.017Z" transform="translate(-230.649 76.316)" fill="#173d7a"/>
  <path id="Path_286" data-name="Path 286" d="M440.982,248.517l7.914-4.59c.633-.364.554-1-.174-1.424l-7.914-4.543a2.77,2.77,0,0,0-2.485-.111l-7.914,4.59c-.649.364-.57,1.013.174,1.44l7.914,4.527a2.77,2.77,0,0,0,2.485.111Z" transform="translate(-250.635 78.938)" fill="#173d7a"/>
  <path id="Path_287" data-name="Path 287" d="M448.729,253.017l7.914-4.574c.633-.38.554-1.013-.174-1.44l-7.914-4.543a2.77,2.77,0,0,0-2.485-.111l-7.914,4.59c-.633.364-.554,1.013.19,1.44l7.914,4.527a2.77,2.77,0,0,0,2.469.111Z" transform="translate(-270.664 81.561)" fill="#173d7a"/>
  <path id="Path_288" data-name="Path 288" d="M456.477,257.457l7.914-4.574c.633-.38.554-1.013-.19-1.44l-7.914-4.543a2.706,2.706,0,0,0-2.485-.095l-7.914,4.574c-.633.364-.554,1.013.174,1.44l7.914,4.543A2.817,2.817,0,0,0,456.477,257.457Z" transform="translate(-290.647 84.149)" fill="#173d7a"/>
  <path id="Path_289" data-name="Path 289" d="M464.212,261.927l7.914-4.574c.633-.38.554-1.013-.174-1.44l-7.914-4.543a2.707,2.707,0,0,0-2.485-.1l-7.914,4.574c-.649.364-.57,1.013.174,1.44l7.914,4.543a2.817,2.817,0,0,0,2.485.095Z" transform="translate(-310.633 86.754)" fill="#173d7a"/>
  <path id="Path_290" data-name="Path 290" d="M471.939,266.4l7.914-4.574c.633-.38.554-1.013-.174-1.44l-7.914-4.543a2.722,2.722,0,0,0-2.485-.095l-7.914,4.574c-.633.364-.554,1.013.19,1.44l7.914,4.543a2.849,2.849,0,0,0,2.469.095Z" transform="translate(-330.611 89.36)" fill="#173d7a"/>
  <path id="Path_291" data-name="Path 291" d="M479.763,270.866l7.914-4.574c.633-.38.554-1.013-.19-1.44l-7.914-4.543a2.754,2.754,0,0,0-2.5-.095l-7.914,4.574c-.633.364-.554,1.013.174,1.44l7.914,4.543A2.77,2.77,0,0,0,479.763,270.866Z" transform="translate(-350.765 91.965)" fill="#173d7a"/>
  <path id="Path_292" data-name="Path 292" d="M405.932,219.577,413.846,215c.633-.38.554-1.013-.174-1.44l-7.914-4.543a2.77,2.77,0,0,0-2.485-.111l-7.914,4.59c-.649.364-.57,1.013.174,1.44l7.914,4.527a2.77,2.77,0,0,0,2.485.111Z" transform="translate(-160.108 62.073)" fill="#173d7a"/>
  <path id="Path_293" data-name="Path 293" d="M398.253,215.126l7.914-4.574c.633-.38.554-1.013-.19-1.44l-7.914-4.543a2.754,2.754,0,0,0-2.5-.095l-7.914,4.574c-.633.364-.554,1.013.174,1.44l7.914,4.543A2.817,2.817,0,0,0,398.253,215.126Z" transform="translate(-140.241 59.48)" fill="#173d7a"/>
  <path id="Path_294" data-name="Path 294" d="M390.522,210.674l7.914-4.574c.633-.364.554-1.013-.174-1.44l-7.914-4.543a2.77,2.77,0,0,0-2.485-.095l-7.914,4.574c-.649.38-.57,1.013.174,1.44l7.914,4.543A2.707,2.707,0,0,0,390.522,210.674Z" transform="translate(-120.307 56.889)" fill="#173d7a"/>
  <path id="Path_295" data-name="Path 295" d="M382.827,206.237l7.914-4.59c.633-.364.554-1.013-.19-1.44l-7.914-4.527a2.77,2.77,0,0,0-2.485-.111l-7.914,4.574c-.633.38-.554,1.013.174,1.44l7.914,4.543a2.77,2.77,0,0,0,2.5.111Z" transform="translate(-100.425 54.298)" fill="#173d7a"/>
  <path id="Path_296" data-name="Path 296" d="M385.4,200.566l7.914-4.574c.649-.38.57-1.013-.174-1.44l-2.6-1.583a2.722,2.722,0,0,0-2.485-.095l-7.914,4.574c-.633.364-.554,1.013.19,1.44l2.6,1.583A2.817,2.817,0,0,0,385.4,200.566Z" transform="translate(-115.537 52.72)" fill="#173d7a"/>
  <path id="Path_297" data-name="Path 297" d="M395.488,206.348l7.914-4.59c.633-.364.554-1.013-.174-1.44l-2.612-1.488a2.77,2.77,0,0,0-2.485-.111l-7.914,4.59c-.633.364-.554,1,.174,1.425l2.6,1.5A2.77,2.77,0,0,0,395.488,206.348Z" transform="translate(-141.544 56.134)" fill="#173d7a"/>
  <path id="Path_298" data-name="Path 298" d="M403.171,210.778l7.914-4.59c.633-.364.554-1.013-.19-1.44l-2.6-1.488a2.77,2.77,0,0,0-2.485-.111l-7.914,4.59c-.649.364-.57,1,.174,1.425l2.6,1.5a2.77,2.77,0,0,0,2.5.111Z" transform="translate(-161.367 58.716)" fill="#173d7a"/>
  <path id="Path_299" data-name="Path 299" d="M410.8,215.208l7.914-4.59c.649-.364.57-1.013-.174-1.44l-2.6-1.488a2.77,2.77,0,0,0-2.485-.111l-7.914,4.59c-.633.364-.554,1,.19,1.425l2.6,1.583a2.77,2.77,0,0,0,2.469.032Z" transform="translate(-181.14 61.297)" fill="#173d7a"/>
  <path id="Path_300" data-name="Path 300" d="M418.482,219.638l7.914-4.59c.633-.364.554-1.013-.174-1.44l-2.6-1.488a2.77,2.77,0,0,0-2.485-.111l-7.914,4.59c-.633.364-.554,1,.174,1.425l2.612,1.5a2.77,2.77,0,0,0,2.469.111Z" transform="translate(-200.958 63.879)" fill="#173d7a"/>
  <path id="Path_301" data-name="Path 301" d="M461.351,244.368l7.914-4.59c.633-.364.554-1.013-.19-1.44l-2.6-1.488a2.77,2.77,0,0,0-2.485-.111l-7.914,4.59c-.649.364-.57,1,.174,1.424l2.6,1.583A2.77,2.77,0,0,0,461.351,244.368Z" transform="translate(-311.634 78.292)" fill="#173d7a"/>
  <path id="Path_302" data-name="Path 302" d="M468.984,248.8l7.914-4.59c.649-.364.57-1.013-.174-1.44l-2.6-1.488a2.77,2.77,0,0,0-2.485-.111l-7.914,4.59c-.633.364-.554,1,.19,1.424l2.6,1.583a2.77,2.77,0,0,0,2.469.032Z" transform="translate(-331.406 80.873)" fill="#173d7a"/>
  <path id="Path_303" data-name="Path 303" d="M476.662,253.228l7.914-4.59c.633-.364.554-1.013-.174-1.44l-2.6-1.488a2.77,2.77,0,0,0-2.485-.111l-7.914,4.59c-.633.364-.554,1,.174,1.424l2.612,1.5a2.77,2.77,0,0,0,2.469.111Z" transform="translate(-351.225 83.455)" fill="#173d7a"/>
  <path id="Path_304" data-name="Path 304" d="M484.358,257.642l7.914-4.574c.633-.364.554-1.013-.174-1.44l-2.612-1.488a2.77,2.77,0,0,0-2.485-.111l-7.914,4.574c-.633.38-.554,1.013.174,1.44l2.6,1.5a2.723,2.723,0,0,0,2.5.095Z" transform="translate(-371.077 86.037)" fill="#173d7a"/>
  <path id="Path_305" data-name="Path 305" d="M413.669,224.016l7.914-4.574c.633-.38.554-1.013-.174-1.44l-7.914-4.543a2.722,2.722,0,0,0-2.485-.095l-7.914,4.574c-.633.364-.554,1.013.19,1.44l7.914,4.543a2.818,2.818,0,0,0,2.469.095Z" transform="translate(-180.111 64.661)" fill="#173d7a"/>
  <path id="Path_306" data-name="Path 306" d="M421.427,228.517l7.914-4.574c.633-.38.554-1.013-.19-1.44l-7.914-4.543a2.707,2.707,0,0,0-2.485-.095l-7.914,4.574c-.633.364-.554,1.013.174,1.44l7.914,4.543a2.818,2.818,0,0,0,2.5.095Z" transform="translate(-200.12 67.283)" fill="#173d7a"/>
  <path id="Path_307" data-name="Path 307" d="M429.162,233.017l7.914-4.574c.633-.38.554-1.013-.174-1.44l-7.914-4.543a2.706,2.706,0,0,0-2.485-.095l-7.914,4.574c-.649.364-.57,1.013.174,1.44l7.914,4.543A2.818,2.818,0,0,0,429.162,233.017Z" transform="translate(-220.106 69.906)" fill="#173d7a"/>
  <path id="Path_308" data-name="Path 308" d="M436.889,237.456l7.914-4.574c.633-.38.554-1.013-.174-1.44l-7.914-4.543a2.722,2.722,0,0,0-2.485-.095l-7.914,4.574c-.633.364-.554,1.013.19,1.44l7.914,4.543a2.8,2.8,0,0,0,2.469.095Z" transform="translate(-240.084 72.494)" fill="#173d7a"/>
  <path id="Path_309" data-name="Path 309" d="M444.673,241.924l7.914-4.574c.633-.364.554-1.013-.19-1.44l-7.914-4.543a2.8,2.8,0,0,0-2.5-.095l-7.914,4.574c-.633.364-.554,1.013.174,1.44l7.914,4.543a2.77,2.77,0,0,0,2.517.095Z" transform="translate(-260.135 75.101)" fill="#173d7a"/>
  <path id="Path_310" data-name="Path 310" d="M452.383,246.394l7.914-4.574c.649-.364.554-1.013-.174-1.44l-7.914-4.543a2.77,2.77,0,0,0-2.485-.095l-7.914,4.574c-.649.38-.554,1.013.174,1.44L449.9,246.3A2.707,2.707,0,0,0,452.383,246.394Z" transform="translate(-280.095 77.706)" fill="#173d7a"/>
  <path id="Path_311" data-name="Path 311" d="M460.119,250.862l7.914-4.574c.633-.364.554-1.013-.174-1.44l-7.914-4.543a2.817,2.817,0,0,0-2.485-.095l-7.914,4.574c-.633.38-.554,1.013.19,1.44l7.914,4.543A2.754,2.754,0,0,0,460.119,250.862Z" transform="translate(-300.082 80.313)" fill="#173d7a"/>
  <path id="Path_312" data-name="Path 312" d="M467.887,255.332l7.914-4.574c.633-.364.554-1.013-.19-1.44l-7.914-4.543a2.817,2.817,0,0,0-2.485-.1l-7.914,4.574c-.633.38-.554,1.013.174,1.44l7.914,4.543a2.722,2.722,0,0,0,2.5.095Z" transform="translate(-320.117 82.918)" fill="#173d7a"/>
  <path id="Path_313" data-name="Path 313" d="M475.6,259.8l7.914-4.574c.649-.364.57-1.013-.174-1.44l-7.914-4.543a2.817,2.817,0,0,0-2.485-.1l-7.914,4.574c-.633.38-.554,1.013.174,1.44l7.914,4.543a2.707,2.707,0,0,0,2.485.095Z" transform="translate(-340.083 85.523)" fill="#173d7a"/>
  <path id="Path_314" data-name="Path 314" d="M359.631,227.877l23.378-13.485c.633-.38.554-1.013-.174-1.44l-7.914-4.543a2.722,2.722,0,0,0-2.485-.095L349.058,221.8c-.633.364-.554,1.013.174,1.44l7.914,4.543a2.77,2.77,0,0,0,2.485.1Z" transform="translate(-56.003 61.718)" fill="#173d7a"/>
  <path id="Path_315" data-name="Path 315" d="M454.687,282.783,478.1,269.33c.649-.364.57-1.013-.174-1.44l-7.914-4.543a2.77,2.77,0,0,0-2.485-.095l-23.362,13.485c-.649.38-.57,1.013.174,1.44l7.914,4.543a2.707,2.707,0,0,0,2.437.063Z" transform="translate(-301.615 93.739)" fill="#173d7a"/>
  <path id="Path_316" data-name="Path 316" d="M435.018,271.837l7.914-4.574c.633-.38.554-1.013-.19-1.44l-9.354-5.413a2.722,2.722,0,0,0-2.485-.095l-7.914,4.574c-.633.364-.554,1.013.174,1.44l9.37,5.413A2.817,2.817,0,0,0,435.018,271.837Z" transform="translate(-232.942 92.023)" fill="#173d7a"/>
  <path id="Path_317" data-name="Path 317" d="M375.783,240.351l12.662-7.328c.649-.38.554-1.013-.174-1.44l-9.37-5.413a2.706,2.706,0,0,0-2.485-.095L363.754,233.4c-.633.364-.554,1.013.174,1.425l9.37,5.524a2.77,2.77,0,0,0,2.485,0Z" transform="translate(-84.707 72.068)" fill="#173d7a"/>
  <path id="Path_318" data-name="Path 318" d="M424.557,268.536l12.662-7.328c.633-.364.554-1.013-.174-1.424l-9.37-5.413a2.77,2.77,0,0,0-2.485-.111l-12.662,7.328c-.633.38-.554,1.013.174,1.44l9.37,5.413A2.723,2.723,0,0,0,424.557,268.536Z" transform="translate(-210.673 88.502)" fill="#173d7a"/>
  <path id="Path_319" data-name="Path 319" d="M386.957,246.841l12.662-7.328c.633-.38.554-1.013-.174-1.44l-9.37-5.413a2.706,2.706,0,0,0-2.485-.095l-12.662,7.328c-.633.364-.554,1.013.174,1.424l9.37,5.413A2.77,2.77,0,0,0,386.957,246.841Z" transform="translate(-113.56 75.85)" fill="#173d7a"/>
  <path id="Path_320" data-name="Path 320" d="M430.472,232.5,375.3,264.362a.76.76,0,0,0,0,1.425l9.5,5.524a2.723,2.723,0,0,0,2.469,0l55.255-31.862Z" transform="translate(-156.505 75.962)" fill="#173d7a"/>
  <path id="Path_321" data-name="Path 321" d="M454.632,275.685l-8.832,5.1c-.522.3-.459.823.142,1.171l3.83,2.216a2.279,2.279,0,0,0,2.042.095l8.832-5.112c.522-.3.459-.823-.142-1.171l-3.83-2.216A2.279,2.279,0,0,0,454.632,275.685Z" transform="translate(-286.808 101.011)" fill="#173d7a"/>
  <path id="Path_322" data-name="Path 322" d="M446.831,271.175l-8.848,5.1c-.522.3-.443.839.158,1.187l3.83,2.2a2.279,2.279,0,0,0,2.042.1l8.832-5.112c.522-.3.459-.823-.142-1.171l-3.83-2.216a2.279,2.279,0,0,0-2.042-.079Z" transform="translate(-266.645 98.383)" fill="#173d7a"/>
  <path id="Path_323" data-name="Path 323" d="M439.092,266.7l-8.832,5.1c-.522.3-.459.839.142,1.187l3.815,2.216a2.279,2.279,0,0,0,2.042.095l8.832-5.112c.522-.3.459-.823-.142-1.171l-3.83-2.216a2.279,2.279,0,0,0-2.026-.1Z" transform="translate(-246.655 95.782)" fill="#173d7a"/>
  <path id="Path_324" data-name="Path 324" d="M451.092,268.707l-8.832,5.1c-.522.3-.459.839.142,1.187l3.846,2.216a2.279,2.279,0,0,0,2.042.079l8.832-5.112c.522-.3.459-.823-.142-1.171l-3.83-2.216a2.279,2.279,0,0,0-2.058-.079Z" transform="translate(-277.681 96.942)" fill="#173d7a"/>
  <path id="Path_325" data-name="Path 325" d="M429.891,135.911l11.728-6.758a3.387,3.387,0,0,0,1.44-3.482h0a1.583,1.583,0,0,0-2.517-1.187l-11.728,6.758a3.356,3.356,0,0,0-1.424,3.482h0a1.583,1.583,0,0,0,2.5,1.187Z" transform="translate(-240.24 12.832)" fill="#d4ecff"/>
  <path id="Path_326" data-name="Path 326" d="M444.027,147.3l17.3-9.987a3.355,3.355,0,0,0,1.425-3.482h0a1.583,1.583,0,0,0-2.5-1.187l-17.3,9.972a3.356,3.356,0,0,0-1.424,3.482h0a1.583,1.583,0,0,0,2.5,1.2Z" transform="translate(-282.312 17.592)" fill="#d4ecff"/>
  <path id="Path_327" data-name="Path 327" d="M416.939,170.463l11.728-6.774a3.324,3.324,0,0,0,1.424-3.466h0a1.583,1.583,0,0,0-2.453-1.124l-11.728,6.774a3.371,3.371,0,0,0-1.44,3.466h0a1.583,1.583,0,0,0,2.469,1.124Z" transform="translate(-206.838 33.028)" fill="#d4ecff"/>
  <path id="Path_328" data-name="Path 328" d="M429.2,180.756l17.284-9.924a3.387,3.387,0,0,0,1.44-3.482h0a1.583,1.583,0,0,0-2.517-1.187l-17.3,9.972a3.371,3.371,0,0,0-1.424,3.482h0a1.583,1.583,0,0,0,2.517,1.14Z" transform="translate(-244.001 37.123)" fill="#d4ecff"/>
  <path id="Path_329" data-name="Path 329" d="M410.818,129.384l7.328-4.226a3.34,3.34,0,0,0,1.424-3.466h0a1.583,1.583,0,0,0-2.5-1.2l-7.328,4.147a3.356,3.356,0,0,0-1.424,3.482h0a1.583,1.583,0,0,0,2.5,1.266Z" transform="translate(-186.567 10.511)" fill="#d4ecff"/>
  <path id="Path_330" data-name="Path 330" d="M415.568,147.819l22.4-12.931a3.371,3.371,0,0,0,1.424-3.466h0a1.583,1.583,0,0,0-2.5-1.2l-22.4,12.916a3.371,3.371,0,0,0-1.424,3.482h0a1.583,1.583,0,0,0,2.5,1.2Z" transform="translate(-213.904 16.182)" fill="#d4ecff"/>
  <path id="Path_331" data-name="Path 331" d="M412.71,151.488l7.328-4.226a3.387,3.387,0,0,0,1.44-3.482h0a1.583,1.583,0,0,0-2.517-1.187l-7.328,4.226a3.34,3.34,0,0,0-1.424,3.466h0a1.583,1.583,0,0,0,2.5,1.2Z" transform="translate(-191.466 23.386)" fill="#d4ecff"/>
  <path id="Path_332" data-name="Path 332" d="M430.137,196.649l19.579-11.3a3.371,3.371,0,0,0,1.424-3.482h0a1.583,1.583,0,0,0-2.5-1.187L429.06,191.964a3.371,3.371,0,0,0-1.424,3.482h0a1.583,1.583,0,0,0,2.5,1.2Z" transform="translate(-248.716 45.589)" fill="#d4ecff"/>
  <path id="Path_333" data-name="Path 333" d="M409.824,162.34l4.748-2.722A3.355,3.355,0,0,0,416,156.152h0a1.583,1.583,0,0,0-2.5-1.2l-4.748,2.722a3.371,3.371,0,0,0-1.425,3.466h0a1.583,1.583,0,0,0,2.5,1.2Z" transform="translate(-181.427 30.594)" fill="#d4ecff"/>
  <path id="Path_334" data-name="Path 334" d="M407,175.363l5.841-3.371a3.371,3.371,0,0,0,1.44-3.466h0a1.583,1.583,0,0,0-2.517-1.2l-5.841,3.371a3.34,3.34,0,0,0-1.424,3.466h0a1.583,1.583,0,0,0,2.5,1.2Z" transform="translate(-175.231 37.799)" fill="#d4ecff"/>
  <path id="Path_335" data-name="Path 335" d="M415.333,185.664l15.4-8.832a3.371,3.371,0,0,0,1.424-3.466h0a1.583,1.583,0,0,0-2.517-1.2l-15.385,8.9a3.34,3.34,0,0,0-1.44,3.466h0a1.583,1.583,0,0,0,2.517,1.14Z" transform="translate(-206.277 40.62)" fill="#d4ecff"/>
  <path id="Path_336" data-name="Path 336" d="M405.625,184.539l11.08-6.331a3.324,3.324,0,0,0,1.425-3.466h0a1.583,1.583,0,0,0-2.5-1.2l-11.08,6.331a3.371,3.371,0,0,0-1.425,3.482h0a1.583,1.583,0,0,0,2.5,1.187Z" transform="translate(-176.911 41.428)" fill="#d4ecff"/>
  <path id="Path_337" data-name="Path 337" d="M448.654,200.148l7.091-4.1a3.356,3.356,0,0,0,1.424-3.482h0a1.583,1.583,0,0,0-2.5-1.187l-7.123,4.1a3.371,3.371,0,0,0-1.425,3.466h0a1.583,1.583,0,0,0,2.532,1.2Z" transform="translate(-284.011 51.825)" fill="#d4ecff"/>
  <path id="Path_338" data-name="Path 338" d="M422.208,163.989l19.563-11.3a3.324,3.324,0,0,0,1.424-3.466h0a1.583,1.583,0,0,0-2.5-1.2l-19.579,11.3a3.371,3.371,0,0,0-1.425,3.466h0a1.583,1.583,0,0,0,2.517,1.2Z" transform="translate(-228.204 26.555)" fill="#d4ecff"/>
  <path id="Path_339" data-name="Path 339" d="M414.153,160.762l34.093-19.69a3.34,3.34,0,0,0,1.44-3.466h0a1.583,1.583,0,0,0-2.517-1.2l-34.093,19.69a3.356,3.356,0,0,0-1.44,3.482h0a1.583,1.583,0,0,0,2.517,1.187Z" transform="translate(-221.938 19.779)" fill="#d4ecff"/>
  <path id="Path_340" data-name="Path 340" d="M411.281,164.739l19.563-11.3a3.34,3.34,0,0,0,1.424-3.466h0a1.583,1.583,0,0,0-2.5-1.2L410.2,160.07a3.339,3.339,0,0,0-1.44,3.466h0a1.583,1.583,0,0,0,2.517,1.2Z" transform="translate(-199.977 26.992)" fill="#d4ecff"/>
  <path id="Path_341" data-name="Path 341" d="M439.478,166.787l7.107-4.1a3.34,3.34,0,0,0,1.425-3.466h0a1.583,1.583,0,0,0-2.5-1.2l-7.123,4.1a3.356,3.356,0,0,0-1.44,3.482h0a1.583,1.583,0,0,0,2.532,1.187Z" transform="translate(-260.32 32.383)" fill="#d4ecff"/>
  <path id="Path_342" data-name="Path 342" d="M461.691,171.78l42.1-24.312a3.355,3.355,0,0,0,1.424-3.482h0a1.583,1.583,0,0,0-2.5-1.187l-42.1,24.3a3.355,3.355,0,0,0-1.44,3.482h0a1.583,1.583,0,0,0,2.517,1.2Z" transform="translate(-352.715 23.513)" fill="#f8359e"/>
  <path id="Path_343" data-name="Path 343" d="M408.429,179.381l23.52-13.549a3.356,3.356,0,0,0,1.44-3.482h0a1.583,1.583,0,0,0-2.517-1.187l-23.52,13.58a3.324,3.324,0,0,0-1.424,3.466h0a1.583,1.583,0,0,0,2.5,1.171Z" transform="translate(-196.603 34.209)" fill="#d4ecff"/>
  <path id="Path_344" data-name="Path 344" d="M412.254,128.934l17.284-9.972a3.387,3.387,0,0,0,1.44-3.482h0a1.583,1.583,0,0,0-2.517-1.187l-17.284,9.972a3.356,3.356,0,0,0-1.44,3.482h0a1.583,1.583,0,0,0,2.517,1.187Z" transform="translate(-200.223 6.894)" fill="#d4ecff"/>
  <path id="Path_345" data-name="Path 345" d="M397.923,192.355l20.038-11.507a3.371,3.371,0,0,0,1.425-3.466h0a1.583,1.583,0,0,0-2.469-1.282l-20.022,11.554a3.356,3.356,0,0,0-1.424,3.482h0a1.583,1.583,0,0,0,2.453,1.219Z" transform="translate(-166.043 42.934)" fill="#ffbe0b"/>
  <path id="Path_346" data-name="Path 346" d="M488.847,217.266l11.729-6.774a3.356,3.356,0,0,0,1.44-3.482h0a1.583,1.583,0,0,0-2.517-1.187l-11.728,6.759a3.371,3.371,0,0,0-1.424,3.482h0a1.583,1.583,0,0,0,2.5,1.2Z" transform="translate(-392.517 60.236)" fill="#d4ecff"/>
  <path id="Path_347" data-name="Path 347" d="M487.413,194.593l22.381-12.931a3.324,3.324,0,0,0,1.44-3.466h0a1.583,1.583,0,0,0-2.517-1.2L486.4,189.845a3.34,3.34,0,0,0-1.424,3.466h0a1.583,1.583,0,0,0,2.437,1.282Z" transform="translate(-399.567 43.435)" fill="#d4ecff"/>
  <path id="Path_348" data-name="Path 348" d="M484.7,198.234l7.265-4.226a3.34,3.34,0,0,0,1.424-3.466h0a1.583,1.583,0,0,0-2.5-1.2l-7.328,4.226a3.387,3.387,0,0,0-1.44,3.482h0a1.583,1.583,0,0,0,2.58,1.187Z" transform="translate(-377.213 50.636)" fill="#d4ecff"/>
  <path id="Path_349" data-name="Path 349" d="M481.7,209.089l4.748-2.707a3.356,3.356,0,0,0,1.44-3.482h0a1.583,1.583,0,0,0-2.517-1.187l-4.748,2.707A3.356,3.356,0,0,0,479.2,207.9h0a1.583,1.583,0,0,0,2.5,1.187Z" transform="translate(-367.071 57.841)" fill="#d4ecff"/>
  <path id="Path_350" data-name="Path 350" d="M494.068,210.777l19.563-11.285a3.355,3.355,0,0,0,1.44-3.482h0a1.583,1.583,0,0,0-2.517-1.187l-19.563,11.285a3.355,3.355,0,0,0-1.424,3.482h0a1.583,1.583,0,0,0,2.5,1.187Z" transform="translate(-413.835 53.826)" fill="#d4ecff"/>
  <path id="Path_351" data-name="Path 351" d="M486.012,207.522l34.109-19.69a3.387,3.387,0,0,0,1.44-3.482h0a1.583,1.583,0,0,0-2.517-1.187l-34.109,19.69a3.324,3.324,0,0,0-1.425,3.466h0a1.583,1.583,0,0,0,2.5,1.2Z" transform="translate(-407.567 47.03)" fill="#d4ecff"/>
  <path id="Path_352" data-name="Path 352" d="M483.158,211.493l19.579-11.3a3.34,3.34,0,0,0,1.425-3.466h0a1.583,1.583,0,0,0-2.517-1.2l-19.563,11.3a3.356,3.356,0,0,0-1.424,3.482h0a1.583,1.583,0,0,0,2.5,1.187Z" transform="translate(-385.657 54.234)" fill="#d4ecff"/>
  <path id="Path_353" data-name="Path 353" d="M480.317,226.138l23.52-13.58a3.34,3.34,0,0,0,1.424-3.466h0a1.583,1.583,0,0,0-2.5-1.2l-23.52,13.58a3.371,3.371,0,0,0-1.44,3.466h0a1.583,1.583,0,0,0,2.517,1.2Z" transform="translate(-382.246 61.447)" fill="#d4ecff"/>
  <path id="Path_354" data-name="Path 354" d="M294.747,112.326l-18.487-7.344,4.163-27.192,8.959,7.946Z" transform="translate(-241.469 45.312)" fill="#983be9"/>
  <path id="Path_355" data-name="Path 355" d="M472.833,142.483a19.453,19.453,0,0,1,7.233-2.5c-2.469-16.429,4.638-33.7,18.265-41.612a29.724,29.724,0,0,1,12.741-4.052c-5.334-19.911,2.912-42.545,19.722-52.232a30.991,30.991,0,0,1,26.654-2.6h0l.412.174.649.253L572.5,45.426l-5.587,4.748c7.566,2.374,14.1,8.5,17.569,17.537,6.331,16.683-.174,36.958-14.609,45.3l-85.8,72.413c-10.842,6.331-17.411,3.656-22.159-8.879S462.007,148.735,472.833,142.483Z" transform="translate(-435.89 -37.615)" fill="#173d7a"/>
  <path id="Path_356" data-name="Path 356" d="M444.714,146.267a19.8,19.8,0,0,1,7.233-2.485c-2.453-16.429,4.748-33.888,18.455-41.754a28.885,28.885,0,0,1,12.583-3.909c-5.35-19.911,2.9-42.545,19.706-52.232C520.767,35.44,541.9,43.908,549.875,64.88c.269.7.507,1.425.744,2.137,13.8-6.141,29.044.776,35.027,16.445,6.331,16.683-.158,36.958-14.593,45.3L462.046,191.741c-10.842,6.331-23.5,1.187-28.285-11.349S433.872,152.535,444.714,146.267Z" transform="translate(-392.481 -35.401)" fill="#11a7dd"/>
  <path id="Path_361" data-name="Path 361" d="M358.377,214.534l38.889-22.412c2.374-1.377,2.073-3.783-.665-5.366l-37.48-21.637a10.335,10.335,0,0,0-9.291-.38l-38.81,22.412c-2.374,1.361-2.073,3.767.665,5.35l37.48,21.637a10.336,10.336,0,0,0,9.212.4Z" transform="translate(-9.37 35.934)" fill="#c4d9e8" opacity="0.5"/>
  <path id="Path_362" data-name="Path 362" d="M302.3,177.129h0V160.368h37.591l12.995-7.5a12.979,12.979,0,0,1,11.649.475l12.124,7h37.623v17.157a3.419,3.419,0,0,1-1.994,3.166L363.7,208.706a12.947,12.947,0,0,1-11.634-.475l-46.93-27.1a4.606,4.606,0,0,1-2.833-4Z" transform="translate(-13.519 28.879)" fill="#396caa"/>
  <path id="Path_363" data-name="Path 363" d="M302.3,151.7a13.5,13.5,0,0,1,6.252,1.583l12.124,7H358.3V177.5a3.419,3.419,0,0,1-1.994,3.166l-48.592,28.047a10.636,10.636,0,0,1-5.413,1.155Z" transform="translate(42.465 28.873)" fill="#396caa"/>
  <path id="Path_364" data-name="Path 364" d="M302.3,157.14h4.274v17.189a3.419,3.419,0,0,1-1.994,3.166l-2.263,1.3Z" transform="translate(94.19 32.043)" fill="#5793ce"/>
  <path id="Path_365" data-name="Path 365" d="M344.031,195.267a13.232,13.232,0,0,1-9.291-.095V175.53h9.291Z" transform="translate(5.387 42.761)" fill="#5793ce"/>
  <path id="Path_366" data-name="Path 366" d="M363.7,200.263,412.294,172.2c2.976-1.725,2.612-4.748-.839-6.711l-46.914-27.1a12.931,12.931,0,0,0-11.649-.475L304.3,165.964c-2.976,1.725-2.612,4.748.839,6.727l46.93,27.082a12.947,12.947,0,0,0,11.633.491Z" transform="translate(-13.525 20.164)" fill="#d4ecff"/>
  <path id="Path_367" data-name="Path 367" d="M359.474,193.271l40.725-23.5c2.5-1.44,2.184-3.957-.7-5.635l-39.316-22.7a10.81,10.81,0,0,0-9.75-.4l-40.725,23.5c-2.5,1.44-2.184,3.957.7,5.635l39.285,22.7a10.81,10.81,0,0,0,9.782.4Z" transform="translate(-10.183 22.092)" fill="#5793ce"/>
  <path id="Path_368" data-name="Path 368" d="M359.28,171.086a4.384,4.384,0,0,0,1.963,3.4c1.092.617,1.963.111,1.963-1.14a4.337,4.337,0,0,0-1.963-3.4C360.166,169.329,359.28,169.836,359.28,171.086Z" transform="translate(-52.629 39.354)" fill="#d4ecff"/>
  <path id="Path_369" data-name="Path 369" d="M363.27,168.79a4.321,4.321,0,0,0,1.963,3.387c1.092.633,1.963.127,1.963-1.124a4.337,4.337,0,0,0-1.963-3.4C364.156,167.017,363.27,167.524,363.27,168.79Z" transform="translate(-62.935 38.01)" fill="#d4ecff"/>
  <path id="Path_370" data-name="Path 370" d="M367.26,166.529a4.384,4.384,0,0,0,1.963,3.4c1.092.633,1.963.111,1.963-1.14a4.289,4.289,0,0,0-1.963-3.387C368.146,164.709,367.26,165.215,367.26,166.529Z" transform="translate(-73.24 36.678)" fill="#d4ecff"/>
  <path id="Path_371" data-name="Path 371" d="M302.3,160.2h0V143.438h37.591l12.995-7.5a12.979,12.979,0,0,1,11.649.475l12.124,7.012h37.623v17.252a3.419,3.419,0,0,1-1.994,3.166L363.7,191.887a12.947,12.947,0,0,1-11.634-.475l-46.93-27.1A4.606,4.606,0,0,1,302.3,160.2Z" transform="translate(-13.519 19.012)" fill="#396caa"/>
  <path id="Path_372" data-name="Path 372" d="M302.3,134.77a13.5,13.5,0,0,1,6.252,1.583l12.124,7.012H358.3v17.252a3.419,3.419,0,0,1-1.994,3.166L307.713,191.83a10.636,10.636,0,0,1-5.413,1.155Z" transform="translate(42.465 19.006)" fill="#396caa"/>
  <path id="Path_373" data-name="Path 373" d="M302.3,140.21h4.274v17.252a3.419,3.419,0,0,1-1.994,3.166l-2.263,1.3Z" transform="translate(94.19 22.176)" fill="#5793ce"/>
  <path id="Path_374" data-name="Path 374" d="M344.031,178.227a13.232,13.232,0,0,1-9.291-.095V158.6h9.291Z" transform="translate(5.387 32.894)" fill="#5793ce"/>
  <path id="Path_375" data-name="Path 375" d="M363.7,183.381l48.592-28.063c2.976-1.725,2.612-4.748-.839-6.711l-46.914-27.1a12.979,12.979,0,0,0-11.649-.475L304.3,149.082c-2.976,1.725-2.612,4.748.839,6.727l46.93,27.082a12.947,12.947,0,0,0,11.633.491Z" transform="translate(-13.525 10.328)" fill="#d4ecff"/>
  <path id="Path_376" data-name="Path 376" d="M359.474,176.354l40.725-23.52c2.5-1.44,2.184-3.957-.7-5.619L360.187,124.5a10.858,10.858,0,0,0-9.75-.4l-40.725,23.5c-2.5,1.44-2.184,3.973.7,5.635l39.285,22.7a10.858,10.858,0,0,0,9.782.412Z" transform="translate(-10.183 12.227)" fill="#5793ce"/>
  <path id="Path_377" data-name="Path 377" d="M359.28,154.156a4.384,4.384,0,0,0,1.963,3.4c1.092.617,1.963.111,1.963-1.14a4.337,4.337,0,0,0-1.963-3.4C360.166,152.4,359.28,152.906,359.28,154.156Z" transform="translate(-52.629 29.487)" fill="#d4ecff"/>
  <path id="Path_378" data-name="Path 378" d="M363.27,151.856a4.321,4.321,0,0,0,1.963,3.387c1.092.633,1.963.127,1.963-1.124a4.337,4.337,0,0,0-1.963-3.4C364.156,150.1,363.27,150.606,363.27,151.856Z" transform="translate(-62.935 28.147)" fill="#d4ecff"/>
  <path id="Path_379" data-name="Path 379" d="M367.26,149.5a4.353,4.353,0,0,0,1.963,3.4c1.092.633,1.963.127,1.963-1.124a4.289,4.289,0,0,0-1.963-3.4C368.146,147.794,367.26,148.3,367.26,149.5Z" transform="translate(-73.24 26.796)" fill="#d4ecff"/>
  <path id="Path_380" data-name="Path 380" d="M302.3,143.285h0V126.508h37.591l12.995-7.5a12.979,12.979,0,0,1,11.649.475l12.124,7.012h37.623v17.252a3.419,3.419,0,0,1-1.994,3.166L363.7,174.957a12.947,12.947,0,0,1-11.634-.475l-46.93-27.1a4.606,4.606,0,0,1-2.833-4.1Z" transform="translate(-13.519 9.145)" fill="#396caa"/>
  <path id="Path_381" data-name="Path 381" d="M302.3,117.84a13.5,13.5,0,0,1,6.252,1.583l12.124,7.012H358.3v17.252a3.419,3.419,0,0,1-1.994,3.166L307.713,174.9a10.478,10.478,0,0,1-5.413,1.155Z" transform="translate(42.465 9.139)" fill="#396caa"/>
  <path id="Path_382" data-name="Path 382" d="M302.3,123.28h4.274v17.252a3.419,3.419,0,0,1-1.994,3.166L302.3,145Z" transform="translate(94.19 12.31)" fill="#5793ce"/>
  <path id="Path_383" data-name="Path 383" d="M344.031,161.344a13.232,13.232,0,0,1-9.291-.095V141.67h9.291Z" transform="translate(5.387 23.027)" fill="#5793ce"/>
  <path id="Path_384" data-name="Path 384" d="M363.7,166.381l48.592-28.063c2.976-1.725,2.612-4.748-.839-6.711l-46.914-27.1a12.979,12.979,0,0,0-11.649-.475L304.3,132.082c-2.976,1.725-2.612,4.748.839,6.727l46.93,27.082A12.9,12.9,0,0,0,363.7,166.381Z" transform="translate(-13.525 0.421)" fill="#d4ecff"/>
  <path id="Path_385" data-name="Path 385" d="M305.151,124.291l46.93,27.1a12.947,12.947,0,0,0,11.633.475l48.592-28.047a4.575,4.575,0,0,0,1.488-1.33,3.166,3.166,0,0,1-1.488,4.622l-48.592,28.031a12.9,12.9,0,0,1-11.634-.491l-46.93-27.082c-2.675-1.583-3.482-3.7-2.327-5.4A6.616,6.616,0,0,0,305.151,124.291Z" transform="translate(-13.537 11.663)" fill="#fff"/>
  <path id="Path_386" data-name="Path 386" d="M359.28,137.224a4.384,4.384,0,0,0,1.963,3.4c1.092.617,1.963.111,1.963-1.14a4.29,4.29,0,0,0-1.963-3.387C360.166,135.467,359.28,135.974,359.28,137.224Z" transform="translate(-52.629 19.622)" fill="#d4ecff"/>
  <path id="Path_387" data-name="Path 387" d="M363.27,134.926a4.385,4.385,0,0,0,1.963,3.4c1.092.617,1.963.111,1.963-1.14a4.337,4.337,0,0,0-1.963-3.4C364.156,133.169,363.27,133.676,363.27,134.926Z" transform="translate(-62.935 18.28)" fill="#d4ecff"/>
  <path id="Path_388" data-name="Path 388" d="M367.26,132.612a4.337,4.337,0,0,0,1.963,3.4c1.092.633,1.963.127,1.963-1.124a4.305,4.305,0,0,0-1.963-3.4C368.146,130.871,367.26,131.361,367.26,132.612Z" transform="translate(-73.24 16.938)" fill="#d4ecff"/>
  <path id="Path_389" data-name="Path 389" d="M349.85,142.947l22.745-13.137c1.393-.807,1.219-2.2-.4-3.166l-21.953-12.662a6.03,6.03,0,0,0-5.445-.222l-22.745,13.121c-1.393.807-1.219,2.216.4,3.166l21.953,12.662a6.078,6.078,0,0,0,5.445.237Z" transform="translate(-2.553 6.445)" fill="#5793ce"/>
  <path id="Path_390" data-name="Path 390" d="M339.3,126.587l3.166-1.8c.206-.111.174-.317,0-.443l-3.039-1.757a.855.855,0,0,0-.76,0L335.5,124.4c-.206.111-.174.3,0,.443l3.039,1.741A.855.855,0,0,0,339.3,126.587Z" transform="translate(5.827 11.852)" fill="#d4ecff"/>
  <path id="Path_391" data-name="Path 391" d="M372.506,129.846h0a2.425,2.425,0,0,0-.332-.222L350.22,116.962a6.046,6.046,0,0,0-5.445-.237l-22.681,13.09c-1.282-.918-1.345-2.168,0-2.912l22.745-13.121a6.03,6.03,0,0,1,5.445.222l21.953,12.662C373.724,127.646,373.9,129.038,372.506,129.846Z" transform="translate(-2.464 6.456)" fill="#396caa"/>
  <path id="Path_392" data-name="Path 392" d="M540.942,337.278l38.81-22.4c2.374-1.377,2.073-3.783-.665-5.366L541.559,287.88a10.336,10.336,0,0,0-9.291-.38l-38.81,22.4c-2.374,1.377-2.073,3.783.681,5.366L531.6,336.9a10.335,10.335,0,0,0,9.338.38Z" transform="translate(-480.621 107.478)" fill="#c4d9e8" opacity="0.5"/>
  <path id="Path_393" data-name="Path 393" d="M484.749,299.892h0V283.13H522.34l12.995-7.5a12.931,12.931,0,0,1,11.649.475l12.124,7h37.623v17.237a3.387,3.387,0,0,1-1.994,3.165l-48.592,28.063a12.9,12.9,0,0,1-11.633-.491l-46.93-27.081C485.524,302.756,484.638,301.284,484.749,299.892Z" transform="translate(-484.731 100.42)" fill="#396caa"/>
  <path id="Path_394" data-name="Path 394" d="M484.739,274.46a13.437,13.437,0,0,1,6.236,1.583l12.124,7h37.623v17.237a3.387,3.387,0,0,1-1.994,3.166L490.137,331.5a10.619,10.619,0,0,1-5.4,1.155Z" transform="translate(-428.723 100.416)" fill="#396caa"/>
  <path id="Path_395" data-name="Path 395" d="M484.739,279.9H489v17.237A3.387,3.387,0,0,1,487,300.3l-2.263,1.314Z" transform="translate(-376.998 103.586)" fill="#b45ef4"/>
  <path id="Path_396" data-name="Path 396" d="M526.471,317.97a13.153,13.153,0,0,1-9.291-.111V298.28h9.291Z" transform="translate(-465.817 114.298)" fill="#5793ce"/>
  <path id="Path_397" data-name="Path 397" d="M546.143,323.009l48.592-28.047c2.976-1.725,2.612-4.748-.839-6.727l-46.914-27.082a12.979,12.979,0,0,0-11.649-.491l-48.592,28.11c-2.976,1.725-2.612,4.748.839,6.711l46.93,27.1A12.9,12.9,0,0,0,546.143,323.009Z" transform="translate(-484.729 91.706)" fill="#d4ecff"/>
  <path id="Path_398" data-name="Path 398" d="M541.914,316.032l40.725-23.5c2.5-1.44,2.184-3.957-.7-5.635l-39.317-22.7a10.858,10.858,0,0,0-9.75-.412L492.151,287.3c-2.5,1.44-2.184,3.957.7,5.635l39.317,22.7a10.811,10.811,0,0,0,9.75.4Z" transform="translate(-481.387 93.634)" fill="#5793ce"/>
  <path id="Path_399" data-name="Path 399" d="M541.72,293.846a4.385,4.385,0,0,0,1.963,3.4c1.092.617,1.963.111,1.963-1.14a4.337,4.337,0,0,0-1.963-3.4C542.607,292.09,541.72,292.6,541.72,293.846Z" transform="translate(-523.833 110.897)" fill="#ff2c9c"/>
  <path id="Path_400" data-name="Path 400" d="M545.71,291.507a4.337,4.337,0,0,0,1.963,3.4c1.092.633,1.963.127,1.963-1.124a4.305,4.305,0,0,0-1.963-3.4C546.6,289.782,545.71,290.288,545.71,291.507Z" transform="translate(-534.139 109.548)" fill="#ff2c9c"/>
  <path id="Path_401" data-name="Path 401" d="M549.7,289.234a4.384,4.384,0,0,0,1.963,3.4c1.092.617,1.963.111,1.963-1.14a4.289,4.289,0,0,0-1.963-3.387C550.586,287.477,549.7,287.984,549.7,289.234Z" transform="translate(-544.444 108.212)" fill="#ff2c9c"/>
  <path id="Path_402" data-name="Path 402" d="M484.749,282.723h0V265.962H522.34l12.995-7.534a12.931,12.931,0,0,1,11.649.475l12.124,7h37.623v17.237a3.387,3.387,0,0,1-1.994,3.166l-48.592,28.063a12.9,12.9,0,0,1-11.633-.491l-46.93-27.082C485.524,285.588,484.638,284.116,484.749,282.723Z" transform="translate(-484.731 90.396)" fill="#396caa"/>
  <path id="Path_403" data-name="Path 403" d="M484.739,257.28a13.438,13.438,0,0,1,6.236,1.583l12.124,7h37.623V283.1a3.387,3.387,0,0,1-1.994,3.166l-48.592,28.063a10.619,10.619,0,0,1-5.4,1.155Z" transform="translate(-428.723 90.404)" fill="#396caa"/>
  <path id="Path_404" data-name="Path 404" d="M484.739,262.72H489v17.237A3.387,3.387,0,0,1,487,283.122l-2.263,1.314Z" transform="translate(-376.998 93.574)" fill="#5793ce"/>
  <path id="Path_405" data-name="Path 405" d="M526.471,300.79a13.153,13.153,0,0,1-9.291-.111V281.1h9.291Z" transform="translate(-465.817 104.286)" fill="#5793ce"/>
  <path id="Path_406" data-name="Path 406" d="M546.143,305.829l48.592-28.047c2.976-1.725,2.612-4.748-.839-6.727l-46.914-27.082a12.979,12.979,0,0,0-11.649-.491l-48.592,28.063c-2.976,1.725-2.612,4.748.839,6.711l46.93,27.1A12.9,12.9,0,0,0,546.143,305.829Z" transform="translate(-484.729 81.694)" fill="#d4ecff"/>
  <path id="Path_407" data-name="Path 407" d="M541.914,298.852l40.725-23.5c2.5-1.44,2.184-3.957-.7-5.635l-39.317-22.7a10.858,10.858,0,0,0-9.75-.412l-40.725,23.52c-2.5,1.44-2.184,3.957.7,5.635l39.316,22.681a10.81,10.81,0,0,0,9.75.411Z" transform="translate(-481.387 83.622)" fill="#5793ce"/>
  <path id="Path_408" data-name="Path 408" d="M541.76,276.677a4.384,4.384,0,0,0,1.9,3.4c1.092.617,1.963.111,1.963-1.14a4.337,4.337,0,0,0-1.963-3.4C542.646,274.856,541.76,275.426,541.76,276.677Z" transform="translate(-523.873 100.874)" fill="#ff2c9c"/>
  <path id="Path_409" data-name="Path 409" d="M545.76,274.352a4.337,4.337,0,0,0,1.883,3.419c1.092.633,1.963.127,1.963-1.124a4.305,4.305,0,0,0-1.963-3.4C546.646,272.6,545.76,273.1,545.76,274.352Z" transform="translate(-534.189 99.542)" fill="#ff2c9c"/>
  <path id="Path_410" data-name="Path 410" d="M549.7,272.054a4.384,4.384,0,0,0,1.963,3.4c1.092.617,1.963.111,1.963-1.14a4.289,4.289,0,0,0-1.963-3.387C550.586,270.3,549.7,270.8,549.7,272.054Z" transform="translate(-544.444 98.2)" fill="#ff2c9c"/>
  <path id="Path_411" data-name="Path 411" d="M484.749,265.532h0V248.77H522.34l12.995-7.5a12.931,12.931,0,0,1,11.649.475l12.124,7h37.623v17.237a3.387,3.387,0,0,1-1.994,3.166L546.145,297.2a12.9,12.9,0,0,1-11.633-.491l-46.93-27.082C485.524,268.428,484.638,266.924,484.749,265.532Z" transform="translate(-484.731 80.395)" fill="#396caa"/>
  <path id="Path_412" data-name="Path 412" d="M484.739,240.1a13.437,13.437,0,0,1,6.236,1.583l12.124,7h37.623v17.237a3.387,3.387,0,0,1-1.994,3.166l-48.592,28.063a10.619,10.619,0,0,1-5.4,1.155Z" transform="translate(-428.723 80.391)" fill="#396caa"/>
  <path id="Path_413" data-name="Path 413" d="M484.739,245.54H489v17.237A3.387,3.387,0,0,1,487,265.942l-2.263,1.314Z" transform="translate(-376.998 83.562)" fill="#5793ce"/>
  <path id="Path_414" data-name="Path 414" d="M526.471,283.61a13.153,13.153,0,0,1-9.291-.111V263.92h9.291Z" transform="translate(-465.817 94.273)" fill="#5793ce"/>
  <path id="Path_415" data-name="Path 415" d="M546.143,288.649,594.734,260.6c2.976-1.725,2.612-4.748-.839-6.727l-46.914-27.082a12.979,12.979,0,0,0-11.649-.491l-48.592,28.063c-2.976,1.725-2.612,4.748.839,6.711l46.93,27.145A12.9,12.9,0,0,0,546.143,288.649Z" transform="translate(-484.729 71.681)" fill="#d4ecff"/>
  <path id="Path_416" data-name="Path 416" d="M487.567,246.545l46.93,27.082a12.9,12.9,0,0,0,11.633.491l48.592-28.063a4.369,4.369,0,0,0,1.488-1.314c1.029,1.583.554,3.435-1.488,4.622L546.13,277.409a12.9,12.9,0,0,1-11.633-.475l-46.93-27.1c-2.675-1.583-3.482-3.7-2.327-5.4A6.489,6.489,0,0,0,487.567,246.545Z" transform="translate(-484.717 82.921)" fill="#fff"/>
  <path id="Path_417" data-name="Path 417" d="M541.72,259.527a4.384,4.384,0,0,0,1.963,3.4c1.092.617,1.963.111,1.963-1.14a4.336,4.336,0,0,0-1.963-3.4C542.607,257.723,541.72,258.229,541.72,259.527Z" transform="translate(-523.833 90.879)" fill="#ff2c9c"/>
  <path id="Path_418" data-name="Path 418" d="M545.71,257.164a4.337,4.337,0,0,0,1.963,3.4c1.092.633,1.963.127,1.963-1.124a4.305,4.305,0,0,0-2.042-3.324C546.6,255.408,545.71,255.914,545.71,257.164Z" transform="translate(-534.139 89.538)" fill="#ff2c9c"/>
  <path id="Path_419" data-name="Path 419" d="M549.7,254.874a4.384,4.384,0,0,0,1.963,3.4c1.092.617,1.963.111,1.963-1.14a4.289,4.289,0,0,0-1.963-3.387C550.586,253.117,549.7,253.624,549.7,254.874Z" transform="translate(-544.444 88.188)" fill="#ff2c9c"/>
  <path id="Path_420" data-name="Path 420" d="M532.29,265.71l22.745-13.137c1.393-.807,1.219-2.216-.4-3.166l-21.953-12.662a6.046,6.046,0,0,0-5.445-.237L504.5,249.644c-1.393.807-1.219,2.216.4,3.166l21.953,12.662a6.094,6.094,0,0,0,5.445.237Z" transform="translate(-473.757 77.985)" fill="#5793ce"/>
  <path id="Path_421" data-name="Path 421" d="M521.741,249.317l3.166-1.82c.206-.111.174-.3,0-.427l-3.039-1.757a.855.855,0,0,0-.76,0l-3.166,1.82c-.206.111-.174.3,0,.427l3.039,1.757a.854.854,0,0,0,.76,0Z" transform="translate(-465.377 83.377)" fill="#d4ecff"/>
  <path id="Path_422" data-name="Path 422" d="M554.946,252.567h0l-.332-.222L532.66,239.683a6.078,6.078,0,0,0-5.445-.222l-22.681,13.105c-1.282-.918-1.345-2.168,0-2.912l22.745-13.137a6.046,6.046,0,0,1,5.445.237l21.953,12.662C556.164,250.351,556.339,251.838,554.946,252.567Z" transform="translate(-473.668 77.991)" fill="#396caa"/>
  <path id="Path_423" data-name="Path 423" d="M495.91,291.122l19.674-11.349a5.271,5.271,0,0,0,2.2-4.194h0c0-1.583-.981-2.374-2.2-1.662L495.91,285.281a5.3,5.3,0,0,0-2.2,4.194h0C493.71,291.09,494.707,291.834,495.91,291.122Z" transform="translate(-419.982 99.946)" fill="#295385"/>
  <path id="Path_424" data-name="Path 424" d="M494.058,290.034l19.674-11.364a5.239,5.239,0,0,0,2.2-4.194,3.4,3.4,0,0,0-.095-.728c1.044-.38,1.852.348,1.852,1.82a5.271,5.271,0,0,1-2.2,4.194L495.815,291.11a1.314,1.314,0,0,1-2.105-.918Z" transform="translate(-419.887 99.942)" fill="#d4ecff"/>
  <path id="Path_425" data-name="Path 425" d="M486.554,368l38.81-22.412c2.374-1.377,2.073-3.783-.681-5.366L487.219,318.59a10.336,10.336,0,0,0-9.291-.38l-38.857,22.365c-2.374,1.361-2.073,3.767.665,5.35l37.48,21.637a10.288,10.288,0,0,0,9.338.443Z" transform="translate(-340.145 125.375)" fill="#c4d9e8" opacity="0.5"/>
  <path id="Path_426" data-name="Path 426" d="M430.34,330.6h0V313.838h37.591l12.995-7.5a12.947,12.947,0,0,1,11.633.475l12.124,7h37.639v17.252a3.419,3.419,0,0,1-1.994,3.166L491.72,362.271c-2.976,1.725-8.183,1.5-11.633-.475l-46.914-27.1a4.59,4.59,0,0,1-2.833-4.1Z" transform="translate(-344.219 118.319)" fill="#396caa"/>
  <path id="Path_427" data-name="Path 427" d="M430.34,305.17a13.391,13.391,0,0,1,6.236,1.583l12.124,7h37.639V331a3.419,3.419,0,0,1-1.994,3.166l-48.607,28.047a10.542,10.542,0,0,1-5.4,1.155Z" transform="translate(-288.236 118.313)" fill="#396caa"/>
  <path id="Path_428" data-name="Path 428" d="M430.31,310.61h4.258v17.252a3.419,3.419,0,0,1-1.994,3.166l-2.263,1.3Z" transform="translate(-236.417 121.484)" fill="#5793ce"/>
  <path id="Path_429" data-name="Path 429" d="M472.071,348.674a13.232,13.232,0,0,1-9.291-.1V329h9.291Z" transform="translate(-325.313 132.201)" fill="#5793ce"/>
  <path id="Path_430" data-name="Path 430" d="M491.73,353.733l48.607-28.063c2.976-1.725,2.6-4.748-.839-6.711l-46.93-27.1a12.9,12.9,0,0,0-11.633-.475l-48.592,28.047c-2.976,1.725-2.612,4.748.839,6.727L480.1,353.179a12.947,12.947,0,0,0,11.634.554Z" transform="translate(-344.229 109.605)" fill="#d4ecff"/>
  <path id="Path_431" data-name="Path 431" d="M487.514,346.741l40.725-23.5c2.5-1.44,2.184-3.957-.7-5.635l-39.316-22.7a10.842,10.842,0,0,0-9.766-.4l-40.709,23.5c-2.5,1.44-2.184,3.957.7,5.635l39.348,22.7a10.81,10.81,0,0,0,9.718.4Z" transform="translate(-340.883 111.532)" fill="#5793ce"/>
  <path id="Path_432" data-name="Path 432" d="M487.32,324.5a4.385,4.385,0,0,0,1.963,3.4c1.092.617,1.963.111,1.963-1.14a4.337,4.337,0,0,0-1.963-3.4C488.206,322.809,487.32,323.315,487.32,324.5Z" transform="translate(-383.329 128.785)" fill="#ff2c9c"/>
  <path id="Path_433" data-name="Path 433" d="M491.31,322.254a4.321,4.321,0,0,0,1.963,3.387c1.092.633,1.963.127,1.963-1.124a4.337,4.337,0,0,0-1.963-3.4A1.211,1.211,0,0,0,491.31,322.254Z" transform="translate(-393.635 127.456)" fill="#ff2c9c"/>
  <path id="Path_434" data-name="Path 434" d="M495.3,319.944a4.384,4.384,0,0,0,1.963,3.4c1.092.633,1.963.111,1.963-1.14a4.289,4.289,0,0,0-1.963-3.387C496.186,318.187,495.3,318.694,495.3,319.944Z" transform="translate(-403.94 126.11)" fill="#ff2c9c"/>
  <path id="Path_435" data-name="Path 435" d="M430.34,313.419h0V296.658h37.591l12.995-7.5a12.947,12.947,0,0,1,11.633.475l12.124,7h37.639v17.252a3.419,3.419,0,0,1-1.994,3.166L491.72,344.98c-2.976,1.725-8.183,1.583-11.633-.475L433.173,317.44A4.59,4.59,0,0,1,430.34,313.419Z" transform="translate(-344.219 108.307)" fill="#396caa"/>
  <path id="Path_436" data-name="Path 436" d="M430.34,288a13.39,13.39,0,0,1,6.236,1.583l12.124,7h37.639v17.252A3.419,3.419,0,0,1,484.345,317L435.737,344.98a10.542,10.542,0,0,1-5.4,1.155Z" transform="translate(-288.236 108.307)" fill="#396caa"/>
  <path id="Path_437" data-name="Path 437" d="M430.31,293.43h4.258v17.252a3.419,3.419,0,0,1-1.994,3.166l-2.263,1.3Z" transform="translate(-236.417 111.471)" fill="#5793ce"/>
  <path id="Path_438" data-name="Path 438" d="M472.071,331.494a13.232,13.232,0,0,1-9.291-.1V311.82h9.291Z" transform="translate(-325.313 122.189)" fill="#5793ce"/>
  <path id="Path_439" data-name="Path 439" d="M491.73,336.553l48.607-28.063c2.976-1.725,2.6-4.748-.839-6.711l-46.93-27.1a12.9,12.9,0,0,0-11.633-.475l-48.592,28.047c-2.976,1.725-2.612,4.748.839,6.727L480.1,336.063A12.947,12.947,0,0,0,491.73,336.553Z" transform="translate(-344.229 99.592)" fill="#d4ecff"/>
  <path id="Path_440" data-name="Path 440" d="M487.514,329.591l40.725-23.5c2.5-1.44,2.184-3.957-.7-5.635l-39.316-22.7a10.842,10.842,0,0,0-9.766-.4l-40.709,23.5c-2.5,1.44-2.184,3.957.7,5.635l39.348,22.65a10.811,10.811,0,0,0,9.718.443Z" transform="translate(-340.884 101.538)" fill="#5793ce"/>
  <path id="Path_441" data-name="Path 441" d="M487.32,307.376a4.385,4.385,0,0,0,1.963,3.4c1.092.617,1.963.111,1.963-1.14a4.337,4.337,0,0,0-1.963-3.4C488.206,305.619,487.32,306.126,487.32,307.376Z" transform="translate(-383.329 118.782)" fill="#ff2c9c"/>
  <path id="Path_442" data-name="Path 442" d="M491.31,305.08a4.321,4.321,0,0,0,1.963,3.387c1.092.633,1.963.127,1.963-1.124a4.336,4.336,0,0,0-1.963-3.4C492.2,303.307,491.31,303.814,491.31,305.08Z" transform="translate(-393.635 117.438)" fill="#ff2c9c"/>
  <path id="Path_443" data-name="Path 443" d="M495.3,302.764a4.384,4.384,0,0,0,1.963,3.4c1.092.633,1.963.111,1.963-1.14a4.289,4.289,0,0,0-1.963-3.387C496.186,301.007,495.3,301.514,495.3,302.764Z" transform="translate(-403.94 116.097)" fill="#ff2c9c"/>
  <path id="Path_444" data-name="Path 444" d="M430.34,296.239h0V279.478h37.591l12.995-7.5a12.947,12.947,0,0,1,11.633.475l12.124,7h37.639V296.7a3.419,3.419,0,0,1-1.994,3.166L491.72,327.911c-2.976,1.725-8.183,1.583-11.633-.475l-46.914-27.1a4.59,4.59,0,0,1-2.833-4.1Z" transform="translate(-344.219 98.295)" fill="#396caa"/>
  <path id="Path_445" data-name="Path 445" d="M430.34,270.81a13.39,13.39,0,0,1,6.236,1.583l12.124,7h37.639v17.252a3.419,3.419,0,0,1-1.994,3.166l-48.607,28.047a10.542,10.542,0,0,1-5.4,1.155Z" transform="translate(-288.236 98.289)" fill="#396caa"/>
  <path id="Path_446" data-name="Path 446" d="M430.31,276.25h4.258V293.5a3.419,3.419,0,0,1-1.994,3.166l-2.263,1.3Z" transform="translate(-236.417 101.459)" fill="#5793ce"/>
  <path id="Path_447" data-name="Path 447" d="M472.071,314.314a13.232,13.232,0,0,1-9.291-.1V294.64h9.291Z" transform="translate(-325.313 112.177)" fill="#5793ce"/>
  <path id="Path_448" data-name="Path 448" d="M491.73,319.389l48.607-28.079c2.976-1.725,2.6-4.748-.839-6.711l-46.93-27.1a12.9,12.9,0,0,0-11.633-.475l-48.592,28.047c-2.976,1.725-2.612,4.748.839,6.727L480.1,318.883a12.947,12.947,0,0,0,11.633.506Z" transform="translate(-344.229 89.58)" fill="#d4ecff"/>
  <path id="Path_449" data-name="Path 449" d="M433.2,277.249l46.914,27.1c3.45,1.979,8.658,2.2,11.633.475l48.607-28.047a4.574,4.574,0,0,0,1.488-1.33,3.166,3.166,0,0,1-1.488,4.622l-48.607,28.079a12.947,12.947,0,0,1-11.634-.491L433.2,280.573c-2.675-1.583-3.5-3.7-2.327-5.413A6.489,6.489,0,0,0,433.2,277.249Z" transform="translate(-344.244 100.824)" fill="#fff"/>
  <path id="Path_450" data-name="Path 450" d="M487.32,290.2a4.384,4.384,0,0,0,1.963,3.4c1.092.617,1.963.111,1.963-1.14a4.337,4.337,0,0,0-1.963-3.4C488.206,288.439,487.32,288.946,487.32,290.2Z" transform="translate(-383.329 108.77)" fill="#ff2c9c"/>
  <path id="Path_451" data-name="Path 451" d="M491.31,287.9a4.321,4.321,0,0,0,1.963,3.387c1.092.633,1.963.127,1.963-1.124a4.337,4.337,0,0,0-1.963-3.4C492.2,286.127,491.31,286.634,491.31,287.9Z" transform="translate(-393.635 107.426)" fill="#ff2c9c"/>
  <path id="Path_452" data-name="Path 452" d="M495.3,285.574a4.385,4.385,0,0,0,1.963,3.4c1.092.633,1.963.111,1.963-1.14a4.289,4.289,0,0,0-1.963-3.387C496.186,283.88,495.3,284.324,495.3,285.574Z" transform="translate(-403.94 106.095)" fill="#ff2c9c"/>
  <path id="Path_453" data-name="Path 453" d="M467.343,280.027l3.166-1.82c.19-.111.174-.3,0-.427l-3.039-1.757a.855.855,0,0,0-.76,0l-3.166,1.82c-.19.111-.158.3,0,.427L466.552,280a.823.823,0,0,0,.791.032Z" transform="translate(-324.891 101.275)" fill="#ff2c9c"/>
  <path id="Path_454" data-name="Path 454" d="M441.51,321.829l19.674-11.349a5.239,5.239,0,0,0,2.2-4.194h0c0-1.583-.981-2.358-2.2-1.662L441.51,315.973a5.271,5.271,0,0,0-2.2,4.21h0C439.31,321.8,440.291,322.542,441.51,321.829Z" transform="translate(-279.479 117.846)" fill="#295385"/>
  <path id="Path_455" data-name="Path 455" d="M439.658,320.753l19.674-11.364a5.287,5.287,0,0,0,2.2-4.194,3.382,3.382,0,0,0-.095-.728c1.045-.38,1.852.364,1.852,1.82a5.239,5.239,0,0,1-2.2,4.194l-19.674,11.349a1.3,1.3,0,0,1-2.105-.918Z" transform="translate(-279.384 117.846)" fill="#d4ecff"/>
  <path id="Path_456" data-name="Path 456" d="M446.246,322.783s4.748-2.422,7.74,1.187,7.17,12.108,7.3,17.854-4.558,5.366-7.328,4-10.905-13.153-11.4-15.464a7.914,7.914,0,0,1,1.361-6.046C444.694,323.717,446.246,322.783,446.246,322.783Z" transform="translate(-282.315 128.114)" fill="#173d7a"/>
  <path id="Path_457" data-name="Path 457" d="M447.083,322.187l-.222,4.97a2.8,2.8,0,0,0,1.393,2.58,5.6,5.6,0,0,0,3.7.586c3.625-.586,3.941-1.583,4.194-6.584S447.083,322.187,447.083,322.187Z" transform="translate(-284.197 127.555)" fill="#e8a200"/>
  <path id="Path_458" data-name="Path 458" d="M435.153,316.743s4.748-2.422,7.74,1.187,7.154,12.108,7.3,17.854-4.558,5.366-7.328,4-10.921-13.153-11.412-15.464a8.056,8.056,0,0,1,1.361-6.046A19.816,19.816,0,0,1,435.153,316.743Z" transform="translate(-253.653 124.594)" fill="#173d7a"/>
  <path id="Path_459" data-name="Path 459" d="M435.983,316.147l-.222,4.97a2.8,2.8,0,0,0,1.393,2.58,5.6,5.6,0,0,0,3.7.586c3.625-.586,3.941-1.583,4.194-6.584S435.983,316.147,435.983,316.147Z" transform="translate(-255.528 124.035)" fill="#e8a200"/>
  <path id="Path_460" data-name="Path 460" d="M431.073,261.533c1.424-23.109,25.024,3.387,25.024,3.387l16.16,15.828L486.8,296.735a14.245,14.245,0,0,1,3.625,11.523l-5.888,44.809a4.4,4.4,0,0,1-4.416,3.83,14.559,14.559,0,0,1-2.184-.19,5.461,5.461,0,0,1-4.859-5.809l1.076-41.96-30.564-18.424S429.648,284.642,431.073,261.533Z" transform="translate(-293.448 87.369)" fill="#fdd762"/>
  <path id="Path_461" data-name="Path 461" d="M442.173,267.092c1.424-23.109,25.04,3.4,25.04,3.4l16.144,15.828,14.562,15.986a14.355,14.355,0,0,1,3.609,11.523l-5.888,44.825a4.4,4.4,0,0,1-4.416,3.83,14.966,14.966,0,0,1-2.184-.206,5.476,5.476,0,0,1-4.859-5.809l1.076-41.912L454.693,296.2S440.764,290.2,442.173,267.092Z" transform="translate(-322.117 90.611)" fill="#fdd762"/>
  <path id="Path_462" data-name="Path 462" d="M466.543,217.689c-17.9,7.423-17.537,18-17.537,18s3.5,38.794,2.3,64.689c-.491,10.842,57.534,11.665,48.892-17.237-10.209-34.062-6.331-61.634-11.159-65.8S471.165,215.773,466.543,217.689Z" transform="translate(-332.511 65.829)" fill="#3c498a"/>
  <path id="Path_463" data-name="Path 463" d="M463.225,226.088c.934,3.625,5.7,5.54,10.636,4.274s8.183-5.255,7.233-8.879-5.7-5.556-10.62-4.289S462.291,222.448,463.225,226.088Z" transform="translate(-334.955 66.815)" fill="#ffc2b0"/>
  <path id="Path_464" data-name="Path 464" d="M471.126,231.933a12.9,12.9,0,0,0,3.261-.427c5.381-1.377,8.911-5.84,7.914-9.924s-6.331-6.331-11.681-4.891a11.871,11.871,0,0,0-6.331,3.846,6.474,6.474,0,0,0,2.738,10.636A10.889,10.889,0,0,0,471.126,231.933Zm2.643-13.944c3.324,0,6.11,1.583,6.743,4.02.823,3.166-2.153,6.7-6.632,7.914a10.288,10.288,0,0,1-6.331-.253,5.223,5.223,0,0,1-3.308-3.4h0a5.207,5.207,0,0,1,1.25-4.574,10.241,10.241,0,0,1,5.382-3.261,11.255,11.255,0,0,1,2.9-.443Z" transform="translate(-335.274 66.494)" fill="#fff"/>
  <path id="Path_465" data-name="Path 465" d="M475.159,217.564a43.139,43.139,0,0,0,.158,6.331c.095,1.773-6.141,3.45-7.756,1.836s-.981-3.292-1.361-9.37S475.159,217.564,475.159,217.564Z" transform="translate(-333.957 65.146)" fill="#ffc2b0"/>
  <path id="Path_466" data-name="Path 466" d="M466.24,215.51s1.583,5.635,9.117,7.787l-.111-5.112Z" transform="translate(-334.076 66.06)" fill="#ea9c92"/>
  <path id="Path_467" data-name="Path 467" d="M458.314,210.284a13.77,13.77,0,1,0,16.778-9.892A13.77,13.77,0,0,0,458.314,210.284Z" transform="translate(-330.898 56.994)" fill="#ffc2b0"/>
  <path id="Path_468" data-name="Path 468" d="M457.794,210.224s7.6,3.245,12.836,3.276,4.1-4.353,4.1-4.353L459.139,206.9Z" transform="translate(-320.185 61.043)" fill="#ea9c92"/>
  <path id="Path_469" data-name="Path 469" d="M481.677,217.186s-6.6-2.8-12.393-1.583a6.094,6.094,0,0,0-3.514,2.073,2.105,2.105,0,0,1-1.06.776c-1.029.222-2.706-4.036-4.748-4.131s-3.34,1.314-1.694,3.941,1.076,5.556.332,5.967-8.753-5.7-1.694-19.674,24.961-6.442,27.746-3.609c0,0,2.944,2.564,5.318.285C490.018,201.184,492.693,221.222,481.677,217.186Z" transform="translate(-329.665 54.904)"/>
  <path id="Path_470" data-name="Path 470" d="M473.362,248.185v10.478a4.258,4.258,0,0,0,1.393,3.165l21.526,19.6-2.437,3.751L465.354,264.6A5.809,5.809,0,0,1,463,260.515L461.08,242.25Z" transform="translate(-346.833 81.644)" fill="#ffc2b0"/>
  <path id="Path_471" data-name="Path 471" d="M483.577,224.8s-6.521,9.829-8.959,35.676c0,0,11.159,3.609,17.49,1.583S483.577,224.8,483.577,224.8Z" transform="translate(-365.658 71.475)" fill="#3c498a"/>
  <path id="Path_472" data-name="Path 472" d="M473.1,232.65a180.809,180.809,0,0,1,2.707,20.117,4.1,4.1,0,0,1-2.707,3.957h0Z" transform="translate(-345.383 76.049)" fill="#2f3968"/>
  <path id="Path_473" data-name="Path 473" d="M430.933,282.563l4.748-.617,30.738-17.806a4.274,4.274,0,0,1,3.83.158l21.779,12.567,2.865-.38v2.865h0a1.124,1.124,0,0,1-.665,1.013l-34.821,20.086a4.242,4.242,0,0,1-3.846-.158L431.82,286.615a1.583,1.583,0,0,1-.95-1.3h0Z" transform="translate(-297.63 94.181)" fill="#173d7a"/>
  <path id="Path_474" data-name="Path 474" d="M430.87,269.02l2.184-1.25h24l11.839,6.822,2.865-.38v2.865h0a1.124,1.124,0,0,1-.665,1.013l-34.821,20.086a3.609,3.609,0,0,1-1.978.38Z" transform="translate(-274.489 96.517)" fill="#396caa"/>
  <path id="Path_475" data-name="Path 475" d="M430.87,272.064l1.266-.174v2.865h0a1.124,1.124,0,0,1-.665,1.013l-.6.348Z" transform="translate(-234.872 98.918)" fill="#5793ce"/>
  <path id="Path_476" data-name="Path 476" d="M456.761,288.961a4.5,4.5,0,0,1-3.26-.206V283.88h3.26Z" transform="translate(-295.315 105.906)" fill="#274f89"/>
  <path id="Path_477" data-name="Path 477" d="M459.356,298.636l34.821-20.1c1-.57.87-1.583-.269-2.216l-23.742-13.691a4.274,4.274,0,0,0-3.83-.158l-34.821,20.1c-.981.57-.855,1.583.285,2.216l23.742,13.691a4.353,4.353,0,0,0,3.815.158Z" transform="translate(-297.562 93.207)" fill="#fff"/>
  <path id="Path_478" data-name="Path 478" d="M450.882,292.875l28.949-16.714c.823-.475.712-1.3-.237-1.836l-12.662-7.154a3.577,3.577,0,0,0-3.166-.127l-28.949,16.714c-.807.475-.712,1.3.237,1.836l12.662,7.154a3.577,3.577,0,0,0,3.166.127Z" transform="translate(-288.503 95.914)" fill="#d4ecff"/>
  <path id="Path_479" data-name="Path 479" d="M454.157,262.442l.364,2.406a17.869,17.869,0,0,1-.158,6.157l-.427,2.121a2.976,2.976,0,0,1-2.39,2.343h0a1.583,1.583,0,0,1-1.915-1.44l-.586-5.128s-1.314,1.725-1.947,1.725.712-5.144,2.153-8.056S454.157,262.442,454.157,262.442Z" transform="translate(-282.882 92.712)" fill="#ffc2b0"/>
  <path id="Path_480" data-name="Path 480" d="M445.847,240.557l3.735,7.392a14.7,14.7,0,0,1,1.583,5.6l1.583,25.325,4.907-.127,2.232-28.4a9.764,9.764,0,0,0-.127-2.627l-2.548-14.388Z" transform="translate(-286.364 76.452)" fill="#ffc2b0"/>
  <path id="Path_481" data-name="Path 481" d="M431.3,306.129l2.928-3.8,30.69-17.791a4.3,4.3,0,0,0,1.789-3.4V256l1.757-2.311-1.583-.965h0a1.108,1.108,0,0,0-1.2,0l-34.821,20.149a4.242,4.242,0,0,0-1.788,3.4v27.366a1.583,1.583,0,0,0,.649,1.456h0Z" transform="translate(-268.336 87.646)" fill="#173d7a"/>
  <path id="Path_482" data-name="Path 482" d="M452.084,291.709l2.168-1.266,11.982-20.782V256l1.757-2.311-1.583-.965h0a1.108,1.108,0,0,0-1.2,0l-34.821,20.149a3.577,3.577,0,0,0-1.314,1.583Z" transform="translate(-267.878 87.646)" fill="#396caa"/>
  <path id="Path_483" data-name="Path 483" d="M431.708,254.72l.776-1.029-1.583-.965h0a1.108,1.108,0,0,0-1.2,0l-.617.348Z" transform="translate(-232.386 87.646)" fill="#5793ce"/>
  <path id="Path_484" data-name="Path 484" d="M452.286,265.58a4.415,4.415,0,0,0-1.456,2.928l3.4,1.963,1.583-2.833Z" transform="translate(-290.144 95.241)" fill="#274f89"/>
  <path id="Path_485" data-name="Path 485" d="M430.479,273.494,465.3,253.361c.981-.57,1.789,0,1.789,1.345v27.366a4.242,4.242,0,0,1-1.789,3.4l-34.821,20.149c-1,.57-1.789,0-1.789-1.345V276.913a4.29,4.29,0,0,1,1.789-3.419Z" transform="translate(-266.374 87.992)" fill="#fff"/>
  <path id="Path_486" data-name="Path 486" d="M455.377,270.816l.554,1.155a7.613,7.613,0,0,0,2.912,3.166l3.45,2.137a3.45,3.45,0,0,0,3.53.079l.111-.079a2.058,2.058,0,0,0,.3-3.166l-3.609-3.72s2.026,1.583,2.6.934-1.979-2.707-3.8-2.77a7.265,7.265,0,0,1-3.609-1.583Z" transform="translate(-308.366 96.051)" fill="#ffc2b0"/>
  <path id="Path_487" data-name="Path 487" d="M447.986,216.49s13.232,14.4,18.582,27.62a27.018,27.018,0,0,1-15.606,11.349C439.819,258.656,447.986,216.49,447.986,216.49Z" transform="translate(-291.827 66.632)" fill="#3c498a"/>
  <path id="Path_488" data-name="Path 488" d="M453.687,248.2,451.55,227.48,456.6,246.9A29.263,29.263,0,0,1,453.687,248.2Z" transform="translate(-292.067 73.036)" fill="#2f3968"/>
  <path id="Path_489" data-name="Path 489" d="M265.669,298.068c9.5,5.508,25.04,5.508,34.6,0s9.5-14.467,0-19.975-25.04-5.524-34.6,0S256.125,292.544,265.669,298.068Z" transform="translate(162.667 100.122)" fill="#c4d9e8" opacity="0.5"/>
  <ellipse id="Ellipse_13" data-name="Ellipse 13" cx="24.454" cy="14.118" rx="24.454" ry="14.118" transform="translate(276.815 456.12)" fill="#c4d9e8" opacity="0.5"/>
  <path id="Path_490" data-name="Path 490" d="M290.549,162s-.712,14.5-1.82,24.233-24.549-7.471-24.549-7.471v-11.08Z" transform="translate(170.55 34.875)" fill="#a27907"/>
  <path id="Path_491" data-name="Path 491" d="M291.623,278.174c-.348.886-6.426,8.278-12.5,10.13a13.787,13.787,0,0,1-5.587.76,1.82,1.82,0,0,1-1.488-2.437,23.045,23.045,0,0,1,11.649-12.852C294,268.677,291.623,278.174,291.623,278.174Z" transform="translate(156.973 99.14)" fill="#173d7a"/>
  <path id="Path_492" data-name="Path 492" d="M268.49,277.75a51.137,51.137,0,0,0-2.991,9.877c-.427,2.738,1.076,6.331,2.311,8.658a2.532,2.532,0,0,0,3.941.681,14.64,14.64,0,0,0,4.938-9.5c.7-7.566,0-8.9,0-8.9Z" transform="translate(182.131 102.333)" fill="#173d7a"/>
  <path id="Path_493" data-name="Path 493" d="M298.634,222.637a144.448,144.448,0,0,1,0,20.133c-.791,10.557-3.625,59.988-4.163,71.89,0,0,.269,3.593-6.7,2.8s-6.331-4.748-6.331-4.748-9.782-.127-10.1-5.888-10.019-68.9-10.019-91.6Z" transform="translate(166.628 65.897)" fill="#fdd762"/>
  <path id="Path_494" data-name="Path 494" d="M48.239,151.15l-5.651,34.521-5.128-.079.459-31.64Z" transform="translate(383.009 88.065)" fill="#ffc2b0"/>
  <path id="Path_495" data-name="Path 495" d="M295.25,169.44s-7.613-.206-10.272,10.81-4.748,24.786-2.422,25.942c6.933,3.435,11.317-.586,11.317-.586Z" transform="translate(138.357 39.211)" fill="#2f3968"/>
  <path id="Path_496" data-name="Path 496" d="M264.027,169.9a6.331,6.331,0,0,1,4.115-.222c6.489,1.868,30.88,9.022,34.916,12.472,4.638,3.957-6.98,26.274-6.806,33.6s1,15.939,1.583,23.884,1.583,12.33-4.986,15.7a25.546,25.546,0,0,1-25.926-2.8c-8.31-6.331-6.806-10.668-6.458-15.258s3.166-24.5,2.928-30.152a21.273,21.273,0,0,1-5.1-5.856c-2.168-3.7,1.662-10.494,3.261-14.926s-.9-9.5-.412-13.09A4.115,4.115,0,0,1,264.027,169.9Z" transform="translate(167.284 39.209)" fill="#3c498a"/>
  <ellipse id="Ellipse_14" data-name="Ellipse 14" cx="9.23" cy="7.333" rx="9.23" ry="7.333" transform="translate(456.501 224.582) rotate(-172.519)" fill="#fff"/>
  <path id="Path_497" data-name="Path 497" d="M268.142,176.377c-.364,2.881,2.263,5.587,5.888,6.046s6.853-1.488,7.218-4.368-2.263-5.571-5.888-6.03S268.507,173.513,268.142,176.377Z" transform="translate(173.599 40.679)" fill="#ffc2b0"/>
  <path id="Path_498" data-name="Path 498" d="M271.709,169.637s4.416-3.609,5.271-1.789,1.583,9.718,1.583,9.718l-8.753,2.342L271.14,172S269.4,170.46,271.709,169.637Z" transform="translate(173.625 37.985)" fill="#ffc2b0"/>
  <ellipse id="Ellipse_15" data-name="Ellipse 15" cx="13.058" cy="13.058" rx="13.058" ry="13.058" transform="translate(442.66 216.553) rotate(-128.64)" fill="#ffc2b0"/>
  <path id="Path_499" data-name="Path 499" d="M277.735,169.342c.079.412.142.855.222,1.3-.886,4.543-7.677,6.537-7.677,6.537l1-6.046s-.823-.7-.586-1.393C273.382,168.883,276.817,168.139,277.735,169.342Z" transform="translate(173.488 38.788)" fill="#ea9c92"/>
  <ellipse id="Ellipse_16" data-name="Ellipse 16" cx="13.058" cy="13.058" rx="13.058" ry="13.058" transform="translate(442.66 216.553) rotate(-128.64)" fill="#ffc2b0"/>
  <path id="Path_500" data-name="Path 500" d="M18.522,160.18l-1.456,34.948-5.112.538L8.63,164.2Z" transform="translate(458.357 93.328)" fill="#ffc2b0"/>
  <path id="Path_501" data-name="Path 501" d="M261.033,204.758c1.678-7.471,5.017-23.948,5.017-23.948l1.44,16.4c-1.583,4.859-3.071,9.323-3.007,11.918.095,4.289.427,9.038.807,13.834h0S259.34,212.213,261.033,204.758Z" transform="translate(199.069 45.838)" fill="#2f3968"/>
  <path id="Path_502" data-name="Path 502" d="M258.173,177s4.084,1.583,6.331,14.118,4.036,25.119-.079,26.733-7.566,2.849-8.785-.507-1.963-19.532-2.105-25.325S253.3,178.171,258.173,177Z" transform="translate(211.125 43.617)" fill="#3c498a"/>
  <path id="Path_503" data-name="Path 503" d="M277.177,305.184a20.143,20.143,0,0,1-2.8-.285h0L272.46,228.07Z" transform="translate(170.817 73.38)" fill="#d8892b"/>
  <path id="Path_504" data-name="Path 504" d="M248.291,268.936l2.722-3.545,28.6-16.556a3.957,3.957,0,0,0,1.583-3.166V222.275l1.583-2.153-1.583-.9h0a1.045,1.045,0,0,0-1.124,0l-32.4,18.756a3.957,3.957,0,0,0-1.662,3.166v25.483a1.44,1.44,0,0,0,.6,1.361h0Z" transform="translate(207.095 68.127)" fill="#5793ce"/>
  <path id="Path_505" data-name="Path 505" d="M267.647,255.5l2.042-1.171,11.08-19.373V222.3l1.583-2.153-1.583-.9h0a1.045,1.045,0,0,0-1.124,0L247.245,238a3.45,3.45,0,0,0-1.235,1.424Z" transform="translate(207.508 68.139)" fill="#fff"/>
  <path id="Path_506" data-name="Path 506" d="M248.488,221.062l.728-.95-1.583-.9h0a1.045,1.045,0,0,0-1.124,0l-.57.332Z" transform="translate(240.753 68.121)" fill="#d29fff"/>
  <path id="Path_507" data-name="Path 507" d="M267.445,231.176a3.943,3.943,0,0,0-1.265,2.727l3.281,1.836,1.558-2.643Z" transform="translate(186.915 75.193)" fill="#5793ce"/>
  <path id="Path_508" data-name="Path 508" d="M247.1,238.59l32.4-18.756c.918-.522,1.662,0,1.662,1.25v25.5a4,4,0,0,1-1.583,3.166l-32.4,18.756c-.918.522-1.583,0-1.583-1.25v-25.5A4,4,0,0,1,247.1,238.59Z" transform="translate(209.342 68.463)" fill="#173d7a"/>
  <path id="Path_509" data-name="Path 509" d="M260.936,221.256a78.637,78.637,0,0,1,1.155,10.779c-.206,2.612-1.583,6.917-2.659,6.822s0-10.51-1.9-9.5-2.058,2.817-2.912,2.184,1.472-9.5.855-13.39S260.936,221.256,260.936,221.256Z" transform="translate(214.44 66.914)" fill="#ffc2b0"/>
  <path id="Path_510" data-name="Path 510" d="M286.895,212.086a78.329,78.329,0,0,0-1.155,10.763c.206,2.612,1.583,6.933,2.659,6.838s0-10.51,1.9-9.5,2.058,2.817,2.912,2.184-1.472-9.5-.855-13.39S286.895,212.086,286.895,212.086Z" transform="translate(133.574 61.57)" fill="#ffc2b0"/>
  <path id="Path_511" data-name="Path 511" d="M279.847,166.1c-6.553,2.327-7.819.9-7.914.823a10,10,0,0,1-.127-1.2,12.52,12.52,0,0,1,.427-4.163l17-2.3A18.566,18.566,0,0,1,279.847,166.1Z" transform="translate(159.837 33.279)" fill="#ea9c92"/>
  <path id="Path_512" data-name="Path 512" d="M267.256,157.541c1.583-1.314,7.107-7.914,17.094-6.331,6.236.966,11.491,5.223,12.662,14.926a22.318,22.318,0,0,1-6.03,17.743,4.319,4.319,0,0,1-.712-.364c-2.5-1.583-2.77-2.548-2.77-2.548l-.554-4.954a1.377,1.377,0,0,1,1.25-1.377,2.485,2.485,0,0,0,1.82-1.108,2.912,2.912,0,0,0-2.089-4.907,2.216,2.216,0,0,1-2.3-1.583,1.187,1.187,0,0,0-1.583-.807c-3.261,1.187-11.285,3.735-16.461,2.263C261.035,166.594,265.7,158.934,267.256,157.541Z" transform="translate(163.945 28.445)" fill="#ffbe0b"/>
  <path id="Path_513" data-name="Path 513" d="M11.72,189.157l3.4-1.947L13.857,189.3l-1.725.633Z" transform="translate(456.866 109.08)" fill="#fff"/>
  <path id="Path_514" data-name="Path 514" d="M340.766,344.744l38.81-22.412c2.374-1.377,2.073-3.767-.665-5.366l-37.48-21.637a10.336,10.336,0,0,0-9.291-.38l-38.81,22.412c-2.374,1.377-2.073,3.767.665,5.366l37.48,21.621a10.288,10.288,0,0,0,9.291.4Z" transform="translate(36.319 111.819)" fill="#c4d9e8" opacity="0.5"/>
  <path id="Path_515" data-name="Path 515" d="M284.61,307.371h0V290.578H322.2l12.995-7.5a12.979,12.979,0,0,1,11.649.475l12.124,7.012h37.623v17.252a3.419,3.419,0,0,1-1.994,3.165l-48.592,28.047a12.979,12.979,0,0,1-11.649-.475l-46.914-27.1A4.59,4.59,0,0,1,284.61,307.371Z" transform="translate(32.171 104.764)" fill="#396caa"/>
  <path id="Path_516" data-name="Path 516" d="M284.62,281.91a13.5,13.5,0,0,1,6.252,1.583L303,290.5h37.623v17.252a3.419,3.419,0,0,1-1.994,3.166L290.033,338.97a10.636,10.636,0,0,1-5.413,1.155Z" transform="translate(88.128 104.758)" fill="#396caa"/>
  <path id="Path_517" data-name="Path 517" d="M284.61,287.35h4.258V304.6a3.419,3.419,0,0,1-1.994,3.166l-2.263,1.3Z" transform="translate(139.896 107.928)" fill="#5793ce"/>
  <path id="Path_518" data-name="Path 518" d="M326.341,325.414a13.232,13.232,0,0,1-9.291-.095V305.74h9.291Z" transform="translate(51.076 118.646)" fill="#5793ce"/>
  <path id="Path_519" data-name="Path 519" d="M345.949,330.473l48.592-28.063c2.976-1.725,2.612-4.748-.839-6.711l-46.851-27.1a12.931,12.931,0,0,0-11.649-.475l-48.592,28.047c-2.976,1.725-2.612,4.748.839,6.727l46.914,27.082A12.979,12.979,0,0,0,345.949,330.473Z" transform="translate(32.228 96.049)" fill="#d4ecff"/>
  <path id="Path_520" data-name="Path 520" d="M341.784,323.518l40.725-23.584c2.5-1.44,2.184-3.957-.7-5.619L342.5,271.6a10.858,10.858,0,0,0-9.75-.4l-40.725,23.5c-2.5,1.44-2.184,3.973.7,5.635l39.316,22.7a10.858,10.858,0,0,0,9.75.475Z" transform="translate(35.506 97.956)" fill="#5793ce"/>
  <path id="Path_521" data-name="Path 521" d="M341.59,301.3a4.384,4.384,0,0,0,1.963,3.4c1.092.617,1.963.111,1.963-1.14a4.337,4.337,0,0,0-1.963-3.4C342.476,299.538,341.59,300.061,341.59,301.3Z" transform="translate(-6.94 115.24)" fill="#d4ecff"/>
  <path id="Path_522" data-name="Path 522" d="M345.58,299a4.321,4.321,0,0,0,1.963,3.387c1.092.633,1.963.127,1.963-1.124a4.337,4.337,0,0,0-1.963-3.4C346.466,297.239,345.58,297.746,345.58,299Z" transform="translate(-17.245 113.898)" fill="#d4ecff"/>
  <path id="Path_523" data-name="Path 523" d="M349.57,296.684a4.353,4.353,0,0,0,1.963,3.4c1.092.633,1.963.127,1.963-1.124a4.289,4.289,0,0,0-1.963-3.4C350.456,294.927,349.57,295.434,349.57,296.684Z" transform="translate(-27.55 112.554)" fill="#d4ecff"/>
  <path id="Path_524" data-name="Path 524" d="M284.61,290.425h0V273.648H322.2l12.995-7.5a12.979,12.979,0,0,1,11.649.475l12.124,7.012h37.623v17.252a3.419,3.419,0,0,1-1.994,3.166l-48.592,27.936a12.979,12.979,0,0,1-11.649-.475l-46.914-27.1A4.574,4.574,0,0,1,284.61,290.425Z" transform="translate(32.171 94.897)" fill="#396caa"/>
  <path id="Path_525" data-name="Path 525" d="M284.62,265a13.5,13.5,0,0,1,6.252,1.583L303,273.595h37.623v17.252a3.419,3.419,0,0,1-1.994,3.166L290.049,321.98a10.478,10.478,0,0,1-5.413,1.155Z" transform="translate(88.128 94.903)" fill="#396caa"/>
  <path id="Path_526" data-name="Path 526" d="M284.61,270.42h4.258v17.252a3.419,3.419,0,0,1-1.994,3.166l-2.263,1.3Z" transform="translate(139.896 98.061)" fill="#5793ce"/>
  <path id="Path_527" data-name="Path 527" d="M326.341,308.484a13.232,13.232,0,0,1-9.291-.095V288.81h9.291Z" transform="translate(51.076 108.779)" fill="#5793ce"/>
  <path id="Path_528" data-name="Path 528" d="M345.949,313.541l48.592-28.063c2.976-1.725,2.612-4.748-.839-6.711l-46.851-27.1A12.979,12.979,0,0,0,335.2,251.2l-48.592,28.047c-2.976,1.725-2.612,4.748.839,6.727l46.914,27.082a12.931,12.931,0,0,0,11.586.491Z" transform="translate(32.228 86.184)" fill="#d4ecff"/>
  <path id="Path_529" data-name="Path 529" d="M341.784,306.612l40.725-23.568c2.5-1.44,2.184-3.957-.7-5.619L342.5,254.712a10.858,10.858,0,0,0-9.75-.4l-40.725,23.5c-2.5,1.44-2.184,3.973.7,5.635l39.316,22.7A10.858,10.858,0,0,0,341.784,306.612Z" transform="translate(35.506 88.112)" fill="#5793ce"/>
  <path id="Path_530" data-name="Path 530" d="M341.59,284.364a4.384,4.384,0,0,0,1.963,3.4c1.092.617,1.963.111,1.963-1.14a4.29,4.29,0,0,0-1.963-3.387C342.476,282.607,341.59,283.114,341.59,284.364Z" transform="translate(-6.94 105.374)" fill="#d4ecff"/>
  <path id="Path_531" data-name="Path 531" d="M345.58,282.066a4.384,4.384,0,0,0,1.963,3.4c1.092.617,1.963.111,1.963-1.14a4.337,4.337,0,0,0-1.963-3.4C346.466,280.309,345.58,280.816,345.58,282.066Z" transform="translate(-17.245 104.031)" fill="#d4ecff"/>
  <path id="Path_532" data-name="Path 532" d="M349.57,279.754a4.337,4.337,0,0,0,1.963,3.4c1.092.633,1.963.127,1.963-1.124a4.305,4.305,0,0,0-1.963-3.4C350.456,278,349.57,278.5,349.57,279.754Z" transform="translate(-27.55 102.687)" fill="#d4ecff"/>
  <path id="Path_533" data-name="Path 533" d="M284.609,273.495h0V256.717H322.2l12.995-7.5a12.931,12.931,0,0,1,11.649.491l12.124,7h37.623v17.252a3.387,3.387,0,0,1-1.994,3.166l-48.592,28.047a12.931,12.931,0,0,1-11.649-.475l-46.914-27.1A4.574,4.574,0,0,1,284.609,273.495Z" transform="translate(32.171 85.031)" fill="#396caa"/>
  <path id="Path_534" data-name="Path 534" d="M284.619,248.05a13.517,13.517,0,0,1,6.252,1.583l12.124,7h37.623v17.252a3.387,3.387,0,0,1-1.994,3.166l-48.592,28.047a10.478,10.478,0,0,1-5.413,1.156Z" transform="translate(88.129 85.024)" fill="#396caa"/>
  <path id="Path_535" data-name="Path 535" d="M284.609,253.5h4.258v17.252a3.387,3.387,0,0,1-1.994,3.166l-2.263,1.3Z" transform="translate(139.896 88.201)" fill="#5793ce"/>
  <path id="Path_536" data-name="Path 536" d="M326.341,291.57a13.327,13.327,0,0,1-9.291-.111V271.88h9.291Z" transform="translate(51.076 98.912)" fill="#5793ce"/>
  <path id="Path_537" data-name="Path 537" d="M345.949,296.611l48.592-28.063c2.976-1.709,2.612-4.748-.839-6.711l-46.851-27.1a12.979,12.979,0,0,0-11.649-.475l-48.592,28.047c-2.976,1.725-2.612,4.748.839,6.727l46.914,27.082a12.932,12.932,0,0,0,11.586.491Z" transform="translate(32.228 76.318)" fill="#d4ecff"/>
  <path id="Path_538" data-name="Path 538" d="M341.784,289.571l40.725-23.457c2.5-1.44,2.184-3.957-.7-5.619L342.5,237.782a10.858,10.858,0,0,0-9.75-.4l-40.725,23.5c-2.5,1.456-2.184,3.973.7,5.635l39.316,22.7A10.81,10.81,0,0,0,341.784,289.571Z" transform="translate(35.506 78.246)" fill="#5793ce"/>
  <path id="Path_539" data-name="Path 539" d="M341.59,267.434a4.353,4.353,0,0,0,1.963,3.4c1.092.633,1.963.127,1.963-1.14a4.29,4.29,0,0,0-1.963-3.387C342.476,265.677,341.59,266.184,341.59,267.434Z" transform="translate(-6.94 95.507)" fill="#d4ecff"/>
  <path id="Path_540" data-name="Path 540" d="M345.58,265.136a4.384,4.384,0,0,0,1.963,3.4c1.092.617,1.963.111,1.963-1.14a4.337,4.337,0,0,0-1.963-3.4C346.466,263.379,345.58,263.886,345.58,265.136Z" transform="translate(-17.245 94.165)" fill="#d4ecff"/>
  <path id="Path_541" data-name="Path 541" d="M349.57,262.839a4.321,4.321,0,0,0,1.963,3.387c1.092.633,1.963.127,1.963-1.124a4.337,4.337,0,0,0-1.963-3.4C350.456,261.066,349.57,261.589,349.57,262.839Z" transform="translate(-27.55 92.822)" fill="#d4ecff"/>
  <path id="Path_542" data-name="Path 542" d="M284.618,256.559h0V239.8h37.591l12.995-7.5a12.931,12.931,0,0,1,11.649.491l12.124,7H396.6v17.237a3.387,3.387,0,0,1-1.994,3.166l-48.592,28.063a12.979,12.979,0,0,1-11.649-.491l-46.914-27.082C285.457,259.408,284.507,257.936,284.618,256.559Z" transform="translate(32.163 75.17)" fill="#396caa"/>
  <path id="Path_543" data-name="Path 543" d="M284.609,231.12a13.517,13.517,0,0,1,6.252,1.583l12.124,7h37.639v17.237a3.387,3.387,0,0,1-1.994,3.166l-48.592,28.063a10.477,10.477,0,0,1-5.413,1.14Z" transform="translate(88.139 75.158)" fill="#396caa"/>
  <path id="Path_544" data-name="Path 544" d="M284.609,236.57h4.258v17.237a3.387,3.387,0,0,1-1.994,3.166l-2.263,1.3Z" transform="translate(139.896 78.334)" fill="#5793ce"/>
  <path id="Path_545" data-name="Path 545" d="M326.341,274.611a13.327,13.327,0,0,1-9.291-.111V255h9.291Z" transform="translate(51.076 89.075)" fill="#5793ce"/>
  <path id="Path_546" data-name="Path 546" d="M345.949,279.681l48.592-28.063c2.976-1.709,2.612-4.748-.839-6.711l-46.851-27.1a12.979,12.979,0,0,0-11.649-.475L286.611,245.4c-2.976,1.709-2.612,4.748.839,6.711l46.851,27.1a12.979,12.979,0,0,0,11.649.475Z" transform="translate(32.228 66.451)" fill="#d4ecff"/>
  <path id="Path_547" data-name="Path 547" d="M341.784,272.7l40.725-23.5c2.5-1.456,2.184-3.973-.7-5.635l-39.316-22.7a10.81,10.81,0,0,0-9.75-.412l-40.725,23.584c-2.5,1.456-2.184,3.973.7,5.635l39.316,22.7a10.811,10.811,0,0,0,9.75.332Z" transform="translate(35.506 68.38)" fill="#5793ce"/>
  <path id="Path_548" data-name="Path 548" d="M341.59,250.518a4.337,4.337,0,0,0,1.963,3.4c1.092.633,1.963.127,1.963-1.124a4.305,4.305,0,0,0-1.963-3.4C342.476,248.745,341.59,249.252,341.59,250.518Z" transform="translate(-6.94 85.643)" fill="#d4ecff"/>
  <path id="Path_549" data-name="Path 549" d="M345.58,248.206a4.384,4.384,0,0,0,1.963,3.4c1.092.617,1.963.111,1.963-1.14a4.337,4.337,0,0,0-1.963-3.4C346.466,246.449,345.58,246.956,345.58,248.206Z" transform="translate(-17.245 84.298)" fill="#d4ecff"/>
  <path id="Path_550" data-name="Path 550" d="M349.57,245.906a4.384,4.384,0,0,0,1.963,3.4c1.092.617,1.963.111,1.963-1.14a4.337,4.337,0,0,0-1.963-3.4C350.456,244.149,349.57,244.656,349.57,245.906Z" transform="translate(-27.55 82.958)" fill="#d4ecff"/>
  <path id="Path_551" data-name="Path 551" d="M284.618,239.627h0V222.865h37.591l12.995-7.5a12.979,12.979,0,0,1,11.649.491l12.124,7H396.6v17.237a3.387,3.387,0,0,1-1.994,3.166l-48.592,28.063a12.979,12.979,0,0,1-11.649-.491l-46.914-27.082C285.457,242.492,284.507,241,284.618,239.627Z" transform="translate(32.163 65.306)" fill="#396caa"/>
  <path id="Path_552" data-name="Path 552" d="M284.609,214.19a13.706,13.706,0,0,1,6.252,1.583l12.124,7h37.639v17.237a3.387,3.387,0,0,1-1.994,3.166l-48.592,28.063a10.636,10.636,0,0,1-5.429,1.219Z" transform="translate(88.139 65.291)" fill="#396caa"/>
  <path id="Path_553" data-name="Path 553" d="M284.609,219.64h4.258v17.237a3.387,3.387,0,0,1-1.994,3.166l-2.263,1.314Z" transform="translate(139.896 68.467)" fill="#5793ce"/>
  <path id="Path_554" data-name="Path 554" d="M326.341,257.722a13.232,13.232,0,0,1-9.291-.111V238h9.291Z" transform="translate(51.076 79.167)" fill="#5793ce"/>
  <path id="Path_555" data-name="Path 555" d="M345.949,262.751,394.541,234.7c2.976-1.725,2.612-4.748-.839-6.727L346.852,200.9A12.931,12.931,0,0,0,335.2,200.4l-48.592,28.063c-2.976,1.709-2.612,4.748.839,6.711l46.914,27.1A12.979,12.979,0,0,0,345.949,262.751Z" transform="translate(32.228 56.585)" fill="#d4ecff"/>
  <path id="Path_556" data-name="Path 556" d="M341.784,255.774l40.725-23.5c2.5-1.44,2.184-3.973-.7-5.635l-39.316-22.7a10.81,10.81,0,0,0-9.75-.411L292.021,227c-2.5,1.44-2.184,3.957.7,5.619l39.316,22.713a10.858,10.858,0,0,0,9.75.443Z" transform="translate(35.506 58.513)" fill="#5793ce"/>
  <rect id="Rectangle_33" data-name="Rectangle 33" width="21.507" height="0.791" transform="translate(355.742 322.253) rotate(-150.03)" fill="#fff"/>
  <path id="Path_557" data-name="Path 557" d="M341.59,233.577a4.321,4.321,0,0,0,1.963,3.387c1.092.633,1.963.127,1.963-1.124a4.305,4.305,0,0,0-1.963-3.4C342.476,231.884,341.59,232.311,341.59,233.577Z" transform="translate(-6.94 75.787)" fill="#d4ecff"/>
  <path id="Path_558" data-name="Path 558" d="M345.58,231.271a4.384,4.384,0,0,0,1.963,3.4c1.092.633,1.963.111,1.963-1.14a4.29,4.29,0,0,0-1.963-3.387A1.2,1.2,0,0,0,345.58,231.271Z" transform="translate(-17.245 74.437)" fill="#d4ecff"/>
  <path id="Path_559" data-name="Path 559" d="M349.57,228.976a4.384,4.384,0,0,0,1.963,3.4c1.092.617,1.963.111,1.963-1.14a4.337,4.337,0,0,0-1.963-3.4C350.456,227.219,349.57,227.726,349.57,228.976Z" transform="translate(-27.55 73.091)" fill="#d4ecff"/>
  <path id="Path_560" data-name="Path 560" d="M284.61,222.6h0V205.818H322.2l12.995-7.5a12.979,12.979,0,0,1,11.649.475l12.124,7.012h37.623v17.252a3.419,3.419,0,0,1-1.994,3.166l-48.592,28.047a12.979,12.979,0,0,1-11.649-.475l-46.914-27.1a4.574,4.574,0,0,1-2.833-4.1Z" transform="translate(32.171 55.366)" fill="#396caa"/>
  <path id="Path_561" data-name="Path 561" d="M284.62,197.15a13.5,13.5,0,0,1,6.252,1.583L303,205.745h37.623V223a3.419,3.419,0,0,1-1.994,3.166L290.033,254.21a10.478,10.478,0,0,1-5.413,1.155Z" transform="translate(88.128 55.36)" fill="#396caa"/>
  <path id="Path_562" data-name="Path 562" d="M284.61,202.59h4.258v17.252a3.419,3.419,0,0,1-1.994,3.166l-2.263,1.3Z" transform="translate(139.896 58.531)" fill="#5793ce"/>
  <path id="Path_563" data-name="Path 563" d="M326.341,240.642a13.232,13.232,0,0,1-9.291-.095V221h9.291Z" transform="translate(51.076 69.26)" fill="#5793ce"/>
  <path id="Path_564" data-name="Path 564" d="M345.949,245.711l48.592-28.063c2.976-1.725,2.612-4.748-.839-6.711l-46.851-27.1a12.979,12.979,0,0,0-11.649-.475l-48.592,28.047c-2.976,1.725-2.612,4.748.839,6.727l46.851,27.05A12.979,12.979,0,0,0,345.949,245.711Z" transform="translate(32.228 46.654)" fill="#d4ecff"/>
  <path id="Path_565" data-name="Path 565" d="M287.437,203.589l46.914,27.1a12.979,12.979,0,0,0,11.649.475l48.592-28.047a4.574,4.574,0,0,0,1.488-1.329c1.029,1.583.554,3.435-1.488,4.622L346,234.47a12.979,12.979,0,0,1-11.649-.491L287.437,206.9c-2.675-1.583-3.482-3.7-2.327-5.4A6.616,6.616,0,0,0,287.437,203.589Z" transform="translate(32.177 57.896)" fill="#fff"/>
  <path id="Path_566" data-name="Path 566" d="M341.59,216.509a4.384,4.384,0,0,0,1.963,3.4c1.092.617,1.963.111,1.963-1.14a4.337,4.337,0,0,0-1.963-3.4C342.476,214.784,341.59,215.29,341.59,216.509Z" transform="translate(-6.94 65.837)" fill="#d4ecff"/>
  <path id="Path_567" data-name="Path 567" d="M329.37,223.251a4.321,4.321,0,0,0,1.963,3.387c1.092.633,1.963.127,1.963-1.124a4.337,4.337,0,0,0-1.963-3.4A1.214,1.214,0,0,0,329.37,223.251Z" transform="translate(24.622 69.763)" fill="#d4ecff"/>
  <path id="Path_568" data-name="Path 568" d="M329.37,240.814a4.353,4.353,0,0,0,1.963,3.4c1.092.633,1.963.127,1.963-1.124a4.289,4.289,0,0,0-1.963-3.4C330.256,239.057,329.37,239.564,329.37,240.814Z" transform="translate(24.622 79.994)" fill="#fff"/>
  <path id="Path_569" data-name="Path 569" d="M345.58,214.236a4.384,4.384,0,0,0,1.963,3.4c1.092.617,1.963.111,1.963-1.14a4.337,4.337,0,0,0-1.963-3.4C346.466,212.479,345.58,212.986,345.58,214.236Z" transform="translate(-17.245 64.501)" fill="#d4ecff"/>
  <path id="Path_570" data-name="Path 570" d="M349.57,211.924a4.353,4.353,0,0,0,1.963,3.4c1.092.633,1.963.127,1.963-1.124a4.29,4.29,0,0,0-1.963-3.4C350.456,210.167,349.57,210.674,349.57,211.924Z" transform="translate(-27.55 63.157)" fill="#d4ecff"/>
  <path id="Path_571" data-name="Path 571" d="M332.219,222.311,355,209.11c1.393-.807,1.219-2.216-.4-3.166l-21.953-12.662a6.094,6.094,0,0,0-5.445-.237l-22.855,13.216c-1.393.807-1.219,2.216.4,3.166L326.7,222.089A6.046,6.046,0,0,0,332.219,222.311Z" transform="translate(43.077 52.659)" fill="#5793ce"/>
  <path id="Path_572" data-name="Path 572" d="M321.611,205.9l3.166-1.82c.206-.111.174-.3,0-.427l-3.039-1.757a.855.855,0,0,0-.76,0l-3.166,1.82c-.206.111-.174.3,0,.427l3.039,1.757A.855.855,0,0,0,321.611,205.9Z" transform="translate(51.517 58.073)" fill="#d4ecff"/>
  <path id="Path_573" data-name="Path 573" d="M354.911,209.1h0l-.332-.237L332.626,196.2a6.046,6.046,0,0,0-5.445-.237L304.4,209.1c-1.282-.918-1.345-2.168,0-2.912l22.745-13.137a6.094,6.094,0,0,1,5.445.237l21.953,12.662C356.1,206.952,356.273,208.361,354.911,209.1Z" transform="translate(43.161 52.665)" fill="#396caa"/>
  <path id="Path_574" data-name="Path 574" d="M371.758,330.315a7.376,7.376,0,0,0-4.178,7.392,12.66,12.66,0,0,0,.617,3.609c.855,1.8,3.672,4.274,8.167,2.5s14.451-11.08,14.831-17.284C391.891,315.136,378.864,327.276,371.758,330.315Z" transform="translate(-93.724 127.974)" fill="#173d7a"/>
  <path id="Path_575" data-name="Path 575" d="M345.517,342.279s-1.076,6.569-.554,7.772,3.656,3.783,8.262,3.166,17.917-5.144,20.861-13.9c4.59-13.58-25.641,1.013-25.641,1.013Z" transform="translate(-41.098 134.845)" fill="#173d7a"/>
  <path id="Path_576" data-name="Path 576" d="M397.83,274.948,398.859,377.5a7.186,7.186,0,0,1-5.587,7.123l-1.25.158a6.331,6.331,0,0,1-6.094-2.532,7.488,7.488,0,0,1-1.361-4.131l-1.314-43.78-6.537-39.158-8.959,69.294a5.983,5.983,0,0,1-2.485,4.558,6.964,6.964,0,0,1-4.131,1.124,7.582,7.582,0,0,1-5.476-2.707,5.508,5.508,0,0,1-1.314-3.7l3.593-41.691,1.33-53.182Z" transform="translate(-80.48 97.158)" fill="#fdd762"/>
  <path id="Path_577" data-name="Path 577" d="M372.885,264.139h.57l16.382-2.548a3.688,3.688,0,1,0-1.124-7.281l-11.3,1.757,3.846-22.159a3.679,3.679,0,0,0-7.249-1.266l-4.748,27.145a3.672,3.672,0,0,0,3.625,4.321Z" transform="translate(-98.27 74.269)" fill="#ffc2b0"/>
  <path id="Path_578" data-name="Path 578" d="M387.7,218.31s-5.476-.317-12.536,14.245,2.6,19.136,2.6,19.136Z" transform="translate(-98.172 67.692)" fill="#3c498a"/>
  <path id="Path_579" data-name="Path 579" d="M380.135,222.261c-.253-.095-15.1-9.655-20.576.348-8.959,16.334-8.436,68.883-5.6,75.689,2.612,6.331,9.149,10.937,13.723,13.565a27.414,27.414,0,0,0,13.327,3.783c4.653,0,13.549-4.084,13.232-10.161-1.488-27.92.981-51.441,3.261-74.28C397.482,231.2,394.633,228.133,380.135,222.261Z" transform="translate(-75.589 67.54)" fill="#3c498a"/>
  <path id="Path_580" data-name="Path 580" d="M343.905,269.484a2.865,2.865,0,0,1-1.235-.317,3.831,3.831,0,0,1-2.058-2.944l-7.059-20.576c-.317-2.137,3.387-10.431,5.287-10.779s6.7,3.419,7.012,5.54l1.662,18.424,14.752-4.748c1.82-.95,3.308-2.881,4.384-1.092a4.21,4.21,0,0,1-.95,5.413l-19.769,10.431A3.165,3.165,0,0,1,343.905,269.484Z" transform="translate(-15.918 77.329)" fill="#ffc2b0"/>
  <path id="Path_581" data-name="Path 581" d="M330.229,250.211l1.092-2.675a7.28,7.28,0,0,1,1.757-2.548l4.606-4.242a.886.886,0,0,1,1.314.127h0a.886.886,0,0,1,0,1.14l-1.931,2.089a1.266,1.266,0,0,0-.253,1.266l.728,2.042a2.042,2.042,0,0,1-.348,2.026l-4.606,5.587Z" transform="translate(17.353 80.631)" fill="#ffc2b0"/>
  <path id="Path_582" data-name="Path 582" d="M350.75,226.36s9.908,7.645,11.444,30.912c0,0,.206,2.58-5.524,4.131a10.066,10.066,0,0,1-9.655-2.881A36.7,36.7,0,0,1,350.75,226.36Z" transform="translate(-28.857 72.384)" fill="#3c498a"/>
  <path id="Path_583" data-name="Path 583" d="M360.423,215l-1.583,9.354a4.305,4.305,0,0,0,3.514,4.068c3.545.886,4.653-1.425,4.653-1.425l1.583-10.526Z" transform="translate(-57.317 65.763)" fill="#ffc2b0"/>
  <path id="Path_584" data-name="Path 584" d="M376.515,223.042c-3.846,7.455-12.346,10.715-18.993,7.265s-8.879-12.3-5.033-19.769,12.346-10.7,18.993-7.249S380.377,215.571,376.515,223.042Z" transform="translate(-54.1 58.133)" fill="#ffc2b0"/>
  <path id="Path_585" data-name="Path 585" d="M366.515,222.66a1.773,1.773,0,0,0,1.583-.475c.7-.712.981-4.479,2.786-4.748,2.849-.491,8.626,3.957,10.969-5.587,1.219-4.954-1-6.711-.506-9.5,0,0,0,1.424-12.8-1.662s-18.993,7.661-20.2,13.074-.142,14.847,8.468,17.6c1.424.459,8.436-3.419,8.389-4.1s-2.374-1.045-1.725-2.865a2.469,2.469,0,0,1,3.039-1.741Z" transform="translate(-53.692 57.106)" fill="#573e1d"/>
  <path id="Path_586" data-name="Path 586" d="M380.577,285.49l-9.006,69.294a5.983,5.983,0,0,1-2.485,4.558,6.081,6.081,0,0,1-.775.427c1.868-1.393,7.36-59.56,8.373-66.018S380.577,285.49,380.577,285.49Z" transform="translate(-84.293 106.844)" fill="#d8892b"/>
</svg>
