<svg width="50" height="50" viewBox="0 0 50 50" fill="none" xmlns="http://www.w3.org/2000/svg">
<path d="M25 50C38.8071 50 50 38.8071 50 25C50 11.1929 38.8071 0 25 0C11.1929 0 0 11.1929 0 25C0 38.8071 11.1929 50 25 50Z" fill="#C4C4C4"/>
<path d="M11.4396 24.4583L35.5438 15.1645C36.6625 14.7604 37.6396 15.4374 37.2771 17.1291L37.2792 17.127L33.175 36.4624C32.8708 37.8333 32.0562 38.1666 30.9167 37.5208L24.6667 32.9145L21.6521 35.8187C21.3187 36.152 21.0375 36.4333 20.3917 36.4333L20.8354 30.0729L32.4187 19.6083C32.9229 19.1645 32.3062 18.9145 31.6417 19.3562L17.3271 28.3687L11.1562 26.4437C9.81666 26.0187 9.7875 25.1041 11.4396 24.4583Z" fill="white"/>
</svg>
