<svg width="35" height="35" viewBox="0 0 35 35" fill="none" xmlns="http://www.w3.org/2000/svg">
<path fill-rule="evenodd" clip-rule="evenodd" d="M35 17.5C35 27.165 27.165 35 17.5 35C7.83502 35 0 27.165 0 17.5C0 7.83502 7.83502 0 17.5 0C27.165 0 35 7.83502 35 17.5ZM24.8809 10.6153L8.00797 17.1209C6.85151 17.573 6.87193 18.2132 7.80964 18.5107L12.1292 19.8582L22.1494 13.5494C22.6146 13.2403 23.0463 13.4153 22.6934 13.7259L14.5851 21.0511L14.2744 25.5034C14.7265 25.5034 14.9234 25.3065 15.1567 25.0732L17.2669 23.0403L21.6419 26.2646C22.4396 26.7167 23.0098 26.4834 23.2228 25.5238L26.0957 11.989L26.0942 11.9905C26.348 10.8063 25.664 10.3323 24.8809 10.6153Z" fill="#C4C4C4"/>
</svg>
