<svg width="21" height="20" viewBox="0 0 21 20" fill="none" xmlns="http://www.w3.org/2000/svg">
<path d="M10.4384 0C4.92458 0 0.438416 4.48617 0.438416 10C0.438416 15.5142 4.92458 20 10.4384 20C15.9526 20 20.4384 15.5142 20.4384 10C20.4384 4.48617 15.9526 0 10.4384 0ZM10.4384 19.2308C5.34882 19.2308 1.20764 15.0896 1.20764 10C1.20764 4.91036 5.34877 0.769223 10.4384 0.769223C15.5281 0.769223 19.6692 4.91036 19.6692 10C19.6692 15.0896 15.528 19.2308 10.4384 19.2308Z" fill="#010002"/>
<path d="M10.5641 3H9.79489V10.4358H14.6707V9.66651H10.5641V3Z" fill="#010002"/>
</svg>
