<svg width="35" height="35" viewBox="0 0 35 35" fill="none" xmlns="http://www.w3.org/2000/svg">
<path d="M30.0893 4.91066C26.9227 1.74392 22.7123 0 18.234 0C13.7556 0 9.54522 1.74392 6.37848 4.91066C3.21173 8.07741 1.46788 12.2877 1.46788 16.766C1.46788 19.6029 2.186 22.3906 3.54908 24.8599L0 35L10.14 31.451C12.6094 32.8139 15.3971 33.5321 18.2339 33.5321C22.7123 33.5321 26.9227 31.7881 30.0893 28.6215C33.256 25.4548 35 21.2445 35 16.766C35 12.2876 33.256 8.07734 30.0893 4.91066ZM26.5224 22.9944L24.5868 24.93C22.9834 26.5334 18.4337 24.5837 14.4251 20.5749C10.4163 16.5662 8.46651 12.0167 10.07 10.4132L12.0055 8.47766C12.4064 8.0768 13.0564 8.0768 13.4572 8.47766L15.8767 10.8971C16.2775 11.298 16.2775 11.9479 15.8767 12.3488L14.425 13.8005C15.8331 16.7732 18.2268 19.1668 21.1995 20.5749L22.6512 19.1233C23.0521 18.7224 23.702 18.7224 24.1029 19.1233L26.5223 21.5427C26.9233 21.9436 26.9233 22.5935 26.5224 22.9944Z" fill="#666666"/>
</svg>
